<?xml version="1.0" standalone="no"?>
<!DOCTYPE svg PUBLIC "-//W3C//DTD SVG 1.1//EN" "http://www.w3.org/Graphics/SVG/1.1/DTD/svg11.dtd" >
<svg xmlns="http://www.w3.org/2000/svg" xmlns:xlink="http://www.w3.org/1999/xlink" version="1.1">
<metadata>
Created by FontForge 20170731 at Mon Apr  1 16:47:44 2019
 By Aleksey,,,
Copyright (c) 2019 by Mathieu Desjardins. All rights reserved.
</metadata>
<defs>
<font id="NeueMachina-Light" horiz-adv-x="1000" >
  <font-face 
    font-family="Neue Machina Light"
    font-weight="300"
    font-stretch="normal"
    units-per-em="1000"
    panose-1="0 0 4 0 0 0 0 0 0 0"
    ascent="800"
    descent="-200"
    x-height="495"
    cap-height="705"
    bbox="-426 -230 1555 981"
    underline-thickness="50"
    underline-position="-175"
    unicode-range="U+0020-277E"
  />
<missing-glyph horiz-adv-x="483" 
d="M396 735v-965h-306v965h306zM321 670h-159v-31h63v-36h-64v-32h160v32h-63v36h63v31zM258 546h-97v-100h160v32h-63v68zM225 513v-35h-32v35h32zM321 419h-160v-31h64v-36h-64v-32h97v68h63v31zM321 362h-31v-64h-129v-33h160v97zM321 244h-96v-54h33v22h32v-45h-97v77
h-32v-109h160v109zM321 77h-160v-109h160v109zM290 45v-45h-97v45h97zM321 -54h-160v-32h68l-68 -46v-31h160v31h-98l67 46h31v32z" />
    <glyph glyph-name="f_f" unicode="ff" horiz-adv-x="724" 
d="M612 679q-49 0 -67.5 -23t-18.5 -74v-87h144v-56h-144v-383h144v-56h-624v56h112v383h-112v56h112v38q0 152 152 152h178q38 50 124 50h86v-56h-86zM460 495v88q0 27 4 46h-154q-49 0 -67.5 -23t-18.5 -74v-37h236zM460 56v383h-236v-383h236z" />
    <glyph glyph-name="f_f_i" unicode="ffi" horiz-adv-x="1022" 
d="M849 56h137v-56h-940v56h112v383h-112v56h112v38q0 152 152 152h174q38 64 128 60l198 -10v-56l-198 10q-47 2 -66.5 -25.5t-19.5 -81.5v-83l262 6q33 1 47 -14.5t14 -50.5v-384zM224 532v-37h124l113 3v85q0 27 4 46h-155q-49 0 -67.5 -23t-18.5 -74zM783 56v393
l-257 -6v-387h257zM461 56v386l-93 -3h-144v-383h237z" />
    <glyph glyph-name="f_i" unicode="fi" horiz-adv-x="720" 
d="M547 56h137v-56h-638v56h113v386l-113 -3v56l113 3v85q0 77 36.5 121.5t114.5 40.5l198 -10v-56l-198 10q-47 2 -66.5 -25.5t-19.5 -81.5v-83l262 6q33 1 47 -14.5t14 -50.5v-384zM481 56v393l-257 -6v-387h257z" />
    <glyph glyph-name=".notdef" horiz-adv-x="483" 
d="M396 735v-965h-306v965h306zM321 670h-159v-31h63v-36h-64v-32h160v32h-63v36h63v31zM258 546h-97v-100h160v32h-63v68zM225 513v-35h-32v35h32zM321 419h-160v-31h64v-36h-64v-32h97v68h63v31zM321 362h-31v-64h-129v-33h160v97zM321 244h-96v-54h33v22h32v-45h-97v77
h-32v-109h160v109zM321 77h-160v-109h160v109zM290 45v-45h-97v45h97zM321 -54h-160v-32h68l-68 -46v-31h160v31h-98l67 46h31v32z" />
    <glyph glyph-name=".null" horiz-adv-x="0" 
 />
    <glyph glyph-name="nonmarkingreturn" horiz-adv-x="333" 
 />
    <glyph glyph-name="space" unicode=" " horiz-adv-x="342" 
 />
    <glyph glyph-name="exclam" unicode="!" horiz-adv-x="327" 
d="M131 705h66l-5 -466h-56zM163 -10q-32 0 -54.5 22.5t-22.5 55.5q0 32 22.5 54.5t54.5 22.5t55 -22.5t23 -54.5q0 -33 -23 -55.5t-55 -22.5z" />
    <glyph glyph-name="quotedbl" unicode="&#x22;" horiz-adv-x="364" 
d="M86 735h66v-240h-66v240zM212 735h66v-240h-66v240z" />
    <glyph glyph-name="numbersign" unicode="#" horiz-adv-x="1075" 
d="M989 439h-216l-81 -244h202v-56h-220l-95 -288l-53 18l89 270h-271l-95 -288l-53 18l89 270h-199v56h217l81 244h-203v56h221l92 279l53 -18l-86 -261h271l92 279l53 -18l-86 -261h198v-56zM633 195l81 244h-271l-81 -244h271z" />
    <glyph glyph-name="dollar" unicode="$" horiz-adv-x="749" 
d="M663 175q0 -184 -260 -185v-138h-56v140q-144 10 -202.5 79t-58.5 191h66q0 -112 49 -159.5t146 -54.5v296q-59 17 -94 31.5t-69.5 37t-50 54.5t-15.5 76q0 166 229 172v138h56v-140q62 -6 109 -29.5t72.5 -58t37.5 -72t12 -78.5h-66q0 79 -45.5 125t-119.5 56v-267
q52 -16 78.5 -24.5t67.5 -28t61.5 -39t36.5 -51.5t16 -71zM184 547q0 -54 39 -83.5t124 -56.5v252q-163 -5 -163 -112zM403 46q96 1 145 29t49 95q0 29 -11.5 52.5t-27.5 38.5t-45 29t-51 21.5t-59 17.5v-283z" />
    <glyph glyph-name="percent" unicode="%" horiz-adv-x="1158" 
d="M698 814l53 -18l-298 -905l-53 18zM288 341q-89 0 -145.5 58.5t-56.5 143.5t56.5 143.5t145.5 58.5t145.5 -58.5t56.5 -143.5t-56.5 -143.5t-145.5 -58.5zM288 397q63 0 104.5 43t41.5 103t-41.5 103t-104.5 43t-104.5 -43t-41.5 -103t41.5 -103t104.5 -43zM870 -10
q-89 0 -145.5 58.5t-56.5 143.5t56.5 143.5t145.5 58.5t145.5 -58.5t56.5 -143.5t-56.5 -143.5t-145.5 -58.5zM870 46q63 0 104.5 43t41.5 103t-41.5 103t-104.5 43t-104.5 -43t-41.5 -103t41.5 -103t104.5 -43z" />
    <glyph glyph-name="ampersand" unicode="&#x26;" horiz-adv-x="942" 
d="M856 -17l-52 -34l-108 137q-114 -114 -294 -114q-139 0 -227.5 72.5t-88.5 192.5q0 107 63 172.5t155 65.5q72 0 111 -49v20l-169 215l-1 44h522v-56h-433l363 -464q76 122 76 310h66q0 -222 -101 -361zM402 28q160 0 257 106l-148 188q-43 54 -83 75.5t-98 21.5
q-81 0 -129.5 -48t-48.5 -134q0 -97 68.5 -153t181.5 -56z" />
    <glyph glyph-name="quotesingle" unicode="'" horiz-adv-x="238" 
d="M86 735h66v-240h-66v240z" />
    <glyph glyph-name="parenleft" unicode="(" horiz-adv-x="426" 
d="M340 -87v-63q-254 55 -254 428q0 372 254 427v-63q-188 -43 -188 -364q0 -322 188 -365z" />
    <glyph glyph-name="parenright" unicode=")" horiz-adv-x="426" 
d="M86 -87q188 43 188 365q0 321 -188 364v63q254 -55 254 -427q0 -373 -254 -428v63z" />
    <glyph glyph-name="asterisk" unicode="*" horiz-adv-x="505" 
d="M66 579l17 54l120 -39l33 -23l-11 38v126h56v-126l-11 -39l32 23l120 38l17 -53l-120 -39l-38 -2l30 -22l74 -102l-46 -33l-74 102l-13 36l-14 -36l-74 -102l-45 33l74 102l31 23l-38 2z" />
    <glyph glyph-name="plus" unicode="+" horiz-adv-x="636" 
d="M550 276v-56h-204v-204h-56v204h-204v56h204v204h56v-204h204z" />
    <glyph glyph-name="comma" unicode="," horiz-adv-x="270" 
d="M120 159l64 -17l-74 -276l-64 17z" />
    <glyph glyph-name="hyphen" unicode="-" horiz-adv-x="636" 
d="M86 276h464v-56h-464v56z" />
    <glyph glyph-name="period" unicode="." horiz-adv-x="327" 
d="M163 -10q-32 0 -54.5 22.5t-22.5 55.5q0 32 22.5 54.5t54.5 22.5t55 -22.5t23 -54.5q0 -33 -23 -55.5t-55 -22.5z" />
    <glyph glyph-name="slash" unicode="/" horiz-adv-x="483" 
d="M364 814l53 -18l-298 -905l-53 18z" />
    <glyph glyph-name="zero" unicode="0" horiz-adv-x="717" 
d="M359 715q140 0 216 -101t76 -261q0 -161 -76 -262t-216 -101q-141 0 -217 101t-76 262q0 160 76 261t217 101zM359 659q-111 0 -169 -84.5t-58 -221.5q0 -112 37 -187l342 429q-58 64 -152 64zM359 46q111 0 168.5 84.5t57.5 222.5q0 112 -37 187l-342 -429
q59 -65 153 -65z" />
    <glyph glyph-name="one" unicode="1" horiz-adv-x="462" 
d="M56 385q177 72 183 320h137v-705h-66v635l10 50h-20q-4 -62 -16 -112.5t-36.5 -100t-68 -86t-103.5 -56.5z" />
    <glyph glyph-name="two" unicode="2" horiz-adv-x="664" 
d="M56 362q0 182 81 267.5t215 85.5q113 0 179.5 -62t66.5 -175q0 -110 -70 -197.5t-183.5 -140t-258.5 -74.5v-20l50 10h462v-56h-532v116q22 3 49 8.5t74.5 19t90.5 31t90.5 47t82 64.5t57 85t22.5 107q0 90 -46.5 135.5t-131.5 45.5q-232 0 -232 -297h-66z" />
    <glyph glyph-name="three" unicode="3" horiz-adv-x="670" 
d="M66 269h66q0 -119 52.5 -171t163.5 -52q190 0 190 160q0 139 -144 139h-98v56h98q134 0 134 118q0 140 -180 140q-107 0 -156.5 -45.5t-49.5 -137.5h-66q0 115 69 177t203 62q121 0 183.5 -51.5t62.5 -134.5q0 -126 -130 -146v-20q71 -15 105.5 -53.5t34.5 -113.5
q0 -95 -66 -150.5t-190 -55.5q-282 0 -282 279z" />
    <glyph glyph-name="four" unicode="4" horiz-adv-x="657" 
d="M601 219v-56h-94v-163h-66v163h-375v117q127 62 215.5 172t104.5 253h66q-49 -319 -366 -476v-20l50 10h305v276h66v-276h94z" />
    <glyph glyph-name="five" unicode="5" horiz-adv-x="700" 
d="M66 249h66q0 -99 56 -151t164 -52q101 0 158.5 56.5t57.5 159.5q0 89 -42.5 138t-126.5 49q-122 0 -186 -99l-90 44v311h462v-56h-396v-185l-10 -50l17 -10q32 43 87.5 72t125.5 29q106 0 165.5 -67t59.5 -182q0 -122 -77 -194t-205 -72q-135 0 -210.5 68.5t-75.5 190.5z
" />
    <glyph glyph-name="six" unicode="6" horiz-adv-x="681" 
d="M66 327q0 90 16.5 161.5t51 127t94 81.5t140.5 18l197 -20v-56l-197 20q-64 6 -110.5 -14t-73.5 -63t-41 -89t-21 -106l-20 -50h20q17 74 85 121t161 47q114 0 180.5 -70.5t66.5 -182.5q0 -116 -74 -189t-200 -73q-127 0 -201 86.5t-74 250.5zM132 242q0 -77 57.5 -136.5
t151.5 -59.5q98 0 153 54.5t55 151.5q0 89 -49.5 143t-136.5 54q-98 0 -164.5 -56.5t-66.5 -150.5z" />
    <glyph glyph-name="seven" unicode="7" horiz-adv-x="581" 
d="M165 0q0 229 87 384t273 255v20l-50 -10h-439v56h509v-120q-158 -83 -236 -226t-78 -359h-66z" />
    <glyph glyph-name="eight" unicode="8" horiz-adv-x="667" 
d="M56 193q0 72 39 116.5t121 68.5v20q-62 21 -91 55.5t-29 93.5q0 82 65 125t173 43t172.5 -43t64.5 -125q0 -59 -29 -93.5t-91 -55.5v-20q82 -24 121 -68.5t39 -116.5q0 -89 -73.5 -146t-203.5 -57t-204 57t-74 146zM162 537q0 -67 43.5 -94.5t128.5 -27.5q84 0 127.5 28
t43.5 94t-43.5 94t-127.5 28t-128 -28t-44 -94zM122 203q0 -73 53 -115t159 -42q105 0 158 42t53 115q0 72 -53 114t-158 42q-106 0 -159 -42t-53 -114z" />
    <glyph glyph-name="nine" unicode="9" horiz-adv-x="681" 
d="M615 378q0 -90 -16.5 -161.5t-51 -127t-94 -81.5t-140.5 -18l-197 20v56l197 -20q64 -6 110.5 14t73.5 63t41 89t21 106l20 50h-20q-17 -74 -85 -121t-161 -47q-114 0 -180.5 70.5t-66.5 182.5q0 116 74 189t200 73q127 0 201 -86.5t74 -250.5zM549 463q0 77 -57.5 136.5
t-151.5 59.5q-98 0 -153 -54.5t-55 -151.5q0 -89 49.5 -143t136.5 -54q98 0 164.5 56.5t66.5 150.5z" />
    <glyph glyph-name="colon" unicode=":" horiz-adv-x="327" 
d="M163 350q-32 0 -54.5 22.5t-22.5 55.5q0 32 22.5 54.5t54.5 22.5t55 -22.5t23 -54.5q0 -33 -23 -55.5t-55 -22.5zM163 -10q-32 0 -54.5 22.5t-22.5 55.5q0 32 22.5 54.5t54.5 22.5t55 -22.5t23 -54.5q0 -33 -23 -55.5t-55 -22.5z" />
    <glyph glyph-name="semicolon" unicode=";" horiz-adv-x="327" 
d="M163 350q-32 0 -54.5 22.5t-22.5 55.5q0 32 22.5 54.5t54.5 22.5t55 -22.5t23 -54.5q0 -33 -23 -55.5t-55 -22.5zM120 159l64 -17l-74 -276l-64 17z" />
    <glyph glyph-name="less" unicode="&#x3c;" horiz-adv-x="636" 
d="M86 212v70l440 152l24 -54l-392 -133l392 -131l-24 -54z" />
    <glyph glyph-name="equal" unicode="=" horiz-adv-x="636" 
d="M86 376h464v-56h-464v56zM86 176h464v-56h-464v56z" />
    <glyph glyph-name="greater" unicode="&#x3e;" horiz-adv-x="636" 
d="M550 212l-440 -150l-24 54l392 131l-392 133l24 54l440 -152v-70z" />
    <glyph glyph-name="question" unicode="?" horiz-adv-x="513" 
d="M66 500q0 100 53 157.5t149 57.5q86 0 132.5 -45.5t46.5 -125.5q0 -52 -24.5 -94.5t-68.5 -71t-96 -47t-115 -29.5v-14l36 7h208v-56h-264v113q258 40 258 202q0 105 -112 105q-70 0 -103.5 -39t-33.5 -120h-66zM251 -10q-32 0 -54.5 22.5t-22.5 55.5q0 32 22.5 54.5
t54.5 22.5t55 -22.5t23 -54.5q0 -33 -23 -55.5t-55 -22.5z" />
    <glyph glyph-name="at" unicode="@" horiz-adv-x="1050" 
d="M698 96v34l10 50h-20q-16 -63 -68.5 -102t-132.5 -39q-107 0 -174 72.5t-67 185.5q0 112 67 184.5t174 72.5q80 0 132.5 -39t68.5 -102h20l-10 50v52h66v-419h23q121 0 121 195q0 155 -106 261.5t-272 106.5t-277 -107t-111 -261q0 -165 111 -267.5t297 -90.5l326 20v-56
l-326 -20q-213 -13 -338.5 104.5t-125.5 309.5q0 181 125.5 302.5t318.5 121.5q192 0 313 -120.5t121 -303.5q0 -44 -8.5 -84.5t-27 -79.5t-55 -63t-86.5 -24h-34q-55 0 -55 56zM500 95q86 0 142 50.5t56 151.5q0 100 -56 150.5t-142 50.5q-84 0 -136 -50t-52 -151
q0 -102 51.5 -152t136.5 -50z" />
    <glyph glyph-name="A" unicode="A" horiz-adv-x="672" 
d="M571 0l-94 286h-282l-94 -286h-65l232 705h136l232 -705h-65zM213 342h246l-113 343h-20z" />
    <glyph glyph-name="B" unicode="B" horiz-adv-x="635" 
d="M76 0v705h174q136 0 201.5 -37t65.5 -136q0 -69 -38.5 -108t-96.5 -43v-20q86 -2 136.5 -44.5t50.5 -129.5q0 -100 -67.5 -143.5t-199.5 -43.5h-226zM142 395h108q103 0 152 26t49 101q0 35 -9.5 58.5t-24.5 37t-43 20.5t-54.5 9t-69.5 2h-108v-254zM142 56h160
q103 0 152 29.5t49 111.5q0 77 -51 109.5t-150 32.5h-160v-283z" />
    <glyph glyph-name="C" unicode="C" horiz-adv-x="768" 
d="M66 353q0 158 87 260t236 102q132 0 214.5 -75.5t98.5 -206.5h-66q-12 108 -75.5 167t-171.5 59q-125 0 -191 -84.5t-66 -221.5q0 -138 66 -222.5t191 -84.5q108 0 171.5 59.5t75.5 167.5h66q-16 -132 -98.5 -207.5t-214.5 -75.5q-149 0 -236 102t-87 261z" />
    <glyph glyph-name="D" unicode="D" horiz-adv-x="705" 
d="M292 705q46 0 84.5 -5.5t80 -18.5t72.5 -38.5t57 -63t39.5 -95.5t13.5 -131q0 -88 -20.5 -153t-52.5 -102.5t-80 -60.5t-93 -30t-101 -7h-216v705h216zM292 56q45 0 78 4.5t74 22t67 48t44 87t18 135.5q0 78 -18 135t-44 87t-67 47.5t-74 22t-78 4.5h-150v-593h150z" />
    <glyph glyph-name="E" unicode="E" horiz-adv-x="555" 
d="M76 0v705h423v-56h-357v-268h307v-56h-307v-269h357v-56h-423z" />
    <glyph glyph-name="F" unicode="F" horiz-adv-x="585" 
d="M76 0v705h453v-56h-387v-297l336 20v-57l-336 -20v-295h-66z" />
    <glyph glyph-name="G" unicode="G" horiz-adv-x="800" 
d="M66 353q0 157 89 259.5t239 102.5q128 0 199.5 -70.5t88.5 -191.5h-66q-27 206 -222 206q-126 0 -194 -85t-68 -221q0 -92 22.5 -158.5t77.5 -107.5t139 -41q111 0 162.5 66.5t48.5 204.5h-257v56h344q55 0 55 -49v-324h-66v267l10 86h-20q-1 -363 -277 -363
q-149 0 -227 100.5t-78 262.5z" />
    <glyph glyph-name="H" unicode="H" horiz-adv-x="712" 
d="M570 705h66v-705h-66v321h-428v-321h-66v705h66v-328h428v328z" />
    <glyph glyph-name="I" unicode="I" horiz-adv-x="512" 
d="M446 649h-157v-593h157v-56h-380v56h157v593h-157v56h380v-56z" />
    <glyph glyph-name="J" unicode="J" horiz-adv-x="460" 
d="M195 -10l-159 10v56l159 -10q84 -5 108.5 52t24.5 226v335l-179 -10v56l190 10q26 1 40.5 -13.5t14.5 -41.5v-336q0 -50 -1 -83.5t-5.5 -73t-13 -64.5t-23 -50t-35.5 -38t-51.5 -20.5t-69.5 -4.5z" />
    <glyph glyph-name="K" unicode="K" horiz-adv-x="651" 
d="M615 705l-431 -352l431 -353h-95l-378 310v-310h-66v705h66v-310l378 310h95z" />
    <glyph glyph-name="L" unicode="L" horiz-adv-x="535" 
d="M131 -10q-26 -1 -40.5 14t-14.5 41v660h66v-659l357 10v-56z" />
    <glyph glyph-name="M" unicode="M" horiz-adv-x="880" 
d="M76 0v705h134l220 -685h20l220 685h134v-705h-66v635l10 50h-20l-220 -685h-136l-220 685h-20l10 -50v-635h-66z" />
    <glyph glyph-name="N" unicode="N" horiz-adv-x="742" 
d="M76 0v705h135l379 -685h20l-10 50v635h66v-705h-135l-379 685h-20l10 -50v-635h-66z" />
    <glyph glyph-name="O" unicode="O" horiz-adv-x="777" 
d="M66 353q0 158 87 260t236 102t235.5 -102t86.5 -260q0 -159 -86.5 -261t-235.5 -102t-236 102t-87 261zM132 353q0 -138 66 -222.5t191 -84.5t190.5 84.5t65.5 222.5q0 137 -65.5 221.5t-190.5 84.5t-191 -84.5t-66 -221.5z" />
    <glyph glyph-name="P" unicode="P" horiz-adv-x="605" 
d="M262 705q143 0 215 -50t72 -177t-72 -177.5t-215 -50.5h-120v-250h-66v705h186zM262 306q52 0 88 6.5t68.5 24t48.5 52.5t16 89q0 101 -56.5 136t-164.5 35h-120v-343h120z" />
    <glyph glyph-name="Q" unicode="Q" horiz-adv-x="760" 
d="M440 -54q159 5 384 -40v-56q-166 32 -304.5 40t-330.5 -12l-9 54q9 1 44.5 6t51 7.5t47.5 8t51.5 11t44.5 12.5t45 16t36 20l-7 10q-41 -23 -124 -23q-131 0 -217 102t-86 256q0 157 86.5 257t236.5 100q149 0 235.5 -102t86.5 -260q0 -87 -24.5 -159t-66.5 -120
t-86 -78.5t-94 -49.5zM389 56q120 0 188 81.5t68 215.5q0 135 -68.5 220.5t-187.5 85.5q-120 0 -188.5 -83.5t-68.5 -217.5q0 -135 68.5 -218.5t188.5 -83.5z" />
    <glyph glyph-name="R" unicode="R" horiz-adv-x="654" 
d="M76 0v705h226q136 0 201.5 -42.5t65.5 -154.5q0 -145 -122 -168v-20h81q27 0 38.5 -11t11.5 -36v-273h-66v290h-370v-290h-66zM142 346h160q53 0 85 4.5t61 19.5t42 46.5t13 81.5q0 41 -9.5 69t-24.5 44t-42.5 24.5t-55 11t-69.5 2.5h-160v-303z" />
    <glyph glyph-name="S" unicode="S" horiz-adv-x="669" 
d="M623 175q0 -185 -265 -185q-173 0 -242.5 70t-69.5 202h66q0 -125 61 -170.5t185 -45.5q98 0 148.5 28.5t50.5 95.5q0 22 -6.5 40.5t-15 31.5t-27 26t-31 20.5t-39 16.5t-40 13.5t-45 13t-42.5 11.5q-47 14 -77.5 24.5t-63 27.5t-50.5 36.5t-30 47.5t-12 64
q0 172 244 172q74 0 129 -21.5t85 -57.5t44 -76.5t14 -84.5h-66q0 90 -58 137t-148 47q-178 0 -178 -112q0 -57 43.5 -87t143.5 -61q131 -40 167 -57q113 -52 124 -145q1 -10 1 -22z" />
    <glyph glyph-name="T" unicode="T" horiz-adv-x="653" 
d="M607 705v-56h-247v-649h-66v649h-248v56h561z" />
    <glyph glyph-name="U" unicode="U" horiz-adv-x="655" 
d="M56 262v443h66v-442q0 -111 48 -164t157 -53t157.5 53t48.5 164v442h66v-443q0 -272 -272 -272q-271 0 -271 272z" />
    <glyph glyph-name="V" unicode="V" horiz-adv-x="672" 
d="M36 705h65l225 -685h20l225 685h65l-232 -705h-136z" />
    <glyph glyph-name="W" unicode="W" horiz-adv-x="982" 
d="M36 705h62l151 -685h20l155 685h134l155 -685h20l151 685h62l-156 -705h-134l-155 685h-20l-155 -685h-134z" />
    <glyph glyph-name="X" unicode="X" horiz-adv-x="666" 
d="M36 0l246 339v28l-246 338h75l222 -310l222 310h75l-246 -338v-28l246 -339h-75l-222 311l-222 -311h-75z" />
    <glyph glyph-name="Y" unicode="Y" horiz-adv-x="646" 
d="M539 705h71l-254 -435v-270h-66v270l-254 435h71l206 -354v-50h20v50z" />
    <glyph glyph-name="Z" unicode="Z" horiz-adv-x="649" 
d="M56 0v131l517 508v20l-50 -10h-467v56h537v-131l-517 -508v-20l50 10h467v-56h-537z" />
    <glyph glyph-name="bracketleft" unicode="[" horiz-adv-x="425" 
d="M86 705h253v-56h-188v-743h188v-56h-253v855z" />
    <glyph glyph-name="backslash" unicode="\" horiz-adv-x="483" 
d="M119 814l298 -905l-53 -18l-298 905z" />
    <glyph glyph-name="bracketright" unicode="]" horiz-adv-x="425" 
d="M339 705v-855h-253v56h188v743h-188v56h253z" />
    <glyph glyph-name="asciicircum" unicode="^" horiz-adv-x="539" 
d="M387 386l-107 299h-20l-108 -299h-66l117 319h134l116 -319h-66z" />
    <glyph glyph-name="underscore" unicode="_" horiz-adv-x="596" 
d="M66 -50h464v-56h-464v56z" />
    <glyph glyph-name="grave" unicode="`" horiz-adv-x="476" 
d="M390 636l-14 -54l-290 78l14 54z" />
    <glyph glyph-name="a" unicode="a" horiz-adv-x="582" 
d="M56 138q0 60 38 97.5t117 44.5l206 19q-9 150 -148 150q-63 0 -105 -32.5t-42 -104.5h-66q0 79 56.5 136t156.5 57q101 0 157.5 -62.5t56.5 -160.5v-226h73v-56h-84q-55 0 -55 55v30l10 50h-20q-16 -63 -62 -104t-127 -41q-50 0 -84.5 15t-50 40t-21.5 47t-6 46zM122 144
q0 -47 27 -72.5t75 -25.5q87 0 140 56t53 141l-196 -19q-51 -5 -75 -23t-24 -57z" />
    <glyph glyph-name="b" unicode="b" horiz-adv-x="650" 
d="M76 0v735h66v-321l-10 -50h20q16 63 69 102t133 39q107 0 173.5 -72.5t66.5 -184.5q0 -113 -66.5 -185.5t-173.5 -72.5q-80 0 -133 39t-69 102h-20l10 -50v-81h-66zM142 248q0 -101 56 -151.5t142 -50.5q85 0 136.5 50t51.5 152q0 101 -52 151t-136 50q-86 0 -142 -50.5
t-56 -150.5z" />
    <glyph glyph-name="c" unicode="c" horiz-adv-x="585" 
d="M56 248q0 109 66.5 183t182.5 74q79 0 146.5 -48t77.5 -146h-67q-21 138 -157 138q-90 0 -136.5 -57.5t-46.5 -143.5q0 -87 46.5 -144.5t136.5 -57.5q136 0 157 138h67q-10 -98 -77.5 -146t-146.5 -48q-116 0 -182.5 74.5t-66.5 183.5z" />
    <glyph glyph-name="d" unicode="d" horiz-adv-x="650" 
d="M574 0h-66v81l10 50h-20q-16 -63 -69 -102t-133 -39q-107 0 -173.5 72.5t-66.5 185.5q0 112 66.5 184.5t173.5 72.5q80 0 133 -39t69 -102h20l-10 50v321h66v-735zM508 248q0 100 -56 150.5t-142 50.5q-84 0 -136 -50t-52 -151q0 -102 51.5 -152t136.5 -50q86 0 142 50.5
t56 151.5z" />
    <glyph glyph-name="e" unicode="e" horiz-adv-x="589" 
d="M56 254q0 118 65 184.5t170 66.5q104 0 164.5 -63.5t60.5 -177.5v-28h-394q5 -85 47.5 -137.5t132.5 -52.5q134 0 165 127h66q-9 -33 -23.5 -62t-40.5 -58t-69 -46t-98 -17q-124 0 -185 74t-61 190zM122 292h328q0 68 -42.5 112.5t-116.5 44.5t-121.5 -45t-47.5 -112z
" />
    <glyph glyph-name="f" unicode="f" horiz-adv-x="422" 
d="M310 679q-49 0 -67.5 -23t-18.5 -74v-87h144v-56h-144v-383h144v-56h-322v56h112v383h-112v56h112v88q0 152 152 152h86v-56h-86z" />
    <glyph glyph-name="g" unicode="g" horiz-adv-x="651" 
d="M581 495h44v-56h-44q-39 0 -68 -22q38 -47 38 -114q0 -80 -58.5 -135.5t-176.5 -99.5q60 9 111 7.5t84.5 -29t33.5 -80.5q0 -39 -17 -65t-47.5 -42t-89.5 -24.5t-126 -11.5t-173 -3v56q225 0 306 16t81 74q0 28 -17 45t-46.5 21.5t-64 3.5t-75.5 -10t-74.5 -18t-66.5 -20
l-17 50q37 12 110.5 36.5t110.5 36.5v20q-121 -28 -202 17t-81 155q0 99 69 150.5t179 51.5q95 0 163 -46q44 24 62.5 30t51.5 6zM304 156q181 0 181 147q0 146 -181 146q-182 0 -182 -146q0 -147 182 -147z" />
    <glyph glyph-name="h" unicode="h" horiz-adv-x="590" 
d="M343 505q85 0 133 -48.5t48 -146.5v-310h-66v302q0 78 -31.5 112.5t-98.5 34.5q-82 0 -134 -61.5t-52 -160.5v-227h-66v735h66v-331l-10 -50h20q16 70 64.5 110.5t126.5 40.5z" />
    <glyph glyph-name="i" unicode="i" horiz-adv-x="432" 
d="M213 580q-28 0 -47.5 20t-19.5 48q0 27 19.5 47t47.5 20t48 -20t20 -47q0 -28 -20 -48t-48 -20zM56 0v56h139v393l-99 -10v56l100 10q61 5 61 -55v-394h139v-56h-340z" />
    <glyph glyph-name="j" unicode="j" horiz-adv-x="273" 
d="M147 580q-28 0 -47.5 20t-19.5 48q0 27 19.5 47t47.5 20t48 -20t20 -47q0 -28 -20 -48t-48 -20zM26 -180l86 154q17 30 17 68v407l-103 -10v56l104 10q32 3 48.5 -12t16.5 -43v-420q0 -38 -17 -68l-81 -142h-71z" />
    <glyph glyph-name="k" unicode="k" horiz-adv-x="540" 
d="M419 0l-174 238l-103 -58v-180h-66v735h66v-485l257 145l-11 100h66l10 -87q4 -43 -36 -66l-130 -74l196 -268h-75z" />
    <glyph glyph-name="l" unicode="l" horiz-adv-x="426" 
d="M46 0v56h139v633l-99 -10v56l100 10q33 4 49 -13t16 -52v-624h139v-56h-344z" />
    <glyph glyph-name="m" unicode="m" horiz-adv-x="892" 
d="M675 505q72 0 111.5 -50t39.5 -132v-323h-66v302q0 76 -23.5 111.5t-84.5 35.5q-76 0 -122 -61.5t-46 -160.5v-227h-66v302q0 76 -23.5 111.5t-84.5 35.5q-76 0 -122 -61.5t-46 -160.5v-227h-66v495h66v-91l-10 -50h20q34 151 181 151q65 0 103.5 -41t45.5 -110h12
q34 151 181 151z" />
    <glyph glyph-name="n" unicode="n" horiz-adv-x="590" 
d="M328 449q-82 0 -134 -61.5t-52 -160.5v-227h-66v495h66v-91l-10 -50h20q16 70 64.5 110.5t126.5 40.5q85 0 133 -48.5t48 -146.5v-310h-66v302q0 78 -31.5 112.5t-98.5 34.5z" />
    <glyph glyph-name="o" unicode="o" horiz-adv-x="627" 
d="M56 248q0 107 71 182t187 75q115 0 186 -75t71 -182q0 -108 -71 -183t-186 -75q-116 0 -187 75t-71 183zM122 248q0 -86 50.5 -144t141.5 -58q90 0 140.5 58.5t50.5 143.5t-50.5 143t-140.5 58t-141 -58t-51 -143z" />
    <glyph glyph-name="p" unicode="p" horiz-adv-x="650" 
d="M76 495h66v-81l-10 -50h20q16 63 68.5 102t132.5 39q107 0 174 -72.5t67 -185.5q0 -112 -67 -184.5t-174 -72.5q-80 0 -132.5 39t-68.5 102h-20l10 -50v-261h-66v675zM142 247q0 -100 56 -150.5t142 -50.5q84 0 136 50.5t52 150.5t-52 151t-136 51q-86 0 -142 -50.5
t-56 -151.5z" />
    <glyph glyph-name="q" unicode="q" horiz-adv-x="650" 
d="M574 495v-675h-66v261l10 50h-20q-16 -63 -68.5 -102t-132.5 -39q-107 0 -174 72.5t-67 184.5q0 113 67 185.5t174 72.5q80 0 132.5 -39t68.5 -102h20l-10 50v81h66zM508 247q0 101 -56 151.5t-142 50.5q-84 0 -136 -51t-52 -151t52 -150.5t136 -50.5q86 0 142 50.5
t56 150.5z" />
    <glyph glyph-name="r" unicode="r" horiz-adv-x="432" 
d="M76 0v440q0 68 65 65l265 -10v-56l-264 10v-449h-66z" />
    <glyph glyph-name="s" unicode="s" horiz-adv-x="489" 
d="M453 127q0 -61 -43.5 -99t-144.5 -38q-219 0 -219 193h66q0 -137 153 -137q64 0 93 17.5t29 58.5q0 13 -4 24.5t-9 20t-15.5 16t-18.5 12.5t-24.5 11t-26 8.5t-29 8.5t-29.5 9q-83 25 -122.5 55.5t-39.5 89.5q0 58 46 93t127 35q54 0 93.5 -14t60.5 -38.5t30.5 -52
t9.5 -58.5h-66q0 107 -128 107q-107 0 -107 -68q0 -37 23 -54.5t88 -38.5q9 -3 36.5 -11.5t38 -12t33.5 -13t33 -16t25.5 -18.5t22.5 -24.5t12.5 -29t5.5 -36.5z" />
    <glyph glyph-name="t" unicode="t" horiz-adv-x="418" 
d="M199 45l173 11v-56l-174 -10q-33 -2 -49 14.5t-16 50.5v384h-107v56h107v135l66 20v-155h153v-56h-153v-394z" />
    <glyph glyph-name="u" unicode="u" horiz-adv-x="580" 
d="M262 46q82 0 134 61.5t52 160.5v227h66v-495h-66v91l10 50h-20q-16 -70 -64.5 -110.5t-126.5 -40.5q-85 0 -133 48.5t-48 146.5v310h66v-302q0 -78 31.5 -112.5t98.5 -34.5z" />
    <glyph glyph-name="v" unicode="v" horiz-adv-x="525" 
d="M435 495h64l-169 -495h-134l-170 495h64l163 -475h20z" />
    <glyph glyph-name="w" unicode="w" horiz-adv-x="842" 
d="M26 495h63l131 -475h20l113 475h136l113 -475h20l131 475h63l-137 -495h-134l-114 475h-20l-114 -475h-134z" />
    <glyph glyph-name="x" unicode="x" horiz-adv-x="564" 
d="M46 0l186 238v20l-186 237h78l158 -207l158 207h78l-186 -237v-20l186 -238h-78l-158 208l-158 -208h-78z" />
    <glyph glyph-name="y" unicode="y" horiz-adv-x="575" 
d="M468 495h71l-213 -495v-135q0 -58 -65 -55l-181 10v56l180 -10v134l-214 495h71l166 -408v-30h20v30z" />
    <glyph glyph-name="z" unicode="z" horiz-adv-x="559" 
d="M56 0v126l427 303v20l-50 -10h-377v56h447v-126l-427 -303v-20l50 10h377v-56h-447z" />
    <glyph glyph-name="braceleft" unicode="{" horiz-adv-x="579" 
d="M271 649l-50 10v-20q102 -33 148 -98t46 -140q0 -54 -35 -121q35 -67 35 -121q0 -75 -46 -140t-148 -98v-20l50 10h222v-56h-292v97q86 38 117 90.5t31 126.5q0 29 -6 54q-59 -73 -125 -73q-55 0 -93.5 35t-38.5 95t38.5 95t93.5 35q66 0 125 -73q6 25 6 54
q0 74 -31 126.5t-117 90.5v97h292v-56h-222zM223 206q61 0 100 74q-39 74 -100 74q-31 0 -51 -21t-20 -53t20 -53t51 -21z" />
    <glyph glyph-name="bar" unicode="|" horiz-adv-x="228" 
d="M86 853h56v-1001h-56v1001z" />
    <glyph glyph-name="braceright" unicode="}" horiz-adv-x="579" 
d="M361 150q-66 0 -125 73q-6 -25 -6 -54q0 -74 31 -126.5t117 -90.5v-97h-292v56h222l50 -10v20q-102 33 -148 98t-46 140q0 54 35 121q-35 67 -35 121q0 75 46 140t148 98v20l-50 -10h-222v56h292v-97q-86 -38 -117 -90.5t-31 -126.5q0 -29 6 -54q59 73 125 73
q55 0 93.5 -35t38.5 -95t-38.5 -95t-93.5 -35zM356 354q-61 0 -100 -74q39 -74 100 -74q31 0 51 21t20 53t-20 53t-51 21z" />
    <glyph glyph-name="asciitilde" unicode="~" horiz-adv-x="636" 
d="M86 190q0 65 34.5 95.5t78.5 30.5q50 0 126.5 -40t111.5 -40q57 0 57 70h56q0 -65 -34.5 -95.5t-78.5 -30.5q-41 0 -84.5 20t-83 40t-70.5 20q-57 0 -57 -70h-56z" />
    <glyph glyph-name="exclamdown" unicode="&#xa1;" horiz-adv-x="327" 
d="M163 505q32 0 55 -22.5t23 -55.5q0 -32 -23 -54.5t-55 -22.5t-54.5 22.5t-22.5 54.5q0 33 22.5 55.5t54.5 22.5zM131 -210l5 466h56l5 -466h-66z" />
    <glyph glyph-name="cent" unicode="&#xa2;" horiz-adv-x="645" 
d="M351 152q121 7 141 137h67q-9 -93 -70.5 -141t-137.5 -52v-244l-56 1v245q-99 13 -154 84.5t-55 170.5q0 98 55 169.5t153 84.5v246l56 -1v-242q76 -5 138 -53t71 -141h-67q-20 129 -142 138zM152 353q0 -76 36.5 -130.5t106.5 -67.5l-1 395q-70 -13 -106 -67.5
t-36 -129.5z" />
    <glyph glyph-name="sterling" unicode="&#xa3;" horiz-adv-x="610" 
d="M394 649q-89 7 -129 -14t-40 -83q0 -28 8.5 -57t24.5 -66.5t22 -57.5h204v-56h-190q3 -20 3 -41q0 -74 -45.5 -122.5t-145.5 -85.5v-20l50 10h368v-56h-438v115q145 50 145 159q0 18 -5 41h-140v56h124q-4 10 -13.5 34t-14.5 37.5t-11 33.5t-9 38.5t-3 37.5q0 51 19 84.5
t54 48.5t73.5 19.5t88.5 0.5l130 -10v-56z" />
    <glyph glyph-name="currency" unicode="&#xa4;" horiz-adv-x="778" 
d="M591 335q0 -70 -39 -123l140 -140l-40 -40l-140 140q-51 -39 -123 -39t-123 39l-140 -140l-40 40l140 140q-39 53 -39 123t39 123l-140 140l40 40l140 -140q51 39 123 39t123 -39l140 140l40 -40l-140 -140q39 -53 39 -123zM389 189q63 0 104.5 43t41.5 103t-41.5 103
t-104.5 43t-104.5 -43t-41.5 -103t41.5 -103t104.5 -43z" />
    <glyph glyph-name="yen" unicode="&#xa5;" horiz-adv-x="746" 
d="M660 705l-236 -404h148v-56h-166v-50h166v-56h-166v-139h-66v139h-166v56h166v50h-166v56h148l-236 404h71l206 -354v-50h20v50l206 354h71z" />
    <glyph glyph-name="brokenbar" unicode="&#xa6;" horiz-adv-x="228" 
d="M86 483v370h56v-370h-56zM142 222v-370h-56v370h56z" />
    <glyph glyph-name="section" unicode="&#xa7;" horiz-adv-x="582" 
d="M86 361q0 92 96 122q-70 34 -70 104q0 58 46 93t127 35q54 0 93.5 -14t60.5 -38.5t30.5 -52t9.5 -58.5h-66q0 107 -128 107q-107 0 -107 -68q0 -37 23 -54.5t88 -38.5q9 -3 36.5 -11.5t38 -12t33.5 -13t33 -16t25.5 -18.5t22.5 -24.5t12.5 -29t5.5 -36.5q0 -92 -96 -122
q70 -34 70 -104q0 -58 -46 -93t-127 -35q-54 0 -93.5 14t-60.5 38.5t-30.5 52t-9.5 58.5h66q0 -107 128 -107q107 0 107 68q0 37 -23 54.5t-88 38.5q-9 3 -36.5 11.5t-38 12t-33.5 13t-33 16t-25.5 18.5t-22.5 24.5t-12.5 29t-5.5 36.5zM152 376q0 -15 3.5 -27.5t14 -23.5
t17 -17.5t25.5 -15t26 -11.5t31.5 -11.5t29.5 -10.5q59 -20 95 -0.5t36 63.5q0 32 -22.5 55.5t-43 32t-67.5 24.5q-9 3 -14 5q-58 20 -94.5 0.5t-36.5 -63.5z" />
    <glyph glyph-name="dieresis" unicode="&#xa8;" horiz-adv-x="502" 
d="M153 580q-28 0 -47.5 20t-19.5 48q0 27 19.5 47t47.5 20t48 -20t20 -47q0 -28 -20 -48t-48 -20zM348 580q-28 0 -47.5 20t-19.5 48q0 27 19.5 47t47.5 20t48 -20t20 -47q0 -28 -20 -48t-48 -20z" />
    <glyph glyph-name="copyright" unicode="&#xa9;" horiz-adv-x="1040" 
d="M520 -153q-127 0 -227 58.5t-153.5 157t-53.5 218.5t53.5 218.5t153.5 157t227 58.5t227 -58.5t153.5 -157t53.5 -218.5t-53.5 -218.5t-153.5 -157t-227 -58.5zM520 -97q109 0 196.5 52t134.5 138t47 188t-47 188t-134.5 138t-196.5 52t-196.5 -52t-134.5 -138t-47 -188
t47 -188t134.5 -138t196.5 -52zM278 282q0 109 66.5 183t182.5 74q79 0 146.5 -48t77.5 -146h-67q-21 138 -157 138q-90 0 -136.5 -57.5t-46.5 -143.5q0 -87 46.5 -144.5t136.5 -57.5q136 0 157 138h67q-10 -98 -77.5 -146t-146.5 -48q-116 0 -182.5 74.5t-66.5 183.5z" />
    <glyph glyph-name="guillemotleft" unicode="&#xab;" horiz-adv-x="673" 
d="M401 20l-46 -40l-269 268l269 267l46 -40l-229 -227zM587 20l-46 -40l-269 268l269 267l46 -40l-229 -227z" />
    <glyph glyph-name="logicalnot" unicode="&#xac;" horiz-adv-x="636" 
d="M550 351v-231h-56v175h-408v56h464z" />
    <glyph glyph-name="registered" unicode="&#xae;" horiz-adv-x="636" 
d="M318 281q-102 0 -167 67t-65 165t65 165t167 67t167 -67t65 -165t-65 -165t-167 -67zM318 327q81 0 133.5 54.5t52.5 131.5t-52.5 131.5t-133.5 54.5t-133.5 -54.5t-52.5 -131.5t52.5 -131.5t133.5 -54.5zM219 399v231h94q114 0 114 -67q0 -26 -15.5 -37t-49.5 -14v-20
h40q25 0 25 -25v-68h-46v78h-116v-78h-46zM265 523h48q26 0 37.5 1t21 8t9.5 22q0 14 -9.5 21t-21 8t-37.5 1h-48v-61z" />
    <glyph glyph-name="macron" unicode="&#xaf;" horiz-adv-x="473" 
d="M86 676h301v-55l-301 -1v56z" />
    <glyph glyph-name="degree" unicode="&#xb0;" horiz-adv-x="576" 
d="M288 341q-89 0 -145.5 58.5t-56.5 143.5t56.5 143.5t145.5 58.5t145.5 -58.5t56.5 -143.5t-56.5 -143.5t-145.5 -58.5zM288 397q63 0 104.5 43t41.5 103t-41.5 103t-104.5 43t-104.5 -43t-41.5 -103t41.5 -103t104.5 -43z" />
    <glyph glyph-name="plusminus" unicode="&#xb1;" horiz-adv-x="636" 
d="M346 351h204v-56h-204v-143h-56v143h-204v56h204v144h56v-144zM86 30v56h464v-56h-464z" />
    <glyph glyph-name="acute" unicode="&#xb4;" horiz-adv-x="476" 
d="M86 636l290 78l14 -54l-290 -78z" />
    <glyph glyph-name="paragraph" unicode="&#xb6;" horiz-adv-x="638" 
d="M86 624q0 40 7.5 72t27 62t52 50.5t85 32.5t122.5 12h56v-1001h-56v543q-70 0 -122.5 12t-85 32.5t-52 50.5t-27 62t-7.5 72zM496 853h56v-1001h-56v1001z" />
    <glyph glyph-name="periodcentered" unicode="&#xb7;" horiz-adv-x="327" 
d="M163 170q-32 0 -54.5 22.5t-22.5 55.5q0 32 22.5 54.5t54.5 22.5t55 -22.5t23 -54.5q0 -33 -23 -55.5t-55 -22.5z" />
    <glyph glyph-name="cedilla" unicode="&#xb8;" horiz-adv-x="367" 
d="M220 -42q26 0 43.5 -14t17.5 -41q0 -51 -46 -67t-149 -16v56q78 0 108.5 5t30.5 28q0 21 -23 21q-27 0 -68 -28l-32 47l47 51h66l-56 -56q30 14 61 14z" />
    <glyph glyph-name="guillemotright" unicode="&#xbb;" horiz-adv-x="673" 
d="M86 20l229 228l-229 227l46 40l269 -267l-269 -268zM272 20l229 228l-229 227l46 40l269 -267l-269 -268z" />
    <glyph glyph-name="onequarter" unicode="&#xbc;" horiz-adv-x="943" 
d="M581 814l53 -18l-298 -905l-53 18zM46 543q46 30 64.5 65t18.5 97h132v-415h-66v366l6 29h-12q-5 -72 -31.5 -119.5t-88.5 -77.5zM562 84v117q142 69 169 214h66q-10 -85 -63 -156t-152 -113v-12l30 6h167v151h66v-151h52v-56h-52v-84h-66v84h-217z" />
    <glyph glyph-name="onehalf" unicode="&#xbd;" horiz-adv-x="984" 
d="M581 814l53 -18l-298 -905l-53 18zM46 543q46 30 64.5 65t18.5 97h132v-415h-66v366l6 29h-12q-5 -72 -31.5 -119.5t-88.5 -77.5zM592 217q0 106 54 157t134 51q73 0 115.5 -36.5t42.5 -103.5q0 -168 -307 -223v-12l30 6h263v-56h-313v111q19 3 44.5 8.5t65.5 19.5
t72 32.5t55.5 48.5t23.5 65q0 84 -91 84q-60 0 -91.5 -35.5t-31.5 -116.5h-66z" />
    <glyph glyph-name="threequarters" unicode="&#xbe;" horiz-adv-x="1046" 
d="M662 814l53 -18l-298 -905l-53 18zM46 451h66q0 -62 28 -86.5t88 -24.5q101 0 101 73q0 72 -83 72h-50v57h50q77 0 77 59q0 62 -95 62q-58 0 -84.5 -21t-26.5 -67h-66q0 68 47.5 106t129.5 38q74 0 117.5 -32t43.5 -80q0 -36 -25 -58.5t-67 -29.5v-12q97 -20 97 -100
q0 -56 -45 -89.5t-121 -33.5q-85 0 -133.5 41.5t-48.5 125.5zM665 84v117q142 69 169 214h66q-10 -85 -63 -156t-152 -113v-12l30 6h167v151h66v-151h52v-56h-52v-84h-66v84h-217z" />
    <glyph glyph-name="questiondown" unicode="&#xbf;" horiz-adv-x="523" 
d="M272 505q32 0 54.5 -22.5t22.5 -55.5q0 -32 -22.5 -54.5t-54.5 -22.5t-55 22.5t-23 54.5q0 33 23 55.5t55 22.5zM457 -5q0 -100 -53 -157.5t-149 -57.5q-86 0 -132.5 45.5t-46.5 125.5q0 52 24.5 94.5t68.5 71t96 47t115 29.5v14l-36 -7h-208v56h264v-113
q-258 -40 -258 -202q0 -105 112 -105q70 0 103.5 39t33.5 120h66z" />
    <glyph glyph-name="Agrave" unicode="&#xc0;" horiz-adv-x="672" 
d="M488 846l-14 -54l-290 78l14 54zM571 0l-94 286h-282l-94 -286h-65l232 705h136l232 -705h-65zM213 342h246l-113 343h-20z" />
    <glyph glyph-name="Aacute" unicode="&#xc1;" horiz-adv-x="672" 
d="M488 870l-290 -78l-14 54l290 78zM571 0l-94 286h-282l-94 -286h-65l232 705h136l232 -705h-65zM213 342h246l-113 343h-20z" />
    <glyph glyph-name="Acircumflex" unicode="&#xc2;" horiz-adv-x="672" 
d="M336 869l-111 -95l-40 40l151 127l151 -127l-40 -40zM571 0l-94 286h-282l-94 -286h-65l232 705h136l232 -705h-65zM213 342h246l-113 343h-20z" />
    <glyph glyph-name="Atilde" unicode="&#xc3;" horiz-adv-x="672" 
d="M264 870q-20 0 -31 -14.5t-11 -55.5h-56q0 126 93 126q28 0 51.5 -12.5t37 -27.5t30 -27.5t30.5 -12.5q20 0 31 14.5t11 55.5h56q0 -126 -93 -126q-28 0 -51.5 12.5t-37 27.5t-30 27.5t-30.5 12.5zM571 0l-94 286h-282l-94 -286h-65l232 705h136l232 -705h-65zM213 342
h246l-113 343h-20z" />
    <glyph glyph-name="Adieresis" unicode="&#xc4;" horiz-adv-x="672" 
d="M238 790q-28 0 -47.5 20t-19.5 48q0 27 19.5 47t47.5 20t48 -20t20 -47q0 -28 -20 -48t-48 -20zM433 790q-28 0 -47.5 20t-19.5 48q0 27 19.5 47t47.5 20t48 -20t20 -47q0 -28 -20 -48t-48 -20zM571 0l-94 286h-282l-94 -286h-65l232 705h136l232 -705h-65zM213 342h246
l-113 343h-20z" />
    <glyph glyph-name="Aring" unicode="&#xc5;" horiz-adv-x="672" 
d="M335 770q-51 0 -80.5 31.5t-29.5 74.5q0 42 29.5 73.5t80.5 31.5t81 -31.5t30 -73.5t-30 -74t-81 -32zM335 925q-26 0 -40 -13.5t-14 -35.5q0 -50 54 -50q55 0 55 50q0 22 -14.5 35.5t-40.5 13.5zM571 0l-94 286h-282l-94 -286h-65l232 705h136l232 -705h-65zM213 342
h246l-113 343h-20z" />
    <glyph glyph-name="AE" unicode="&#xc6;" horiz-adv-x="981" 
d="M925 649h-357v-268h307v-56h-307v-269h357v-56h-423v286h-235l-161 -286h-70l398 705h491v-56zM299 342h203v343h-10z" />
    <glyph glyph-name="Ccedilla" unicode="&#xc7;" horiz-adv-x="768" 
d="M389 46q108 0 171.5 59.5t75.5 167.5h66q-15 -127 -92.5 -202t-201.5 -81l-47 -46q30 14 61 14q26 0 43.5 -14t17.5 -41q0 -51 -46 -67t-149 -16v56q78 0 108.5 5t30.5 28q0 21 -23 21q-27 0 -68 -28l-32 47l40 44q-129 15 -203.5 114.5t-74.5 245.5q0 158 87 260
t236 102q132 0 214.5 -75.5t98.5 -206.5h-66q-12 108 -75.5 167t-171.5 59q-125 0 -191 -84.5t-66 -221.5q0 -138 66 -222.5t191 -84.5z" />
    <glyph glyph-name="Egrave" unicode="&#xc8;" horiz-adv-x="555" 
d="M440 846l-14 -54l-290 78l14 54zM76 0v705h423v-56h-357v-268h307v-56h-307v-269h357v-56h-423z" />
    <glyph glyph-name="Eacute" unicode="&#xc9;" horiz-adv-x="555" 
d="M136 846l290 78l14 -54l-290 -78zM76 0v705h423v-56h-357v-268h307v-56h-307v-269h357v-56h-423z" />
    <glyph glyph-name="Ecircumflex" unicode="&#xca;" horiz-adv-x="555" 
d="M439 814l-40 -40l-111 95l-111 -95l-40 40l151 127zM76 0v705h423v-56h-357v-268h307v-56h-307v-269h357v-56h-423z" />
    <glyph glyph-name="Edieresis" unicode="&#xcb;" horiz-adv-x="555" 
d="M190 790q-28 0 -47.5 20t-19.5 48q0 27 19.5 47t47.5 20t48 -20t20 -47q0 -28 -20 -48t-48 -20zM385 790q-28 0 -47.5 20t-19.5 48q0 27 19.5 47t47.5 20t48 -20t20 -47q0 -28 -20 -48t-48 -20zM76 0v705h423v-56h-357v-268h307v-56h-307v-269h357v-56h-423z" />
    <glyph glyph-name="Igrave" unicode="&#xcc;" horiz-adv-x="512" 
d="M408 846l-14 -54l-290 78l14 54zM446 649h-157v-593h157v-56h-380v56h157v593h-157v56h380v-56z" />
    <glyph glyph-name="Iacute" unicode="&#xcd;" horiz-adv-x="512" 
d="M408 870l-290 -78l-14 54l290 78zM446 649h-157v-593h157v-56h-380v56h157v593h-157v56h380v-56z" />
    <glyph glyph-name="Icircumflex" unicode="&#xce;" horiz-adv-x="512" 
d="M256 869l-111 -95l-40 40l151 127l151 -127l-40 -40zM446 649h-157v-593h157v-56h-380v56h157v593h-157v56h380v-56z" />
    <glyph glyph-name="Idieresis" unicode="&#xcf;" horiz-adv-x="512" 
d="M158 790q-28 0 -47.5 20t-19.5 48q0 27 19.5 47t47.5 20t48 -20t20 -47q0 -28 -20 -48t-48 -20zM353 790q-28 0 -47.5 20t-19.5 48q0 27 19.5 47t47.5 20t48 -20t20 -47q0 -28 -20 -48t-48 -20zM446 649h-157v-593h157v-56h-380v56h157v593h-157v56h380v-56z" />
    <glyph glyph-name="Eth" unicode="&#xd0;" horiz-adv-x="765" 
d="M352 705q46 0 84.5 -5.5t80 -18.5t72.5 -38.5t57 -63t39.5 -95.5t13.5 -131q0 -88 -20.5 -153t-52.5 -102.5t-80 -60.5t-93 -30t-101 -7h-216v337h-70v56h70v312h216zM352 56q45 0 78 4.5t74 22t67 48t44 87t18 135.5q0 78 -18 135t-44 87t-67 47.5t-74 22t-78 4.5h-150
v-256h202v-56h-202v-281h150z" />
    <glyph glyph-name="Ntilde" unicode="&#xd1;" horiz-adv-x="742" 
d="M221 800q0 126 93 126q28 0 51.5 -12.5t37 -27.5t30 -27.5t30.5 -12.5q20 0 31 14.5t11 55.5h56q0 -126 -93 -126q-28 0 -51.5 12.5t-37 27.5t-30 27.5t-30.5 12.5q-20 0 -31 -14.5t-11 -55.5h-56zM76 0v705h135l379 -685h20l-10 50v635h66v-705h-135l-379 685h-20
l10 -50v-635h-66z" />
    <glyph glyph-name="Ograve" unicode="&#xd2;" horiz-adv-x="777" 
d="M541 846l-14 -54l-290 78l14 54zM66 353q0 158 87 260t236 102t235.5 -102t86.5 -260q0 -159 -86.5 -261t-235.5 -102t-236 102t-87 261zM132 353q0 -138 66 -222.5t191 -84.5t190.5 84.5t65.5 222.5q0 137 -65.5 221.5t-190.5 84.5t-191 -84.5t-66 -221.5z" />
    <glyph glyph-name="Oacute" unicode="&#xd3;" horiz-adv-x="777" 
d="M237 846l290 78l14 -54l-290 -78zM66 353q0 158 87 260t236 102t235.5 -102t86.5 -260q0 -159 -86.5 -261t-235.5 -102t-236 102t-87 261zM132 353q0 -138 66 -222.5t191 -84.5t190.5 84.5t65.5 222.5q0 137 -65.5 221.5t-190.5 84.5t-191 -84.5t-66 -221.5z" />
    <glyph glyph-name="Ocircumflex" unicode="&#xd4;" horiz-adv-x="777" 
d="M540 814l-40 -40l-111 95l-111 -95l-40 40l151 127zM66 353q0 158 87 260t236 102t235.5 -102t86.5 -260q0 -159 -86.5 -261t-235.5 -102t-236 102t-87 261zM132 353q0 -138 66 -222.5t191 -84.5t190.5 84.5t65.5 222.5q0 137 -65.5 221.5t-190.5 84.5t-191 -84.5
t-66 -221.5z" />
    <glyph glyph-name="Otilde" unicode="&#xd5;" horiz-adv-x="777" 
d="M219 800q0 126 93 126q28 0 51.5 -12.5t37 -27.5t30 -27.5t30.5 -12.5q20 0 31 14.5t11 55.5h56q0 -126 -93 -126q-28 0 -51.5 12.5t-37 27.5t-30 27.5t-30.5 12.5q-20 0 -31 -14.5t-11 -55.5h-56zM66 353q0 158 87 260t236 102t235.5 -102t86.5 -260q0 -159 -86.5 -261
t-235.5 -102t-236 102t-87 261zM132 353q0 -138 66 -222.5t191 -84.5t190.5 84.5t65.5 222.5q0 137 -65.5 221.5t-190.5 84.5t-191 -84.5t-66 -221.5z" />
    <glyph glyph-name="Odieresis" unicode="&#xd6;" horiz-adv-x="777" 
d="M291 790q-28 0 -47.5 20t-19.5 48q0 27 19.5 47t47.5 20t48 -20t20 -47q0 -28 -20 -48t-48 -20zM486 790q-28 0 -47.5 20t-19.5 48q0 27 19.5 47t47.5 20t48 -20t20 -47q0 -28 -20 -48t-48 -20zM66 353q0 158 87 260t236 102t235.5 -102t86.5 -260q0 -159 -86.5 -261
t-235.5 -102t-236 102t-87 261zM132 353q0 -138 66 -222.5t191 -84.5t190.5 84.5t65.5 222.5q0 137 -65.5 221.5t-190.5 84.5t-191 -84.5t-66 -221.5z" />
    <glyph glyph-name="multiply" unicode="&#xd7;" horiz-adv-x="540" 
d="M454 393l-144 -144l144 -145l-40 -39l-144 144l-144 -144l-40 39l145 145l-145 144l40 39l144 -144l144 144z" />
    <glyph glyph-name="Oslash" unicode="&#xd8;" horiz-adv-x="777" 
d="M591 645q58 -49 89 -125t31 -168q0 -159 -86.5 -261t-235.5 -102q-89 0 -156 38l-50 -86l-48 28l51 89q-58 49 -89 125.5t-31 168.5q0 158 87 260t236 102q87 0 155 -37l50 86l49 -28zM132 352q0 -159 84 -243l300 519q-55 30 -127 30q-125 0 -191 -84.5t-66 -221.5z
M389 45q125 0 190.5 84.5t65.5 222.5q0 161 -84 242l-300 -518q54 -31 128 -31z" />
    <glyph glyph-name="Ugrave" unicode="&#xd9;" horiz-adv-x="655" 
d="M479 846l-14 -54l-290 78l14 54zM56 262v443h66v-442q0 -111 48 -164t157 -53t157.5 53t48.5 164v442h66v-443q0 -272 -272 -272q-271 0 -271 272z" />
    <glyph glyph-name="Uacute" unicode="&#xda;" horiz-adv-x="655" 
d="M175 846l290 78l14 -54l-290 -78zM56 262v443h66v-442q0 -111 48 -164t157 -53t157.5 53t48.5 164v442h66v-443q0 -272 -272 -272q-271 0 -271 272z" />
    <glyph glyph-name="Ucircumflex" unicode="&#xdb;" horiz-adv-x="655" 
d="M478 814l-40 -40l-111 95l-111 -95l-40 40l151 127zM56 262v443h66v-442q0 -111 48 -164t157 -53t157.5 53t48.5 164v442h66v-443q0 -272 -272 -272q-271 0 -271 272z" />
    <glyph glyph-name="Udieresis" unicode="&#xdc;" horiz-adv-x="655" 
d="M229 790q-28 0 -47.5 20t-19.5 48q0 27 19.5 47t47.5 20t48 -20t20 -47q0 -28 -20 -48t-48 -20zM424 790q-28 0 -47.5 20t-19.5 48q0 27 19.5 47t47.5 20t48 -20t20 -47q0 -28 -20 -48t-48 -20zM56 262v443h66v-442q0 -111 48 -164t157 -53t157.5 53t48.5 164v442h66
v-443q0 -272 -272 -272q-271 0 -271 272z" />
    <glyph glyph-name="Yacute" unicode="&#xdd;" horiz-adv-x="646" 
d="M171 846l290 78l14 -54l-290 -78zM539 705h71l-254 -435v-270h-66v270l-254 435h71l206 -354v-50h20v50z" />
    <glyph glyph-name="Thorn" unicode="&#xde;" horiz-adv-x="605" 
d="M262 580q143 0 215 -50t72 -177t-72 -177.5t-215 -50.5h-120v-125h-66v705h66v-125h120zM262 181q52 0 88 6.5t68.5 24t48.5 52.5t16 89q0 101 -56.5 136t-164.5 35h-120v-343h120z" />
    <glyph glyph-name="germandbls" unicode="&#xdf;" horiz-adv-x="525" 
d="M198 0v56l104 -9q61 -5 91 25.5t30 83.5q0 44 -20.5 71.5t-50.5 41t-59.5 25.5t-50 35.5t-20.5 60.5q0 31 12.5 54.5t30 37.5t34.5 27t29.5 31t12.5 42q0 77 -84 77q-57 0 -86 -30.5t-29 -120.5v-508h-66v518q0 106 52 151.5t129 45.5q72 0 111 -38.5t39 -94.5
q0 -32 -12.5 -56t-30 -38t-34.5 -26t-29.5 -27.5t-12.5 -34.5q0 -20 15 -35t37 -23.5t48.5 -23t48.5 -31.5t37 -51t15 -80q0 -86 -52 -130t-135 -36z" />
    <glyph glyph-name="agrave" unicode="&#xe0;" horiz-adv-x="582" 
d="M431 636l-14 -54l-290 78l14 54zM56 138q0 60 38 97.5t117 44.5l206 19q-9 150 -148 150q-63 0 -105 -32.5t-42 -104.5h-66q0 79 56.5 136t156.5 57q101 0 157.5 -62.5t56.5 -160.5v-226h73v-56h-84q-55 0 -55 55v30l10 50h-20q-16 -63 -62 -104t-127 -41q-50 0 -84.5 15
t-50 40t-21.5 47t-6 46zM122 144q0 -47 27 -72.5t75 -25.5q87 0 140 56t53 141l-196 -19q-51 -5 -75 -23t-24 -57z" />
    <glyph glyph-name="aacute" unicode="&#xe1;" horiz-adv-x="582" 
d="M127 636l290 78l14 -54l-290 -78zM56 138q0 60 38 97.5t117 44.5l206 19q-9 150 -148 150q-63 0 -105 -32.5t-42 -104.5h-66q0 79 56.5 136t156.5 57q101 0 157.5 -62.5t56.5 -160.5v-226h73v-56h-84q-55 0 -55 55v30l10 50h-20q-16 -63 -62 -104t-127 -41
q-50 0 -84.5 15t-50 40t-21.5 47t-6 46zM122 144q0 -47 27 -72.5t75 -25.5q87 0 140 56t53 141l-196 -19q-51 -5 -75 -23t-24 -57z" />
    <glyph glyph-name="acircumflex" unicode="&#xe2;" horiz-adv-x="582" 
d="M430 604l-40 -40l-111 95l-111 -95l-40 40l151 127zM56 138q0 60 38 97.5t117 44.5l206 19q-9 150 -148 150q-63 0 -105 -32.5t-42 -104.5h-66q0 79 56.5 136t156.5 57q101 0 157.5 -62.5t56.5 -160.5v-226h73v-56h-84q-55 0 -55 55v30l10 50h-20q-16 -63 -62 -104
t-127 -41q-50 0 -84.5 15t-50 40t-21.5 47t-6 46zM122 144q0 -47 27 -72.5t75 -25.5q87 0 140 56t53 141l-196 -19q-51 -5 -75 -23t-24 -57z" />
    <glyph glyph-name="atilde" unicode="&#xe3;" horiz-adv-x="582" 
d="M109 590q0 126 93 126q28 0 51.5 -12.5t37 -27.5t30 -27.5t30.5 -12.5q20 0 31 14.5t11 55.5h56q0 -126 -93 -126q-28 0 -51.5 12.5t-37 27.5t-30 27.5t-30.5 12.5q-20 0 -31 -14.5t-11 -55.5h-56zM56 138q0 60 38 97.5t117 44.5l206 19q-9 150 -148 150
q-63 0 -105 -32.5t-42 -104.5h-66q0 79 56.5 136t156.5 57q101 0 157.5 -62.5t56.5 -160.5v-226h73v-56h-84q-55 0 -55 55v30l10 50h-20q-16 -63 -62 -104t-127 -41q-50 0 -84.5 15t-50 40t-21.5 47t-6 46zM122 144q0 -47 27 -72.5t75 -25.5q87 0 140 56t53 141l-196 -19
q-51 -5 -75 -23t-24 -57z" />
    <glyph glyph-name="adieresis" unicode="&#xe4;" horiz-adv-x="582" 
d="M181 580q-28 0 -47.5 20t-19.5 48q0 27 19.5 47t47.5 20t48 -20t20 -47q0 -28 -20 -48t-48 -20zM376 580q-28 0 -47.5 20t-19.5 48q0 27 19.5 47t47.5 20t48 -20t20 -47q0 -28 -20 -48t-48 -20zM56 138q0 60 38 97.5t117 44.5l206 19q-9 150 -148 150q-63 0 -105 -32.5
t-42 -104.5h-66q0 79 56.5 136t156.5 57q101 0 157.5 -62.5t56.5 -160.5v-226h73v-56h-84q-55 0 -55 55v30l10 50h-20q-16 -63 -62 -104t-127 -41q-50 0 -84.5 15t-50 40t-21.5 47t-6 46zM122 144q0 -47 27 -72.5t75 -25.5q87 0 140 56t53 141l-196 -19q-51 -5 -75 -23
t-24 -57z" />
    <glyph glyph-name="aring" unicode="&#xe5;" horiz-adv-x="582" 
d="M278 560q-51 0 -80.5 31.5t-29.5 74.5q0 42 29.5 73.5t80.5 31.5t81 -31.5t30 -73.5t-30 -74t-81 -32zM278 616q55 0 55 50q0 22 -14.5 35.5t-40.5 13.5t-40 -13.5t-14 -35.5q0 -50 54 -50zM56 138q0 60 38 97.5t117 44.5l206 19q-9 150 -148 150q-63 0 -105 -32.5
t-42 -104.5h-66q0 79 56.5 136t156.5 57q101 0 157.5 -62.5t56.5 -160.5v-226h73v-56h-84q-55 0 -55 55v30l10 50h-20q-16 -63 -62 -104t-127 -41q-50 0 -84.5 15t-50 40t-21.5 47t-6 46zM122 144q0 -47 27 -72.5t75 -25.5q87 0 140 56t53 141l-196 -19q-51 -5 -75 -23
t-24 -57z" />
    <glyph glyph-name="ae" unicode="&#xe6;" horiz-adv-x="960" 
d="M838 173h66q-9 -33 -23.5 -62t-40.5 -58t-69 -46t-98 -17q-171 0 -226 145h-10q-24 -61 -81 -103t-138 -42q-50 0 -84.5 15t-50 40t-21.5 47t-6 46q0 60 38 97.5t117 44.5l206 19q-9 150 -148 150q-63 0 -105 -32.5t-42 -104.5h-66q0 79 56.5 136t156.5 57
q137 0 190 -111q62 111 203 111q104 0 164.5 -63.5t60.5 -177.5v-28h-394q5 -85 47.5 -137.5t132.5 -52.5q134 0 165 127zM662 449q-74 0 -121.5 -45t-47.5 -112h328q0 68 -42.5 112.5t-116.5 44.5zM224 46q87 0 140 56t53 141l-196 -19q-51 -5 -75 -23t-24 -57
q0 -47 27 -72.5t75 -25.5z" />
    <glyph glyph-name="ccedilla" unicode="&#xe7;" horiz-adv-x="585" 
d="M305 46q136 0 157 138h67q-6 -65 -42 -110t-79.5 -63.5t-91.5 -20.5l-46 -46q30 14 61 14q26 0 43.5 -14t17.5 -41q0 -51 -46 -67t-149 -16v56q78 0 108.5 5t30.5 28q0 21 -23 21q-27 0 -68 -28l-32 47l42 45q-94 16 -146.5 87t-52.5 167q0 109 66.5 183t182.5 74
q79 0 146.5 -48t77.5 -146h-67q-21 138 -157 138q-90 0 -136.5 -57.5t-46.5 -143.5q0 -87 46.5 -144.5t136.5 -57.5z" />
    <glyph glyph-name="egrave" unicode="&#xe8;" horiz-adv-x="589" 
d="M447 636l-14 -54l-290 78l14 54zM56 254q0 118 65 184.5t170 66.5q104 0 164.5 -63.5t60.5 -177.5v-28h-394q5 -85 47.5 -137.5t132.5 -52.5q134 0 165 127h66q-9 -33 -23.5 -62t-40.5 -58t-69 -46t-98 -17q-124 0 -185 74t-61 190zM122 292h328q0 68 -42.5 112.5
t-116.5 44.5t-121.5 -45t-47.5 -112z" />
    <glyph glyph-name="eacute" unicode="&#xe9;" horiz-adv-x="589" 
d="M143 636l290 78l14 -54l-290 -78zM56 254q0 118 65 184.5t170 66.5q104 0 164.5 -63.5t60.5 -177.5v-28h-394q5 -85 47.5 -137.5t132.5 -52.5q134 0 165 127h66q-9 -33 -23.5 -62t-40.5 -58t-69 -46t-98 -17q-124 0 -185 74t-61 190zM122 292h328q0 68 -42.5 112.5
t-116.5 44.5t-121.5 -45t-47.5 -112z" />
    <glyph glyph-name="ecircumflex" unicode="&#xea;" horiz-adv-x="589" 
d="M446 604l-40 -40l-111 95l-111 -95l-40 40l151 127zM56 254q0 118 65 184.5t170 66.5q104 0 164.5 -63.5t60.5 -177.5v-28h-394q5 -85 47.5 -137.5t132.5 -52.5q134 0 165 127h66q-9 -33 -23.5 -62t-40.5 -58t-69 -46t-98 -17q-124 0 -185 74t-61 190zM122 292h328
q0 68 -42.5 112.5t-116.5 44.5t-121.5 -45t-47.5 -112z" />
    <glyph glyph-name="edieresis" unicode="&#xeb;" horiz-adv-x="589" 
d="M197 580q-28 0 -47.5 20t-19.5 48q0 27 19.5 47t47.5 20t48 -20t20 -47q0 -28 -20 -48t-48 -20zM392 580q-28 0 -47.5 20t-19.5 48q0 27 19.5 47t47.5 20t48 -20t20 -47q0 -28 -20 -48t-48 -20zM56 254q0 118 65 184.5t170 66.5q104 0 164.5 -63.5t60.5 -177.5v-28h-394
q5 -85 47.5 -137.5t132.5 -52.5q134 0 165 127h66q-9 -33 -23.5 -62t-40.5 -58t-69 -46t-98 -17q-124 0 -185 74t-61 190zM122 292h328q0 68 -42.5 112.5t-116.5 44.5t-121.5 -45t-47.5 -112z" />
    <glyph glyph-name="igrave" unicode="&#xec;" horiz-adv-x="432" 
d="M342 636l-14 -54l-290 78l14 54zM56 0v56h141v393l-101 -10v56l98 10q33 4 47 -13t14 -52v-384h141v-56h-340z" />
    <glyph glyph-name="iacute" unicode="&#xed;" horiz-adv-x="432" 
d="M38 636l290 78l14 -54l-290 -78zM56 0v56h141v393l-101 -10v56l98 10q33 4 47 -13t14 -52v-384h141v-56h-340z" />
    <glyph glyph-name="icircumflex" unicode="&#xee;" horiz-adv-x="432" 
d="M341 604l-40 -40l-111 95l-111 -95l-40 40l151 127zM56 0v56h141v393l-101 -10v56l98 10q33 4 47 -13t14 -52v-384h141v-56h-340z" />
    <glyph glyph-name="idieresis" unicode="&#xef;" horiz-adv-x="432" 
d="M92 580q-28 0 -47.5 20t-19.5 48q0 27 19.5 47t47.5 20t48 -20t20 -47q0 -28 -20 -48t-48 -20zM287 580q-28 0 -47.5 20t-19.5 48q0 27 19.5 47t47.5 20t48 -20t20 -47q0 -28 -20 -48t-48 -20zM56 0v56h141v393l-101 -10v56l98 10q33 4 47 -13t14 -52v-384h141v-56h-340z
" />
    <glyph glyph-name="eth" unicode="&#xf0;" horiz-adv-x="641" 
d="M413 641q172 -117 172 -322q0 -154 -72 -241.5t-196 -87.5t-192.5 72.5t-68.5 189.5q0 111 68.5 182t183.5 71q85 0 145 -50t76 -137h20l-10 50q-17 155 -183 244l-136 -68l-36 48l103 52q-66 25 -140 35v56q112 -13 205 -59l117 59l36 -48zM317 46q94 0 148 60.5
t54 145.5q0 89 -58 143t-153 54q-87 0 -136.5 -54t-49.5 -143q0 -98 49.5 -152t145.5 -54z" />
    <glyph glyph-name="ntilde" unicode="&#xf1;" horiz-adv-x="590" 
d="M150 590q0 126 93 126q28 0 51.5 -12.5t37 -27.5t30 -27.5t30.5 -12.5q20 0 31 14.5t11 55.5h56q0 -126 -93 -126q-28 0 -51.5 12.5t-37 27.5t-30 27.5t-30.5 12.5q-20 0 -31 -14.5t-11 -55.5h-56zM328 449q-82 0 -134 -61.5t-52 -160.5v-227h-66v495h66v-91l-10 -50h20
q16 70 64.5 110.5t126.5 40.5q85 0 133 -48.5t48 -146.5v-310h-66v302q0 78 -31.5 112.5t-98.5 34.5z" />
    <glyph glyph-name="ograve" unicode="&#xf2;" horiz-adv-x="627" 
d="M466 636l-14 -54l-290 78l14 54zM56 248q0 107 71 182t187 75q115 0 186 -75t71 -182q0 -108 -71 -183t-186 -75q-116 0 -187 75t-71 183zM122 248q0 -86 50.5 -144t141.5 -58q90 0 140.5 58.5t50.5 143.5t-50.5 143t-140.5 58t-141 -58t-51 -143z" />
    <glyph glyph-name="oacute" unicode="&#xf3;" horiz-adv-x="627" 
d="M162 636l290 78l14 -54l-290 -78zM56 248q0 107 71 182t187 75q115 0 186 -75t71 -182q0 -108 -71 -183t-186 -75q-116 0 -187 75t-71 183zM122 248q0 -86 50.5 -144t141.5 -58q90 0 140.5 58.5t50.5 143.5t-50.5 143t-140.5 58t-141 -58t-51 -143z" />
    <glyph glyph-name="ocircumflex" unicode="&#xf4;" horiz-adv-x="627" 
d="M465 604l-40 -40l-111 95l-111 -95l-40 40l151 127zM56 248q0 107 71 182t187 75q115 0 186 -75t71 -182q0 -108 -71 -183t-186 -75q-116 0 -187 75t-71 183zM122 248q0 -86 50.5 -144t141.5 -58q90 0 140.5 58.5t50.5 143.5t-50.5 143t-140.5 58t-141 -58t-51 -143z" />
    <glyph glyph-name="otilde" unicode="&#xf5;" horiz-adv-x="627" 
d="M144 590q0 126 93 126q28 0 51.5 -12.5t37 -27.5t30 -27.5t30.5 -12.5q20 0 31 14.5t11 55.5h56q0 -126 -93 -126q-28 0 -51.5 12.5t-37 27.5t-30 27.5t-30.5 12.5q-20 0 -31 -14.5t-11 -55.5h-56zM56 248q0 107 71 182t187 75q115 0 186 -75t71 -182q0 -108 -71 -183
t-186 -75q-116 0 -187 75t-71 183zM122 248q0 -86 50.5 -144t141.5 -58q90 0 140.5 58.5t50.5 143.5t-50.5 143t-140.5 58t-141 -58t-51 -143z" />
    <glyph glyph-name="odieresis" unicode="&#xf6;" horiz-adv-x="627" 
d="M216 580q-28 0 -47.5 20t-19.5 48q0 27 19.5 47t47.5 20t48 -20t20 -47q0 -28 -20 -48t-48 -20zM411 580q-28 0 -47.5 20t-19.5 48q0 27 19.5 47t47.5 20t48 -20t20 -47q0 -28 -20 -48t-48 -20zM56 248q0 107 71 182t187 75q115 0 186 -75t71 -182q0 -108 -71 -183
t-186 -75q-116 0 -187 75t-71 183zM122 248q0 -86 50.5 -144t141.5 -58q90 0 140.5 58.5t50.5 143.5t-50.5 143t-140.5 58t-141 -58t-51 -143z" />
    <glyph glyph-name="divide" unicode="&#xf7;" horiz-adv-x="636" 
d="M318 351q-32 0 -54.5 22.5t-22.5 55.5q0 32 22.5 54.5t54.5 22.5t55 -22.5t23 -54.5q0 -33 -23 -55.5t-55 -22.5zM86 276h464v-56h-464v56zM318 -10q-32 0 -54.5 22.5t-22.5 55.5q0 32 22.5 54.5t54.5 22.5t55 -22.5t23 -54.5q0 -33 -23 -55.5t-55 -22.5z" />
    <glyph glyph-name="oslash" unicode="&#xf8;" horiz-adv-x="627" 
d="M468 458q49 -36 76 -91t27 -119q0 -108 -71 -183t-186 -75q-57 0 -106 20l-35 -61l-48 27l35 61q-49 35 -76.5 90.5t-27.5 120.5q0 107 71 182t187 75q57 0 105 -20l35 60l49 -27zM122 248q0 -104 68 -160l201 347q-36 14 -77 14q-90 0 -141 -58t-51 -143zM314 46
q90 0 140.5 58.5t50.5 143.5q0 102 -67 158l-201 -346q36 -14 77 -14z" />
    <glyph glyph-name="ugrave" unicode="&#xf9;" horiz-adv-x="580" 
d="M452 636l-14 -54l-290 78l14 54zM262 46q82 0 134 61.5t52 160.5v227h66v-495h-66v91l10 50h-20q-16 -70 -64.5 -110.5t-126.5 -40.5q-85 0 -133 48.5t-48 146.5v310h66v-302q0 -78 31.5 -112.5t98.5 -34.5z" />
    <glyph glyph-name="uacute" unicode="&#xfa;" horiz-adv-x="580" 
d="M148 636l290 78l14 -54l-290 -78zM262 46q82 0 134 61.5t52 160.5v227h66v-495h-66v91l10 50h-20q-16 -70 -64.5 -110.5t-126.5 -40.5q-85 0 -133 48.5t-48 146.5v310h66v-302q0 -78 31.5 -112.5t98.5 -34.5z" />
    <glyph glyph-name="ucircumflex" unicode="&#xfb;" horiz-adv-x="580" 
d="M451 604l-40 -40l-111 95l-111 -95l-40 40l151 127zM262 46q82 0 134 61.5t52 160.5v227h66v-495h-66v91l10 50h-20q-16 -70 -64.5 -110.5t-126.5 -40.5q-85 0 -133 48.5t-48 146.5v310h66v-302q0 -78 31.5 -112.5t98.5 -34.5z" />
    <glyph glyph-name="udieresis" unicode="&#xfc;" horiz-adv-x="580" 
d="M202 580q-28 0 -47.5 20t-19.5 48q0 27 19.5 47t47.5 20t48 -20t20 -47q0 -28 -20 -48t-48 -20zM397 580q-28 0 -47.5 20t-19.5 48q0 27 19.5 47t47.5 20t48 -20t20 -47q0 -28 -20 -48t-48 -20zM262 46q82 0 134 61.5t52 160.5v227h66v-495h-66v91l10 50h-20
q-16 -70 -64.5 -110.5t-126.5 -40.5q-85 0 -133 48.5t-48 146.5v310h66v-302q0 -78 31.5 -112.5t98.5 -34.5z" />
    <glyph glyph-name="yacute" unicode="&#xfd;" horiz-adv-x="575" 
d="M445 660l-290 -78l-14 54l290 78zM468 495h71l-213 -495v-135q0 -58 -65 -55l-181 10v56l180 -10v134l-214 495h71l166 -408v-30h20v30z" />
    <glyph glyph-name="thorn" unicode="&#xfe;" horiz-adv-x="650" 
d="M353 505q107 0 174 -72.5t67 -185.5q0 -112 -67 -184.5t-174 -72.5q-80 0 -132.5 39t-68.5 102h-20l10 -50v-261h-66v915h66v-321l-10 -50h20q16 63 68.5 102t132.5 39zM340 46q84 0 136 50.5t52 150.5t-52 151t-136 51q-86 0 -142 -50.5t-56 -151.5q0 -100 56 -150.5
t142 -50.5z" />
    <glyph glyph-name="ydieresis" unicode="&#xff;" horiz-adv-x="575" 
d="M195 580q-28 0 -47.5 20t-19.5 48q0 27 19.5 47t47.5 20t48 -20t20 -47q0 -28 -20 -48t-48 -20zM390 580q-28 0 -47.5 20t-19.5 48q0 27 19.5 47t47.5 20t48 -20t20 -47q0 -28 -20 -48t-48 -20zM468 495h71l-213 -495v-135q0 -58 -65 -55l-181 10v56l180 -10v134
l-214 495h71l166 -408v-30h20v30z" />
    <glyph glyph-name="Amacron" unicode="&#x100;" horiz-adv-x="672" 
d="M487 886v-55l-301 -1v56h301zM571 0l-94 286h-282l-94 -286h-65l232 705h136l232 -705h-65zM213 342h246l-113 343h-20z" />
    <glyph glyph-name="amacron" unicode="&#x101;" horiz-adv-x="582" 
d="M129 676h301v-55l-301 -1v56zM56 138q0 60 38 97.5t117 44.5l206 19q-9 150 -148 150q-63 0 -105 -32.5t-42 -104.5h-66q0 79 56.5 136t156.5 57q101 0 157.5 -62.5t56.5 -160.5v-226h73v-56h-84q-55 0 -55 55v30l10 50h-20q-16 -63 -62 -104t-127 -41q-50 0 -84.5 15
t-50 40t-21.5 47t-6 46zM122 144q0 -47 27 -72.5t75 -25.5q87 0 140 56t53 141l-196 -19q-51 -5 -75 -23t-24 -57z" />
    <glyph glyph-name="Abreve" unicode="&#x102;" horiz-adv-x="672" 
d="M336 774q-68 0 -109.5 45.5t-41.5 121.5h56q0 -57 22 -84t73 -27t73 27t22 84h56q0 -76 -41.5 -121.5t-109.5 -45.5zM571 0l-94 286h-282l-94 -286h-65l232 705h136l232 -705h-65zM213 342h246l-113 343h-20z" />
    <glyph glyph-name="abreve" unicode="&#x103;" horiz-adv-x="582" 
d="M430 731q0 -76 -41.5 -121.5t-109.5 -45.5t-109.5 45.5t-41.5 121.5h56q0 -57 22 -84t73 -27t73 27t22 84h56zM56 138q0 60 38 97.5t117 44.5l206 19q-9 150 -148 150q-63 0 -105 -32.5t-42 -104.5h-66q0 79 56.5 136t156.5 57q101 0 157.5 -62.5t56.5 -160.5v-226h73
v-56h-84q-55 0 -55 55v30l10 50h-20q-16 -63 -62 -104t-127 -41q-50 0 -84.5 15t-50 40t-21.5 47t-6 46zM122 144q0 -47 27 -72.5t75 -25.5q87 0 140 56t53 141l-196 -19q-51 -5 -75 -23t-24 -57z" />
    <glyph glyph-name="Aogonek" unicode="&#x104;" horiz-adv-x="672" 
d="M565 -134l196 20v-56l-200 -19q-35 -3 -50 20.5t1 52.5l60 116h-1l-94 286h-282l-94 -286h-65l232 705h136l232 -704v-1h-1zM213 342h246l-113 343h-20z" />
    <glyph glyph-name="aogonek" unicode="&#x105;" horiz-adv-x="582" 
d="M485 -134l196 20v-56l-200 -19q-35 -3 -50 20.5t1 52.5l60 116h-20q-55 0 -55 55v30l10 50h-20q-16 -63 -62 -104t-127 -41q-50 0 -84.5 15t-50 40t-21.5 47t-6 46q0 60 38 97.5t117 44.5l206 19q-9 150 -148 150q-63 0 -105 -32.5t-42 -104.5h-66q0 79 56.5 136
t156.5 57q101 0 157.5 -62.5t56.5 -160.5v-226h73v-56h-1zM224 46q87 0 140 56t53 141l-196 -19q-51 -5 -75 -23t-24 -57q0 -47 27 -72.5t75 -25.5z" />
    <glyph glyph-name="Cacute" unicode="&#x106;" horiz-adv-x="768" 
d="M237 846l290 78l14 -54l-290 -78zM66 353q0 158 87 260t236 102q132 0 214.5 -75.5t98.5 -206.5h-66q-12 108 -75.5 167t-171.5 59q-125 0 -191 -84.5t-66 -221.5q0 -138 66 -222.5t191 -84.5q108 0 171.5 59.5t75.5 167.5h66q-16 -132 -98.5 -207.5t-214.5 -75.5
q-149 0 -236 102t-87 261z" />
    <glyph glyph-name="cacute" unicode="&#x107;" horiz-adv-x="585" 
d="M153 636l290 78l14 -54l-290 -78zM56 248q0 109 66.5 183t182.5 74q79 0 146.5 -48t77.5 -146h-67q-21 138 -157 138q-90 0 -136.5 -57.5t-46.5 -143.5q0 -87 46.5 -144.5t136.5 -57.5q136 0 157 138h67q-10 -98 -77.5 -146t-146.5 -48q-116 0 -182.5 74.5t-66.5 183.5z
" />
    <glyph glyph-name="Cdotaccent" unicode="&#x10a;" horiz-adv-x="768" 
d="M388 790q-28 0 -47.5 20t-19.5 48q0 27 19.5 47t47.5 20t48 -20t20 -47q0 -28 -20 -48t-48 -20zM66 353q0 158 87 260t236 102q132 0 214.5 -75.5t98.5 -206.5h-66q-12 108 -75.5 167t-171.5 59q-125 0 -191 -84.5t-66 -221.5q0 -138 66 -222.5t191 -84.5
q108 0 171.5 59.5t75.5 167.5h66q-16 -132 -98.5 -207.5t-214.5 -75.5q-149 0 -236 102t-87 261z" />
    <glyph glyph-name="cdotaccent" unicode="&#x10b;" horiz-adv-x="585" 
d="M304 580q-28 0 -47.5 20t-19.5 48q0 27 19.5 47t47.5 20t48 -20t20 -47q0 -28 -20 -48t-48 -20zM56 248q0 109 66.5 183t182.5 74q79 0 146.5 -48t77.5 -146h-67q-21 138 -157 138q-90 0 -136.5 -57.5t-46.5 -143.5q0 -87 46.5 -144.5t136.5 -57.5q136 0 157 138h67
q-10 -98 -77.5 -146t-146.5 -48q-116 0 -182.5 74.5t-66.5 183.5z" />
    <glyph glyph-name="Ccaron" unicode="&#x10c;" horiz-adv-x="768" 
d="M540 901l-151 -127l-151 127l40 40l111 -95l111 95zM66 353q0 158 87 260t236 102q132 0 214.5 -75.5t98.5 -206.5h-66q-12 108 -75.5 167t-171.5 59q-125 0 -191 -84.5t-66 -221.5q0 -138 66 -222.5t191 -84.5q108 0 171.5 59.5t75.5 167.5h66q-16 -132 -98.5 -207.5
t-214.5 -75.5q-149 0 -236 102t-87 261z" />
    <glyph glyph-name="ccaron" unicode="&#x10d;" horiz-adv-x="585" 
d="M456 691l-151 -127l-151 127l40 40l111 -95l111 95zM56 248q0 109 66.5 183t182.5 74q79 0 146.5 -48t77.5 -146h-67q-21 138 -157 138q-90 0 -136.5 -57.5t-46.5 -143.5q0 -87 46.5 -144.5t136.5 -57.5q136 0 157 138h67q-10 -98 -77.5 -146t-146.5 -48
q-116 0 -182.5 74.5t-66.5 183.5z" />
    <glyph glyph-name="Dcaron" unicode="&#x10e;" horiz-adv-x="705" 
d="M446 901l-151 -127l-151 127l40 40l111 -95l111 95zM292 705q46 0 84.5 -5.5t80 -18.5t72.5 -38.5t57 -63t39.5 -95.5t13.5 -131q0 -88 -20.5 -153t-52.5 -102.5t-80 -60.5t-93 -30t-101 -7h-216v705h216zM292 56q45 0 78 4.5t74 22t67 48t44 87t18 135.5q0 78 -18 135
t-44 87t-67 47.5t-74 22t-78 4.5h-150v-593h150z" />
    <glyph glyph-name="dcaron" unicode="&#x10f;" horiz-adv-x="746" 
d="M574 0h-66v81l10 50h-20q-16 -63 -69 -102t-133 -39q-107 0 -173.5 72.5t-66.5 185.5q0 112 66.5 184.5t173.5 72.5q80 0 133 -39t69 -102h20l-10 50v321h66v-735zM634 735h66v-240h-66v240zM508 248q0 100 -56 150.5t-142 50.5q-84 0 -136 -50t-52 -151
q0 -102 51.5 -152t136.5 -50q86 0 142 50.5t56 151.5z" />
    <glyph glyph-name="Dcroat" unicode="&#x110;" horiz-adv-x="765" 
d="M352 705q46 0 84.5 -5.5t80 -18.5t72.5 -38.5t57 -63t39.5 -95.5t13.5 -131q0 -88 -20.5 -153t-52.5 -102.5t-80 -60.5t-93 -30t-101 -7h-216v337h-70v56h70v312h216zM352 56q45 0 78 4.5t74 22t67 48t44 87t18 135.5q0 78 -18 135t-44 87t-67 47.5t-74 22t-78 4.5h-150
v-256h202v-56h-202v-281h150z" />
    <glyph glyph-name="dcroat" unicode="&#x111;" horiz-adv-x="680" 
d="M634 675v-56h-60v-619h-66v81l10 50h-20q-16 -63 -69 -102t-133 -39q-107 0 -173.5 72.5t-66.5 185.5q0 112 66.5 184.5t173.5 72.5q80 0 133 -39t69 -102h20l-10 50v205h-139v56h139v60h66v-60h60zM310 46q86 0 142 50.5t56 151.5q0 100 -56 150.5t-142 50.5
q-84 0 -136 -50t-52 -151q0 -102 51.5 -152t136.5 -50z" />
    <glyph glyph-name="Emacron" unicode="&#x112;" horiz-adv-x="555" 
d="M138 886h301v-55l-301 -1v56zM76 0v705h423v-56h-357v-268h307v-56h-307v-269h357v-56h-423z" />
    <glyph glyph-name="emacron" unicode="&#x113;" horiz-adv-x="589" 
d="M145 676h301v-55l-301 -1v56zM56 254q0 118 65 184.5t170 66.5q104 0 164.5 -63.5t60.5 -177.5v-28h-394q5 -85 47.5 -137.5t132.5 -52.5q134 0 165 127h66q-9 -33 -23.5 -62t-40.5 -58t-69 -46t-98 -17q-124 0 -185 74t-61 190zM122 292h328q0 68 -42.5 112.5
t-116.5 44.5t-121.5 -45t-47.5 -112z" />
    <glyph glyph-name="Edotaccent" unicode="&#x116;" horiz-adv-x="555" 
d="M287 790q-28 0 -47.5 20t-19.5 48q0 27 19.5 47t47.5 20t48 -20t20 -47q0 -28 -20 -48t-48 -20zM76 0v705h423v-56h-357v-268h307v-56h-307v-269h357v-56h-423z" />
    <glyph glyph-name="edotaccent" unicode="&#x117;" horiz-adv-x="589" 
d="M294 580q-28 0 -47.5 20t-19.5 48q0 27 19.5 47t47.5 20t48 -20t20 -47q0 -28 -20 -48t-48 -20zM56 254q0 118 65 184.5t170 66.5q104 0 164.5 -63.5t60.5 -177.5v-28h-394q5 -85 47.5 -137.5t132.5 -52.5q134 0 165 127h66q-9 -33 -23.5 -62t-40.5 -58t-69 -46t-98 -17
q-124 0 -185 74t-61 190zM122 292h328q0 68 -42.5 112.5t-116.5 44.5t-121.5 -45t-47.5 -112z" />
    <glyph glyph-name="Eogonek" unicode="&#x118;" horiz-adv-x="555" 
d="M499 649h-357v-268h307v-56h-307v-269h357v-56h-134l-70 -134l196 20v-56l-200 -19q-35 -3 -50 20.5t1 52.5l60 116h-226v705h423v-56z" />
    <glyph glyph-name="eogonek" unicode="&#x119;" horiz-adv-x="589" 
d="M370 -2l-69 -132l196 20v-56l-200 -19q-35 -3 -50 20.5t1 52.5l55 106h-1q-124 0 -185 74t-61 190q0 118 65 184.5t170 66.5q104 0 164.5 -63.5t60.5 -177.5v-28h-394q5 -85 47.5 -137.5t132.5 -52.5q134 0 165 127h66q-38 -144 -163 -175zM291 449q-74 0 -121.5 -45
t-47.5 -112h328q0 68 -42.5 112.5t-116.5 44.5z" />
    <glyph glyph-name="Ecaron" unicode="&#x11a;" horiz-adv-x="555" 
d="M439 901l-151 -127l-151 127l40 40l111 -95l111 95zM76 0v705h423v-56h-357v-268h307v-56h-307v-269h357v-56h-423z" />
    <glyph glyph-name="ecaron" unicode="&#x11b;" horiz-adv-x="589" 
d="M446 691l-151 -127l-151 127l40 40l111 -95l111 95zM56 254q0 118 65 184.5t170 66.5q104 0 164.5 -63.5t60.5 -177.5v-28h-394q5 -85 47.5 -137.5t132.5 -52.5q134 0 165 127h66q-9 -33 -23.5 -62t-40.5 -58t-69 -46t-98 -17q-124 0 -185 74t-61 190zM122 292h328
q0 68 -42.5 112.5t-116.5 44.5t-121.5 -45t-47.5 -112z" />
    <glyph glyph-name="Gbreve" unicode="&#x11e;" horiz-adv-x="800" 
d="M539 941q0 -76 -41.5 -121.5t-109.5 -45.5t-109.5 45.5t-41.5 121.5h56q0 -57 22 -84t73 -27t73 27t22 84h56zM66 353q0 157 89 259.5t239 102.5q128 0 199.5 -70.5t88.5 -191.5h-66q-27 206 -222 206q-126 0 -194 -85t-68 -221q0 -92 22.5 -158.5t77.5 -107.5t139 -41
q111 0 162.5 66.5t48.5 204.5h-257v56h344q55 0 55 -49v-324h-66v267l10 86h-20q-1 -363 -277 -363q-149 0 -227 100.5t-78 262.5z" />
    <glyph glyph-name="gbreve" unicode="&#x11f;" horiz-adv-x="651" 
d="M304 564q-68 0 -109.5 45.5t-41.5 121.5h56q0 -57 22 -84t73 -27t73 27t22 84h56q0 -76 -41.5 -121.5t-109.5 -45.5zM581 495h44v-56h-44q-39 0 -68 -22q38 -47 38 -114q0 -80 -58.5 -135.5t-176.5 -99.5q60 9 111 7.5t84.5 -29t33.5 -80.5q0 -39 -17 -65t-47.5 -42
t-89.5 -24.5t-126 -11.5t-173 -3v56q225 0 306 16t81 74q0 28 -17 45t-46.5 21.5t-64 3.5t-75.5 -10t-74.5 -18t-66.5 -20l-17 50q37 12 110.5 36.5t110.5 36.5v20q-121 -28 -202 17t-81 155q0 99 69 150.5t179 51.5q95 0 163 -46q44 24 62.5 30t51.5 6zM304 156
q181 0 181 147q0 146 -181 146q-182 0 -182 -146q0 -147 182 -147z" />
    <glyph glyph-name="Gdotaccent" unicode="&#x120;" horiz-adv-x="800" 
d="M387 790q-28 0 -47.5 20t-19.5 48q0 27 19.5 47t47.5 20t48 -20t20 -47q0 -28 -20 -48t-48 -20zM66 353q0 157 89 259.5t239 102.5q128 0 199.5 -70.5t88.5 -191.5h-66q-27 206 -222 206q-126 0 -194 -85t-68 -221q0 -92 22.5 -158.5t77.5 -107.5t139 -41
q111 0 162.5 66.5t48.5 204.5h-257v56h344q55 0 55 -49v-324h-66v267l10 86h-20q-1 -363 -277 -363q-149 0 -227 100.5t-78 262.5z" />
    <glyph glyph-name="gdotaccent" unicode="&#x121;" horiz-adv-x="651" 
d="M303 580q-28 0 -47.5 20t-19.5 48q0 27 19.5 47t47.5 20t48 -20t20 -47q0 -28 -20 -48t-48 -20zM581 495h44v-56h-44q-39 0 -68 -22q38 -47 38 -114q0 -80 -58.5 -135.5t-176.5 -99.5q60 9 111 7.5t84.5 -29t33.5 -80.5q0 -39 -17 -65t-47.5 -42t-89.5 -24.5t-126 -11.5
t-173 -3v56q225 0 306 16t81 74q0 28 -17 45t-46.5 21.5t-64 3.5t-75.5 -10t-74.5 -18t-66.5 -20l-17 50q37 12 110.5 36.5t110.5 36.5v20q-121 -28 -202 17t-81 155q0 99 69 150.5t179 51.5q95 0 163 -46q44 24 62.5 30t51.5 6zM304 156q181 0 181 147q0 146 -181 146
q-182 0 -182 -146q0 -147 182 -147z" />
    <glyph glyph-name="uni0122" unicode="&#x122;" horiz-adv-x="800" 
d="M66 353q0 157 89 259.5t239 102.5q128 0 199.5 -70.5t88.5 -191.5h-66q-27 206 -222 206q-126 0 -194 -85t-68 -221q0 -92 22.5 -158.5t77.5 -107.5t139 -41q111 0 162.5 66.5t48.5 204.5h-257v56h344q55 0 55 -49v-324h-66v267l10 86h-20q-1 -363 -277 -363
q-149 0 -227 100.5t-78 262.5zM331 -49l64 -17l-51 -164l-64 17z" />
    <glyph glyph-name="uni0123" unicode="&#x123;" horiz-adv-x="651" 
d="M389 754l-47 -174l-64 17l47 174zM581 495h44v-56h-44q-39 0 -68 -22q38 -47 38 -114q0 -80 -58.5 -135.5t-176.5 -99.5q60 9 111 7.5t84.5 -29t33.5 -80.5q0 -39 -17 -65t-47.5 -42t-89.5 -24.5t-126 -11.5t-173 -3v56q225 0 306 16t81 74q0 28 -17 45t-46.5 21.5
t-64 3.5t-75.5 -10t-74.5 -18t-66.5 -20l-17 50q37 12 110.5 36.5t110.5 36.5v20q-121 -28 -202 17t-81 155q0 99 69 150.5t179 51.5q95 0 163 -46q44 24 62.5 30t51.5 6zM304 156q181 0 181 147q0 146 -181 146q-182 0 -182 -146q0 -147 182 -147z" />
    <glyph glyph-name="Hbar" unicode="&#x126;" horiz-adv-x="772" 
d="M726 602v-56h-60v-546h-66v321h-428v-321h-66v546h-60v56h60v103h66v-103h428v103h66v-103h60zM600 377v169h-428v-169h428z" />
    <glyph glyph-name="hbar" unicode="&#x127;" horiz-adv-x="620" 
d="M373 505q85 0 133 -48.5t48 -146.5v-310h-66v302q0 78 -31.5 112.5t-98.5 34.5q-82 0 -134 -61.5t-52 -160.5v-227h-66v619h-50v56h50v60h66v-60h149v-56h-149v-215l-10 -50h20q16 70 64.5 110.5t126.5 40.5z" />
    <glyph glyph-name="Imacron" unicode="&#x12a;" horiz-adv-x="512" 
d="M407 886v-55l-301 -1v56h301zM446 649h-157v-593h157v-56h-380v56h157v593h-157v56h380v-56z" />
    <glyph glyph-name="imacron" unicode="&#x12b;" horiz-adv-x="432" 
d="M40 676h301v-55l-301 -1v56zM56 0v56h141v393l-101 -10v56l98 10q33 4 47 -13t14 -52v-384h141v-56h-340z" />
    <glyph glyph-name="Iogonek" unicode="&#x12e;" horiz-adv-x="512" 
d="M268 -134l196 20v-56l-200 -19q-35 -3 -50 20.5t1 52.5l60 116h-209v56h157v593h-157v56h380v-56h-157v-593h157v-56h-108z" />
    <glyph glyph-name="iogonek" unicode="&#x12f;" horiz-adv-x="432" 
d="M189 580q-28 0 -47.5 20t-19.5 48q0 27 19.5 47t47.5 20t48 -20t20 -47q0 -28 -20 -48t-48 -20zM396 0h-136l-70 -134l196 20v-56l-200 -19q-35 -3 -50 20.5t1 52.5l60 116h-141v56h141v393l-101 -10v56l98 10q33 4 47 -13t14 -52v-384h141v-56z" />
    <glyph glyph-name="Idotaccent" unicode="&#x130;" horiz-adv-x="512" 
d="M255 790q-28 0 -47.5 20t-19.5 48q0 27 19.5 47t47.5 20t48 -20t20 -47q0 -28 -20 -48t-48 -20zM446 649h-157v-593h157v-56h-380v56h157v593h-157v56h380v-56z" />
    <glyph glyph-name="dotlessi" unicode="&#x131;" horiz-adv-x="432" 
d="M56 0v56h141v393l-101 -10v56l98 10q33 4 47 -13t14 -52v-384h141v-56h-340z" />
    <glyph glyph-name="uni0136" unicode="&#x136;" horiz-adv-x="651" 
d="M615 705l-431 -352l431 -353h-95l-378 310v-310h-66v705h66v-310l378 310h95zM229 -213l51 164l64 -17l-51 -164z" />
    <glyph glyph-name="uni0137" unicode="&#x137;" horiz-adv-x="540" 
d="M298 268l196 -268h-75l-174 238l-103 -58v-180h-66v735h66v-485l257 145l-11 100h66l10 -87q4 -43 -36 -66zM194 -213l51 164l64 -17l-51 -164z" />
    <glyph glyph-name="Lacute" unicode="&#x139;" horiz-adv-x="535" 
d="M77 846l290 78l14 -54l-290 -78zM131 -10q-26 -1 -40.5 14t-14.5 41v660h66v-659l357 10v-56z" />
    <glyph glyph-name="lacute" unicode="&#x13a;" horiz-adv-x="426" 
d="M44 876l290 78l14 -54l-290 -78zM46 0v56h139v633l-99 -10v56l100 10q33 4 49 -13t16 -52v-624h139v-56h-344z" />
    <glyph glyph-name="uni013B" unicode="&#x13b;" horiz-adv-x="535" 
d="M131 -10q-26 -1 -40.5 14t-14.5 41v660h66v-659l357 10v-56zM275 -49l64 -17l-51 -164l-64 17z" />
    <glyph glyph-name="uni013C" unicode="&#x13c;" horiz-adv-x="426" 
d="M46 0v56h139v633l-99 -10v56l100 10q33 4 49 -13t16 -52v-624h139v-56h-344zM180 -49l64 -17l-51 -164l-64 17z" />
    <glyph glyph-name="Lcaron" unicode="&#x13d;" horiz-adv-x="545" 
d="M246 735h66v-240h-66v240zM131 -10q-26 -1 -40.5 14t-14.5 41v660h66v-659l357 10v-56z" />
    <glyph glyph-name="lcaron" unicode="&#x13e;" horiz-adv-x="433" 
d="M46 0v56h139v633l-99 -10v56l100 10q33 4 49 -13t16 -52v-624h139v-56h-344zM331 735h66v-240h-66v240z" />
    <glyph glyph-name="Lslash" unicode="&#x141;" horiz-adv-x="595" 
d="M192 46l357 10v-56l-368 -10q-26 -1 -40.5 14t-14.5 41v264l-56 -15l-14 54l70 19v338h66v-320l190 51l14 -54l-204 -55v-281z" />
    <glyph glyph-name="lslash" unicode="&#x142;" horiz-adv-x="426" 
d="M251 56h139v-56h-344v56h139v271l-123 -33l-14 54l137 37v304l-99 -10v56l100 10q33 4 49 -13t16 -52v-277l123 33l14 -54l-137 -37v-289z" />
    <glyph glyph-name="Nacute" unicode="&#x143;" horiz-adv-x="742" 
d="M239 846l290 78l14 -54l-290 -78zM76 0v705h135l379 -685h20l-10 50v635h66v-705h-135l-379 685h-20l10 -50v-635h-66z" />
    <glyph glyph-name="nacute" unicode="&#x144;" horiz-adv-x="590" 
d="M168 636l290 78l14 -54l-290 -78zM328 449q-82 0 -134 -61.5t-52 -160.5v-227h-66v495h66v-91l-10 -50h20q16 70 64.5 110.5t126.5 40.5q85 0 133 -48.5t48 -146.5v-310h-66v302q0 78 -31.5 112.5t-98.5 34.5z" />
    <glyph glyph-name="uni0145" unicode="&#x145;" horiz-adv-x="742" 
d="M76 0v705h135l379 -685h20l-10 50v635h66v-705h-135l-379 685h-20l10 -50v-635h-66zM333 -49l64 -17l-51 -164l-64 17z" />
    <glyph glyph-name="uni0146" unicode="&#x146;" horiz-adv-x="590" 
d="M328 449q-82 0 -134 -61.5t-52 -160.5v-227h-66v495h66v-91l-10 -50h20q16 70 64.5 110.5t126.5 40.5q85 0 133 -48.5t48 -146.5v-310h-66v302q0 78 -31.5 112.5t-98.5 34.5zM262 -49l64 -17l-51 -164l-64 17z" />
    <glyph glyph-name="Ncaron" unicode="&#x147;" horiz-adv-x="742" 
d="M542 901l-151 -127l-151 127l40 40l111 -95l111 95zM76 0v705h135l379 -685h20l-10 50v635h66v-705h-135l-379 685h-20l10 -50v-635h-66z" />
    <glyph glyph-name="ncaron" unicode="&#x148;" horiz-adv-x="590" 
d="M471 691l-151 -127l-151 127l40 40l111 -95l111 95zM328 449q-82 0 -134 -61.5t-52 -160.5v-227h-66v495h66v-91l-10 -50h20q16 70 64.5 110.5t126.5 40.5q85 0 133 -48.5t48 -146.5v-310h-66v302q0 78 -31.5 112.5t-98.5 34.5z" />
    <glyph glyph-name="Eng" unicode="&#x14a;" horiz-adv-x="742" 
d="M600 705h66v-840q0 -58 -65 -55l-181 10v56l180 -10v134h-69l-379 685h-20l10 -50v-635h-66v705h135l379 -685h20l-10 50v635z" />
    <glyph glyph-name="eng" unicode="&#x14b;" horiz-adv-x="590" 
d="M343 505q85 0 133 -48.5t48 -146.5v-445q0 -58 -65 -55l-181 10v56l180 -10v436q0 78 -31.5 112.5t-98.5 34.5q-82 0 -134 -61.5t-52 -160.5v-227h-66v495h66v-91l-10 -50h20q16 70 64.5 110.5t126.5 40.5z" />
    <glyph glyph-name="Omacron" unicode="&#x14c;" horiz-adv-x="777" 
d="M239 886h301v-55l-301 -1v56zM66 353q0 158 87 260t236 102t235.5 -102t86.5 -260q0 -159 -86.5 -261t-235.5 -102t-236 102t-87 261zM132 353q0 -138 66 -222.5t191 -84.5t190.5 84.5t65.5 222.5q0 137 -65.5 221.5t-190.5 84.5t-191 -84.5t-66 -221.5z" />
    <glyph glyph-name="omacron" unicode="&#x14d;" horiz-adv-x="627" 
d="M164 676h301v-55l-301 -1v56zM56 248q0 107 71 182t187 75q115 0 186 -75t71 -182q0 -108 -71 -183t-186 -75q-116 0 -187 75t-71 183zM122 248q0 -86 50.5 -144t141.5 -58q90 0 140.5 58.5t50.5 143.5t-50.5 143t-140.5 58t-141 -58t-51 -143z" />
    <glyph glyph-name="Ohungarumlaut" unicode="&#x150;" horiz-adv-x="777" 
d="M270 813l131 132l39 -40l-131 -131zM418 813l131 132l39 -40l-131 -131zM66 353q0 158 87 260t236 102t235.5 -102t86.5 -260q0 -159 -86.5 -261t-235.5 -102t-236 102t-87 261zM132 353q0 -138 66 -222.5t191 -84.5t190.5 84.5t65.5 222.5q0 137 -65.5 221.5
t-190.5 84.5t-191 -84.5t-66 -221.5z" />
    <glyph glyph-name="ohungarumlaut" unicode="&#x151;" horiz-adv-x="627" 
d="M195 603l131 132l39 -40l-131 -131zM343 603l131 132l39 -40l-131 -131zM56 248q0 107 71 182t187 75q115 0 186 -75t71 -182q0 -108 -71 -183t-186 -75q-116 0 -187 75t-71 183zM122 248q0 -86 50.5 -144t141.5 -58q90 0 140.5 58.5t50.5 143.5t-50.5 143t-140.5 58
t-141 -58t-51 -143z" />
    <glyph glyph-name="OE" unicode="&#x152;" horiz-adv-x="1134" 
d="M1078 649h-357v-268h307v-56h-307v-269h357v-56h-423v134q-42 -68 -109.5 -106t-156.5 -38q-149 0 -236 102t-87 261q0 158 87 260t236 102q89 0 156.5 -38t109.5 -106v134h423v-56zM389 46q125 0 190.5 84.5t65.5 222.5q0 137 -65.5 221.5t-190.5 84.5t-191 -84.5
t-66 -221.5q0 -138 66 -222.5t191 -84.5z" />
    <glyph glyph-name="oe" unicode="&#x153;" horiz-adv-x="1048" 
d="M926 173h66q-9 -33 -23.5 -62t-40.5 -58t-69 -46t-98 -17q-162 0 -221 131q-31 -60 -90 -95.5t-136 -35.5q-116 0 -187 75t-71 183q0 107 71 182t187 75q77 0 135 -34.5t90 -93.5q28 62 83 95t128 33q104 0 164.5 -63.5t60.5 -177.5v-28h-394q5 -85 47.5 -137.5
t132.5 -52.5q134 0 165 127zM314 46q90 0 140.5 58.5t50.5 143.5t-50.5 143t-140.5 58t-141 -58t-51 -143q0 -86 50.5 -144t141.5 -58zM750 449q-74 0 -121.5 -45t-47.5 -112h328q0 68 -42.5 112.5t-116.5 44.5z" />
    <glyph glyph-name="Racute" unicode="&#x154;" horiz-adv-x="654" 
d="M160 846l290 78l14 -54l-290 -78zM76 0v705h226q136 0 201.5 -42.5t65.5 -154.5q0 -145 -122 -168v-20h81q27 0 38.5 -11t11.5 -36v-273h-66v290h-370v-290h-66zM142 346h160q53 0 85 4.5t61 19.5t42 46.5t13 81.5q0 41 -9.5 69t-24.5 44t-42.5 24.5t-55 11t-69.5 2.5
h-160v-303z" />
    <glyph glyph-name="racute" unicode="&#x155;" horiz-adv-x="432" 
d="M99 636l290 78l14 -54l-290 -78zM76 0v440q0 68 65 65l265 -10v-56l-264 10v-449h-66z" />
    <glyph glyph-name="uni0156" unicode="&#x156;" horiz-adv-x="654" 
d="M76 0v705h226q136 0 201.5 -42.5t65.5 -154.5q0 -145 -122 -168v-20h81q27 0 38.5 -11t11.5 -36v-273h-66v290h-370v-290h-66zM142 346h160q53 0 85 4.5t61 19.5t42 46.5t13 81.5q0 41 -9.5 69t-24.5 44t-42.5 24.5t-55 11t-69.5 2.5h-160v-303zM304 -49l64 -17l-51 -164
l-64 17z" />
    <glyph glyph-name="uni0157" unicode="&#x157;" horiz-adv-x="432" 
d="M76 0v440q0 68 65 65l265 -10v-56l-264 10v-449h-66zM72 -49l64 -17l-51 -164l-64 17z" />
    <glyph glyph-name="Rcaron" unicode="&#x158;" horiz-adv-x="654" 
d="M463 901l-151 -127l-151 127l40 40l111 -95l111 95zM76 0v705h226q136 0 201.5 -42.5t65.5 -154.5q0 -145 -122 -168v-20h81q27 0 38.5 -11t11.5 -36v-273h-66v290h-370v-290h-66zM142 346h160q53 0 85 4.5t61 19.5t42 46.5t13 81.5q0 41 -9.5 69t-24.5 44t-42.5 24.5
t-55 11t-69.5 2.5h-160v-303z" />
    <glyph glyph-name="rcaron" unicode="&#x159;" horiz-adv-x="432" 
d="M402 691l-151 -127l-151 127l40 40l111 -95l111 95zM76 0v440q0 68 65 65l265 -10v-56l-264 10v-449h-66z" />
    <glyph glyph-name="Sacute" unicode="&#x15a;" horiz-adv-x="669" 
d="M183 846l290 78l14 -54l-290 -78zM623 175q0 -185 -265 -185q-173 0 -242.5 70t-69.5 202h66q0 -125 61 -170.5t185 -45.5q98 0 148.5 28.5t50.5 95.5q0 22 -6.5 40.5t-15 31.5t-27 26t-31 20.5t-39 16.5t-40 13.5t-45 13t-42.5 11.5q-47 14 -77.5 24.5t-63 27.5
t-50.5 36.5t-30 47.5t-12 64q0 172 244 172q74 0 129 -21.5t85 -57.5t44 -76.5t14 -84.5h-66q0 90 -58 137t-148 47q-178 0 -178 -112q0 -57 43.5 -87t143.5 -61q131 -40 167 -57q113 -52 124 -145q1 -10 1 -22z" />
    <glyph glyph-name="sacute" unicode="&#x15b;" horiz-adv-x="489" 
d="M98 636l290 78l14 -54l-290 -78zM453 127q0 -61 -43.5 -99t-144.5 -38q-219 0 -219 193h66q0 -137 153 -137q64 0 93 17.5t29 58.5q0 13 -4 24.5t-9 20t-15.5 16t-18.5 12.5t-24.5 11t-26 8.5t-29 8.5t-29.5 9q-83 25 -122.5 55.5t-39.5 89.5q0 58 46 93t127 35
q54 0 93.5 -14t60.5 -38.5t30.5 -52t9.5 -58.5h-66q0 107 -128 107q-107 0 -107 -68q0 -37 23 -54.5t88 -38.5q9 -3 36.5 -11.5t38 -12t33.5 -13t33 -16t25.5 -18.5t22.5 -24.5t12.5 -29t5.5 -36.5z" />
    <glyph glyph-name="Scedilla" unicode="&#x15e;" horiz-adv-x="669" 
d="M623 175q0 -185 -265 -185l-46 -46q30 14 61 14q26 0 43.5 -14t17.5 -41q0 -51 -46 -67t-149 -16v56q78 0 108.5 5t30.5 28q0 21 -23 21q-27 0 -68 -28l-32 47l40 44q-137 13 -193 81.5t-56 187.5h66q0 -125 61 -170.5t185 -45.5q98 0 148.5 28.5t50.5 95.5
q0 22 -6.5 40.5t-15 31.5t-27 26t-31 20.5t-39 16.5t-40 13.5t-45 13t-42.5 11.5q-47 14 -77.5 24.5t-63 27.5t-50.5 36.5t-30 47.5t-12 64q0 172 244 172q74 0 129 -21.5t85 -57.5t44 -76.5t14 -84.5h-66q0 90 -58 137t-148 47q-178 0 -178 -112q0 -57 43.5 -87t143.5 -61
q131 -40 167 -57q113 -52 124 -145q1 -10 1 -22z" />
    <glyph glyph-name="scedilla" unicode="&#x15f;" horiz-adv-x="489" 
d="M453 127q0 -134 -180 -137l-46 -46q30 14 61 14q26 0 43.5 -14t17.5 -41q0 -51 -46 -67t-149 -16v56q78 0 108.5 5t30.5 28q0 21 -23 21q-27 0 -68 -28l-32 47l41 44q-165 23 -165 190h66q0 -137 153 -137q64 0 93 17.5t29 58.5q0 13 -4 24.5t-9 20t-15.5 16t-18.5 12.5
t-24.5 11t-26 8.5t-29 8.5t-29.5 9q-83 25 -122.5 55.5t-39.5 89.5q0 58 46 93t127 35q54 0 93.5 -14t60.5 -38.5t30.5 -52t9.5 -58.5h-66q0 107 -128 107q-107 0 -107 -68q0 -37 23 -54.5t88 -38.5q9 -3 36.5 -11.5t38 -12t33.5 -13t33 -16t25.5 -18.5t22.5 -24.5t12.5 -29
t5.5 -36.5z" />
    <glyph glyph-name="Scaron" unicode="&#x160;" horiz-adv-x="669" 
d="M486 901l-151 -127l-151 127l40 40l111 -95l111 95zM623 175q0 -185 -265 -185q-173 0 -242.5 70t-69.5 202h66q0 -125 61 -170.5t185 -45.5q98 0 148.5 28.5t50.5 95.5q0 22 -6.5 40.5t-15 31.5t-27 26t-31 20.5t-39 16.5t-40 13.5t-45 13t-42.5 11.5q-47 14 -77.5 24.5
t-63 27.5t-50.5 36.5t-30 47.5t-12 64q0 172 244 172q74 0 129 -21.5t85 -57.5t44 -76.5t14 -84.5h-66q0 90 -58 137t-148 47q-178 0 -178 -112q0 -57 43.5 -87t143.5 -61q131 -40 167 -57q113 -52 124 -145q1 -10 1 -22z" />
    <glyph glyph-name="scaron" unicode="&#x161;" horiz-adv-x="489" 
d="M401 691l-151 -127l-151 127l40 40l111 -95l111 95zM453 127q0 -61 -43.5 -99t-144.5 -38q-219 0 -219 193h66q0 -137 153 -137q64 0 93 17.5t29 58.5q0 13 -4 24.5t-9 20t-15.5 16t-18.5 12.5t-24.5 11t-26 8.5t-29 8.5t-29.5 9q-83 25 -122.5 55.5t-39.5 89.5
q0 58 46 93t127 35q54 0 93.5 -14t60.5 -38.5t30.5 -52t9.5 -58.5h-66q0 107 -128 107q-107 0 -107 -68q0 -37 23 -54.5t88 -38.5q9 -3 36.5 -11.5t38 -12t33.5 -13t33 -16t25.5 -18.5t22.5 -24.5t12.5 -29t5.5 -36.5z" />
    <glyph glyph-name="uni0162" unicode="&#x162;" horiz-adv-x="653" 
d="M360 649v-649l-56 -56q30 14 61 14q26 0 43.5 -14t17.5 -41q0 -51 -46 -67t-149 -16v56q78 0 108.5 5t30.5 28q0 21 -23 21q-27 0 -68 -28l-32 47l47 51v649h-248v56h561v-56h-247z" />
    <glyph glyph-name="uni0163" unicode="&#x163;" horiz-adv-x="418" 
d="M372 0l-85 -5l-51 -51q30 14 61 14q26 0 43.5 -14t17.5 -41q0 -51 -46 -67t-149 -16v56q78 0 108.5 5t30.5 28q0 21 -23 21q-27 0 -68 -28l-32 47l39 42l-20 -1q-33 -2 -49 14.5t-16 50.5v384h-107v56h107v135l66 20v-155h153v-56h-153v-394l173 11v-56z" />
    <glyph glyph-name="Tcaron" unicode="&#x164;" horiz-adv-x="653" 
d="M478 901l-151 -127l-151 127l40 40l111 -95l111 95zM607 705v-56h-247v-649h-66v649h-248v56h561z" />
    <glyph glyph-name="tcaron" unicode="&#x165;" horiz-adv-x="418" 
d="M325 735v-180h-66v180h66zM199 45l173 11v-56l-174 -10q-33 -2 -49 14.5t-16 50.5v384h-107v56h107v135l66 20v-155h153v-56h-153v-394z" />
    <glyph glyph-name="Tbar" unicode="&#x166;" horiz-adv-x="653" 
d="M607 649h-247v-256h156v-56h-156v-337h-66v337h-156v56h156v256h-248v56h561v-56z" />
    <glyph glyph-name="tbar" unicode="&#x167;" horiz-adv-x="418" 
d="M199 45l173 11v-56l-174 -10q-33 -2 -49 14.5t-16 50.5v211h-87v56h87v117h-107v56h107v135l66 20v-155h153v-56h-153v-117h122v-56h-122v-221z" />
    <glyph glyph-name="Umacron" unicode="&#x16a;" horiz-adv-x="655" 
d="M177 886h301v-55l-301 -1v56zM56 262v443h66v-442q0 -111 48 -164t157 -53t157.5 53t48.5 164v442h66v-443q0 -272 -272 -272q-271 0 -271 272z" />
    <glyph glyph-name="umacron" unicode="&#x16b;" horiz-adv-x="580" 
d="M150 676h301v-55l-301 -1v56zM262 46q82 0 134 61.5t52 160.5v227h66v-495h-66v91l10 50h-20q-16 -70 -64.5 -110.5t-126.5 -40.5q-85 0 -133 48.5t-48 146.5v310h66v-302q0 -78 31.5 -112.5t98.5 -34.5z" />
    <glyph glyph-name="Uring" unicode="&#x16e;" horiz-adv-x="655" 
d="M326 770q-51 0 -80.5 31.5t-29.5 74.5q0 42 29.5 73.5t80.5 31.5t81 -31.5t30 -73.5t-30 -74t-81 -32zM326 826q55 0 55 50q0 22 -14.5 35.5t-40.5 13.5t-40 -13.5t-14 -35.5q0 -50 54 -50zM56 262v443h66v-442q0 -111 48 -164t157 -53t157.5 53t48.5 164v442h66v-443
q0 -272 -272 -272q-271 0 -271 272z" />
    <glyph glyph-name="uring" unicode="&#x16f;" horiz-adv-x="580" 
d="M299 560q-51 0 -80.5 31.5t-29.5 74.5q0 42 29.5 73.5t80.5 31.5t81 -31.5t30 -73.5t-30 -74t-81 -32zM299 616q55 0 55 50q0 22 -14.5 35.5t-40.5 13.5t-40 -13.5t-14 -35.5q0 -50 54 -50zM262 46q82 0 134 61.5t52 160.5v227h66v-495h-66v91l10 50h-20
q-16 -70 -64.5 -110.5t-126.5 -40.5q-85 0 -133 48.5t-48 146.5v310h66v-302q0 -78 31.5 -112.5t98.5 -34.5z" />
    <glyph glyph-name="Uhungarumlaut" unicode="&#x170;" horiz-adv-x="655" 
d="M208 813l131 132l39 -40l-131 -131zM356 813l131 132l39 -40l-131 -131zM56 262v443h66v-442q0 -111 48 -164t157 -53t157.5 53t48.5 164v442h66v-443q0 -272 -272 -272q-271 0 -271 272z" />
    <glyph glyph-name="uhungarumlaut" unicode="&#x171;" horiz-adv-x="580" 
d="M181 603l131 132l39 -40l-131 -131zM329 603l131 132l39 -40l-131 -131zM262 46q82 0 134 61.5t52 160.5v227h66v-495h-66v91l10 50h-20q-16 -70 -64.5 -110.5t-126.5 -40.5q-85 0 -133 48.5t-48 146.5v310h66v-302q0 -78 31.5 -112.5t98.5 -34.5z" />
    <glyph glyph-name="Uogonek" unicode="&#x172;" horiz-adv-x="655" 
d="M599 262q0 -220 -176 -262l-71 -134l196 20v-56l-200 -19q-35 -3 -50 20.5t1 52.5l56 107q-9 -1 -28 -1q-271 0 -271 272v443h66v-442q0 -111 48 -164t157 -53t157.5 53t48.5 164v442h66v-443z" />
    <glyph glyph-name="uogonek" unicode="&#x173;" horiz-adv-x="580" 
d="M443 -134l196 20v-56l-200 -19q-35 -3 -50 20.5t1 52.5l60 116h-2v91l10 50h-20q-16 -70 -64.5 -110.5t-126.5 -40.5q-85 0 -133 48.5t-48 146.5v310h66v-302q0 -78 31.5 -112.5t98.5 -34.5q82 0 134 61.5t52 160.5v227h66v-495h-1z" />
    <glyph glyph-name="Wcircumflex" unicode="&#x174;" horiz-adv-x="982" 
d="M642 814l-40 -40l-111 95l-111 -95l-40 40l151 127zM36 705h62l151 -685h20l155 685h134l155 -685h20l151 685h62l-156 -705h-134l-155 685h-20l-155 -685h-134z" />
    <glyph glyph-name="wcircumflex" unicode="&#x175;" horiz-adv-x="842" 
d="M572 604l-40 -40l-111 95l-111 -95l-40 40l151 127zM26 495h63l131 -475h20l113 475h136l113 -475h20l131 475h63l-137 -495h-134l-114 475h-20l-114 -475h-134z" />
    <glyph glyph-name="Ycircumflex" unicode="&#x176;" horiz-adv-x="646" 
d="M474 814l-40 -40l-111 95l-111 -95l-40 40l151 127zM539 705h71l-254 -435v-270h-66v270l-254 435h71l206 -354v-50h20v50z" />
    <glyph glyph-name="ycircumflex" unicode="&#x177;" horiz-adv-x="575" 
d="M293 659l-111 -95l-40 40l151 127l151 -127l-40 -40zM468 495h71l-213 -495v-135q0 -58 -65 -55l-181 10v56l180 -10v134l-214 495h71l166 -408v-30h20v30z" />
    <glyph glyph-name="Ydieresis" unicode="&#x178;" horiz-adv-x="646" 
d="M225 790q-28 0 -47.5 20t-19.5 48q0 27 19.5 47t47.5 20t48 -20t20 -47q0 -28 -20 -48t-48 -20zM420 790q-28 0 -47.5 20t-19.5 48q0 27 19.5 47t47.5 20t48 -20t20 -47q0 -28 -20 -48t-48 -20zM539 705h71l-254 -435v-270h-66v270l-254 435h71l206 -354v-50h20v50z" />
    <glyph glyph-name="Zacute" unicode="&#x179;" horiz-adv-x="649" 
d="M173 846l290 78l14 -54l-290 -78zM56 0v131l517 508v20l-50 -10h-467v56h537v-131l-517 -508v-20l50 10h467v-56h-537z" />
    <glyph glyph-name="zacute" unicode="&#x17a;" horiz-adv-x="559" 
d="M128 636l290 78l14 -54l-290 -78zM56 0v126l427 303v20l-50 -10h-377v56h447v-126l-427 -303v-20l50 10h377v-56h-447z" />
    <glyph glyph-name="Zdotaccent" unicode="&#x17b;" horiz-adv-x="649" 
d="M324 790q-28 0 -47.5 20t-19.5 48q0 27 19.5 47t47.5 20t48 -20t20 -47q0 -28 -20 -48t-48 -20zM56 0v131l517 508v20l-50 -10h-467v56h537v-131l-517 -508v-20l50 10h467v-56h-537z" />
    <glyph glyph-name="zdotaccent" unicode="&#x17c;" horiz-adv-x="559" 
d="M279 580q-28 0 -47.5 20t-19.5 48q0 27 19.5 47t47.5 20t48 -20t20 -47q0 -28 -20 -48t-48 -20zM56 0v126l427 303v20l-50 -10h-377v56h447v-126l-427 -303v-20l50 10h377v-56h-447z" />
    <glyph glyph-name="Zcaron" unicode="&#x17d;" horiz-adv-x="649" 
d="M476 901l-151 -127l-151 127l40 40l111 -95l111 95zM56 0v131l517 508v20l-50 -10h-467v56h537v-131l-517 -508v-20l50 10h467v-56h-537z" />
    <glyph glyph-name="zcaron" unicode="&#x17e;" horiz-adv-x="559" 
d="M431 691l-151 -127l-151 127l40 40l111 -95l111 95zM56 0v126l427 303v20l-50 -10h-377v56h447v-126l-427 -303v-20l50 10h377v-56h-447z" />
    <glyph glyph-name="uni0218" unicode="&#x218;" horiz-adv-x="669" 
d="M623 175q0 -185 -265 -185q-173 0 -242.5 70t-69.5 202h66q0 -125 61 -170.5t185 -45.5q98 0 148.5 28.5t50.5 95.5q0 22 -6.5 40.5t-15 31.5t-27 26t-31 20.5t-39 16.5t-40 13.5t-45 13t-42.5 11.5q-47 14 -77.5 24.5t-63 27.5t-50.5 36.5t-30 47.5t-12 64
q0 172 244 172q74 0 129 -21.5t85 -57.5t44 -76.5t14 -84.5h-66q0 90 -58 137t-148 47q-178 0 -178 -112q0 -57 43.5 -87t143.5 -61q131 -40 167 -57q113 -52 124 -145q1 -10 1 -22zM297 -49l64 -17l-51 -164l-64 17z" />
    <glyph glyph-name="uni0219" unicode="&#x219;" horiz-adv-x="489" 
d="M453 127q0 -61 -43.5 -99t-144.5 -38q-219 0 -219 193h66q0 -137 153 -137q64 0 93 17.5t29 58.5q0 13 -4 24.5t-9 20t-15.5 16t-18.5 12.5t-24.5 11t-26 8.5t-29 8.5t-29.5 9q-83 25 -122.5 55.5t-39.5 89.5q0 58 46 93t127 35q54 0 93.5 -14t60.5 -38.5t30.5 -52
t9.5 -58.5h-66q0 107 -128 107q-107 0 -107 -68q0 -37 23 -54.5t88 -38.5q9 -3 36.5 -11.5t38 -12t33.5 -13t33 -16t25.5 -18.5t22.5 -24.5t12.5 -29t5.5 -36.5zM212 -49l64 -17l-51 -164l-64 17z" />
    <glyph glyph-name="uni021A" unicode="&#x21a;" horiz-adv-x="653" 
d="M607 705v-56h-247v-649h-66v649h-248v56h561zM238 -213l51 164l64 -17l-51 -164z" />
    <glyph glyph-name="uni021B" unicode="&#x21b;" horiz-adv-x="418" 
d="M199 45l173 11v-56l-174 -10q-33 -2 -49 14.5t-16 50.5v384h-107v56h107v135l66 20v-155h153v-56h-153v-394zM170 -213l51 164l64 -17l-51 -164z" />
    <glyph glyph-name="circumflex" unicode="&#x2c6;" horiz-adv-x="474" 
d="M388 604l-40 -40l-111 95l-111 -95l-40 40l151 127z" />
    <glyph glyph-name="caron" unicode="&#x2c7;" horiz-adv-x="474" 
d="M388 691l-151 -127l-151 127l40 40l111 -95l111 95z" />
    <glyph glyph-name="breve" unicode="&#x2d8;" horiz-adv-x="474" 
d="M388 731q0 -76 -41.5 -121.5t-109.5 -45.5t-109.5 45.5t-41.5 121.5h56q0 -57 22 -84t73 -27t73 27t22 84h56z" />
    <glyph glyph-name="dotaccent" unicode="&#x2d9;" horiz-adv-x="307" 
d="M153 580q-28 0 -47.5 20t-19.5 48q0 27 19.5 47t47.5 20t48 -20t20 -47q0 -28 -20 -48t-48 -20z" />
    <glyph glyph-name="ring" unicode="&#x2da;" horiz-adv-x="363" 
d="M196 560q-51 0 -80.5 31.5t-29.5 74.5q0 42 29.5 73.5t80.5 31.5t81 -31.5t30 -73.5t-30 -74t-81 -32zM196 616q55 0 55 50q0 22 -14.5 35.5t-40.5 13.5t-40 -13.5t-14 -35.5q0 -50 54 -50z" />
    <glyph glyph-name="ogonek" unicode="&#x2db;" horiz-adv-x="429" 
d="M343 -114v-56l-200 -19q-35 -3 -50 20.5t1 52.5l61 117h63l-71 -135z" />
    <glyph glyph-name="tilde" unicode="&#x2dc;" horiz-adv-x="512" 
d="M86 590q0 126 93 126q28 0 51.5 -12.5t37 -27.5t30 -27.5t30.5 -12.5q20 0 31 14.5t11 55.5h56q0 -126 -93 -126q-28 0 -51.5 12.5t-37 27.5t-30 27.5t-30.5 12.5q-20 0 -31 -14.5t-11 -55.5h-56z" />
    <glyph glyph-name="hungarumlaut" unicode="&#x2dd;" horiz-adv-x="490" 
d="M86 603l131 132l39 -40l-131 -131zM234 603l131 132l39 -40l-131 -131z" />
    <glyph glyph-name="gravecomb" unicode="&#x300;" horiz-adv-x="0" 
d="M-86 636l-14 -54l-290 78l14 54z" />
    <glyph glyph-name="acutecomb" unicode="&#x301;" horiz-adv-x="0" 
d="M-390 636l290 78l14 -54l-290 -78z" />
    <glyph glyph-name="uni0302" unicode="&#x302;" horiz-adv-x="0" 
d="M-86 604l-40 -40l-111 95l-111 -95l-40 40l151 127z" />
    <glyph glyph-name="tildecomb" unicode="&#x303;" horiz-adv-x="0" 
d="M-426 590q0 126 93 126q28 0 51.5 -12.5t37 -27.5t30 -27.5t30.5 -12.5q20 0 31 14.5t11 55.5h56q0 -126 -93 -126q-28 0 -51.5 12.5t-37 27.5t-30 27.5t-30.5 12.5q-20 0 -31 -14.5t-11 -55.5h-56z" />
    <glyph glyph-name="uni0304" unicode="&#x304;" horiz-adv-x="0" 
d="M-387 676h301v-55l-301 -1v56z" />
    <glyph glyph-name="uni0306" unicode="&#x306;" horiz-adv-x="0" 
d="M-86 731q0 -76 -41.5 -121.5t-109.5 -45.5t-109.5 45.5t-41.5 121.5h56q0 -57 22 -84t73 -27t73 27t22 84h56z" />
    <glyph glyph-name="uni0307" unicode="&#x307;" horiz-adv-x="0" 
d="M-154 580q-28 0 -47.5 20t-19.5 48q0 27 19.5 47t47.5 20t48 -20t20 -47q0 -28 -20 -48t-48 -20z" />
    <glyph glyph-name="uni0308" unicode="&#x308;" horiz-adv-x="0" 
d="M-349 580q-28 0 -47.5 20t-19.5 48q0 27 19.5 47t47.5 20t48 -20t20 -47q0 -28 -20 -48t-48 -20zM-154 580q-28 0 -47.5 20t-19.5 48q0 27 19.5 47t47.5 20t48 -20t20 -47q0 -28 -20 -48t-48 -20z" />
    <glyph glyph-name="uni030A" unicode="&#x30a;" horiz-adv-x="0" 
d="M-197 560q-51 0 -80.5 31.5t-29.5 74.5q0 42 29.5 73.5t80.5 31.5t81 -31.5t30 -73.5t-30 -74t-81 -32zM-197 616q55 0 55 50q0 22 -14.5 35.5t-40.5 13.5t-40 -13.5t-14 -35.5q0 -50 54 -50z" />
    <glyph glyph-name="uni030B" unicode="&#x30b;" horiz-adv-x="0" 
d="M-404 603l131 132l39 -40l-131 -131zM-256 603l131 132l39 -40l-131 -131z" />
    <glyph glyph-name="uni030C" unicode="&#x30c;" horiz-adv-x="0" 
d="M-86 691l-151 -127l-151 127l40 40l111 -95l111 95z" />
    <glyph glyph-name="uni0312" unicode="&#x312;" horiz-adv-x="0" 
d="M-150 771l64 -17l-47 -174l-64 17z" />
    <glyph glyph-name="uni0326" unicode="&#x326;" horiz-adv-x="0" 
d="M-155 -49l64 -17l-51 -164l-64 17z" />
    <glyph glyph-name="uni0327" unicode="&#x327;" horiz-adv-x="0" 
d="M-147 -42q26 0 43.5 -14t17.5 -41q0 -51 -46 -67t-149 -16v56q78 0 108.5 5t30.5 28q0 21 -23 21q-27 0 -68 -28l-32 47l47 51h66l-56 -56q30 14 61 14z" />
    <glyph glyph-name="uni0328" unicode="&#x328;" horiz-adv-x="0" 
d="M-86 -114v-56l-200 -19q-35 -3 -50 20.5t1 52.5l61 117h63l-71 -135z" />
    <glyph glyph-name="uni0400" unicode="&#x400;" horiz-adv-x="555" 
d="M440 846l-14 -54l-290 78l14 54zM76 0v705h423v-56h-357v-268h307v-56h-307v-269h357v-56h-423z" />
    <glyph glyph-name="uni0401" unicode="&#x401;" horiz-adv-x="555" 
d="M190 790q-28 0 -47.5 20t-19.5 48q0 27 19.5 47t47.5 20t48 -20t20 -47q0 -28 -20 -48t-48 -20zM385 790q-28 0 -47.5 20t-19.5 48q0 27 19.5 47t47.5 20t48 -20t20 -47q0 -28 -20 -48t-48 -20zM76 0v705h423v-56h-357v-268h307v-56h-307v-269h357v-56h-423z" />
    <glyph glyph-name="uni0402" unicode="&#x402;" horiz-adv-x="795" 
d="M489 433q129 16 189.5 -39.5t60.5 -160.5q0 -68 -20 -115t-57 -72t-81 -35.5t-100 -10.5v56q110 0 151 44.5t41 132.5q0 89 -46 124.5t-141 21.5l-137 -20v-359h-66v649h-247v56h560v-56h-247v-234z" />
    <glyph glyph-name="uni0403" unicode="&#x403;" horiz-adv-x="532" 
d="M139 846l290 78l14 -54l-290 -78zM76 0v705h410v-56h-344v-649h-66z" />
    <glyph glyph-name="uni0404" unicode="&#x404;" horiz-adv-x="768" 
d="M389 46q108 0 171.5 59.5t75.5 167.5h66q-16 -132 -98.5 -207.5t-214.5 -75.5q-149 0 -236 102t-87 261q0 158 87 260t236 102q132 0 214.5 -75.5t98.5 -206.5h-66q-12 108 -75.5 167t-171.5 59q-119 0 -184.5 -76t-71.5 -202h305v-56h-305q6 -127 71.5 -203t184.5 -76z
" />
    <glyph glyph-name="uni0405" unicode="&#x405;" horiz-adv-x="669" 
d="M623 175q0 -185 -265 -185q-173 0 -242.5 70t-69.5 202h66q0 -125 61 -170.5t185 -45.5q98 0 148.5 28.5t50.5 95.5q0 22 -6.5 40.5t-15 31.5t-27 26t-31 20.5t-39 16.5t-40 13.5t-45 13t-42.5 11.5q-47 14 -77.5 24.5t-63 27.5t-50.5 36.5t-30 47.5t-12 64
q0 172 244 172q74 0 129 -21.5t85 -57.5t44 -76.5t14 -84.5h-66q0 90 -58 137t-148 47q-178 0 -178 -112q0 -57 43.5 -87t143.5 -61q131 -40 167 -57q113 -52 124 -145q1 -10 1 -22z" />
    <glyph glyph-name="uni0406" unicode="&#x406;" horiz-adv-x="512" 
d="M446 649h-157v-593h157v-56h-380v56h157v593h-157v56h380v-56z" />
    <glyph glyph-name="uni0407" unicode="&#x407;" horiz-adv-x="512" 
d="M158 790q-28 0 -47.5 20t-19.5 48q0 27 19.5 47t47.5 20t48 -20t20 -47q0 -28 -20 -48t-48 -20zM353 790q-28 0 -47.5 20t-19.5 48q0 27 19.5 47t47.5 20t48 -20t20 -47q0 -28 -20 -48t-48 -20zM446 649h-157v-593h157v-56h-380v56h157v593h-157v56h380v-56z" />
    <glyph glyph-name="uni0408" unicode="&#x408;" horiz-adv-x="460" 
d="M195 -10l-159 10v56l159 -10q84 -5 108.5 52t24.5 226v335l-179 -10v56l190 10q26 1 40.5 -13.5t14.5 -41.5v-336q0 -50 -1 -83.5t-5.5 -73t-13 -64.5t-23 -50t-35.5 -38t-51.5 -20.5t-69.5 -4.5z" />
    <glyph glyph-name="uni0409" unicode="&#x409;" horiz-adv-x="1068" 
d="M745 435q134 0 200.5 -49t66.5 -169t-66.5 -168.5t-200.5 -48.5h-206v649h-282q0 -67 -1 -113t-3.5 -107t-6.5 -102t-12 -89.5t-19.5 -80.5t-28 -64.5t-38 -51t-50 -30t-62.5 -11.5v56q38 0 65.5 21.5t44 72.5t26 97t13.5 134.5t5 143t1 162.5v18h414v-270h140zM745 56
q104 0 152.5 32.5t48.5 128.5t-49 129t-152 33h-140v-323h140z" />
    <glyph glyph-name="uni040A" unicode="&#x40a;" horiz-adv-x="1099" 
d="M776 435q134 0 200.5 -49t66.5 -169t-66.5 -168.5t-200.5 -48.5h-206v321h-428v-321h-66v705h66v-328h428v328h66v-270h140zM776 56q104 0 152.5 32.5t48.5 128.5t-49 129t-152 33h-140v-323h140z" />
    <glyph glyph-name="uni040B" unicode="&#x40b;" horiz-adv-x="815" 
d="M674 455q65 3 65 -65v-390h-66v399l-404 -20v-379h-66v649h-167v56h560v-56h-327v-214z" />
    <glyph glyph-name="uni040C" unicode="&#x40c;" horiz-adv-x="611" 
d="M458 870l-290 -78l-14 54l290 78zM454 649l-214 -280q0 -1 -1 -1l336 -368h-81l-306 334q-4 -1 -14 -1h-32v-333h-66v705h66v-313h40l211 277q27 36 66 36h116v-56h-121z" />
    <glyph glyph-name="uni040D" unicode="&#x40d;" horiz-adv-x="742" 
d="M507 846l-14 -54l-290 78l14 54zM666 0h-66v635l10 50h-20l-379 -685h-135v705h66v-635l-10 -50h20l379 685h135v-705z" />
    <glyph glyph-name="uni040F" unicode="&#x40f;" horiz-adv-x="672" 
d="M530 705h66v-705h-227v-130h-66v130h-227v705h66v-649h388v649z" />
    <glyph glyph-name="uni0410" unicode="&#x410;" horiz-adv-x="672" 
d="M571 0l-94 286h-282l-94 -286h-65l232 705h136l232 -705h-65zM213 342h246l-113 343h-20z" />
    <glyph glyph-name="uni0411" unicode="&#x411;" horiz-adv-x="615" 
d="M282 435q134 0 200.5 -49t66.5 -169t-66.5 -168.5t-200.5 -48.5h-206v705h401v-56h-335v-214h140zM282 56q104 0 152.5 32.5t48.5 128.5t-49 129t-152 33h-140v-323h140z" />
    <glyph glyph-name="uni0412" unicode="&#x412;" horiz-adv-x="635" 
d="M76 0v705h174q136 0 201.5 -37t65.5 -136q0 -69 -38.5 -108t-96.5 -43v-20q86 -2 136.5 -44.5t50.5 -129.5q0 -100 -67.5 -143.5t-199.5 -43.5h-226zM142 395h108q103 0 152 26t49 101q0 35 -9.5 58.5t-24.5 37t-43 20.5t-54.5 9t-69.5 2h-108v-254zM142 56h160
q103 0 152 29.5t49 111.5q0 77 -51 109.5t-150 32.5h-160v-283z" />
    <glyph glyph-name="uni0413" unicode="&#x413;" horiz-adv-x="532" 
d="M76 0v705h410v-56h-344v-649h-66z" />
    <glyph glyph-name="uni0414" unicode="&#x414;" horiz-adv-x="712" 
d="M610 56h66v-186h-66v130h-508v-130h-66v186h66q47 130 65.5 276t18.5 373h424v-649zM168 56h376v593h-292q-2 -201 -21 -336t-63 -257z" />
    <glyph glyph-name="uni0415" unicode="&#x415;" horiz-adv-x="555" 
d="M76 0v705h423v-56h-357v-268h307v-56h-307v-269h357v-56h-423z" />
    <glyph glyph-name="uni0416" unicode="&#x416;" horiz-adv-x="1004" 
d="M847 649l-214 -280q0 -1 -1 -1l336 -368h-81l-306 334q-4 -1 -14 -1h-32v-333h-66v333h-32q-10 0 -14 1l-306 -334h-81l336 368l-1 1l-214 280h-121v56h116q39 0 66 -36l211 -277h40v313h66v-313h40l211 277q27 36 66 36h116v-56h-121z" />
    <glyph glyph-name="uni0417" unicode="&#x417;" horiz-adv-x="670" 
d="M66 269h66q0 -119 52.5 -171t163.5 -52q190 0 190 160q0 139 -144 139h-98v56h98q134 0 134 118q0 140 -180 140q-107 0 -156.5 -45.5t-49.5 -137.5h-66q0 115 69 177t203 62q121 0 183.5 -51.5t62.5 -134.5q0 -126 -130 -146v-20q71 -15 105.5 -53.5t34.5 -113.5
q0 -95 -66 -150.5t-190 -55.5q-282 0 -282 279z" />
    <glyph glyph-name="uni0418" unicode="&#x418;" horiz-adv-x="742" 
d="M666 0h-66v635l10 50h-20l-379 -685h-135v705h66v-635l-10 -50h20l379 685h135v-705z" />
    <glyph glyph-name="uni0419" unicode="&#x419;" horiz-adv-x="742" 
d="M506 941q0 -76 -41.5 -121.5t-109.5 -45.5t-109.5 45.5t-41.5 121.5h56q0 -57 22 -84t73 -27t73 27t22 84h56zM666 0h-66v635l10 50h-20l-379 -685h-135v705h66v-635l-10 -50h20l379 685h135v-705z" />
    <glyph glyph-name="uni041A" unicode="&#x41a;" horiz-adv-x="611" 
d="M454 649l-214 -280q0 -1 -1 -1l336 -368h-81l-306 334q-4 -1 -14 -1h-32v-333h-66v705h66v-313h40l211 277q27 36 66 36h116v-56h-121z" />
    <glyph glyph-name="uni041B" unicode="&#x41b;" horiz-adv-x="681" 
d="M605 705v-705h-66v649h-282q0 -67 -1 -113t-3.5 -107t-6.5 -102t-12 -89.5t-19.5 -80.5t-28 -64.5t-38 -51t-50 -30t-62.5 -11.5v56q38 0 65.5 21.5t44 72.5t26 97t13.5 134.5t5 143t1 162.5v18h414z" />
    <glyph glyph-name="uni041C" unicode="&#x41c;" horiz-adv-x="880" 
d="M76 0v705h134l220 -685h20l220 685h134v-705h-66v635l10 50h-20l-220 -685h-136l-220 685h-20l10 -50v-635h-66z" />
    <glyph glyph-name="uni041D" unicode="&#x41d;" horiz-adv-x="712" 
d="M570 705h66v-705h-66v321h-428v-321h-66v705h66v-328h428v328z" />
    <glyph glyph-name="uni041E" unicode="&#x41e;" horiz-adv-x="777" 
d="M66 353q0 158 87 260t236 102t235.5 -102t86.5 -260q0 -159 -86.5 -261t-235.5 -102t-236 102t-87 261zM132 353q0 -138 66 -222.5t191 -84.5t190.5 84.5t65.5 222.5q0 137 -65.5 221.5t-190.5 84.5t-191 -84.5t-66 -221.5z" />
    <glyph glyph-name="uni041F" unicode="&#x41f;" horiz-adv-x="672" 
d="M596 705v-705h-66v649h-388v-649h-66v705h520z" />
    <glyph glyph-name="uni0420" unicode="&#x420;" horiz-adv-x="605" 
d="M262 705q143 0 215 -50t72 -177t-72 -177.5t-215 -50.5h-120v-250h-66v705h186zM262 306q52 0 88 6.5t68.5 24t48.5 52.5t16 89q0 101 -56.5 136t-164.5 35h-120v-343h120z" />
    <glyph glyph-name="uni0421" unicode="&#x421;" horiz-adv-x="768" 
d="M66 353q0 158 87 260t236 102q132 0 214.5 -75.5t98.5 -206.5h-66q-12 108 -75.5 167t-171.5 59q-125 0 -191 -84.5t-66 -221.5q0 -138 66 -222.5t191 -84.5q108 0 171.5 59.5t75.5 167.5h66q-16 -132 -98.5 -207.5t-214.5 -75.5q-149 0 -236 102t-87 261z" />
    <glyph glyph-name="uni0422" unicode="&#x422;" horiz-adv-x="653" 
d="M607 705v-56h-247v-649h-66v649h-248v56h561z" />
    <glyph glyph-name="uni0423" unicode="&#x423;" horiz-adv-x="635" 
d="M530 705h69l-243 -495v-165q0 -58 -65 -55l-211 10v56l210 -10v164l-244 495h69l198 -408v-30h20v30z" />
    <glyph glyph-name="uni0424" unicode="&#x424;" horiz-adv-x="807" 
d="M761 351q0 -108 -79.5 -179.5t-244.5 -77.5v-94h-66v94q-166 6 -245.5 77.5t-79.5 179.5q0 107 79.5 178.5t245.5 77.5v98h66v-98q165 -6 244.5 -77.5t79.5 -178.5zM112 351q0 -189 259 -201v401q-259 -12 -259 -200zM437 150q258 12 258 201q0 188 -258 200v-401z" />
    <glyph glyph-name="uni0425" unicode="&#x425;" horiz-adv-x="666" 
d="M36 0l246 339v28l-246 338h75l222 -310l222 310h75l-246 -338v-28l246 -339h-75l-222 311l-222 -311h-75z" />
    <glyph glyph-name="uni0426" unicode="&#x426;" horiz-adv-x="768" 
d="M667 56q55 0 55 -55v-131h-66v130h-580v705h66v-649h388v649h66v-649h71z" />
    <glyph glyph-name="uni0427" unicode="&#x427;" horiz-adv-x="688" 
d="M546 705h66v-705h-66v270l-405 -20q-65 -3 -65 65v390h66v-399l404 20v379z" />
    <glyph glyph-name="uni0428" unicode="&#x428;" horiz-adv-x="936" 
d="M794 705h66v-705h-784v705h66v-649h293v649h66v-649h293v649z" />
    <glyph glyph-name="uni0429" unicode="&#x429;" horiz-adv-x="1032" 
d="M931 56q55 0 55 -55v-131h-66v130h-844v705h66v-649h293v649h66v-649h293v649h66v-649h71z" />
    <glyph glyph-name="uni042A" unicode="&#x42a;" horiz-adv-x="705" 
d="M382 435q134 0 200.5 -49t66.5 -169t-66.5 -168.5t-200.5 -48.5h-206v649h-140v56h206v-270h140zM382 56q104 0 152.5 32.5t48.5 128.5t-49 129t-152 33h-140v-323h140z" />
    <glyph glyph-name="uni042B" unicode="&#x42b;" horiz-adv-x="791" 
d="M142 705v-270h140q134 0 200.5 -49t66.5 -169t-66.5 -168.5t-200.5 -48.5h-206v705h66zM649 705h66v-705h-66v705zM142 56h140q104 0 152.5 32.5t48.5 128.5t-49 129t-152 33h-140v-323z" />
    <glyph glyph-name="uni042C" unicode="&#x42c;" horiz-adv-x="605" 
d="M142 705v-270h140q134 0 200.5 -49t66.5 -169t-66.5 -168.5t-200.5 -48.5h-206v705h66zM142 56h140q104 0 152.5 32.5t48.5 128.5t-49 129t-152 33h-140v-323z" />
    <glyph glyph-name="uni042D" unicode="&#x42d;" horiz-adv-x="768" 
d="M379 715q149 0 236 -102t87 -260q0 -159 -87 -261t-236 -102q-132 0 -214.5 75.5t-98.5 207.5h66q12 -108 75.5 -167.5t171.5 -59.5q119 0 184.5 76t71.5 203h-305v56h305q-6 126 -71.5 202t-184.5 76q-108 0 -171.5 -59t-75.5 -167h-66q16 131 98.5 206.5t214.5 75.5z
" />
    <glyph glyph-name="uni042E" unicode="&#x42e;" horiz-adv-x="914" 
d="M556 715q140 0 216 -101t76 -261q0 -161 -76 -262t-216 -101q-134 0 -210 92.5t-82 242.5h-122v-325h-66v705h66v-324h122q6 149 82 241.5t210 92.5zM556 46q114 0 170 85t56 222t-56 221.5t-170 84.5t-170.5 -84.5t-56.5 -221.5t56.5 -222t170.5 -85z" />
    <glyph glyph-name="uni042F" unicode="&#x42f;" horiz-adv-x="625" 
d="M549 705v-705h-66v330h-140h-28l-100 -294q-13 -36 -66 -36h-113v56h121l94 279q-87 12 -131 54.5t-44 128.5q0 105 66 146t201 41h206zM483 386v263h-140q-106 0 -153.5 -25t-47.5 -106q0 -82 47.5 -107t153.5 -25h140z" />
    <glyph glyph-name="uni0430" unicode="&#x430;" horiz-adv-x="582" 
d="M56 138q0 60 38 97.5t117 44.5l206 19q-9 150 -148 150q-63 0 -105 -32.5t-42 -104.5h-66q0 79 56.5 136t156.5 57q101 0 157.5 -62.5t56.5 -160.5v-226h73v-56h-84q-55 0 -55 55v30l10 50h-20q-16 -63 -62 -104t-127 -41q-50 0 -84.5 15t-50 40t-21.5 47t-6 46zM122 144
q0 -47 27 -72.5t75 -25.5q87 0 140 56t53 141l-196 -19q-51 -5 -75 -23t-24 -57z" />
    <glyph glyph-name="uni0431" unicode="&#x431;" horiz-adv-x="631" 
d="M66 327q0 143 62 216.5t200 112.5q85 24 109.5 37.5t31.5 41.5h82q-11 -56 -51.5 -78.5t-141.5 -48.5q-20 -5 -30 -8q-102 -27 -150.5 -75.5t-55.5 -137.5l-20 -50h20q17 74 77.5 121t143.5 47q113 0 172.5 -68.5t59.5 -182.5q0 -119 -65.5 -191.5t-188.5 -72.5
q-124 0 -189.5 85t-65.5 252zM132 242q0 -80 48.5 -138t140.5 -58q95 0 141.5 54t46.5 154q0 195 -166 195q-96 0 -153.5 -56t-57.5 -151z" />
    <glyph glyph-name="uni0432" unicode="&#x432;" horiz-adv-x="524" 
d="M76 0v495h168q97 0 147 -26t50 -93q0 -54 -28 -78t-66 -27v-20q131 -2 131 -120q0 -131 -197 -131h-205zM142 286h102q74 0 102.5 14t28.5 67q0 44 -30 58t-101 14h-102v-153zM142 56h139q71 0 101 15.5t30 66.5q0 54 -30.5 73t-100.5 19h-139v-174z" />
    <glyph glyph-name="uni0433" unicode="&#x433;" horiz-adv-x="432" 
d="M76 0v495h330v-56h-264v-439h-66z" />
    <glyph glyph-name="uni0434" unicode="&#x434;" horiz-adv-x="652" 
d="M586 56v-186h-66v130h-398v-130h-66v186h66q40 86 57 188t17 251h324v-439h66zM188 56h266v383h-193q-4 -236 -73 -383z" />
    <glyph glyph-name="uni0435" unicode="&#x435;" horiz-adv-x="589" 
d="M56 254q0 118 65 184.5t170 66.5q104 0 164.5 -63.5t60.5 -177.5v-28h-394q5 -85 47.5 -137.5t132.5 -52.5q134 0 165 127h66q-9 -33 -23.5 -62t-40.5 -58t-69 -46t-98 -17q-124 0 -185 74t-61 190zM122 292h328q0 68 -42.5 112.5t-116.5 44.5t-121.5 -45t-47.5 -112z
" />
    <glyph glyph-name="uni0436" unicode="&#x436;" horiz-adv-x="772" 
d="M655 439l-138 -185l-1 -1l220 -253h-80l-191 219q-4 -1 -14 -1h-32v-218h-66v218h-32q-10 0 -14 1l-191 -219h-80l220 253l-1 1l-138 185h-81v56h76q39 0 66 -36l135 -182h40v218h66v-218h40l135 182q27 36 66 36h76v-56h-81z" />
    <glyph glyph-name="uni0437" unicode="&#x437;" horiz-adv-x="524" 
d="M66 194h66q0 -82 31 -115t108 -33q68 0 94.5 24.5t26.5 76.5q0 88 -92 88h-70v57h70q46 0 64 19t18 59q0 38 -24.5 58.5t-90.5 20.5q-73 0 -99 -25.5t-26 -81.5h-66q0 78 48 120.5t143 42.5q87 0 134 -36t47 -92q0 -88 -99 -103v-20q109 -17 109 -114q0 -70 -49 -110
t-138 -40q-205 0 -205 204z" />
    <glyph glyph-name="uni0438" unicode="&#x438;" horiz-adv-x="586" 
d="M530 0h-66v435l10 40h-20l-243 -475h-135v495h66v-435l-10 -40h20l243 475h135v-495z" />
    <glyph glyph-name="uni0439" unicode="&#x439;" horiz-adv-x="586" 
d="M454 731q0 -76 -41.5 -121.5t-109.5 -45.5t-109.5 45.5t-41.5 121.5h56q0 -57 22 -84t73 -27t73 27t22 84h56zM530 0h-66v435l10 40h-20l-243 -475h-135v495h66v-435l-10 -40h20l243 475h135v-495z" />
    <glyph glyph-name="uni043A" unicode="&#x43a;" horiz-adv-x="505" 
d="M469 0h-80l-192 221q-11 -3 -23 -3h-32v-218h-66v495h66v-218h40l135 182q27 36 66 36h76v-56h-81l-134 -180z" />
    <glyph glyph-name="uni043B" unicode="&#x43b;" horiz-adv-x="571" 
d="M495 495v-495h-66v439h-212q0 -82 -1.5 -131.5t-7 -106t-16 -88.5t-28 -60.5t-44.5 -40.5t-64 -12v56q65 0 80 89t15 326v24h344z" />
    <glyph glyph-name="uni043C" unicode="&#x43c;" horiz-adv-x="703" 
d="M76 0v495h133l132 -475h20l132 475h134v-495h-66v435l10 40h-20l-133 -475h-134l-132 475h-20l10 -40v-435h-66z" />
    <glyph glyph-name="uni043D" unicode="&#x43d;" horiz-adv-x="572" 
d="M430 495h66v-495h-66v220h-288v-220h-66v495h66v-219h288v219z" />
    <glyph glyph-name="uni043E" unicode="&#x43e;" horiz-adv-x="627" 
d="M56 248q0 107 71 182t187 75q115 0 186 -75t71 -182q0 -108 -71 -183t-186 -75q-116 0 -187 75t-71 183zM122 248q0 -86 50.5 -144t141.5 -58q90 0 140.5 58.5t50.5 143.5t-50.5 143t-140.5 58t-141 -58t-51 -143z" />
    <glyph glyph-name="uni043F" unicode="&#x43f;" horiz-adv-x="542" 
d="M466 495v-495h-66v439h-258v-439h-66v495h390z" />
    <glyph glyph-name="uni0440" unicode="&#x440;" horiz-adv-x="650" 
d="M76 495h66v-81l-10 -50h20q16 63 68.5 102t132.5 39q107 0 174 -72.5t67 -185.5q0 -112 -67 -184.5t-174 -72.5q-80 0 -132.5 39t-68.5 102h-20l10 -50v-261h-66v675zM142 247q0 -100 56 -150.5t142 -50.5q84 0 136 50.5t52 150.5t-52 151t-136 51q-86 0 -142 -50.5
t-56 -151.5z" />
    <glyph glyph-name="uni0441" unicode="&#x441;" horiz-adv-x="585" 
d="M56 248q0 109 66.5 183t182.5 74q79 0 146.5 -48t77.5 -146h-67q-21 138 -157 138q-90 0 -136.5 -57.5t-46.5 -143.5q0 -87 46.5 -144.5t136.5 -57.5q136 0 157 138h67q-10 -98 -77.5 -146t-146.5 -48q-116 0 -182.5 74.5t-66.5 183.5z" />
    <glyph glyph-name="uni0442" unicode="&#x442;" horiz-adv-x="532" 
d="M486 495v-56h-187v-439h-66v439h-187v56h440z" />
    <glyph glyph-name="uni0443" unicode="&#x443;" horiz-adv-x="575" 
d="M468 495h71l-213 -495v-135q0 -58 -65 -55l-181 10v56l180 -10v134l-214 495h71l166 -408v-30h20v30z" />
    <glyph glyph-name="uni0444" unicode="&#x444;" horiz-adv-x="727" 
d="M671 248q0 -104 -70.5 -176t-203.5 -81v-171h-66v171q-133 9 -204 81t-71 176t70.5 175.5t204.5 80.5v171h66v-171q133 -9 203.5 -81t70.5 -175zM122 248q0 -82 51 -137.5t158 -63.5v401q-107 -8 -158 -63t-51 -137zM397 47q106 8 157 63.5t51 137.5q0 81 -51 136.5
t-157 63.5v-401z" />
    <glyph glyph-name="uni0445" unicode="&#x445;" horiz-adv-x="564" 
d="M46 0l186 238v20l-186 237h78l158 -207l158 207h78l-186 -237v-20l186 -238h-78l-158 208l-158 -208h-78z" />
    <glyph glyph-name="uni0446" unicode="&#x446;" horiz-adv-x="628" 
d="M537 56q55 0 55 -55v-131h-66v130h-450v495h66v-439h258v439h66v-439h71z" />
    <glyph glyph-name="uni0447" unicode="&#x447;" horiz-adv-x="598" 
d="M456 495h66v-495h-66v180l-315 -20q-33 -2 -49 14.5t-16 50.5v270h66v-279l314 20v259z" />
    <glyph glyph-name="uni0448" unicode="&#x448;" horiz-adv-x="756" 
d="M614 495h66v-495h-604v495h66v-439h203v439h66v-439h203v439z" />
    <glyph glyph-name="uni0449" unicode="&#x449;" horiz-adv-x="842" 
d="M751 56q55 0 55 -55v-131h-66v130h-664v495h66v-439h203v439h66v-439h203v439h66v-439h71z" />
    <glyph glyph-name="uni044A" unicode="&#x44a;" horiz-adv-x="596" 
d="M333 346q207 0 207 -173t-207 -173h-175v439h-122v56h188v-149h109zM323 56q37 0 61 3.5t46.5 15t33 36t10.5 62.5t-10.5 62.5t-33 36t-46.5 15t-61 3.5h-99v-234h99z" />
    <glyph glyph-name="uni044B" unicode="&#x44b;" horiz-adv-x="668" 
d="M251 346q207 0 207 -173t-207 -173h-175v495h66v-149h109zM526 0v495h66v-495h-66zM142 56h99q37 0 61 3.5t46.5 15t33 36t10.5 62.5t-10.5 62.5t-33 36t-46.5 15t-61 3.5h-99v-234z" />
    <glyph glyph-name="uni044C" unicode="&#x44c;" horiz-adv-x="514" 
d="M251 346q207 0 207 -173t-207 -173h-175v495h66v-149h109zM142 56h99q37 0 61 3.5t46.5 15t33 36t10.5 62.5t-10.5 62.5t-33 36t-46.5 15t-61 3.5h-99v-234z" />
    <glyph glyph-name="uni044D" unicode="&#x44d;" horiz-adv-x="585" 
d="M280 505q116 0 182.5 -74t66.5 -183t-66.5 -183.5t-182.5 -74.5q-79 0 -146.5 48t-77.5 146h67q21 -138 157 -138q82 0 128 48.5t54 125.5h-230v56h230q-8 76 -54 124.5t-128 48.5q-136 0 -157 -138h-67q10 98 77.5 146t146.5 48z" />
    <glyph glyph-name="uni044E" unicode="&#x44e;" horiz-adv-x="797" 
d="M504 505q113 0 175 -73.5t62 -183.5t-62 -184t-175 -74q-106 0 -167.5 64.5t-69.5 165.5h-125v-220h-66v495h66v-219h125q8 100 69.5 164.5t167.5 64.5zM504 46q88 0 129.5 56.5t41.5 145.5q0 88 -41.5 144.5t-129.5 56.5q-89 0 -130.5 -56.5t-41.5 -144.5
q0 -89 41.5 -145.5t130.5 -56.5z" />
    <glyph glyph-name="uni044F" unicode="&#x44f;" horiz-adv-x="474" 
d="M398 495v-495h-66v220h-66l-101 -184q-20 -36 -66 -36h-73v56h81l93 168q-134 18 -134 134q0 72 49 104.5t148 32.5h135zM332 276v163h-69q-68 0 -99.5 -17.5t-31.5 -63.5q0 -47 31.5 -64.5t99.5 -17.5h69z" />
    <glyph glyph-name="uni0450" unicode="&#x450;" horiz-adv-x="589" 
d="M447 636l-14 -54l-290 78l14 54zM56 254q0 118 65 184.5t170 66.5q104 0 164.5 -63.5t60.5 -177.5v-28h-394q5 -85 47.5 -137.5t132.5 -52.5q134 0 165 127h66q-9 -33 -23.5 -62t-40.5 -58t-69 -46t-98 -17q-124 0 -185 74t-61 190zM122 292h328q0 68 -42.5 112.5
t-116.5 44.5t-121.5 -45t-47.5 -112z" />
    <glyph glyph-name="uni0451" unicode="&#x451;" horiz-adv-x="589" 
d="M197 580q-28 0 -47.5 20t-19.5 48q0 27 19.5 47t47.5 20t48 -20t20 -47q0 -28 -20 -48t-48 -20zM392 580q-28 0 -47.5 20t-19.5 48q0 27 19.5 47t47.5 20t48 -20t20 -47q0 -28 -20 -48t-48 -20zM56 254q0 118 65 184.5t170 66.5q104 0 164.5 -63.5t60.5 -177.5v-28h-394
q5 -85 47.5 -137.5t132.5 -52.5q134 0 165 127h66q-9 -33 -23.5 -62t-40.5 -58t-69 -46t-98 -17q-124 0 -185 74t-61 190zM122 292h328q0 68 -42.5 112.5t-116.5 44.5t-121.5 -45t-47.5 -112z" />
    <glyph glyph-name="uni0452" unicode="&#x452;" horiz-adv-x="620" 
d="M373 505q85 0 133 -48.5t48 -146.5v-445q0 -58 -65 -55l-181 10v56l180 -10v436q0 78 -31.5 112.5t-98.5 34.5q-82 0 -134 -61.5t-52 -160.5v-227h-66v619h-50v56h50v60h66v-60h149v-56h-149v-215l-10 -50h20q16 70 64.5 110.5t126.5 40.5z" />
    <glyph glyph-name="uni0453" unicode="&#x453;" horiz-adv-x="432" 
d="M79 636l290 78l14 -54l-290 -78zM76 0v495h330v-56h-264v-439h-66z" />
    <glyph glyph-name="uni0454" unicode="&#x454;" horiz-adv-x="585" 
d="M305 46q136 0 157 138h67q-10 -98 -77.5 -146t-146.5 -48q-116 0 -182.5 74.5t-66.5 183.5t66.5 183t182.5 74q79 0 146.5 -48t77.5 -146h-67q-21 138 -157 138q-82 0 -128 -48.5t-54 -124.5h230v-56h-230q8 -77 54 -125.5t128 -48.5z" />
    <glyph glyph-name="uni0455" unicode="&#x455;" horiz-adv-x="489" 
d="M453 127q0 -61 -43.5 -99t-144.5 -38q-219 0 -219 193h66q0 -137 153 -137q64 0 93 17.5t29 58.5q0 13 -4 24.5t-9 20t-15.5 16t-18.5 12.5t-24.5 11t-26 8.5t-29 8.5t-29.5 9q-83 25 -122.5 55.5t-39.5 89.5q0 58 46 93t127 35q54 0 93.5 -14t60.5 -38.5t30.5 -52
t9.5 -58.5h-66q0 107 -128 107q-107 0 -107 -68q0 -37 23 -54.5t88 -38.5q9 -3 36.5 -11.5t38 -12t33.5 -13t33 -16t25.5 -18.5t22.5 -24.5t12.5 -29t5.5 -36.5z" />
    <glyph glyph-name="uni0456" unicode="&#x456;" horiz-adv-x="432" 
d="M213 580q-28 0 -47.5 20t-19.5 48q0 27 19.5 47t47.5 20t48 -20t20 -47q0 -28 -20 -48t-48 -20zM56 0v56h139v393l-99 -10v56l100 10q61 5 61 -55v-394h139v-56h-340z" />
    <glyph glyph-name="uni0457" unicode="&#x457;" horiz-adv-x="432" 
d="M92 580q-28 0 -47.5 20t-19.5 48q0 27 19.5 47t47.5 20t48 -20t20 -47q0 -28 -20 -48t-48 -20zM287 580q-28 0 -47.5 20t-19.5 48q0 27 19.5 47t47.5 20t48 -20t20 -47q0 -28 -20 -48t-48 -20zM56 0v56h141v393l-101 -10v56l98 10q33 4 47 -13t14 -52v-384h141v-56h-340z
" />
    <glyph glyph-name="uni0458" unicode="&#x458;" horiz-adv-x="273" 
d="M147 580q-28 0 -47.5 20t-19.5 48q0 27 19.5 47t47.5 20t48 -20t20 -47q0 -28 -20 -48t-48 -20zM26 -180l86 154q17 30 17 68v407l-103 -10v56l104 10q32 3 48.5 -12t16.5 -43v-420q0 -38 -17 -68l-81 -142h-71z" />
    <glyph glyph-name="uni0459" unicode="&#x459;" horiz-adv-x="867" 
d="M604 346q207 0 207 -173t-207 -173h-175v439h-212q0 -82 -1.5 -131.5t-7 -106t-16 -88.5t-28 -60.5t-44.5 -40.5t-64 -12v56q65 0 80 89t15 326v24h344v-149h109zM594 56q37 0 61 3.5t46.5 15t33 36t10.5 62.5t-10.5 62.5t-33 36t-46.5 15t-61 3.5h-99v-234h99z" />
    <glyph glyph-name="uni045A" unicode="&#x45a;" horiz-adv-x="868" 
d="M605 346q207 0 207 -173t-207 -173h-175v220h-288v-220h-66v495h66v-219h288v219h66v-149h109zM595 56q37 0 61 3.5t46.5 15t33 36t10.5 62.5t-10.5 62.5t-33 36t-46.5 15t-61 3.5h-99v-234h99z" />
    <glyph glyph-name="uni045B" unicode="&#x45b;" horiz-adv-x="620" 
d="M373 505q85 0 133 -48.5t48 -146.5v-310h-66v302q0 78 -31.5 112.5t-98.5 34.5q-82 0 -134 -61.5t-52 -160.5v-227h-66v619h-50v56h50v60h66v-60h149v-56h-149v-215l-10 -50h20q16 70 64.5 110.5t126.5 40.5z" />
    <glyph glyph-name="uni045C" unicode="&#x45c;" horiz-adv-x="505" 
d="M400 660l-290 -78l-14 54l290 78zM469 0h-80l-192 221q-11 -3 -23 -3h-32v-218h-66v495h66v-218h40l135 182q27 36 66 36h76v-56h-81l-134 -180z" />
    <glyph glyph-name="uni045F" unicode="&#x45f;" horiz-adv-x="572" 
d="M430 495h66v-495h-177v-130h-66v130h-177v495h66v-439h288v439z" />
    <glyph glyph-name="uni0490" unicode="&#x490;" horiz-adv-x="512" 
d="M420 795h66v-146h-344v-649h-66v705h344v90z" />
    <glyph glyph-name="uni0491" unicode="&#x491;" horiz-adv-x="432" 
d="M340 634h66v-195h-264v-439h-66v495h264v139z" />
    <glyph glyph-name="Wgrave" unicode="&#x1e80;" horiz-adv-x="982" 
d="M643 846l-14 -54l-290 78l14 54zM36 705h62l151 -685h20l155 685h134l155 -685h20l151 685h62l-156 -705h-134l-155 685h-20l-155 -685h-134z" />
    <glyph glyph-name="wgrave" unicode="&#x1e81;" horiz-adv-x="842" 
d="M573 636l-14 -54l-290 78l14 54zM26 495h63l131 -475h20l113 475h136l113 -475h20l131 475h63l-137 -495h-134l-114 475h-20l-114 -475h-134z" />
    <glyph glyph-name="Wacute" unicode="&#x1e82;" horiz-adv-x="982" 
d="M339 846l290 78l14 -54l-290 -78zM36 705h62l151 -685h20l155 685h134l155 -685h20l151 685h62l-156 -705h-134l-155 685h-20l-155 -685h-134z" />
    <glyph glyph-name="wacute" unicode="&#x1e83;" horiz-adv-x="842" 
d="M269 636l290 78l14 -54l-290 -78zM26 495h63l131 -475h20l113 475h136l113 -475h20l131 475h63l-137 -495h-134l-114 475h-20l-114 -475h-134z" />
    <glyph glyph-name="Wdieresis" unicode="&#x1e84;" horiz-adv-x="982" 
d="M393 790q-28 0 -47.5 20t-19.5 48q0 27 19.5 47t47.5 20t48 -20t20 -47q0 -28 -20 -48t-48 -20zM588 790q-28 0 -47.5 20t-19.5 48q0 27 19.5 47t47.5 20t48 -20t20 -47q0 -28 -20 -48t-48 -20zM36 705h62l151 -685h20l155 685h134l155 -685h20l151 685h62l-156 -705
h-134l-155 685h-20l-155 -685h-134z" />
    <glyph glyph-name="wdieresis" unicode="&#x1e85;" horiz-adv-x="842" 
d="M323 580q-28 0 -47.5 20t-19.5 48q0 27 19.5 47t47.5 20t48 -20t20 -47q0 -28 -20 -48t-48 -20zM518 580q-28 0 -47.5 20t-19.5 48q0 27 19.5 47t47.5 20t48 -20t20 -47q0 -28 -20 -48t-48 -20zM26 495h63l131 -475h20l113 475h136l113 -475h20l131 475h63l-137 -495
h-134l-114 475h-20l-114 -475h-134z" />
    <glyph glyph-name="uni1E9E" unicode="&#x1e9e;" horiz-adv-x="605" 
d="M198 0v56l164 -9q64 -4 97.5 32.5t33.5 113.5q0 55 -20 89t-51.5 44t-64 7.5t-63.5 -14.5l-31 122l138 119q0 48 -25.5 73.5t-88.5 25.5q-76 0 -110.5 -33t-34.5 -123v-503h-66v513q0 106 57.5 154t153.5 48q180 0 180 -179l-169 -146l4 -20q108 33 182.5 -10t74.5 -167
q0 -109 -55 -159t-142 -44z" />
    <glyph glyph-name="Ygrave" unicode="&#x1ef2;" horiz-adv-x="646" 
d="M475 846l-14 -54l-290 78l14 54zM539 705h71l-254 -435v-270h-66v270l-254 435h71l206 -354v-50h20v50z" />
    <glyph glyph-name="ygrave" unicode="&#x1ef3;" horiz-adv-x="575" 
d="M445 636l-14 -54l-290 78l14 54zM468 495h71l-213 -495v-135q0 -58 -65 -55l-181 10v56l180 -10v134l-214 495h71l166 -408v-30h20v30z" />
    <glyph glyph-name="endash" unicode="&#x2013;" horiz-adv-x="836" 
d="M86 276h664v-56h-664v56z" />
    <glyph glyph-name="emdash" unicode="&#x2014;" horiz-adv-x="1036" 
d="M86 276h864v-56h-864v56z" />
    <glyph glyph-name="quoteleft" unicode="&#x2018;" horiz-adv-x="298" 
d="M150 740l62 -232l-64 -17l-62 232z" />
    <glyph glyph-name="quoteright" unicode="&#x2019;" horiz-adv-x="298" 
d="M148 740l64 -17l-62 -232l-64 17z" />
    <glyph glyph-name="quotesinglbase" unicode="&#x201a;" horiz-adv-x="310" 
d="M160 159l64 -17l-74 -276l-64 17z" />
    <glyph glyph-name="quotedblleft" unicode="&#x201c;" horiz-adv-x="426" 
d="M150 740l62 -232l-64 -17l-62 232zM278 740l62 -232l-64 -17l-62 232z" />
    <glyph glyph-name="quotedblright" unicode="&#x201d;" horiz-adv-x="426" 
d="M148 740l64 -17l-62 -232l-64 17zM276 740l64 -17l-62 -232l-64 17z" />
    <glyph glyph-name="quotedblbase" unicode="&#x201e;" horiz-adv-x="439" 
d="M160 159l64 -17l-74 -276l-64 17zM289 159l64 -17l-74 -276l-64 17z" />
    <glyph glyph-name="dagger" unicode="&#x2020;" horiz-adv-x="552" 
d="M466 654v-56h-162v-447h-56v447h-162v56h162v199h56v-199h162z" />
    <glyph glyph-name="daggerdbl" unicode="&#x2021;" horiz-adv-x="552" 
d="M466 598h-162v-192h162v-56h-162v-199h-56v199h-162v56h162v192h-162v56h162v199h56v-199h162v-56z" />
    <glyph glyph-name="bullet" unicode="&#x2022;" horiz-adv-x="625" 
d="M311 21q-95 0 -160 65.5t-65 162.5q0 95 65 160t160 65q93 0 160.5 -65.5t67.5 -159.5q0 -96 -67.5 -162t-160.5 -66z" />
    <glyph glyph-name="ellipsis" unicode="&#x2026;" horiz-adv-x="797" 
d="M163 -10q-32 0 -54.5 22.5t-22.5 55.5q0 32 22.5 54.5t54.5 22.5t55 -22.5t23 -54.5q0 -33 -23 -55.5t-55 -22.5zM398 -10q-32 0 -54.5 22.5t-22.5 55.5q0 32 22.5 54.5t54.5 22.5t55 -22.5t23 -54.5q0 -33 -23 -55.5t-55 -22.5zM633 -10q-32 0 -54.5 22.5t-22.5 55.5
q0 32 22.5 54.5t54.5 22.5t55 -22.5t23 -54.5q0 -33 -23 -55.5t-55 -22.5z" />
    <glyph glyph-name="perthousand" unicode="&#x2030;" horiz-adv-x="1641" 
d="M698 814l53 -18l-298 -905l-53 18zM288 341q-89 0 -145.5 58.5t-56.5 143.5t56.5 143.5t145.5 58.5t145.5 -58.5t56.5 -143.5t-56.5 -143.5t-145.5 -58.5zM288 397q63 0 104.5 43t41.5 103t-41.5 103t-104.5 43t-104.5 -43t-41.5 -103t41.5 -103t104.5 -43zM870 -10
q-89 0 -145.5 58.5t-56.5 143.5t56.5 143.5t145.5 58.5t145.5 -58.5t56.5 -143.5t-56.5 -143.5t-145.5 -58.5zM1353 -10q-89 0 -145.5 58.5t-56.5 143.5t56.5 143.5t145.5 58.5t145.5 -58.5t56.5 -143.5t-56.5 -143.5t-145.5 -58.5zM870 46q63 0 104.5 43t41.5 103
t-41.5 103t-104.5 43t-104.5 -43t-41.5 -103t41.5 -103t104.5 -43zM1353 46q63 0 104.5 43t41.5 103t-41.5 103t-104.5 43t-104.5 -43t-41.5 -103t41.5 -103t104.5 -43z" />
    <glyph glyph-name="guilsinglleft" unicode="&#x2039;" horiz-adv-x="487" 
d="M401 20l-46 -40l-269 268l269 267l46 -40l-229 -227z" />
    <glyph glyph-name="guilsinglright" unicode="&#x203a;" horiz-adv-x="487" 
d="M86 20l229 228l-229 227l46 40l269 -267l-269 -268z" />
    <glyph glyph-name="fraction" unicode="&#x2044;" horiz-adv-x="363" 
d="M304 814l53 -18l-298 -905l-53 18z" />
    <glyph glyph-name="Euro" unicode="&#x20ac;" horiz-adv-x="801" 
d="M458 46q85 0 133 46t60 127h64q-17 -105 -83 -167t-174 -62q-120 0 -190 74.5t-87 201.5h-95v56h90q-1 10 -1 31q0 19 1 29h-90v56h95q17 127 87 202t190 75q108 0 174 -61.5t83 -166.5h-65q-11 81 -58.5 126.5t-133.5 45.5q-183 0 -212 -221h238v-56h-242q-1 -10 -1 -29
q0 -21 1 -31h242v-56h-238q29 -220 212 -220z" />
    <glyph glyph-name="trademark" unicode="&#x2122;" horiz-adv-x="875" 
d="M352 705v-46h-105v-288h-55v288h-106v46h266zM677 705h112v-334h-56v290l5 24h-10l-79 -314h-114l-80 314h-9l4 -24v-290h-56v334h113l80 -314h9z" />
    <glyph glyph-name="oneeighth" unicode="&#x215b;" horiz-adv-x="982" 
d="M581 814l53 -18l-298 -905l-53 18zM46 543q46 30 64.5 65t18.5 97h132v-415h-66v366l6 29h-12q-5 -72 -31.5 -119.5t-88.5 -77.5zM582 112q0 97 108 112v12q-37 5 -61 27.5t-24 61.5q0 47 42 73.5t112 26.5q69 0 111 -26.5t42 -73.5q0 -39 -23.5 -61.5t-60.5 -27.5v-12
q108 -15 108 -112q0 -54 -46.5 -88t-130.5 -34t-130.5 34t-46.5 88zM671 315q0 -26 22 -41.5t66 -15.5q87 0 87 57q0 54 -87 54q-88 0 -88 -54zM648 124q0 -33 26 -55.5t85 -22.5q58 0 84.5 23t26.5 55t-26.5 55t-84.5 23q-59 0 -85 -22.5t-26 -55.5z" />
    <glyph glyph-name="threeeighths" unicode="&#x215c;" horiz-adv-x="1115" 
d="M682 814l53 -18l-298 -905l-53 18zM46 451h66q0 -62 28 -86.5t88 -24.5q101 0 101 73q0 72 -83 72h-50v57h50q77 0 77 59q0 62 -95 62q-58 0 -84.5 -21t-26.5 -67h-66q0 68 47.5 106t129.5 38q74 0 117.5 -32t43.5 -80q0 -36 -25 -58.5t-67 -29.5v-12q97 -20 97 -100
q0 -56 -45 -89.5t-121 -33.5q-85 0 -133.5 41.5t-48.5 125.5zM715 112q0 97 108 112v12q-37 5 -61 27.5t-24 61.5q0 47 42 73.5t112 26.5q69 0 111 -26.5t42 -73.5q0 -39 -23.5 -61.5t-60.5 -27.5v-12q108 -15 108 -112q0 -54 -46.5 -88t-130.5 -34t-130.5 34t-46.5 88z
M804 315q0 -26 22 -41.5t66 -15.5q87 0 87 57q0 54 -87 54q-88 0 -88 -54zM781 124q0 -33 26 -55.5t85 -22.5q58 0 84.5 23t26.5 55t-26.5 55t-84.5 23q-59 0 -85 -22.5t-26 -55.5z" />
    <glyph glyph-name="fiveeighths" unicode="&#x215d;" horiz-adv-x="1108" 
d="M675 814l53 -18l-298 -905l-53 18zM46 436h66q0 -96 116 -96q113 0 113 104q0 87 -86 87q-74 0 -109 -55l-80 46v183h299v-56h-233v-86l-6 -29l10 -6q43 59 125 59q70 0 108 -39t38 -107q0 -72 -48.5 -114.5t-130.5 -42.5q-87 0 -134.5 40t-47.5 112zM708 112
q0 97 108 112v12q-37 5 -61 27.5t-24 61.5q0 47 42 73.5t112 26.5q69 0 111 -26.5t42 -73.5q0 -39 -23.5 -61.5t-60.5 -27.5v-12q108 -15 108 -112q0 -54 -46.5 -88t-130.5 -34t-130.5 34t-46.5 88zM797 315q0 -26 22 -41.5t66 -15.5q87 0 87 57q0 54 -87 54q-88 0 -88 -54z
M774 124q0 -33 26 -55.5t85 -22.5q58 0 84.5 23t26.5 55t-26.5 55t-84.5 23q-59 0 -85 -22.5t-26 -55.5z" />
    <glyph glyph-name="seveneighths" unicode="&#x215e;" horiz-adv-x="1066" 
d="M613 814l53 -18l-298 -905l-53 18zM109 290q0 131 52 210t164 136v13h-279v56h299v-119q-92 -42 -131 -111t-39 -185h-66zM666 112q0 97 108 112v12q-37 5 -61 27.5t-24 61.5q0 47 42 73.5t112 26.5q69 0 111 -26.5t42 -73.5q0 -39 -23.5 -61.5t-60.5 -27.5v-12
q108 -15 108 -112q0 -54 -46.5 -88t-130.5 -34t-130.5 34t-46.5 88zM755 315q0 -26 22 -41.5t66 -15.5q87 0 87 57q0 54 -87 54q-88 0 -88 -54zM732 124q0 -33 26 -55.5t85 -22.5q58 0 84.5 23t26.5 55t-26.5 55t-84.5 23q-59 0 -85 -22.5t-26 -55.5z" />
    <glyph glyph-name="arrowleft" unicode="&#x2190;" horiz-adv-x="720" 
d="M634 279v-61h-432l199 -198l-46 -40l-269 268l269 267l46 -40l-198 -196h431z" />
    <glyph glyph-name="arrowup" unicode="&#x2191;" horiz-adv-x="707" 
d="M621 256l-40 -46l-198 199v-432h-61v431l-196 -198l-40 46l267 269z" />
    <glyph glyph-name="arrowright" unicode="&#x2192;" horiz-adv-x="720" 
d="M365 515l269 -267l-269 -268l-46 40l199 198h-432v61h431l-198 196z" />
    <glyph glyph-name="arrowdown" unicode="&#x2193;" horiz-adv-x="707" 
d="M581 292l40 -46l-268 -269l-267 269l40 46l196 -198v431h61v-432z" />
    <glyph glyph-name="arrowboth" unicode="&#x2194;" horiz-adv-x="1100" 
d="M745 595l269 -267l-269 -268l-46 40l199 198h-432v61h431l-198 196zM401 395l-198 -196h431v-61h-432l199 -198l-46 -40l-269 268l269 267z" />
    <glyph glyph-name="arrowupdn" unicode="&#x2195;" horiz-adv-x="847" 
d="M312 157v431l-196 -198l-40 46l267 269l268 -269l-40 -46l-198 199v-432h-61zM731 91l40 -46l-268 -269l-267 269l40 46l196 -198v431h61v-432z" />
    <glyph glyph-name="uni2196" unicode="&#x2196;" horiz-adv-x="579" 
d="M496 79l-44 -43l-305 306l1 -281l-61 4l-1 380l379 -2l4 -61l-278 2z" />
    <glyph glyph-name="uni2197" unicode="&#x2197;" horiz-adv-x="579" 
d="M114 443l379 2l-1 -380l-61 -4l1 281l-305 -306l-44 43l305 305l-278 -2z" />
    <glyph glyph-name="uni2198" unicode="&#x2198;" horiz-adv-x="579" 
d="M492 417l1 -380l-379 2l-4 61l278 -2l-305 305l44 43l305 -306l-1 281z" />
    <glyph glyph-name="uni2199" unicode="&#x2199;" horiz-adv-x="579" 
d="M496 403l-305 -305l278 2l-4 -61l-379 -2l1 380l61 4l-1 -281l305 306z" />
    <glyph glyph-name="partialdiff" unicode="&#x2202;" horiz-adv-x="701" 
d="M615 319q0 -154 -72 -241.5t-196 -87.5t-192.5 72.5t-68.5 189.5q0 111 68.5 182t183.5 71q85 0 145 -50t76 -137h20l-10 50q-15 124 -123 206t-269 105v56q193 -23 315.5 -133t122.5 -283zM549 252q0 89 -58 143t-153 54q-87 0 -136.5 -54t-49.5 -143q0 -98 49.5 -152
t145.5 -54q94 0 148 60.5t54 145.5z" />
    <glyph glyph-name="emptyset" unicode="&#x2205;" horiz-adv-x="980" 
d="M718 620q83 -54 129.5 -143.5t46.5 -195.5q0 -171 -113 -287.5t-291 -116.5q-95 0 -179 38l-61 -106l-49 28l61 105q-83 54 -129.5 143.5t-46.5 195.5q0 171 113 287.5t291 116.5q95 0 179 -38l61 106l49 -28zM142 281q0 -88 39.5 -164.5t109.5 -123.5l349 604
q-67 32 -150 32q-151 0 -249.5 -102t-98.5 -246zM490 -67q151 0 249.5 102t98.5 246q0 88 -39.5 164.5t-109.5 123.5l-349 -604q67 -32 150 -32z" />
    <glyph glyph-name="product" unicode="&#x220f;" horiz-adv-x="749" 
d="M663 705v-56h-130v-829h-66v829h-185v-829h-66v829h-130v56h577z" />
    <glyph glyph-name="summation" unicode="&#x2211;" horiz-adv-x="585" 
d="M86 -180v86l298 347v20l-298 346v86h413v-56h-302l-50 10v-20l300 -346v-60l-300 -347v-20l50 10h302v-56h-413z" />
    <glyph glyph-name="minus" unicode="&#x2212;" horiz-adv-x="636" 
d="M86 276h464v-56h-464v56z" />
    <glyph glyph-name="radical" unicode="&#x221a;" horiz-adv-x="797" 
d="M468 657q10 48 60 48h183v-56h-184l-189 -829h-134l-118 385h63l112 -365h20z" />
    <glyph glyph-name="infinity" unicode="&#x221e;" horiz-adv-x="1004" 
d="M86 300q0 80 54.5 130.5t140.5 50.5q72 0 121.5 -35.5t99.5 -99.5q50 64 99.5 99.5t121.5 35.5q86 0 140.5 -50.5t54.5 -130.5t-54.5 -130.5t-140.5 -50.5q-72 0 -121.5 35.5t-99.5 99.5q-50 -64 -99.5 -99.5t-121.5 -35.5q-86 0 -140.5 50.5t-54.5 130.5zM152 300
q0 -57 35 -91t94 -34q55 0 97.5 32t89.5 93q-47 61 -89.5 93t-97.5 32q-59 0 -94 -34t-35 -91zM536 300q47 -61 89.5 -93t97.5 -32q59 0 94 34t35 91t-35 91t-94 34q-55 0 -97.5 -32t-89.5 -93z" />
    <glyph glyph-name="integral" unicode="&#x222b;" horiz-adv-x="672" 
d="M86 -180v56h137l165 780q11 49 60 49h138v-56h-137l-165 -780q-11 -49 -60 -49h-138z" />
    <glyph glyph-name="approxequal" unicode="&#x2248;" horiz-adv-x="636" 
d="M86 290q0 65 34.5 95.5t78.5 30.5q50 0 126.5 -40t111.5 -40q57 0 57 70h56q0 -65 -34.5 -95.5t-78.5 -30.5q-41 0 -84.5 20t-83 40t-70.5 20q-57 0 -57 -70h-56zM86 90q0 65 34.5 95.5t78.5 30.5q50 0 126.5 -40t111.5 -40q57 0 57 70h56q0 -65 -34.5 -95.5t-78.5 -30.5
q-41 0 -84.5 20t-83 40t-70.5 20q-57 0 -57 -70h-56z" />
    <glyph glyph-name="notequal" unicode="&#x2260;" horiz-adv-x="636" 
d="M550 320h-158l-83 -144h241v-56h-274l-84 -146l-48 28l68 118h-126v56h158l83 144h-241v56h274l84 146l48 -28l-68 -118h126v-56z" />
    <glyph glyph-name="lessequal" unicode="&#x2264;" horiz-adv-x="636" 
d="M86 292v70l440 152l24 -54l-392 -133l392 -131l-24 -54zM550 86v-56h-464v56h464z" />
    <glyph glyph-name="greaterequal" unicode="&#x2265;" horiz-adv-x="636" 
d="M550 292l-440 -150l-24 54l392 131l-392 133l24 54l440 -152v-70zM86 86h464v-56h-464v56z" />
    <glyph glyph-name="uni2460" unicode="&#x2460;" 
d="M500 -133q-127 0 -227 58.5t-153.5 157t-53.5 218.5t53.5 218.5t153.5 157t227 58.5t227 -58.5t153.5 -157t53.5 -218.5t-53.5 -218.5t-153.5 -157t-227 -58.5zM500 -77q109 0 196.5 52t134.5 138t47 188t-47 188t-134.5 138t-196.5 52t-196.5 -52t-134.5 -138t-47 -188
t47 -188t134.5 -138t196.5 -52zM353 347q46 30 64.5 65t18.5 97h132v-415h-66v366l6 29h-12q-5 -72 -31.5 -119.5t-88.5 -77.5z" />
    <glyph glyph-name="uni2461" unicode="&#x2461;" 
d="M500 -133q-127 0 -227 58.5t-153.5 157t-53.5 218.5t53.5 218.5t153.5 157t227 58.5t227 -58.5t153.5 -157t53.5 -218.5t-53.5 -218.5t-153.5 -157t-227 -58.5zM500 -77q109 0 196.5 52t134.5 138t47 188t-47 188t-134.5 138t-196.5 52t-196.5 -52t-134.5 -138t-47 -188
t47 -188t134.5 -138t196.5 -52zM327 316q0 106 54 157t134 51q73 0 115.5 -36.5t42.5 -103.5q0 -168 -307 -223v-12l30 6h263v-56h-313v111q19 3 44.5 8.5t65.5 19.5t72 32.5t55.5 48.5t23.5 65q0 84 -91 84q-60 0 -91.5 -35.5t-31.5 -116.5h-66z" />
    <glyph glyph-name="uni2462" unicode="&#x2462;" 
d="M500 -133q-127 0 -227 58.5t-153.5 157t-53.5 218.5t53.5 218.5t153.5 157t227 58.5t227 -58.5t153.5 -157t53.5 -218.5t-53.5 -218.5t-153.5 -157t-227 -58.5zM500 -77q109 0 196.5 52t134.5 138t47 188t-47 188t-134.5 138t-196.5 52t-196.5 -52t-134.5 -138t-47 -188
t47 -188t134.5 -138t196.5 -52zM326 251h66q0 -62 28 -86.5t88 -24.5q101 0 101 73q0 72 -83 72h-50v57h50q77 0 77 59q0 62 -95 62q-58 0 -84.5 -21t-26.5 -67h-66q0 68 47.5 106t129.5 38q74 0 117.5 -32t43.5 -80q0 -36 -25 -58.5t-67 -29.5v-12q97 -20 97 -100
q0 -56 -45 -89.5t-121 -33.5q-85 0 -133.5 41.5t-48.5 125.5z" />
    <glyph glyph-name="uni2463" unicode="&#x2463;" 
d="M500 -133q-127 0 -227 58.5t-153.5 157t-53.5 218.5t53.5 218.5t153.5 157t227 58.5t227 -58.5t153.5 -157t53.5 -218.5t-53.5 -218.5t-153.5 -157t-227 -58.5zM500 -77q109 0 196.5 52t134.5 138t47 188t-47 188t-134.5 138t-196.5 52t-196.5 -52t-134.5 -138t-47 -188
t47 -188t134.5 -138t196.5 -52zM329 184v117q142 69 169 214h66q-10 -85 -63 -156t-152 -113v-12l30 6h167v151h66v-151h52v-56h-52v-84h-66v84h-217z" />
    <glyph glyph-name="uni2464" unicode="&#x2464;" 
d="M500 -133q-127 0 -227 58.5t-153.5 157t-53.5 218.5t53.5 218.5t153.5 157t227 58.5t227 -58.5t153.5 -157t53.5 -218.5t-53.5 -218.5t-153.5 -157t-227 -58.5zM500 -77q109 0 196.5 52t134.5 138t47 188t-47 188t-134.5 138t-196.5 52t-196.5 -52t-134.5 -138t-47 -188
t47 -188t134.5 -138t196.5 -52zM323 225h66q0 -96 116 -96q113 0 113 104q0 87 -86 87q-74 0 -109 -55l-80 46v183h299v-56h-233v-86l-6 -29l10 -6q43 59 125 59q70 0 108 -39t38 -107q0 -72 -48.5 -114.5t-130.5 -42.5q-87 0 -134.5 40t-47.5 112z" />
    <glyph glyph-name="uni2465" unicode="&#x2465;" 
d="M500 -133q-127 0 -227 58.5t-153.5 157t-53.5 218.5t53.5 218.5t153.5 157t227 58.5t227 -58.5t153.5 -157t53.5 -218.5t-53.5 -218.5t-153.5 -157t-227 -58.5zM500 -77q109 0 196.5 52t134.5 138t47 188t-47 188t-134.5 138t-196.5 52t-196.5 -52t-134.5 -138t-47 -188
t47 -188t134.5 -138t196.5 -52zM324 281q0 114 54.5 180.5t156.5 56.5l100 -10v-56l-110 10q-74 7 -114.5 -36.5t-40.5 -108.5l-12 -30h12q10 46 51.5 77.5t101.5 31.5q73 0 112 -43t39 -111q0 -69 -47.5 -114t-127.5 -45q-81 0 -128 51t-47 147zM390 241q0 -45 27 -73.5
t82 -28.5q109 0 109 103q0 98 -96 98q-55 0 -88.5 -28t-33.5 -71z" />
    <glyph glyph-name="uni2466" unicode="&#x2466;" 
d="M500 -133q-127 0 -227 58.5t-153.5 157t-53.5 218.5t53.5 218.5t153.5 157t227 58.5t227 -58.5t153.5 -157t53.5 -218.5t-53.5 -218.5t-153.5 -157t-227 -58.5zM500 -77q109 0 196.5 52t134.5 138t47 188t-47 188t-134.5 138t-196.5 52t-196.5 -52t-134.5 -138t-47 -188
t47 -188t134.5 -138t196.5 -52zM424 74q0 131 52 210t164 136v13h-279v56h299v-119q-92 -42 -131 -111t-39 -185h-66z" />
    <glyph glyph-name="uni2467" unicode="&#x2467;" 
d="M500 -133q-127 0 -227 58.5t-153.5 157t-53.5 218.5t53.5 218.5t153.5 157t227 58.5t227 -58.5t153.5 -157t53.5 -218.5t-53.5 -218.5t-153.5 -157t-227 -58.5zM500 -77q109 0 196.5 52t134.5 138t47 188t-47 188t-134.5 138t-196.5 52t-196.5 -52t-134.5 -138t-47 -188
t47 -188t134.5 -138t196.5 -52zM323 206q0 97 108 112v12q-37 5 -61 27.5t-24 61.5q0 47 42 73.5t112 26.5q69 0 111 -26.5t42 -73.5q0 -39 -23.5 -61.5t-60.5 -27.5v-12q108 -15 108 -112q0 -54 -46.5 -88t-130.5 -34t-130.5 34t-46.5 88zM412 409q0 -26 22 -41.5t66 -15.5
q87 0 87 57q0 54 -87 54q-88 0 -88 -54zM389 218q0 -33 26 -55.5t85 -22.5q58 0 84.5 23t26.5 55t-26.5 55t-84.5 23q-59 0 -85 -22.5t-26 -55.5z" />
    <glyph glyph-name="uni2468" unicode="&#x2468;" 
d="M500 -133q-127 0 -227 58.5t-153.5 157t-53.5 218.5t53.5 218.5t153.5 157t227 58.5t227 -58.5t153.5 -157t53.5 -218.5t-53.5 -218.5t-153.5 -157t-227 -58.5zM500 -77q109 0 196.5 52t134.5 138t47 188t-47 188t-134.5 138t-196.5 52t-196.5 -52t-134.5 -138t-47 -188
t47 -188t134.5 -138t196.5 -52zM690 319q0 -114 -54.5 -180.5t-156.5 -56.5l-100 10v56l110 -10q74 -7 114.5 36.5t40.5 108.5l12 30h-12q-10 -46 -51.5 -77.5t-101.5 -31.5q-73 0 -112 43t-39 111q0 69 47.5 114t127.5 45q81 0 128 -51t47 -147zM624 359q0 45 -27 73.5
t-82 28.5q-109 0 -109 -103q0 -98 96 -98q55 0 88.5 28t33.5 71z" />
    <glyph glyph-name="uni24EA" unicode="&#x24ea;" 
d="M500 735q127 0 227 -58.5t153.5 -157t53.5 -218.5t-53.5 -218.5t-153.5 -157t-227 -58.5t-227 58.5t-153.5 157t-53.5 218.5t53.5 218.5t153.5 157t227 58.5zM500 -77q109 0 196.5 52t134.5 138t47 188t-47 188t-134.5 138t-196.5 52t-196.5 -52t-134.5 -138t-47 -188
t47 -188t134.5 -138t196.5 -52zM501 519q82 0 127 -60.5t45 -156.5q0 -98 -45 -158t-127 -60q-83 0 -128 60t-45 158q0 97 45 157t128 60zM501 463q-50 0 -78.5 -41t-28.5 -120q0 -54 14 -91l167 217q-27 35 -74 35zM501 140q50 0 78 41t28 121q0 51 -13 90l-168 -216
q28 -36 75 -36z" />
    <glyph glyph-name="uni24FF" unicode="&#x24ff;" 
d="M500 -133q-127 0 -227 58.5t-153.5 157t-53.5 218.5t53.5 218.5t153.5 157t227 58.5t227 -58.5t153.5 -157t53.5 -218.5t-53.5 -218.5t-153.5 -157t-227 -58.5zM328 302q0 -98 45 -158t128 -60q82 0 127 60t45 158q0 96 -45 156.5t-127 60.5q-83 0 -128 -60t-45 -157z
M394 302q0 79 28.5 120t78.5 41t76 -32l-169 -220q-14 37 -14 91zM426 176l170 218q11 -38 11 -92q0 -83 -25 -122.5t-81 -39.5q-47 0 -75 36z" />
    <glyph glyph-name="lozenge" unicode="&#x25ca;" horiz-adv-x="539" 
d="M337 705l116 -319l-116 -319h-134l-117 319l117 319h134zM280 87l107 299l-107 299h-20l-108 -299l108 -299h20z" />
    <glyph glyph-name="uni2776" unicode="&#x2776;" 
d="M500 -133q127 0 227 58.5t153.5 157t53.5 218.5t-53.5 218.5t-153.5 157t-227 58.5t-227 -58.5t-153.5 -157t-53.5 -218.5t53.5 -218.5t153.5 -157t227 -58.5zM353 347q46 30 64.5 65t18.5 97h132v-415h-66v366l6 29h-12q-5 -72 -31.5 -119.5t-88.5 -77.5z" />
    <glyph glyph-name="uni2777" unicode="&#x2777;" 
d="M500 -133q127 0 227 58.5t153.5 157t53.5 218.5t-53.5 218.5t-153.5 157t-227 58.5t-227 -58.5t-153.5 -157t-53.5 -218.5t53.5 -218.5t153.5 -157t227 -58.5zM327 316q0 106 54 157t134 51q73 0 115.5 -36.5t42.5 -103.5q0 -168 -307 -223v-12l30 6h263v-56h-313v111
q19 3 44.5 8.5t65.5 19.5t72 32.5t55.5 48.5t23.5 65q0 84 -91 84q-60 0 -91.5 -35.5t-31.5 -116.5h-66z" />
    <glyph glyph-name="uni2778" unicode="&#x2778;" 
d="M500 -133q127 0 227 58.5t153.5 157t53.5 218.5t-53.5 218.5t-153.5 157t-227 58.5t-227 -58.5t-153.5 -157t-53.5 -218.5t53.5 -218.5t153.5 -157t227 -58.5zM326 251h66q0 -62 28 -86.5t88 -24.5q101 0 101 73q0 72 -83 72h-50v57h50q77 0 77 59q0 62 -95 62
q-58 0 -84.5 -21t-26.5 -67h-66q0 68 47.5 106t129.5 38q74 0 117.5 -32t43.5 -80q0 -36 -25 -58.5t-67 -29.5v-12q97 -20 97 -100q0 -56 -45 -89.5t-121 -33.5q-85 0 -133.5 41.5t-48.5 125.5z" />
    <glyph glyph-name="uni2779" unicode="&#x2779;" 
d="M500 -133q127 0 227 58.5t153.5 157t53.5 218.5t-53.5 218.5t-153.5 157t-227 58.5t-227 -58.5t-153.5 -157t-53.5 -218.5t53.5 -218.5t153.5 -157t227 -58.5zM324 182v117q142 69 169 214h66q-10 -85 -63 -156t-152 -113v-12l30 6h167v151h66v-151h52v-56h-52v-84h-66
v84h-217z" />
    <glyph glyph-name="uni277A" unicode="&#x277a;" 
d="M500 -133q127 0 227 58.5t153.5 157t53.5 218.5t-53.5 218.5t-153.5 157t-227 58.5t-227 -58.5t-153.5 -157t-53.5 -218.5t53.5 -218.5t153.5 -157t227 -58.5zM323 225h66q0 -96 116 -96q113 0 113 104q0 87 -86 87q-74 0 -109 -55l-80 46v183h299v-56h-233v-86l-6 -29
l10 -6q43 59 125 59q70 0 108 -39t38 -107q0 -72 -48.5 -114.5t-130.5 -42.5q-87 0 -134.5 40t-47.5 112z" />
    <glyph glyph-name="uni277B" unicode="&#x277b;" 
d="M500 -133q127 0 227 58.5t153.5 157t53.5 218.5t-53.5 218.5t-153.5 157t-227 58.5t-227 -58.5t-153.5 -157t-53.5 -218.5t53.5 -218.5t153.5 -157t227 -58.5zM324 281q0 114 54.5 180.5t156.5 56.5l100 -10v-56l-110 10q-74 7 -114.5 -36.5t-40.5 -108.5l-12 -30h12
q10 46 51.5 77.5t101.5 31.5q73 0 112 -43t39 -111q0 -69 -47.5 -114t-127.5 -45q-81 0 -128 51t-47 147zM390 241q0 -45 27 -73.5t82 -28.5q109 0 109 103q0 98 -96 98q-55 0 -88.5 -28t-33.5 -71z" />
    <glyph glyph-name="uni277C" unicode="&#x277c;" 
d="M500 -133q127 0 227 58.5t153.5 157t53.5 218.5t-53.5 218.5t-153.5 157t-227 58.5t-227 -58.5t-153.5 -157t-53.5 -218.5t53.5 -218.5t153.5 -157t227 -58.5zM424 74q0 131 52 210t164 136v13h-279v56h299v-119q-92 -42 -131 -111t-39 -185h-66z" />
    <glyph glyph-name="uni277D" unicode="&#x277d;" 
d="M500 -133q127 0 227 58.5t153.5 157t53.5 218.5t-53.5 218.5t-153.5 157t-227 58.5t-227 -58.5t-153.5 -157t-53.5 -218.5t53.5 -218.5t153.5 -157t227 -58.5zM323 206q0 97 108 112v12q-37 5 -61 27.5t-24 61.5q0 47 42 73.5t112 26.5q69 0 111 -26.5t42 -73.5
q0 -39 -23.5 -61.5t-60.5 -27.5v-12q108 -15 108 -112q0 -54 -46.5 -88t-130.5 -34t-130.5 34t-46.5 88zM412 409q0 -26 22 -41.5t66 -15.5q87 0 87 57q0 54 -87 54q-88 0 -88 -54zM389 218q0 -33 26 -55.5t85 -22.5q58 0 84.5 23t26.5 55t-26.5 55t-84.5 23
q-59 0 -85 -22.5t-26 -55.5z" />
    <glyph glyph-name="uni277E" unicode="&#x277e;" 
d="M500 -133q127 0 227 58.5t153.5 157t53.5 218.5t-53.5 218.5t-153.5 157t-227 58.5t-227 -58.5t-153.5 -157t-53.5 -218.5t53.5 -218.5t153.5 -157t227 -58.5zM690 319q0 -114 -54.5 -180.5t-156.5 -56.5l-100 10v56l110 -10q74 -7 114.5 36.5t40.5 108.5l12 30h-12
q-10 -46 -51.5 -77.5t-101.5 -31.5q-73 0 -112 43t-39 111q0 69 47.5 114t127.5 45q81 0 128 -51t47 -147zM624 359q0 45 -27 73.5t-82 28.5q-109 0 -109 -103q0 -98 96 -98q55 0 88.5 28t33.5 71z" />
    <glyph glyph-name="G.ss01" horiz-adv-x="764" 
d="M66 353q0 158 86 260t235 102q129 0 202.5 -71.5t82.5 -190.5h-66q-5 94 -62 150t-157 56q-125 0 -190 -84.5t-65 -221.5q0 -92 22.5 -158.5t77.5 -107.5t139 -41q133 0 192 64t59 207h-297v56h308q55 0 55 -49v-324h-66v103l10 50h-20q-17 -72 -79 -117.5t-162 -45.5
q-149 0 -227 100.5t-78 262.5z" />
    <glyph glyph-name="Gbreve.ss01" horiz-adv-x="764" 
d="M539 941q0 -76 -41.5 -121.5t-109.5 -45.5t-109.5 45.5t-41.5 121.5h56q0 -57 22 -84t73 -27t73 27t22 84h56zM66 353q0 158 86 260t235 102q129 0 202.5 -71.5t82.5 -190.5h-66q-5 94 -62 150t-157 56q-125 0 -190 -84.5t-65 -221.5q0 -92 22.5 -158.5t77.5 -107.5
t139 -41q133 0 192 64t59 207h-297v56h308q55 0 55 -49v-324h-66v103l10 50h-20q-17 -72 -79 -117.5t-162 -45.5q-149 0 -227 100.5t-78 262.5z" />
    <glyph glyph-name="uni0122.ss01" horiz-adv-x="764" 
d="M66 353q0 158 86 260t235 102q129 0 202.5 -71.5t82.5 -190.5h-66q-5 94 -62 150t-157 56q-125 0 -190 -84.5t-65 -221.5q0 -92 22.5 -158.5t77.5 -107.5t139 -41q133 0 192 64t59 207h-297v56h308q55 0 55 -49v-324h-66v103l10 50h-20q-17 -72 -79 -117.5t-162 -45.5
q-149 0 -227 100.5t-78 262.5zM331 -49l64 -17l-51 -164l-64 17z" />
    <glyph glyph-name="Gdotaccent.ss01" horiz-adv-x="764" 
d="M387 790q-28 0 -47.5 20t-19.5 48q0 27 19.5 47t47.5 20t48 -20t20 -47q0 -28 -20 -48t-48 -20zM66 353q0 158 86 260t235 102q129 0 202.5 -71.5t82.5 -190.5h-66q-5 94 -62 150t-157 56q-125 0 -190 -84.5t-65 -221.5q0 -92 22.5 -158.5t77.5 -107.5t139 -41
q133 0 192 64t59 207h-297v56h308q55 0 55 -49v-324h-66v103l10 50h-20q-17 -72 -79 -117.5t-162 -45.5q-149 0 -227 100.5t-78 262.5z" />
    <glyph glyph-name="i.loclTRK" horiz-adv-x="432" 
d="M189 580q-28 0 -47.5 20t-19.5 48q0 27 19.5 47t47.5 20t48 -20t20 -47q0 -28 -20 -48t-48 -20zM56 0v56h141v393l-101 -10v56l98 10q33 4 47 -13t14 -52v-384h141v-56h-340z" />
    <glyph glyph-name="a.ss01" horiz-adv-x="650" 
d="M574 0h-66v81l10 50h-20q-16 -63 -68.5 -102t-132.5 -39q-107 0 -174 72.5t-67 185.5q0 112 67 184.5t174 72.5q80 0 132.5 -39t68.5 -102h20l-10 50v81h66v-495zM508 248q0 100 -56 150.5t-142 50.5q-84 0 -136 -50t-52 -151q0 -102 51.5 -152t136.5 -50q86 0 142 50.5
t56 151.5z" />
    <glyph glyph-name="aacute.ss01" horiz-adv-x="650" 
d="M173 636l290 78l14 -54l-290 -78zM574 0h-66v81l10 50h-20q-16 -63 -68.5 -102t-132.5 -39q-107 0 -174 72.5t-67 185.5q0 112 67 184.5t174 72.5q80 0 132.5 -39t68.5 -102h20l-10 50v81h66v-495zM508 248q0 100 -56 150.5t-142 50.5q-84 0 -136 -50t-52 -151
q0 -102 51.5 -152t136.5 -50q86 0 142 50.5t56 151.5z" />
    <glyph glyph-name="abreve.ss01" horiz-adv-x="650" 
d="M476 731q0 -76 -41.5 -121.5t-109.5 -45.5t-109.5 45.5t-41.5 121.5h56q0 -57 22 -84t73 -27t73 27t22 84h56zM574 0h-66v81l10 50h-20q-16 -63 -68.5 -102t-132.5 -39q-107 0 -174 72.5t-67 185.5q0 112 67 184.5t174 72.5q80 0 132.5 -39t68.5 -102h20l-10 50v81h66
v-495zM508 248q0 100 -56 150.5t-142 50.5q-84 0 -136 -50t-52 -151q0 -102 51.5 -152t136.5 -50q86 0 142 50.5t56 151.5z" />
    <glyph glyph-name="acircumflex.ss01" horiz-adv-x="650" 
d="M476 604l-40 -40l-111 95l-111 -95l-40 40l151 127zM574 0h-66v81l10 50h-20q-16 -63 -68.5 -102t-132.5 -39q-107 0 -174 72.5t-67 185.5q0 112 67 184.5t174 72.5q80 0 132.5 -39t68.5 -102h20l-10 50v81h66v-495zM508 248q0 100 -56 150.5t-142 50.5q-84 0 -136 -50
t-52 -151q0 -102 51.5 -152t136.5 -50q86 0 142 50.5t56 151.5z" />
    <glyph glyph-name="adieresis.ss01" horiz-adv-x="650" 
d="M227 580q-28 0 -47.5 20t-19.5 48q0 27 19.5 47t47.5 20t48 -20t20 -47q0 -28 -20 -48t-48 -20zM422 580q-28 0 -47.5 20t-19.5 48q0 27 19.5 47t47.5 20t48 -20t20 -47q0 -28 -20 -48t-48 -20zM574 0h-66v81l10 50h-20q-16 -63 -68.5 -102t-132.5 -39q-107 0 -174 72.5
t-67 185.5q0 112 67 184.5t174 72.5q80 0 132.5 -39t68.5 -102h20l-10 50v81h66v-495zM508 248q0 100 -56 150.5t-142 50.5q-84 0 -136 -50t-52 -151q0 -102 51.5 -152t136.5 -50q86 0 142 50.5t56 151.5z" />
    <glyph glyph-name="agrave.ss01" horiz-adv-x="650" 
d="M477 636l-14 -54l-290 78l14 54zM574 0h-66v81l10 50h-20q-16 -63 -68.5 -102t-132.5 -39q-107 0 -174 72.5t-67 185.5q0 112 67 184.5t174 72.5q80 0 132.5 -39t68.5 -102h20l-10 50v81h66v-495zM508 248q0 100 -56 150.5t-142 50.5q-84 0 -136 -50t-52 -151
q0 -102 51.5 -152t136.5 -50q86 0 142 50.5t56 151.5z" />
    <glyph glyph-name="amacron.ss01" horiz-adv-x="650" 
d="M175 676h301v-55l-301 -1v56zM574 0h-66v81l10 50h-20q-16 -63 -68.5 -102t-132.5 -39q-107 0 -174 72.5t-67 185.5q0 112 67 184.5t174 72.5q80 0 132.5 -39t68.5 -102h20l-10 50v81h66v-495zM508 248q0 100 -56 150.5t-142 50.5q-84 0 -136 -50t-52 -151
q0 -102 51.5 -152t136.5 -50q86 0 142 50.5t56 151.5z" />
    <glyph glyph-name="aogonek.ss01" horiz-adv-x="650" 
d="M503 -134l196 20v-56l-200 -19q-35 -3 -50 20.5t1 52.5l60 116h-2v81l10 50h-20q-16 -63 -68.5 -102t-132.5 -39q-107 0 -174 72.5t-67 185.5q0 112 67 184.5t174 72.5q80 0 132.5 -39t68.5 -102h20l-10 50v81h66v-495h-1zM310 46q86 0 142 50.5t56 151.5
q0 100 -56 150.5t-142 50.5q-84 0 -136 -50t-52 -151q0 -102 51.5 -152t136.5 -50z" />
    <glyph glyph-name="aring.ss01" horiz-adv-x="650" 
d="M324 560q-51 0 -80.5 31.5t-29.5 74.5q0 42 29.5 73.5t80.5 31.5t81 -31.5t30 -73.5t-30 -74t-81 -32zM324 616q55 0 55 50q0 22 -14.5 35.5t-40.5 13.5t-40 -13.5t-14 -35.5q0 -50 54 -50zM574 0h-66v81l10 50h-20q-16 -63 -68.5 -102t-132.5 -39q-107 0 -174 72.5
t-67 185.5q0 112 67 184.5t174 72.5q80 0 132.5 -39t68.5 -102h20l-10 50v81h66v-495zM508 248q0 100 -56 150.5t-142 50.5q-84 0 -136 -50t-52 -151q0 -102 51.5 -152t136.5 -50q86 0 142 50.5t56 151.5z" />
    <glyph glyph-name="atilde.ss01" horiz-adv-x="650" 
d="M155 590q0 126 93 126q28 0 51.5 -12.5t37 -27.5t30 -27.5t30.5 -12.5q20 0 31 14.5t11 55.5h56q0 -126 -93 -126q-28 0 -51.5 12.5t-37 27.5t-30 27.5t-30.5 12.5q-20 0 -31 -14.5t-11 -55.5h-56zM574 0h-66v81l10 50h-20q-16 -63 -68.5 -102t-132.5 -39
q-107 0 -174 72.5t-67 185.5q0 112 67 184.5t174 72.5q80 0 132.5 -39t68.5 -102h20l-10 50v81h66v-495zM508 248q0 100 -56 150.5t-142 50.5q-84 0 -136 -50t-52 -151q0 -102 51.5 -152t136.5 -50q86 0 142 50.5t56 151.5z" />
    <glyph glyph-name="g.ss01" horiz-adv-x="650" 
d="M508 495h66v-630q0 -56 -65 -55l-364 10v56l363 -10v215l10 50h-20q-16 -63 -68.5 -102t-132.5 -39q-107 0 -174 72.5t-67 185.5q0 112 67 184.5t174 72.5q80 0 132.5 -39t68.5 -102h20l-10 50v81zM310 46q86 0 142 50.5t56 151.5q0 100 -56 150.5t-142 50.5
q-84 0 -136 -50t-52 -151q0 -102 51.5 -152t136.5 -50z" />
    <glyph glyph-name="gbreve.ss01" horiz-adv-x="650" 
d="M324 564q-68 0 -109.5 45.5t-41.5 121.5h56q0 -57 22 -84t73 -27t73 27t22 84h56q0 -76 -41.5 -121.5t-109.5 -45.5zM508 495h66v-630q0 -56 -65 -55l-364 10v56l363 -10v215l10 50h-20q-16 -63 -68.5 -102t-132.5 -39q-107 0 -174 72.5t-67 185.5q0 112 67 184.5
t174 72.5q80 0 132.5 -39t68.5 -102h20l-10 50v81zM310 46q86 0 142 50.5t56 151.5q0 100 -56 150.5t-142 50.5q-84 0 -136 -50t-52 -151q0 -102 51.5 -152t136.5 -50z" />
    <glyph glyph-name="uni0123.ss01" horiz-adv-x="650" 
d="M409 754l-47 -174l-64 17l47 174zM508 495h66v-630q0 -56 -65 -55l-364 10v56l363 -10v215l10 50h-20q-16 -63 -68.5 -102t-132.5 -39q-107 0 -174 72.5t-67 185.5q0 112 67 184.5t174 72.5q80 0 132.5 -39t68.5 -102h20l-10 50v81zM310 46q86 0 142 50.5t56 151.5
q0 100 -56 150.5t-142 50.5q-84 0 -136 -50t-52 -151q0 -102 51.5 -152t136.5 -50z" />
    <glyph glyph-name="gdotaccent.ss01" horiz-adv-x="650" 
d="M323 580q-28 0 -47.5 20t-19.5 48q0 27 19.5 47t47.5 20t48 -20t20 -47q0 -28 -20 -48t-48 -20zM508 495h66v-630q0 -56 -65 -55l-364 10v56l363 -10v215l10 50h-20q-16 -63 -68.5 -102t-132.5 -39q-107 0 -174 72.5t-67 185.5q0 112 67 184.5t174 72.5q80 0 132.5 -39
t68.5 -102h20l-10 50v81zM310 46q86 0 142 50.5t56 151.5q0 100 -56 150.5t-142 50.5q-84 0 -136 -50t-52 -151q0 -102 51.5 -152t136.5 -50z" />
    <glyph glyph-name="k.ss01" horiz-adv-x="544" 
d="M498 495l-220 -194l220 -301h-75l-190 260l-91 -80v-180h-66v735h66v-475l263 235h93z" />
    <glyph glyph-name="uni0137.ss01" horiz-adv-x="544" 
d="M498 495l-220 -194l220 -301h-75l-190 260l-91 -80v-180h-66v735h66v-475l263 235h93zM194 -213l51 164l64 -17l-51 -164z" />
    <glyph glyph-name="uni0438.loclBGR" horiz-adv-x="586" 
d="M530 0h-66v435l10 40h-20l-243 -475h-135v495h66v-435l-10 -40h20l243 475h135v-495z" />
    <glyph glyph-name="uni0439.loclBGR" horiz-adv-x="586" 
d="M454 731q0 -76 -41.5 -121.5t-109.5 -45.5t-109.5 45.5t-41.5 121.5h56q0 -57 22 -84t73 -27t73 27t22 84h56zM530 0h-66v435l10 40h-20l-243 -475h-135v495h66v-435l-10 -40h20l243 475h135v-495z" />
    <glyph glyph-name="uni045D.loclBGR" horiz-adv-x="586" 
d="M455 636l-14 -54l-290 78l14 54zM530 0h-66v435l10 40h-20l-243 -475h-135v495h66v-435l-10 -40h20l243 475h135v-495z" />
    <glyph glyph-name="zero.dnom" horiz-adv-x="437" 
d="M219 425q82 0 127 -60.5t45 -156.5q0 -98 -45 -158t-127 -60q-83 0 -128 60t-45 158q0 97 45 157t128 60zM219 369q-50 0 -78.5 -41t-28.5 -120q0 -54 14 -91l167 217q-27 35 -74 35zM219 46q50 0 78 41t28 121q0 51 -13 90l-168 -216q28 -36 75 -36z" />
    <glyph glyph-name="one.dnom" horiz-adv-x="307" 
d="M46 253q46 30 64.5 65t18.5 97h132v-415h-66v366l6 29h-12q-5 -72 -31.5 -119.5t-88.5 -77.5z" />
    <glyph glyph-name="two.dnom" horiz-adv-x="438" 
d="M46 217q0 106 54 157t134 51q73 0 115.5 -36.5t42.5 -103.5q0 -168 -307 -223v-12l30 6h263v-56h-313v111q19 3 44.5 8.5t65.5 19.5t72 32.5t55.5 48.5t23.5 65q0 84 -91 84q-60 0 -91.5 -35.5t-31.5 -116.5h-66z" />
    <glyph glyph-name="three.dnom" horiz-adv-x="440" 
d="M46 157h66q0 -62 28 -86.5t88 -24.5q101 0 101 73q0 72 -83 72h-50v57h50q77 0 77 59q0 62 -95 62q-58 0 -84.5 -21t-26.5 -67h-66q0 68 47.5 106t129.5 38q74 0 117.5 -32t43.5 -80q0 -36 -25 -58.5t-67 -29.5v-12q97 -20 97 -100q0 -56 -45 -89.5t-121 -33.5
q-85 0 -133.5 41.5t-48.5 125.5z" />
    <glyph glyph-name="four.dnom" horiz-adv-x="427" 
d="M46 84v117q142 69 169 214h66q-10 -85 -63 -156t-152 -113v-12l30 6h167v151h66v-151h52v-56h-52v-84h-66v84h-217z" />
    <glyph glyph-name="five.dnom" horiz-adv-x="453" 
d="M46 142h66q0 -96 116 -96q113 0 113 104q0 87 -86 87q-74 0 -109 -55l-80 46v183h299v-56h-233v-86l-6 -29l10 -6q43 59 125 59q70 0 108 -39t38 -107q0 -72 -48.5 -114.5t-130.5 -42.5q-87 0 -134.5 40t-47.5 112z" />
    <glyph glyph-name="six.dnom" horiz-adv-x="442" 
d="M46 188q0 114 54.5 180.5t156.5 56.5l100 -10v-56l-110 10q-74 7 -114.5 -36.5t-40.5 -108.5l-12 -30h12q10 46 51.5 77.5t101.5 31.5q73 0 112 -43t39 -111q0 -69 -47.5 -114t-127.5 -45q-81 0 -128 51t-47 147zM112 148q0 -45 27 -73.5t82 -28.5q109 0 109 103
q0 98 -96 98q-55 0 -88.5 -28t-33.5 -71z" />
    <glyph glyph-name="seven.dnom" horiz-adv-x="391" 
d="M109 0q0 131 52 210t164 136v13h-279v56h299v-119q-92 -42 -131 -111t-39 -185h-66z" />
    <glyph glyph-name="eight.dnom" horiz-adv-x="446" 
d="M46 112q0 97 108 112v12q-37 5 -61 27.5t-24 61.5q0 47 42 73.5t112 26.5q69 0 111 -26.5t42 -73.5q0 -39 -23.5 -61.5t-60.5 -27.5v-12q108 -15 108 -112q0 -54 -46.5 -88t-130.5 -34t-130.5 34t-46.5 88zM135 315q0 -26 22 -41.5t66 -15.5q87 0 87 57q0 54 -87 54
q-88 0 -88 -54zM112 124q0 -33 26 -55.5t85 -22.5q58 0 84.5 23t26.5 55t-26.5 55t-84.5 23q-59 0 -85 -22.5t-26 -55.5z" />
    <glyph glyph-name="nine.dnom" horiz-adv-x="442" 
d="M396 228q0 -114 -54.5 -180.5t-156.5 -56.5l-100 10v56l110 -10q74 -7 114.5 36.5t40.5 108.5l12 30h-12q-10 -46 -51.5 -77.5t-101.5 -31.5q-73 0 -112 43t-39 111q0 69 47.5 114t127.5 45q81 0 128 -51t47 -147zM330 268q0 45 -27 73.5t-82 28.5q-109 0 -109 -103
q0 -98 96 -98q55 0 88.5 28t33.5 71z" />
    <glyph glyph-name="zero.numr" horiz-adv-x="437" 
d="M219 723q82 0 127 -60.5t45 -156.5q0 -98 -45 -158t-127 -60q-83 0 -128 60t-45 158q0 97 45 157t128 60zM219 667q-50 0 -78.5 -41t-28.5 -120q0 -54 14 -91l167 217q-27 35 -74 35zM219 344q50 0 78 41t28 121q0 51 -13 90l-168 -216q28 -36 75 -36z" />
    <glyph glyph-name="one.numr" horiz-adv-x="307" 
d="M46 543q46 30 64.5 65t18.5 97h132v-415h-66v366l6 29h-12q-5 -72 -31.5 -119.5t-88.5 -77.5z" />
    <glyph glyph-name="two.numr" horiz-adv-x="438" 
d="M46 511q0 106 54 157t134 51q73 0 115.5 -36.5t42.5 -103.5q0 -168 -307 -223v-12l30 6h263v-56h-313v111q19 3 44.5 8.5t65.5 19.5t72 32.5t55.5 48.5t23.5 65q0 84 -91 84q-60 0 -91.5 -35.5t-31.5 -116.5h-66z" />
    <glyph glyph-name="three.numr" horiz-adv-x="440" 
d="M46 451h66q0 -62 28 -86.5t88 -24.5q101 0 101 73q0 72 -83 72h-50v57h50q77 0 77 59q0 62 -95 62q-58 0 -84.5 -21t-26.5 -67h-66q0 68 47.5 106t129.5 38q74 0 117.5 -32t43.5 -80q0 -36 -25 -58.5t-67 -29.5v-12q97 -20 97 -100q0 -56 -45 -89.5t-121 -33.5
q-85 0 -133.5 41.5t-48.5 125.5z" />
    <glyph glyph-name="four.numr" horiz-adv-x="427" 
d="M46 374v117q142 69 169 214h66q-10 -85 -63 -156t-152 -113v-12l30 6h167v151h66v-151h52v-56h-52v-84h-66v84h-217z" />
    <glyph glyph-name="five.numr" horiz-adv-x="453" 
d="M46 436h66q0 -96 116 -96q113 0 113 104q0 87 -86 87q-74 0 -109 -55l-80 46v183h299v-56h-233v-86l-6 -29l10 -6q43 59 125 59q70 0 108 -39t38 -107q0 -72 -48.5 -114.5t-130.5 -42.5q-87 0 -134.5 40t-47.5 112z" />
    <glyph glyph-name="six.numr" horiz-adv-x="442" 
d="M46 487q0 114 54.5 180.5t156.5 56.5l100 -10v-56l-110 10q-74 7 -114.5 -36.5t-40.5 -108.5l-12 -30h12q10 46 51.5 77.5t101.5 31.5q73 0 112 -43t39 -111q0 -69 -47.5 -114t-127.5 -45q-81 0 -128 51t-47 147zM112 447q0 -45 27 -73.5t82 -28.5q109 0 109 103
q0 98 -96 98q-55 0 -88.5 -28t-33.5 -71z" />
    <glyph glyph-name="seven.numr" horiz-adv-x="391" 
d="M109 290q0 131 52 210t164 136v13h-279v56h299v-119q-92 -42 -131 -111t-39 -185h-66z" />
    <glyph glyph-name="eight.numr" horiz-adv-x="446" 
d="M46 410q0 97 108 112v12q-37 5 -61 27.5t-24 61.5q0 47 42 73.5t112 26.5q69 0 111 -26.5t42 -73.5q0 -39 -23.5 -61.5t-60.5 -27.5v-12q108 -15 108 -112q0 -54 -46.5 -88t-130.5 -34t-130.5 34t-46.5 88zM135 613q0 -26 22 -41.5t66 -15.5q87 0 87 57q0 54 -87 54
q-88 0 -88 -54zM112 422q0 -33 26 -55.5t85 -22.5q58 0 84.5 23t26.5 55t-26.5 55t-84.5 23q-59 0 -85 -22.5t-26 -55.5z" />
    <glyph glyph-name="nine.numr" horiz-adv-x="442" 
d="M396 527q0 -114 -54.5 -180.5t-156.5 -56.5l-100 10v56l110 -10q74 -7 114.5 36.5t40.5 108.5l12 30h-12q-10 -46 -51.5 -77.5t-101.5 -31.5q-73 0 -112 43t-39 111q0 69 47.5 114t127.5 45q81 0 128 -51t47 -147zM330 567q0 45 -27 73.5t-82 28.5q-109 0 -109 -103
q0 -98 96 -98q55 0 88.5 28t33.5 71z" />
    <glyph glyph-name="colon.case" horiz-adv-x="327" 
d="M163 450q-32 0 -54.5 22.5t-22.5 55.5q0 32 22.5 54.5t54.5 22.5t55 -22.5t23 -54.5q0 -33 -23 -55.5t-55 -22.5zM163 100q-32 0 -54.5 22.5t-22.5 55.5q0 32 22.5 54.5t54.5 22.5t55 -22.5t23 -54.5q0 -33 -23 -55.5t-55 -22.5z" />
    <glyph glyph-name="bullet.case" horiz-adv-x="625" 
d="M311 126q-95 0 -160 65.5t-65 162.5q0 94 65 159.5t160 65.5q93 0 160.5 -65.5t67.5 -159.5q0 -96 -67.5 -162t-160.5 -66z" />
    <glyph glyph-name="parenleft.case" horiz-adv-x="426" 
d="M340 -12v-63q-254 55 -254 428q0 372 254 427v-63q-188 -43 -188 -364q0 -322 188 -365z" />
    <glyph glyph-name="parenright.case" horiz-adv-x="426" 
d="M86 -12q188 43 188 365q0 321 -188 364v63q254 -55 254 -427q0 -373 -254 -428v63z" />
    <glyph glyph-name="braceleft.case" horiz-adv-x="579" 
d="M271 719l-50 10v-20q102 -33 148 -98t46 -140q0 -54 -35 -121q35 -67 35 -121q0 -75 -46 -140t-148 -98v-20l50 10h222v-56h-292v97q86 38 117 90.5t31 126.5q0 29 -6 54q-59 -73 -125 -73q-55 0 -93.5 35t-38.5 95t38.5 95t93.5 35q66 0 125 -73q6 25 6 54
q0 74 -31 126.5t-117 90.5v97h292v-56h-222zM223 276q61 0 100 74q-39 74 -100 74q-31 0 -51 -21t-20 -53t20 -53t51 -21z" />
    <glyph glyph-name="braceright.case" horiz-adv-x="540" 
d="M322 220q-66 0 -125 73q-6 -25 -6 -54q0 -74 31 -126.5t117 -90.5v-97h-292v56h222l50 -10v20q-102 33 -148 98t-46 140q0 54 35 121q-35 67 -35 121q0 75 46 140t148 98v20l-50 -10h-222v56h292v-97q-86 -38 -117 -90.5t-31 -126.5q0 -29 6 -54q59 73 125 73
q55 0 93.5 -35t38.5 -95t-38.5 -95t-93.5 -35zM317 424q-61 0 -100 -74q39 -74 100 -74q31 0 51 21t20 53t-20 53t-51 21z" />
    <glyph glyph-name="bracketleft.case" horiz-adv-x="425" 
d="M86 780h253v-56h-188v-743h188v-56h-253v855z" />
    <glyph glyph-name="bracketright.case" horiz-adv-x="425" 
d="M339 780v-855h-253v56h188v743h-188v56h253z" />
    <glyph glyph-name="braceleft.ss01" horiz-adv-x="477" 
d="M86 310q164 21 164 146q0 132 -123 149v100h264v-56h-194l-50 10v-20q94 -16 131.5 -62t37.5 -118q0 -62 -39.5 -109.5t-111.5 -62.5v-20q72 -15 111.5 -63t39.5 -110q0 -71 -37.5 -116t-131.5 -62v-20l50 10h194v-56h-264v100q123 18 123 147q0 126 -164 147v66z" />
    <glyph glyph-name="braceright.ss01" horiz-adv-x="477" 
d="M391 310v-66q-164 -21 -164 -147q0 -129 123 -147v-100h-264v56h194l50 -10v20q-94 17 -131.5 62t-37.5 116q0 62 39.5 110t111.5 63v20q-72 15 -111.5 62.5t-39.5 109.5q0 72 37.5 118t131.5 62v20l-50 -10h-194v56h264v-100q-123 -17 -123 -149q0 -125 164 -146z" />
    <glyph glyph-name="braceleft.case.ss01" horiz-adv-x="477" 
d="M86 385q164 21 164 146q0 132 -123 149v100h264v-56h-194l-50 10v-20q94 -16 131.5 -62t37.5 -118q0 -62 -39.5 -109.5t-111.5 -62.5v-20q72 -15 111.5 -63t39.5 -110q0 -71 -37.5 -116t-131.5 -62v-20l50 10h194v-56h-264v100q123 18 123 147q0 126 -164 147v66z" />
    <glyph glyph-name="braceright.case.ss01" horiz-adv-x="477" 
d="M391 385v-66q-164 -21 -164 -147q0 -129 123 -147v-100h-264v56h194l50 -10v20q-94 17 -131.5 62t-37.5 116q0 62 39.5 110t111.5 63v20q-72 15 -111.5 62.5t-39.5 109.5q0 72 37.5 118t131.5 62v20l-50 -10h-194v56h264v-100q-123 -17 -123 -149q0 -125 164 -146z" />
    <glyph glyph-name="hyphen.case" horiz-adv-x="636" 
d="M86 381h464v-56h-464v56z" />
    <glyph glyph-name="endash.case" horiz-adv-x="836" 
d="M86 381h664v-56h-664v56z" />
    <glyph glyph-name="emdash.case" horiz-adv-x="1036" 
d="M86 381h864v-56h-864v56z" />
    <glyph glyph-name="guillemotleft.case" horiz-adv-x="673" 
d="M401 125l-46 -40l-269 268l269 267l46 -40l-229 -227zM587 125l-46 -40l-269 268l269 267l46 -40l-229 -227z" />
    <glyph glyph-name="guillemotright.case" horiz-adv-x="673" 
d="M86 125l229 228l-229 227l46 40l269 -267l-269 -268zM272 125l229 228l-229 227l46 40l269 -267l-269 -268z" />
    <glyph glyph-name="guilsinglleft.case" horiz-adv-x="487" 
d="M401 125l-46 -40l-269 268l269 267l46 -40l-229 -227z" />
    <glyph glyph-name="guilsinglright.case" horiz-adv-x="487" 
d="M86 125l229 228l-229 227l46 40l269 -267l-269 -268z" />
    <glyph glyph-name="ampersand.ss01" horiz-adv-x="821" 
d="M735 28l-29 -51q-69 43 -137 92q-103 -79 -247 -79q-102 0 -169 47.5t-67 132.5q0 80 44.5 126t124.5 78q-54 86 -54 154q0 87 56 137t153 50q81 0 128 -40.5t47 -114.5q0 -33 -13.5 -61.5t-34.5 -49.5t-53.5 -40t-62 -31.5t-68.5 -26.5l-1 -1h-3q83 -102 219 -206
q100 108 100 309h66q0 -215 -120 -343q48 -36 121 -82zM267 528q0 -55 48 -132q7 3 19 7q96 34 140.5 67.5t44.5 89.5q0 99 -109 99q-71 0 -107 -35t-36 -96zM322 46q120 0 201 58q-154 118 -234 222q-69 -28 -103 -63.5t-34 -92.5q0 -58 47 -91t123 -33z" />
    <glyph glyph-name="brevecombcy" horiz-adv-x="0" 
d="M-86 731q0 -76 -41.5 -121.5t-109.5 -45.5t-109.5 45.5t-41.5 121.5h56q0 -57 22 -84t73 -27t73 27t22 84h56z" />
    </font>
</defs>
</svg>
