<?xml version="1.0" standalone="no"?>
<!DOCTYPE svg PUBLIC "-//W3C//DTD SVG 1.1//EN" "http://www.w3.org/Graphics/SVG/1.1/DTD/svg11.dtd" >
<svg xmlns="http://www.w3.org/2000/svg" xmlns:xlink="http://www.w3.org/1999/xlink" version="1.1">
<metadata>
Created by FontForge 20170731 at Mon Apr  1 16:47:44 2019
 By Aleksey,,,
Copyright (c) 2019 by Mathieu Desjardins. All rights reserved.
</metadata>
<defs>
<font id="NeueMachina-Ultrabold" horiz-adv-x="1096" >
  <font-face 
    font-family="Neue Machina Ultrabold"
    font-weight="800"
    font-stretch="normal"
    units-per-em="1000"
    panose-1="0 0 9 0 0 0 0 0 0 0"
    ascent="800"
    descent="-200"
    x-height="505"
    cap-height="705"
    bbox="-604 -366 1681 1002"
    underline-thickness="50"
    underline-position="-175"
    unicode-range="U+0020-277E"
  />
<missing-glyph horiz-adv-x="483" 
d="M396 735v-965h-306v965h306zM321 670h-159v-31h63v-36h-64v-32h160v32h-63v36h63v31zM258 546h-97v-100h160v32h-63v68zM225 513v-35h-32v35h32zM321 419h-160v-31h64v-36h-64v-32h97v68h63v31zM321 362h-31v-64h-129v-33h160v97zM321 244h-96v-54h33v22h32v-45h-97v77
h-32v-109h160v109zM321 77h-160v-109h160v109zM290 45v-45h-97v45h97zM321 -54h-160v-32h68l-68 -46v-31h160v31h-98l67 46h31v32z" />
    <glyph glyph-name="f_f" unicode="ff" horiz-adv-x="835" 
d="M719 595q-36 0 -52 -18t-16 -59v-13h146v-140h-146v-225h146v-140h-767v140h122v225h-122v140h123q10 98 74.5 149t170.5 51h191q57 30 150 30h86v-140h-106zM491 505v18q0 23 3 42h-96q-39 0 -58.5 -14.5t-24.5 -45.5h176zM491 140v225h-179v-225h179z" />
    <glyph glyph-name="f_f_i" unicode="ffi" horiz-adv-x="1217" 
d="M1057 140h140v-140h-1167v140h121l1 225h-122v140h123q10 98 74.5 149t170.5 51h193q65 46 168 40l176 -10v-140l-196 10q-68 3 -68 -87v-8l299 5q42 1 64.5 -20.5t22.5 -63.5v-291zM398 565q-39 0 -58.5 -14.5t-24.5 -45.5h100l96 2v16q0 23 3 42h-116zM897 140v231
l-226 -3v-228h226zM511 140v226l-75 -1h-124v-225h199z" />
    <glyph glyph-name="f_i" unicode="fi" horiz-adv-x="832" 
d="M672 140h140v-140h-782v140h96v226l-96 -1v140l96 2v16q0 107 63 168t185 54l176 -10v-140l-196 10q-68 3 -68 -87v-8l299 5q42 1 64.5 -20.5t22.5 -63.5v-291zM512 140v231l-226 -3v-228h226z" />
    <glyph glyph-name=".notdef" horiz-adv-x="483" 
d="M396 735v-965h-306v965h306zM321 670h-159v-31h63v-36h-64v-32h160v32h-63v36h63v31zM258 546h-97v-100h160v32h-63v68zM225 513v-35h-32v35h32zM321 419h-160v-31h64v-36h-64v-32h97v68h63v31zM321 362h-31v-64h-129v-33h160v97zM321 244h-96v-54h33v22h32v-45h-97v77
h-32v-109h160v109zM321 77h-160v-109h160v109zM290 45v-45h-97v45h97zM321 -54h-160v-32h68l-68 -46v-31h160v31h-98l67 46h31v32z" />
    <glyph glyph-name=".null" horiz-adv-x="0" 
 />
    <glyph glyph-name="nonmarkingreturn" horiz-adv-x="333" 
 />
    <glyph glyph-name="space" unicode=" " horiz-adv-x="280" 
 />
    <glyph glyph-name="exclam" unicode="!" horiz-adv-x="360" 
d="M100 705h160l-30 -446h-100zM179 -10q-50 0 -79.5 31.5t-29.5 79.5q0 47 29.5 78t79.5 31q49 0 80 -31.5t31 -77.5q0 -48 -31 -79.5t-80 -31.5z" />
    <glyph glyph-name="quotedbl" unicode="&#x22;" horiz-adv-x="450" 
d="M70 775h120v-320h-120v320zM260 775h120v-320h-120v320z" />
    <glyph glyph-name="numbersign" unicode="#" horiz-adv-x="1115" 
d="M1045 405h-219l-77 -200h189v-100h-227l-98 -254l-113 44l81 210h-200l-98 -254l-113 44l81 210h-181v100h219l77 200h-189v100h228l103 269l113 -44l-87 -225h201l103 269l113 -44l-87 -225h181v-100zM619 205l77 200h-200l-77 -200h200z" />
    <glyph glyph-name="dollar" unicode="$" horiz-adv-x="791" 
d="M721 194q0 -194 -276 -204v-138h-100v141q-145 14 -210 84.5t-65 194.5h160q0 -64 26.5 -95.5t88.5 -41.5v175q-62 21 -97.5 36.5t-73.5 41t-55 60t-17 81.5q0 84 61.5 131.5t181.5 53.5v139h100v-142q123 -14 185 -81t62 -165h-160q0 84 -87 104v-146q46 -15 78 -27.5
t72.5 -34t65.5 -44t42.5 -54.5t17.5 -69zM262 523q0 -21 15.5 -34t67.5 -32v117q-83 -8 -83 -51zM445 130q116 4 116 62q0 26 -29 45.5t-87 38.5v-146z" />
    <glyph glyph-name="percent" unicode="%" horiz-adv-x="1238" 
d="M733 804l113 -44l-338 -879l-113 44zM302 281q-102 0 -167 67.5t-65 164.5t65 164.5t167 67.5t167 -67.5t65 -164.5t-65 -164.5t-167 -67.5zM302 401q49 0 80.5 32.5t31.5 79.5t-31.5 79.5t-80.5 32.5t-80.5 -32.5t-31.5 -79.5t31.5 -79.5t80.5 -32.5zM936 -70
q-102 0 -167 67.5t-65 164.5t65 164.5t167 67.5t167 -67.5t65 -164.5t-65 -164.5t-167 -67.5zM936 50q49 0 80.5 32.5t31.5 79.5t-31.5 79.5t-80.5 32.5t-80.5 -32.5t-31.5 -79.5t31.5 -79.5t80.5 -32.5z" />
    <glyph glyph-name="ampersand" unicode="&#x26;" horiz-adv-x="1011" 
d="M941 -14l-126 -86l-122 156q-109 -66 -260 -66q-168 0 -265.5 69.5t-97.5 200.5q0 95 57.5 144t132.5 49q81 0 138 -62v40l-160 205v69h546v-140h-326l243 -292q46 84 46 202h160q0 -195 -104 -324zM433 130q100 0 170 41l-60 77q-46 59 -89 84t-98 25t-90.5 -27
t-35.5 -76q0 -124 203 -124z" />
    <glyph glyph-name="quotesingle" unicode="'" horiz-adv-x="260" 
d="M70 775h120v-320h-120v320z" />
    <glyph glyph-name="parenleft" unicode="(" horiz-adv-x="451" 
d="M381 -50v-100q-156 29 -233.5 142.5t-77.5 285.5t77 285t234 142v-100q-58 -18 -97 -48.5t-59 -74.5t-27.5 -91.5t-7.5 -112.5t7.5 -112.5t27.5 -91.5t59 -75t97 -49z" />
    <glyph glyph-name="parenright" unicode=")" horiz-adv-x="451" 
d="M70 -50q58 18 97 49t59 75t27.5 91.5t7.5 112.5t-7.5 112.5t-27.5 91.5t-59 74.5t-97 48.5v100q157 -29 234 -142t77 -285t-77.5 -285.5t-233.5 -142.5v100z" />
    <glyph glyph-name="asterisk" unicode="*" horiz-adv-x="518" 
d="M50 548l31 95l97 -31l51 -39l-19 60v102h100v-102l-20 -61l50 37l97 31l31 -95l-97 -32h-64l50 -36l60 -82l-81 -59l-59 82l-20 61l-19 -59l-60 -82l-81 59l60 82l52 37l-62 1z" />
    <glyph glyph-name="plus" unicode="+" horiz-adv-x="680" 
d="M610 330v-120h-210v-210h-120v210h-210v120h210v210h120v-210h210z" />
    <glyph glyph-name="comma" unicode="," horiz-adv-x="314" 
d="M128 182l116 -31l-98 -354l-116 31z" />
    <glyph glyph-name="hyphen" unicode="-" horiz-adv-x="680" 
d="M70 330h540v-120h-540v120z" />
    <glyph glyph-name="period" unicode="." horiz-adv-x="360" 
d="M179 -10q-50 0 -79.5 31.5t-29.5 79.5q0 47 29.5 78t79.5 31q49 0 80 -31.5t31 -77.5q0 -48 -31 -79.5t-80 -31.5z" />
    <glyph glyph-name="slash" unicode="/" horiz-adv-x="551" 
d="M388 814l113 -44l-338 -879l-113 44z" />
    <glyph glyph-name="zero" unicode="0" horiz-adv-x="759" 
d="M380 715q158 0 248.5 -99t90.5 -263t-90.5 -263.5t-248.5 -99.5t-249 99.5t-91 263.5t91 263t249 99zM380 575q-86 0 -133 -57t-47 -165q0 -50 11 -92l269 287q-40 27 -100 27zM380 130q86 0 132.5 57t46.5 166q0 50 -11 92l-269 -287q41 -28 101 -28z" />
    <glyph glyph-name="one" unicode="1" horiz-adv-x="580" 
d="M30 425q99 39 139 100t40 180h311v-705h-160v575l30 90h-40q-4 -61 -11 -104.5t-24.5 -90t-45 -79.5t-73.5 -62t-110 -49z" />
    <glyph glyph-name="two" unicode="2" horiz-adv-x="696" 
d="M40 382q0 86 25.5 151.5t72 104.5t105.5 58t130 19q128 0 205.5 -62t77.5 -175q0 -55 -16.5 -97.5t-50.5 -73t-76 -52.5t-104.5 -39t-123.5 -29.5t-144 -27.5l-51 -9v-40l100 30h466v-140h-606v280q169 23 251 48q195 58 195 157q0 38 -29 64t-92 26q-91 0 -133 -46
t-42 -147h-160z" />
    <glyph glyph-name="three" unicode="3" horiz-adv-x="712" 
d="M30 269h160q0 -82 36.5 -110.5t132.5 -28.5q77 0 110 19t33 62q0 82 -97 82h-98v140h98q87 0 87 71q0 37 -29.5 54t-103.5 17q-92 0 -125.5 -23.5t-33.5 -85.5h-160q0 129 86.5 189t232.5 60q132 0 212.5 -49t80.5 -142q0 -38 -12.5 -64t-38.5 -41t-51 -22t-65 -14v-40
q34 -5 54 -8.5t46.5 -14t41 -25.5t25 -41.5t10.5 -62.5q0 -100 -84.5 -150.5t-218.5 -50.5q-71 0 -128 14t-103.5 45.5t-72 87t-25.5 132.5z" />
    <glyph glyph-name="four" unicode="4" horiz-adv-x="695" 
d="M655 259v-140h-77v-119h-160v119h-368v291q127 20 200.5 95.5t82.5 199.5h160q-8 -174 -111.5 -285.5t-291.5 -150.5v-40l100 30h228v156h160v-156h77z" />
    <glyph glyph-name="five" unicode="5" horiz-adv-x="732" 
d="M40 259h160q0 -65 40 -97t132 -32q82 0 116 32t34 100q0 113 -112 113q-87 0 -146 -75l-180 104v301h542v-140h-382v-101l-30 -90l33 -19q55 160 211 160q97 0 160.5 -66t63.5 -183q0 -140 -82 -208t-228 -68q-149 0 -240.5 66t-91.5 203z" />
    <glyph glyph-name="six" unicode="6" horiz-adv-x="723" 
d="M50 347q0 85 19.5 153.5t60 120.5t109 77t160.5 17l237 -20v-140l-237 20q-100 9 -157 -26.5t-79 -131.5l-40 -90h40q9 87 79.5 137.5t171.5 50.5q131 0 205 -68.5t74 -189.5q0 -119 -86.5 -193t-234.5 -74q-150 0 -236 89.5t-86 267.5zM210 247q0 -50 41.5 -83.5
t120.5 -33.5q84 0 122.5 29t38.5 98q0 61 -38 89.5t-119 28.5q-166 0 -166 -128z" />
    <glyph glyph-name="seven" unicode="7" horiz-adv-x="609" 
d="M114 0q0 221 111 358t314 197v40l-90 -30h-419v140h549v-231q-159 -65 -227 -172.5t-68 -301.5h-170z" />
    <glyph glyph-name="eight" unicode="8" horiz-adv-x="689" 
d="M20 198q0 84 56 121.5t151 48.5v40q-167 15 -167 144q0 46 24.5 79t66.5 50.5t90 25.5t104 8t103.5 -8t89.5 -25.5t66.5 -50.5t24.5 -79q0 -129 -167 -144v-40q91 -10 149 -51t58 -119q0 -107 -86 -157.5t-238 -50.5q-153 0 -239 50.5t-86 157.5zM220 516
q0 -32 29.5 -45.5t95.5 -13.5q65 0 94.5 13.5t29.5 45.5q0 31 -30 45t-94 14q-65 0 -95 -14t-30 -45zM180 223q0 -48 39.5 -70.5t125.5 -22.5t125 22.5t39 70.5q0 94 -164 94q-165 0 -165 -94z" />
    <glyph glyph-name="nine" unicode="9" horiz-adv-x="723" 
d="M673 358q0 -85 -19.5 -153.5t-60 -120.5t-109 -77t-160.5 -17l-237 20v140l237 -20q100 -9 157 26.5t79 131.5l40 90h-40q-9 -87 -79.5 -137.5t-171.5 -50.5q-131 0 -205 68.5t-74 189.5q0 119 86.5 193t234.5 74q150 0 236 -89.5t86 -267.5zM513 458q0 50 -41.5 83.5
t-120.5 33.5q-84 0 -122.5 -29t-38.5 -98q0 -61 38 -89.5t119 -28.5q166 0 166 128z" />
    <glyph glyph-name="colon" unicode=":" horiz-adv-x="360" 
d="M179 295q-50 0 -79.5 31.5t-29.5 79.5q0 47 29.5 78t79.5 31q49 0 80 -31.5t31 -77.5q0 -48 -31 -79.5t-80 -31.5zM179 -10q-50 0 -79.5 31.5t-29.5 79.5q0 47 29.5 78t79.5 31q49 0 80 -31.5t31 -77.5q0 -48 -31 -79.5t-80 -31.5z" />
    <glyph glyph-name="semicolon" unicode=";" horiz-adv-x="390" 
d="M209 295q-50 0 -79.5 31.5t-29.5 79.5q0 47 29.5 78t79.5 31q49 0 80 -31.5t31 -77.5q0 -48 -31 -79.5t-80 -31.5zM128 182l116 -31l-98 -354l-116 31z" />
    <glyph glyph-name="less" unicode="&#x3c;" horiz-adv-x="687" 
d="M70 187v120l509 198l38 -114l-407 -144l407 -133l-38 -114z" />
    <glyph glyph-name="equal" unicode="=" horiz-adv-x="680" 
d="M70 440h540v-120h-540v120zM70 220h540v-120h-540v120z" />
    <glyph glyph-name="greater" unicode="&#x3e;" horiz-adv-x="687" 
d="M617 187l-509 -187l-38 114l407 133l-407 144l38 114l509 -198v-120z" />
    <glyph glyph-name="question" unicode="?" horiz-adv-x="545" 
d="M50 540q0 91 58.5 148t178.5 57q107 0 157.5 -48t50.5 -113q0 -57 -31 -98.5t-87 -65t-109.5 -35.5t-123.5 -19v-34l76 27h228v-100h-344v198q76 2 134 13.5t97.5 39.5t39.5 70q0 65 -90 65q-115 0 -115 -105h-120zM275 -10q-50 0 -79.5 31.5t-29.5 79.5q0 47 29.5 78
t79.5 31q49 0 80 -31.5t31 -77.5q0 -48 -31 -79.5t-80 -31.5z" />
    <glyph glyph-name="at" unicode="@" horiz-adv-x="1106" 
d="M180 281q0 -84 28 -155.5t78 -121.5t123.5 -75t158.5 -16l386 40v-100l-386 -40q-134 -14 -248 41t-182 168t-68 259q0 150 69 260.5t180.5 164t248.5 53.5q207 0 337.5 -115t130.5 -313q0 -137 -62.5 -224t-178.5 -87h-54q-55 0 -55 65v10l30 80h-40q-15 -69 -66 -110
t-125 -41q-101 0 -161 69.5t-60 188.5q0 118 60 187.5t161 69.5q74 0 125 -41t66 -110h40l-30 90v51h120v-409h23q97 0 97 211q0 161 -91.5 244.5t-266.5 83.5q-173 0 -280.5 -107.5t-107.5 -270.5zM508 124q124 0 124 158q0 157 -124 157t-124 -157q0 -158 124 -158z" />
    <glyph glyph-name="A" unicode="A" horiz-adv-x="777" 
d="M595 0l-64 226h-286l-63 -226h-162l203 705h330l204 -705h-162zM284 366h208l-84 299h-40z" />
    <glyph glyph-name="B" unicode="B" horiz-adv-x="701" 
d="M60 0v705h248q155 0 223 -36.5t68 -136.5q0 -27 -6.5 -49t-13.5 -36t-24 -24.5t-26 -15.5t-33.5 -9t-32 -4.5t-33.5 -2.5v-40q40 -1 65 -4t58 -12.5t52 -26t32.5 -47.5t13.5 -74q0 -47 -17.5 -81t-45.5 -54t-72.5 -32t-90 -16t-105.5 -4h-260zM220 437h108q25 0 37 0.5
t29.5 3.5t25 9.5t13.5 19t6 31.5t-6 31.5t-13.5 19t-25 9.5t-29.5 3.5t-37 0.5h-108v-128zM220 140h120q36 0 53 0.5t40.5 4.5t33 12t17 23t7.5 38t-7.5 38.5t-17 23.5t-33 12t-40.5 4.5t-53 0.5h-120v-157z" />
    <glyph glyph-name="C" unicode="C" horiz-adv-x="810" 
d="M50 353q0 157 98.5 259.5t263.5 102.5q147 0 239.5 -75.5t108.5 -206.5h-160q-12 68 -62 105t-124 37q-94 0 -149 -57.5t-55 -164.5t55 -165t149 -58q74 0 124 37.5t62 105.5h160q-16 -132 -108.5 -207.5t-239.5 -75.5q-165 0 -263.5 102.5t-98.5 260.5z" />
    <glyph glyph-name="D" unicode="D" horiz-adv-x="754" 
d="M320 705q63 0 113 -7t102.5 -29.5t88 -60t58 -102.5t22.5 -153t-22.5 -153t-58 -102.5t-88 -60.5t-102.5 -30t-113 -7h-260v705h260zM320 140q32 0 52.5 1t46.5 5.5t42 13t33.5 24.5t27.5 38t16 55t6 76q0 59 -12 99.5t-30 62.5t-50.5 33.5t-59.5 14t-72 2.5h-100v-425
h100z" />
    <glyph glyph-name="E" unicode="E" horiz-adv-x="603" 
d="M60 0v705h503v-140h-343v-142h293v-140h-293v-143h343v-140h-503z" />
    <glyph glyph-name="F" unicode="F" horiz-adv-x="603" 
d="M60 0v705h503v-140h-343v-203l320 20v-142l-320 -20v-220h-160z" />
    <glyph glyph-name="G" unicode="G" horiz-adv-x="889" 
d="M50 353q0 160 100.5 261t254.5 101q133 0 226 -73t109 -189h-160q-12 63 -54 92.5t-121 29.5q-195 0 -195 -222q0 -116 42.5 -169.5t130.5 -53.5q73 0 114.5 36.5t41.5 106.5h-163v120h368q85 0 85 -85v-308h-160v243l30 110h-40q-1 -172 -71 -267.5t-211 -95.5
q-155 0 -241 99t-86 264z" />
    <glyph glyph-name="H" unicode="H" horiz-adv-x="794" 
d="M574 705h160v-705h-160v273h-354v-273h-160v705h160v-292h354v292z" />
    <glyph glyph-name="I" unicode="I" horiz-adv-x="580" 
d="M530 565h-160v-425h160v-140h-480v140h160v425h-160v140h480v-140z" />
    <glyph glyph-name="J" unicode="J" horiz-adv-x="535" 
d="M199 -10l-179 10v140l179 -10q34 -2 58 6.5t37 23t20 42.5t9 54t2 68v251l-212 -10v140l287 10q41 1 63 -21t22 -64v-360q0 -157 -61.5 -223t-224.5 -57z" />
    <glyph glyph-name="K" unicode="K" horiz-adv-x="769" 
d="M749 705l-425 -353l425 -352h-234l-295 249v-249h-160v705h160v-250l295 250h234z" />
    <glyph glyph-name="L" unicode="L" horiz-adv-x="583" 
d="M146 -10q-41 -1 -63.5 21t-22.5 63v631h160v-575l343 10v-140z" />
    <glyph glyph-name="M" unicode="M" horiz-adv-x="996" 
d="M60 0v705h315l103 -665h40l103 665h315v-705h-160v565l30 100h-40l-113 -665h-310l-113 665h-40l30 -100v-565h-160z" />
    <glyph glyph-name="N" unicode="N" horiz-adv-x="818" 
d="M60 0v705h315l213 -665h40l-30 100v565h160v-705h-315l-213 665h-40l30 -100v-565h-160z" />
    <glyph glyph-name="O" unicode="O" horiz-adv-x="819" 
d="M50 353q0 157 98 259.5t262 102.5t261.5 -102.5t97.5 -259.5q0 -158 -97.5 -260.5t-261.5 -102.5q-165 0 -262.5 102.5t-97.5 260.5zM210 353q0 -104 51 -163.5t149 -59.5t148.5 59.5t50.5 163.5t-50.5 163t-148.5 59t-149 -59t-51 -163z" />
    <glyph glyph-name="P" unicode="P" horiz-adv-x="667" 
d="M313 705q74 0 125.5 -9t97 -34t68.5 -76t23 -128q0 -63 -16 -108t-42.5 -72t-68.5 -42.5t-85 -20.5t-102 -5h-93v-210h-160v705h253zM323 350q79 0 111.5 19.5t32.5 88.5q0 68 -32.5 87.5t-111.5 19.5h-103v-215h103z" />
    <glyph glyph-name="Q" unicode="Q" horiz-adv-x="835" 
d="M556 -30q130 10 359 -20v-140q-216 27 -357.5 25t-337.5 -30l-13 130q2 0 38.5 3.5t45.5 4.5t43 5.5t48.5 7.5t44.5 9.5t48.5 13t42 16t43.5 20.5l-22 36q-61 -51 -177 -51q-129 0 -220.5 98t-91.5 255q0 156 102.5 259t267.5 103q167 0 268 -100t101 -262
q0 -139 -65 -233t-168 -150zM420 130q99 0 154 60t55 163q0 102 -55 162t-154 60t-154.5 -60t-55.5 -162q0 -103 55.5 -163t154.5 -60z" />
    <glyph glyph-name="R" unicode="R" horiz-adv-x="716" 
d="M60 0v705h273q314 0 314 -197q0 -137 -179 -158v-40h103q85 0 85 -85v-225h-160v248h-276v-248h-160zM220 388h113q37 0 53.5 0.5t40.5 5t34 13.5t18 26t8 43t-8 43.5t-18 26.5t-34 13.5t-40.5 5t-53.5 0.5h-113v-177z" />
    <glyph glyph-name="S" unicode="S" horiz-adv-x="711" 
d="M681 194q0 -96 -73 -150t-229 -54q-184 0 -266.5 71.5t-82.5 210.5h160q0 -80 43.5 -111t150.5 -31q137 0 137 62q0 22 -24 40.5t-51 29t-84 29.5q-6 2 -10 3t-9.5 3t-10.5 4q-50 17 -73 25.5t-62 25t-57.5 31t-39.5 36.5t-29.5 49t-8.5 61q0 90 70.5 138t206.5 48
q155 0 234 -69.5t79 -180.5h-160q0 110 -153 110q-117 0 -117 -52q0 -24 23 -39t107 -43q140 -48 188 -71q141 -71 141 -176z" />
    <glyph glyph-name="T" unicode="T" horiz-adv-x="681" 
d="M651 705v-140h-230v-565h-160v565h-231v140h621z" />
    <glyph glyph-name="U" unicode="U" horiz-adv-x="717" 
d="M40 262v443h160v-372q0 -44 2.5 -70.5t11 -54.5t25.5 -43.5t46.5 -25t72.5 -9.5q54 0 87 13t48 42.5t19.5 61.5t4.5 86v372h160v-443q0 -132 -81.5 -202t-237.5 -70t-237 69.5t-81 202.5z" />
    <glyph glyph-name="V" unicode="V" horiz-adv-x="777" 
d="M20 705h162l186 -665h40l187 665h162l-204 -705h-330z" />
    <glyph glyph-name="W" unicode="W" horiz-adv-x="1168" 
d="M20 705h155l112 -665h40l87 665h340l87 -665h40l112 665h155l-121 -705h-332l-91 665h-40l-91 -665h-332z" />
    <glyph glyph-name="X" unicode="X" horiz-adv-x="789" 
d="M20 0l238 333v40l-238 332h184l190 -270l191 270h184l-239 -332v-40l239 -333h-184l-191 271l-190 -271h-184z" />
    <glyph glyph-name="Y" unicode="Y" horiz-adv-x="723" 
d="M532 705h171l-262 -478v-227h-160v227l-261 478h171l150 -294v-90h40v90z" />
    <glyph glyph-name="Z" unicode="Z" horiz-adv-x="667" 
d="M40 0v295l547 260v40l-90 -30h-457v140h587v-295l-547 -260v-40l90 30h457v-140h-587z" />
    <glyph glyph-name="bracketleft" unicode="[" horiz-adv-x="461" 
d="M70 705h321v-100h-200v-655h200v-100h-321v855z" />
    <glyph glyph-name="backslash" unicode="\" horiz-adv-x="551" 
d="M163 814l338 -879l-113 -44l-338 879z" />
    <glyph glyph-name="bracketright" unicode="]" horiz-adv-x="461" 
d="M391 705v-855h-321v100h200v655h-200v100h321z" />
    <glyph glyph-name="asciicircum" unicode="^" horiz-adv-x="571" 
d="M373 366l-67 299h-40l-68 -299h-128l96 339h240l95 -339h-128z" />
    <glyph glyph-name="underscore" unicode="_" horiz-adv-x="640" 
d="M50 -20h540v-120h-540v120z" />
    <glyph glyph-name="grave" unicode="`" horiz-adv-x="557" 
d="M487 669l-27 -114l-390 86l27 114z" />
    <glyph glyph-name="a" unicode="a" horiz-adv-x="644" 
d="M40 138q0 67 46 105.5t156 53.5l159 22q0 66 -101 66q-48 0 -74 -19t-26 -54h-150q0 94 70.5 148.5t179.5 54.5q113 0 187 -58t74 -175v-142h73v-140h-111q-36 0 -55.5 19.5t-19.5 55.5v10l25 60h-40q-16 -72 -63.5 -113.5t-145.5 -41.5q-55 0 -94 15t-57 40t-25.5 47.5
t-7.5 45.5zM200 168q0 -38 55 -38q67 0 106.5 26.5t39.5 72.5l-129 -18q-40 -6 -56 -14.5t-16 -28.5z" />
    <glyph glyph-name="b" unicode="b" horiz-adv-x="688" 
d="M60 0v735h160v-261l-30 -90h40q23 60 68.5 95.5t130.5 35.5q105 0 162 -74.5t57 -187.5t-57 -188t-162 -75q-85 0 -130.5 35.5t-68.5 95.5h-40l30 -90v-31h-160zM220 253q0 -123 134 -123t134 123q0 122 -134 122t-134 -122z" />
    <glyph glyph-name="c" unicode="c" horiz-adv-x="627" 
d="M40 253q0 123 76 192.5t200 69.5q110 0 188 -58t83 -161h-160q-5 35 -34.5 57t-76.5 22q-56 0 -86 -32t-30 -90q0 -59 29.5 -91t86.5 -32q47 0 76.5 22t34.5 57h160q-5 -103 -83 -161t-188 -58q-124 0 -200 69.5t-76 193.5z" />
    <glyph glyph-name="d" unicode="d" horiz-adv-x="688" 
d="M628 0h-160v31l30 90h-40q-23 -60 -68.5 -95.5t-130.5 -35.5q-105 0 -162 75t-57 188t57 187.5t162 74.5q85 0 130.5 -35.5t68.5 -95.5h40l-30 90v261h160v-735zM468 253q0 122 -134 122t-134 -122q0 -123 134 -123t134 123z" />
    <glyph glyph-name="e" unicode="e" horiz-adv-x="631" 
d="M40 259q0 118 73.5 187t192.5 69t193 -66.5t74 -179.5v-50h-383q0 -45 33.5 -72t99.5 -27q43 0 72 15t36 43h160q-4 -29 -22 -60.5t-49.5 -60.5t-83 -48t-113.5 -19q-138 0 -210.5 77t-72.5 192zM190 309h233q0 32 -27.5 54t-89.5 22t-89 -21.5t-27 -54.5z" />
    <glyph glyph-name="f" unicode="f" horiz-adv-x="470" 
d="M354 595q-36 0 -52 -18t-16 -59v-13h146v-140h-146v-225h146v-140h-402v140h96v225h-96v140h96v18q0 212 248 212h86v-140h-106z" />
    <glyph glyph-name="g" unicode="g" horiz-adv-x="706" 
d="M652 505h44v-140h-34q-33 0 -47 -9q14 -19 14 -58q0 -68 -58.5 -116t-169.5 -86q62 4 109.5 -6t80 -41.5t32.5 -82.5q0 -37 -14 -64t-46.5 -45.5t-73 -29.5t-108 -17t-136.5 -8t-172 -2v140q252 0 320.5 10t68.5 50q0 25 -28 36.5t-76 9t-102 -10t-115 -17.5l-15 -3
l-17 90q210 22 311 46v40q-70 -25 -137.5 -31t-122 7t-87.5 52t-33 99q0 96 79.5 146.5t205.5 50.5q127 0 200 -54q34 44 127 44zM335 241q134 0 134 67t-134 67q-135 0 -135 -67t135 -67z" />
    <glyph glyph-name="h" unicode="h" horiz-adv-x="678" 
d="M421 515q98 0 152.5 -63t54.5 -179v-273h-160v248q0 69 -23.5 98t-80.5 29q-70 0 -107 -43.5t-37 -144.5v-187h-160v735h160v-291l-30 -90h40q16 72 65 116.5t126 44.5z" />
    <glyph glyph-name="i" unicode="i" horiz-adv-x="500" 
d="M247 555q-45 0 -69.5 20.5t-24.5 59.5q0 38 25 59t69 21q45 0 70.5 -21t25.5 -59t-25.5 -59t-70.5 -21zM40 0v140h143v231l-123 -6v140l190 10q42 2 64.5 -20t22.5 -64v-291h143v-140h-440z" />
    <glyph glyph-name="j" unicode="j" horiz-adv-x="347" 
d="M206 555q-45 0 -69.5 20.5t-24.5 59.5q0 38 25 59t69 21q45 0 70.5 -21t25.5 -59t-25.5 -59t-70.5 -21zM10 -200l106 174q17 27 17 68v329l-123 -6v140l203 7q41 1 63.5 -20.5t22.5 -62.5v-399q0 -37 -17 -68l-92 -162h-180z" />
    <glyph glyph-name="k" unicode="k" horiz-adv-x="669" 
d="M457 0l-126 195l-111 -52v-143h-160v735h160v-427l231 106l-2 91h160v-110q0 -70 -63 -100l-78 -36l171 -259h-182z" />
    <glyph glyph-name="l" unicode="l" horiz-adv-x="490" 
d="M30 0v140h140v461l-120 -6v140l193 7q42 1 64.5 -20.5t22.5 -63.5v-518h140v-140h-440z" />
    <glyph glyph-name="m" unicode="m" horiz-adv-x="954" 
d="M736 515q168 0 168 -252v-263h-160v252q0 72 -15.5 97.5t-59.5 25.5q-61 0 -84 -49t-23 -149v-177h-160v252q0 72 -15.5 97.5t-59.5 25.5q-61 0 -84 -49t-23 -149v-177h-160v505h160v-51l-30 -90h40q34 151 164 151q124 0 150 -151h29q34 151 163 151z" />
    <glyph glyph-name="n" unicode="n" horiz-adv-x="678" 
d="M364 375q-70 0 -107 -43.5t-37 -144.5v-187h-160v505h160v-61l-30 -90h40q16 72 65 116.5t126 44.5q98 0 152.5 -63t54.5 -179v-273h-160v248q0 69 -23.5 98t-80.5 29z" />
    <glyph glyph-name="o" unicode="o" horiz-adv-x="649" 
d="M40 253q0 127 80 194.5t205 67.5t204.5 -67.5t79.5 -194.5t-79.5 -195t-204.5 -68t-205 67.5t-80 195.5zM200 253q0 -62 33 -92.5t92 -30.5q58 0 91 30.5t33 92.5q0 61 -33 91.5t-91 30.5q-59 0 -92 -30.5t-33 -91.5z" />
    <glyph glyph-name="p" unicode="p" horiz-adv-x="688" 
d="M60 505h160v-31l-30 -90h40q23 60 68.5 95.5t130.5 35.5q105 0 162 -75t57 -188t-57 -187.5t-162 -74.5q-85 0 -130.5 35.5t-68.5 95.5h-40l30 -90v-221h-160v695zM220 252q0 -122 134 -122t134 122q0 123 -134 123t-134 -123z" />
    <glyph glyph-name="q" unicode="q" horiz-adv-x="688" 
d="M628 505v-695h-160v221l30 90h-40q-23 -60 -68.5 -95.5t-130.5 -35.5q-105 0 -162 74.5t-57 187.5t57 188t162 75q85 0 130.5 -35.5t68.5 -95.5h40l-30 90v31h160zM468 252q0 123 -134 123t-134 -123q0 -122 134 -122t134 122z" />
    <glyph glyph-name="r" unicode="r" horiz-adv-x="487" 
d="M60 0v429q0 41 22.5 63t63.5 21l331 -8v-140l-257 6v-371h-160z" />
    <glyph glyph-name="s" unicode="s" horiz-adv-x="551" 
d="M531 139q0 -149 -235 -149q-135 0 -200.5 50.5t-65.5 142.5h160q0 -73 111 -73q70 0 70 34q0 17 -17 26t-74 28l-18 6q-5 2 -35 11.5t-38.5 12.5t-33.5 13t-34 17t-26 20t-23.5 25.5t-12.5 30.5t-6 39q0 67 58 104.5t162 37.5q121 0 181 -51.5t60 -131.5h-160
q0 28 -21 45.5t-61 17.5q-59 0 -59 -29q0 -16 27.5 -28.5t102.5 -36.5q99 -32 131 -54q57 -38 57 -108z" />
    <glyph glyph-name="t" unicode="t" horiz-adv-x="506" 
d="M290 130l186 10v-140l-261 -10q-41 -1 -63 21t-22 64v290h-120v140h120v95l160 50v-145h166v-140h-166v-235z" />
    <glyph glyph-name="u" unicode="u" horiz-adv-x="668" 
d="M314 130q70 0 107 43.5t37 144.5v187h160v-505h-160v61l30 90h-40q-16 -72 -65 -116.5t-126 -44.5q-98 0 -152.5 63t-54.5 179v273h160v-248q0 -69 23.5 -98t80.5 -29z" />
    <glyph glyph-name="v" unicode="v" horiz-adv-x="607" 
d="M439 505h158l-128 -505h-330l-129 505h158l116 -465h40z" />
    <glyph glyph-name="w" unicode="w" horiz-adv-x="948" 
d="M10 505h153l65 -465h40l39 465h334l39 -465h40l66 465h152l-71 -505h-334l-39 465h-40l-39 -465h-334z" />
    <glyph glyph-name="x" unicode="x" horiz-adv-x="674" 
d="M30 0l192 233v40l-192 232h190l117 -162l117 162h190l-192 -232v-40l192 -233h-190l-117 163l-117 -163h-190z" />
    <glyph glyph-name="y" unicode="y" horiz-adv-x="672" 
d="M471 505h181l-231 -475v-156q0 -42 -22.5 -64t-63.5 -20l-247 7v140l173 -3v96l-231 475h180l111 -278v-80h40v80z" />
    <glyph glyph-name="z" unicode="z" horiz-adv-x="577" 
d="M40 0v270l457 85v40l-90 -30h-367v140h497v-270l-457 -85v-40l90 30h367v-140h-497z" />
    <glyph glyph-name="braceleft" unicode="{" horiz-adv-x="664" 
d="M362 605l-90 30v-40q127 -31 177.5 -70t50.5 -128q0 -52 -34 -117q34 -65 34 -117q0 -89 -50.5 -128t-177.5 -70v-40l90 30h222v-100h-352v171q87 27 127.5 62t40.5 103q-73 -73 -151 -73q-76 0 -122.5 43t-46.5 119q0 78 44 120t125 42q78 0 151 -73q0 68 -40.5 103
t-127.5 62v171h352v-100h-222zM268 208q24 0 51 20.5t48 51.5q-21 31 -48 51.5t-51 20.5q-29 0 -48.5 -19t-19.5 -53t19.5 -53t48.5 -19z" />
    <glyph glyph-name="bar" unicode="|" horiz-adv-x="260" 
d="M70 853h120v-1001h-120v1001z" />
    <glyph glyph-name="braceright" unicode="}" horiz-adv-x="644" 
d="M574 280q0 -76 -46.5 -119t-122.5 -43q-78 0 -151 73q0 -68 40.5 -103t127.5 -62v-171h-352v100h222l90 -30v40q-127 31 -177.5 70t-50.5 128q0 52 34 117q-34 65 -34 117q0 89 50.5 128t177.5 70v40l-90 -30h-222v100h352v-171q-87 -27 -127.5 -62t-40.5 -103
q73 73 151 73q81 0 125 -42t44 -120zM287 280q21 -31 48 -51.5t51 -20.5q29 0 48.5 19t19.5 53t-19.5 53t-48.5 19q-24 0 -51 -20.5t-48 -51.5z" />
    <glyph glyph-name="asciitilde" unicode="~" horiz-adv-x="668" 
d="M70 170q0 94 38 147t104 53q42 0 85 -20t78 -40t56 -20q25 0 36 18t11 62h120q0 -94 -38 -147t-104 -53q-42 0 -85 20t-78 40t-56 20q-25 0 -36 -18t-11 -62h-120z" />
    <glyph glyph-name="exclamdown" unicode="&#xa1;" horiz-adv-x="361" 
d="M180 515q49 0 80 -31.5t31 -79.5q0 -46 -31 -77.5t-80 -31.5q-50 0 -79.5 31t-29.5 78q0 48 29.5 79.5t79.5 31.5zM101 -200l30 446h100l30 -446h-160z" />
    <glyph glyph-name="cent" unicode="&#xa2;" horiz-adv-x="687" 
d="M393 242q58 19 64 72h160q-4 -92 -67 -148t-157 -68v-246l-98 1v245q-103 15 -164 82.5t-61 177.5q0 109 60.5 176.5t162.5 81.5v237l99 -1v-235q94 -12 157.5 -68t67.5 -148h-160q-3 25 -20 44t-45 28zM230 358q0 -88 64 -114v227q-64 -26 -64 -113z" />
    <glyph glyph-name="sterling" unicode="&#xa3;" horiz-adv-x="678" 
d="M368 565q-55 3 -83.5 -7.5t-28.5 -41.5q0 -17 10 -36t17 -27l28 -32h257v-100h-202q2 -16 2 -27q0 -23 -8.5 -42t-19 -31.5t-34 -23.5t-39.5 -17t-49.5 -12.5t-51 -9.5t-56.5 -8v-40l90 30h408v-140h-538v209q80 20 108.5 40.5t29.5 71.5h-138v100h83q-18 19 -28 33
t-19.5 40t-9.5 57q0 58 46.5 95t107.5 49.5t128 9.5l230 -10v-140z" />
    <glyph glyph-name="currency" unicode="&#xa4;" horiz-adv-x="776" 
d="M623 352q0 -71 -36 -129l119 -119l-70 -70l-120 120q-54 -34 -125 -34q-73 0 -129 36l-122 -122l-70 70l123 123q-34 56 -34 125t34 125l-123 123l70 70l122 -122q56 36 129 36q71 0 125 -34l120 120l70 -70l-119 -119q36 -58 36 -129zM391 240q49 0 80.5 32.5t31.5 79.5
t-31.5 79.5t-80.5 32.5t-80.5 -32.5t-31.5 -79.5t31.5 -79.5t80.5 -32.5z" />
    <glyph glyph-name="yen" unicode="&#xa5;" horiz-adv-x="823" 
d="M753 705l-210 -384h138v-100h-190v-40h190v-100h-190v-81h-160v81h-190v100h190v40h-190v100h139l-210 384h171l150 -294v-90h40v90l151 294h171z" />
    <glyph glyph-name="brokenbar" unicode="&#xa6;" horiz-adv-x="260" 
d="M70 483v370h120v-370h-120zM190 222v-370h-120v370h120z" />
    <glyph glyph-name="section" unicode="&#xa7;" horiz-adv-x="618" 
d="M70 356q0 34 23 62.5t74 40.5q-56 24 -76.5 50t-20.5 64q0 67 58 104.5t162 37.5q121 0 181 -51.5t60 -131.5h-160q0 28 -21 45.5t-61 17.5q-59 0 -59 -28q0 -19 35 -33t95 -31q42 -14 59 -20t48 -20.5t44.5 -28t25 -36t11.5 -49.5q0 -34 -23 -62.5t-74 -40.5
q56 -24 76.5 -50t20.5 -64q0 -67 -58 -104.5t-162 -37.5q-121 0 -181 51.5t-60 131.5h160q0 -28 21 -45.5t61 -17.5q59 0 59 28q0 19 -35 33t-95 31q-42 14 -59 20t-48 20.5t-44.5 28t-25 36t-11.5 49.5zM220 373q0 -41 85 -68q93 -30 93 26q0 23 -21 37t-65 30
q-92 33 -92 -25z" />
    <glyph glyph-name="dieresis" unicode="&#xa8;" horiz-adv-x="600" 
d="M169 555q-99 0 -99 80q0 38 25.5 59t73.5 21t74.5 -21t26.5 -59q0 -39 -26.5 -59.5t-74.5 -20.5zM429 555q-99 0 -99 80q0 38 25.5 59t73.5 21t74.5 -21t26.5 -59q0 -39 -26.5 -59.5t-74.5 -20.5z" />
    <glyph glyph-name="copyright" unicode="&#xa9;" horiz-adv-x="1136" 
d="M568 -217q-225 0 -361.5 143t-136.5 355t136.5 355t361.5 143t361.5 -143t136.5 -355t-136.5 -355t-361.5 -143zM568 -117q179 0 288.5 115.5t109.5 282.5t-109.5 282.5t-288.5 115.5t-288.5 -115.5t-109.5 -282.5t109.5 -282.5t288.5 -115.5zM295 282q0 123 76 192.5
t200 69.5q110 0 188 -58t83 -161h-160q-5 35 -34.5 57t-76.5 22q-56 0 -86 -32t-30 -90q0 -59 29.5 -91t86.5 -32q47 0 76.5 22t34.5 57h160q-5 -103 -83 -161t-188 -58q-124 0 -200 69.5t-76 193.5z" />
    <glyph glyph-name="guillemotleft" unicode="&#xab;" horiz-adv-x="847" 
d="M477 10l-88 -80l-319 318l319 317l88 -80l-237 -237zM777 10l-88 -80l-319 318l319 317l88 -80l-237 -237z" />
    <glyph glyph-name="logicalnot" unicode="&#xac;" horiz-adv-x="680" 
d="M610 415v-269h-120v149h-420v120h540z" />
    <glyph glyph-name="registered" unicode="&#xae;" horiz-adv-x="732" 
d="M366 217q-136 0 -216 84.5t-80 211.5t80 211.5t216 84.5t216 -84.5t80 -211.5t-80 -211.5t-216 -84.5zM366 297q100 0 158 62.5t58 153.5t-58 153.5t-158 62.5t-158 -62.5t-58 -153.5t58 -153.5t158 -62.5zM237 375v281h124q34 0 63.5 -5.5t55 -25t25.5 -51.5
q0 -35 -23 -48.5t-62 -17.5v-20h60q25 0 25 -25v-88h-76v78h-116v-78h-76zM313 529h48q20 0 29 0.5t20 2.5t15 8t4 15q0 17 -15 21t-53 4h-48v-51z" />
    <glyph glyph-name="macron" unicode="&#xaf;" horiz-adv-x="570" 
d="M70 720h430v-118l-430 -2v120z" />
    <glyph glyph-name="degree" unicode="&#xb0;" horiz-adv-x="604" 
d="M302 281q-102 0 -167 67.5t-65 164.5t65 164.5t167 67.5t167 -67.5t65 -164.5t-65 -164.5t-167 -67.5zM302 401q49 0 80.5 32.5t31.5 79.5t-31.5 79.5t-80.5 32.5t-80.5 -32.5t-31.5 -79.5t31.5 -79.5t80.5 -32.5z" />
    <glyph glyph-name="plusminus" unicode="&#xb1;" horiz-adv-x="680" 
d="M400 440h210v-120h-210v-140h-120v140h-210v120h210v139h120v-139zM70 0v120h540v-120h-540z" />
    <glyph glyph-name="acute" unicode="&#xb4;" horiz-adv-x="557" 
d="M70 669l390 86l27 -114l-390 -86z" />
    <glyph glyph-name="paragraph" unicode="&#xb6;" horiz-adv-x="744" 
d="M373 853h120v-1001h-120v503q-167 0 -235 66.5t-68 182.5t68 182.5t235 66.5zM554 853h120v-1001h-120v1001z" />
    <glyph glyph-name="periodcentered" unicode="&#xb7;" horiz-adv-x="360" 
d="M179 143q-50 0 -79.5 31.5t-29.5 79.5q0 47 29.5 78t79.5 31q49 0 80 -31.5t31 -77.5q0 -48 -31 -79.5t-80 -31.5z" />
    <glyph glyph-name="cedilla" unicode="&#xb8;" horiz-adv-x="419" 
d="M263 -40q86 0 86 -62q0 -35 -22 -58t-65.5 -33t-86.5 -13.5t-105 -3.5v90q121 0 139 4q20 5 20 19q0 17 -23 17q-27 0 -78 -18l-51 39l27 59h120l-54 -60q44 20 93 20z" />
    <glyph glyph-name="guillemotright" unicode="&#xbb;" horiz-adv-x="847" 
d="M70 10l237 238l-237 237l88 80l319 -317l-319 -318zM370 10l237 238l-237 237l88 80l319 -317l-319 -318z" />
    <glyph glyph-name="onequarter" unicode="&#xbc;" horiz-adv-x="1195" 
d="M677 814l113 -44l-338 -879l-113 44zM30 596q47 39 61 66.5t22 102.5h226v-475h-120v365l20 70h-30q-13 -190 -128 -239zM760 60v246q159 30 182 169h120q-10 -101 -79 -180.5t-203 -104.5v-30l70 20h130v79h120v-79h65v-120h-65v-60h-120v60h-220z" />
    <glyph glyph-name="onehalf" unicode="&#xbd;" horiz-adv-x="1180" 
d="M677 814l113 -44l-338 -879l-113 44zM30 596q47 39 61 66.5t22 102.5h226v-475h-120v365l20 70h-30q-13 -190 -128 -239zM750 273q0 90 55.5 151t159.5 61q95 0 140 -47.5t45 -116.5q0 -52 -25 -89.5t-73 -60t-103.5 -35.5t-132.5 -21v-30l70 15h264v-100h-374v185
q2 0 20 2.5t30 4t34.5 6t39.5 9.5t38 12.5t36 17t28.5 22t20.5 28.5t7 34q0 27 -17.5 45.5t-56.5 18.5q-48 0 -67 -27.5t-19 -84.5h-120z" />
    <glyph glyph-name="threequarters" unicode="&#xbe;" horiz-adv-x="1268" 
d="M750 814l113 -44l-338 -879l-113 44zM30 473h120q0 -53 24.5 -71t74.5 -18q42 0 62 12t20 45q0 31 -18.5 40.5t-52.5 9.5h-48v99h48q33 0 48.5 8.5t15.5 35.5q0 25 -17.5 35t-57.5 10q-47 0 -70 -14t-23 -50h-120q0 78 56 121t157 43q97 0 146.5 -36t49.5 -91
q0 -48 -30.5 -68.5t-86.5 -29.5v-30q25 -5 37.5 -8t32 -10.5t29 -17t17 -26t7.5 -38.5q0 -65 -51 -102.5t-151 -37.5q-104 0 -161.5 47t-57.5 142zM833 60v246q159 30 182 169h120q-10 -101 -79 -180.5t-203 -104.5v-30l70 20h130v79h120v-79h65v-120h-65v-60h-120v60h-220z
" />
    <glyph glyph-name="questiondown" unicode="&#xbf;" horiz-adv-x="555" 
d="M280 515q50 0 79.5 -31.5t29.5 -79.5q0 -47 -29.5 -78t-79.5 -31q-49 0 -80 31.5t-31 77.5q0 48 31 79.5t80 31.5zM505 -35q0 -91 -58.5 -148t-178.5 -57q-107 0 -157.5 48t-50.5 113q0 57 31 98.5t87 65t109.5 35.5t123.5 19v34l-76 -27h-228v100h344v-198
q-76 -2 -134 -13.5t-97.5 -39.5t-39.5 -70q0 -65 90 -65q115 0 115 105h120z" />
    <glyph glyph-name="Agrave" unicode="&#xc0;" horiz-adv-x="777" 
d="M607 869l-27 -114l-390 86l27 114zM595 0l-64 226h-286l-63 -226h-162l203 705h330l204 -705h-162zM284 366h208l-84 299h-40z" />
    <glyph glyph-name="Aacute" unicode="&#xc1;" horiz-adv-x="777" 
d="M587 841l-390 -86l-27 114l390 86zM595 0l-64 226h-286l-63 -226h-162l203 705h330l204 -705h-162zM284 366h208l-84 299h-40z" />
    <glyph glyph-name="Acircumflex" unicode="&#xc2;" horiz-adv-x="777" 
d="M389 835l-131 -91l-85 80l216 151l216 -151l-85 -80zM595 0l-64 226h-286l-63 -226h-162l203 705h330l204 -705h-162zM284 366h208l-84 299h-40z" />
    <glyph glyph-name="Atilde" unicode="&#xc3;" horiz-adv-x="777" 
d="M312 870q-19 0 -28 -14t-9 -56h-120q0 88 39 139t108 51q31 0 58 -12.5t42 -27.5t32.5 -27.5t31.5 -12.5q19 0 28 14t9 56h120q0 -88 -39 -139t-108 -51q-31 0 -58 12.5t-42 27.5t-32.5 27.5t-31.5 12.5zM595 0l-64 226h-286l-63 -226h-162l203 705h330l204 -705h-162z
M284 366h208l-84 299h-40z" />
    <glyph glyph-name="Adieresis" unicode="&#xc4;" horiz-adv-x="777" 
d="M258 755q-99 0 -99 80q0 38 25.5 59t73.5 21t74.5 -21t26.5 -59q0 -39 -26.5 -59.5t-74.5 -20.5zM518 755q-99 0 -99 80q0 38 25.5 59t73.5 21t74.5 -21t26.5 -59q0 -39 -26.5 -59.5t-74.5 -20.5zM595 0l-64 226h-286l-63 -226h-162l203 705h330l204 -705h-162zM284 366
h208l-84 299h-40z" />
    <glyph glyph-name="Aring" unicode="&#xc5;" horiz-adv-x="777" 
d="M388 755q-74 0 -115.5 31t-41.5 92q0 60 41.5 91.5t115.5 31.5t116 -31.5t42 -91.5t-42 -91.5t-116 -31.5zM388 910q-37 0 -37 -32q0 -33 37 -33q38 0 38 33q0 32 -38 32zM595 0l-64 226h-286l-63 -226h-162l203 705h330l204 -705h-162zM284 366h208l-84 299h-40z" />
    <glyph glyph-name="AE" unicode="&#xc6;" horiz-adv-x="1104" 
d="M1064 565h-343v-142h293v-140h-293v-143h343v-140h-503v234h-252l-120 -234h-169l363 705h681v-140zM381 374h180v291h-30z" />
    <glyph glyph-name="Ccedilla" unicode="&#xc7;" horiz-adv-x="810" 
d="M414 130q74 0 124 37.5t62 105.5h160q-14 -121 -94.5 -195.5t-209.5 -85.5l-47 -52q44 20 93 20q86 0 86 -62q0 -35 -22 -58t-65.5 -33t-86.5 -13.5t-105 -3.5v90q121 0 139 4q19 6 20 19q0 17 -23 17q-27 0 -78 -18l-51 39l25 55q-135 21 -213 119.5t-78 237.5
q0 157 98.5 259.5t263.5 102.5q147 0 239.5 -75.5t108.5 -206.5h-160q-12 68 -62 105t-124 37q-94 0 -149 -57.5t-55 -164.5t55 -165t149 -58z" />
    <glyph glyph-name="Egrave" unicode="&#xc8;" horiz-adv-x="603" 
d="M530 869l-27 -114l-390 86l27 114zM60 0v705h503v-140h-343v-142h293v-140h-293v-143h343v-140h-503z" />
    <glyph glyph-name="Eacute" unicode="&#xc9;" horiz-adv-x="603" 
d="M93 869l390 86l27 -114l-390 -86zM60 0v705h503v-140h-343v-142h293v-140h-293v-143h343v-140h-503z" />
    <glyph glyph-name="Ecircumflex" unicode="&#xca;" horiz-adv-x="603" 
d="M528 824l-85 -80l-131 91l-131 -91l-85 80l216 151zM60 0v705h503v-140h-343v-142h293v-140h-293v-143h343v-140h-503z" />
    <glyph glyph-name="Edieresis" unicode="&#xcb;" horiz-adv-x="603" 
d="M181 755q-99 0 -99 80q0 38 25.5 59t73.5 21t74.5 -21t26.5 -59q0 -39 -26.5 -59.5t-74.5 -20.5zM441 755q-99 0 -99 80q0 38 25.5 59t73.5 21t74.5 -21t26.5 -59q0 -39 -26.5 -59.5t-74.5 -20.5zM60 0v705h503v-140h-343v-142h293v-140h-293v-143h343v-140h-503z" />
    <glyph glyph-name="Igrave" unicode="&#xcc;" horiz-adv-x="580" 
d="M508 869l-27 -114l-390 86l27 114zM530 565h-160v-425h160v-140h-480v140h160v425h-160v140h480v-140z" />
    <glyph glyph-name="Iacute" unicode="&#xcd;" horiz-adv-x="580" 
d="M488 841l-390 -86l-27 114l390 86zM530 565h-160v-425h160v-140h-480v140h160v425h-160v140h480v-140z" />
    <glyph glyph-name="Icircumflex" unicode="&#xce;" horiz-adv-x="580" 
d="M290 835l-131 -91l-85 80l216 151l216 -151l-85 -80zM530 565h-160v-425h160v-140h-480v140h160v425h-160v140h480v-140z" />
    <glyph glyph-name="Idieresis" unicode="&#xcf;" horiz-adv-x="580" 
d="M159 755q-99 0 -99 80q0 38 25.5 59t73.5 21t74.5 -21t26.5 -59q0 -39 -26.5 -59.5t-74.5 -20.5zM419 755q-99 0 -99 80q0 38 25.5 59t73.5 21t74.5 -21t26.5 -59q0 -39 -26.5 -59.5t-74.5 -20.5zM530 565h-160v-425h160v-140h-480v140h160v425h-160v140h480v-140z" />
    <glyph glyph-name="Eth" unicode="&#xd0;" horiz-adv-x="834" 
d="M400 705q63 0 113 -7t102.5 -29.5t88 -60t58 -102.5t22.5 -153t-22.5 -153t-58 -102.5t-88 -60.5t-102.5 -30t-113 -7h-260v305h-90v120h90v280h260zM400 140q32 0 52.5 1t46.5 5.5t42 13t33.5 24.5t27.5 38t16 55t6 76q0 59 -12 99.5t-30 62.5t-50.5 33.5t-59.5 14
t-72 2.5h-100v-140h148v-120h-148v-165h100z" />
    <glyph glyph-name="Ntilde" unicode="&#xd1;" horiz-adv-x="818" 
d="M195 800q0 88 39 139t108 51q31 0 58 -12.5t42 -27.5t32.5 -27.5t31.5 -12.5q19 0 28 14t9 56h120q0 -88 -39 -139t-108 -51q-31 0 -58 12.5t-42 27.5t-32.5 27.5t-31.5 12.5q-19 0 -28 -14t-9 -56h-120zM60 0v705h315l213 -665h40l-30 100v565h160v-705h-315l-213 665
h-40l30 -100v-565h-160z" />
    <glyph glyph-name="Ograve" unicode="&#xd2;" horiz-adv-x="819" 
d="M628 869l-27 -114l-390 86l27 114zM50 353q0 157 98 259.5t262 102.5t261.5 -102.5t97.5 -259.5q0 -158 -97.5 -260.5t-261.5 -102.5q-165 0 -262.5 102.5t-97.5 260.5zM210 353q0 -104 51 -163.5t149 -59.5t148.5 59.5t50.5 163.5t-50.5 163t-148.5 59t-149 -59
t-51 -163z" />
    <glyph glyph-name="Oacute" unicode="&#xd3;" horiz-adv-x="819" 
d="M191 869l390 86l27 -114l-390 -86zM50 353q0 157 98 259.5t262 102.5t261.5 -102.5t97.5 -259.5q0 -158 -97.5 -260.5t-261.5 -102.5q-165 0 -262.5 102.5t-97.5 260.5zM210 353q0 -104 51 -163.5t149 -59.5t148.5 59.5t50.5 163.5t-50.5 163t-148.5 59t-149 -59
t-51 -163z" />
    <glyph glyph-name="Ocircumflex" unicode="&#xd4;" horiz-adv-x="819" 
d="M626 824l-85 -80l-131 91l-131 -91l-85 80l216 151zM50 353q0 157 98 259.5t262 102.5t261.5 -102.5t97.5 -259.5q0 -158 -97.5 -260.5t-261.5 -102.5q-165 0 -262.5 102.5t-97.5 260.5zM210 353q0 -104 51 -163.5t149 -59.5t148.5 59.5t50.5 163.5t-50.5 163t-148.5 59
t-149 -59t-51 -163z" />
    <glyph glyph-name="Otilde" unicode="&#xd5;" horiz-adv-x="819" 
d="M176 800q0 88 39 139t108 51q31 0 58 -12.5t42 -27.5t32.5 -27.5t31.5 -12.5q19 0 28 14t9 56h120q0 -88 -39 -139t-108 -51q-31 0 -58 12.5t-42 27.5t-32.5 27.5t-31.5 12.5q-19 0 -28 -14t-9 -56h-120zM50 353q0 157 98 259.5t262 102.5t261.5 -102.5t97.5 -259.5
q0 -158 -97.5 -260.5t-261.5 -102.5q-165 0 -262.5 102.5t-97.5 260.5zM210 353q0 -104 51 -163.5t149 -59.5t148.5 59.5t50.5 163.5t-50.5 163t-148.5 59t-149 -59t-51 -163z" />
    <glyph glyph-name="Odieresis" unicode="&#xd6;" horiz-adv-x="819" 
d="M279 755q-99 0 -99 80q0 38 25.5 59t73.5 21t74.5 -21t26.5 -59q0 -39 -26.5 -59.5t-74.5 -20.5zM539 755q-99 0 -99 80q0 38 25.5 59t73.5 21t74.5 -21t26.5 -59q0 -39 -26.5 -59.5t-74.5 -20.5zM50 353q0 157 98 259.5t262 102.5t261.5 -102.5t97.5 -259.5
q0 -158 -97.5 -260.5t-261.5 -102.5q-165 0 -262.5 102.5t-97.5 260.5zM210 353q0 -104 51 -163.5t149 -59.5t148.5 59.5t50.5 163.5t-50.5 163t-148.5 59t-149 -59t-51 -163z" />
    <glyph glyph-name="multiply" unicode="&#xd7;" horiz-adv-x="607" 
d="M537 408l-148 -148l148 -149l-85 -85l-148 149l-149 -149l-85 85l149 149l-149 148l85 85l149 -148l148 148z" />
    <glyph glyph-name="Oslash" unicode="&#xd8;" horiz-adv-x="819" 
d="M636 644q64 -49 98.5 -124.5t34.5 -166.5q0 -158 -97.5 -260.5t-261.5 -102.5q-78 0 -141 24l-48 -83l-84 49l47 81q-64 49 -99 124.5t-35 167.5q0 157 98 259.5t262 102.5q75 0 138 -23l48 82l86 -50zM210 353q0 -105 49 -161l217 375q-32 8 -66 8q-98 0 -149 -59
t-51 -163zM410 130q98 0 148.5 59.5t50.5 163.5q0 103 -49 161l-218 -375q30 -9 68 -9z" />
    <glyph glyph-name="Ugrave" unicode="&#xd9;" horiz-adv-x="717" 
d="M576 869l-27 -114l-390 86l27 114zM40 262v443h160v-372q0 -44 2.5 -70.5t11 -54.5t25.5 -43.5t46.5 -25t72.5 -9.5q54 0 87 13t48 42.5t19.5 61.5t4.5 86v372h160v-443q0 -132 -81.5 -202t-237.5 -70t-237 69.5t-81 202.5z" />
    <glyph glyph-name="Uacute" unicode="&#xda;" horiz-adv-x="717" 
d="M139 869l390 86l27 -114l-390 -86zM40 262v443h160v-372q0 -44 2.5 -70.5t11 -54.5t25.5 -43.5t46.5 -25t72.5 -9.5q54 0 87 13t48 42.5t19.5 61.5t4.5 86v372h160v-443q0 -132 -81.5 -202t-237.5 -70t-237 69.5t-81 202.5z" />
    <glyph glyph-name="Ucircumflex" unicode="&#xdb;" horiz-adv-x="717" 
d="M574 824l-85 -80l-131 91l-131 -91l-85 80l216 151zM40 262v443h160v-372q0 -44 2.5 -70.5t11 -54.5t25.5 -43.5t46.5 -25t72.5 -9.5q54 0 87 13t48 42.5t19.5 61.5t4.5 86v372h160v-443q0 -132 -81.5 -202t-237.5 -70t-237 69.5t-81 202.5z" />
    <glyph glyph-name="Udieresis" unicode="&#xdc;" horiz-adv-x="717" 
d="M227 755q-99 0 -99 80q0 38 25.5 59t73.5 21t74.5 -21t26.5 -59q0 -39 -26.5 -59.5t-74.5 -20.5zM487 755q-99 0 -99 80q0 38 25.5 59t73.5 21t74.5 -21t26.5 -59q0 -39 -26.5 -59.5t-74.5 -20.5zM40 262v443h160v-372q0 -44 2.5 -70.5t11 -54.5t25.5 -43.5t46.5 -25
t72.5 -9.5q54 0 87 13t48 42.5t19.5 61.5t4.5 86v372h160v-443q0 -132 -81.5 -202t-237.5 -70t-237 69.5t-81 202.5z" />
    <glyph glyph-name="Yacute" unicode="&#xdd;" horiz-adv-x="723" 
d="M142 869l390 86l27 -114l-390 -86zM532 705h171l-262 -478v-227h-160v227l-261 478h171l150 -294v-90h40v90z" />
    <glyph glyph-name="Thorn" unicode="&#xde;" horiz-adv-x="667" 
d="M313 600q74 0 125.5 -9t97 -34t68.5 -76t23 -128q0 -63 -16 -108t-42.5 -72t-68.5 -42.5t-85 -20.5t-102 -5h-93v-105h-160v705h160v-105h93zM323 245q26 0 38.5 0.5t31.5 2t27 6t19.5 12t16 19t8 28.5t3.5 40q0 32 -7 52.5t-15.5 31.5t-30.5 16t-38.5 6t-52.5 1h-103
v-215h103z" />
    <glyph glyph-name="germandbls" unicode="&#xdf;" horiz-adv-x="674" 
d="M276 0v140l124 -9q50 -4 72 10t22 55q0 27 -18.5 44.5t-45 27.5t-53.5 21t-45.5 33.5t-18.5 57.5q0 31 15.5 56t34 38t34 28.5t15.5 31.5q0 21 -17.5 31t-59.5 10q-55 0 -85 -27.5t-30 -94.5v-453h-160v473q0 127 75 184.5t200 57.5q117 0 177 -43.5t60 -104.5
q0 -30 -15.5 -55.5t-34 -40t-34 -36.5t-15.5 -45t18.5 -38t45.5 -25t53.5 -24t45 -46t18.5 -81q0 -98 -66 -145.5t-168 -40.5z" />
    <glyph glyph-name="agrave" unicode="&#xe0;" horiz-adv-x="644" 
d="M528 669l-27 -114l-390 86l27 114zM40 138q0 67 46 105.5t156 53.5l159 22q0 66 -101 66q-48 0 -74 -19t-26 -54h-150q0 94 70.5 148.5t179.5 54.5q113 0 187 -58t74 -175v-142h73v-140h-111q-36 0 -55.5 19.5t-19.5 55.5v10l25 60h-40q-16 -72 -63.5 -113.5
t-145.5 -41.5q-55 0 -94 15t-57 40t-25.5 47.5t-7.5 45.5zM200 168q0 -38 55 -38q67 0 106.5 26.5t39.5 72.5l-129 -18q-40 -6 -56 -14.5t-16 -28.5z" />
    <glyph glyph-name="aacute" unicode="&#xe1;" horiz-adv-x="644" 
d="M91 669l390 86l27 -114l-390 -86zM40 138q0 67 46 105.5t156 53.5l159 22q0 66 -101 66q-48 0 -74 -19t-26 -54h-150q0 94 70.5 148.5t179.5 54.5q113 0 187 -58t74 -175v-142h73v-140h-111q-36 0 -55.5 19.5t-19.5 55.5v10l25 60h-40q-16 -72 -63.5 -113.5t-145.5 -41.5
q-55 0 -94 15t-57 40t-25.5 47.5t-7.5 45.5zM200 168q0 -38 55 -38q67 0 106.5 26.5t39.5 72.5l-129 -18q-40 -6 -56 -14.5t-16 -28.5z" />
    <glyph glyph-name="acircumflex" unicode="&#xe2;" horiz-adv-x="644" 
d="M526 624l-85 -80l-131 91l-131 -91l-85 80l216 151zM40 138q0 67 46 105.5t156 53.5l159 22q0 66 -101 66q-48 0 -74 -19t-26 -54h-150q0 94 70.5 148.5t179.5 54.5q113 0 187 -58t74 -175v-142h73v-140h-111q-36 0 -55.5 19.5t-19.5 55.5v10l25 60h-40
q-16 -72 -63.5 -113.5t-145.5 -41.5q-55 0 -94 15t-57 40t-25.5 47.5t-7.5 45.5zM200 168q0 -38 55 -38q67 0 106.5 26.5t39.5 72.5l-129 -18q-40 -6 -56 -14.5t-16 -28.5z" />
    <glyph glyph-name="atilde" unicode="&#xe3;" horiz-adv-x="644" 
d="M76 600q0 88 39 139t108 51q31 0 58 -12.5t42 -27.5t32.5 -27.5t31.5 -12.5q19 0 28 14t9 56h120q0 -88 -39 -139t-108 -51q-31 0 -58 12.5t-42 27.5t-32.5 27.5t-31.5 12.5q-19 0 -28 -14t-9 -56h-120zM40 138q0 67 46 105.5t156 53.5l159 22q0 66 -101 66
q-48 0 -74 -19t-26 -54h-150q0 94 70.5 148.5t179.5 54.5q113 0 187 -58t74 -175v-142h73v-140h-111q-36 0 -55.5 19.5t-19.5 55.5v10l25 60h-40q-16 -72 -63.5 -113.5t-145.5 -41.5q-55 0 -94 15t-57 40t-25.5 47.5t-7.5 45.5zM200 168q0 -38 55 -38q67 0 106.5 26.5
t39.5 72.5l-129 -18q-40 -6 -56 -14.5t-16 -28.5z" />
    <glyph glyph-name="adieresis" unicode="&#xe4;" horiz-adv-x="644" 
d="M179 555q-99 0 -99 80q0 38 25.5 59t73.5 21t74.5 -21t26.5 -59q0 -39 -26.5 -59.5t-74.5 -20.5zM439 555q-99 0 -99 80q0 38 25.5 59t73.5 21t74.5 -21t26.5 -59q0 -39 -26.5 -59.5t-74.5 -20.5zM40 138q0 67 46 105.5t156 53.5l159 22q0 66 -101 66q-48 0 -74 -19
t-26 -54h-150q0 94 70.5 148.5t179.5 54.5q113 0 187 -58t74 -175v-142h73v-140h-111q-36 0 -55.5 19.5t-19.5 55.5v10l25 60h-40q-16 -72 -63.5 -113.5t-145.5 -41.5q-55 0 -94 15t-57 40t-25.5 47.5t-7.5 45.5zM200 168q0 -38 55 -38q67 0 106.5 26.5t39.5 72.5l-129 -18
q-40 -6 -56 -14.5t-16 -28.5z" />
    <glyph glyph-name="aring" unicode="&#xe5;" horiz-adv-x="644" 
d="M309 555q-74 0 -115.5 31t-41.5 92q0 60 41.5 91.5t115.5 31.5t116 -31.5t42 -91.5t-42 -91.5t-116 -31.5zM309 645q38 0 38 33q0 32 -38 32q-37 0 -37 -32q0 -33 37 -33zM40 138q0 67 46 105.5t156 53.5l159 22q0 66 -101 66q-48 0 -74 -19t-26 -54h-150
q0 94 70.5 148.5t179.5 54.5q113 0 187 -58t74 -175v-142h73v-140h-111q-36 0 -55.5 19.5t-19.5 55.5v10l25 60h-40q-16 -72 -63.5 -113.5t-145.5 -41.5q-55 0 -94 15t-57 40t-25.5 47.5t-7.5 45.5zM200 168q0 -38 55 -38q67 0 106.5 26.5t39.5 72.5l-129 -18
q-40 -6 -56 -14.5t-16 -28.5z" />
    <glyph glyph-name="ae" unicode="&#xe6;" horiz-adv-x="1041" 
d="M841 178h160q-4 -29 -22 -60.5t-49.5 -60.5t-83 -48t-113.5 -19q-101 0 -167 42t-95 113h-38q-16 -70 -66.5 -112.5t-142.5 -42.5q-55 0 -94 15t-57 40t-25.5 47.5t-7.5 45.5q0 67 46 105.5t156 53.5l159 22q0 66 -101 66q-48 0 -74 -19t-26 -54h-150q0 94 70.5 148.5
t179.5 54.5q141 0 199 -97q72 97 217 97q119 0 193 -66.5t74 -179.5v-50h-383q0 -45 33.5 -72t99.5 -27q43 0 72 15t36 43zM716 385q-62 0 -89 -21.5t-27 -54.5h233q0 32 -27.5 54t-89.5 22zM255 130q67 0 106.5 26.5t39.5 72.5l-129 -18q-40 -6 -56 -15t-16 -31
q0 -35 55 -35z" />
    <glyph glyph-name="ccedilla" unicode="&#xe7;" horiz-adv-x="627" 
d="M316 130q47 0 76.5 22t34.5 57h160q-4 -91 -66 -147t-155 -69l-48 -53q44 20 93 20q86 0 86 -62q0 -35 -22 -58t-65.5 -33t-86.5 -13.5t-105 -3.5v90q121 0 139 4q19 6 20 19q0 17 -23 17q-27 0 -78 -18l-51 39l25 55q-97 17 -153.5 84t-56.5 173q0 123 76 192.5
t200 69.5q110 0 188 -58t83 -161h-160q-5 35 -34.5 57t-76.5 22q-56 0 -86 -32t-30 -90q0 -59 29.5 -91t86.5 -32z" />
    <glyph glyph-name="egrave" unicode="&#xe8;" horiz-adv-x="631" 
d="M534 669l-27 -114l-390 86l27 114zM40 259q0 118 73.5 187t192.5 69t193 -66.5t74 -179.5v-50h-383q0 -45 33.5 -72t99.5 -27q43 0 72 15t36 43h160q-4 -29 -22 -60.5t-49.5 -60.5t-83 -48t-113.5 -19q-138 0 -210.5 77t-72.5 192zM190 309h233q0 32 -27.5 54t-89.5 22
t-89 -21.5t-27 -54.5z" />
    <glyph glyph-name="eacute" unicode="&#xe9;" horiz-adv-x="631" 
d="M97 669l390 86l27 -114l-390 -86zM40 259q0 118 73.5 187t192.5 69t193 -66.5t74 -179.5v-50h-383q0 -45 33.5 -72t99.5 -27q43 0 72 15t36 43h160q-4 -29 -22 -60.5t-49.5 -60.5t-83 -48t-113.5 -19q-138 0 -210.5 77t-72.5 192zM190 309h233q0 32 -27.5 54t-89.5 22
t-89 -21.5t-27 -54.5z" />
    <glyph glyph-name="ecircumflex" unicode="&#xea;" horiz-adv-x="631" 
d="M532 624l-85 -80l-131 91l-131 -91l-85 80l216 151zM40 259q0 118 73.5 187t192.5 69t193 -66.5t74 -179.5v-50h-383q0 -45 33.5 -72t99.5 -27q43 0 72 15t36 43h160q-4 -29 -22 -60.5t-49.5 -60.5t-83 -48t-113.5 -19q-138 0 -210.5 77t-72.5 192zM190 309h233
q0 32 -27.5 54t-89.5 22t-89 -21.5t-27 -54.5z" />
    <glyph glyph-name="edieresis" unicode="&#xeb;" horiz-adv-x="631" 
d="M185 555q-99 0 -99 80q0 38 25.5 59t73.5 21t74.5 -21t26.5 -59q0 -39 -26.5 -59.5t-74.5 -20.5zM445 555q-99 0 -99 80q0 38 25.5 59t73.5 21t74.5 -21t26.5 -59q0 -39 -26.5 -59.5t-74.5 -20.5zM40 259q0 118 73.5 187t192.5 69t193 -66.5t74 -179.5v-50h-383
q0 -45 33.5 -72t99.5 -27q43 0 72 15t36 43h160q-4 -29 -22 -60.5t-49.5 -60.5t-83 -48t-113.5 -19q-138 0 -210.5 77t-72.5 192zM190 309h233q0 32 -27.5 54t-89.5 22t-89 -21.5t-27 -54.5z" />
    <glyph glyph-name="igrave" unicode="&#xec;" horiz-adv-x="500" 
d="M448 669l-27 -114l-390 86l27 114zM40 0v140h143v231l-123 -6v140l190 10q42 2 64.5 -20t22.5 -64v-291h143v-140h-440z" />
    <glyph glyph-name="iacute" unicode="&#xed;" horiz-adv-x="519" 
d="M40 669l390 86l27 -114l-390 -86zM59 0v140h143v231l-123 -6v140l190 10q42 2 64.5 -20t22.5 -64v-291h143v-140h-440z" />
    <glyph glyph-name="icircumflex" unicode="&#xee;" horiz-adv-x="516" 
d="M462 624l-85 -80l-131 91l-131 -91l-85 80l216 151zM56 0v140h143v231l-123 -6v140l190 10q42 2 64.5 -20t22.5 -64v-291h143v-140h-440z" />
    <glyph glyph-name="idieresis" unicode="&#xef;" horiz-adv-x="519" 
d="M128 555q-99 0 -99 80q0 38 25.5 59t73.5 21t74.5 -21t26.5 -59q0 -39 -26.5 -59.5t-74.5 -20.5zM388 555q-99 0 -99 80q0 38 25.5 59t73.5 21t74.5 -21t26.5 -59q0 -39 -26.5 -59.5t-74.5 -20.5zM59 0v140h143v231l-123 -6v140l190 10q42 2 64.5 -20t22.5 -64v-291h143
v-140h-440z" />
    <glyph glyph-name="eth" unicode="&#xf0;" horiz-adv-x="703" 
d="M509 660q154 -117 154 -341q0 -154 -84.5 -241.5t-230.5 -87.5q-141 0 -224.5 73t-83.5 189q0 113 75.5 188t203.5 75q110 0 171 -64.5t70 -172.5h40l-30 90q-18 151 -178 216l-83 -53l-106 47l66 42q-34 8 -101 17v140q144 -16 248 -62l73 47l106 -47zM352 130
q74 0 112.5 32t38.5 90q0 65 -37 94t-114 29t-114.5 -29t-37.5 -94q0 -58 38.5 -90t113.5 -32z" />
    <glyph glyph-name="ntilde" unicode="&#xf1;" horiz-adv-x="678" 
d="M125 600q0 88 39 139t108 51q31 0 58 -12.5t42 -27.5t32.5 -27.5t31.5 -12.5q19 0 28 14t9 56h120q0 -88 -39 -139t-108 -51q-31 0 -58 12.5t-42 27.5t-32.5 27.5t-31.5 12.5q-19 0 -28 -14t-9 -56h-120zM364 375q-70 0 -107 -43.5t-37 -144.5v-187h-160v505h160v-61
l-30 -90h40q16 72 65 116.5t126 44.5q98 0 152.5 -63t54.5 -179v-273h-160v248q0 69 -23.5 98t-80.5 29z" />
    <glyph glyph-name="ograve" unicode="&#xf2;" horiz-adv-x="649" 
d="M543 669l-27 -114l-390 86l27 114zM40 253q0 127 80 194.5t205 67.5t204.5 -67.5t79.5 -194.5t-79.5 -195t-204.5 -68t-205 67.5t-80 195.5zM200 253q0 -62 33 -92.5t92 -30.5q58 0 91 30.5t33 92.5q0 61 -33 91.5t-91 30.5q-59 0 -92 -30.5t-33 -91.5z" />
    <glyph glyph-name="oacute" unicode="&#xf3;" horiz-adv-x="649" 
d="M106 669l390 86l27 -114l-390 -86zM40 253q0 127 80 194.5t205 67.5t204.5 -67.5t79.5 -194.5t-79.5 -195t-204.5 -68t-205 67.5t-80 195.5zM200 253q0 -62 33 -92.5t92 -30.5q58 0 91 30.5t33 92.5q0 61 -33 91.5t-91 30.5q-59 0 -92 -30.5t-33 -91.5z" />
    <glyph glyph-name="ocircumflex" unicode="&#xf4;" horiz-adv-x="649" 
d="M541 624l-85 -80l-131 91l-131 -91l-85 80l216 151zM40 253q0 127 80 194.5t205 67.5t204.5 -67.5t79.5 -194.5t-79.5 -195t-204.5 -68t-205 67.5t-80 195.5zM200 253q0 -62 33 -92.5t92 -30.5q58 0 91 30.5t33 92.5q0 61 -33 91.5t-91 30.5q-59 0 -92 -30.5t-33 -91.5z
" />
    <glyph glyph-name="otilde" unicode="&#xf5;" horiz-adv-x="649" 
d="M91 600q0 88 39 139t108 51q31 0 58 -12.5t42 -27.5t32.5 -27.5t31.5 -12.5q19 0 28 14t9 56h120q0 -88 -39 -139t-108 -51q-31 0 -58 12.5t-42 27.5t-32.5 27.5t-31.5 12.5q-19 0 -28 -14t-9 -56h-120zM40 253q0 127 80 194.5t205 67.5t204.5 -67.5t79.5 -194.5
t-79.5 -195t-204.5 -68t-205 67.5t-80 195.5zM200 253q0 -62 33 -92.5t92 -30.5q58 0 91 30.5t33 92.5q0 61 -33 91.5t-91 30.5q-59 0 -92 -30.5t-33 -91.5z" />
    <glyph glyph-name="odieresis" unicode="&#xf6;" horiz-adv-x="649" 
d="M194 555q-99 0 -99 80q0 38 25.5 59t73.5 21t74.5 -21t26.5 -59q0 -39 -26.5 -59.5t-74.5 -20.5zM454 555q-99 0 -99 80q0 38 25.5 59t73.5 21t74.5 -21t26.5 -59q0 -39 -26.5 -59.5t-74.5 -20.5zM40 253q0 127 80 194.5t205 67.5t204.5 -67.5t79.5 -194.5t-79.5 -195
t-204.5 -68t-205 67.5t-80 195.5zM200 253q0 -62 33 -92.5t92 -30.5q58 0 91 30.5t33 92.5q0 61 -33 91.5t-91 30.5q-59 0 -92 -30.5t-33 -91.5z" />
    <glyph glyph-name="divide" unicode="&#xf7;" horiz-adv-x="680" 
d="M339 370q-50 0 -79.5 31.5t-29.5 79.5q0 47 29.5 78t79.5 31q49 0 80 -31.5t31 -77.5q0 -48 -31 -79.5t-80 -31.5zM70 329h540v-120h-540v120zM339 -50q-50 0 -79.5 31.5t-29.5 79.5q0 47 29.5 78t79.5 31q49 0 80 -31.5t31 -77.5q0 -48 -31 -79.5t-80 -31.5z" />
    <glyph glyph-name="oslash" unicode="&#xf8;" horiz-adv-x="649" 
d="M505 467q104 -70 104 -213q0 -127 -79.5 -195t-204.5 -68q-51 0 -91 10l-33 -56l-84 48l27 47q-104 70 -104 214q0 127 80 194.5t205 67.5q49 0 89 -10l32 56l86 -49zM200 254q0 -49 22 -80l116 202h-13q-59 0 -92 -30.5t-33 -91.5zM325 131q58 0 91 30.5t33 92.5
q0 49 -22 79l-117 -201q5 -1 15 -1z" />
    <glyph glyph-name="ugrave" unicode="&#xf9;" horiz-adv-x="668" 
d="M552 669l-27 -114l-390 86l27 114zM314 130q70 0 107 43.5t37 144.5v187h160v-505h-160v61l30 90h-40q-16 -72 -65 -116.5t-126 -44.5q-98 0 -152.5 63t-54.5 179v273h160v-248q0 -69 23.5 -98t80.5 -29z" />
    <glyph glyph-name="uacute" unicode="&#xfa;" horiz-adv-x="668" 
d="M115 669l390 86l27 -114l-390 -86zM314 130q70 0 107 43.5t37 144.5v187h160v-505h-160v61l30 90h-40q-16 -72 -65 -116.5t-126 -44.5q-98 0 -152.5 63t-54.5 179v273h160v-248q0 -69 23.5 -98t80.5 -29z" />
    <glyph glyph-name="ucircumflex" unicode="&#xfb;" horiz-adv-x="668" 
d="M550 624l-85 -80l-131 91l-131 -91l-85 80l216 151zM314 130q70 0 107 43.5t37 144.5v187h160v-505h-160v61l30 90h-40q-16 -72 -65 -116.5t-126 -44.5q-98 0 -152.5 63t-54.5 179v273h160v-248q0 -69 23.5 -98t80.5 -29z" />
    <glyph glyph-name="udieresis" unicode="&#xfc;" horiz-adv-x="668" 
d="M203 555q-99 0 -99 80q0 38 25.5 59t73.5 21t74.5 -21t26.5 -59q0 -39 -26.5 -59.5t-74.5 -20.5zM463 555q-99 0 -99 80q0 38 25.5 59t73.5 21t74.5 -21t26.5 -59q0 -39 -26.5 -59.5t-74.5 -20.5zM314 130q70 0 107 43.5t37 144.5v187h160v-505h-160v61l30 90h-40
q-16 -72 -65 -116.5t-126 -44.5q-98 0 -152.5 63t-54.5 179v273h160v-248q0 -69 23.5 -98t80.5 -29z" />
    <glyph glyph-name="yacute" unicode="&#xfd;" horiz-adv-x="672" 
d="M539 641l-390 -86l-27 114l390 86zM471 505h181l-231 -475v-156q0 -42 -22.5 -64t-63.5 -20l-247 7v140l173 -3v96l-231 475h180l111 -278v-80h40v80z" />
    <glyph glyph-name="thorn" unicode="&#xfe;" horiz-adv-x="688" 
d="M429 515q105 0 162 -75t57 -188t-57 -187.5t-162 -74.5q-85 0 -130.5 35.5t-68.5 95.5h-40l30 -90v-221h-160v925h160v-261l-30 -90h40q23 60 68.5 95.5t130.5 35.5zM354 130q134 0 134 122q0 123 -134 123t-134 -123q0 -122 134 -122z" />
    <glyph glyph-name="ydieresis" unicode="&#xff;" horiz-adv-x="672" 
d="M210 555q-99 0 -99 80q0 38 25.5 59t73.5 21t74.5 -21t26.5 -59q0 -39 -26.5 -59.5t-74.5 -20.5zM470 555q-99 0 -99 80q0 38 25.5 59t73.5 21t74.5 -21t26.5 -59q0 -39 -26.5 -59.5t-74.5 -20.5zM471 505h181l-231 -475v-156q0 -42 -22.5 -64t-63.5 -20l-247 7v140
l173 -3v96l-231 475h180l111 -278v-80h40v80z" />
    <glyph glyph-name="Amacron" unicode="&#x100;" horiz-adv-x="777" 
d="M604 920v-118l-430 -2v120h430zM595 0l-64 226h-286l-63 -226h-162l203 705h330l204 -705h-162zM284 366h208l-84 299h-40z" />
    <glyph glyph-name="amacron" unicode="&#x101;" horiz-adv-x="644" 
d="M95 720h430v-118l-430 -2v120zM40 138q0 67 46 105.5t156 53.5l159 22q0 66 -101 66q-48 0 -74 -19t-26 -54h-150q0 94 70.5 148.5t179.5 54.5q113 0 187 -58t74 -175v-142h73v-140h-111q-36 0 -55.5 19.5t-19.5 55.5v10l25 60h-40q-16 -72 -63.5 -113.5t-145.5 -41.5
q-55 0 -94 15t-57 40t-25.5 47.5t-7.5 45.5zM200 168q0 -38 55 -38q67 0 106.5 26.5t39.5 72.5l-129 -18q-40 -6 -56 -14.5t-16 -28.5z" />
    <glyph glyph-name="Abreve" unicode="&#x102;" horiz-adv-x="777" 
d="M389 755q-94 0 -138.5 57t-44.5 142h120q0 -50 16 -69.5t47 -19.5t47 19.5t16 69.5h120q0 -85 -44.5 -142t-138.5 -57zM595 0l-64 226h-286l-63 -226h-162l203 705h330l204 -705h-162zM284 366h208l-84 299h-40z" />
    <glyph glyph-name="abreve" unicode="&#x103;" horiz-adv-x="644" 
d="M493 754q0 -85 -44.5 -142t-138.5 -57t-138.5 57t-44.5 142h120q0 -50 16 -69.5t47 -19.5t47 19.5t16 69.5h120zM40 138q0 67 46 105.5t156 53.5l159 22q0 66 -101 66q-48 0 -74 -19t-26 -54h-150q0 94 70.5 148.5t179.5 54.5q113 0 187 -58t74 -175v-142h73v-140h-111
q-36 0 -55.5 19.5t-19.5 55.5v10l25 60h-40q-16 -72 -63.5 -113.5t-145.5 -41.5q-55 0 -94 15t-57 40t-25.5 47.5t-7.5 45.5zM200 168q0 -38 55 -38q67 0 106.5 26.5t39.5 72.5l-129 -18q-40 -6 -56 -14.5t-16 -28.5z" />
    <glyph glyph-name="Aogonek" unicode="&#x104;" horiz-adv-x="777" 
d="M719 -79l136 14v-120l-185 -15q-53 -4 -81.5 32t-3.5 74l61 94h-51l-64 226h-286l-63 -226h-162l203 705h330l204 -704v-1zM284 366h208l-84 299h-40z" />
    <glyph glyph-name="aogonek" unicode="&#x105;" horiz-adv-x="644" 
d="M596 -79l136 14v-120l-185 -15q-53 -4 -81.5 32t-3.5 74l61 94q-36 0 -55.5 19.5t-19.5 55.5v10l25 60h-40q-16 -72 -63.5 -113.5t-145.5 -41.5q-55 0 -94 15t-57 40t-25.5 47.5t-7.5 45.5q0 67 46 105.5t156 53.5l159 22q0 66 -101 66q-48 0 -74 -19t-26 -54h-150
q0 94 70.5 148.5t179.5 54.5q113 0 187 -58t74 -175v-142h73v-140zM255 130q67 0 106.5 26.5t39.5 72.5l-129 -18q-40 -6 -56 -14.5t-16 -28.5q0 -38 55 -38z" />
    <glyph glyph-name="Cacute" unicode="&#x106;" horiz-adv-x="810" 
d="M191 869l390 86l27 -114l-390 -86zM50 353q0 157 98.5 259.5t263.5 102.5q147 0 239.5 -75.5t108.5 -206.5h-160q-12 68 -62 105t-124 37q-94 0 -149 -57.5t-55 -164.5t55 -165t149 -58q74 0 124 37.5t62 105.5h160q-16 -132 -108.5 -207.5t-239.5 -75.5
q-165 0 -263.5 102.5t-98.5 260.5z" />
    <glyph glyph-name="cacute" unicode="&#x107;" horiz-adv-x="627" 
d="M97 669l390 86l27 -114l-390 -86zM40 253q0 123 76 192.5t200 69.5q110 0 188 -58t83 -161h-160q-5 35 -34.5 57t-76.5 22q-56 0 -86 -32t-30 -90q0 -59 29.5 -91t86.5 -32q47 0 76.5 22t34.5 57h160q-5 -103 -83 -161t-188 -58q-124 0 -200 69.5t-76 193.5z" />
    <glyph glyph-name="Cdotaccent" unicode="&#x10a;" horiz-adv-x="810" 
d="M409 755q-99 0 -99 80q0 38 25.5 59t73.5 21t74.5 -21t26.5 -59q0 -39 -26.5 -59.5t-74.5 -20.5zM50 353q0 157 98.5 259.5t263.5 102.5q147 0 239.5 -75.5t108.5 -206.5h-160q-12 68 -62 105t-124 37q-94 0 -149 -57.5t-55 -164.5t55 -165t149 -58q74 0 124 37.5
t62 105.5h160q-16 -132 -108.5 -207.5t-239.5 -75.5q-165 0 -263.5 102.5t-98.5 260.5z" />
    <glyph glyph-name="cdotaccent" unicode="&#x10b;" horiz-adv-x="627" 
d="M315 555q-99 0 -99 80q0 38 25.5 59t73.5 21t74.5 -21t26.5 -59q0 -39 -26.5 -59.5t-74.5 -20.5zM40 253q0 123 76 192.5t200 69.5q110 0 188 -58t83 -161h-160q-5 35 -34.5 57t-76.5 22q-56 0 -86 -32t-30 -90q0 -59 29.5 -91t86.5 -32q47 0 76.5 22t34.5 57h160
q-5 -103 -83 -161t-188 -58q-124 0 -200 69.5t-76 193.5z" />
    <glyph glyph-name="Ccaron" unicode="&#x10c;" horiz-adv-x="810" 
d="M626 901l-216 -151l-216 151l85 80l131 -91l131 91zM50 353q0 157 98.5 259.5t263.5 102.5q147 0 239.5 -75.5t108.5 -206.5h-160q-12 68 -62 105t-124 37q-94 0 -149 -57.5t-55 -164.5t55 -165t149 -58q74 0 124 37.5t62 105.5h160q-16 -132 -108.5 -207.5t-239.5 -75.5
q-165 0 -263.5 102.5t-98.5 260.5z" />
    <glyph glyph-name="ccaron" unicode="&#x10d;" horiz-adv-x="627" 
d="M532 701l-216 -151l-216 151l85 80l131 -91l131 91zM40 253q0 123 76 192.5t200 69.5q110 0 188 -58t83 -161h-160q-5 35 -34.5 57t-76.5 22q-56 0 -86 -32t-30 -90q0 -59 29.5 -91t86.5 -32q47 0 76.5 22t34.5 57h160q-5 -103 -83 -161t-188 -58q-124 0 -200 69.5
t-76 193.5z" />
    <glyph glyph-name="Dcaron" unicode="&#x10e;" horiz-adv-x="754" 
d="M529 901l-216 -151l-216 151l85 80l131 -91l131 91zM320 705q63 0 113 -7t102.5 -29.5t88 -60t58 -102.5t22.5 -153t-22.5 -153t-58 -102.5t-88 -60.5t-102.5 -30t-113 -7h-260v705h260zM320 140q32 0 52.5 1t46.5 5.5t42 13t33.5 24.5t27.5 38t16 55t6 76q0 59 -12 99.5
t-30 62.5t-50.5 33.5t-59.5 14t-72 2.5h-100v-425h100z" />
    <glyph glyph-name="dcaron" unicode="&#x10f;" horiz-adv-x="868" 
d="M718 775h120v-320h-120v320zM628 0h-160v31l30 90h-40q-23 -60 -68.5 -95.5t-130.5 -35.5q-105 0 -162 75t-57 188t57 187.5t162 74.5q85 0 130.5 -35.5t68.5 -95.5h40l-30 90v261h160v-735zM468 253q0 122 -134 122t-134 -122q0 -123 134 -123t134 123z" />
    <glyph glyph-name="Dcroat" unicode="&#x110;" horiz-adv-x="834" 
d="M400 705q63 0 113 -7t102.5 -29.5t88 -60t58 -102.5t22.5 -153t-22.5 -153t-58 -102.5t-88 -60.5t-102.5 -30t-113 -7h-260v305h-90v120h90v280h260zM400 140q32 0 52.5 1t46.5 5.5t42 13t33.5 24.5t27.5 38t16 55t6 76q0 59 -12 99.5t-30 62.5t-50.5 33.5t-59.5 14
t-72 2.5h-100v-140h148v-120h-148v-165h100z" />
    <glyph glyph-name="dcroat" unicode="&#x111;" horiz-adv-x="718" 
d="M688 687v-120h-60v-567h-160v31l30 90h-40q-23 -60 -68.5 -95.5t-130.5 -35.5q-105 0 -162 75t-57 188t57 187.5t162 74.5q85 0 130.5 -35.5t68.5 -95.5h40l-30 90v93h-140v120h140v48h160v-48h60zM334 130q134 0 134 123q0 122 -134 122t-134 -122q0 -123 134 -123z" />
    <glyph glyph-name="Emacron" unicode="&#x112;" horiz-adv-x="603" 
d="M97 920h430v-118l-430 -2v120zM60 0v705h503v-140h-343v-142h293v-140h-293v-143h343v-140h-503z" />
    <glyph glyph-name="emacron" unicode="&#x113;" horiz-adv-x="631" 
d="M101 720h430v-118l-430 -2v120zM40 259q0 118 73.5 187t192.5 69t193 -66.5t74 -179.5v-50h-383q0 -45 33.5 -72t99.5 -27q43 0 72 15t36 43h160q-4 -29 -22 -60.5t-49.5 -60.5t-83 -48t-113.5 -19q-138 0 -210.5 77t-72.5 192zM190 309h233q0 32 -27.5 54t-89.5 22
t-89 -21.5t-27 -54.5z" />
    <glyph glyph-name="Edotaccent" unicode="&#x116;" horiz-adv-x="603" 
d="M311 755q-99 0 -99 80q0 38 25.5 59t73.5 21t74.5 -21t26.5 -59q0 -39 -26.5 -59.5t-74.5 -20.5zM60 0v705h503v-140h-343v-142h293v-140h-293v-143h343v-140h-503z" />
    <glyph glyph-name="edotaccent" unicode="&#x117;" horiz-adv-x="631" 
d="M315 555q-99 0 -99 80q0 38 25.5 59t73.5 21t74.5 -21t26.5 -59q0 -39 -26.5 -59.5t-74.5 -20.5zM40 259q0 118 73.5 187t192.5 69t193 -66.5t74 -179.5v-50h-383q0 -45 33.5 -72t99.5 -27q43 0 72 15t36 43h160q-4 -29 -22 -60.5t-49.5 -60.5t-83 -48t-113.5 -19
q-138 0 -210.5 77t-72.5 192zM190 309h233q0 32 -27.5 54t-89.5 22t-89 -21.5t-27 -54.5z" />
    <glyph glyph-name="Eogonek" unicode="&#x118;" horiz-adv-x="603" 
d="M563 565h-343v-142h293v-140h-293v-143h343v-140h-108l-38 -79l136 14v-120l-185 -15q-53 -4 -81.5 32t-3.5 74l61 94h-284v705h503v-140z" />
    <glyph glyph-name="eogonek" unicode="&#x119;" horiz-adv-x="631" 
d="M591 178q-7 -52 -55.5 -105.5t-130.5 -73.5l-37 -78l136 14v-120l-185 -15q-53 -4 -81.5 32t-3.5 74l56 85q-122 10 -186 85t-64 183q0 118 73.5 187t192.5 69t193 -66.5t74 -179.5v-50h-383q0 -45 33.5 -72t99.5 -27q43 0 72 15t36 43h160zM306 385q-62 0 -89 -21.5
t-27 -54.5h233q0 32 -27.5 54t-89.5 22z" />
    <glyph glyph-name="Ecaron" unicode="&#x11a;" horiz-adv-x="603" 
d="M528 901l-216 -151l-216 151l85 80l131 -91l131 91zM60 0v705h503v-140h-343v-142h293v-140h-293v-143h343v-140h-503z" />
    <glyph glyph-name="ecaron" unicode="&#x11b;" horiz-adv-x="631" 
d="M532 701l-216 -151l-216 151l85 80l131 -91l131 91zM40 259q0 118 73.5 187t192.5 69t193 -66.5t74 -179.5v-50h-383q0 -45 33.5 -72t99.5 -27q43 0 72 15t36 43h160q-4 -29 -22 -60.5t-49.5 -60.5t-83 -48t-113.5 -19q-138 0 -210.5 77t-72.5 192zM190 309h233
q0 32 -27.5 54t-89.5 22t-89 -21.5t-27 -54.5z" />
    <glyph glyph-name="Gbreve" unicode="&#x11e;" horiz-adv-x="889" 
d="M588 954q0 -85 -44.5 -142t-138.5 -57t-138.5 57t-44.5 142h120q0 -50 16 -69.5t47 -19.5t47 19.5t16 69.5h120zM50 353q0 160 100.5 261t254.5 101q133 0 226 -73t109 -189h-160q-12 63 -54 92.5t-121 29.5q-195 0 -195 -222q0 -116 42.5 -169.5t130.5 -53.5
q73 0 114.5 36.5t41.5 106.5h-163v120h368q85 0 85 -85v-308h-160v243l30 110h-40q-1 -172 -71 -267.5t-211 -95.5q-155 0 -241 99t-86 264z" />
    <glyph glyph-name="gbreve" unicode="&#x11f;" horiz-adv-x="706" 
d="M335 555q-94 0 -138.5 57t-44.5 142h120q0 -50 16 -69.5t47 -19.5t47 19.5t16 69.5h120q0 -85 -44.5 -142t-138.5 -57zM652 505h44v-140h-34q-33 0 -47 -9q14 -19 14 -58q0 -68 -58.5 -116t-169.5 -86q62 4 109.5 -6t80 -41.5t32.5 -82.5q0 -37 -14 -64t-46.5 -45.5
t-73 -29.5t-108 -17t-136.5 -8t-172 -2v140q252 0 320.5 10t68.5 50q0 25 -28 36.5t-76 9t-102 -10t-115 -17.5l-15 -3l-17 90q210 22 311 46v40q-70 -25 -137.5 -31t-122 7t-87.5 52t-33 99q0 96 79.5 146.5t205.5 50.5q127 0 200 -54q34 44 127 44zM335 241q134 0 134 67
t-134 67q-135 0 -135 -67t135 -67z" />
    <glyph glyph-name="Gdotaccent" unicode="&#x120;" horiz-adv-x="889" 
d="M404 755q-99 0 -99 80q0 38 25.5 59t73.5 21t74.5 -21t26.5 -59q0 -39 -26.5 -59.5t-74.5 -20.5zM50 353q0 160 100.5 261t254.5 101q133 0 226 -73t109 -189h-160q-12 63 -54 92.5t-121 29.5q-195 0 -195 -222q0 -116 42.5 -169.5t130.5 -53.5q73 0 114.5 36.5
t41.5 106.5h-163v120h368q85 0 85 -85v-308h-160v243l30 110h-40q-1 -172 -71 -267.5t-211 -95.5q-155 0 -241 99t-86 264z" />
    <glyph glyph-name="gdotaccent" unicode="&#x121;" horiz-adv-x="706" 
d="M334 555q-99 0 -99 80q0 38 25.5 59t73.5 21t74.5 -21t26.5 -59q0 -39 -26.5 -59.5t-74.5 -20.5zM652 505h44v-140h-34q-33 0 -47 -9q14 -19 14 -58q0 -68 -58.5 -116t-169.5 -86q62 4 109.5 -6t80 -41.5t32.5 -82.5q0 -37 -14 -64t-46.5 -45.5t-73 -29.5t-108 -17
t-136.5 -8t-172 -2v140q252 0 320.5 10t68.5 50q0 25 -28 36.5t-76 9t-102 -10t-115 -17.5l-15 -3l-17 90q210 22 311 46v40q-70 -25 -137.5 -31t-122 7t-87.5 52t-33 99q0 96 79.5 146.5t205.5 50.5q127 0 200 -54q34 44 127 44zM335 241q134 0 134 67t-134 67
q-135 0 -135 -67t135 -67z" />
    <glyph glyph-name="uni0122" unicode="&#x122;" horiz-adv-x="889" 
d="M50 353q0 160 100.5 261t254.5 101q133 0 226 -73t109 -189h-160q-12 63 -54 92.5t-121 29.5q-195 0 -195 -222q0 -116 42.5 -169.5t130.5 -53.5q73 0 114.5 36.5t41.5 106.5h-163v120h368q85 0 85 -85v-308h-160v243l30 110h-40q-1 -172 -71 -267.5t-211 -95.5
q-155 0 -241 99t-86 264zM317 -49l114 -37l-62 -171l-114 37z" />
    <glyph glyph-name="uni0123" unicode="&#x123;" horiz-adv-x="706" 
d="M455 772l-73 -217l-116 31l73 217zM652 505h44v-140h-34q-33 0 -47 -9q14 -19 14 -58q0 -68 -58.5 -116t-169.5 -86q62 4 109.5 -6t80 -41.5t32.5 -82.5q0 -37 -14 -64t-46.5 -45.5t-73 -29.5t-108 -17t-136.5 -8t-172 -2v140q252 0 320.5 10t68.5 50q0 25 -28 36.5
t-76 9t-102 -10t-115 -17.5l-15 -3l-17 90q210 22 311 46v40q-70 -25 -137.5 -31t-122 7t-87.5 52t-33 99q0 96 79.5 146.5t205.5 50.5q127 0 200 -54q34 44 127 44zM335 241q134 0 134 67t-134 67q-135 0 -135 -67t135 -67z" />
    <glyph glyph-name="Hbar" unicode="&#x126;" horiz-adv-x="854" 
d="M824 625v-120h-60v-505h-160v273h-354v-273h-160v505h-60v120h60v80h160v-80h354v80h160v-80h60zM604 413v92h-354v-92h354z" />
    <glyph glyph-name="hbar" unicode="&#x127;" horiz-adv-x="718" 
d="M461 515q98 0 152.5 -63t54.5 -179v-273h-160v248q0 69 -23.5 98t-80.5 29q-70 0 -107 -43.5t-37 -144.5v-187h-160v567h-60v120h60v48h160v-48h140v-120h-140v-123l-30 -90h40q16 72 65 116.5t126 44.5z" />
    <glyph glyph-name="Imacron" unicode="&#x12a;" horiz-adv-x="580" 
d="M505 920v-118l-430 -2v120h430zM530 565h-160v-425h160v-140h-480v140h160v425h-160v140h480v-140z" />
    <glyph glyph-name="imacron" unicode="&#x12b;" horiz-adv-x="515" 
d="M40 720h430v-118l-430 -2v120zM55 0v140h143v231l-123 -6v140l190 10q42 2 64.5 -20t22.5 -64v-291h143v-140h-440z" />
    <glyph glyph-name="Iogonek" unicode="&#x12e;" horiz-adv-x="580" 
d="M530 565h-160v-425h160v-140h-99l-38 -79l136 14v-120l-185 -15q-53 -4 -81.5 32t-3.5 74l61 94h-270v140h160v425h-160v140h480v-140z" />
    <glyph glyph-name="iogonek" unicode="&#x12f;" horiz-adv-x="500" 
d="M229 555q-99 0 -99 80q0 38 25.5 59t73.5 21t74.5 -21t26.5 -59q0 -39 -26.5 -59.5t-74.5 -20.5zM480 0h-108l-38 -79l136 14v-120l-185 -15q-53 -4 -81.5 32t-3.5 74l61 94h-221v140h143v231l-123 -6v140l190 10q42 2 64.5 -20t22.5 -64v-291h143v-140z" />
    <glyph glyph-name="Idotaccent" unicode="&#x130;" horiz-adv-x="580" 
d="M289 755q-99 0 -99 80q0 38 25.5 59t73.5 21t74.5 -21t26.5 -59q0 -39 -26.5 -59.5t-74.5 -20.5zM530 565h-160v-425h160v-140h-480v140h160v425h-160v140h480v-140z" />
    <glyph glyph-name="dotlessi" unicode="&#x131;" horiz-adv-x="500" 
d="M40 0v140h143v231l-123 -6v140l190 10q42 2 64.5 -20t22.5 -64v-291h143v-140h-440z" />
    <glyph glyph-name="uni0136" unicode="&#x136;" horiz-adv-x="769" 
d="M749 705l-425 -353l425 -352h-234l-295 249v-249h-160v705h160v-250l295 250h234zM245 -220l62 171l114 -37l-62 -171z" />
    <glyph glyph-name="uni0137" unicode="&#x137;" horiz-adv-x="669" 
d="M468 259l171 -259h-182l-126 195l-111 -52v-143h-160v735h160v-427l231 106l-2 91h160v-110q0 -70 -63 -100zM210 -220l62 171l114 -37l-62 -171z" />
    <glyph glyph-name="Lacute" unicode="&#x139;" horiz-adv-x="590" 
d="M60 869l390 86l27 -114l-390 -86zM153 -10q-41 -1 -63.5 21t-22.5 63v631h160v-575l343 10v-140z" />
    <glyph glyph-name="lacute" unicode="&#x13a;" horiz-adv-x="512" 
d="M28 899l390 86l27 -114l-390 -86zM52 0v140h140v461l-120 -6v140l193 7q42 1 64.5 -20.5t22.5 -63.5v-518h140v-140h-440z" />
    <glyph glyph-name="uni013B" unicode="&#x13b;" horiz-adv-x="583" 
d="M146 -10q-41 -1 -63.5 21t-22.5 63v631h160v-575l343 10v-140zM269 -49l114 -37l-62 -171l-114 37z" />
    <glyph glyph-name="uni013C" unicode="&#x13c;" horiz-adv-x="490" 
d="M30 0v140h140v461l-120 -6v140l193 7q42 1 64.5 -20.5t22.5 -63.5v-518h140v-140h-440zM182 -49l114 -37l-62 -171l-114 37z" />
    <glyph glyph-name="Lcaron" unicode="&#x13d;" horiz-adv-x="593" 
d="M337 775h120v-320h-120v320zM146 -10q-41 -1 -63.5 21t-22.5 63v631h160v-575l343 10v-140z" />
    <glyph glyph-name="lcaron" unicode="&#x13e;" horiz-adv-x="540" 
d="M400 775h120v-320h-120v320zM30 0v140h140v461l-120 -6v140l193 7q42 1 64.5 -20.5t22.5 -63.5v-518h140v-140h-440z" />
    <glyph glyph-name="Lslash" unicode="&#x141;" horiz-adv-x="676" 
d="M303 130l343 10v-140l-417 -10q-41 -1 -63.5 21t-22.5 63v225l-73 -20l-30 114l103 28v284h160v-241l172 47l30 -114l-202 -55v-212z" />
    <glyph glyph-name="lslash" unicode="&#x142;" horiz-adv-x="490" 
d="M330 140h140v-140h-440v140h140v142l-98 -27l-30 115l128 35v196l-120 -6v140l193 7q42 1 64.5 -20.5t22.5 -63.5v-210l98 27l30 -115l-128 -35v-185z" />
    <glyph glyph-name="Nacute" unicode="&#x143;" horiz-adv-x="818" 
d="M210 869l390 86l27 -114l-390 -86zM60 0v705h315l213 -665h40l-30 100v565h160v-705h-315l-213 665h-40l30 -100v-565h-160z" />
    <glyph glyph-name="nacute" unicode="&#x144;" horiz-adv-x="678" 
d="M140 669l390 86l27 -114l-390 -86zM364 375q-70 0 -107 -43.5t-37 -144.5v-187h-160v505h160v-61l-30 -90h40q16 72 65 116.5t126 44.5q98 0 152.5 -63t54.5 -179v-273h-160v248q0 69 -23.5 98t-80.5 29z" />
    <glyph glyph-name="uni0145" unicode="&#x145;" horiz-adv-x="818" 
d="M60 0v705h315l213 -665h40l-30 100v565h160v-705h-315l-213 665h-40l30 -100v-565h-160zM346 -49l114 -37l-62 -171l-114 37z" />
    <glyph glyph-name="uni0146" unicode="&#x146;" horiz-adv-x="678" 
d="M364 375q-70 0 -107 -43.5t-37 -144.5v-187h-160v505h160v-61l-30 -90h40q16 72 65 116.5t126 44.5q98 0 152.5 -63t54.5 -179v-273h-160v248q0 69 -23.5 98t-80.5 29zM286 -49l114 -37l-62 -171l-114 37z" />
    <glyph glyph-name="Ncaron" unicode="&#x147;" horiz-adv-x="818" 
d="M645 901l-216 -151l-216 151l85 80l131 -91l131 91zM60 0v705h315l213 -665h40l-30 100v565h160v-705h-315l-213 665h-40l30 -100v-565h-160z" />
    <glyph glyph-name="ncaron" unicode="&#x148;" horiz-adv-x="678" 
d="M575 701l-216 -151l-216 151l85 80l131 -91l131 91zM364 375q-70 0 -107 -43.5t-37 -144.5v-187h-160v505h160v-61l-30 -90h40q16 72 65 116.5t126 44.5q98 0 152.5 -63t54.5 -179v-273h-160v248q0 69 -23.5 98t-80.5 29z" />
    <glyph glyph-name="Eng" unicode="&#x14a;" horiz-adv-x="818" 
d="M598 705h160v-821q0 -42 -22.5 -64t-63.5 -20l-247 7v140l173 -6v59h-155l-213 665h-40l30 -100v-565h-160v705h315l213 -665h40l-30 100v565z" />
    <glyph glyph-name="eng" unicode="&#x14b;" horiz-adv-x="678" 
d="M421 515q98 0 152.5 -63t54.5 -179v-389q0 -42 -22.5 -64t-63.5 -20l-247 7v140l173 -6v307q0 69 -23.5 98t-80.5 29q-70 0 -107 -43.5t-37 -144.5v-187h-160v505h160v-61l-30 -90h40q16 72 65 116.5t126 44.5z" />
    <glyph glyph-name="Omacron" unicode="&#x14c;" horiz-adv-x="819" 
d="M195 920h430v-118l-430 -2v120zM50 353q0 157 98 259.5t262 102.5t261.5 -102.5t97.5 -259.5q0 -158 -97.5 -260.5t-261.5 -102.5q-165 0 -262.5 102.5t-97.5 260.5zM210 353q0 -104 51 -163.5t149 -59.5t148.5 59.5t50.5 163.5t-50.5 163t-148.5 59t-149 -59t-51 -163z
" />
    <glyph glyph-name="omacron" unicode="&#x14d;" horiz-adv-x="649" 
d="M110 720h430v-118l-430 -2v120zM40 253q0 127 80 194.5t205 67.5t204.5 -67.5t79.5 -194.5t-79.5 -195t-204.5 -68t-205 67.5t-80 195.5zM200 253q0 -62 33 -92.5t92 -30.5q58 0 91 30.5t33 92.5q0 61 -33 91.5t-91 30.5q-59 0 -92 -30.5t-33 -91.5z" />
    <glyph glyph-name="Ohungarumlaut" unicode="&#x150;" horiz-adv-x="819" 
d="M178 833l200 169l84 -78l-200 -169zM428 833l200 169l84 -78l-200 -169zM50 353q0 157 98 259.5t262 102.5t261.5 -102.5t97.5 -259.5q0 -158 -97.5 -260.5t-261.5 -102.5q-165 0 -262.5 102.5t-97.5 260.5zM210 353q0 -104 51 -163.5t149 -59.5t148.5 59.5t50.5 163.5
t-50.5 163t-148.5 59t-149 -59t-51 -163z" />
    <glyph glyph-name="ohungarumlaut" unicode="&#x151;" horiz-adv-x="649" 
d="M93 633l200 169l84 -78l-200 -169zM343 633l200 169l84 -78l-200 -169zM40 253q0 127 80 194.5t205 67.5t204.5 -67.5t79.5 -194.5t-79.5 -195t-204.5 -68t-205 67.5t-80 195.5zM200 253q0 -62 33 -92.5t92 -30.5q58 0 91 30.5t33 92.5q0 61 -33 91.5t-91 30.5
q-59 0 -92 -30.5t-33 -91.5z" />
    <glyph glyph-name="OE" unicode="&#x152;" horiz-adv-x="1162" 
d="M1122 565h-343v-142h293v-140h-293v-143h343v-140h-503v49q-87 -59 -209 -59q-165 0 -262.5 102.5t-97.5 260.5q0 157 98 259.5t262 102.5q122 0 209 -59v49h503v-140zM410 130q98 0 148.5 59.5t50.5 163.5t-50.5 163t-148.5 59t-149 -59t-51 -163t51 -163.5t149 -59.5z
" />
    <glyph glyph-name="oe" unicode="&#x153;" horiz-adv-x="1080" 
d="M880 178h160q-4 -29 -22 -60.5t-49.5 -60.5t-83 -48t-113.5 -19q-145 0 -222 89q-76 -89 -225 -89q-125 0 -205 67.5t-80 195.5q0 127 80 194.5t205 67.5q144 0 222 -85q73 85 208 85q119 0 193 -66.5t74 -179.5v-50h-383q0 -45 33.5 -72t99.5 -27q43 0 72 15t36 43z
M755 385q-62 0 -89 -21.5t-27 -54.5h233q0 32 -27.5 54t-89.5 22zM325 130q58 0 91 30.5t33 92.5q0 61 -33 91.5t-91 30.5q-59 0 -92 -30.5t-33 -91.5q0 -62 33 -92.5t92 -30.5z" />
    <glyph glyph-name="Racute" unicode="&#x154;" horiz-adv-x="716" 
d="M124 869l390 86l27 -114l-390 -86zM60 0v705h273q314 0 314 -197q0 -137 -179 -158v-40h103q85 0 85 -85v-225h-160v248h-276v-248h-160zM220 388h113q37 0 53.5 0.5t40.5 5t34 13.5t18 26t8 43t-8 43.5t-18 26.5t-34 13.5t-40.5 5t-53.5 0.5h-113v-177z" />
    <glyph glyph-name="racute" unicode="&#x155;" horiz-adv-x="499" 
d="M60 669l390 86l27 -114l-390 -86zM72 0v429q0 41 22.5 63t63.5 21l331 -8v-140l-257 6v-371h-160z" />
    <glyph glyph-name="uni0156" unicode="&#x156;" horiz-adv-x="716" 
d="M60 0v705h273q314 0 314 -197q0 -137 -179 -158v-40h103q85 0 85 -85v-225h-160v248h-276v-248h-160zM220 388h113q37 0 53.5 0.5t40.5 5t34 13.5t18 26t8 43t-8 43.5t-18 26.5t-34 13.5t-40.5 5t-53.5 0.5h-113v-177zM310 -49l114 -37l-62 -171l-114 37z" />
    <glyph glyph-name="uni0157" unicode="&#x157;" horiz-adv-x="476" 
d="M49 0v429q0 41 22.5 63t63.5 21l331 -8v-140l-257 6v-371h-160zM67 -49l114 -37l-62 -171l-114 37z" />
    <glyph glyph-name="Rcaron" unicode="&#x158;" horiz-adv-x="716" 
d="M559 901l-216 -151l-216 151l85 80l131 -91l131 91zM60 0v705h273q314 0 314 -197q0 -137 -179 -158v-40h103q85 0 85 -85v-225h-160v248h-276v-248h-160zM220 388h113q37 0 53.5 0.5t40.5 5t34 13.5t18 26t8 43t-8 43.5t-18 26.5t-34 13.5t-40.5 5t-53.5 0.5h-113v-177z
" />
    <glyph glyph-name="rcaron" unicode="&#x159;" horiz-adv-x="502" 
d="M492 701l-216 -151l-216 151l85 80l131 -91l131 91zM69 0v429q0 41 22.5 63t63.5 21l331 -8v-140l-257 6v-371h-160z" />
    <glyph glyph-name="Sacute" unicode="&#x15a;" horiz-adv-x="711" 
d="M137 869l390 86l27 -114l-390 -86zM681 194q0 -96 -73 -150t-229 -54q-184 0 -266.5 71.5t-82.5 210.5h160q0 -80 43.5 -111t150.5 -31q137 0 137 62q0 22 -24 40.5t-51 29t-84 29.5q-6 2 -10 3t-9.5 3t-10.5 4q-50 17 -73 25.5t-62 25t-57.5 31t-39.5 36.5t-29.5 49
t-8.5 61q0 90 70.5 138t206.5 48q155 0 234 -69.5t79 -180.5h-160q0 110 -153 110q-117 0 -117 -52q0 -24 23 -39t107 -43q140 -48 188 -71q141 -71 141 -176z" />
    <glyph glyph-name="sacute" unicode="&#x15b;" horiz-adv-x="551" 
d="M62 669l390 86l27 -114l-390 -86zM531 139q0 -149 -235 -149q-135 0 -200.5 50.5t-65.5 142.5h160q0 -73 111 -73q70 0 70 34q0 17 -17 26t-74 28l-18 6q-5 2 -35 11.5t-38.5 12.5t-33.5 13t-34 17t-26 20t-23.5 25.5t-12.5 30.5t-6 39q0 67 58 104.5t162 37.5
q121 0 181 -51.5t60 -131.5h-160q0 28 -21 45.5t-61 17.5q-59 0 -59 -29q0 -16 27.5 -28.5t102.5 -36.5q99 -32 131 -54q57 -38 57 -108z" />
    <glyph glyph-name="Scedilla" unicode="&#x15e;" horiz-adv-x="711" 
d="M681 194q0 -194 -276 -204l-45 -50q44 20 93 20q86 0 86 -62q0 -35 -22 -58t-65.5 -33t-86.5 -13.5t-105 -3.5v90q121 0 139 4q19 6 20 19q0 17 -23 17q-27 0 -78 -18l-51 39l25 54q-138 16 -200 86t-62 191h160q0 -80 43.5 -111t150.5 -31q137 0 137 62q0 22 -24 40.5
t-51 29t-84 29.5q-6 2 -10 3t-9.5 3t-10.5 4q-50 17 -73 25.5t-62 25t-57.5 31t-39.5 36.5t-29.5 49t-8.5 61q0 90 70.5 138t206.5 48q155 0 234 -69.5t79 -180.5h-160q0 110 -153 110q-117 0 -117 -52q0 -24 23 -39t107 -43q140 -48 188 -71q141 -71 141 -176z" />
    <glyph glyph-name="scedilla" unicode="&#x15f;" horiz-adv-x="551" 
d="M531 139q0 -137 -200 -148l-46 -51q44 20 93 20q86 0 86 -62q0 -35 -22 -58t-65.5 -33t-86.5 -13.5t-105 -3.5v90q121 0 139 4q19 6 20 19q0 17 -23 17q-27 0 -78 -18l-51 39l25 54q-187 27 -187 188h160q0 -73 111 -73q70 0 70 34q0 17 -17 26t-74 28l-18 6
q-5 2 -35 11.5t-38.5 12.5t-33.5 13t-34 17t-26 20t-23.5 25.5t-12.5 30.5t-6 39q0 67 58 104.5t162 37.5q121 0 181 -51.5t60 -131.5h-160q0 28 -21 45.5t-61 17.5q-59 0 -59 -29q0 -16 27.5 -28.5t102.5 -36.5q99 -32 131 -54q57 -38 57 -108z" />
    <glyph glyph-name="Scaron" unicode="&#x160;" horiz-adv-x="711" 
d="M572 901l-216 -151l-216 151l85 80l131 -91l131 91zM681 194q0 -96 -73 -150t-229 -54q-184 0 -266.5 71.5t-82.5 210.5h160q0 -80 43.5 -111t150.5 -31q137 0 137 62q0 22 -24 40.5t-51 29t-84 29.5q-6 2 -10 3t-9.5 3t-10.5 4q-50 17 -73 25.5t-62 25t-57.5 31
t-39.5 36.5t-29.5 49t-8.5 61q0 90 70.5 138t206.5 48q155 0 234 -69.5t79 -180.5h-160q0 110 -153 110q-117 0 -117 -52q0 -24 23 -39t107 -43q140 -48 188 -71q141 -71 141 -176z" />
    <glyph glyph-name="scaron" unicode="&#x161;" horiz-adv-x="551" 
d="M497 701l-216 -151l-216 151l85 80l131 -91l131 91zM531 139q0 -149 -235 -149q-135 0 -200.5 50.5t-65.5 142.5h160q0 -73 111 -73q70 0 70 34q0 17 -17 26t-74 28l-18 6q-5 2 -35 11.5t-38.5 12.5t-33.5 13t-34 17t-26 20t-23.5 25.5t-12.5 30.5t-6 39q0 67 58 104.5
t162 37.5q121 0 181 -51.5t60 -131.5h-160q0 28 -21 45.5t-61 17.5q-59 0 -59 -29q0 -16 27.5 -28.5t102.5 -36.5q99 -32 131 -54q57 -38 57 -108z" />
    <glyph glyph-name="uni0162" unicode="&#x162;" horiz-adv-x="681" 
d="M421 0h-22l-54 -60q44 20 93 20q86 0 86 -62q0 -35 -22 -58t-65.5 -33t-86.5 -13.5t-105 -3.5v90q121 0 139 4q19 6 20 19q0 17 -23 17q-27 0 -78 -18l-51 39l27 59h-18v565h-231v140h621v-140h-230v-565z" />
    <glyph glyph-name="uni0163" unicode="&#x163;" horiz-adv-x="506" 
d="M400 -40q86 0 86 -62q0 -35 -22 -58t-65.5 -33t-86.5 -13.5t-105 -3.5v90q121 0 139 4q19 6 20 19q0 17 -23 17q-27 0 -78 -18l-51 39l23 50l-22 -1q-41 -1 -63 21t-22 64v290h-120v140h120v95l160 50v-145h166v-140h-166v-235l186 10v-140l-119 -5l-50 -55q44 20 93 20z
" />
    <glyph glyph-name="Tcaron" unicode="&#x164;" horiz-adv-x="681" 
d="M557 901l-216 -151l-216 151l85 80l131 -91l131 91zM651 705v-140h-230v-565h-160v565h-231v140h621z" />
    <glyph glyph-name="tcaron" unicode="&#x165;" horiz-adv-x="506" 
d="M356 735h120v-180h-120v180zM290 365v-235l186 10v-140l-261 -10q-41 -1 -63 21t-22 64v290h-120v140h120v95l160 50v-145h166v-140h-166z" />
    <glyph glyph-name="Tbar" unicode="&#x166;" horiz-adv-x="681" 
d="M651 565h-230v-170h149v-120h-149v-275h-160v275h-151v120h151v170h-231v140h621v-140z" />
    <glyph glyph-name="tbar" unicode="&#x167;" horiz-adv-x="506" 
d="M290 130l186 10v-140l-261 -10q-41 -1 -63 21t-22 64v127h-100v120h100v43h-120v140h120v95l160 50v-145h166v-140h-166v-43h146v-120h-146v-72z" />
    <glyph glyph-name="Umacron" unicode="&#x16a;" horiz-adv-x="717" 
d="M143 920h430v-118l-430 -2v120zM40 262v443h160v-372q0 -44 2.5 -70.5t11 -54.5t25.5 -43.5t46.5 -25t72.5 -9.5q54 0 87 13t48 42.5t19.5 61.5t4.5 86v372h160v-443q0 -132 -81.5 -202t-237.5 -70t-237 69.5t-81 202.5z" />
    <glyph glyph-name="umacron" unicode="&#x16b;" horiz-adv-x="668" 
d="M119 720h430v-118l-430 -2v120zM314 130q70 0 107 43.5t37 144.5v187h160v-505h-160v61l30 90h-40q-16 -72 -65 -116.5t-126 -44.5q-98 0 -152.5 63t-54.5 179v273h160v-248q0 -69 23.5 -98t80.5 -29z" />
    <glyph glyph-name="Uring" unicode="&#x16e;" horiz-adv-x="717" 
d="M357 755q-74 0 -115.5 31t-41.5 92q0 60 41.5 91.5t115.5 31.5t116 -31.5t42 -91.5t-42 -91.5t-116 -31.5zM357 845q38 0 38 33q0 32 -38 32q-37 0 -37 -32q0 -33 37 -33zM40 262v443h160v-372q0 -44 2.5 -70.5t11 -54.5t25.5 -43.5t46.5 -25t72.5 -9.5q54 0 87 13
t48 42.5t19.5 61.5t4.5 86v372h160v-443q0 -132 -81.5 -202t-237.5 -70t-237 69.5t-81 202.5z" />
    <glyph glyph-name="uring" unicode="&#x16f;" horiz-adv-x="668" 
d="M333 555q-74 0 -115.5 31t-41.5 92q0 60 41.5 91.5t115.5 31.5t116 -31.5t42 -91.5t-42 -91.5t-116 -31.5zM333 645q38 0 38 33q0 32 -38 32q-37 0 -37 -32q0 -33 37 -33zM314 130q70 0 107 43.5t37 144.5v187h160v-505h-160v61l30 90h-40q-16 -72 -65 -116.5t-126 -44.5
q-98 0 -152.5 63t-54.5 179v273h160v-248q0 -69 23.5 -98t80.5 -29z" />
    <glyph glyph-name="Uhungarumlaut" unicode="&#x170;" horiz-adv-x="717" 
d="M126 833l200 169l84 -78l-200 -169zM376 833l200 169l84 -78l-200 -169zM40 262v443h160v-372q0 -44 2.5 -70.5t11 -54.5t25.5 -43.5t46.5 -25t72.5 -9.5q54 0 87 13t48 42.5t19.5 61.5t4.5 86v372h160v-443q0 -132 -81.5 -202t-237.5 -70t-237 69.5t-81 202.5z" />
    <glyph glyph-name="uhungarumlaut" unicode="&#x171;" horiz-adv-x="668" 
d="M102 633l200 169l84 -78l-200 -169zM352 633l200 169l84 -78l-200 -169zM314 130q70 0 107 43.5t37 144.5v187h160v-505h-160v61l30 90h-40q-16 -72 -65 -116.5t-126 -44.5q-98 0 -152.5 63t-54.5 179v273h160v-248q0 -69 23.5 -98t80.5 -29z" />
    <glyph glyph-name="Uogonek" unicode="&#x172;" horiz-adv-x="717" 
d="M517 705h160v-443q0 -220 -216 -263l-37 -78l136 14v-120l-185 -15q-53 -4 -81.5 32t-3.5 74l55 84q-150 3 -227.5 72.5t-77.5 199.5v443h160v-372q0 -44 2.5 -70.5t11 -54.5t25.5 -43.5t46.5 -25t72.5 -9.5q54 0 87 13t48 42.5t19.5 61.5t4.5 86v372z" />
    <glyph glyph-name="uogonek" unicode="&#x173;" horiz-adv-x="668" 
d="M580 -79l136 14v-120l-185 -15q-53 -4 -81.5 32t-3.5 74l61 94h-49v61l30 90h-40q-16 -72 -65 -116.5t-126 -44.5q-98 0 -152.5 63t-54.5 179v273h160v-248q0 -69 23.5 -98t80.5 -29q70 0 107 43.5t37 144.5v187h160v-505z" />
    <glyph glyph-name="Wcircumflex" unicode="&#x174;" horiz-adv-x="1168" 
d="M800 824l-85 -80l-131 91l-131 -91l-85 80l216 151zM20 705h155l112 -665h40l87 665h340l87 -665h40l112 665h155l-121 -705h-332l-91 665h-40l-91 -665h-332z" />
    <glyph glyph-name="wcircumflex" unicode="&#x175;" horiz-adv-x="948" 
d="M690 624l-85 -80l-131 91l-131 -91l-85 80l216 151zM10 505h153l65 -465h40l39 465h334l39 -465h40l66 465h152l-71 -505h-334l-39 465h-40l-39 -465h-334z" />
    <glyph glyph-name="Ycircumflex" unicode="&#x176;" horiz-adv-x="723" 
d="M577 824l-85 -80l-131 91l-131 -91l-85 80l216 151zM532 705h171l-262 -478v-227h-160v227l-261 478h171l150 -294v-90h40v90z" />
    <glyph glyph-name="ycircumflex" unicode="&#x177;" horiz-adv-x="672" 
d="M341 635l-131 -91l-85 80l216 151l216 -151l-85 -80zM471 505h181l-231 -475v-156q0 -42 -22.5 -64t-63.5 -20l-247 7v140l173 -3v96l-231 475h180l111 -278v-80h40v80z" />
    <glyph glyph-name="Ydieresis" unicode="&#x178;" horiz-adv-x="723" 
d="M230 755q-99 0 -99 80q0 38 25.5 59t73.5 21t74.5 -21t26.5 -59q0 -39 -26.5 -59.5t-74.5 -20.5zM490 755q-99 0 -99 80q0 38 25.5 59t73.5 21t74.5 -21t26.5 -59q0 -39 -26.5 -59.5t-74.5 -20.5zM532 705h171l-262 -478v-227h-160v227l-261 478h171l150 -294v-90h40v90z
" />
    <glyph glyph-name="Zacute" unicode="&#x179;" horiz-adv-x="667" 
d="M115 869l390 86l27 -114l-390 -86zM40 0v295l547 260v40l-90 -30h-457v140h587v-295l-547 -260v-40l90 30h457v-140h-587z" />
    <glyph glyph-name="zacute" unicode="&#x17a;" horiz-adv-x="577" 
d="M70 669l390 86l27 -114l-390 -86zM40 0v270l457 85v40l-90 -30h-367v140h497v-270l-457 -85v-40l90 30h367v-140h-497z" />
    <glyph glyph-name="Zdotaccent" unicode="&#x17b;" horiz-adv-x="667" 
d="M333 755q-99 0 -99 80q0 38 25.5 59t73.5 21t74.5 -21t26.5 -59q0 -39 -26.5 -59.5t-74.5 -20.5zM40 0v295l547 260v40l-90 -30h-457v140h587v-295l-547 -260v-40l90 30h457v-140h-587z" />
    <glyph glyph-name="zdotaccent" unicode="&#x17c;" horiz-adv-x="577" 
d="M288 555q-99 0 -99 80q0 38 25.5 59t73.5 21t74.5 -21t26.5 -59q0 -39 -26.5 -59.5t-74.5 -20.5zM40 0v270l457 85v40l-90 -30h-367v140h497v-270l-457 -85v-40l90 30h367v-140h-497z" />
    <glyph glyph-name="Zcaron" unicode="&#x17d;" horiz-adv-x="667" 
d="M550 901l-216 -151l-216 151l85 80l131 -91l131 91zM40 0v295l547 260v40l-90 -30h-457v140h587v-295l-547 -260v-40l90 30h457v-140h-587z" />
    <glyph glyph-name="zcaron" unicode="&#x17e;" horiz-adv-x="577" 
d="M505 701l-216 -151l-216 151l85 80l131 -91l131 91zM40 0v270l457 85v40l-90 -30h-367v140h497v-270l-457 -85v-40l90 30h367v-140h-497z" />
    <glyph glyph-name="uni0218" unicode="&#x218;" horiz-adv-x="711" 
d="M681 194q0 -96 -73 -150t-229 -54q-184 0 -266.5 71.5t-82.5 210.5h160q0 -80 43.5 -111t150.5 -31q137 0 137 62q0 22 -24 40.5t-51 29t-84 29.5q-6 2 -10 3t-9.5 3t-10.5 4q-50 17 -73 25.5t-62 25t-57.5 31t-39.5 36.5t-29.5 49t-8.5 61q0 90 70.5 138t206.5 48
q155 0 234 -69.5t79 -180.5h-160q0 110 -153 110q-117 0 -117 -52q0 -24 23 -39t107 -43q140 -48 188 -71q141 -71 141 -176zM293 -49l114 -37l-62 -171l-114 37z" />
    <glyph glyph-name="uni0219" unicode="&#x219;" horiz-adv-x="551" 
d="M531 139q0 -149 -235 -149q-135 0 -200.5 50.5t-65.5 142.5h160q0 -73 111 -73q70 0 70 34q0 17 -17 26t-74 28l-18 6q-5 2 -35 11.5t-38.5 12.5t-33.5 13t-34 17t-26 20t-23.5 25.5t-12.5 30.5t-6 39q0 67 58 104.5t162 37.5q121 0 181 -51.5t60 -131.5h-160
q0 28 -21 45.5t-61 17.5q-59 0 -59 -29q0 -16 27.5 -28.5t102.5 -36.5q99 -32 131 -54q57 -38 57 -108zM218 -49l114 -37l-62 -171l-114 37z" />
    <glyph glyph-name="uni021A" unicode="&#x21a;" horiz-adv-x="681" 
d="M651 705v-140h-230v-565h-160v565h-231v140h621zM216 -220l62 171l114 -37l-62 -171z" />
    <glyph glyph-name="uni021B" unicode="&#x21b;" horiz-adv-x="506" 
d="M290 130l186 10v-140l-261 -10q-41 -1 -63 21t-22 64v290h-120v140h120v95l160 50v-145h166v-140h-166v-235zM178 -220l62 171l114 -37l-62 -171z" />
    <glyph glyph-name="circumflex" unicode="&#x2c6;" horiz-adv-x="572" 
d="M502 624l-85 -80l-131 91l-131 -91l-85 80l216 151z" />
    <glyph glyph-name="caron" unicode="&#x2c7;" horiz-adv-x="572" 
d="M502 701l-216 -151l-216 151l85 80l131 -91l131 91z" />
    <glyph glyph-name="breve" unicode="&#x2d8;" horiz-adv-x="506" 
d="M436 754q0 -85 -44.5 -142t-138.5 -57t-138.5 57t-44.5 142h120q0 -50 16 -69.5t47 -19.5t47 19.5t16 69.5h120z" />
    <glyph glyph-name="dotaccent" unicode="&#x2d9;" horiz-adv-x="340" 
d="M169 555q-99 0 -99 80q0 38 25.5 59t73.5 21t74.5 -21t26.5 -59q0 -39 -26.5 -59.5t-74.5 -20.5z" />
    <glyph glyph-name="ring" unicode="&#x2da;" horiz-adv-x="435" 
d="M227 555q-74 0 -115.5 31t-41.5 92q0 60 41.5 91.5t115.5 31.5t116 -31.5t42 -91.5t-42 -91.5t-116 -31.5zM227 645q38 0 38 33q0 32 -38 32q-37 0 -37 -32q0 -33 37 -33z" />
    <glyph glyph-name="ogonek" unicode="&#x2db;" horiz-adv-x="421" 
d="M351 -65v-120l-185 -15q-53 -4 -81.5 32t-3.5 74l62 95h110l-38 -80z" />
    <glyph glyph-name="tilde" unicode="&#x2dc;" horiz-adv-x="608" 
d="M70 590q0 88 39 139t108 51q31 0 58 -12.5t42 -27.5t32.5 -27.5t31.5 -12.5q19 0 28 14t9 56h120q0 -88 -39 -139t-108 -51q-31 0 -58 12.5t-42 27.5t-32.5 27.5t-31.5 12.5q-19 0 -28 -14t-9 -56h-120z" />
    <glyph glyph-name="hungarumlaut" unicode="&#x2dd;" horiz-adv-x="674" 
d="M70 633l200 169l84 -78l-200 -169zM320 633l200 169l84 -78l-200 -169z" />
    <glyph glyph-name="gravecomb" unicode="&#x300;" horiz-adv-x="0" 
d="M-70 669l-27 -114l-390 86l27 114z" />
    <glyph glyph-name="acutecomb" unicode="&#x301;" horiz-adv-x="0" 
d="M-487 669l390 86l27 -114l-390 -86z" />
    <glyph glyph-name="uni0302" unicode="&#x302;" horiz-adv-x="0" 
d="M-70 624l-85 -80l-131 91l-131 -91l-85 80l216 151z" />
    <glyph glyph-name="tildecomb" unicode="&#x303;" horiz-adv-x="0" 
d="M-538 590q0 88 39 139t108 51q31 0 58 -12.5t42 -27.5t32.5 -27.5t31.5 -12.5q19 0 28 14t9 56h120q0 -88 -39 -139t-108 -51q-31 0 -58 12.5t-42 27.5t-32.5 27.5t-31.5 12.5q-19 0 -28 -14t-9 -56h-120z" />
    <glyph glyph-name="uni0304" unicode="&#x304;" horiz-adv-x="0" 
d="M-500 720h430v-118l-430 -2v120z" />
    <glyph glyph-name="uni0306" unicode="&#x306;" horiz-adv-x="0" 
d="M-70 754q0 -85 -44.5 -142t-138.5 -57t-138.5 57t-44.5 142h120q0 -50 16 -69.5t47 -19.5t47 19.5t16 69.5h120z" />
    <glyph glyph-name="uni0307" unicode="&#x307;" horiz-adv-x="0" 
d="M-171 555q-99 0 -99 80q0 38 25.5 59t73.5 21t74.5 -21t26.5 -59q0 -39 -26.5 -59.5t-74.5 -20.5z" />
    <glyph glyph-name="uni0308" unicode="&#x308;" horiz-adv-x="0" 
d="M-431 555q-99 0 -99 80q0 38 25.5 59t73.5 21t74.5 -21t26.5 -59q0 -39 -26.5 -59.5t-74.5 -20.5zM-171 555q-99 0 -99 80q0 38 25.5 59t73.5 21t74.5 -21t26.5 -59q0 -39 -26.5 -59.5t-74.5 -20.5z" />
    <glyph glyph-name="uni030A" unicode="&#x30a;" horiz-adv-x="0" 
d="M-228 555q-74 0 -115.5 31t-41.5 92q0 60 41.5 91.5t115.5 31.5t116 -31.5t42 -91.5t-42 -91.5t-116 -31.5zM-228 645q38 0 38 33q0 32 -38 32q-37 0 -37 -32q0 -33 37 -33z" />
    <glyph glyph-name="uni030B" unicode="&#x30b;" horiz-adv-x="0" 
d="M-604 633l200 169l84 -78l-200 -169zM-354 633l200 169l84 -78l-200 -169z" />
    <glyph glyph-name="uni030C" unicode="&#x30c;" horiz-adv-x="0" 
d="M-70 701l-216 -151l-216 151l85 80l131 -91l131 91z" />
    <glyph glyph-name="uni0312" unicode="&#x312;" horiz-adv-x="0" 
d="M-186 803l116 -31l-73 -217l-116 31z" />
    <glyph glyph-name="uni0326" unicode="&#x326;" horiz-adv-x="0" 
d="M-189 -49l114 -37l-62 -171l-114 37z" />
    <glyph glyph-name="uni0327" unicode="&#x327;" horiz-adv-x="0" 
d="M-156 -40q86 0 86 -62q0 -35 -22 -58t-65.5 -33t-86.5 -13.5t-105 -3.5v90q121 0 139 4q20 5 20 19q0 17 -23 17q-27 0 -78 -18l-51 39l27 59h120l-54 -60q44 20 93 20z" />
    <glyph glyph-name="uni0328" unicode="&#x328;" horiz-adv-x="0" 
d="M-70 -65v-120l-185 -15q-53 -4 -81.5 32t-3.5 74l62 95h110l-38 -80z" />
    <glyph glyph-name="uni0400" unicode="&#x400;" horiz-adv-x="603" 
d="M530 869l-27 -114l-390 86l27 114zM60 0v705h503v-140h-343v-142h293v-140h-293v-143h343v-140h-503z" />
    <glyph glyph-name="uni0401" unicode="&#x401;" horiz-adv-x="603" 
d="M181 755q-99 0 -99 80q0 38 25.5 59t73.5 21t74.5 -21t26.5 -59q0 -39 -26.5 -59.5t-74.5 -20.5zM441 755q-99 0 -99 80q0 38 25.5 59t73.5 21t74.5 -21t26.5 -59q0 -39 -26.5 -59.5t-74.5 -20.5zM60 0v705h503v-140h-343v-142h293v-140h-293v-143h343v-140h-503z" />
    <glyph glyph-name="uni0402" unicode="&#x402;" horiz-adv-x="867" 
d="M530 443q145 20 221 -25t76 -174q0 -57 -18.5 -101t-48.5 -70.5t-72.5 -43.5t-84.5 -23t-91 -6v140q77 0 116 25t39 69q0 51 -35.5 65t-104.5 4l-127 -18v-285h-160v565h-220v140h600v-140h-220v-140z" />
    <glyph glyph-name="uni0403" unicode="&#x403;" horiz-adv-x="587" 
d="M103 869l390 86l27 -114l-390 -86zM60 0v705h497v-140h-337v-565h-160z" />
    <glyph glyph-name="uni0404" unicode="&#x404;" horiz-adv-x="810" 
d="M414 130q74 0 124 37.5t62 105.5h160q-16 -132 -108.5 -207.5t-239.5 -75.5q-165 0 -263.5 102.5t-98.5 260.5q0 157 98.5 259.5t263.5 102.5q147 0 239.5 -75.5t108.5 -206.5h-160q-12 68 -62 105t-124 37q-77 0 -128.5 -39t-68.5 -113h255v-140h-255
q17 -74 68.5 -113.5t128.5 -39.5z" />
    <glyph glyph-name="uni0405" unicode="&#x405;" horiz-adv-x="711" 
d="M681 194q0 -96 -73 -150t-229 -54q-184 0 -266.5 71.5t-82.5 210.5h160q0 -80 43.5 -111t150.5 -31q137 0 137 62q0 22 -24 40.5t-51 29t-84 29.5q-6 2 -10 3t-9.5 3t-10.5 4q-50 17 -73 25.5t-62 25t-57.5 31t-39.5 36.5t-29.5 49t-8.5 61q0 90 70.5 138t206.5 48
q155 0 234 -69.5t79 -180.5h-160q0 110 -153 110q-117 0 -117 -52q0 -24 23 -39t107 -43q140 -48 188 -71q141 -71 141 -176z" />
    <glyph glyph-name="uni0406" unicode="&#x406;" horiz-adv-x="580" 
d="M530 565h-160v-425h160v-140h-480v140h160v425h-160v140h480v-140z" />
    <glyph glyph-name="uni0407" unicode="&#x407;" horiz-adv-x="580" 
d="M159 755q-99 0 -99 80q0 38 25.5 59t73.5 21t74.5 -21t26.5 -59q0 -39 -26.5 -59.5t-74.5 -20.5zM419 755q-99 0 -99 80q0 38 25.5 59t73.5 21t74.5 -21t26.5 -59q0 -39 -26.5 -59.5t-74.5 -20.5zM530 565h-160v-425h160v-140h-480v140h160v425h-160v140h480v-140z" />
    <glyph glyph-name="uni0408" unicode="&#x408;" horiz-adv-x="535" 
d="M199 -10l-179 10v140l179 -10q34 -2 58 6.5t37 23t20 42.5t9 54t2 68v251l-212 -10v140l287 10q41 1 63 -21t22 -64v-360q0 -157 -61.5 -223t-224.5 -57z" />
    <glyph glyph-name="uni0409" unicode="&#x409;" horiz-adv-x="1123" 
d="M769 475q56 0 98 -4.5t84.5 -19.5t70 -40.5t44.5 -69.5t17 -104t-17 -104t-44.5 -69.5t-70.5 -40t-84.5 -19t-97.5 -4.5h-253v565h-189q-1 -89 -5.5 -153.5t-15.5 -134t-32.5 -116t-54.5 -85.5t-83 -57.5t-116 -18.5v140q36 0 62 16.5t42 59t25.5 80t13 118t4.5 132
t1 159.5h508v-230h93zM769 140q91 0 122.5 17.5t31.5 79.5t-31.5 80t-122.5 18h-93v-195h93z" />
    <glyph glyph-name="uni040A" unicode="&#x40a;" horiz-adv-x="1181" 
d="M827 475q56 0 98 -4.5t84.5 -19.5t70 -40.5t44.5 -69.5t17 -104t-17 -104t-44.5 -69.5t-70.5 -40t-84.5 -19t-97.5 -4.5h-253v273h-354v-273h-160v705h160v-292h354v292h160v-230h93zM827 140q91 0 122.5 17.5t31.5 79.5t-31.5 80t-122.5 18h-93v-195h93z" />
    <glyph glyph-name="uni040B" unicode="&#x40b;" horiz-adv-x="863" 
d="M716 497q42 2 64.5 -19t22.5 -63v-415h-160v353l-310 -16v-337h-160v565h-153v140h560v-140h-247v-88z" />
    <glyph glyph-name="uni040C" unicode="&#x40c;" horiz-adv-x="696" 
d="M536 841l-390 -86l-27 114l390 86zM486 0l-211 271q-26 -21 -55 -27v-244h-160v705h160v-271l194 223q42 48 104 48h138v-140h-121l-158 -180l299 -385h-190z" />
    <glyph glyph-name="uni040D" unicode="&#x40d;" horiz-adv-x="818" 
d="M643 869l-27 -114l-390 86l27 114zM758 0h-160v565l30 100h-40l-213 -665h-315v705h160v-565l-30 -100h40l213 665h315v-705z" />
    <glyph glyph-name="uni040F" unicode="&#x40f;" horiz-adv-x="754" 
d="M534 705h160v-705h-237v-140h-160v140h-237v705h160v-565h314v565z" />
    <glyph glyph-name="uni0410" unicode="&#x410;" horiz-adv-x="777" 
d="M595 0l-64 226h-286l-63 -226h-162l203 705h330l204 -705h-162zM284 366h208l-84 299h-40z" />
    <glyph glyph-name="uni0411" unicode="&#x411;" horiz-adv-x="677" 
d="M313 475q56 0 98 -4.5t84.5 -19.5t70 -40.5t44.5 -69.5t17 -104t-17 -104t-44.5 -69.5t-70.5 -40t-84.5 -19t-97.5 -4.5h-253v705h484v-140h-324v-90h93zM313 140q91 0 122.5 17.5t31.5 79.5t-31.5 80t-122.5 18h-93v-195h93z" />
    <glyph glyph-name="uni0412" unicode="&#x412;" horiz-adv-x="701" 
d="M60 0v705h248q155 0 223 -36.5t68 -136.5q0 -27 -6.5 -49t-13.5 -36t-24 -24.5t-26 -15.5t-33.5 -9t-32 -4.5t-33.5 -2.5v-40q40 -1 65 -4t58 -12.5t52 -26t32.5 -47.5t13.5 -74q0 -47 -17.5 -81t-45.5 -54t-72.5 -32t-90 -16t-105.5 -4h-260zM220 437h108q25 0 37 0.5
t29.5 3.5t25 9.5t13.5 19t6 31.5t-6 31.5t-13.5 19t-25 9.5t-29.5 3.5t-37 0.5h-108v-128zM220 140h120q36 0 53 0.5t40.5 4.5t33 12t17 23t7.5 38t-7.5 38.5t-17 23.5t-33 12t-40.5 4.5t-53 0.5h-120v-157z" />
    <glyph glyph-name="uni0413" unicode="&#x413;" horiz-adv-x="587" 
d="M60 0v705h497v-140h-337v-565h-160z" />
    <glyph glyph-name="uni0414" unicode="&#x414;" horiz-adv-x="774" 
d="M688 140h66v-280h-160v140h-414v-140h-160v280h66q104 133 104 565h498v-565zM246 140h282v425h-181q-16 -316 -101 -425z" />
    <glyph glyph-name="uni0415" unicode="&#x415;" horiz-adv-x="603" 
d="M60 0v705h503v-140h-343v-142h293v-140h-293v-143h343v-140h-503z" />
    <glyph glyph-name="uni0416" unicode="&#x416;" horiz-adv-x="1072" 
d="M1052 565h-121l-175 -200l296 -365h-198l-203 257q-17 -10 -35 -13v-244h-160v244q-18 3 -35 13l-203 -257h-198l296 365l-175 200h-121v140h138q62 0 104 -48l194 -223v271h160v-271l194 223q42 48 104 48h138v-140z" />
    <glyph glyph-name="uni0417" unicode="&#x417;" horiz-adv-x="732" 
d="M50 269h160q0 -82 36.5 -110.5t132.5 -28.5q77 0 110 19t33 62q0 82 -97 82h-98v140h98q87 0 87 71q0 37 -29.5 54t-103.5 17q-92 0 -125.5 -23.5t-33.5 -85.5h-160q0 129 86.5 189t232.5 60q132 0 212.5 -49t80.5 -142q0 -38 -12.5 -64t-38.5 -41t-51 -22t-65 -14v-40
q34 -5 54 -8.5t46.5 -14t41 -25.5t25 -41.5t10.5 -62.5q0 -100 -84.5 -150.5t-218.5 -50.5q-71 0 -128 14t-103.5 45.5t-72 87t-25.5 132.5z" />
    <glyph glyph-name="uni0418" unicode="&#x418;" horiz-adv-x="818" 
d="M758 0h-160v565l30 100h-40l-213 -665h-315v705h160v-565l-30 -100h40l213 665h315v-705z" />
    <glyph glyph-name="uni0419" unicode="&#x419;" horiz-adv-x="818" 
d="M608 954q0 -85 -44.5 -142t-138.5 -57t-138.5 57t-44.5 142h120q0 -50 16 -69.5t47 -19.5t47 19.5t16 69.5h120zM758 0h-160v565l30 100h-40l-213 -665h-315v705h160v-565l-30 -100h40l213 665h315v-705z" />
    <glyph glyph-name="uni041A" unicode="&#x41a;" horiz-adv-x="696" 
d="M486 0l-211 271q-26 -21 -55 -27v-244h-160v705h160v-271l194 223q42 48 104 48h138v-140h-121l-158 -180l299 -385h-190z" />
    <glyph glyph-name="uni041B" unicode="&#x41b;" horiz-adv-x="736" 
d="M676 705v-705h-160v565h-189q-1 -89 -5.5 -153.5t-15.5 -134t-32.5 -116t-54.5 -85.5t-83 -57.5t-116 -18.5v140q36 0 62 16.5t42 59t25.5 80t13 118t4.5 132t1 159.5h508z" />
    <glyph glyph-name="uni041C" unicode="&#x41c;" horiz-adv-x="996" 
d="M60 0v705h315l103 -665h40l103 665h315v-705h-160v565l30 100h-40l-113 -665h-310l-113 665h-40l30 -100v-565h-160z" />
    <glyph glyph-name="uni041D" unicode="&#x41d;" horiz-adv-x="794" 
d="M574 705h160v-705h-160v273h-354v-273h-160v705h160v-292h354v292z" />
    <glyph glyph-name="uni041E" unicode="&#x41e;" horiz-adv-x="819" 
d="M50 353q0 157 98 259.5t262 102.5t261.5 -102.5t97.5 -259.5q0 -158 -97.5 -260.5t-261.5 -102.5q-165 0 -262.5 102.5t-97.5 260.5zM210 353q0 -104 51 -163.5t149 -59.5t148.5 59.5t50.5 163.5t-50.5 163t-148.5 59t-149 -59t-51 -163z" />
    <glyph glyph-name="uni041F" unicode="&#x41f;" horiz-adv-x="734" 
d="M674 705v-705h-160v565h-294v-565h-160v705h614z" />
    <glyph glyph-name="uni0420" unicode="&#x420;" horiz-adv-x="667" 
d="M313 705q74 0 125.5 -9t97 -34t68.5 -76t23 -128q0 -63 -16 -108t-42.5 -72t-68.5 -42.5t-85 -20.5t-102 -5h-93v-210h-160v705h253zM323 350q79 0 111.5 19.5t32.5 88.5q0 68 -32.5 87.5t-111.5 19.5h-103v-215h103z" />
    <glyph glyph-name="uni0421" unicode="&#x421;" horiz-adv-x="810" 
d="M50 353q0 157 98.5 259.5t263.5 102.5q147 0 239.5 -75.5t108.5 -206.5h-160q-12 68 -62 105t-124 37q-94 0 -149 -57.5t-55 -164.5t55 -165t149 -58q74 0 124 37.5t62 105.5h160q-16 -132 -108.5 -207.5t-239.5 -75.5q-165 0 -263.5 102.5t-98.5 260.5z" />
    <glyph glyph-name="uni0422" unicode="&#x422;" horiz-adv-x="681" 
d="M651 705v-140h-230v-565h-160v565h-231v140h621z" />
    <glyph glyph-name="uni0423" unicode="&#x423;" horiz-adv-x="692" 
d="M501 705h171l-241 -485v-146q0 -42 -22.5 -64t-63.5 -20l-247 7v140l173 -6v89l-241 485h170l131 -286v-80h40v80z" />
    <glyph glyph-name="uni0424" unicode="&#x424;" horiz-adv-x="869" 
d="M839 351q0 -121 -86.5 -192.5t-247.5 -84.5v-74h-140v74q-162 13 -248.5 84.5t-86.5 192.5t87 192t248 84v78h140v-78q161 -13 247.5 -84t86.5 -192zM190 351q0 -67 42 -98.5t133 -39.5v275q-91 -8 -133 -39t-42 -98zM505 213q90 8 132 39.5t42 98.5t-42 98t-132 39v-275
z" />
    <glyph glyph-name="uni0425" unicode="&#x425;" horiz-adv-x="789" 
d="M20 0l238 333v40l-238 332h184l190 -270l191 270h184l-239 -332v-40l239 -333h-184l-191 271l-190 -271h-184z" />
    <glyph glyph-name="uni0426" unicode="&#x426;" horiz-adv-x="893" 
d="M778 140q85 0 85 -85v-195h-160v140h-643v705h160v-565h294v565h160v-565h104z" />
    <glyph glyph-name="uni0427" unicode="&#x427;" horiz-adv-x="750" 
d="M530 705h160v-705h-160v228l-383 -20q-42 -2 -64.5 19t-22.5 63v415h160v-353l310 16v337z" />
    <glyph glyph-name="uni0428" unicode="&#x428;" horiz-adv-x="998" 
d="M778 705h160v-705h-878v705h160v-565h199v565h160v-565h199v565z" />
    <glyph glyph-name="uni0429" unicode="&#x429;" horiz-adv-x="1157" 
d="M1042 140q85 0 85 -85v-195h-160v140h-907v705h160v-565h199v565h160v-565h199v565h160v-565h104z" />
    <glyph glyph-name="uni042A" unicode="&#x42a;" horiz-adv-x="787" 
d="M433 475q56 0 98 -4.5t84.5 -19.5t70 -40.5t44.5 -69.5t17 -104t-17 -104t-44.5 -69.5t-70.5 -40t-84.5 -19t-97.5 -4.5h-253v565h-160v140h320v-230h93zM433 140q91 0 122.5 17.5t31.5 79.5t-31.5 80t-122.5 18h-93v-195h93z" />
    <glyph glyph-name="uni042B" unicode="&#x42b;" horiz-adv-x="936" 
d="M220 705v-230h93q56 0 98 -4.5t84.5 -19.5t70 -40.5t44.5 -69.5t17 -104t-17 -104t-44.5 -69.5t-70.5 -40t-84.5 -19t-97.5 -4.5h-253v705h160zM716 705h160v-705h-160v705zM220 140h93q91 0 122.5 17.5t31.5 79.5t-31.5 80t-122.5 18h-93v-195z" />
    <glyph glyph-name="uni042C" unicode="&#x42c;" horiz-adv-x="667" 
d="M220 705v-230h93q56 0 98 -4.5t84.5 -19.5t70 -40.5t44.5 -69.5t17 -104t-17 -104t-44.5 -69.5t-70.5 -40t-84.5 -19t-97.5 -4.5h-253v705h160zM220 140h93q91 0 122.5 17.5t31.5 79.5t-31.5 80t-122.5 18h-93v-195z" />
    <glyph glyph-name="uni042D" unicode="&#x42d;" horiz-adv-x="810" 
d="M398 715q165 0 263.5 -102.5t98.5 -259.5q0 -158 -98.5 -260.5t-263.5 -102.5q-147 0 -239.5 75.5t-108.5 207.5h160q12 -68 62 -105.5t124 -37.5q77 0 128.5 39.5t68.5 113.5h-255v140h255q-17 74 -68.5 113t-128.5 39q-74 0 -124 -37t-62 -105h-160q16 131 108.5 206.5
t239.5 75.5z" />
    <glyph glyph-name="uni042E" unicode="&#x42e;" horiz-adv-x="1026" 
d="M637 715q163 0 251 -98t88 -264t-88 -264.5t-251 -98.5q-146 0 -232 78.5t-104 214.5h-81v-283h-160v705h160v-282h81q19 136 104.5 214t231.5 78zM637 130q88 0 133.5 52.5t45.5 170.5t-45.5 170t-133.5 52t-134 -52.5t-46 -169.5q0 -118 46 -170.5t134 -52.5z" />
    <glyph glyph-name="uni042F" unicode="&#x42f;" horiz-adv-x="687" 
d="M627 705v-705h-160v290h-74l-120 -229q-32 -61 -101 -61h-152v140h125l84 156q-196 28 -196 202q0 114 77.5 160.5t216.5 46.5h300zM467 430v135h-160q-61 0 -87.5 -13.5t-26.5 -53.5q0 -41 26.5 -54.5t87.5 -13.5h160z" />
    <glyph glyph-name="uni0430" unicode="&#x430;" horiz-adv-x="644" 
d="M40 138q0 67 46 105.5t156 53.5l159 22q0 66 -101 66q-48 0 -74 -19t-26 -54h-150q0 94 70.5 148.5t179.5 54.5q113 0 187 -58t74 -175v-142h73v-140h-111q-36 0 -55.5 19.5t-19.5 55.5v10l25 60h-40q-16 -72 -63.5 -113.5t-145.5 -41.5q-55 0 -94 15t-57 40t-25.5 47.5
t-7.5 45.5zM200 168q0 -38 55 -38q67 0 106.5 26.5t39.5 72.5l-129 -18q-40 -6 -56 -14.5t-16 -28.5z" />
    <glyph glyph-name="uni0431" unicode="&#x431;" horiz-adv-x="696" 
d="M50 327q0 150 64.5 229.5t194.5 121.5q94 30 127 49.5t40 47.5h180q-6 -50 -31.5 -86.5t-70 -59.5t-84 -35.5t-101.5 -25.5q-102 -22 -151.5 -63.5t-64.5 -117.5l-40 -90h40q17 104 79.5 161t161.5 57q115 0 187 -72.5t72 -183.5q0 -121 -75 -195t-226 -74
q-145 0 -223.5 88t-78.5 249zM210 253q0 -60 37 -91.5t105 -31.5t104.5 31.5t36.5 91.5t-36.5 91t-104.5 31t-105 -31t-37 -91z" />
    <glyph glyph-name="uni0432" unicode="&#x432;" horiz-adv-x="576" 
d="M60 0v505h235q105 0 159.5 -26t54.5 -93q0 -97 -111 -105v-40q148 -2 148 -110q0 -131 -214 -131h-272zM210 313h85q39 0 51.5 7t12.5 34q0 25 -13.5 33t-50.5 8h-85v-82zM210 110h122q35 0 49.5 10.5t14.5 36.5q0 28 -14 37t-50 9h-122v-93z" />
    <glyph glyph-name="uni0433" unicode="&#x433;" horiz-adv-x="498" 
d="M60 0v505h428v-140h-268v-365h-160z" />
    <glyph glyph-name="uni0434" unicode="&#x434;" horiz-adv-x="714" 
d="M598 140h66v-280h-160v140h-304v-140h-160v280h66q41 54 57.5 136t16.5 229h418v-365zM266 140h172v225h-103q-11 -148 -69 -225z" />
    <glyph glyph-name="uni0435" unicode="&#x435;" horiz-adv-x="631" 
d="M40 259q0 118 73.5 187t192.5 69t193 -66.5t74 -179.5v-50h-383q0 -45 33.5 -72t99.5 -27q43 0 72 15t36 43h160q-4 -29 -22 -60.5t-49.5 -60.5t-83 -48t-113.5 -19q-138 0 -210.5 77t-72.5 192zM190 309h233q0 32 -27.5 54t-89.5 22t-89 -21.5t-27 -54.5z" />
    <glyph glyph-name="uni0436" unicode="&#x436;" horiz-adv-x="880" 
d="M860 365h-81l-73 -95l154 -270h-173l-107 188h-9h-51v-188h-160v188h-51h-9l-107 -188h-173l154 270l-73 95h-81v140h90q75 0 106 -41l101 -136h43v177h160v-177h43l101 136q31 41 106 41h90v-140z" />
    <glyph glyph-name="uni0437" unicode="&#x437;" horiz-adv-x="586" 
d="M50 194h150q0 -57 23 -75.5t79 -18.5q84 0 84 54q0 30 -19 40t-56 10h-50v110h50q65 0 65 46q0 26 -18 35.5t-60 9.5q-52 0 -70 -13t-18 -50h-150q0 173 238 173q110 0 169 -37.5t59 -100.5q0 -52 -30 -75t-76 -23v-40q47 0 81.5 -25t34.5 -79q0 -66 -61.5 -105.5
t-172.5 -39.5q-252 0 -252 204z" />
    <glyph glyph-name="uni0438" unicode="&#x438;" horiz-adv-x="692" 
d="M652 0h-160v380l30 85h-40l-109 -465h-313v505h160v-375l-30 -90h40l109 465h313v-505z" />
    <glyph glyph-name="uni0439" unicode="&#x439;" horiz-adv-x="692" 
d="M544 754q0 -85 -44.5 -142t-138.5 -57t-138.5 57t-44.5 142h120q0 -50 16 -69.5t47 -19.5t47 19.5t16 69.5h120zM652 0h-160v380l30 85h-40l-109 -465h-313v505h160v-375l-30 -90h40l109 465h313v-505z" />
    <glyph glyph-name="uni043A" unicode="&#x43a;" horiz-adv-x="600" 
d="M580 0h-173l-108 189q-9 -1 -28 -1h-51v-188h-160v505h160v-177h43l101 136q31 41 106 41h90v-140h-81l-61 -80z" />
    <glyph glyph-name="uni043B" unicode="&#x43b;" horiz-adv-x="626" 
d="M566 505v-505h-160v365h-109q-2 -75 -9 -127.5t-24 -100t-44.5 -76t-72.5 -45t-107 -16.5v140q63 0 80.5 71.5t17.5 293.5h428z" />
    <glyph glyph-name="uni043C" unicode="&#x43c;" horiz-adv-x="879" 
d="M60 0v505h317l42 -465h40l42 465h318v-505h-160v375l30 90h-40l-54 -465h-312l-53 465h-40l30 -90v-375h-160z" />
    <glyph glyph-name="uni043D" unicode="&#x43d;" horiz-adv-x="678" 
d="M458 505h160v-505h-160v183h-238v-183h-160v505h160v-182h238v182z" />
    <glyph glyph-name="uni043E" unicode="&#x43e;" horiz-adv-x="649" 
d="M40 253q0 127 80 194.5t205 67.5t204.5 -67.5t79.5 -194.5t-79.5 -195t-204.5 -68t-205 67.5t-80 195.5zM200 253q0 -62 33 -92.5t92 -30.5q58 0 91 30.5t33 92.5q0 61 -33 91.5t-91 30.5q-59 0 -92 -30.5t-33 -91.5z" />
    <glyph glyph-name="uni043F" unicode="&#x43f;" horiz-adv-x="634" 
d="M574 505v-505h-160v365h-194v-365h-160v505h514z" />
    <glyph glyph-name="uni0440" unicode="&#x440;" horiz-adv-x="688" 
d="M60 505h160v-31l-30 -90h40q23 60 68.5 95.5t130.5 35.5q105 0 162 -75t57 -188t-57 -187.5t-162 -74.5q-85 0 -130.5 35.5t-68.5 95.5h-40l30 -90v-221h-160v695zM220 252q0 -122 134 -122t134 122q0 123 -134 123t-134 -123z" />
    <glyph glyph-name="uni0441" unicode="&#x441;" horiz-adv-x="627" 
d="M40 253q0 123 76 192.5t200 69.5q110 0 188 -58t83 -161h-160q-5 35 -34.5 57t-76.5 22q-56 0 -86 -32t-30 -90q0 -59 29.5 -91t86.5 -32q47 0 76.5 22t34.5 57h160q-5 -103 -83 -161t-188 -58q-124 0 -200 69.5t-76 193.5z" />
    <glyph glyph-name="uni0442" unicode="&#x442;" horiz-adv-x="600" 
d="M570 505v-140h-190v-365h-160v365h-190v140h540z" />
    <glyph glyph-name="uni0443" unicode="&#x443;" horiz-adv-x="672" 
d="M471 505h181l-231 -475v-156q0 -42 -22.5 -64t-63.5 -20l-247 7v140l173 -3v96l-231 475h180l111 -278v-80h40v80z" />
    <glyph glyph-name="uni0444" unicode="&#x444;" horiz-adv-x="809" 
d="M769 254q0 -114 -78 -180.5t-216 -80.5v-173h-140v173q-139 14 -217 80.5t-78 180.5q0 112 78.5 178t216.5 80v163h140v-163q138 -14 216 -80t78 -178zM200 254q0 -103 135 -120v237q-135 -17 -135 -117zM475 134q134 18 134 120q0 99 -134 117v-237z" />
    <glyph glyph-name="uni0445" unicode="&#x445;" horiz-adv-x="674" 
d="M30 0l192 233v40l-192 232h190l117 -162l117 162h190l-192 -232v-40l192 -233h-190l-117 163l-117 -163h-190z" />
    <glyph glyph-name="uni0446" unicode="&#x446;" horiz-adv-x="764" 
d="M659 140q85 0 85 -85v-195h-160v140h-524v505h160v-365h194v365h160v-365h85z" />
    <glyph glyph-name="uni0447" unicode="&#x447;" horiz-adv-x="660" 
d="M440 505h160v-505h-160v180l-292 -19q-42 -3 -65 18.5t-23 63.5v262h160v-203l220 18v185z" />
    <glyph glyph-name="uni0448" unicode="&#x448;" horiz-adv-x="818" 
d="M598 505h160v-505h-698v505h160v-365h109v365h160v-365h109v365z" />
    <glyph glyph-name="uni0449" unicode="&#x449;" horiz-adv-x="948" 
d="M843 140q85 0 85 -85v-195h-160v140h-708v505h160v-365h109v365h160v-365h109v365h160v-365h85z" />
    <glyph glyph-name="uni044A" unicode="&#x44a;" horiz-adv-x="668" 
d="M384 396q244 0 244 -198t-244 -198h-232v365h-132v140h292v-109h72zM374 140q54 0 74 11t20 47t-20 47t-74 11h-62v-116h62z" />
    <glyph glyph-name="uni044B" unicode="&#x44b;" horiz-adv-x="833" 
d="M292 396q244 0 244 -198t-244 -198h-232v505h160v-109h72zM613 0v505h160v-505h-160zM220 140h62q54 0 74 11t20 47t-20 47t-74 11h-62v-116z" />
    <glyph glyph-name="uni044C" unicode="&#x44c;" horiz-adv-x="576" 
d="M292 396q244 0 244 -198t-244 -198h-232v505h160v-109h72zM220 140h62q54 0 74 11t20 47t-20 47t-74 11h-62v-116z" />
    <glyph glyph-name="uni044D" unicode="&#x44d;" horiz-adv-x="627" 
d="M311 515q124 0 200 -69.5t76 -192.5q0 -124 -76 -193.5t-200 -69.5q-110 0 -188 58t-83 161h160q5 -35 34.5 -57t76.5 -22q87 0 109 73h-150v100h150q-22 72 -109 72q-47 0 -76.5 -22t-34.5 -57h-160q5 103 83 161t188 58z" />
    <glyph glyph-name="uni044E" unicode="&#x44e;" horiz-adv-x="839" 
d="M545 515q123 0 188.5 -71.5t65.5 -190.5t-65.5 -191t-188.5 -72q-104 0 -167 51.5t-81 141.5h-77v-183h-160v505h160v-182h77q18 89 81 140.5t167 51.5zM545 130q94 0 94 123q0 122 -94 122q-95 0 -95 -122q0 -63 23 -93t72 -30z" />
    <glyph glyph-name="uni044F" unicode="&#x44f;" horiz-adv-x="549" 
d="M489 505v-505h-160v200h-40l-103 -146q-38 -54 -102 -54h-74v130h77l53 74q-56 9 -86.5 42.5t-30.5 106.5q0 79 55.5 115.5t138.5 36.5h272zM329 310v85h-72q-42 0 -58 -9t-16 -33q0 -25 16 -34t58 -9h72z" />
    <glyph glyph-name="uni0450" unicode="&#x450;" horiz-adv-x="631" 
d="M534 669l-27 -114l-390 86l27 114zM40 259q0 118 73.5 187t192.5 69t193 -66.5t74 -179.5v-50h-383q0 -45 33.5 -72t99.5 -27q43 0 72 15t36 43h160q-4 -29 -22 -60.5t-49.5 -60.5t-83 -48t-113.5 -19q-138 0 -210.5 77t-72.5 192zM190 309h233q0 32 -27.5 54t-89.5 22
t-89 -21.5t-27 -54.5z" />
    <glyph glyph-name="uni0451" unicode="&#x451;" horiz-adv-x="631" 
d="M185 555q-99 0 -99 80q0 38 25.5 59t73.5 21t74.5 -21t26.5 -59q0 -39 -26.5 -59.5t-74.5 -20.5zM445 555q-99 0 -99 80q0 38 25.5 59t73.5 21t74.5 -21t26.5 -59q0 -39 -26.5 -59.5t-74.5 -20.5zM40 259q0 118 73.5 187t192.5 69t193 -66.5t74 -179.5v-50h-383
q0 -45 33.5 -72t99.5 -27q43 0 72 15t36 43h160q-4 -29 -22 -60.5t-49.5 -60.5t-83 -48t-113.5 -19q-138 0 -210.5 77t-72.5 192zM190 309h233q0 32 -27.5 54t-89.5 22t-89 -21.5t-27 -54.5z" />
    <glyph glyph-name="uni0452" unicode="&#x452;" horiz-adv-x="728" 
d="M471 515q98 0 152.5 -63t54.5 -179v-389q0 -42 -22.5 -64t-63.5 -20l-247 7v140l173 -6v307q0 69 -23.5 98t-80.5 29q-70 0 -107 -43.5t-37 -144.5v-187h-160v567h-60v120h60v48h160v-48h140v-120h-140v-123l-30 -90h40q16 72 65 116.5t126 44.5z" />
    <glyph glyph-name="uni0453" unicode="&#x453;" horiz-adv-x="505" 
d="M60 669l390 86l27 -114l-390 -86zM67 0v505h428v-140h-268v-365h-160z" />
    <glyph glyph-name="uni0454" unicode="&#x454;" horiz-adv-x="627" 
d="M316 130q47 0 76.5 22t34.5 57h160q-5 -103 -83 -161t-188 -58q-124 0 -200 69.5t-76 193.5q0 123 76 192.5t200 69.5q110 0 188 -58t83 -161h-160q-5 35 -34.5 57t-76.5 22q-87 0 -109 -72h150v-100h-150q22 -73 109 -73z" />
    <glyph glyph-name="uni0455" unicode="&#x455;" horiz-adv-x="551" 
d="M531 139q0 -149 -235 -149q-135 0 -200.5 50.5t-65.5 142.5h160q0 -73 111 -73q70 0 70 34q0 17 -17 26t-74 28l-18 6q-5 2 -35 11.5t-38.5 12.5t-33.5 13t-34 17t-26 20t-23.5 25.5t-12.5 30.5t-6 39q0 67 58 104.5t162 37.5q121 0 181 -51.5t60 -131.5h-160
q0 28 -21 45.5t-61 17.5q-59 0 -59 -29q0 -16 27.5 -28.5t102.5 -36.5q99 -32 131 -54q57 -38 57 -108z" />
    <glyph glyph-name="uni0456" unicode="&#x456;" horiz-adv-x="500" 
d="M247 555q-45 0 -69.5 20.5t-24.5 59.5q0 38 25 59t69 21q45 0 70.5 -21t25.5 -59t-25.5 -59t-70.5 -21zM40 0v140h143v231l-123 -6v140l190 10q42 2 64.5 -20t22.5 -64v-291h143v-140h-440z" />
    <glyph glyph-name="uni0457" unicode="&#x457;" horiz-adv-x="519" 
d="M128 555q-99 0 -99 80q0 38 25.5 59t73.5 21t74.5 -21t26.5 -59q0 -39 -26.5 -59.5t-74.5 -20.5zM388 555q-99 0 -99 80q0 38 25.5 59t73.5 21t74.5 -21t26.5 -59q0 -39 -26.5 -59.5t-74.5 -20.5zM59 0v140h143v231l-123 -6v140l190 10q42 2 64.5 -20t22.5 -64v-291h143
v-140h-440z" />
    <glyph glyph-name="uni0458" unicode="&#x458;" horiz-adv-x="347" 
d="M206 555q-45 0 -69.5 20.5t-24.5 59.5q0 38 25 59t69 21q45 0 70.5 -21t25.5 -59t-25.5 -59t-70.5 -21zM10 -200l106 174q17 27 17 68v329l-123 -6v140l203 7q41 1 63.5 -20.5t22.5 -62.5v-399q0 -37 -17 -68l-92 -162h-180z" />
    <glyph glyph-name="uni0459" unicode="&#x459;" horiz-adv-x="922" 
d="M638 396q244 0 244 -198t-244 -198h-232v365h-109q-2 -75 -9 -127.5t-24 -100t-44.5 -76t-72.5 -45t-107 -16.5v140q63 0 80.5 71.5t17.5 293.5h428v-109h72zM628 140q54 0 74 11t20 47t-20 47t-74 11h-62v-116h62z" />
    <glyph glyph-name="uni045A" unicode="&#x45a;" horiz-adv-x="974" 
d="M690 396q244 0 244 -198t-244 -198h-232v183h-238v-183h-160v505h160v-182h238v182h160v-109h72zM680 140q54 0 74 11t20 47t-20 47t-74 11h-62v-116h62z" />
    <glyph glyph-name="uni045B" unicode="&#x45b;" horiz-adv-x="718" 
d="M461 515q98 0 152.5 -63t54.5 -179v-273h-160v248q0 69 -23.5 98t-80.5 29q-70 0 -107 -43.5t-37 -144.5v-187h-160v567h-60v120h60v48h160v-48h140v-120h-140v-123l-30 -90h40q16 72 65 116.5t126 44.5z" />
    <glyph glyph-name="uni045C" unicode="&#x45c;" horiz-adv-x="600" 
d="M517 641l-390 -86l-27 114l390 86zM580 0h-173l-108 189q-9 -1 -28 -1h-51v-188h-160v505h160v-177h43l101 136q31 41 106 41h90v-140h-81l-61 -80z" />
    <glyph glyph-name="uni045F" unicode="&#x45f;" horiz-adv-x="674" 
d="M454 495h160v-495h-197v-140h-160v140h-197v495h160v-355h234v355z" />
    <glyph glyph-name="uni0490" unicode="&#x490;" horiz-adv-x="567" 
d="M397 815h160v-250h-337v-565h-160v705h337v110z" />
    <glyph glyph-name="uni0491" unicode="&#x491;" horiz-adv-x="498" 
d="M328 634h160v-269h-268v-365h-160v505h268v129z" />
    <glyph glyph-name="Wgrave" unicode="&#x1e80;" horiz-adv-x="1168" 
d="M802 869l-27 -114l-390 86l27 114zM20 705h155l112 -665h40l87 665h340l87 -665h40l112 665h155l-121 -705h-332l-91 665h-40l-91 -665h-332z" />
    <glyph glyph-name="wgrave" unicode="&#x1e81;" horiz-adv-x="948" 
d="M692 669l-27 -114l-390 86l27 114zM10 505h153l65 -465h40l39 465h334l39 -465h40l66 465h152l-71 -505h-334l-39 465h-40l-39 -465h-334z" />
    <glyph glyph-name="Wacute" unicode="&#x1e82;" horiz-adv-x="1168" 
d="M365 869l390 86l27 -114l-390 -86zM20 705h155l112 -665h40l87 665h340l87 -665h40l112 665h155l-121 -705h-332l-91 665h-40l-91 -665h-332z" />
    <glyph glyph-name="wacute" unicode="&#x1e83;" horiz-adv-x="948" 
d="M255 669l390 86l27 -114l-390 -86zM10 505h153l65 -465h40l39 465h334l39 -465h40l66 465h152l-71 -505h-334l-39 465h-40l-39 -465h-334z" />
    <glyph glyph-name="Wdieresis" unicode="&#x1e84;" horiz-adv-x="1168" 
d="M453 755q-99 0 -99 80q0 38 25.5 59t73.5 21t74.5 -21t26.5 -59q0 -39 -26.5 -59.5t-74.5 -20.5zM713 755q-99 0 -99 80q0 38 25.5 59t73.5 21t74.5 -21t26.5 -59q0 -39 -26.5 -59.5t-74.5 -20.5zM20 705h155l112 -665h40l87 665h340l87 -665h40l112 665h155l-121 -705
h-332l-91 665h-40l-91 -665h-332z" />
    <glyph glyph-name="wdieresis" unicode="&#x1e85;" horiz-adv-x="948" 
d="M343 555q-99 0 -99 80q0 38 25.5 59t73.5 21t74.5 -21t26.5 -59q0 -39 -26.5 -59.5t-74.5 -20.5zM603 555q-99 0 -99 80q0 38 25.5 59t73.5 21t74.5 -21t26.5 -59q0 -39 -26.5 -59.5t-74.5 -20.5zM10 505h153l65 -465h40l39 465h334l39 -465h40l66 465h152l-71 -505h-334
l-39 465h-40l-39 -465h-334z" />
    <glyph glyph-name="uni1E9E" unicode="&#x1e9e;" horiz-adv-x="711" 
d="M276 0v140l124 -9q63 -4 92 14t29 61q0 48 -29.5 69.5t-71.5 12.5t-79 -42l-49 198l147 57q0 74 -94 74q-61 0 -93 -29t-32 -99v-447h-160v471q0 110 81.5 177t203.5 67q44 0 87 -15t81.5 -43.5t62 -78t23.5 -112.5l-247 -101l8 -38q50 32 106.5 39t104 -10t79 -62
t31.5 -111q0 -109 -68 -157t-213 -36z" />
    <glyph glyph-name="Ygrave" unicode="&#x1ef2;" horiz-adv-x="723" 
d="M579 869l-27 -114l-390 86l27 114zM532 705h171l-262 -478v-227h-160v227l-261 478h171l150 -294v-90h40v90z" />
    <glyph glyph-name="ygrave" unicode="&#x1ef3;" horiz-adv-x="672" 
d="M559 669l-27 -114l-390 86l27 114zM471 505h181l-231 -475v-156q0 -42 -22.5 -64t-63.5 -20l-247 7v140l173 -3v96l-231 475h180l111 -278v-80h40v80z" />
    <glyph glyph-name="endash" unicode="&#x2013;" horiz-adv-x="890" 
d="M70 330h750v-120h-750v120z" />
    <glyph glyph-name="emdash" unicode="&#x2014;" horiz-adv-x="1090" 
d="M70 330h950v-120h-950v120z" />
    <glyph glyph-name="quoteleft" unicode="&#x2018;" horiz-adv-x="339" 
d="M186 778l83 -309l-116 -31l-83 309z" />
    <glyph glyph-name="quoteright" unicode="&#x2019;" horiz-adv-x="339" 
d="M153 778l116 -31l-83 -309l-116 31z" />
    <glyph glyph-name="quotesinglbase" unicode="&#x201a;" horiz-adv-x="354" 
d="M168 182l116 -31l-98 -354l-116 31z" />
    <glyph glyph-name="quotedblleft" unicode="&#x201c;" horiz-adv-x="533" 
d="M186 778l83 -309l-116 -31l-83 309zM380 778l83 -309l-116 -31l-83 309z" />
    <glyph glyph-name="quotedblright" unicode="&#x201d;" horiz-adv-x="533" 
d="M153 778l116 -31l-83 -309l-116 31zM347 778l116 -31l-83 -309l-116 31z" />
    <glyph glyph-name="quotedblbase" unicode="&#x201e;" horiz-adv-x="549" 
d="M168 182l116 -31l-98 -354l-116 31zM363 182l116 -31l-98 -354l-116 31z" />
    <glyph glyph-name="dagger" unicode="&#x2020;" horiz-adv-x="580" 
d="M510 686v-120h-160v-415h-120v415h-160v120h160v167h120v-167h160z" />
    <glyph glyph-name="daggerdbl" unicode="&#x2021;" horiz-adv-x="580" 
d="M510 566h-160v-128h160v-120h-160v-167h-120v167h-160v120h160v128h-160v120h160v167h120v-167h160v-120z" />
    <glyph glyph-name="bullet" unicode="&#x2022;" horiz-adv-x="783" 
d="M389 -69q-146 0 -232.5 91.5t-86.5 232.5q0 138 86.5 228.5t232.5 90.5q143 0 233.5 -91.5t90.5 -227.5q0 -140 -90.5 -232t-233.5 -92z" />
    <glyph glyph-name="ellipsis" unicode="&#x2026;" horiz-adv-x="910" 
d="M179 -10q-50 0 -79.5 31.5t-29.5 79.5q0 47 29.5 78t79.5 31q49 0 80 -31.5t31 -77.5q0 -48 -31 -79.5t-80 -31.5zM454 -10q-50 0 -79.5 31.5t-29.5 79.5q0 47 29.5 78t79.5 31q49 0 80 -31.5t31 -77.5q0 -48 -31 -79.5t-80 -31.5zM729 -10q-50 0 -79.5 31.5t-29.5 79.5
q0 47 29.5 78t79.5 31q49 0 80 -31.5t31 -77.5q0 -48 -31 -79.5t-80 -31.5z" />
    <glyph glyph-name="perthousand" unicode="&#x2030;" horiz-adv-x="1751" 
d="M733 804l113 -44l-338 -879l-113 44zM302 281q-102 0 -167 67.5t-65 164.5t65 164.5t167 67.5t167 -67.5t65 -164.5t-65 -164.5t-167 -67.5zM302 401q49 0 80.5 32.5t31.5 79.5t-31.5 79.5t-80.5 32.5t-80.5 -32.5t-31.5 -79.5t31.5 -79.5t80.5 -32.5zM936 -70
q-102 0 -167 67.5t-65 164.5t65 164.5t167 67.5t167 -67.5t65 -164.5t-65 -164.5t-167 -67.5zM1449 -70q-102 0 -167 67.5t-65 164.5t65 164.5t167 67.5t167 -67.5t65 -164.5t-65 -164.5t-167 -67.5zM936 50q49 0 80.5 32.5t31.5 79.5t-31.5 79.5t-80.5 32.5t-80.5 -32.5
t-31.5 -79.5t31.5 -79.5t80.5 -32.5zM1449 50q49 0 80.5 32.5t31.5 79.5t-31.5 79.5t-80.5 32.5t-80.5 -32.5t-31.5 -79.5t31.5 -79.5t80.5 -32.5z" />
    <glyph glyph-name="guilsinglleft" unicode="&#x2039;" horiz-adv-x="547" 
d="M477 10l-88 -80l-319 318l319 317l88 -80l-237 -237z" />
    <glyph glyph-name="guilsinglright" unicode="&#x203a;" horiz-adv-x="547" 
d="M70 10l237 238l-237 237l88 80l319 -317l-319 -318z" />
    <glyph glyph-name="fraction" unicode="&#x2044;" horiz-adv-x="431" 
d="M328 814l113 -44l-338 -879l-113 44z" />
    <glyph glyph-name="Euro" unicode="&#x20ac;" horiz-adv-x="867" 
d="M497 130q123 0 142 109h158q-17 -117 -95.5 -183t-204.5 -66t-207 62.5t-111 169.5h-109v100h93q-1 10 -1 31q0 19 1 29h-93v100h109q30 108 111 170.5t207 62.5t204.5 -65.5t95.5 -182.5h-160q-18 108 -140 108q-118 0 -155 -93h196v-100h-215q-1 -9 -1 -29q0 -21 1 -31
h215v-100h-196q38 -92 155 -92z" />
    <glyph glyph-name="trademark" unicode="&#x2122;" horiz-adv-x="968" 
d="M370 705v-90h-99v-244h-100v244h-101v90h300zM697 705h201v-334h-100v220l25 74h-30l-44 -294h-204l-45 294h-29l24 -74v-220h-100v334h202l40 -294h20z" />
    <glyph glyph-name="oneeighth" unicode="&#x215b;" horiz-adv-x="1187" 
d="M676 814l113 -44l-338 -879l-113 44zM30 596q47 39 61 66.5t22 102.5h226v-475h-120v365l20 70h-30q-13 -190 -128 -239zM749 122q0 99 135 118v20q-45 6 -78.5 30.5t-33.5 74.5q0 56 46 88t135 32t134.5 -32t45.5 -88q0 -50 -33.5 -74.5t-77.5 -30.5v-20
q135 -19 135 -118q0 -61 -54 -96.5t-150 -35.5t-150 35.5t-54 96.5zM892 345q0 -45 61 -45q60 0 60 45q0 19 -12 29.5t-48 10.5q-61 0 -61 -40zM869 144q0 -54 84 -54t84 54q0 56 -84 56t-84 -56z" />
    <glyph glyph-name="threeeighths" unicode="&#x215c;" horiz-adv-x="1240" 
d="M730 814l113 -44l-338 -879l-113 44zM30 473h120q0 -53 24.5 -71t74.5 -18q42 0 62 12t20 45q0 31 -18.5 40.5t-52.5 9.5h-48v99h48q33 0 48.5 8.5t15.5 35.5q0 25 -17.5 35t-57.5 10q-47 0 -70 -14t-23 -50h-120q0 78 56 121t157 43q97 0 146.5 -36t49.5 -91
q0 -48 -30.5 -68.5t-86.5 -29.5v-30q25 -5 37.5 -8t32 -10.5t29 -17t17 -26t7.5 -38.5q0 -65 -51 -102.5t-151 -37.5q-104 0 -161.5 47t-57.5 142zM802 122q0 99 135 118v20q-45 6 -78.5 30.5t-33.5 74.5q0 56 46 88t135 32t134.5 -32t45.5 -88q0 -50 -33.5 -74.5
t-77.5 -30.5v-20q135 -19 135 -118q0 -61 -54 -96.5t-150 -35.5t-150 35.5t-54 96.5zM945 345q0 -45 61 -45q60 0 60 45q0 19 -12 29.5t-48 10.5q-61 0 -61 -40zM922 144q0 -54 84 -54t84 54q0 56 -84 56t-84 -56z" />
    <glyph glyph-name="fiveeighths" unicode="&#x215d;" horiz-adv-x="1233" 
d="M723 814l113 -44l-338 -879l-113 44zM30 447h120q0 -31 24 -47t61 -16q90 0 90 70q0 77 -63 77q-50 0 -85 -55l-134 46v247h373v-100h-253v-86l-16 -44l20 -11q13 46 48.5 74.5t92.5 28.5q69 0 103 -46.5t34 -119.5q0 -78 -52 -129.5t-154 -51.5q-100 0 -154.5 42
t-54.5 121zM795 122q0 99 135 118v20q-45 6 -78.5 30.5t-33.5 74.5q0 56 46 88t135 32t134.5 -32t45.5 -88q0 -50 -33.5 -74.5t-77.5 -30.5v-20q135 -19 135 -118q0 -61 -54 -96.5t-150 -35.5t-150 35.5t-54 96.5zM938 345q0 -45 61 -45q60 0 60 45q0 19 -12 29.5t-48 10.5
q-61 0 -61 -40zM915 144q0 -54 84 -54t84 54q0 56 -84 56t-84 -56z" />
    <glyph glyph-name="seveneighths" unicode="&#x215e;" horiz-adv-x="1168" 
d="M657 814l113 -44l-338 -879l-113 44zM86 290q0 153 66 231.5t207 113.5v30h-329v100h369v-203q-108 -33 -150.5 -95t-42.5 -177h-120zM730 122q0 99 135 118v20q-45 6 -78.5 30.5t-33.5 74.5q0 56 46 88t135 32t134.5 -32t45.5 -88q0 -50 -33.5 -74.5t-77.5 -30.5v-20
q135 -19 135 -118q0 -61 -54 -96.5t-150 -35.5t-150 35.5t-54 96.5zM873 345q0 -45 61 -45q60 0 60 45q0 19 -12 29.5t-48 10.5q-61 0 -61 -40zM850 144q0 -54 84 -54t84 54q0 56 -84 56t-84 -56z" />
    <glyph glyph-name="arrowleft" unicode="&#x2190;" horiz-adv-x="870" 
d="M800 308v-120h-500l177 -178l-88 -80l-319 318l319 317l88 -80l-177 -177h500z" />
    <glyph glyph-name="arrowup" unicode="&#x2191;" horiz-adv-x="775" 
d="M705 291l-80 -88l-178 177v-500h-120v500l-177 -177l-80 88l317 319z" />
    <glyph glyph-name="arrowright" unicode="&#x2192;" horiz-adv-x="870" 
d="M481 565l319 -317l-319 -318l-88 80l177 178h-500v120h500l-177 177z" />
    <glyph glyph-name="arrowdown" unicode="&#x2193;" horiz-adv-x="775" 
d="M625 283l80 -88l-318 -319l-317 319l80 88l177 -177v500h120v-500z" />
    <glyph glyph-name="arrowboth" unicode="&#x2194;" horiz-adv-x="1362" 
d="M973 655l319 -317l-319 -318l-88 80l177 178h-500v120h500l-177 177zM477 395l-177 -177h500v-120h-500l177 -178l-88 -80l-319 318l319 317z" />
    <glyph glyph-name="arrowupdn" unicode="&#x2195;" horiz-adv-x="955" 
d="M317 117v500l-177 -177l-80 88l317 319l318 -319l-80 -88l-178 177v-500h-120zM815 41l80 -88l-318 -319l-317 319l80 88l177 -177v500h120v-500z" />
    <glyph glyph-name="uni2196" unicode="&#x2196;" horiz-adv-x="698" 
d="M628 61l-84 -85l-354 354l-1 -251l-118 5l-1 451l450 -2l5 -118h-251z" />
    <glyph glyph-name="uni2197" unicode="&#x2197;" horiz-adv-x="698" 
d="M178 533l450 2l-1 -451l-118 -5l-1 251l-354 -354l-84 85l354 354h-251z" />
    <glyph glyph-name="uni2198" unicode="&#x2198;" horiz-adv-x="698" 
d="M627 398l1 -451l-450 2l-5 118h251l-354 354l84 85l354 -354l1 251z" />
    <glyph glyph-name="uni2199" unicode="&#x2199;" horiz-adv-x="698" 
d="M628 421l-354 -354h251l-5 -118l-450 -2l1 451l118 5l1 -251l354 354z" />
    <glyph glyph-name="partialdiff" unicode="&#x2202;" horiz-adv-x="763" 
d="M693 319q0 -154 -84.5 -241.5t-230.5 -87.5q-141 0 -224.5 73t-83.5 189q0 113 75.5 188t203.5 75q110 0 171 -64.5t70 -172.5h40l-30 90q-14 122 -114 183.5t-288 85.5v140q112 -12 199.5 -43t155 -85t104 -137.5t36.5 -192.5zM533 252q0 65 -37 94t-114 29t-114.5 -29
t-37.5 -94q0 -58 38.5 -90t113.5 -32q74 0 112.5 32t38.5 90z" />
    <glyph glyph-name="emptyset" unicode="&#x2205;" horiz-adv-x="988" 
d="M759 619q75 -59 117 -147t42 -191q0 -179 -118.5 -301.5t-305.5 -122.5q-84 0 -159 28l-53 -92l-105 60l52 90q-75 59 -117 147t-42 191q0 179 118.5 301.5t305.5 122.5q84 0 159 -28l53 92l105 -60zM190 281q0 -139 101 -230l300 519q-45 15 -97 15q-132 0 -218 -89
t-86 -215zM494 -23q132 0 218 89t86 215q0 139 -101 230l-300 -519q45 -15 97 -15z" />
    <glyph glyph-name="product" unicode="&#x220f;" horiz-adv-x="820" 
d="M750 705v-120h-147v-765h-120v765h-145v-765h-120v765h-148v120h680z" />
    <glyph glyph-name="summation" unicode="&#x2211;" horiz-adv-x="653" 
d="M70 -179v236l298 186v40l-298 186v236h513v-120h-383l-90 30v-40l381 -240v-144l-381 -240v-40l90 30h383v-120h-513z" />
    <glyph glyph-name="minus" unicode="&#x2212;" horiz-adv-x="680" 
d="M70 330h540v-120h-540v120z" />
    <glyph glyph-name="radical" unicode="&#x221a;" horiz-adv-x="833" 
d="M474 630q16 75 94 75h195v-120h-184l-169 -765h-254l-86 385h120l73 -345h40z" />
    <glyph glyph-name="infinity" unicode="&#x221e;" horiz-adv-x="1080" 
d="M70 300q0 107 65 176t154 69q33 0 63.5 -9.5t50 -19.5t44.5 -34t34.5 -35t32 -41t26.5 -35q4 5 26.5 35t32 41t34.5 35t44.5 34t50 19.5t63.5 9.5q89 0 154 -69t65 -176t-65 -176t-154 -69q-33 0 -63.5 9.5t-50 19.5t-44.5 34t-34.5 35t-32 41t-26.5 35q-4 -5 -26.5 -35
t-32 -41t-34.5 -35t-44.5 -34t-50 -19.5t-63.5 -9.5q-89 0 -154 69t-65 176zM190 300q0 -57 35 -91t94 -34q20 0 37 5.5t28.5 11t26.5 21t21.5 23.5t24 31.5t24.5 32.5q-7 9 -24.5 32.5t-24 31.5t-21.5 23.5t-26.5 21t-28.5 11t-37 5.5q-59 0 -94 -34t-35 -91zM599 300
q7 -9 24.5 -32.5t24 -31.5t21.5 -23.5t26.5 -21t28.5 -11t37 -5.5q59 0 94 34t35 91t-35 91t-94 34q-20 0 -37 -5.5t-28.5 -11t-26.5 -21t-21.5 -23.5t-24 -31.5t-24.5 -32.5z" />
    <glyph glyph-name="integral" unicode="&#x222b;" horiz-adv-x="740" 
d="M70 -180v120h177l175 693q18 72 95 72h153v-120h-137l-175 -693q-18 -72 -95 -72h-193z" />
    <glyph glyph-name="approxequal" unicode="&#x2248;" horiz-adv-x="668" 
d="M70 280q0 94 38 147t104 53q42 0 85 -20t78 -40t56 -20q25 0 36 18t11 62h120q0 -94 -38 -147t-104 -53q-42 0 -85 20t-78 40t-56 20q-25 0 -36 -18t-11 -62h-120zM70 40q0 94 38 147t104 53q42 0 85 -20t78 -40t56 -20q25 0 36 18t11 62h120q0 -94 -38 -147t-104 -53
q-42 0 -85 20t-78 40t-56 20q-25 0 -36 -18t-11 -62h-120z" />
    <glyph glyph-name="notequal" unicode="&#x2260;" horiz-adv-x="680" 
d="M610 320h-184l-57 -100h241v-120h-311l-91 -158l-86 50l62 108h-114v120h184l57 100h-241v120h311l91 158l86 -50l-62 -108h114v-120z" />
    <glyph glyph-name="lessequal" unicode="&#x2264;" horiz-adv-x="687" 
d="M70 347v120l509 198l38 -114l-407 -144l407 -133l-38 -114zM617 120v-120h-540v120h540z" />
    <glyph glyph-name="greaterequal" unicode="&#x2265;" horiz-adv-x="687" 
d="M617 347l-509 -187l-38 114l407 133l-407 144l38 114l509 -198v-120zM70 120h540v-120h-540v120z" />
    <glyph glyph-name="uni2460" unicode="&#x2460;" 
d="M548 -177q-225 0 -361.5 143t-136.5 355t136.5 355t361.5 143t361.5 -143t136.5 -355t-136.5 -355t-361.5 -143zM548 -77q179 0 288.5 115.5t109.5 282.5t-109.5 282.5t-288.5 115.5t-288.5 -115.5t-109.5 -282.5t109.5 -282.5t288.5 -115.5zM355 389q47 39 61 66.5
t22 102.5h226v-475h-120v365l20 70h-30q-13 -190 -128 -239z" />
    <glyph glyph-name="uni2461" unicode="&#x2461;" 
d="M548 -177q-225 0 -361.5 143t-136.5 355t136.5 355t361.5 143t361.5 -143t136.5 -355t-136.5 -355t-361.5 -143zM548 -77q179 0 288.5 115.5t109.5 282.5t-109.5 282.5t-288.5 115.5t-288.5 -115.5t-109.5 -282.5t109.5 -282.5t288.5 -115.5zM343 377q0 90 55.5 151
t159.5 61q95 0 140 -47.5t45 -116.5q0 -52 -25 -89.5t-73 -60t-103.5 -35.5t-132.5 -21v-30l70 15h264v-100h-374v185q2 0 20 2.5t30 4t34.5 6t39.5 9.5t38 12.5t36 17t28.5 22t20.5 28.5t7 34q0 27 -17.5 45.5t-56.5 18.5q-48 0 -67 -27.5t-19 -84.5h-120z" />
    <glyph glyph-name="uni2462" unicode="&#x2462;" 
d="M548 -177q-225 0 -361.5 143t-136.5 355t136.5 355t361.5 143t361.5 -143t136.5 -355t-136.5 -355t-361.5 -143zM548 -77q179 0 288.5 115.5t109.5 282.5t-109.5 282.5t-288.5 115.5t-288.5 -115.5t-109.5 -282.5t109.5 -282.5t288.5 -115.5zM338 263h120q0 -53 24.5 -71
t74.5 -18q42 0 62 12t20 45q0 31 -18.5 40.5t-52.5 9.5h-48v99h48q33 0 48.5 8.5t15.5 35.5q0 25 -17.5 35t-57.5 10q-47 0 -70 -14t-23 -50h-120q0 78 56 121t157 43q97 0 146.5 -36t49.5 -91q0 -48 -30.5 -68.5t-86.5 -29.5v-30q25 -5 37.5 -8t32 -10.5t29 -17t17 -26
t7.5 -38.5q0 -65 -51 -102.5t-151 -37.5q-104 0 -161.5 47t-57.5 142z" />
    <glyph glyph-name="uni2463" unicode="&#x2463;" 
d="M548 -177q-225 0 -361.5 143t-136.5 355t136.5 355t361.5 143t361.5 -143t136.5 -355t-136.5 -355t-361.5 -143zM548 -77q179 0 288.5 115.5t109.5 282.5t-109.5 282.5t-288.5 115.5t-288.5 -115.5t-109.5 -282.5t109.5 -282.5t288.5 -115.5zM344 148v246q159 30 182 169
h120q-10 -101 -79 -180.5t-203 -104.5v-30l70 20h130v79h120v-79h65v-120h-65v-60h-120v60h-220z" />
    <glyph glyph-name="uni2464" unicode="&#x2464;" 
d="M548 -177q-225 0 -361.5 143t-136.5 355t136.5 355t361.5 143t361.5 -143t136.5 -355t-136.5 -355t-361.5 -143zM548 -77q179 0 288.5 115.5t109.5 282.5t-109.5 282.5t-288.5 115.5t-288.5 -115.5t-109.5 -282.5t109.5 -282.5t288.5 -115.5zM352 217h120q0 -31 24 -47
t61 -16q90 0 90 70q0 77 -63 77q-50 0 -85 -55l-134 46v247h373v-100h-253v-86l-16 -44l20 -11q13 46 48.5 74.5t92.5 28.5q69 0 103 -46.5t34 -119.5q0 -78 -52 -129.5t-154 -51.5q-100 0 -154.5 42t-54.5 121z" />
    <glyph glyph-name="uni2465" unicode="&#x2465;" 
d="M548 -177q-225 0 -361.5 143t-136.5 355t136.5 355t361.5 143t361.5 -143t136.5 -355t-136.5 -355t-361.5 -143zM548 -77q179 0 288.5 115.5t109.5 282.5t-109.5 282.5t-288.5 115.5t-288.5 -115.5t-109.5 -282.5t109.5 -282.5t288.5 -115.5zM336 301q0 298 268 267
l85 -10v-100l-95 10q-175 18 -175 -121l-31 -70h30q12 52 52.5 90.5t111.5 38.5q68 0 113 -39.5t45 -124.5q0 -87 -54.5 -128t-137.5 -41q-212 0 -212 228zM456 240q0 -35 19.5 -51t62.5 -16q42 0 62 16t20 51q0 66 -82 66t-82 -66z" />
    <glyph glyph-name="uni2466" unicode="&#x2466;" 
d="M548 -177q-225 0 -361.5 143t-136.5 355t136.5 355t361.5 143t361.5 -143t136.5 -355t-136.5 -355t-361.5 -143zM548 -77q179 0 288.5 115.5t109.5 282.5t-109.5 282.5t-288.5 115.5t-288.5 -115.5t-109.5 -282.5t109.5 -282.5t288.5 -115.5zM430 62q0 153 66 231.5
t207 113.5v30h-329v100h369v-203q-108 -33 -150.5 -95t-42.5 -177h-120z" />
    <glyph glyph-name="uni2467" unicode="&#x2467;" 
d="M548 -177q-225 0 -361.5 143t-136.5 355t136.5 355t361.5 143t361.5 -143t136.5 -355t-136.5 -355t-361.5 -143zM548 -77q179 0 288.5 115.5t109.5 282.5t-109.5 282.5t-288.5 115.5t-288.5 -115.5t-109.5 -282.5t109.5 -282.5t288.5 -115.5zM344 206q0 99 135 118v20
q-45 6 -78.5 30.5t-33.5 74.5q0 56 46 88t135 32t134.5 -32t45.5 -88q0 -50 -33.5 -74.5t-77.5 -30.5v-20q135 -19 135 -118q0 -61 -54 -96.5t-150 -35.5t-150 35.5t-54 96.5zM487 429q0 -45 61 -45q60 0 60 45q0 19 -12 29.5t-48 10.5q-61 0 -61 -40zM464 228q0 -54 84 -54
t84 54q0 56 -84 56t-84 -56z" />
    <glyph glyph-name="uni2468" unicode="&#x2468;" 
d="M548 -177q-225 0 -361.5 143t-136.5 355t136.5 355t361.5 143t361.5 -143t136.5 -355t-136.5 -355t-361.5 -143zM548 -77q179 0 288.5 115.5t109.5 282.5t-109.5 282.5t-288.5 115.5t-288.5 -115.5t-109.5 -282.5t109.5 -282.5t288.5 -115.5zM763 343q0 -298 -268 -267
l-85 10v100l95 -10q175 -18 175 121l31 70h-30q-12 -52 -52.5 -90.5t-111.5 -38.5q-68 0 -113 39.5t-45 124.5q0 87 54.5 128t137.5 41q212 0 212 -228zM643 404q0 35 -19.5 51t-62.5 16q-42 0 -62 -16t-20 -51q0 -66 82 -66t82 66z" />
    <glyph glyph-name="uni24EA" unicode="&#x24ea;" 
d="M548 819q225 0 361.5 -143t136.5 -355t-136.5 -355t-361.5 -143t-361.5 143t-136.5 355t136.5 355t361.5 143zM548 -77q179 0 288.5 115.5t109.5 282.5t-109.5 282.5t-288.5 115.5t-288.5 -115.5t-109.5 -282.5t109.5 -282.5t288.5 -115.5zM549 569q103 0 159.5 -68.5
t56.5 -178.5q0 -111 -56.5 -179.5t-159.5 -68.5q-104 0 -160.5 68.5t-56.5 179.5q0 110 56.5 178.5t160.5 68.5zM549 449q-45 0 -71 -35t-26 -92q0 -30 8 -56l147 165q-23 18 -58 18zM549 194q96 0 96 128q0 32 -6 56l-148 -163q26 -21 58 -21z" />
    <glyph glyph-name="uni24FF" unicode="&#x24ff;" 
d="M548 -177q-225 0 -361.5 143t-136.5 355t136.5 355t361.5 143t361.5 -143t136.5 -355t-136.5 -355t-361.5 -143zM332 322q0 -111 56.5 -179.5t160.5 -68.5q103 0 159.5 68.5t56.5 179.5q0 110 -56.5 178.5t-159.5 68.5q-104 0 -160.5 -68.5t-56.5 -178.5zM452 322
q0 57 26 92t71 35q35 0 58 -18l-147 -165q-8 26 -8 56zM491 215l148 163q6 -24 6 -56q0 -128 -96 -128q-32 0 -58 21z" />
    <glyph glyph-name="lozenge" unicode="&#x25ca;" horiz-adv-x="571" 
d="M406 705l95 -339l-95 -339h-240l-96 339l96 339h240zM306 67l67 299l-67 299h-40l-68 -299l68 -299h40z" />
    <glyph glyph-name="uni2776" unicode="&#x2776;" 
d="M548 -177q225 0 361.5 143t136.5 355t-136.5 355t-361.5 143t-361.5 -143t-136.5 -355t136.5 -355t361.5 -143zM355 389q47 39 61 66.5t22 102.5h226v-475h-120v365l20 70h-30q-13 -190 -128 -239z" />
    <glyph glyph-name="uni2777" unicode="&#x2777;" 
d="M548 -177q225 0 361.5 143t136.5 355t-136.5 355t-361.5 143t-361.5 -143t-136.5 -355t136.5 -355t361.5 -143zM343 377q0 90 55.5 151t159.5 61q95 0 140 -47.5t45 -116.5q0 -52 -25 -89.5t-73 -60t-103.5 -35.5t-132.5 -21v-30l70 15h264v-100h-374v185q2 0 20 2.5
t30 4t34.5 6t39.5 9.5t38 12.5t36 17t28.5 22t20.5 28.5t7 34q0 27 -17.5 45.5t-56.5 18.5q-48 0 -67 -27.5t-19 -84.5h-120z" />
    <glyph glyph-name="uni2778" unicode="&#x2778;" 
d="M548 -177q225 0 361.5 143t136.5 355t-136.5 355t-361.5 143t-361.5 -143t-136.5 -355t136.5 -355t361.5 -143zM338 263h120q0 -53 24.5 -71t74.5 -18q42 0 62 12t20 45q0 31 -18.5 40.5t-52.5 9.5h-48v99h48q33 0 48.5 8.5t15.5 35.5q0 25 -17.5 35t-57.5 10
q-47 0 -70 -14t-23 -50h-120q0 78 56 121t157 43q97 0 146.5 -36t49.5 -91q0 -48 -30.5 -68.5t-86.5 -29.5v-30q25 -5 37.5 -8t32 -10.5t29 -17t17 -26t7.5 -38.5q0 -65 -51 -102.5t-151 -37.5q-104 0 -161.5 47t-57.5 142z" />
    <glyph glyph-name="uni2779" unicode="&#x2779;" 
d="M548 -177q225 0 361.5 143t136.5 355t-136.5 355t-361.5 143t-361.5 -143t-136.5 -355t136.5 -355t361.5 -143zM346 155v246q159 30 182 169h120q-10 -101 -79 -180.5t-203 -104.5v-30l70 20h130v79h120v-79h65v-120h-65v-60h-120v60h-220z" />
    <glyph glyph-name="uni277A" unicode="&#x277a;" 
d="M548 -177q225 0 361.5 143t136.5 355t-136.5 355t-361.5 143t-361.5 -143t-136.5 -355t136.5 -355t361.5 -143zM352 217h120q0 -31 24 -47t61 -16q90 0 90 70q0 77 -63 77q-50 0 -85 -55l-134 46v247h373v-100h-253v-86l-16 -44l20 -11q13 46 48.5 74.5t92.5 28.5
q69 0 103 -46.5t34 -119.5q0 -78 -52 -129.5t-154 -51.5q-100 0 -154.5 42t-54.5 121z" />
    <glyph glyph-name="uni277B" unicode="&#x277b;" 
d="M548 -177q225 0 361.5 143t136.5 355t-136.5 355t-361.5 143t-361.5 -143t-136.5 -355t136.5 -355t361.5 -143zM336 301q0 298 268 267l85 -10v-100l-95 10q-175 18 -175 -121l-31 -70h30q12 52 52.5 90.5t111.5 38.5q68 0 113 -39.5t45 -124.5q0 -87 -54.5 -128
t-137.5 -41q-212 0 -212 228zM456 240q0 -35 19.5 -51t62.5 -16q42 0 62 16t20 51q0 66 -82 66t-82 -66z" />
    <glyph glyph-name="uni277C" unicode="&#x277c;" 
d="M548 -177q225 0 361.5 143t136.5 355t-136.5 355t-361.5 143t-361.5 -143t-136.5 -355t136.5 -355t361.5 -143zM430 62q0 153 66 231.5t207 113.5v30h-329v100h369v-203q-108 -33 -150.5 -95t-42.5 -177h-120z" />
    <glyph glyph-name="uni277D" unicode="&#x277d;" 
d="M548 -177q225 0 361.5 143t136.5 355t-136.5 355t-361.5 143t-361.5 -143t-136.5 -355t136.5 -355t361.5 -143zM344 206q0 99 135 118v20q-45 6 -78.5 30.5t-33.5 74.5q0 56 46 88t135 32t134.5 -32t45.5 -88q0 -50 -33.5 -74.5t-77.5 -30.5v-20q135 -19 135 -118
q0 -61 -54 -96.5t-150 -35.5t-150 35.5t-54 96.5zM487 429q0 -45 61 -45q60 0 60 45q0 19 -12 29.5t-48 10.5q-61 0 -61 -40zM464 228q0 -54 84 -54t84 54q0 56 -84 56t-84 -56z" />
    <glyph glyph-name="uni277E" unicode="&#x277e;" 
d="M548 -177q225 0 361.5 143t136.5 355t-136.5 355t-361.5 143t-361.5 -143t-136.5 -355t136.5 -355t361.5 -143zM763 343q0 -298 -268 -267l-85 10v100l95 -10q175 -18 175 121l31 70h-30q-12 -52 -52.5 -90.5t-111.5 -38.5q-68 0 -113 39.5t-45 124.5q0 87 54.5 128
t137.5 41q212 0 212 -228zM643 404q0 35 -19.5 51t-62.5 16q-42 0 -62 -16t-20 -51q0 -66 82 -66t82 66z" />
    <glyph glyph-name="G.ss01" horiz-adv-x="829" 
d="M50 353q0 160 100.5 261t254.5 101q133 0 226 -73t109 -189h-160q-12 63 -54 92.5t-121 29.5q-93 0 -144 -57t-51 -165q0 -111 45.5 -167t142.5 -56q89 0 150 37.5t61 105.5h-203v120h278q85 0 85 -85v-308h-160v63l30 110h-40q0 -17 -3.5 -35t-17 -46.5t-36 -49.5
t-67 -36.5t-103.5 -15.5q-152 0 -237 99t-85 264z" />
    <glyph glyph-name="Gbreve.ss01" horiz-adv-x="829" 
d="M588 954q0 -85 -44.5 -142t-138.5 -57t-138.5 57t-44.5 142h120q0 -50 16 -69.5t47 -19.5t47 19.5t16 69.5h120zM50 353q0 160 100.5 261t254.5 101q133 0 226 -73t109 -189h-160q-12 63 -54 92.5t-121 29.5q-93 0 -144 -57t-51 -165q0 -111 45.5 -167t142.5 -56
q89 0 150 37.5t61 105.5h-203v120h278q85 0 85 -85v-308h-160v63l30 110h-40q0 -17 -3.5 -35t-17 -46.5t-36 -49.5t-67 -36.5t-103.5 -15.5q-152 0 -237 99t-85 264z" />
    <glyph glyph-name="uni0122.ss01" horiz-adv-x="829" 
d="M50 353q0 160 100.5 261t254.5 101q133 0 226 -73t109 -189h-160q-12 63 -54 92.5t-121 29.5q-93 0 -144 -57t-51 -165q0 -111 45.5 -167t142.5 -56q89 0 150 37.5t61 105.5h-203v120h278q85 0 85 -85v-308h-160v63l30 110h-40q0 -17 -3.5 -35t-17 -46.5t-36 -49.5
t-67 -36.5t-103.5 -15.5q-152 0 -237 99t-85 264zM317 -49l114 -37l-62 -171l-114 37z" />
    <glyph glyph-name="Gdotaccent.ss01" horiz-adv-x="829" 
d="M404 755q-99 0 -99 80q0 38 25.5 59t73.5 21t74.5 -21t26.5 -59q0 -39 -26.5 -59.5t-74.5 -20.5zM50 353q0 160 100.5 261t254.5 101q133 0 226 -73t109 -189h-160q-12 63 -54 92.5t-121 29.5q-93 0 -144 -57t-51 -165q0 -111 45.5 -167t142.5 -56q89 0 150 37.5
t61 105.5h-203v120h278q85 0 85 -85v-308h-160v63l30 110h-40q0 -17 -3.5 -35t-17 -46.5t-36 -49.5t-67 -36.5t-103.5 -15.5q-152 0 -237 99t-85 264z" />
    <glyph glyph-name="i.loclTRK" horiz-adv-x="500" 
d="M229 555q-99 0 -99 80q0 38 25.5 59t73.5 21t74.5 -21t26.5 -59q0 -39 -26.5 -59.5t-74.5 -20.5zM40 0v140h143v231l-123 -6v140l190 10q42 2 64.5 -20t22.5 -64v-291h143v-140h-440z" />
    <glyph glyph-name="a.ss01" horiz-adv-x="708" 
d="M648 0h-160v31l30 90h-40q-51 -131 -199 -131q-113 0 -176 75t-63 188q0 112 63 187t176 75q148 0 199 -131h40l-30 90v31h160v-505zM488 253q0 122 -144 122t-144 -122q0 -123 144 -123t144 123z" />
    <glyph glyph-name="aacute.ss01" horiz-adv-x="708" 
d="M135 669l390 86l27 -114l-390 -86zM648 0h-160v31l30 90h-40q-51 -131 -199 -131q-113 0 -176 75t-63 188q0 112 63 187t176 75q148 0 199 -131h40l-30 90v31h160v-505zM488 253q0 122 -144 122t-144 -122q0 -123 144 -123t144 123z" />
    <glyph glyph-name="abreve.ss01" horiz-adv-x="708" 
d="M537 754q0 -85 -44.5 -142t-138.5 -57t-138.5 57t-44.5 142h120q0 -50 16 -69.5t47 -19.5t47 19.5t16 69.5h120zM648 0h-160v31l30 90h-40q-51 -131 -199 -131q-113 0 -176 75t-63 188q0 112 63 187t176 75q148 0 199 -131h40l-30 90v31h160v-505zM488 253
q0 122 -144 122t-144 -122q0 -123 144 -123t144 123z" />
    <glyph glyph-name="acircumflex.ss01" horiz-adv-x="708" 
d="M570 624l-85 -80l-131 91l-131 -91l-85 80l216 151zM648 0h-160v31l30 90h-40q-51 -131 -199 -131q-113 0 -176 75t-63 188q0 112 63 187t176 75q148 0 199 -131h40l-30 90v31h160v-505zM488 253q0 122 -144 122t-144 -122q0 -123 144 -123t144 123z" />
    <glyph glyph-name="adieresis.ss01" horiz-adv-x="708" 
d="M223 555q-99 0 -99 80q0 38 25.5 59t73.5 21t74.5 -21t26.5 -59q0 -39 -26.5 -59.5t-74.5 -20.5zM483 555q-99 0 -99 80q0 38 25.5 59t73.5 21t74.5 -21t26.5 -59q0 -39 -26.5 -59.5t-74.5 -20.5zM648 0h-160v31l30 90h-40q-51 -131 -199 -131q-113 0 -176 75t-63 188
q0 112 63 187t176 75q148 0 199 -131h40l-30 90v31h160v-505zM488 253q0 122 -144 122t-144 -122q0 -123 144 -123t144 123z" />
    <glyph glyph-name="agrave.ss01" horiz-adv-x="708" 
d="M572 669l-27 -114l-390 86l27 114zM648 0h-160v31l30 90h-40q-51 -131 -199 -131q-113 0 -176 75t-63 188q0 112 63 187t176 75q148 0 199 -131h40l-30 90v31h160v-505zM488 253q0 122 -144 122t-144 -122q0 -123 144 -123t144 123z" />
    <glyph glyph-name="amacron.ss01" horiz-adv-x="708" 
d="M139 720h430v-118l-430 -2v120zM648 0h-160v31l30 90h-40q-51 -131 -199 -131q-113 0 -176 75t-63 188q0 112 63 187t176 75q148 0 199 -131h40l-30 90v31h160v-505zM488 253q0 122 -144 122t-144 -122q0 -123 144 -123t144 123z" />
    <glyph glyph-name="aogonek.ss01" horiz-adv-x="708" 
d="M610 -80l136 14v-120l-185 -15q-53 -4 -81.5 32t-3.5 74l62 95h-50v31l30 90h-40q-51 -131 -199 -131q-113 0 -176 75t-63 188q0 112 63 187t176 75q148 0 199 -131h40l-30 90v31h160v-505zM344 130q144 0 144 123q0 122 -144 122t-144 -122q0 -123 144 -123z" />
    <glyph glyph-name="aring.ss01" horiz-adv-x="708" 
d="M353 555q-74 0 -115.5 31t-41.5 92q0 60 41.5 91.5t115.5 31.5t116 -31.5t42 -91.5t-42 -91.5t-116 -31.5zM353 645q38 0 38 33q0 32 -38 32q-37 0 -37 -32q0 -33 37 -33zM648 0h-160v31l30 90h-40q-51 -131 -199 -131q-113 0 -176 75t-63 188q0 112 63 187t176 75
q148 0 199 -131h40l-30 90v31h160v-505zM488 253q0 122 -144 122t-144 -122q0 -123 144 -123t144 123z" />
    <glyph glyph-name="atilde.ss01" horiz-adv-x="708" 
d="M120 600q0 88 39 139t108 51q31 0 58 -12.5t42 -27.5t32.5 -27.5t31.5 -12.5q19 0 28 14t9 56h120q0 -88 -39 -139t-108 -51q-31 0 -58 12.5t-42 27.5t-32.5 27.5t-31.5 12.5q-19 0 -28 -14t-9 -56h-120zM648 0h-160v31l30 90h-40q-51 -131 -199 -131q-113 0 -176 75
t-63 188q0 112 63 187t176 75q148 0 199 -131h40l-30 90v31h160v-505zM488 253q0 122 -144 122t-144 -122q0 -123 144 -123t144 123z" />
    <glyph glyph-name="g.ss01" horiz-adv-x="708" 
d="M488 505h160v-621q0 -42 -22.5 -63.5t-63.5 -20.5l-424 7v140l350 -6v90l30 90h-40q-51 -131 -199 -131q-113 0 -176 75t-63 188q0 112 63 187t176 75q148 0 199 -131h40l-30 90v31zM344 130q144 0 144 123q0 122 -144 122t-144 -122q0 -123 144 -123z" />
    <glyph glyph-name="gbreve.ss01" horiz-adv-x="708" 
d="M335 555q-94 0 -138.5 57t-44.5 142h120q0 -50 16 -69.5t47 -19.5t47 19.5t16 69.5h120q0 -85 -44.5 -142t-138.5 -57zM488 505h160v-621q0 -42 -22.5 -63.5t-63.5 -20.5l-424 7v140l350 -6v90l30 90h-40q-51 -131 -199 -131q-113 0 -176 75t-63 188q0 112 63 187t176 75
q148 0 199 -131h40l-30 90v31zM344 130q144 0 144 123q0 122 -144 122t-144 -122q0 -123 144 -123z" />
    <glyph glyph-name="uni0123.ss01" horiz-adv-x="708" 
d="M455 772l-73 -217l-116 31l73 217zM488 505h160v-621q0 -42 -22.5 -63.5t-63.5 -20.5l-424 7v140l350 -6v90l30 90h-40q-51 -131 -199 -131q-113 0 -176 75t-63 188q0 112 63 187t176 75q148 0 199 -131h40l-30 90v31zM344 130q144 0 144 123q0 122 -144 122t-144 -122
q0 -123 144 -123z" />
    <glyph glyph-name="gdotaccent.ss01" horiz-adv-x="708" 
d="M334 555q-99 0 -99 80q0 38 25.5 59t73.5 21t74.5 -21t26.5 -59q0 -39 -26.5 -59.5t-74.5 -20.5zM488 505h160v-621q0 -42 -22.5 -63.5t-63.5 -20.5l-424 7v140l350 -6v90l30 90h-40q-51 -131 -199 -131q-113 0 -176 75t-63 188q0 112 63 187t176 75q148 0 199 -131h40
l-30 90v31zM344 130q144 0 144 123q0 122 -144 122t-144 -122q0 -123 144 -123z" />
    <glyph glyph-name="k.ss01" horiz-adv-x="707" 
d="M677 505l-247 -203l247 -302h-196l-167 207l-94 -77v-130h-160v735h160v-411l220 181h237z" />
    <glyph glyph-name="uni0137.ss01" horiz-adv-x="707" 
d="M677 505l-247 -203l247 -302h-196l-167 207l-94 -77v-130h-160v735h160v-411l220 181h237zM240 -220l62 171l114 -37l-62 -171z" />
    <glyph glyph-name="uni0438.loclBGR" horiz-adv-x="692" 
d="M652 0h-160v380l30 85h-40l-109 -465h-313v505h160v-375l-30 -90h40l109 465h313v-505z" />
    <glyph glyph-name="uni0439.loclBGR" horiz-adv-x="692" 
d="M544 754q0 -85 -44.5 -142t-138.5 -57t-138.5 57t-44.5 142h120q0 -50 16 -69.5t47 -19.5t47 19.5t16 69.5h120zM652 0h-160v380l30 85h-40l-109 -465h-313v505h160v-375l-30 -90h40l109 465h313v-505z" />
    <glyph glyph-name="uni045D.loclBGR" horiz-adv-x="692" 
d="M579 669l-27 -114l-390 86l27 114zM652 0h-160v380l30 85h-40l-109 -465h-313v505h160v-375l-30 -90h40l109 465h313v-505z" />
    <glyph glyph-name="zero.dnom" horiz-adv-x="493" 
d="M247 485q103 0 159.5 -68.5t56.5 -178.5q0 -111 -56.5 -179.5t-159.5 -68.5q-104 0 -160.5 68.5t-56.5 179.5q0 110 56.5 178.5t160.5 68.5zM247 365q-45 0 -71 -35t-26 -92q0 -30 8 -56l147 165q-23 18 -58 18zM247 110q96 0 96 128q0 32 -6 56l-148 -163q26 -21 58 -21
z" />
    <glyph glyph-name="one.dnom" horiz-adv-x="369" 
d="M30 306q47 39 61 66.5t22 102.5h226v-475h-120v365l20 70h-30q-13 -190 -128 -239z" />
    <glyph glyph-name="two.dnom" horiz-adv-x="460" 
d="M30 273q0 90 55.5 151t159.5 61q95 0 140 -47.5t45 -116.5q0 -52 -25 -89.5t-73 -60t-103.5 -35.5t-132.5 -21v-30l70 15h264v-100h-374v185q2 0 20 2.5t30 4t34.5 6t39.5 9.5t38 12.5t36 17t28.5 22t20.5 28.5t7 34q0 27 -17.5 45.5t-56.5 18.5q-48 0 -67 -27.5
t-19 -84.5h-120z" />
    <glyph glyph-name="three.dnom" horiz-adv-x="481" 
d="M30 179h120q0 -53 24.5 -71t74.5 -18q42 0 62 12t20 45q0 31 -18.5 40.5t-52.5 9.5h-48v99h48q33 0 48.5 8.5t15.5 35.5q0 25 -17.5 35t-57.5 10q-47 0 -70 -14t-23 -50h-120q0 78 56 121t157 43q97 0 146.5 -36t49.5 -91q0 -48 -30.5 -68.5t-86.5 -29.5v-30
q25 -5 37.5 -8t32 -10.5t29 -17t17 -26t7.5 -38.5q0 -65 -51 -102.5t-151 -37.5q-104 0 -161.5 47t-57.5 142z" />
    <glyph glyph-name="four.dnom" horiz-adv-x="465" 
d="M30 60v246q159 30 182 169h120q-10 -101 -79 -180.5t-203 -104.5v-30l70 20h130v79h120v-79h65v-120h-65v-60h-120v60h-220z" />
    <glyph glyph-name="five.dnom" horiz-adv-x="475" 
d="M30 153h120q0 -31 24 -47t61 -16q90 0 90 70q0 77 -63 77q-50 0 -85 -55l-134 46v247h373v-100h-253v-86l-16 -44l20 -11q13 46 48.5 74.5t92.5 28.5q69 0 103 -46.5t34 -119.5q0 -78 -52 -129.5t-154 -51.5q-100 0 -154.5 42t-54.5 121z" />
    <glyph glyph-name="six.dnom" horiz-adv-x="464" 
d="M30 218q0 298 268 267l85 -10v-100l-95 10q-175 18 -175 -121l-31 -70h30q12 52 52.5 90.5t111.5 38.5q68 0 113 -39.5t45 -124.5q0 -87 -54.5 -128t-137.5 -41q-212 0 -212 228zM150 157q0 -35 19.5 -51t62.5 -16q42 0 62 16t20 51q0 66 -82 66t-82 -66z" />
    <glyph glyph-name="seven.dnom" horiz-adv-x="429" 
d="M86 0q0 153 66 231.5t207 113.5v30h-329v100h369v-203q-108 -33 -150.5 -95t-42.5 -177h-120z" />
    <glyph glyph-name="eight.dnom" horiz-adv-x="468" 
d="M30 122q0 99 135 118v20q-45 6 -78.5 30.5t-33.5 74.5q0 56 46 88t135 32t134.5 -32t45.5 -88q0 -50 -33.5 -74.5t-77.5 -30.5v-20q135 -19 135 -118q0 -61 -54 -96.5t-150 -35.5t-150 35.5t-54 96.5zM173 345q0 -45 61 -45q60 0 60 45q0 19 -12 29.5t-48 10.5
q-61 0 -61 -40zM150 144q0 -54 84 -54t84 54q0 56 -84 56t-84 -56z" />
    <glyph glyph-name="nine.dnom" horiz-adv-x="464" 
d="M434 260q0 -298 -268 -267l-85 10v100l95 -10q175 -18 175 121l31 70h-30q-12 -52 -52.5 -90.5t-111.5 -38.5q-68 0 -113 39.5t-45 124.5q0 87 54.5 128t137.5 41q212 0 212 -228zM314 321q0 35 -19.5 51t-62.5 16q-42 0 -62 -16t-20 -51q0 -66 82 -66t82 66z" />
    <glyph glyph-name="zero.numr" horiz-adv-x="493" 
d="M247 783q103 0 159.5 -68.5t56.5 -178.5q0 -111 -56.5 -179.5t-159.5 -68.5q-104 0 -160.5 68.5t-56.5 179.5q0 110 56.5 178.5t160.5 68.5zM247 663q-45 0 -71 -35t-26 -92q0 -30 8 -56l147 165q-23 18 -58 18zM247 408q96 0 96 128q0 32 -6 56l-148 -163q26 -21 58 -21
z" />
    <glyph glyph-name="one.numr" horiz-adv-x="369" 
d="M30 596q47 39 61 66.5t22 102.5h226v-475h-120v365l20 70h-30q-13 -190 -128 -239z" />
    <glyph glyph-name="two.numr" horiz-adv-x="460" 
d="M30 567q0 90 55.5 151t159.5 61q95 0 140 -47.5t45 -116.5q0 -52 -25 -89.5t-73 -60t-103.5 -35.5t-132.5 -21v-30l70 15h264v-100h-374v185q2 0 20 2.5t30 4t34.5 6t39.5 9.5t38 12.5t36 17t28.5 22t20.5 28.5t7 34q0 27 -17.5 45.5t-56.5 18.5q-48 0 -67 -27.5
t-19 -84.5h-120z" />
    <glyph glyph-name="three.numr" horiz-adv-x="481" 
d="M30 473h120q0 -53 24.5 -71t74.5 -18q42 0 62 12t20 45q0 31 -18.5 40.5t-52.5 9.5h-48v99h48q33 0 48.5 8.5t15.5 35.5q0 25 -17.5 35t-57.5 10q-47 0 -70 -14t-23 -50h-120q0 78 56 121t157 43q97 0 146.5 -36t49.5 -91q0 -48 -30.5 -68.5t-86.5 -29.5v-30
q25 -5 37.5 -8t32 -10.5t29 -17t17 -26t7.5 -38.5q0 -65 -51 -102.5t-151 -37.5q-104 0 -161.5 47t-57.5 142z" />
    <glyph glyph-name="four.numr" horiz-adv-x="465" 
d="M30 350v246q159 30 182 169h120q-10 -101 -79 -180.5t-203 -104.5v-30l70 20h130v79h120v-79h65v-120h-65v-60h-120v60h-220z" />
    <glyph glyph-name="five.numr" horiz-adv-x="475" 
d="M30 447h120q0 -31 24 -47t61 -16q90 0 90 70q0 77 -63 77q-50 0 -85 -55l-134 46v247h373v-100h-253v-86l-16 -44l20 -11q13 46 48.5 74.5t92.5 28.5q69 0 103 -46.5t34 -119.5q0 -78 -52 -129.5t-154 -51.5q-100 0 -154.5 42t-54.5 121z" />
    <glyph glyph-name="six.numr" horiz-adv-x="464" 
d="M30 517q0 298 268 267l85 -10v-100l-95 10q-175 18 -175 -121l-31 -70h30q12 52 52.5 90.5t111.5 38.5q68 0 113 -39.5t45 -124.5q0 -87 -54.5 -128t-137.5 -41q-212 0 -212 228zM150 456q0 -35 19.5 -51t62.5 -16q42 0 62 16t20 51q0 66 -82 66t-82 -66z" />
    <glyph glyph-name="seven.numr" horiz-adv-x="429" 
d="M86 290q0 153 66 231.5t207 113.5v30h-329v100h369v-203q-108 -33 -150.5 -95t-42.5 -177h-120z" />
    <glyph glyph-name="eight.numr" horiz-adv-x="468" 
d="M30 420q0 99 135 118v20q-45 6 -78.5 30.5t-33.5 74.5q0 56 46 88t135 32t134.5 -32t45.5 -88q0 -50 -33.5 -74.5t-77.5 -30.5v-20q135 -19 135 -118q0 -61 -54 -96.5t-150 -35.5t-150 35.5t-54 96.5zM173 643q0 -45 61 -45q60 0 60 45q0 19 -12 29.5t-48 10.5
q-61 0 -61 -40zM150 442q0 -54 84 -54t84 54q0 56 -84 56t-84 -56z" />
    <glyph glyph-name="nine.numr" horiz-adv-x="464" 
d="M434 559q0 -298 -268 -267l-85 10v100l95 -10q175 -18 175 121l31 70h-30q-12 -52 -52.5 -90.5t-111.5 -38.5q-68 0 -113 39.5t-45 124.5q0 87 54.5 128t137.5 41q212 0 212 -228zM314 620q0 35 -19.5 51t-62.5 16q-42 0 -62 -16t-20 -51q0 -66 82 -66t82 66z" />
    <glyph glyph-name="colon.case" horiz-adv-x="360" 
d="M179 417q-50 0 -79.5 31.5t-29.5 79.5q0 47 29.5 78t79.5 31q49 0 80 -31.5t31 -77.5q0 -48 -31 -79.5t-80 -31.5zM179 67q-50 0 -79.5 31.5t-29.5 79.5q0 47 29.5 78t79.5 31q49 0 80 -31.5t31 -77.5q0 -48 -31 -79.5t-80 -31.5z" />
    <glyph glyph-name="bullet.case" horiz-adv-x="783" 
d="M389 31q-146 0 -232.5 91.5t-86.5 232.5q0 138 86.5 228.5t232.5 90.5q143 0 233.5 -91.5t90.5 -227.5q0 -140 -90.5 -232t-233.5 -92z" />
    <glyph glyph-name="parenleft.case" horiz-adv-x="451" 
d="M381 25v-100q-156 29 -233.5 142.5t-77.5 285.5t77 285t234 142v-100q-58 -18 -97 -48.5t-59 -74.5t-27.5 -91.5t-7.5 -112.5t7.5 -112.5t27.5 -91.5t59 -75t97 -49z" />
    <glyph glyph-name="parenright.case" horiz-adv-x="451" 
d="M70 25q58 18 97 49t59 75t27.5 91.5t7.5 112.5t-7.5 112.5t-27.5 91.5t-59 74.5t-97 48.5v100q157 -29 234 -142t77 -285t-77.5 -285.5t-233.5 -142.5v100z" />
    <glyph glyph-name="braceleft.case" horiz-adv-x="644" 
d="M352 675l-90 30v-40q127 -31 177.5 -70t50.5 -128q0 -52 -34 -117q34 -65 34 -117q0 -89 -50.5 -128t-177.5 -70v-40l90 30h222v-100h-352v171q87 27 127.5 62t40.5 103q-73 -73 -151 -73q-76 0 -122.5 43t-46.5 119q0 78 44 120t125 42q78 0 151 -73q0 68 -40.5 103
t-127.5 62v171h352v-100h-222zM258 278q24 0 51 20.5t48 51.5q-21 31 -48 51.5t-51 20.5q-29 0 -48.5 -19t-19.5 -53t19.5 -53t48.5 -19z" />
    <glyph glyph-name="braceright.case" horiz-adv-x="644" 
d="M574 350q0 -76 -46.5 -119t-122.5 -43q-78 0 -151 73q0 -68 40.5 -103t127.5 -62v-171h-352v100h222l90 -30v40q-127 31 -177.5 70t-50.5 128q0 52 34 117q-34 65 -34 117q0 89 50.5 128t177.5 70v40l-90 -30h-222v100h352v-171q-87 -27 -127.5 -62t-40.5 -103
q73 73 151 73q81 0 125 -42t44 -120zM287 350q21 -31 48 -51.5t51 -20.5q29 0 48.5 19t19.5 53t-19.5 53t-48.5 19q-24 0 -51 -20.5t-48 -51.5z" />
    <glyph glyph-name="bracketleft.case" horiz-adv-x="461" 
d="M70 780h321v-100h-200v-655h200v-100h-321v855z" />
    <glyph glyph-name="bracketright.case" horiz-adv-x="461" 
d="M391 780v-855h-321v100h200v655h-200v100h321z" />
    <glyph glyph-name="braceleft.ss01" horiz-adv-x="465" 
d="M70 339q40 0 69 7.5t43 17t22 24.5t9 24.5t1 23.5q0 34 -24 61t-69 34v174h274v-100h-184l-50 30v-40q87 -28 130 -65t43 -104q0 -65 -44.5 -97t-120.5 -32v-40q76 0 120.5 -32t44.5 -98q0 -67 -43 -103t-130 -64v-40l50 30h184v-100h-274v174q46 7 69.5 33t23.5 60
q0 14 -1 23.5t-9 25t-22 25t-43 17t-69 7.5v124z" />
    <glyph glyph-name="braceright.ss01" horiz-adv-x="465" 
d="M395 339v-124q-40 0 -69 -7.5t-43 -17t-22 -25t-9 -25t-1 -23.5q0 -34 23.5 -60t69.5 -33v-174h-274v100h184l50 -30v40q-87 28 -130 64t-43 103q0 66 44.5 98t120.5 32v40q-76 0 -120.5 32t-44.5 97q0 67 43 104t130 65v40l-50 -30h-184v100h274v-174q-45 -7 -69 -34
t-24 -61q0 -14 1 -23.5t9 -24.5t22 -24.5t43 -17t69 -7.5z" />
    <glyph glyph-name="braceleft.case.ss01" horiz-adv-x="465" 
d="M70 414q40 0 69 7.5t43 17t22 24.5t9 24.5t1 23.5q0 34 -24 61t-69 34v174h274v-100h-184l-50 30v-40q87 -28 130 -65t43 -104q0 -65 -44.5 -97t-120.5 -32v-40q76 0 120.5 -32t44.5 -98q0 -67 -43 -103t-130 -64v-40l50 30h184v-100h-274v174q46 7 69.5 33t23.5 60
q0 14 -1 23.5t-9 25t-22 25t-43 17t-69 7.5v124z" />
    <glyph glyph-name="braceright.case.ss01" horiz-adv-x="465" 
d="M395 414v-124q-40 0 -69 -7.5t-43 -17t-22 -25t-9 -25t-1 -23.5q0 -34 23.5 -60t69.5 -33v-174h-274v100h184l50 -30v40q-87 28 -130 64t-43 103q0 66 44.5 98t120.5 32v40q-76 0 -120.5 32t-44.5 97q0 67 43 104t130 65v40l-50 -30h-184v100h274v-174q-45 -7 -69 -34
t-24 -61q0 -14 1 -23.5t9 -24.5t22 -24.5t43 -17t69 -7.5z" />
    <glyph glyph-name="hyphen.case" horiz-adv-x="680" 
d="M70 413h540v-120h-540v120z" />
    <glyph glyph-name="endash.case" horiz-adv-x="890" 
d="M70 413h750v-120h-750v120z" />
    <glyph glyph-name="emdash.case" horiz-adv-x="1090" 
d="M70 413h950v-120h-950v120z" />
    <glyph glyph-name="guillemotleft.case" horiz-adv-x="847" 
d="M477 115l-88 -80l-319 318l319 317l88 -80l-237 -237zM777 115l-88 -80l-319 318l319 317l88 -80l-237 -237z" />
    <glyph glyph-name="guillemotright.case" horiz-adv-x="867" 
d="M90 115l237 238l-237 237l88 80l319 -317l-319 -318zM390 115l237 238l-237 237l88 80l319 -317l-319 -318z" />
    <glyph glyph-name="guilsinglleft.case" horiz-adv-x="547" 
d="M477 115l-88 -80l-319 318l319 317l88 -80l-237 -237z" />
    <glyph glyph-name="guilsinglright.case" horiz-adv-x="567" 
d="M90 115l237 238l-237 237l88 80l319 -317l-319 -318z" />
    <glyph glyph-name="ampersand.ss01" horiz-adv-x="972" 
d="M902 505q0 -212 -150 -357q62 -38 150 -89l-86 -118q-124 73 -191 115q-127 -66 -267 -66q-135 0 -211.5 51.5t-76.5 148.5q0 74 42.5 117.5t118.5 72.5q-46 69 -46 133q0 99 70 150.5t191 51.5q105 0 171 -52t66 -125q0 -75 -42 -117t-160 -87q67 -55 146 -106
q115 103 115 277h160zM438 575q-93 0 -93 -62q0 -35 38 -84q87 29 113.5 47t26.5 46q0 25 -24 39t-61 14zM358 130q65 0 126 19q-94 64 -161 126q-52 -22 -72.5 -39.5t-20.5 -40.5q0 -65 128 -65z" />
    <glyph glyph-name="brevecombcy" horiz-adv-x="0" 
d="M-70 754q0 -85 -44.5 -142t-138.5 -57t-138.5 57t-44.5 142h120q0 -50 16 -69.5t47 -19.5t47 19.5t16 69.5h120z" />
    </font>
</defs>
</svg>
