<?xml version="1.0" standalone="no"?>
<!DOCTYPE svg PUBLIC "-//W3C//DTD SVG 1.1//EN" "http://www.w3.org/Graphics/SVG/1.1/DTD/svg11.dtd" >
<svg xmlns="http://www.w3.org/2000/svg" xmlns:xlink="http://www.w3.org/1999/xlink" version="1.1">
<metadata>
Created by FontForge 20170731 at Mon Feb  4 15:28:05 2019
 By Aleksey,,,
Copyright (c) 2019 by Nicholas Losacco. All rights reserved.
</metadata>
<defs>
<font id="Cirka-Bold" horiz-adv-x="0" >
  <font-face 
    font-family="Cirka"
    font-weight="700"
    font-stretch="normal"
    units-per-em="1000"
    panose-1="0 0 8 0 0 0 0 0 0 0"
    ascent="800"
    descent="-200"
    x-height="452"
    cap-height="637"
    bbox="-604 -277 1057 914"
    underline-thickness="50"
    underline-position="-200"
    unicode-range="U+0020-25CA"
  />
<missing-glyph horiz-adv-x="472" 
d="M387 750v-944h-299v944h299zM314 687h-155v-31h61v-35h-62v-31h156v31h-62v35h62v31zM252 565h-94v-98h156v32h-62v66zM220 533v-34h-31v34h31zM314 441h-156v-31h62v-35h-62v-31h94v66h62v31zM314 385h-31v-63h-125v-32h156v95zM314 270h-94v-53h32v21h31v-44h-94v76
h-31v-107h156v107zM314 106h-156v-106h156v106zM283 75v-44h-94v44h94zM314 -22h-156v-31h66l-66 -45v-31h156v31h-96l66 45h30v31z" />
    <glyph glyph-name="f_f_i" unicode="ffi" horiz-adv-x="835" 
d="M759 70q0 -26 10.5 -35t35.5 -9v-26h-184v26q25 0 35.5 9t10.5 35v319h-189v-319q0 -26 10.5 -35t35.5 -9v-26h-188v26q25 0 35.5 9t10.5 35v326h-194v-326q0 -26 10.5 -35t35.5 -9v-26h-188v26q25 0 35.5 9t10.5 35v319l-72 17v46h72v21q0 174 158 174q95 0 137 -73
l-93 -64l-7 7q9 17 9 39q0 24 -7.5 35.5t-31.5 11.5q-38 0 -53.5 -28t-15.5 -85v-55l80 17h114v1q0 95 61.5 144.5t147.5 49.5q118 0 167 -86l-86 -64l-7 7q20 32 1.5 60t-60.5 28q-59 0 -93.5 -39t-34.5 -116v-9l53 24h228v-382z" />
    <glyph glyph-name="f_i.liga" unicode="fi" horiz-adv-x="549" 
d="M473 70q0 -26 10.5 -35t35.5 -9v-26h-188v26q25 0 35.5 9t10.5 35v319h-189v-319q0 -26 10.5 -35t35.5 -9v-26h-188v26q25 0 35.5 9t10.5 35v319l-72 17v46h72v1q0 95 61.5 144.5t147.5 49.5q118 0 167 -86l-86 -64l-7 7q20 32 1.5 60t-60.5 28q-59 0 -93.5 -39
t-34.5 -116v-9l53 24h232v-382z" />
    <glyph glyph-name="f_l.liga" unicode="fl" horiz-adv-x="548" 
d="M470 70q0 -26 10.5 -35t35.5 -9v-26h-188v26q25 0 35.5 9t10.5 35v382q0 75 -22.5 107.5t-69.5 32.5q-104 0 -104 -130v-20l49 10h78v-56h-127v-326q0 -26 10.5 -35t35.5 -9v-26h-182v26q25 0 35.5 9t10.5 35v318l-68 18v46h68v31q0 70 55 117t139 47q85 0 136.5 -44.5
t51.5 -120.5v-412z" />
    <glyph glyph-name=".notdef" horiz-adv-x="472" 
d="M387 750v-944h-299v944h299zM314 687h-155v-31h61v-35h-62v-31h156v31h-62v35h62v31zM252 565h-94v-98h156v32h-62v66zM220 533v-34h-31v34h31zM314 441h-156v-31h62v-35h-62v-31h94v66h62v31zM314 385h-31v-63h-125v-32h156v95zM314 270h-94v-53h32v21h31v-44h-94v76
h-31v-107h156v107zM314 106h-156v-106h156v106zM283 75v-44h-94v44h94zM314 -22h-156v-31h66l-66 -45v-31h156v31h-96l66 45h30v31z" />
    <glyph glyph-name=".null" 
 />
    <glyph glyph-name="nonmarkingreturn" horiz-adv-x="333" 
 />
    <glyph glyph-name="space" unicode=" " horiz-adv-x="207" 
 />
    <glyph glyph-name="exclam" unicode="!" horiz-adv-x="246" 
d="M126 157h-8l-52 433l56 56l55 -56zM51 56l72 71l71 -71l-71 -72z" />
    <glyph glyph-name="quotedbl" unicode="&#x22;" horiz-adv-x="210" 
d="M92 646l-55 -187h-16v187h71zM190 646l-55 -187h-16v187h71z" />
    <glyph glyph-name="numbersign" unicode="#" horiz-adv-x="645" 
d="M627 396h-163l-39 -164h160v-56h-173l-42 -176h-65l42 176h-186l-42 -176h-65l42 176h-123v56h136l39 164h-133v56h147l44 185h65l-44 -185h186l44 185h65l-44 -185h149v-56zM360 232l39 164h-186l-39 -164h186z" />
    <glyph glyph-name="dollar" unicode="$" horiz-adv-x="528" 
d="M350 350q72 -25 100 -67.5t28 -105.5q0 -85 -60 -134.5t-171 -49.5h-19l-14 -79l-41 9l13 75q-117 18 -176 97v202h21q4 -94 49 -157.5t116 -84.5l39 226l-72 25q-74 26 -105.5 65.5t-31.5 100.5q0 74 58 124.5t166 50.5q25 0 49 -3l16 93l41 -8l-16 -93q67 -17 110 -56
l10 -172h-21q-18 132 -109 171l-37 -209zM196 405l58 -21l36 207q-16 3 -34 3q-72 0 -106 -28.5t-34 -70.5q0 -32 18.5 -53t61.5 -37zM258 46q62 0 95 28.5t33 77.5q0 38 -19.5 63.5t-66.5 42.5l-25 9l-38 -220q7 -1 21 -1z" />
    <glyph glyph-name="percent" unicode="%" horiz-adv-x="683" 
d="M162 359q-61 0 -96.5 41.5t-35.5 104.5q0 62 35.5 102t96.5 40q62 0 97.5 -39.5t35.5 -102.5t-35.5 -104.5t-97.5 -41.5zM95 0l429 637h63l-429 -637h-63zM162 390q35 0 53.5 30.5t18.5 84.5q0 52 -18.5 81.5t-53.5 29.5t-53 -29.5t-18 -81.5q0 -54 18 -84.5t53 -30.5z
M520 -7q-61 0 -96.5 41.5t-35.5 104.5q0 62 35.5 102t96.5 40q62 0 97.5 -39.5t35.5 -102.5t-35.5 -104.5t-97.5 -41.5zM520 24q35 0 53.5 30.5t18.5 84.5q0 52 -18.5 81.5t-53.5 29.5t-53 -29.5t-18 -81.5q0 -54 18 -84.5t53 -30.5z" />
    <glyph glyph-name="ampersand" unicode="&#x26;" horiz-adv-x="634" 
d="M30 228q0 76 42 118.5t102 42.5q76 0 109 -43l1 1l-192 290h457l-11 -62l-18 -105l-25 4q9 46 3 66.5t-32 20.5h-228l232 -445q30 42 30 113q0 77 -42 137l120 30q26 -47 26 -120q0 -141 -103 -221l35 -67l-11 -6l-41 61q-77 -50 -180 -50q-125 0 -199.5 66.5
t-74.5 168.5zM134 216q0 -70 47.5 -117.5t122.5 -47.5q97 0 146 43l-115 174q-46 70 -99 70q-44 0 -73 -35.5t-29 -86.5z" />
    <glyph glyph-name="quotesingle" unicode="'" horiz-adv-x="112" 
d="M92 646l-55 -187h-16v187h71z" />
    <glyph glyph-name="parenleft" unicode="(" horiz-adv-x="296" 
d="M20 305q0 285 249 394l7 -11q-41 -24 -69 -51t-53.5 -70.5t-38 -109t-12.5 -152.5q0 -287 173 -392l-7 -12q-119 53 -184 156t-65 248z" />
    <glyph glyph-name="parenright" unicode=")" horiz-adv-x="296" 
d="M276 305q0 -145 -65 -248t-184 -156l-7 12q173 105 173 392q0 87 -12.5 152.5t-38 109t-53.5 70.5t-69 51l7 11q249 -109 249 -394z" />
    <glyph glyph-name="asterisk" unicode="*" horiz-adv-x="278" 
d="M30 481l82 42l-82 40l19 33l76 -49l-5 90h38l-5 -90l76 49l19 -33l-82 -40l82 -42l-19 -33l-76 51l5 -92h-38l5 92l-76 -51z" />
    <glyph glyph-name="plus" unicode="+" horiz-adv-x="385" 
d="M355 275v-56h-133v-139h-59v139h-133v56h133v136h59v-136h133z" />
    <glyph glyph-name="comma" unicode="," horiz-adv-x="184" 
d="M21 56l71 71l72 -71l-65 -187h-7v115z" />
    <glyph glyph-name="hyphen" unicode="-" horiz-adv-x="320" 
d="M30 275h260v-56h-260v56z" />
    <glyph glyph-name="period" unicode="." horiz-adv-x="184" 
d="M21 56l71 71l72 -71l-72 -72z" />
    <glyph glyph-name="slash" unicode="/" horiz-adv-x="309" 
d="M17 0l231 637h65l-231 -637h-65z" />
    <glyph glyph-name="zero" unicode="0" horiz-adv-x="595" 
d="M297 647q117 0 189.5 -91t72.5 -231q0 -141 -73 -236.5t-189 -95.5t-188.5 95.5t-72.5 236.5q0 140 72.5 231t188.5 91zM297 48q158 0 158 277q0 134 -38 200.5t-120 66.5t-119.5 -66.5t-37.5 -200.5q0 -277 157 -277z" />
    <glyph glyph-name="one" unicode="1" horiz-adv-x="305" 
d="M225 70q0 -26 13 -35t42 -9v-26h-217v26q36 0 51 9t15 35v465l-86 -31l-13 24l192 115h3v-573z" />
    <glyph glyph-name="two" unicode="2" horiz-adv-x="547" 
d="M490 193l25 -4l-21 -131l-9 -58h-449q6 74 44.5 141t94.5 104l122 81q51 33 70 67t19 85q0 53 -29.5 82t-77.5 29q-55 0 -86.5 -30.5t-31.5 -80.5q0 -51 29 -112l-121 -10q-16 48 -16 88q0 89 64 146t164 57q99 0 154 -51t55 -118q0 -66 -30 -114t-91 -89l-139 -93
q-85 -57 -96 -124l293 14q26 1 39 29.5t24 91.5z" />
    <glyph glyph-name="three" unicode="3" horiz-adv-x="538" 
d="M351 346q71 -13 112.5 -59t41.5 -114q0 -80 -63 -130t-165 -50q-110 0 -174.5 52t-64.5 142q0 29 8 80l116 -10q-17 -49 -17 -91q0 -52 35.5 -83.5t95.5 -31.5q59 0 92 34.5t33 96.5q0 56 -36 95t-105 39h-9v63h9q62 0 89.5 35.5t27.5 83.5q0 91 -98 91
q-50 0 -81.5 -25.5t-31.5 -70.5q0 -39 20 -72l-116 -9q-12 28 -12 70q0 71 60.5 118t160.5 47q97 0 149.5 -41t52.5 -115q0 -60 -30.5 -95t-99.5 -50z" />
    <glyph glyph-name="four" unicode="4" horiz-adv-x="535" 
d="M258 0v26q43 0 61 9t18 35v78h-336v10l355 479h132v-26q-29 0 -42 -9t-13 -35v-355h80v-26l-80 -35v-81q0 -26 13 -35t42 -9v-26h-230zM129 212h208v334z" />
    <glyph glyph-name="five" unicode="5" horiz-adv-x="544" 
d="M290 441q96 0 157 -60.5t61 -163.5q0 -108 -65.5 -166t-172.5 -58q-99 0 -160.5 57.5t-61.5 138.5q0 41 11 81l120 -11q-23 -41 -23 -96q0 -48 32 -80t82 -32q134 0 134 166q0 84 -43.5 125t-109.5 41q-88 0 -130 -67l-46 4l14 317h399l-10 -64l-14 -90l-26 4
q7 40 0.5 57t-32.5 17h-254l-17 -184q50 64 155 64z" />
    <glyph glyph-name="six" unicode="6" horiz-adv-x="530" 
d="M283 589q38 0 65 -20.5t27 -56.5q0 -8 -3 -32l107 -9q1 7 1 21q0 70 -51.5 112.5t-145.5 42.5q-116 0 -178.5 -92.5t-62.5 -264.5q0 -297 234 -297q102 0 159 61t57 158q0 93 -53.5 144t-134.5 51q-53 0 -95.5 -28t-65.5 -73q2 156 36 219.5t104 63.5zM143 191
q0 69 33 113t99 44q54 0 83.5 -39t29.5 -105q0 -65 -30 -109t-92 -44q-123 0 -123 140z" />
    <glyph glyph-name="seven" unicode="7" horiz-adv-x="441" 
d="M5 637h435v-21q-98 -125 -153.5 -268t-62.5 -348h-102q3 49 9 93t18 85t19.5 69.5t27 65.5t27 54t33.5 54t32.5 46t37.5 48.5t35 45.5h-278q-26 0 -33.5 -17t-2.5 -59l-26 -3l-9 91z" />
    <glyph glyph-name="eight" unicode="8" horiz-adv-x="520" 
d="M40 176q0 67 43 111.5t113 57.5q-133 33 -133 141q0 66 49.5 113.5t147.5 47.5q97 0 147 -48t50 -113q0 -110 -134 -141q75 -14 116 -57.5t41 -111.5q0 -90 -62 -136.5t-158 -46.5q-97 0 -158.5 46.5t-61.5 136.5zM144 180q0 -61 29 -95t87 -34t87 34.5t29 94.5
q0 64 -26 103t-86 64q89 52 89 149q0 103 -93 103q-94 0 -94 -103q0 -54 22.5 -88.5t67.5 -60.5q-112 -51 -112 -167z" />
    <glyph glyph-name="nine" unicode="9" horiz-adv-x="530" 
d="M247 51q-38 0 -65 20.5t-27 56.5q0 8 3 32l-107 9q-1 -7 -1 -21q0 -70 51.5 -112.5t145.5 -42.5q116 0 178.5 92.5t62.5 264.5q0 297 -234 297q-102 0 -159 -61t-57 -158q0 -93 53.5 -144t134.5 -51q53 0 95.5 28t65.5 73q-2 -156 -36 -219.5t-104 -63.5zM387 449
q0 -69 -33 -113t-99 -44q-54 0 -83.5 39t-29.5 105q0 65 30 109t92 44q123 0 123 -140z" />
    <glyph glyph-name="colon" unicode=":" horiz-adv-x="184" 
d="M21 318l71 71l72 -71l-72 -72zM21 56l71 71l72 -71l-72 -72z" />
    <glyph glyph-name="semicolon" unicode=";" horiz-adv-x="184" 
d="M21 318l71 71l72 -71l-72 -72zM21 56l71 71l72 -71l-65 -187h-7v115z" />
    <glyph glyph-name="less" unicode="&#x3c;" horiz-adv-x="382" 
d="M30 244l322 181v-64l-254 -117l254 -116v-65z" />
    <glyph glyph-name="equal" unicode="=" horiz-adv-x="320" 
d="M30 280v56h260v-56h-260zM30 157v56h260v-56h-260z" />
    <glyph glyph-name="greater" unicode="&#x3e;" horiz-adv-x="382" 
d="M352 244l-322 -181v65l254 116l-254 117v64z" />
    <glyph glyph-name="question" unicode="?" horiz-adv-x="523" 
d="M264 647q100 0 154 -49t54 -116q0 -76 -63 -126.5t-149 -54.5l47 -20l-61 -121h-3l-34 163l24 2q56 6 95.5 43.5t39.5 111.5q0 50 -26.5 79.5t-75.5 29.5q-46 0 -76 -26t-30 -77q0 -43 24 -78l-116 -10q-17 36 -17 81q0 66 60 117t153 51zM173 56l72 71l71 -71l-71 -72z
" />
    <glyph glyph-name="at" unicode="@" horiz-adv-x="873" 
d="M480 -165q-450 40 -450 397q0 184 113 300.5t294 116.5q182 0 294 -110.5t112 -293.5q0 -21 -2 -41l-319 -188v140h-1q-27 -121 -128 -121q-121 0 -121 140q0 41 14 75l232 26v14q0 126 -82 126q-35 0 -53 -18.5t-18 -49.5q0 -12 5 -29v-3l-79 -7q-7 18 -7 35
q0 50 43 82.5t114 32.5q44 0 75.5 -13t47.5 -30.5t25 -47t10.5 -51t1.5 -53.5v-158l160 84q3 49 3 67q0 345 -327 345q-157 0 -241.5 -101t-84.5 -259q0 -70 18 -126.5t57.5 -105.5t111 -81.5t172.5 -46.5l359 191l10 -18zM414 85q39 0 68 41.5t35 122.5l-153 -31
q-9 -21 -9 -53q0 -80 59 -80z" />
    <glyph glyph-name="A" unicode="A" horiz-adv-x="615" 
d="M535 67q7 -24 25 -32.5t49 -8.5v-26h-243v26q47 0 61.5 8t7.5 33l-33 117h-215l-33 -117q-7 -25 7.5 -33t61.5 -8v-26h-215v26q31 0 49 8.5t25 32.5l144 503q7 25 -7.5 33t-61.5 8v26h216zM203 240h183l-91 321z" />
    <glyph glyph-name="B" unicode="B" horiz-adv-x="571" 
d="M366 351q38 -4 65.5 -11t57.5 -24.5t46 -51.5t16 -84q0 -78 -57.5 -129t-162.5 -51h-291v26q29 0 42 9t13 35v497q0 26 -13 35t-42 9v26h274q98 0 150 -38.5t52 -109.5q0 -69 -39 -99t-111 -39zM290 581h-95v-212h95q60 0 91 28.5t31 77.5q0 55 -26 80.5t-96 25.5z
M307 56q140 0 140 131q0 66 -40.5 97t-126.5 31h-85v-259h112z" />
    <glyph glyph-name="C" unicode="C" horiz-adv-x="596" 
d="M349 68q78 0 124 37.5t60 89.5l25 -5q-32 -197 -239 -197q-135 0 -208 89t-73 246q0 146 75 232.5t205 86.5q235 0 235 -251v-20l-113 11q12 43 12 84q0 62 -33 91.5t-89 29.5q-82 0 -137 -61.5t-55 -202.5q0 -121 56.5 -190.5t154.5 -69.5z" />
    <glyph glyph-name="D" unicode="D" horiz-adv-x="621" 
d="M251 637q158 0 245 -80t87 -236q0 -157 -87 -239t-245 -82h-211v26q29 0 42 9t13 35v497q0 26 -13 35t-42 9v26h211zM239 56q122 0 181 63.5t59 201.5q0 137 -58.5 198.5t-181.5 61.5h-44v-525h44z" />
    <glyph glyph-name="E" unicode="E" horiz-adv-x="585" 
d="M538 152l25 -8l-31 -101l-13 -43h-479v26q29 0 42 9t13 35v497q0 26 -13 35t-42 9v26h474l8 -42l21 -105l-26 -5q-10 50 -23 73t-39 23h-260v-223h194q26 0 35 10.5t9 35.5h26v-147h-26q0 25 -9 35.5t-35 10.5h-194v-247h271q25 0 41 23.5t31 72.5z" />
    <glyph glyph-name="F" unicode="F" horiz-adv-x="567" 
d="M531 595l22 -104l-25 -6q-10 50 -24 73t-40 23h-269v-227h194q26 0 35 10.5t9 35.5h26v-147h-26q0 25 -9 35.5t-35 10.5h-194v-229q0 -26 13 -35t42 -9v-26h-210v26q29 0 42 9t13 35v497q0 26 -13 35t-42 9v26h482z" />
    <glyph glyph-name="G" unicode="G" horiz-adv-x="642" 
d="M319 -7q-135 0 -208 89t-73 246q0 145 79 232t210 87q69 0 119 -20t75.5 -54.5t36.5 -72.5t11 -82v-17l-113 10q12 37 12 72q0 52 -34.5 80.5t-92.5 28.5q-88 0 -145.5 -61.5t-57.5 -202.5q0 -121 57 -194.5t154 -73.5q81 0 134 30l11 72q5 36 -17 57t-71 28l-142 19v21
h321l-1 -104q0 -31 10 -42q-36 -67 -106 -107.5t-169 -40.5z" />
    <glyph glyph-name="H" unicode="H" horiz-adv-x="673" 
d="M633 611q-29 0 -42 -9t-13 -35v-497q0 -26 13 -35t42 -9v-26h-210v26q29 0 42 9t13 35v251h-283v-251q0 -26 13 -35t42 -9v-26h-210v26q29 0 42 9t13 35v497q0 26 -13 35t-42 9v26h210v-26q-29 0 -42 -9t-13 -35v-190h283v190q0 26 -13 35t-42 9v26h210v-26z" />
    <glyph glyph-name="I" unicode="I" horiz-adv-x="308" 
d="M204 70q0 -26 16 -35t53 -9v-26h-238v26q37 0 53 9t16 35v497q0 26 -16 35t-53 9v26h238v-26q-37 0 -53 -9t-16 -35v-497z" />
    <glyph glyph-name="J" unicode="J" horiz-adv-x="510" 
d="M460 637v-404q0 -240 -216 -240q-62 0 -107.5 21t-70 58t-35.5 79.5t-11 92.5v19l114 -11q-13 -43 -13 -80q0 -59 32.5 -91.5t87.5 -32.5q62 0 90.5 37.5t28.5 130.5v365h-145q-26 0 -35 -17t-9 -57h-26q0 77 -25 130h340z" />
    <glyph glyph-name="K" unicode="K" horiz-adv-x="651" 
d="M554 57q14 -20 37 -25.5t59 -5.5v-26h-258v26q58 0 61 8q2 6 -10 23l-171 241l-77 -99v-129q0 -26 13 -35t42 -9v-26h-210v26q29 0 42 9t13 35v497q0 26 -13 35t-42 9v26h210v-26q-29 0 -42 -9t-13 -35v-262l214 277q17 21 6 26q-10 3 -55 3v26h251v-26q-33 0 -49.5 -1
t-37 -7.5t-30.5 -20.5l-205 -262l81 -6z" />
    <glyph glyph-name="L" unicode="L" horiz-adv-x="501" 
d="M458 152l25 -6l-25 -104l-11 -42h-407v26q29 0 42 9t13 35v497q0 26 -13 35t-42 9v26h210v-26q-29 0 -42 -9t-13 -35v-511h196q25 0 40 23t27 73z" />
    <glyph glyph-name="M" unicode="M" horiz-adv-x="889" 
d="M809 69q4 -25 19.5 -34t45.5 -9v-26h-226v26q39 0 53.5 8.5t10.5 34.5l-67 464l-165 -533h-100l-168 533l-64 -464q-3 -26 11.5 -34.5t53.5 -8.5v-26h-198v26q30 0 45.5 9t18.5 34l69 499q3 26 -7 34.5t-39 8.5v26h175l169 -545q3 63 25 126l145 419h166v-26
q-29 0 -39 -8.5t-6 -34.5z" />
    <glyph glyph-name="N" unicode="N" horiz-adv-x="694" 
d="M654 611q-29 0 -42 -9t-13 -35v-497q0 -26 13 -35t42 -9v-26h-182l-309 551v-481q0 -26 21 -35t71 -9v-26h-215v26q29 0 42 9t13 35v497q0 26 -13 35t-42 9v26h181l310 -552v482q0 26 -21 35t-71 9v26h215v-26z" />
    <glyph glyph-name="O" unicode="O" horiz-adv-x="646" 
d="M323 647q138 0 211.5 -89t73.5 -233q0 -145 -74 -238.5t-211 -93.5t-211 93.5t-74 238.5q0 144 73.5 233t211.5 89zM323 48q85 0 133 71.5t48 205.5q0 133 -48 200t-133 67t-133 -67t-48 -200q0 -134 48 -205.5t133 -71.5z" />
    <glyph glyph-name="P" unicode="P" horiz-adv-x="518" 
d="M321 637q88 0 138.5 -43.5t50.5 -115.5q0 -78 -53 -127t-138 -49q-94 0 -124 62v-294q0 -26 13 -35t42 -9v-26h-210v26q29 0 42 9t13 35v497q0 26 -13 35t-42 9v26h281zM299 354q54 0 81 36t27 85q0 106 -110 106h-102v-120q0 -50 26 -78.5t78 -28.5z" />
    <glyph glyph-name="Q" unicode="Q" horiz-adv-x="651" 
d="M486 40l127 -211l-11 -9l-82 85l-80 110q-52 -22 -115 -22q-137 0 -211 93.5t-74 238.5q0 144 73.5 233t211.5 89t211.5 -89t73.5 -233q0 -93 -31.5 -167.5t-92.5 -117.5zM325 592q-85 0 -131 -64l253 -423q59 73 59 220q0 133 -48 200t-133 67zM325 48q43 0 77 19
l-184 253l-34 193q-40 -68 -40 -188q0 -134 48 -205.5t133 -71.5z" />
    <glyph glyph-name="R" unicode="R" horiz-adv-x="593" 
d="M409 225l174 -206v-19h-203v26q57 0 60 7q3 6 -11 23l-234 306v-292q0 -26 13 -35t42 -9v-26h-210v26q29 0 42 9t13 35v497q0 26 -13 35t-42 9v26h281q89 0 139 -40.5t50 -111.5q0 -73 -51.5 -110.5t-121.5 -37.5q-37 0 -61 8l-2 -5q79 -47 135 -115zM195 481
q0 -46 34 -75t79 -29q49 0 74 27t25 71q0 106 -110 106h-102v-100z" />
    <glyph glyph-name="S" unicode="S" horiz-adv-x="526" 
d="M370 350q72 -25 100 -67.5t28 -105.5q0 -85 -60 -134.5t-171 -49.5q-82 0 -143 29t-94 73v202h21q4 -114 69 -182.5t158 -68.5q62 0 95 28.5t33 77.5q0 38 -19.5 63.5t-66.5 42.5l-137 48q-74 26 -105.5 65.5t-31.5 100.5q0 74 58 124.5t166 50.5q125 0 200 -67l10 -172
h-21q-13 95 -62.5 140.5t-120.5 45.5q-72 0 -106 -28.5t-34 -70.5q0 -32 18.5 -53t61.5 -37z" />
    <glyph glyph-name="T" unicode="T" horiz-adv-x="559" 
d="M544 595l9 -106l-26 -2q-4 49 -15 71.5t-37 22.5h-145v-511q0 -26 16 -35t53 -9v-26h-238v26q37 0 53 9t16 35v511h-145q-26 0 -37 -22t-17 -73l-25 3l10 106l6 55q24 -13 73 -13h371q48 0 73 13z" />
    <glyph glyph-name="U" unicode="U" horiz-adv-x="617" 
d="M230 638v-26q-29 0 -42 -9t-13 -35v-331q0 -187 150 -187q149 0 149 173v344q0 26 -17 35t-57 9v26h197v-26q-29 0 -42 -9t-13 -35v-345q0 -230 -217 -230q-124 0 -187 57t-63 186v333q0 26 -13 35t-42 9v26h210z" />
    <glyph glyph-name="V" unicode="V" horiz-adv-x="648" 
d="M647 637v-26q-64 0 -77 -40l-192 -571h-107l-192 571q-13 40 -77 40v26h155l187 -557q8 77 27 131l129 360q9 25 -13.5 32.5t-91.5 7.5v26h252z" />
    <glyph glyph-name="W" unicode="W" horiz-adv-x="1058" 
d="M1057 637v-26q-31 0 -49.5 -8.5t-25.5 -32.5l-174 -570h-132l-142 456q-9 -74 -35 -146l-111 -310h-137l-174 570q-7 24 -25.5 32.5t-49.5 8.5v26h210v-26q-28 0 -35 -7.5t0 -33.5l159 -522l174 486l-11 36q-8 24 -30.5 32.5t-64.5 8.5v26h175l179 -578l155 511
q7 25 -4 33t-50 8v26h198z" />
    <glyph glyph-name="X" unicode="X" horiz-adv-x="685" 
d="M559 59q13 -21 39 -27t72 -6v-26h-232v26q27 0 30 5t-12 28l-131 208l-138 -209q-13 -22 -4.5 -27t57.5 -5v-26h-225v26q73 0 94 32l178 270l-157 250q-20 33 -92 33v26h158l154 -244l122 186q13 23 4.5 27.5t-57.5 4.5v26h226v-26q-73 0 -94 -32l-163 -248z" />
    <glyph glyph-name="Y" unicode="Y" horiz-adv-x="611" 
d="M609 637v-26q-69 0 -89 -35l-170 -311v-195q0 -26 16 -35t53 -9v-26h-239v26q37 0 53 9t16 35v189l-157 315q-18 37 -86 37v26h159l150 -308l131 246q11 24 0.5 30t-59.5 6v26h222z" />
    <glyph glyph-name="Z" unicode="Z" horiz-adv-x="619" 
d="M572 197l25 -5l-33 -149l-13 -56q-15 13 -47 13h-464v9l343 497q34 51 63 78l-309 -8q-26 -1 -38.5 -27t-19.5 -83l-25 3l15 121l6 47h503v-11l-329 -461q-6 -9 -22.5 -32t-23.5 -32.5t-18.5 -23.5t-21.5 -24l335 8q25 1 41.5 33t32.5 103z" />
    <glyph glyph-name="bracketleft" unicode="[" horiz-adv-x="256" 
d="M236 658l-155 -9v-698l155 -9v-29h-216v775h216v-30z" />
    <glyph glyph-name="backslash" unicode="\" horiz-adv-x="309" 
d="M292 0h-65l-231 637h65z" />
    <glyph glyph-name="bracketright" unicode="]" horiz-adv-x="256" 
d="M236 688v-775h-216v29l155 9v698l-155 9v30h216z" />
    <glyph glyph-name="asciicircum" unicode="^" horiz-adv-x="361" 
d="M30 420l144 278h22l135 -278h-57l-89 217l-99 -217h-56z" />
    <glyph glyph-name="underscore" unicode="_" horiz-adv-x="320" 
d="M30 0h260v-56h-260v56z" />
    <glyph glyph-name="grave" unicode="`" horiz-adv-x="205" 
d="M3 600l54 64q21 -48 46.5 -83.5t70.5 -66.5l-5 -10q-97 19 -166 96z" />
    <glyph glyph-name="a" unicode="a" horiz-adv-x="458" 
d="M390 70q0 -26 10.5 -35t35.5 -9v-26h-130v127h-3q-27 -134 -139 -134q-134 0 -134 154q0 48 15 83l256 28v17q0 138 -90 138q-38 0 -58 -20.5t-20 -53.5q0 -15 5 -33v-3l-87 -8q-8 24 -8 39q0 55 47.5 91t125.5 36q48 0 82 -14.5t51.5 -34t27 -52t11.5 -56t2 -58.5v-176z
M187 48q43 0 74.5 46t37.5 135l-168 -34q-9 -23 -9 -59q0 -40 16.5 -64t48.5 -24z" />
    <glyph glyph-name="b" unicode="b" horiz-adv-x="527" 
d="M320 461q182 0 182 -234t-182 -234q-54 0 -93 30.5t-53 73.5v-97h-142v26q25 0 35.5 9t10.5 35v497q0 26 -10.5 35t-35.5 9v26h142v-273q13 40 52 68.5t94 28.5zM295 41q42 0 66 26t31.5 64t7.5 96q0 88 -23 137t-82 49q-50 0 -85.5 -43t-35.5 -143t35.5 -143t85.5 -43z
" />
    <glyph glyph-name="c" unicode="c" horiz-adv-x="456" 
d="M321 269q6 31 6 57q0 87 -84 87q-57 0 -89 -47t-32 -135q0 -89 39 -136.5t110 -47.5q95 0 135 88l20 -8q-7 -22 -19 -42t-32 -42.5t-53 -36t-74 -13.5q-101 0 -159.5 61t-58.5 172q0 113 59.5 174t157.5 61q86 0 129.5 -41t43.5 -117q0 -19 -3 -42z" />
    <glyph glyph-name="d" unicode="d" horiz-adv-x="532" 
d="M454 70q0 -26 10.5 -35t35.5 -9v-26h-142v97q-14 -43 -53 -73.5t-93 -30.5q-182 0 -182 234t182 234q55 0 94 -28.5t52 -68.5v203q0 26 -10.5 35t-35.5 9v26h142v-567zM237 41q50 0 85.5 43t35.5 143t-35.5 143t-85.5 43q-59 0 -82 -49t-23 -137q0 -58 7.5 -96t31.5 -64
t66 -26z" />
    <glyph glyph-name="e" unicode="e" horiz-adv-x="456" 
d="M406 135l20 -8q-7 -22 -18.5 -42t-31.5 -42.5t-52.5 -36t-73.5 -13.5q-102 0 -161 60.5t-59 175.5q0 113 55.5 172.5t152.5 59.5q88 0 135.5 -47.5t47.5 -131.5q0 -33 -2 -49l-297 -9q2 -85 41.5 -130t109.5 -45q91 0 133 86zM241 413q-110 0 -118 -156l203 16q5 22 5 44
q0 40 -24.5 68t-65.5 28z" />
    <glyph glyph-name="f" unicode="f" horiz-adv-x="353" 
d="M188 435l80 17h78v-56h-158v-326q0 -26 10.5 -35t35.5 -9v-26h-188v26q25 0 35.5 9t10.5 35v319l-72 17v46h72v21q0 86 50 130t138 44q95 0 137 -73l-93 -64l-7 7q8 13 8 32q0 23 -14 38.5t-41 15.5q-82 0 -82 -113v-55z" />
    <glyph glyph-name="g" unicode="g" horiz-adv-x="476" 
d="M444 452v-19l-91 -30q46 -38 46 -105q0 -66 -49 -110.5t-133 -44.5q-39 0 -68 10l-35 -30q17 -20 79 -25l114 -8q62 -5 97.5 -34t35.5 -81q0 -62 -51 -103t-159 -41q-110 0 -163 41t-44 107l98 52q-40 7 -61.5 35.5t-15.5 69.5l78 27q-41 20 -63.5 57t-22.5 82
q0 68 48.5 113.5t132.5 45.5q37 0 65 -9h162zM219 190q84 0 84 112t-84 112t-84 -112t84 -112zM273 20l-118 8l-56 -54q-10 -42 22 -71.5t110 -29.5q62 0 93.5 23t31.5 58q0 60 -83 66z" />
    <glyph glyph-name="h" unicode="h" horiz-adv-x="530" 
d="M454 70q0 -26 10.5 -35t35.5 -9v-26h-188v26q25 0 35.5 9t10.5 35v207q0 69 -15 99t-57 30q-49 0 -80.5 -52t-31.5 -174v-110q0 -26 10.5 -35t35.5 -9v-26h-188v26q25 0 35.5 9t10.5 35v497q0 26 -10.5 35t-35.5 9v26h142v-306h2q7 55 42 92.5t97 37.5q139 0 139 -166
v-225z" />
    <glyph glyph-name="i" unicode="i" horiz-adv-x="248" 
d="M51 596l71 71l72 -71l-72 -72zM172 70q0 -26 10.5 -35t35.5 -9v-26h-188v26q25 0 35.5 9t10.5 35v312q0 26 -10.5 35t-35.5 9v26h142v-382z" />
    <glyph glyph-name="j" unicode="j" horiz-adv-x="219" 
d="M44 596l71 71l72 -71l-72 -72zM164 452v-475l-102 -241h-14l20 264v382q0 26 -10.5 35t-35.5 9v26h142z" />
    <glyph glyph-name="k" unicode="k" horiz-adv-x="515" 
d="M430 59q21 -33 77 -33v-26h-135l-145 212l-53 -58v-84q0 -26 10.5 -35t35.5 -9v-26h-188v26q25 0 35.5 9t10.5 35v497q0 26 -10.5 35t-35.5 9v26h142v-408l156 171q18 20 10 23t-55 3v26h206v-26q-70 0 -103 -36l-142 -156l71 -3z" />
    <glyph glyph-name="l" unicode="l" horiz-adv-x="252" 
d="M174 70q0 -26 10.5 -35t35.5 -9v-26h-188v26q25 0 35.5 9t10.5 35v497q0 26 -10.5 35t-35.5 9v26h142v-567z" />
    <glyph glyph-name="m" unicode="m" horiz-adv-x="806" 
d="M730 70q0 -26 10.5 -35t35.5 -9v-26h-188v26q25 0 35.5 9t10.5 35v207q0 69 -15 99t-57 30q-49 0 -80.5 -52t-31.5 -174v-110q0 -26 10.5 -35t35.5 -9v-26h-188v26q25 0 35.5 9t10.5 35v207q0 68 -15 98.5t-57 30.5q-106 0 -106 -226v-110q0 -26 10.5 -35t35.5 -9v-26
h-188v26q25 0 35.5 9t10.5 35v312q0 26 -10.5 35t-35.5 9v26h142v-117h2q6 50 39.5 88t98.5 38q118 0 132 -130h4q7 55 42 92.5t97 37.5q139 0 139 -166v-225z" />
    <glyph glyph-name="n" unicode="n" horiz-adv-x="532" 
d="M456 70q0 -26 10.5 -35t35.5 -9v-26h-188v26q25 0 35.5 9t10.5 35v207q0 69 -15 99t-57 30q-49 0 -80.5 -52t-31.5 -174v-110q0 -26 10.5 -35t35.5 -9v-26h-188v26q25 0 35.5 9t10.5 35v312q0 26 -10.5 35t-35.5 9v26h142v-121h2q7 55 42 92.5t97 37.5q139 0 139 -166
v-225z" />
    <glyph glyph-name="o" unicode="o" horiz-adv-x="492" 
d="M246 461q102 0 159 -63t57 -171t-57 -171t-159 -63t-159 63t-57 171t57 171t159 63zM246 41q114 0 114 186t-114 186t-114 -186t114 -186z" />
    <glyph glyph-name="p" unicode="p" horiz-adv-x="504" 
d="M297 461q182 0 182 -234t-182 -234q-54 0 -93 30.5t-53 73.5v-291h-142v26q25 0 35.5 9t10.5 35v506q0 26 -10.5 35t-35.5 9v26h142v-88q13 40 52 68.5t94 28.5zM272 41q42 0 66 26t31.5 64t7.5 96q0 88 -23 137t-82 49q-50 0 -85.5 -43t-35.5 -143t35.5 -143t85.5 -43z
" />
    <glyph glyph-name="q" unicode="q" horiz-adv-x="504" 
d="M495 426q-25 0 -35.5 -9t-10.5 -35v-506q0 -26 10.5 -35t35.5 -9v-26h-142v291q-14 -43 -53 -73.5t-93 -30.5q-182 0 -182 234t182 234q55 0 94 -28.5t52 -68.5v88h142v-26zM232 41q50 0 85.5 43t35.5 143t-35.5 143t-85.5 43q-59 0 -82 -49t-23 -137q0 -58 7.5 -96
t31.5 -64t66 -26z" />
    <glyph glyph-name="r" unicode="r" horiz-adv-x="403" 
d="M311 458q61 0 87 -40l-33 -92l-11 3q1 22 -16 39t-46 17q-116 0 -116 -251v-64q0 -26 10.5 -35t35.5 -9v-26h-188v26q25 0 35.5 9t10.5 35v312q0 26 -10.5 35t-35.5 9v26h142v-160h2q29 166 133 166z" />
    <glyph glyph-name="s" unicode="s" horiz-adv-x="401" 
d="M265 262q110 -30 110 -135q0 -134 -175 -134q-119 0 -175 72v125h17q29 -149 155 -149q43 0 67.5 20t24.5 57q0 53 -64 70l-89 23q-101 26 -101 112q0 60 46 99t127 39q89 0 145 -48l10 -118l-17 -2q-44 120 -138 120q-37 0 -62 -19t-25 -49q0 -24 13.5 -37.5t53.5 -24.5
z" />
    <glyph glyph-name="t" unicode="t" horiz-adv-x="370" 
d="M345 396h-159v-266q0 -36 18 -56t50 -20q55 0 64 75h20q-3 -136 -122 -136q-61 0 -93.5 37t-32.5 106v260h-74v39q67 9 98.5 47t37.5 109h34v-156l81 17h78v-56z" />
    <glyph glyph-name="u" unicode="u" horiz-adv-x="505" 
d="M427 70q0 -26 10.5 -35t35.5 -9v-26h-142v105q-11 -48 -46 -80t-92 -32q-71 0 -105 38t-34 118v233q0 26 -10.5 35t-35.5 9v26h142v-275q0 -69 15 -99t57 -30q109 0 109 226v108q0 26 -10.5 35t-35.5 9v26h142v-382z" />
    <glyph glyph-name="v" unicode="v" horiz-adv-x="472" 
d="M466 452v-26q-54 0 -64 -42l-103 -384h-119l-107 385q-7 24 -23 32.5t-42 8.5v26h143l107 -388l84 320q7 26 -7.5 34t-60.5 8v26h192z" />
    <glyph glyph-name="w" unicode="w" horiz-adv-x="766" 
d="M760 452v-26q-52 0 -64 -42l-100 -384h-127l-73 237l-91 -237h-127l-104 384q-10 42 -64 42v26h142l108 -405l109 279l-18 59q-12 41 -66 41v26h142l123 -402l86 334q7 25 -7.5 33.5t-58.5 8.5v26h190z" />
    <glyph glyph-name="x" unicode="x" horiz-adv-x="491" 
d="M481 426q-64 0 -85 -32l-104 -157l106 -177q21 -34 82 -34v-26h-153l-98 164l-69 -106q-14 -22 -7 -27t51 -5v-26h-194v26q63 0 85 32l103 158l-105 176q-21 34 -82 34v26h152l98 -163l69 105q14 22 7 27t-51 5v26h195v-26z" />
    <glyph glyph-name="y" unicode="y" horiz-adv-x="525" 
d="M519 452v-26q-54 0 -68 -41l-152 -467q-23 -73 -52 -97.5t-80 -24.5q-70 0 -102 38t-25 97l86 -7q-4 -38 11 -57.5t38 -19.5t37 15t27 56l27 82h-60l-125 385q-14 41 -68 41v26h147l126 -389l105 322q9 25 -8 33t-72 8v26h208z" />
    <glyph glyph-name="z" unicode="z" horiz-adv-x="504" 
d="M234 117q-35 -48 -60 -68l197 9q26 1 39.5 29t24.5 89l26 -5l-23 -127l-10 -55q-25 11 -65 11h-331q28 21 58 62l206 291q30 40 50 58l-224 -12q-26 -1 -38.5 -25t-20.5 -74l-26 4l17 105l9 54q21 -11 60 -11h338v-15z" />
    <glyph glyph-name="braceleft" unicode="{" horiz-adv-x="294" 
d="M20 290v30q29 2 53.5 21t24.5 57v36q0 197 171 265l5 -11q-22 -12 -38.5 -26.5t-27.5 -27.5t-18 -36t-11 -38t-6 -48.5t-2 -52v-63.5q0 -43 -18 -60.5t-55 -25.5v-12q37 -6 55 -24t18 -61q0 -142 18.5 -203t84.5 -97l-5 -12q-92 38 -131.5 104.5t-39.5 169.5v37
q0 35 -25.5 56t-52.5 22z" />
    <glyph glyph-name="bar" unicode="|" horiz-adv-x="99" 
d="M69 697v-797h-39v797h39z" />
    <glyph glyph-name="braceright" unicode="}" horiz-adv-x="294" 
d="M274 290q-27 -1 -52.5 -22t-25.5 -56v-37q0 -103 -39.5 -169.5t-131.5 -104.5l-5 12q66 36 84.5 97t18.5 203q0 43 18 61t55 24v12q-37 8 -55 25.5t-18 60.5v63.5t-2 52t-6 48.5t-11 38t-18 36t-27.5 27.5t-38.5 26.5l5 11q171 -68 171 -265v-36q0 -38 24.5 -57t53.5 -21
v-30z" />
    <glyph glyph-name="asciitilde" unicode="~" horiz-adv-x="291" 
d="M30 215q39 62 77 62q20 0 49 -10t45 -10t51 19l9 -12q-43 -51 -78 -51q-20 0 -48.5 10t-44.5 10q-26 0 -52 -26z" />
    <glyph glyph-name="uni00A0" unicode="&#xa0;" horiz-adv-x="222" 
 />
    <glyph glyph-name="exclamdown" unicode="&#xa1;" horiz-adv-x="246" 
d="M51 396l72 72l71 -72l-71 -71zM126 295l51 -433l-55 -56l-56 56l52 433h8z" />
    <glyph glyph-name="cent" unicode="&#xa2;" horiz-adv-x="326" 
d="M282 242l14 -5q-31 -90 -120 -90q-18 0 -33 3l-11 -53l-21 2l11 56q-92 29 -92 148q0 78 39.5 118t106.5 40h7l11 58l22 -2l-12 -58q43 -7 65.5 -35t22.5 -72q0 -7 -2 -29l-65 6q4 19 4 38q0 44 -31 58l-46 -229q17 -7 40 -7q67 0 90 53zM92 310q0 -74 40 -103l44 222h-3
q-38 0 -59.5 -30.5t-21.5 -88.5z" />
    <glyph glyph-name="sterling" unicode="&#xa3;" horiz-adv-x="581" 
d="M526 152l25 -6l-25 -104l-11 -42h-485v53q52 31 73.5 76.5t21.5 110.5q0 19 -4 59h-91v39h85q-13 89 -13 123q0 80 52 133t162 53q74 0 127.5 -30.5t93.5 -97.5l-88 -61q-10 133 -128 133q-56 0 -87.5 -31t-31.5 -85q0 -34 14 -137h209v-39h-203q3 -25 3 -47
q0 -115 -90 -196h324q25 0 40 23t27 73z" />
    <glyph glyph-name="yen" unicode="&#xa5;" horiz-adv-x="663" 
d="M613 637v-26q-69 0 -89 -35l-159 -290h128v-39h-139v-42h139v-39h-139v-96q0 -26 16 -35t53 -9v-26h-239v26q37 0 53 9t16 35v96h-122v39h122v42h-122v39h109l-144 288q-18 37 -86 37v26h159l150 -308l131 246q11 24 0.5 30t-59.5 6v26h222z" />
    <glyph glyph-name="brokenbar" unicode="&#xa6;" horiz-adv-x="99" 
d="M30 417v280h39v-280h-39zM30 -100v281h39v-281h-39z" />
    <glyph glyph-name="section" unicode="&#xa7;" horiz-adv-x="425" 
d="M213 -107q-130 0 -183 78v157h17q1 -89 46.5 -141.5t116.5 -52.5q55 0 83 21.5t28 58.5q0 33 -17.5 52.5t-56.5 33.5l-99 34q-57 20 -81 50.5t-24 78.5q0 45 30.5 76t97.5 37l-37 15q-88 35 -88 122q0 57 44.5 96t128.5 39q96 0 154 -52l8 -133h-17q-9 73 -47.5 108.5
t-93.5 35.5q-51 0 -79.5 -23t-28.5 -53q0 -48 62 -70l101 -36q117 -43 117 -146q0 -101 -99 -112q96 -41 96 -138q0 -136 -179 -136zM244 186q39 6 59.5 26.5t20.5 51.5q0 33 -17 52.5t-57 33.5l-30 11q-108 0 -108 -80q0 -48 62 -70z" />
    <glyph glyph-name="dieresis" unicode="&#xa8;" horiz-adv-x="350" 
d="M92 523l-72 73l72 71l71 -71zM259 523l-72 73l72 71l71 -71z" />
    <glyph glyph-name="copyright" unicode="&#xa9;" horiz-adv-x="854" 
d="M422 -156q-164 0 -278 115.5t-114 287.5t114 287t278 115q165 0 283.5 -115.5t118.5 -286.5t-118.5 -287t-283.5 -116zM422 -109q144 0 232.5 93t88.5 263t-88.5 262.5t-232.5 92.5q-142 0 -226.5 -92t-84.5 -263q0 -172 84.5 -264t226.5 -92zM499 284q6 28 6 51
q0 78 -76 78q-51 0 -79.5 -40.5t-28.5 -117.5q0 -80 35 -121t98 -41q89 0 121 71l18 -7q-9 -27 -24 -51t-51 -46.5t-84 -22.5q-91 0 -143 53t-52 156q0 104 52.5 157t141.5 53q77 0 116 -36.5t39 -104.5q0 -19 -3 -38z" />
    <glyph glyph-name="guillemotleft" unicode="&#xab;" horiz-adv-x="511" 
d="M30 244l266 207v-75l-189 -132l189 -131v-75zM215 244l266 207v-75l-189 -132l189 -131v-75z" />
    <glyph glyph-name="logicalnot" unicode="&#xac;" horiz-adv-x="370" 
d="M281 148v71h-251v57h310v-128h-59z" />
    <glyph glyph-name="registered" unicode="&#xae;" horiz-adv-x="438" 
d="M217 649q80 0 139.5 -54.5t59.5 -136.5q0 -83 -59.5 -137.5t-139.5 -54.5t-137.5 54.5t-57.5 137.5q0 82 57.5 136.5t137.5 54.5zM217 291q71 0 114.5 46.5t43.5 120.5q0 73 -43.5 119.5t-114.5 46.5q-69 0 -111.5 -46.5t-42.5 -119.5q0 -74 42.5 -120.5t111.5 -46.5z
M219 467q21 -12 42 -35l53 -64v-6h-63v8q19 0 19 3q0 2 -3 6l-73 96v-91q0 -14 17 -14v-8h-65v8q17 0 17 14v153q0 14 -17 14v8h87q28 0 43.5 -12.5t15.5 -34.5t-16 -34t-38 -12q-10 0 -19 3v-2zM194 511q0 -14 10.5 -23t24.5 -9q31 0 31 30q0 33 -34 33h-32v-31z" />
    <glyph glyph-name="macron" unicode="&#xaf;" horiz-adv-x="281" 
d="M-8 570h297v-39h-297v39z" />
    <glyph glyph-name="degree" unicode="&#xb0;" horiz-adv-x="285" 
d="M143 422q-47 0 -80 33t-33 80t33 79.5t80 32.5t79.5 -32.5t32.5 -79.5t-32.5 -80t-79.5 -33zM143 473q26 0 42.5 17t16.5 45q0 27 -16.5 44t-42.5 17q-27 0 -43.5 -17t-16.5 -44q0 -28 16.5 -45t43.5 -17z" />
    <glyph glyph-name="plusminus" unicode="&#xb1;" horiz-adv-x="385" 
d="M355 224h-133v-125h133v-36h-325v36h133v125h-133v56h133v131h59v-131h133v-56z" />
    <glyph glyph-name="acute" unicode="&#xb4;" horiz-adv-x="205" 
d="M162 600q-69 -77 -166 -96l-5 10q45 31 70.5 66.5t46.5 83.5z" />
    <glyph glyph-name="paragraph" unicode="&#xb6;" horiz-adv-x="446" 
d="M60 518q0 73 47 116.5t117 43.5h52v-778h-52v456q-72 4 -118 46t-46 116zM334 678h52v-778h-52v778z" />
    <glyph glyph-name="periodcentered" unicode="&#xb7;" horiz-adv-x="246" 
d="M33 234l71 71l72 -71l-72 -72z" />
    <glyph glyph-name="cedilla" unicode="&#xb8;" horiz-adv-x="205" 
d="M131 -53q27 0 46 -16.5t19 -49.5q0 -37 -23 -59t-62 -22q-36 0 -57.5 19t-21.5 46q0 20 6 34l53 -9q-8 -14 -8 -28q0 -11 8.5 -18t20.5 -7q18 0 26 11.5t8 25.5q0 52 -56 52q-18 0 -34 -3l38 85h69l-55 -64q9 3 23 3z" />
    <glyph glyph-name="guillemotright" unicode="&#xbb;" horiz-adv-x="511" 
d="M296 244l-266 -206v75l189 131l-189 132v75zM481 244l-266 -206v75l189 131l-189 132v75z" />
    <glyph glyph-name="questiondown" unicode="&#xbf;" horiz-adv-x="523" 
d="M350 396l-72 -71l-71 71l71 72zM455 54q17 -36 17 -81q0 -66 -60 -117t-153 -51q-100 0 -154 49t-54 116q0 76 63 126.5t149 54.5l-47 20l61 121h3l34 -163l-24 -2q-56 -6 -95.5 -43.5t-39.5 -111.5q0 -50 26.5 -79.5t75.5 -29.5q46 0 76 26t30 77q0 43 -24 78z" />
    <glyph glyph-name="Agrave" unicode="&#xc0;" horiz-adv-x="615" 
d="M386 685q-54 3 -99 26.5t-69 58.5l54 62q20 -48 46 -80.5t71 -56.5zM535 67q7 -24 25 -32.5t49 -8.5v-26h-243v26q47 0 61.5 8t7.5 33l-33 117h-215l-33 -117q-7 -25 7.5 -33t61.5 -8v-26h-215v26q31 0 49 8.5t25 32.5l144 503q7 25 -7.5 33t-61.5 8v26h216zM203 240h183
l-91 321z" />
    <glyph glyph-name="Aacute" unicode="&#xc1;" horiz-adv-x="615" 
d="M397 770q-24 -35 -69 -58.5t-99 -26.5l-3 10q45 24 71 56.5t46 80.5zM535 67q7 -24 25 -32.5t49 -8.5v-26h-243v26q47 0 61.5 8t7.5 33l-33 117h-215l-33 -117q-7 -25 7.5 -33t61.5 -8v-26h-215v26q31 0 49 8.5t25 32.5l144 503q7 25 -7.5 33t-61.5 8v26h216zM203 240
h183l-91 321z" />
    <glyph glyph-name="Acircumflex" unicode="&#xc2;" horiz-adv-x="615" 
d="M309 741l-37 -57h-84l99 108h44l99 -108h-84zM535 67q7 -24 25 -32.5t49 -8.5v-26h-243v26q47 0 61.5 8t7.5 33l-33 117h-215l-33 -117q-7 -25 7.5 -33t61.5 -8v-26h-215v26q31 0 49 8.5t25 32.5l144 503q7 25 -7.5 33t-61.5 8v26h216zM203 240h183l-91 321z" />
    <glyph glyph-name="Atilde" unicode="&#xc3;" horiz-adv-x="615" 
d="M240 710q-33 0 -65 -26l-11 8q50 62 107 62q26 0 57 -10t52 -10t64 19l12 -12q-54 -51 -109 -51q-25 0 -55.5 10t-51.5 10zM535 67q7 -24 25 -32.5t49 -8.5v-26h-243v26q47 0 61.5 8t7.5 33l-33 117h-215l-33 -117q-7 -25 7.5 -33t61.5 -8v-26h-215v26q31 0 49 8.5
t25 32.5l144 503q7 25 -7.5 33t-61.5 8v26h216zM203 240h183l-91 321z" />
    <glyph glyph-name="Adieresis" unicode="&#xc4;" horiz-adv-x="615" 
d="M297 749l-72 -72l-71 72l71 71zM464 749l-72 -72l-71 72l71 71zM535 67q7 -24 25 -32.5t49 -8.5v-26h-243v26q47 0 61.5 8t7.5 33l-33 117h-215l-33 -117q-7 -25 7.5 -33t61.5 -8v-26h-215v26q31 0 49 8.5t25 32.5l144 503q7 25 -7.5 33t-61.5 8v26h216zM203 240h183
l-91 321z" />
    <glyph glyph-name="Aring" unicode="&#xc5;" horiz-adv-x="615" 
d="M309 681q-24 0 -41 17t-17 41t17 41t41 17t41 -17t17 -41t-17 -41t-41 -17zM309 757q-7 0 -12.5 -5.5t-5.5 -12.5t5.5 -12.5t12.5 -5.5t12.5 5.5t5.5 12.5t-5.5 12.5t-12.5 5.5zM535 67q7 -24 25 -32.5t49 -8.5v-26h-243v26q47 0 61.5 8t7.5 33l-33 117h-215l-33 -117
q-7 -25 7.5 -33t61.5 -8v-26h-215v26q31 0 49 8.5t25 32.5l144 503q7 25 -7.5 33t-61.5 8v26h216zM203 240h183l-91 321z" />
    <glyph glyph-name="AE" unicode="&#xc6;" horiz-adv-x="989" 
d="M942 159l25 -7l-28 -103l-13 -49h-522v26q48 0 68 9t20 35v114h-214l-70 -123q-12 -24 -2.5 -29.5t55.5 -5.5v-26h-211v26q70 0 90 35l292 515q12 24 2.5 29.5t-55.5 5.5v26h555l8 -49l16 -105l-25 -4q-8 50 -20.5 72.5t-38.5 22.5h-282v-216h194q26 0 35 10.5t9 35.5h26
v-147h-26q0 25 -9 35.5t-35 10.5h-194v-240h281q26 0 41 23t28 73zM310 240h182v321z" />
    <glyph glyph-name="Ccedilla" unicode="&#xc7;" horiz-adv-x="596" 
d="M558 190q-31 -189 -224 -197l-42 -49q9 3 23 3q27 0 46 -16.5t19 -49.5q0 -37 -23 -59t-62 -22q-36 0 -57.5 19t-21.5 46q0 20 6 34l53 -9q-8 -14 -8 -28q0 -11 8.5 -18t20.5 -7q18 0 26 11.5t8 25.5q0 52 -56 52q-18 0 -34 -3l33 73q-113 15 -174 102t-61 230
q0 146 75 232.5t205 86.5q235 0 235 -251v-20l-113 11q12 43 12 84q0 62 -33 91.5t-89 29.5q-82 0 -137 -61.5t-55 -202.5q0 -121 56.5 -190.5t154.5 -69.5q78 0 124 37.5t60 89.5z" />
    <glyph glyph-name="Egrave" unicode="&#xc8;" horiz-adv-x="585" 
d="M374 685q-54 3 -99 26.5t-69 58.5l54 62q20 -48 46 -80.5t71 -56.5zM538 152l25 -8l-31 -101l-13 -43h-479v26q29 0 42 9t13 35v497q0 26 -13 35t-42 9v26h474l8 -42l21 -105l-26 -5q-10 50 -23 73t-39 23h-260v-223h194q26 0 35 10.5t9 35.5h26v-147h-26q0 25 -9 35.5
t-35 10.5h-194v-247h271q25 0 41 23.5t31 72.5z" />
    <glyph glyph-name="Eacute" unicode="&#xc9;" horiz-adv-x="585" 
d="M385 770q-24 -35 -69 -58.5t-99 -26.5l-3 10q45 24 71 56.5t46 80.5zM538 152l25 -8l-31 -101l-13 -43h-479v26q29 0 42 9t13 35v497q0 26 -13 35t-42 9v26h474l8 -42l21 -105l-26 -5q-10 50 -23 73t-39 23h-260v-223h194q26 0 35 10.5t9 35.5h26v-147h-26q0 25 -9 35.5
t-35 10.5h-194v-247h271q25 0 41 23.5t31 72.5z" />
    <glyph glyph-name="Ecircumflex" unicode="&#xca;" horiz-adv-x="585" 
d="M297 741l-37 -57h-84l99 108h44l99 -108h-84zM538 152l25 -8l-31 -101l-13 -43h-479v26q29 0 42 9t13 35v497q0 26 -13 35t-42 9v26h474l8 -42l21 -105l-26 -5q-10 50 -23 73t-39 23h-260v-223h194q26 0 35 10.5t9 35.5h26v-147h-26q0 25 -9 35.5t-35 10.5h-194v-247h271
q25 0 41 23.5t31 72.5z" />
    <glyph glyph-name="Edieresis" unicode="&#xcb;" horiz-adv-x="585" 
d="M285 749l-72 -72l-71 72l71 71zM452 749l-72 -72l-71 72l71 71zM538 152l25 -8l-31 -101l-13 -43h-479v26q29 0 42 9t13 35v497q0 26 -13 35t-42 9v26h474l8 -42l21 -105l-26 -5q-10 50 -23 73t-39 23h-260v-223h194q26 0 35 10.5t9 35.5h26v-147h-26q0 25 -9 35.5
t-35 10.5h-194v-247h271q25 0 41 23.5t31 72.5z" />
    <glyph glyph-name="Igrave" unicode="&#xcc;" horiz-adv-x="308" 
d="M63 770l54 62q20 -48 46 -80.5t71 -56.5l-3 -10q-54 3 -99 26.5t-69 58.5zM204 70q0 -26 16 -35t53 -9v-26h-238v26q37 0 53 9t16 35v497q0 26 -16 35t-53 9v26h238v-26q-37 0 -53 -9t-16 -35v-497z" />
    <glyph glyph-name="Iacute" unicode="&#xcd;" horiz-adv-x="308" 
d="M242 770q-24 -35 -69 -58.5t-99 -26.5l-3 10q45 24 71 56.5t46 80.5zM204 70q0 -26 16 -35t53 -9v-26h-238v26q37 0 53 9t16 35v497q0 26 -16 35t-53 9v26h238v-26q-37 0 -53 -9t-16 -35v-497z" />
    <glyph glyph-name="Icircumflex" unicode="&#xce;" horiz-adv-x="308" 
d="M33 684l99 108h44l99 -108h-84l-37 57l-37 -57h-84zM204 70q0 -26 16 -35t53 -9v-26h-238v26q37 0 53 9t16 35v497q0 26 -16 35t-53 9v26h238v-26q-37 0 -53 -9t-16 -35v-497z" />
    <glyph glyph-name="Idieresis" unicode="&#xcf;" horiz-adv-x="308" 
d="M-1 749l71 71l72 -71l-72 -72zM166 749l71 71l72 -71l-72 -72zM204 70q0 -26 16 -35t53 -9v-26h-238v26q37 0 53 9t16 35v497q0 26 -16 35t-53 9v26h238v-26q-37 0 -53 -9t-16 -35v-497z" />
    <glyph glyph-name="Eth" unicode="&#xd0;" horiz-adv-x="621" 
d="M251 637q158 0 245 -80t87 -236q0 -157 -87 -239t-245 -82h-211v26q29 0 42 9t13 35v229h-49v39h49v229q0 26 -13 35t-42 9v26h211zM239 56q122 0 181 63.5t59 201.5q0 137 -58.5 198.5t-181.5 61.5h-44v-243h183v-39h-183v-243h44z" />
    <glyph glyph-name="Ntilde" unicode="&#xd1;" horiz-adv-x="694" 
d="M278 710q-33 0 -65 -26l-11 8q50 62 107 62q26 0 57 -10t52 -10t64 19l12 -12q-54 -51 -109 -51q-25 0 -55.5 10t-51.5 10zM654 611q-29 0 -42 -9t-13 -35v-497q0 -26 13 -35t42 -9v-26h-182l-309 551v-481q0 -26 21 -35t71 -9v-26h-215v26q29 0 42 9t13 35v497
q0 26 -13 35t-42 9v26h181l310 -552v482q0 26 -21 35t-71 9v26h215v-26z" />
    <glyph glyph-name="Ograve" unicode="&#xd2;" horiz-adv-x="646" 
d="M232 770l54 62q20 -48 46 -80.5t71 -56.5l-3 -10q-54 3 -99 26.5t-69 58.5zM323 647q138 0 211.5 -89t73.5 -233q0 -145 -74 -238.5t-211 -93.5t-211 93.5t-74 238.5q0 144 73.5 233t211.5 89zM323 48q85 0 133 71.5t48 205.5q0 133 -48 200t-133 67t-133 -67t-48 -200
q0 -134 48 -205.5t133 -71.5z" />
    <glyph glyph-name="Oacute" unicode="&#xd3;" horiz-adv-x="646" 
d="M411 770q-24 -35 -69 -58.5t-99 -26.5l-3 10q45 24 71 56.5t46 80.5zM323 647q138 0 211.5 -89t73.5 -233q0 -145 -74 -238.5t-211 -93.5t-211 93.5t-74 238.5q0 144 73.5 233t211.5 89zM323 48q85 0 133 71.5t48 205.5q0 133 -48 200t-133 67t-133 -67t-48 -200
q0 -134 48 -205.5t133 -71.5z" />
    <glyph glyph-name="Ocircumflex" unicode="&#xd4;" horiz-adv-x="646" 
d="M202 684l99 108h44l99 -108h-84l-37 57l-37 -57h-84zM323 647q138 0 211.5 -89t73.5 -233q0 -145 -74 -238.5t-211 -93.5t-211 93.5t-74 238.5q0 144 73.5 233t211.5 89zM323 48q85 0 133 71.5t48 205.5q0 133 -48 200t-133 67t-133 -67t-48 -200q0 -134 48 -205.5
t133 -71.5z" />
    <glyph glyph-name="Otilde" unicode="&#xd5;" horiz-adv-x="646" 
d="M178 692q50 62 107 62q26 0 57 -10t52 -10t64 19l12 -12q-54 -51 -109 -51q-25 0 -55.5 10t-51.5 10q-33 0 -65 -26zM323 647q138 0 211.5 -89t73.5 -233q0 -145 -74 -238.5t-211 -93.5t-211 93.5t-74 238.5q0 144 73.5 233t211.5 89zM323 48q85 0 133 71.5t48 205.5
q0 133 -48 200t-133 67t-133 -67t-48 -200q0 -134 48 -205.5t133 -71.5z" />
    <glyph glyph-name="Odieresis" unicode="&#xd6;" horiz-adv-x="646" 
d="M168 749l71 71l72 -71l-72 -72zM335 749l71 71l72 -71l-72 -72zM323 647q138 0 211.5 -89t73.5 -233q0 -145 -74 -238.5t-211 -93.5t-211 93.5t-74 238.5q0 144 73.5 233t211.5 89zM323 48q85 0 133 71.5t48 205.5q0 133 -48 200t-133 67t-133 -67t-48 -200
q0 -134 48 -205.5t133 -71.5z" />
    <glyph glyph-name="multiply" unicode="&#xd7;" horiz-adv-x="335" 
d="M262 381l41 -41q-63 -63 -103 -94q36 -28 105 -97l-41 -41q-60 60 -96 106q-32 -41 -95 -104l-41 41q63 63 104 95q-46 36 -106 96l41 41q69 -69 97 -105q31 40 94 103z" />
    <glyph glyph-name="Oslash" unicode="&#xd8;" horiz-adv-x="670" 
d="M457 618q74 -37 112.5 -113.5t38.5 -179.5q0 -145 -74 -238.5t-211 -93.5q-49 0 -88 12l-22 -59l-28 10l22 59q-83 35 -126 117.5t-43 192.5q0 144 73.5 233t211.5 89q60 0 108 -18l23 64l27 -10zM142 325q0 -182 87 -247l180 492q-37 22 -86 22q-85 0 -133 -67t-48 -200
zM323 48q85 0 133 71.5t48 205.5q0 161 -71 227l-178 -490q33 -14 68 -14z" />
    <glyph glyph-name="Ugrave" unicode="&#xd9;" horiz-adv-x="617" 
d="M218 770l54 62q20 -48 46 -80.5t71 -56.5l-3 -10q-54 3 -99 26.5t-69 58.5zM230 638v-26q-29 0 -42 -9t-13 -35v-331q0 -187 150 -187q149 0 149 173v344q0 26 -17 35t-57 9v26h197v-26q-29 0 -42 -9t-13 -35v-345q0 -230 -217 -230q-124 0 -187 57t-63 186v333
q0 26 -13 35t-42 9v26h210z" />
    <glyph glyph-name="Uacute" unicode="&#xda;" horiz-adv-x="617" 
d="M397 770q-24 -35 -69 -58.5t-99 -26.5l-3 10q45 24 71 56.5t46 80.5zM230 638v-26q-29 0 -42 -9t-13 -35v-331q0 -187 150 -187q149 0 149 173v344q0 26 -17 35t-57 9v26h197v-26q-29 0 -42 -9t-13 -35v-345q0 -230 -217 -230q-124 0 -187 57t-63 186v333q0 26 -13 35
t-42 9v26h210z" />
    <glyph glyph-name="Ucircumflex" unicode="&#xdb;" horiz-adv-x="617" 
d="M188 684l99 108h44l99 -108h-84l-37 57l-37 -57h-84zM230 638v-26q-29 0 -42 -9t-13 -35v-331q0 -187 150 -187q149 0 149 173v344q0 26 -17 35t-57 9v26h197v-26q-29 0 -42 -9t-13 -35v-345q0 -230 -217 -230q-124 0 -187 57t-63 186v333q0 26 -13 35t-42 9v26h210z" />
    <glyph glyph-name="Udieresis" unicode="&#xdc;" horiz-adv-x="617" 
d="M154 749l71 71l72 -71l-72 -72zM321 749l71 71l72 -71l-72 -72zM230 638v-26q-29 0 -42 -9t-13 -35v-331q0 -187 150 -187q149 0 149 173v344q0 26 -17 35t-57 9v26h197v-26q-29 0 -42 -9t-13 -35v-345q0 -230 -217 -230q-124 0 -187 57t-63 186v333q0 26 -13 35t-42 9
v26h210z" />
    <glyph glyph-name="Yacute" unicode="&#xdd;" horiz-adv-x="611" 
d="M396 770q-24 -35 -69 -58.5t-99 -26.5l-3 10q45 24 71 56.5t46 80.5zM609 637v-26q-69 0 -89 -35l-170 -311v-195q0 -26 16 -35t53 -9v-26h-239v26q37 0 53 9t16 35v189l-157 315q-18 37 -86 37v26h159l150 -308l131 246q11 24 0.5 30t-59.5 6v26h222z" />
    <glyph glyph-name="Thorn" unicode="&#xde;" horiz-adv-x="518" 
d="M321 488q88 0 138.5 -43.5t50.5 -115.5q0 -78 -53 -127t-138 -49q-94 0 -124 62v-145q0 -26 13 -35t42 -9v-26h-210v26q29 0 42 9t13 35v497q0 26 -13 35t-42 9v26h210v-26q-29 0 -42 -9t-13 -35v-79h126zM299 205q54 0 81 36t27 85q0 106 -110 106h-102v-120
q0 -50 26 -78.5t78 -28.5z" />
    <glyph glyph-name="germandbls" unicode="&#xdf;" horiz-adv-x="589" 
d="M348 344q101 -5 161 -47.5t60 -123.5q0 -80 -62.5 -127t-165.5 -47l-1 7q49 6 87 57t38 113q0 65 -41 105t-130 40h-8v17l38 7l117 153q4 45 -23.5 68t-71.5 23q-51 0 -87.5 -35.5t-36.5 -91.5v-462h-155v26q29 0 42 9t13 35v319l-72 17v46h72q0 80 61 137.5t160 57.5
q97 0 148.5 -47t43.5 -128z" />
    <glyph glyph-name="agrave" unicode="&#xe0;" horiz-adv-x="458" 
d="M295 504q-97 19 -166 96l54 64q21 -48 46.5 -83.5t70.5 -66.5zM390 70q0 -26 10.5 -35t35.5 -9v-26h-130v127h-3q-27 -134 -139 -134q-134 0 -134 154q0 48 15 83l256 28v17q0 138 -90 138q-38 0 -58 -20.5t-20 -53.5q0 -15 5 -33v-3l-87 -8q-8 24 -8 39q0 55 47.5 91
t125.5 36q48 0 82 -14.5t51.5 -34t27 -52t11.5 -56t2 -58.5v-176zM187 48q43 0 74.5 46t37.5 135l-168 -34q-9 -23 -9 -59q0 -40 16.5 -64t48.5 -24z" />
    <glyph glyph-name="aacute" unicode="&#xe1;" horiz-adv-x="458" 
d="M297 600q-69 -77 -166 -96l-5 10q45 31 70.5 66.5t46.5 83.5zM390 70q0 -26 10.5 -35t35.5 -9v-26h-130v127h-3q-27 -134 -139 -134q-134 0 -134 154q0 48 15 83l256 28v17q0 138 -90 138q-38 0 -58 -20.5t-20 -53.5q0 -15 5 -33v-3l-87 -8q-8 24 -8 39q0 55 47.5 91
t125.5 36q48 0 82 -14.5t51.5 -34t27 -52t11.5 -56t2 -58.5v-176zM187 48q43 0 74.5 46t37.5 135l-168 -34q-9 -23 -9 -59q0 -40 16.5 -64t48.5 -24z" />
    <glyph glyph-name="acircumflex" unicode="&#xe2;" horiz-adv-x="458" 
d="M218 596l-37 -57h-84l99 108h44l99 -108h-84zM390 70q0 -26 10.5 -35t35.5 -9v-26h-130v127h-3q-27 -134 -139 -134q-134 0 -134 154q0 48 15 83l256 28v17q0 138 -90 138q-38 0 -58 -20.5t-20 -53.5q0 -15 5 -33v-3l-87 -8q-8 24 -8 39q0 55 47.5 91t125.5 36
q48 0 82 -14.5t51.5 -34t27 -52t11.5 -56t2 -58.5v-176zM187 48q43 0 74.5 46t37.5 135l-168 -34q-9 -23 -9 -59q0 -40 16.5 -64t48.5 -24z" />
    <glyph glyph-name="atilde" unicode="&#xe3;" horiz-adv-x="458" 
d="M163 555q-26 0 -52 -26l-8 8q39 62 77 62q20 0 49 -10t45 -10t51 19l9 -12q-43 -51 -78 -51q-20 0 -48.5 10t-44.5 10zM390 70q0 -26 10.5 -35t35.5 -9v-26h-130v127h-3q-27 -134 -139 -134q-134 0 -134 154q0 48 15 83l256 28v17q0 138 -90 138q-38 0 -58 -20.5
t-20 -53.5q0 -15 5 -33v-3l-87 -8q-8 24 -8 39q0 55 47.5 91t125.5 36q48 0 82 -14.5t51.5 -34t27 -52t11.5 -56t2 -58.5v-176zM187 48q43 0 74.5 46t37.5 135l-168 -34q-9 -23 -9 -59q0 -40 16.5 -64t48.5 -24z" />
    <glyph glyph-name="adieresis" unicode="&#xe4;" horiz-adv-x="458" 
d="M206 596l-71 -73l-72 73l72 71zM373 596l-71 -73l-72 73l72 71zM390 70q0 -26 10.5 -35t35.5 -9v-26h-130v127h-3q-27 -134 -139 -134q-134 0 -134 154q0 48 15 83l256 28v17q0 138 -90 138q-38 0 -58 -20.5t-20 -53.5q0 -15 5 -33v-3l-87 -8q-8 24 -8 39q0 55 47.5 91
t125.5 36q48 0 82 -14.5t51.5 -34t27 -52t11.5 -56t2 -58.5v-176zM187 48q43 0 74.5 46t37.5 135l-168 -34q-9 -23 -9 -59q0 -40 16.5 -64t48.5 -24z" />
    <glyph glyph-name="aring" unicode="&#xe5;" horiz-adv-x="458" 
d="M218 532q-24 0 -41 17t-17 41t17 40.5t41 16.5t41 -16.5t17 -40.5t-17 -41t-41 -17zM218 607q-18 0 -18 -17q0 -8 5.5 -13.5t12.5 -5.5t12.5 5.5t5.5 13.5q0 17 -18 17zM390 70q0 -26 10.5 -35t35.5 -9v-26h-130v127h-3q-27 -134 -139 -134q-134 0 -134 154q0 48 15 83
l256 28v17q0 138 -90 138q-38 0 -58 -20.5t-20 -53.5q0 -15 5 -33v-3l-87 -8q-8 24 -8 39q0 55 47.5 91t125.5 36q48 0 82 -14.5t51.5 -34t27 -52t11.5 -56t2 -58.5v-176zM187 48q43 0 74.5 46t37.5 135l-168 -34q-9 -23 -9 -59q0 -40 16.5 -64t48.5 -24z" />
    <glyph glyph-name="ae" unicode="&#xe6;" horiz-adv-x="727" 
d="M164 -7q-134 0 -134 154q0 48 15 83l256 28v17q0 138 -90 138q-38 0 -58 -20.5t-20 -53.5q0 -15 5 -33v-3l-87 -8q-8 24 -8 39q0 55 47.5 91t125.5 36q56 0 89.5 -18.5t52.5 -58.5q48 77 151 77q88 0 135.5 -47.5t47.5 -131.5q0 -35 -2 -49l-297 -9q3 -84 42.5 -129.5
t108.5 -45.5q91 0 133 86l20 -8q-7 -22 -18.5 -42t-31.5 -42.5t-52.5 -36t-73.5 -13.5q-160 0 -205 134q-9 -61 -54.5 -97.5t-97.5 -36.5zM393 255l204 18q5 22 5 44q0 40 -24.5 68t-65.5 28q-112 0 -119 -158zM187 48q43 0 74.5 46t37.5 135l-168 -34q-9 -27 -9 -63
q0 -38 16.5 -61t48.5 -23z" />
    <glyph glyph-name="ccedilla" unicode="&#xe7;" horiz-adv-x="456" 
d="M426 127q-16 -48 -54.5 -88t-106.5 -45l-43 -50q9 3 23 3q27 0 46 -16.5t19 -49.5q0 -37 -23 -59t-62 -22q-36 0 -57.5 19t-21.5 46q0 20 6 34l53 -9q-8 -14 -8 -28q0 -11 8.5 -18t20.5 -7q18 0 26 11.5t8 25.5q0 52 -56 52q-18 0 -34 -3l33 73q-81 14 -127 73t-46 157
q0 113 59.5 174t157.5 61q86 0 129.5 -41t43.5 -117q0 -19 -3 -42l-96 8q6 31 6 57q0 87 -84 87q-57 0 -89 -47t-32 -135q0 -89 39 -136.5t110 -47.5q95 0 135 88z" />
    <glyph glyph-name="egrave" unicode="&#xe8;" horiz-adv-x="456" 
d="M305 504q-97 19 -166 96l54 64q21 -48 46.5 -83.5t70.5 -66.5zM406 135l20 -8q-7 -22 -18.5 -42t-31.5 -42.5t-52.5 -36t-73.5 -13.5q-102 0 -161 60.5t-59 175.5q0 113 55.5 172.5t152.5 59.5q88 0 135.5 -47.5t47.5 -131.5q0 -33 -2 -49l-297 -9q2 -85 41.5 -130
t109.5 -45q91 0 133 86zM241 413q-110 0 -118 -156l203 16q5 22 5 44q0 40 -24.5 68t-65.5 28z" />
    <glyph glyph-name="eacute" unicode="&#xe9;" horiz-adv-x="456" 
d="M307 600q-69 -77 -166 -96l-5 10q45 31 70.5 66.5t46.5 83.5zM406 135l20 -8q-7 -22 -18.5 -42t-31.5 -42.5t-52.5 -36t-73.5 -13.5q-102 0 -161 60.5t-59 175.5q0 113 55.5 172.5t152.5 59.5q88 0 135.5 -47.5t47.5 -131.5q0 -33 -2 -49l-297 -9q2 -85 41.5 -130
t109.5 -45q91 0 133 86zM241 413q-110 0 -118 -156l203 16q5 22 5 44q0 40 -24.5 68t-65.5 28z" />
    <glyph glyph-name="ecircumflex" unicode="&#xea;" horiz-adv-x="456" 
d="M228 596l-37 -57h-84l99 108h44l99 -108h-84zM406 135l20 -8q-7 -22 -18.5 -42t-31.5 -42.5t-52.5 -36t-73.5 -13.5q-102 0 -161 60.5t-59 175.5q0 113 55.5 172.5t152.5 59.5q88 0 135.5 -47.5t47.5 -131.5q0 -33 -2 -49l-297 -9q2 -85 41.5 -130t109.5 -45q91 0 133 86
zM241 413q-110 0 -118 -156l203 16q5 22 5 44q0 40 -24.5 68t-65.5 28z" />
    <glyph glyph-name="edieresis" unicode="&#xeb;" horiz-adv-x="456" 
d="M216 596l-71 -73l-72 73l72 71zM383 596l-71 -73l-72 73l72 71zM406 135l20 -8q-7 -22 -18.5 -42t-31.5 -42.5t-52.5 -36t-73.5 -13.5q-102 0 -161 60.5t-59 175.5q0 113 55.5 172.5t152.5 59.5q88 0 135.5 -47.5t47.5 -131.5q0 -33 -2 -49l-297 -9q2 -85 41.5 -130
t109.5 -45q91 0 133 86zM241 413q-110 0 -118 -156l203 16q5 22 5 44q0 40 -24.5 68t-65.5 28z" />
    <glyph glyph-name="igrave" unicode="&#xec;" horiz-adv-x="248" 
d="M34 600l54 64q21 -48 46.5 -83.5t70.5 -66.5l-5 -10q-97 19 -166 96zM172 70q0 -26 10.5 -35t35.5 -9v-26h-188v26q25 0 35.5 9t10.5 35v312q0 26 -10.5 35t-35.5 9v26h142v-382z" />
    <glyph glyph-name="iacute" unicode="&#xed;" horiz-adv-x="248" 
d="M202 600q-69 -77 -166 -96l-5 10q45 31 70.5 66.5t46.5 83.5zM172 70q0 -26 10.5 -35t35.5 -9v-26h-188v26q25 0 35.5 9t10.5 35v312q0 26 -10.5 35t-35.5 9v26h142v-382z" />
    <glyph glyph-name="icircumflex" unicode="&#xee;" horiz-adv-x="248" 
d="M2 539l99 108h44l99 -108h-84l-37 57l-37 -57h-84zM172 70q0 -26 10.5 -35t35.5 -9v-26h-188v26q25 0 35.5 9t10.5 35v312q0 26 -10.5 35t-35.5 9v26h142v-382z" />
    <glyph glyph-name="idieresis" unicode="&#xef;" horiz-adv-x="248" 
d="M40 523l-72 73l72 71l71 -71zM207 523l-72 73l72 71l71 -71zM172 70q0 -26 10.5 -35t35.5 -9v-26h-188v26q25 0 35.5 9t10.5 35v312q0 26 -10.5 35t-35.5 9v26h142v-382z" />
    <glyph glyph-name="eth" unicode="&#xf0;" horiz-adv-x="508" 
d="M347 563q123 -100 123 -275q0 -150 -58 -221.5t-152 -71.5q-93 0 -161.5 63t-68.5 172q0 105 54 168t139 63q116 0 151 -145q-9 150 -77 234l-155 -42l-10 38l133 36q-48 38 -111 49l2 10q80 -8 149 -49l114 31l10 -38zM260 43q54 0 82 43.5t28 112.5q0 88 -37 151
t-97 63q-52 0 -78 -49.5t-26 -134.5q0 -91 34.5 -138.5t93.5 -47.5z" />
    <glyph glyph-name="ntilde" unicode="&#xf1;" horiz-adv-x="532" 
d="M213 555q-26 0 -52 -26l-8 8q39 62 77 62q20 0 49 -10t45 -10t51 19l9 -12q-43 -51 -78 -51q-20 0 -48.5 10t-44.5 10zM456 70q0 -26 10.5 -35t35.5 -9v-26h-188v26q25 0 35.5 9t10.5 35v207q0 69 -15 99t-57 30q-49 0 -80.5 -52t-31.5 -174v-110q0 -26 10.5 -35t35.5 -9
v-26h-188v26q25 0 35.5 9t10.5 35v312q0 26 -10.5 35t-35.5 9v26h142v-121h2q7 55 42 92.5t97 37.5q139 0 139 -166v-225z" />
    <glyph glyph-name="ograve" unicode="&#xf2;" horiz-adv-x="492" 
d="M157 600l54 64q21 -48 46.5 -83.5t70.5 -66.5l-5 -10q-97 19 -166 96zM246 461q102 0 159 -63t57 -171t-57 -171t-159 -63t-159 63t-57 171t57 171t159 63zM246 41q114 0 114 186t-114 186t-114 -186t114 -186z" />
    <glyph glyph-name="oacute" unicode="&#xf3;" horiz-adv-x="492" 
d="M325 600q-69 -77 -166 -96l-5 10q45 31 70.5 66.5t46.5 83.5zM246 461q102 0 159 -63t57 -171t-57 -171t-159 -63t-159 63t-57 171t57 171t159 63zM246 41q114 0 114 186t-114 186t-114 -186t114 -186z" />
    <glyph glyph-name="ocircumflex" unicode="&#xf4;" horiz-adv-x="492" 
d="M125 539l99 108h44l99 -108h-84l-37 57l-37 -57h-84zM246 461q102 0 159 -63t57 -171t-57 -171t-159 -63t-159 63t-57 171t57 171t159 63zM246 41q114 0 114 186t-114 186t-114 -186t114 -186z" />
    <glyph glyph-name="otilde" unicode="&#xf5;" horiz-adv-x="492" 
d="M131 537q39 62 77 62q20 0 49 -10t45 -10t51 19l9 -12q-43 -51 -78 -51q-20 0 -48.5 10t-44.5 10q-26 0 -52 -26zM246 461q102 0 159 -63t57 -171t-57 -171t-159 -63t-159 63t-57 171t57 171t159 63zM246 41q114 0 114 186t-114 186t-114 -186t114 -186z" />
    <glyph glyph-name="odieresis" unicode="&#xf6;" horiz-adv-x="492" 
d="M163 523l-72 73l72 71l71 -71zM330 523l-72 73l72 71l71 -71zM246 461q102 0 159 -63t57 -171t-57 -171t-159 -63t-159 63t-57 171t57 171t159 63zM246 41q114 0 114 186t-114 186t-114 -186t114 -186z" />
    <glyph glyph-name="divide" unicode="&#xf7;" horiz-adv-x="391" 
d="M194 326q-17 0 -28.5 11.5t-11.5 28.5t11.5 28.5t28.5 11.5t29 -11.5t12 -28.5t-12 -28.5t-29 -11.5zM30 275h331v-56h-331v56zM194 88q-17 0 -28.5 11.5t-11.5 28.5t11.5 28.5t28.5 11.5t29 -11.5t12 -28.5t-12 -28.5t-29 -11.5z" />
    <glyph glyph-name="oslash" unicode="&#xf8;" horiz-adv-x="492" 
d="M351 438q54 -26 82.5 -81t28.5 -130q0 -108 -57 -171t-159 -63q-30 0 -55 6l-20 -54l-52 20l19 52q-108 56 -108 210q0 108 57 171t159 63q25 0 52 -5l23 64l53 -19zM132 227q0 -95 31 -141l117 322q-17 5 -34 5q-114 0 -114 -186zM246 41q114 0 114 186q0 96 -33 145
l-119 -324q17 -7 38 -7z" />
    <glyph glyph-name="ugrave" unicode="&#xf9;" horiz-adv-x="505" 
d="M316 504q-97 19 -166 96l54 64q21 -48 46.5 -83.5t70.5 -66.5zM427 70q0 -26 10.5 -35t35.5 -9v-26h-142v105q-11 -48 -46 -80t-92 -32q-71 0 -105 38t-34 118v233q0 26 -10.5 35t-35.5 9v26h142v-275q0 -69 15 -99t57 -30q109 0 109 226v108q0 26 -10.5 35t-35.5 9v26
h142v-382z" />
    <glyph glyph-name="uacute" unicode="&#xfa;" horiz-adv-x="505" 
d="M318 600q-69 -77 -166 -96l-5 10q45 31 70.5 66.5t46.5 83.5zM427 70q0 -26 10.5 -35t35.5 -9v-26h-142v105q-11 -48 -46 -80t-92 -32q-71 0 -105 38t-34 118v233q0 26 -10.5 35t-35.5 9v26h142v-275q0 -69 15 -99t57 -30q109 0 109 226v108q0 26 -10.5 35t-35.5 9v26
h142v-382z" />
    <glyph glyph-name="ucircumflex" unicode="&#xfb;" horiz-adv-x="505" 
d="M239 596l-37 -57h-84l99 108h44l99 -108h-84zM427 70q0 -26 10.5 -35t35.5 -9v-26h-142v105q-11 -48 -46 -80t-92 -32q-71 0 -105 38t-34 118v233q0 26 -10.5 35t-35.5 9v26h142v-275q0 -69 15 -99t57 -30q109 0 109 226v108q0 26 -10.5 35t-35.5 9v26h142v-382z" />
    <glyph glyph-name="udieresis" unicode="&#xfc;" horiz-adv-x="505" 
d="M227 596l-71 -73l-72 73l72 71zM394 596l-71 -73l-72 73l72 71zM427 70q0 -26 10.5 -35t35.5 -9v-26h-142v105q-11 -48 -46 -80t-92 -32q-71 0 -105 38t-34 118v233q0 26 -10.5 35t-35.5 9v26h142v-275q0 -69 15 -99t57 -30q109 0 109 226v108q0 26 -10.5 35t-35.5 9v26
h142v-382z" />
    <glyph glyph-name="yacute" unicode="&#xfd;" horiz-adv-x="525" 
d="M345 600q-69 -77 -166 -96l-5 10q45 31 70.5 66.5t46.5 83.5zM519 452v-26q-54 0 -68 -41l-152 -467q-23 -73 -52 -97.5t-80 -24.5q-70 0 -102 38t-25 97l86 -7q-4 -38 11 -57.5t38 -19.5t37 15t27 56l27 82h-60l-125 385q-14 41 -68 41v26h147l126 -389l105 322
q9 25 -8 33t-72 8v26h208z" />
    <glyph glyph-name="thorn" unicode="&#xfe;" horiz-adv-x="545" 
d="M338 461q182 0 182 -234t-182 -234q-54 0 -93 30.5t-53 73.5v-291h-142v26q25 0 35.5 9t10.5 35v691q0 26 -10.5 35t-35.5 9v26h142v-273q13 40 52 68.5t94 28.5zM313 41q42 0 66 26t31.5 64t7.5 96q0 88 -23 137t-82 49q-50 0 -85.5 -43t-35.5 -143t35.5 -143t85.5 -43z
" />
    <glyph glyph-name="ydieresis" unicode="&#xff;" horiz-adv-x="525" 
d="M254 596l-71 -73l-72 73l72 71zM421 596l-71 -73l-72 73l72 71zM519 452v-26q-54 0 -68 -41l-152 -467q-23 -73 -52 -97.5t-80 -24.5q-70 0 -102 38t-25 97l86 -7q-4 -38 11 -57.5t38 -19.5t37 15t27 56l27 82h-60l-125 385q-14 41 -68 41v26h147l126 -389l105 322
q9 25 -8 33t-72 8v26h208z" />
    <glyph glyph-name="Amacron" unicode="&#x100;" horiz-adv-x="615" 
d="M457 755v-39h-297v39h297zM535 67q7 -24 25 -32.5t49 -8.5v-26h-243v26q47 0 61.5 8t7.5 33l-33 117h-215l-33 -117q-7 -25 7.5 -33t61.5 -8v-26h-215v26q31 0 49 8.5t25 32.5l144 503q7 25 -7.5 33t-61.5 8v26h216zM203 240h183l-91 321z" />
    <glyph glyph-name="amacron" unicode="&#x101;" horiz-adv-x="458" 
d="M366 570v-39h-297v39h297zM390 70q0 -26 10.5 -35t35.5 -9v-26h-130v127h-3q-27 -134 -139 -134q-134 0 -134 154q0 48 15 83l256 28v17q0 138 -90 138q-38 0 -58 -20.5t-20 -53.5q0 -15 5 -33v-3l-87 -8q-8 24 -8 39q0 55 47.5 91t125.5 36q48 0 82 -14.5t51.5 -34
t27 -52t11.5 -56t2 -58.5v-176zM187 48q43 0 74.5 46t37.5 135l-168 -34q-9 -23 -9 -59q0 -40 16.5 -64t48.5 -24z" />
    <glyph glyph-name="Abreve" unicode="&#x102;" horiz-adv-x="615" 
d="M309 685q-43 0 -72 28.5t-27 79.5h77q-24 -81 22 -81q45 0 21 81h77q2 -55 -26 -81.5t-72 -26.5zM535 67q7 -24 25 -32.5t49 -8.5v-26h-243v26q47 0 61.5 8t7.5 33l-33 117h-215l-33 -117q-7 -25 7.5 -33t61.5 -8v-26h-215v26q31 0 49 8.5t25 32.5l144 503q7 25 -7.5 33
t-61.5 8v26h216zM203 240h183l-91 321z" />
    <glyph glyph-name="abreve" unicode="&#x103;" horiz-adv-x="458" 
d="M218 529q-43 0 -72 28.5t-27 79.5h77q-24 -81 22 -81q45 0 21 81h77q2 -55 -26 -81.5t-72 -26.5zM390 70q0 -26 10.5 -35t35.5 -9v-26h-130v127h-3q-27 -134 -139 -134q-134 0 -134 154q0 48 15 83l256 28v17q0 138 -90 138q-38 0 -58 -20.5t-20 -53.5q0 -15 5 -33v-3
l-87 -8q-8 24 -8 39q0 55 47.5 91t125.5 36q48 0 82 -14.5t51.5 -34t27 -52t11.5 -56t2 -58.5v-176zM187 48q43 0 74.5 46t37.5 135l-168 -34q-9 -23 -9 -59q0 -40 16.5 -64t48.5 -24z" />
    <glyph glyph-name="Aogonek" unicode="&#x104;" horiz-adv-x="615" 
d="M506 0q-69 -52 -69 -91q0 -38 38 -38q26 0 51 22l29 -65q-37 -21 -74 -21q-42 0 -70.5 22.5t-28.5 58.5q0 62 79 112h-95v26q47 0 61.5 8t7.5 33l-33 117h-215l-33 -117q-7 -25 7.5 -33t61.5 -8v-26h-215v26q31 0 49 8.5t25 32.5l144 503q7 25 -7.5 33t-61.5 8v26h216
l162 -570q7 -24 25 -32.5t49 -8.5v-26h-103zM203 240h183l-91 321z" />
    <glyph glyph-name="aogonek" unicode="&#x105;" horiz-adv-x="458" 
d="M390 70q0 -26 10.5 -35t35.5 -9v-26h-101l5 -1q-82 -57 -82 -100q0 -38 38 -38q26 0 51 22l29 -65q-37 -21 -74 -21q-42 0 -70.5 22.5t-28.5 58.5q0 37 29 69.5t74 55.5v124h-3q-27 -134 -139 -134q-134 0 -134 154q0 48 15 83l256 28v17q0 138 -90 138q-38 0 -58 -20.5
t-20 -53.5q0 -15 5 -33v-3l-87 -8q-8 24 -8 39q0 55 47.5 91t125.5 36q48 0 82 -14.5t51.5 -34t27 -52t11.5 -56t2 -58.5v-176zM187 48q43 0 74.5 46t37.5 135l-168 -34q-9 -23 -9 -59q0 -40 16.5 -64t48.5 -24z" />
    <glyph glyph-name="Cacute" unicode="&#x106;" horiz-adv-x="596" 
d="M391 770q-24 -35 -69 -58.5t-99 -26.5l-3 10q45 24 71 56.5t46 80.5zM349 68q78 0 124 37.5t60 89.5l25 -5q-32 -197 -239 -197q-135 0 -208 89t-73 246q0 146 75 232.5t205 86.5q235 0 235 -251v-20l-113 11q12 43 12 84q0 62 -33 91.5t-89 29.5q-82 0 -137 -61.5
t-55 -202.5q0 -121 56.5 -190.5t154.5 -69.5z" />
    <glyph glyph-name="cacute" unicode="&#x107;" horiz-adv-x="456" 
d="M307 600q-69 -77 -166 -96l-5 10q45 31 70.5 66.5t46.5 83.5zM321 269q6 31 6 57q0 87 -84 87q-57 0 -89 -47t-32 -135q0 -89 39 -136.5t110 -47.5q95 0 135 88l20 -8q-7 -22 -19 -42t-32 -42.5t-53 -36t-74 -13.5q-101 0 -159.5 61t-58.5 172q0 113 59.5 174t157.5 61
q86 0 129.5 -41t43.5 -117q0 -19 -3 -42z" />
    <glyph glyph-name="Cdotaccent" unicode="&#x10a;" horiz-adv-x="596" 
d="M231 781l71 71l72 -71l-72 -72zM349 68q78 0 124 37.5t60 89.5l25 -5q-32 -197 -239 -197q-135 0 -208 89t-73 246q0 146 75 232.5t205 86.5q235 0 235 -251v-20l-113 11q12 43 12 84q0 62 -33 91.5t-89 29.5q-82 0 -137 -61.5t-55 -202.5q0 -121 56.5 -190.5
t154.5 -69.5z" />
    <glyph glyph-name="cdotaccent" unicode="&#x10b;" horiz-adv-x="456" 
d="M156 596l71 71l72 -71l-72 -72zM321 269q6 31 6 57q0 87 -84 87q-57 0 -89 -47t-32 -135q0 -89 39 -136.5t110 -47.5q95 0 135 88l20 -8q-7 -22 -19 -42t-32 -42.5t-53 -36t-74 -13.5q-101 0 -159.5 61t-58.5 172q0 113 59.5 174t157.5 61q86 0 129.5 -41t43.5 -117
q0 -19 -3 -42z" />
    <glyph glyph-name="Ccaron" unicode="&#x10c;" horiz-adv-x="596" 
d="M182 781h84l37 -57l37 57h84l-99 -108h-44zM349 68q78 0 124 37.5t60 89.5l25 -5q-32 -197 -239 -197q-135 0 -208 89t-73 246q0 146 75 232.5t205 86.5q235 0 235 -251v-20l-113 11q12 43 12 84q0 62 -33 91.5t-89 29.5q-82 0 -137 -61.5t-55 -202.5q0 -121 56.5 -190.5
t154.5 -69.5z" />
    <glyph glyph-name="ccaron" unicode="&#x10d;" horiz-adv-x="456" 
d="M107 627h84l37 -57l37 57h84l-99 -108h-44zM321 269q6 31 6 57q0 87 -84 87q-57 0 -89 -47t-32 -135q0 -89 39 -136.5t110 -47.5q95 0 135 88l20 -8q-7 -22 -19 -42t-32 -42.5t-53 -36t-74 -13.5q-101 0 -159.5 61t-58.5 172q0 113 59.5 174t157.5 61q86 0 129.5 -41
t43.5 -117q0 -19 -3 -42z" />
    <glyph glyph-name="Dcaron" unicode="&#x10e;" horiz-adv-x="621" 
d="M325 673h-44l-99 108h84l37 -57l37 57h84zM251 637q158 0 245 -80t87 -236q0 -157 -87 -239t-245 -82h-211v26q29 0 42 9t13 35v497q0 26 -13 35t-42 9v26h211zM239 56q122 0 181 63.5t59 201.5q0 137 -58.5 198.5t-181.5 61.5h-44v-525h44z" />
    <glyph glyph-name="dcaron" unicode="&#x10f;" horiz-adv-x="651" 
d="M565 683l72 -71l-65 -187h-7v115l-71 72zM454 70q0 -26 10.5 -35t35.5 -9v-26h-142v97q-14 -43 -53 -73.5t-93 -30.5q-182 0 -182 234t182 234q55 0 94 -28.5t52 -68.5v203q0 26 -10.5 35t-35.5 9v26h142v-567zM237 41q50 0 85.5 43t35.5 143t-35.5 143t-85.5 43
q-59 0 -82 -49t-23 -137q0 -58 7.5 -96t31.5 -64t66 -26z" />
    <glyph glyph-name="Dcroat" unicode="&#x110;" horiz-adv-x="621" 
d="M251 637q158 0 245 -80t87 -236q0 -157 -87 -239t-245 -82h-211v26q29 0 42 9t13 35v229h-49v39h49v229q0 26 -13 35t-42 9v26h211zM239 56q122 0 181 63.5t59 201.5q0 137 -58.5 198.5t-181.5 61.5h-44v-243h183v-39h-183v-243h44z" />
    <glyph glyph-name="dcroat" unicode="&#x111;" horiz-adv-x="532" 
d="M505 531h-51v-461q0 -26 10.5 -35t35.5 -9v-26h-142v97q-14 -43 -53 -73.5t-93 -30.5q-182 0 -182 234t182 234q55 0 94 -28.5t52 -68.5v167h-150v39h150q-1 24 -11.5 32.5t-34.5 8.5v26h142v-67h51v-39zM237 41q50 0 85.5 43t35.5 143t-35.5 143t-85.5 43q-59 0 -82 -49
t-23 -137q0 -58 7.5 -96t31.5 -64t66 -26z" />
    <glyph glyph-name="Emacron" unicode="&#x112;" horiz-adv-x="585" 
d="M445 755v-39h-297v39h297zM538 152l25 -8l-31 -101l-13 -43h-479v26q29 0 42 9t13 35v497q0 26 -13 35t-42 9v26h474l8 -42l21 -105l-26 -5q-10 50 -23 73t-39 23h-260v-223h194q26 0 35 10.5t9 35.5h26v-147h-26q0 25 -9 35.5t-35 10.5h-194v-247h271q25 0 41 23.5
t31 72.5z" />
    <glyph glyph-name="emacron" unicode="&#x113;" horiz-adv-x="456" 
d="M376 570v-39h-297v39h297zM406 135l20 -8q-7 -22 -18.5 -42t-31.5 -42.5t-52.5 -36t-73.5 -13.5q-102 0 -161 60.5t-59 175.5q0 113 55.5 172.5t152.5 59.5q88 0 135.5 -47.5t47.5 -131.5q0 -33 -2 -49l-297 -9q2 -85 41.5 -130t109.5 -45q91 0 133 86zM241 413
q-110 0 -118 -156l203 16q5 22 5 44q0 40 -24.5 68t-65.5 28z" />
    <glyph glyph-name="Edotaccent" unicode="&#x116;" horiz-adv-x="585" 
d="M368 781l-72 -72l-71 72l71 71zM538 152l25 -8l-31 -101l-13 -43h-479v26q29 0 42 9t13 35v497q0 26 -13 35t-42 9v26h474l8 -42l21 -105l-26 -5q-10 50 -23 73t-39 23h-260v-223h194q26 0 35 10.5t9 35.5h26v-147h-26q0 25 -9 35.5t-35 10.5h-194v-247h271q25 0 41 23.5
t31 72.5z" />
    <glyph glyph-name="edotaccent" unicode="&#x117;" horiz-adv-x="456" 
d="M299 596l-72 -72l-71 72l71 71zM406 135l20 -8q-7 -22 -18.5 -42t-31.5 -42.5t-52.5 -36t-73.5 -13.5q-102 0 -161 60.5t-59 175.5q0 113 55.5 172.5t152.5 59.5q88 0 135.5 -47.5t47.5 -131.5q0 -33 -2 -49l-297 -9q2 -85 41.5 -130t109.5 -45q91 0 133 86zM241 413
q-110 0 -118 -156l203 16q5 22 5 44q0 40 -24.5 68t-65.5 28z" />
    <glyph glyph-name="Eogonek" unicode="&#x118;" horiz-adv-x="585" 
d="M538 152l25 -8l-31 -101l-13 -43h-50q-69 -52 -69 -91q0 -38 38 -38q26 0 51 22l29 -65q-37 -21 -74 -21q-42 0 -70.5 22.5t-28.5 58.5q0 62 79 112h-384v26q29 0 42 9t13 35v497q0 26 -13 35t-42 9v26h474l8 -42l21 -105l-26 -5q-10 50 -23 73t-39 23h-260v-223h194
q26 0 35 10.5t9 35.5h26v-147h-26q0 25 -9 35.5t-35 10.5h-194v-247h271q25 0 41 23.5t31 72.5z" />
    <glyph glyph-name="eogonek" unicode="&#x119;" horiz-adv-x="456" 
d="M289 -4q-65 -47 -65 -87q0 -38 38 -38q26 0 51 22l29 -65q-37 -21 -74 -21q-42 0 -70.5 22.5t-28.5 58.5q0 57 69 105q-96 4 -152 64.5t-56 171.5q0 113 55.5 172.5t152.5 59.5q88 0 135.5 -47.5t47.5 -131.5q0 -33 -2 -49l-297 -9q2 -85 41.5 -130t109.5 -45
q91 0 133 86l20 -8q-37 -111 -137 -131zM241 413q-110 0 -118 -156l203 16q5 22 5 44q0 40 -24.5 68t-65.5 28z" />
    <glyph glyph-name="Ecaron" unicode="&#x11a;" horiz-adv-x="585" 
d="M319 673h-44l-99 108h84l37 -57l37 57h84zM538 152l25 -8l-31 -101l-13 -43h-479v26q29 0 42 9t13 35v497q0 26 -13 35t-42 9v26h474l8 -42l21 -105l-26 -5q-10 50 -23 73t-39 23h-260v-223h194q26 0 35 10.5t9 35.5h26v-147h-26q0 25 -9 35.5t-35 10.5h-194v-247h271
q25 0 41 23.5t31 72.5z" />
    <glyph glyph-name="ecaron" unicode="&#x11b;" horiz-adv-x="456" 
d="M250 519h-44l-99 108h84l37 -57l37 57h84zM406 135l20 -8q-7 -22 -18.5 -42t-31.5 -42.5t-52.5 -36t-73.5 -13.5q-102 0 -161 60.5t-59 175.5q0 113 55.5 172.5t152.5 59.5q88 0 135.5 -47.5t47.5 -131.5q0 -33 -2 -49l-297 -9q2 -85 41.5 -130t109.5 -45q91 0 133 86z
M241 413q-110 0 -118 -156l203 16q5 22 5 44q0 40 -24.5 68t-65.5 28z" />
    <glyph glyph-name="Gbreve" unicode="&#x11e;" horiz-adv-x="642" 
d="M212 793h77q-24 -81 22 -81q45 0 21 81h77q2 -55 -26 -81.5t-72 -26.5q-43 0 -72 28.5t-27 79.5zM319 -7q-135 0 -208 89t-73 246q0 145 79 232t210 87q69 0 119 -20t75.5 -54.5t36.5 -72.5t11 -82v-17l-113 10q12 37 12 72q0 52 -34.5 80.5t-92.5 28.5
q-88 0 -145.5 -61.5t-57.5 -202.5q0 -121 57 -194.5t154 -73.5q81 0 134 30l11 72q5 36 -17 57t-71 28l-142 19v21h321l-1 -104q0 -31 10 -42q-36 -67 -106 -107.5t-169 -40.5z" />
    <glyph glyph-name="gbreve" unicode="&#x11f;" horiz-adv-x="476" 
d="M233 529q-43 0 -72 28.5t-27 79.5h77q-24 -81 22 -81q45 0 21 81h77q2 -55 -26 -81.5t-72 -26.5zM444 452v-19l-91 -30q46 -38 46 -105q0 -66 -49 -110.5t-133 -44.5q-39 0 -68 10l-35 -30q17 -20 79 -25l114 -8q62 -5 97.5 -34t35.5 -81q0 -62 -51 -103t-159 -41
q-110 0 -163 41t-44 107l98 52q-40 7 -61.5 35.5t-15.5 69.5l78 27q-41 20 -63.5 57t-22.5 82q0 68 48.5 113.5t132.5 45.5q37 0 65 -9h162zM219 190q84 0 84 112t-84 112t-84 -112t84 -112zM273 20l-118 8l-56 -54q-10 -42 22 -71.5t110 -29.5q62 0 93.5 23t31.5 58
q0 60 -83 66z" />
    <glyph glyph-name="Gdotaccent" unicode="&#x120;" horiz-adv-x="642" 
d="M239 781l71 71l72 -71l-72 -72zM319 -7q-135 0 -208 89t-73 246q0 145 79 232t210 87q69 0 119 -20t75.5 -54.5t36.5 -72.5t11 -82v-17l-113 10q12 37 12 72q0 52 -34.5 80.5t-92.5 28.5q-88 0 -145.5 -61.5t-57.5 -202.5q0 -121 57 -194.5t154 -73.5q81 0 134 30l11 72
q5 36 -17 57t-71 28l-142 19v21h321l-1 -104q0 -31 10 -42q-36 -67 -106 -107.5t-169 -40.5z" />
    <glyph glyph-name="gdotaccent" unicode="&#x121;" horiz-adv-x="476" 
d="M304 596l-72 -72l-71 72l71 71zM444 452v-19l-91 -30q46 -38 46 -105q0 -66 -49 -110.5t-133 -44.5q-39 0 -68 10l-35 -30q17 -20 79 -25l114 -8q62 -5 97.5 -34t35.5 -81q0 -62 -51 -103t-159 -41q-110 0 -163 41t-44 107l98 52q-40 7 -61.5 35.5t-15.5 69.5l78 27
q-41 20 -63.5 57t-22.5 82q0 68 48.5 113.5t132.5 45.5q37 0 65 -9h162zM219 190q84 0 84 112t-84 112t-84 -112t84 -112zM273 20l-118 8l-56 -54q-10 -42 22 -71.5t110 -29.5q62 0 93.5 23t31.5 58q0 60 -83 66z" />
    <glyph glyph-name="uni0122" unicode="&#x122;" horiz-adv-x="642" 
d="M319 -7q-135 0 -208 89t-73 246q0 145 79 232t210 87q69 0 119 -20t75.5 -54.5t36.5 -72.5t11 -82v-17l-113 10q12 37 12 72q0 52 -34.5 80.5t-92.5 28.5q-88 0 -145.5 -61.5t-57.5 -202.5q0 -121 57 -194.5t154 -73.5q81 0 134 30l11 72q5 36 -17 57t-71 28l-142 19v21
h321l-1 -104q0 -31 10 -42q-36 -67 -106 -107.5t-169 -40.5zM254 -90l71 71l72 -71l-65 -187h-7v115z" />
    <glyph glyph-name="uni0123" unicode="&#x123;" horiz-adv-x="476" 
d="M304 542l-71 -71l-72 71l65 187h7v-115zM444 452v-19l-91 -30q46 -38 46 -105q0 -66 -49 -110.5t-133 -44.5q-39 0 -68 10l-35 -30q17 -20 79 -25l114 -8q62 -5 97.5 -34t35.5 -81q0 -62 -51 -103t-159 -41q-110 0 -163 41t-44 107l98 52q-40 7 -61.5 35.5t-15.5 69.5
l78 27q-41 20 -63.5 57t-22.5 82q0 68 48.5 113.5t132.5 45.5q37 0 65 -9h162zM219 190q84 0 84 112t-84 112t-84 -112t84 -112zM273 20l-118 8l-56 -54q-10 -42 22 -71.5t110 -29.5q62 0 93.5 23t31.5 58q0 60 -83 66z" />
    <glyph glyph-name="Hbar" unicode="&#x126;" horiz-adv-x="673" 
d="M633 611q-29 0 -42 -9t-13 -35v-96h51v-39h-51v-362q0 -26 13 -35t42 -9v-26h-210v26q29 0 42 9t13 35v251h-283v-251q0 -26 13 -35t42 -9v-26h-210v26q29 0 42 9t13 35v362h-50v39h50v96q0 26 -13 35t-42 9v26h210v-26q-29 0 -42 -9t-13 -35v-96h283v96q0 26 -13 35
t-42 9v26h210v-26zM478 377v55h-283v-55h283z" />
    <glyph glyph-name="hbar" unicode="&#x127;" horiz-adv-x="530" 
d="M454 70q0 -26 10.5 -35t35.5 -9v-26h-188v26q25 0 35.5 9t10.5 35v207q0 69 -15 99t-57 30q-49 0 -80.5 -52t-31.5 -174v-110q0 -26 10.5 -35t35.5 -9v-26h-188v26q25 0 35.5 9t10.5 35v461h-46v39h46q-1 24 -11.5 32.5t-34.5 8.5v26h142v-67h155v-39h-155v-200h2
q7 55 42 92.5t97 37.5q139 0 139 -166v-225z" />
    <glyph glyph-name="Imacron" unicode="&#x12a;" horiz-adv-x="308" 
d="M5 755h297v-39h-297v39zM204 70q0 -26 16 -35t53 -9v-26h-238v26q37 0 53 9t16 35v497q0 26 -16 35t-53 9v26h238v-26q-37 0 -53 -9t-16 -35v-497z" />
    <glyph glyph-name="imacron" unicode="&#x12b;" horiz-adv-x="248" 
d="M-26 570h297v-39h-297v39zM172 70q0 -26 10.5 -35t35.5 -9v-26h-188v26q25 0 35.5 9t10.5 35v312q0 26 -10.5 35t-35.5 9v26h142v-382z" />
    <glyph glyph-name="Iogonek" unicode="&#x12e;" horiz-adv-x="308" 
d="M273 611q-37 0 -53 -9t-16 -35v-497q0 -26 16 -35t53 -9v-26h-67q-69 -52 -69 -91q0 -38 38 -38q26 0 51 22l29 -65q-37 -21 -74 -21q-42 0 -70.5 22.5t-28.5 58.5q0 62 79 112h-126v26q37 0 53 9t16 35v497q0 26 -16 35t-53 9v26h238v-26z" />
    <glyph glyph-name="iogonek" unicode="&#x12f;" horiz-adv-x="248" 
d="M194 596l-72 -72l-71 72l71 71zM157 0q-69 -52 -69 -91q0 -38 38 -38q26 0 51 22l29 -65q-37 -21 -74 -21q-42 0 -70.5 22.5t-28.5 58.5q0 62 79 112h-82v26q25 0 35.5 9t10.5 35v312q0 26 -10.5 35t-35.5 9v26h142v-382q0 -26 10.5 -35t35.5 -9v-26h-61z" />
    <glyph glyph-name="Idotaccent" unicode="&#x130;" horiz-adv-x="308" 
d="M82 781l71 71l72 -71l-72 -72zM204 70q0 -26 16 -35t53 -9v-26h-238v26q37 0 53 9t16 35v497q0 26 -16 35t-53 9v26h238v-26q-37 0 -53 -9t-16 -35v-497z" />
    <glyph glyph-name="dotlessi" unicode="&#x131;" horiz-adv-x="248" 
d="M172 70q0 -26 10.5 -35t35.5 -9v-26h-188v26q25 0 35.5 9t10.5 35v312q0 26 -10.5 35t-35.5 9v26h142v-382z" />
    <glyph glyph-name="uni0136" unicode="&#x136;" horiz-adv-x="651" 
d="M554 57q14 -20 37 -25.5t59 -5.5v-26h-258v26q58 0 61 8q2 6 -10 23l-171 241l-77 -99v-129q0 -26 13 -35t42 -9v-26h-210v26q29 0 42 9t13 35v497q0 26 -13 35t-42 9v26h210v-26q-29 0 -42 -9t-13 -35v-262l214 277q17 21 6 26q-10 3 -55 3v26h251v-26q-33 0 -49.5 -1
t-37 -7.5t-30.5 -20.5l-205 -262l81 -6zM248 -90l71 71l72 -71l-65 -187h-7v115z" />
    <glyph glyph-name="uni0137" unicode="&#x137;" horiz-adv-x="515" 
d="M430 59q21 -33 77 -33v-26h-135l-145 212l-53 -58v-84q0 -26 10.5 -35t35.5 -9v-26h-188v26q25 0 35.5 9t10.5 35v497q0 26 -10.5 35t-35.5 9v26h142v-408l156 171q18 20 10 23t-55 3v26h206v-26q-70 0 -103 -36l-142 -156l71 -3zM174 -90l71 71l72 -71l-65 -187h-7v115z
" />
    <glyph glyph-name="Lacute" unicode="&#x139;" horiz-adv-x="501" 
d="M235 770q-24 -35 -69 -58.5t-99 -26.5l-3 10q45 24 71 56.5t46 80.5zM458 152l25 -6l-25 -104l-11 -42h-407v26q29 0 42 9t13 35v497q0 26 -13 35t-42 9v26h210v-26q-29 0 -42 -9t-13 -35v-511h196q25 0 40 23t27 73z" />
    <glyph glyph-name="lacute" unicode="&#x13a;" horiz-adv-x="252" 
d="M221 770q-24 -35 -69 -58.5t-99 -26.5l-3 10q45 24 71 56.5t46 80.5zM174 70q0 -26 10.5 -35t35.5 -9v-26h-188v26q25 0 35.5 9t10.5 35v497q0 26 -10.5 35t-35.5 9v26h142v-567z" />
    <glyph glyph-name="uni013B" unicode="&#x13b;" horiz-adv-x="501" 
d="M458 152l25 -6l-25 -104l-11 -42h-407v26q29 0 42 9t13 35v497q0 26 -13 35t-42 9v26h210v-26q-29 0 -42 -9t-13 -35v-511h196q25 0 40 23t27 73zM201 -90l71 71l72 -71l-65 -187h-7v115z" />
    <glyph glyph-name="uni013C" unicode="&#x13c;" horiz-adv-x="252" 
d="M174 70q0 -26 10.5 -35t35.5 -9v-26h-188v26q25 0 35.5 9t10.5 35v497q0 26 -10.5 35t-35.5 9v26h142v-567zM56 -90l71 71l72 -71l-65 -187h-7v115z" />
    <glyph glyph-name="Lcaron" unicode="&#x13d;" horiz-adv-x="501" 
d="M388 425v115l-71 72l71 71l72 -71l-65 -187h-7zM458 152l25 -6l-25 -104l-11 -42h-407v26q29 0 42 9t13 35v497q0 26 -13 35t-42 9v26h210v-26q-29 0 -42 -9t-13 -35v-511h196q25 0 40 23t27 73z" />
    <glyph glyph-name="lcaron" unicode="&#x13e;" horiz-adv-x="371" 
d="M214 612l71 71l72 -71l-65 -187h-7v115zM174 70q0 -26 10.5 -35t35.5 -9v-26h-188v26q25 0 35.5 9t10.5 35v497q0 26 -10.5 35t-35.5 9v26h142v-567z" />
    <glyph glyph-name="Lslash" unicode="&#x141;" horiz-adv-x="501" 
d="M458 152l25 -6l-25 -104l-11 -42h-407v26q29 0 42 9t13 35v217l-55 -16l-10 33l65 19v244q0 26 -13 35t-42 9v26h210v-26q-29 0 -42 -9t-13 -35v-216l56 16l10 -33l-66 -19v-259h196q25 0 40 23t27 73z" />
    <glyph glyph-name="lslash" unicode="&#x142;" horiz-adv-x="329" 
d="M213 70q0 -26 10.5 -35t35.5 -9v-26h-188v26q25 0 35.5 9t10.5 35v191l-53 -45l-32 37l85 73v241q0 26 -10.5 35t-35.5 9v26h142v-229l52 44l32 -37l-84 -72v-273z" />
    <glyph glyph-name="Nacute" unicode="&#x143;" horiz-adv-x="694" 
d="M435 770q-24 -35 -69 -58.5t-99 -26.5l-3 10q45 24 71 56.5t46 80.5zM654 611q-29 0 -42 -9t-13 -35v-497q0 -26 13 -35t42 -9v-26h-182l-309 551v-481q0 -26 21 -35t71 -9v-26h-215v26q29 0 42 9t13 35v497q0 26 -13 35t-42 9v26h181l310 -552v482q0 26 -21 35t-71 9v26
h215v-26z" />
    <glyph glyph-name="nacute" unicode="&#x144;" horiz-adv-x="532" 
d="M347 600q-69 -77 -166 -96l-5 10q45 31 70.5 66.5t46.5 83.5zM456 70q0 -26 10.5 -35t35.5 -9v-26h-188v26q25 0 35.5 9t10.5 35v207q0 69 -15 99t-57 30q-49 0 -80.5 -52t-31.5 -174v-110q0 -26 10.5 -35t35.5 -9v-26h-188v26q25 0 35.5 9t10.5 35v312q0 26 -10.5 35
t-35.5 9v26h142v-121h2q7 55 42 92.5t97 37.5q139 0 139 -166v-225z" />
    <glyph glyph-name="uni0145" unicode="&#x145;" horiz-adv-x="694" 
d="M654 611q-29 0 -42 -9t-13 -35v-497q0 -26 13 -35t42 -9v-26h-182l-309 551v-481q0 -26 21 -35t71 -9v-26h-215v26q29 0 42 9t13 35v497q0 26 -13 35t-42 9v26h181l310 -552v482q0 26 -21 35t-71 9v26h215v-26zM275 -90l71 71l72 -71l-65 -187h-7v115z" />
    <glyph glyph-name="uni0146" unicode="&#x146;" horiz-adv-x="532" 
d="M456 70q0 -26 10.5 -35t35.5 -9v-26h-188v26q25 0 35.5 9t10.5 35v207q0 69 -15 99t-57 30q-49 0 -80.5 -52t-31.5 -174v-110q0 -26 10.5 -35t35.5 -9v-26h-188v26q25 0 35.5 9t10.5 35v312q0 26 -10.5 35t-35.5 9v26h142v-121h2q7 55 42 92.5t97 37.5q139 0 139 -166
v-225zM196 -90l71 71l72 -71l-65 -187h-7v115z" />
    <glyph glyph-name="Ncaron" unicode="&#x147;" horiz-adv-x="694" 
d="M369 673h-44l-99 108h84l37 -57l37 57h84zM654 611q-29 0 -42 -9t-13 -35v-497q0 -26 13 -35t42 -9v-26h-182l-309 551v-481q0 -26 21 -35t71 -9v-26h-215v26q29 0 42 9t13 35v497q0 26 -13 35t-42 9v26h181l310 -552v482q0 26 -21 35t-71 9v26h215v-26z" />
    <glyph glyph-name="ncaron" unicode="&#x148;" horiz-adv-x="532" 
d="M290 519h-44l-99 108h84l37 -57l37 57h84zM456 70q0 -26 10.5 -35t35.5 -9v-26h-188v26q25 0 35.5 9t10.5 35v207q0 69 -15 99t-57 30q-49 0 -80.5 -52t-31.5 -174v-110q0 -26 10.5 -35t35.5 -9v-26h-188v26q25 0 35.5 9t10.5 35v312q0 26 -10.5 35t-35.5 9v26h142v-121
h2q7 55 42 92.5t97 37.5q139 0 139 -166v-225z" />
    <glyph glyph-name="Eng" unicode="&#x14a;" horiz-adv-x="699" 
d="M485 -193q-91 0 -130 68l96 31q13 -60 35 -60q17 0 17 22v32q0 46 -31 100l-309 551v-481q0 -26 21 -35t71 -9v-26h-215v26q29 0 42 9t13 35v497q0 26 -13 35t-42 9v26h181l242 -430q48 -85 65 -152h3v512q0 26 -21 35t-71 9v26h215v-26q-29 0 -42 -9t-13 -35v-652
q0 -56 -28 -82t-86 -26z" />
    <glyph glyph-name="eng" unicode="&#x14b;" horiz-adv-x="516" 
d="M317 461q139 0 139 -166v-380q0 -56 -28 -82t-86 -26q-91 0 -130 68l96 31q13 -60 35 -60q17 0 17 22v409q0 69 -15 99t-57 30q-49 0 -80.5 -52t-31.5 -174v-110q0 -26 10.5 -35t35.5 -9v-26h-188v26q25 0 35.5 9t10.5 35v312q0 26 -10.5 35t-35.5 9v26h142v-103
q11 48 47.5 80t93.5 32z" />
    <glyph glyph-name="Omacron" unicode="&#x14c;" horiz-adv-x="646" 
d="M174 755h297v-39h-297v39zM323 647q138 0 211.5 -89t73.5 -233q0 -145 -74 -238.5t-211 -93.5t-211 93.5t-74 238.5q0 144 73.5 233t211.5 89zM323 48q85 0 133 71.5t48 205.5q0 133 -48 200t-133 67t-133 -67t-48 -200q0 -134 48 -205.5t133 -71.5z" />
    <glyph glyph-name="omacron" unicode="&#x14d;" horiz-adv-x="492" 
d="M97 570h297v-39h-297v39zM246 461q102 0 159 -63t57 -171t-57 -171t-159 -63t-159 63t-57 171t57 171t159 63zM246 41q114 0 114 186t-114 186t-114 -186t114 -186z" />
    <glyph glyph-name="Ohungarumlaut" unicode="&#x150;" horiz-adv-x="646" 
d="M330 831l-55 -134h-17v134h72zM428 831l-55 -134h-16v134h71zM323 647q138 0 211.5 -89t73.5 -233q0 -145 -74 -238.5t-211 -93.5t-211 93.5t-74 238.5q0 144 73.5 233t211.5 89zM323 48q85 0 133 71.5t48 205.5q0 133 -48 200t-133 67t-133 -67t-48 -200
q0 -134 48 -205.5t133 -71.5z" />
    <glyph glyph-name="ohungarumlaut" unicode="&#x151;" horiz-adv-x="492" 
d="M253 646l-55 -134h-17v134h72zM351 646l-55 -134h-16v134h71zM246 461q102 0 159 -63t57 -171t-57 -171t-159 -63t-159 63t-57 171t57 171t159 63zM246 41q114 0 114 186t-114 186t-114 -186t114 -186z" />
    <glyph glyph-name="OE" unicode="&#x152;" horiz-adv-x="984" 
d="M937 152l25 -8l-31 -101l-13 -43h-414v63q-67 -70 -181 -70q-137 0 -211 93.5t-74 238.5q0 144 73.5 233t211.5 89q115 0 181 -66v56h419l8 -42l21 -105l-26 -5q-10 50 -23 73t-39 23h-260v-223h195q26 0 35 10.5t9 35.5h26v-147h-26q0 25 -9 35.5t-35 10.5h-195v-247
h261q25 0 41 23.5t31 72.5zM323 48q85 0 133 71.5t48 205.5q0 133 -48 200t-133 67t-133 -67t-48 -200q0 -134 48 -205.5t133 -71.5z" />
    <glyph glyph-name="oe" unicode="&#x153;" horiz-adv-x="788" 
d="M30 227q0 108 57 171t159 63q114 0 164 -98q51 98 168 98q87 0 130 -46.5t43 -132.5q0 -35 -2 -49l-286 -19q4 -79 44 -122t106 -43q28 0 49.5 7.5t35.5 23t21 26.5t15 29l24 -8q-8 -22 -19.5 -42t-32 -42.5t-53 -36t-73.5 -13.5q-119 0 -170 97q-50 -97 -164 -97
q-102 0 -159 63t-57 171zM132 227q0 -186 114 -186q113 0 113 186t-113 186q-114 0 -114 -186zM462 250l194 23q5 20 5 44q0 42 -20 69t-60 27q-114 0 -119 -163z" />
    <glyph glyph-name="Racute" unicode="&#x154;" horiz-adv-x="593" 
d="M356 770q-24 -35 -69 -58.5t-99 -26.5l-3 10q45 24 71 56.5t46 80.5zM409 225l174 -206v-19h-203v26q57 0 60 7q3 6 -11 23l-234 306v-292q0 -26 13 -35t42 -9v-26h-210v26q29 0 42 9t13 35v497q0 26 -13 35t-42 9v26h281q89 0 139 -40.5t50 -111.5q0 -73 -51.5 -110.5
t-121.5 -37.5q-37 0 -61 8l-2 -5q79 -47 135 -115zM195 481q0 -46 34 -75t79 -29q49 0 74 27t25 71q0 106 -110 106h-102v-100z" />
    <glyph glyph-name="racute" unicode="&#x155;" horiz-adv-x="403" 
d="M303 600q-69 -77 -166 -96l-5 10q45 31 70.5 66.5t46.5 83.5zM311 458q61 0 87 -40l-33 -92l-11 3q1 22 -16 39t-46 17q-116 0 -116 -251v-64q0 -26 10.5 -35t35.5 -9v-26h-188v26q25 0 35.5 9t10.5 35v312q0 26 -10.5 35t-35.5 9v26h142v-160h2q29 166 133 166z" />
    <glyph glyph-name="uni0156" unicode="&#x156;" horiz-adv-x="593" 
d="M409 225l174 -206v-19h-203v26q57 0 60 7q3 6 -11 23l-234 306v-292q0 -26 13 -35t42 -9v-26h-210v26q29 0 42 9t13 35v497q0 26 -13 35t-42 9v26h281q89 0 139 -40.5t50 -111.5q0 -73 -51.5 -110.5t-121.5 -37.5q-37 0 -61 8l-2 -5q79 -47 135 -115zM195 481
q0 -46 34 -75t79 -29q49 0 74 27t25 71q0 106 -110 106h-102v-100zM241 -90l71 71l72 -71l-65 -187h-7v115z" />
    <glyph glyph-name="uni0157" unicode="&#x157;" horiz-adv-x="403" 
d="M311 458q61 0 87 -40l-33 -92l-11 3q1 22 -16 39t-46 17q-116 0 -116 -251v-64q0 -26 10.5 -35t35.5 -9v-26h-188v26q25 0 35.5 9t10.5 35v312q0 26 -10.5 35t-35.5 9v26h142v-160h2q29 166 133 166zM59 -90l71 71l72 -71l-65 -187h-7v115z" />
    <glyph glyph-name="Rcaron" unicode="&#x158;" horiz-adv-x="593" 
d="M290 673h-44l-99 108h84l37 -57l37 57h84zM409 225l174 -206v-19h-203v26q57 0 60 7q3 6 -11 23l-234 306v-292q0 -26 13 -35t42 -9v-26h-210v26q29 0 42 9t13 35v497q0 26 -13 35t-42 9v26h281q89 0 139 -40.5t50 -111.5q0 -73 -51.5 -110.5t-121.5 -37.5q-37 0 -61 8
l-2 -5q79 -47 135 -115zM195 481q0 -46 34 -75t79 -29q49 0 74 27t25 71q0 106 -110 106h-102v-100z" />
    <glyph glyph-name="rcaron" unicode="&#x159;" horiz-adv-x="403" 
d="M246 519h-44l-99 108h84l37 -57l37 57h84zM311 458q61 0 87 -40l-33 -92l-11 3q1 22 -16 39t-46 17q-116 0 -116 -251v-64q0 -26 10.5 -35t35.5 -9v-26h-188v26q25 0 35.5 9t10.5 35v312q0 26 -10.5 35t-35.5 9v26h142v-160h2q29 166 133 166z" />
    <glyph glyph-name="Sacute" unicode="&#x15a;" horiz-adv-x="526" 
d="M352 770q-24 -35 -69 -58.5t-99 -26.5l-3 10q45 24 71 56.5t46 80.5zM370 350q72 -25 100 -67.5t28 -105.5q0 -85 -60 -134.5t-171 -49.5q-82 0 -143 29t-94 73v202h21q4 -114 69 -182.5t158 -68.5q62 0 95 28.5t33 77.5q0 38 -19.5 63.5t-66.5 42.5l-137 48
q-74 26 -105.5 65.5t-31.5 100.5q0 74 58 124.5t166 50.5q125 0 200 -67l10 -172h-21q-13 95 -62.5 140.5t-120.5 45.5q-72 0 -106 -28.5t-34 -70.5q0 -32 18.5 -53t61.5 -37z" />
    <glyph glyph-name="sacute" unicode="&#x15b;" horiz-adv-x="401" 
d="M279 600q-69 -77 -166 -96l-5 10q45 31 70.5 66.5t46.5 83.5zM265 262q110 -30 110 -135q0 -134 -175 -134q-119 0 -175 72v125h17q29 -149 155 -149q43 0 67.5 20t24.5 57q0 53 -64 70l-89 23q-101 26 -101 112q0 60 46 99t127 39q89 0 145 -48l10 -118l-17 -2
q-44 120 -138 120q-37 0 -62 -19t-25 -49q0 -24 13.5 -37.5t53.5 -24.5z" />
    <glyph glyph-name="Scedilla" unicode="&#x15e;" horiz-adv-x="526" 
d="M498 177q0 -78 -51 -126.5t-146 -56.5l-43 -50q9 3 23 3q27 0 46 -16.5t19 -49.5q0 -37 -23 -59t-62 -22q-36 0 -57.5 19t-21.5 46q0 20 6 34l53 -9q-8 -14 -8 -28q0 -11 8.5 -18t20.5 -7q18 0 26 11.5t8 25.5q0 52 -56 52q-18 0 -34 -3l32 71q-139 10 -208 101v202h21
q4 -114 69 -182.5t158 -68.5q62 0 95 28.5t33 77.5q0 38 -19.5 63.5t-66.5 42.5l-137 48q-74 26 -105.5 65.5t-31.5 100.5q0 74 58 124.5t166 50.5q125 0 200 -67l10 -172h-21q-13 95 -62.5 140.5t-120.5 45.5q-72 0 -106 -28.5t-34 -70.5q0 -32 18.5 -53t61.5 -37l154 -55
q72 -25 100 -67.5t28 -105.5z" />
    <glyph glyph-name="scedilla" unicode="&#x15f;" horiz-adv-x="401" 
d="M375 127q0 -117 -137 -132l-44 -51q9 3 23 3q27 0 46 -16.5t19 -49.5q0 -37 -23 -59t-62 -22q-36 0 -57.5 19t-21.5 46q0 20 6 34l53 -9q-8 -14 -8 -28q0 -11 8.5 -18t20.5 -7q18 0 26 11.5t8 25.5q0 52 -56 52q-18 0 -34 -3l32 71q-100 9 -149 71v125h17
q29 -149 155 -149q43 0 67.5 20t24.5 57q0 53 -64 70l-89 23q-101 26 -101 112q0 60 46 99t127 39q89 0 145 -48l10 -118l-17 -2q-44 120 -138 120q-37 0 -62 -19t-25 -49q0 -24 13.5 -37.5t53.5 -24.5l77 -21q110 -30 110 -135z" />
    <glyph glyph-name="Scaron" unicode="&#x160;" horiz-adv-x="526" 
d="M143 781h84l37 -57l37 57h84l-99 -108h-44zM370 350q72 -25 100 -67.5t28 -105.5q0 -85 -60 -134.5t-171 -49.5q-82 0 -143 29t-94 73v202h21q4 -114 69 -182.5t158 -68.5q62 0 95 28.5t33 77.5q0 38 -19.5 63.5t-66.5 42.5l-137 48q-74 26 -105.5 65.5t-31.5 100.5
q0 74 58 124.5t166 50.5q125 0 200 -67l10 -172h-21q-13 95 -62.5 140.5t-120.5 45.5q-72 0 -106 -28.5t-34 -70.5q0 -32 18.5 -53t61.5 -37z" />
    <glyph glyph-name="scaron" unicode="&#x161;" horiz-adv-x="401" 
d="M79 627h84l37 -57l37 57h84l-99 -108h-44zM265 262q110 -30 110 -135q0 -134 -175 -134q-119 0 -175 72v125h17q29 -149 155 -149q43 0 67.5 20t24.5 57q0 53 -64 70l-89 23q-101 26 -101 112q0 60 46 99t127 39q89 0 145 -48l10 -118l-17 -2q-44 120 -138 120
q-37 0 -62 -19t-25 -49q0 -24 13.5 -37.5t53.5 -24.5z" />
    <glyph glyph-name="uni0162" unicode="&#x162;" horiz-adv-x="559" 
d="M544 595l9 -106l-26 -2q-4 49 -15 71.5t-37 22.5h-145v-511q0 -26 16 -35t53 -9v-26h-77l-48 -56q9 3 23 3q27 0 46 -16.5t19 -49.5q0 -37 -23 -59t-62 -22q-36 0 -57.5 19t-21.5 46q0 20 6 34l53 -9q-8 -14 -8 -28q0 -11 8.5 -18t20.5 -7q18 0 26 11.5t8 25.5
q0 52 -56 52q-18 0 -34 -3l34 77h-95v26q37 0 53 9t16 35v511h-145q-26 0 -37 -22t-17 -73l-25 3l10 106l6 55q24 -13 73 -13h371q48 0 73 13z" />
    <glyph glyph-name="uni0163" unicode="&#x163;" horiz-adv-x="370" 
d="M345 396h-159v-266q0 -36 18 -56t50 -20q55 0 64 75h20q-3 -120 -95 -134l-44 -51q9 3 23 3q27 0 46 -16.5t19 -49.5q0 -37 -23 -59t-62 -22q-36 0 -57.5 19t-21.5 46q0 20 6 34l53 -9q-8 -14 -8 -28q0 -11 8.5 -18t20.5 -7q18 0 26 11.5t8 25.5q0 52 -56 52
q-17 0 -34 -3l33 74q-90 20 -90 139v260h-74v39q67 9 98.5 47t37.5 109h34v-156l81 17h78v-56z" />
    <glyph glyph-name="Tcaron" unicode="&#x164;" horiz-adv-x="559" 
d="M302 673h-44l-99 108h84l37 -57l37 57h84zM544 595l9 -106l-26 -2q-4 49 -15 71.5t-37 22.5h-145v-511q0 -26 16 -35t53 -9v-26h-238v26q37 0 53 9t16 35v511h-145q-26 0 -37 -22t-17 -73l-25 3l10 106l6 55q24 -13 73 -13h371q48 0 73 13z" />
    <glyph glyph-name="tcaron" unicode="&#x165;" horiz-adv-x="370" 
d="M278 495v65l-66 52l66 71l67 -71l-60 -117h-7zM186 435l81 17h78v-56h-159v-266q0 -36 18 -56t50 -20q55 0 64 75h20q-3 -136 -122 -136q-61 0 -93.5 37t-32.5 106v260h-74v39q67 9 98.5 47t37.5 109h34v-156z" />
    <glyph glyph-name="Tbar" unicode="&#x166;" horiz-adv-x="559" 
d="M544 595l9 -106l-26 -2q-4 49 -15 71.5t-37 22.5h-145v-243h116v-39h-116v-229q0 -26 16 -35t53 -9v-26h-238v26q37 0 53 9t16 35v229h-116v39h116v243h-145q-26 0 -37 -22t-17 -73l-25 3l10 106l6 55q24 -13 73 -13h371q48 0 73 13z" />
    <glyph glyph-name="tbar" unicode="&#x167;" horiz-adv-x="370" 
d="M345 396h-159v-91h139v-39h-139v-136q0 -36 18 -56t50 -20q55 0 64 75h20q-3 -136 -122 -136q-61 0 -93.5 37t-32.5 106v130h-62v39h62v91h-74v39q67 9 98.5 47t37.5 109h34v-156l81 17h78v-56z" />
    <glyph glyph-name="Umacron" unicode="&#x16a;" horiz-adv-x="617" 
d="M160 755h297v-39h-297v39zM230 638v-26q-29 0 -42 -9t-13 -35v-331q0 -187 150 -187q149 0 149 173v344q0 26 -17 35t-57 9v26h197v-26q-29 0 -42 -9t-13 -35v-345q0 -230 -217 -230q-124 0 -187 57t-63 186v333q0 26 -13 35t-42 9v26h210z" />
    <glyph glyph-name="umacron" unicode="&#x16b;" horiz-adv-x="505" 
d="M387 570v-39h-297v39h297zM427 70q0 -26 10.5 -35t35.5 -9v-26h-142v105q-11 -48 -46 -80t-92 -32q-71 0 -105 38t-34 118v233q0 26 -10.5 35t-35.5 9v26h142v-275q0 -69 15 -99t57 -30q109 0 109 226v108q0 26 -10.5 35t-35.5 9v26h142v-382z" />
    <glyph glyph-name="Uring" unicode="&#x16e;" horiz-adv-x="617" 
d="M309 681q-24 0 -41 17t-17 41t17 41t41 17t41 -17t17 -41t-17 -41t-41 -17zM309 721q7 0 12.5 5.5t5.5 12.5t-5.5 12.5t-12.5 5.5t-12.5 -5.5t-5.5 -12.5t5.5 -12.5t12.5 -5.5zM230 638v-26q-29 0 -42 -9t-13 -35v-331q0 -187 150 -187q149 0 149 173v344q0 26 -17 35
t-57 9v26h197v-26q-29 0 -42 -9t-13 -35v-345q0 -230 -217 -230q-124 0 -187 57t-63 186v333q0 26 -13 35t-42 9v26h210z" />
    <glyph glyph-name="uring" unicode="&#x16f;" horiz-adv-x="505" 
d="M239 532q-24 0 -41 17t-17 41t17 40.5t41 16.5t41 -16.5t17 -40.5t-17 -41t-41 -17zM239 607q-18 0 -18 -17q0 -8 5.5 -13.5t12.5 -5.5t12.5 5.5t5.5 13.5q0 17 -18 17zM427 70q0 -26 10.5 -35t35.5 -9v-26h-142v105q-11 -48 -46 -80t-92 -32q-71 0 -105 38t-34 118v233
q0 26 -10.5 35t-35.5 9v26h142v-275q0 -69 15 -99t57 -30q109 0 109 226v108q0 26 -10.5 35t-35.5 9v26h142v-382z" />
    <glyph glyph-name="Uhungarumlaut" unicode="&#x170;" horiz-adv-x="617" 
d="M316 831l-55 -134h-17v134h72zM414 831l-55 -134h-16v134h71zM230 638v-26q-29 0 -42 -9t-13 -35v-331q0 -187 150 -187q149 0 149 173v344q0 26 -17 35t-57 9v26h197v-26q-29 0 -42 -9t-13 -35v-345q0 -230 -217 -230q-124 0 -187 57t-63 186v333q0 26 -13 35t-42 9v26
h210z" />
    <glyph glyph-name="uhungarumlaut" unicode="&#x171;" horiz-adv-x="505" 
d="M246 646l-55 -134h-17v134h72zM344 646l-55 -134h-16v134h71zM427 70q0 -26 10.5 -35t35.5 -9v-26h-142v105q-11 -48 -46 -80t-92 -32q-71 0 -105 38t-34 118v233q0 26 -10.5 35t-35.5 9v26h142v-275q0 -69 15 -99t57 -30q109 0 109 226v108q0 26 -10.5 35t-35.5 9v26
h142v-382z" />
    <glyph glyph-name="Uogonek" unicode="&#x172;" horiz-adv-x="617" 
d="M597 637v-26q-29 0 -42 -9t-13 -35v-345q0 -210 -182 -228q-61 -47 -61 -85t38 -38q26 0 51 22l29 -65q-37 -21 -74 -21q-42 0 -70.5 22.5t-28.5 58.5q0 57 68 104q-117 3 -177 60.5t-60 182.5v333q0 26 -13 35t-42 9v26h210v-26q-29 0 -42 -9t-13 -35v-331
q0 -187 150 -187q149 0 149 173v344q0 26 -17 35t-57 9v26h197z" />
    <glyph glyph-name="uogonek" unicode="&#x173;" horiz-adv-x="505" 
d="M427 70q0 -26 10.5 -35t35.5 -9v-26h-103q-69 -52 -69 -91q0 -38 38 -38q26 0 51 22l29 -65q-37 -21 -74 -21q-42 0 -70.5 22.5t-28.5 58.5q0 64 85 115v102q-11 -48 -46 -80t-92 -32q-71 0 -105 38t-34 118v233q0 26 -10.5 35t-35.5 9v26h142v-275q0 -69 15 -99t57 -30
q109 0 109 226v108q0 26 -10.5 35t-35.5 9v26h142v-382z" />
    <glyph glyph-name="Wcircumflex" unicode="&#x174;" horiz-adv-x="1058" 
d="M530 741l-37 -57h-84l99 108h44l99 -108h-84zM1057 637v-26q-31 0 -49.5 -8.5t-25.5 -32.5l-174 -570h-132l-142 456q-9 -74 -35 -146l-111 -310h-137l-174 570q-7 24 -25.5 32.5t-49.5 8.5v26h210v-26q-28 0 -35 -7.5t0 -33.5l159 -522l174 486l-11 36q-8 24 -30.5 32.5
t-64.5 8.5v26h175l179 -578l155 511q7 25 -4 33t-50 8v26h198z" />
    <glyph glyph-name="wcircumflex" unicode="&#x175;" horiz-adv-x="766" 
d="M385 596l-37 -57h-84l99 108h44l99 -108h-84zM760 452v-26q-52 0 -64 -42l-100 -384h-127l-73 237l-91 -237h-127l-104 384q-10 42 -64 42v26h142l108 -405l109 279l-18 59q-12 41 -66 41v26h142l123 -402l86 334q7 25 -7.5 33.5t-58.5 8.5v26h190z" />
    <glyph glyph-name="Ycircumflex" unicode="&#x176;" horiz-adv-x="611" 
d="M308 741l-37 -57h-84l99 108h44l99 -108h-84zM609 637v-26q-69 0 -89 -35l-170 -311v-195q0 -26 16 -35t53 -9v-26h-239v26q37 0 53 9t16 35v189l-157 315q-18 37 -86 37v26h159l150 -308l131 246q11 24 0.5 30t-59.5 6v26h222z" />
    <glyph glyph-name="ycircumflex" unicode="&#x177;" horiz-adv-x="525" 
d="M266 596l-37 -57h-84l99 108h44l99 -108h-84zM519 452v-26q-54 0 -68 -41l-152 -467q-23 -73 -52 -97.5t-80 -24.5q-70 0 -102 38t-25 97l86 -7q-4 -38 11 -57.5t38 -19.5t37 15t27 56l27 82h-60l-125 385q-14 41 -68 41v26h147l126 -389l105 322q9 25 -8 33t-72 8v26
h208z" />
    <glyph glyph-name="Ydieresis" unicode="&#x178;" horiz-adv-x="611" 
d="M296 749l-72 -72l-71 72l71 71zM463 749l-72 -72l-71 72l71 71zM609 637v-26q-69 0 -89 -35l-170 -311v-195q0 -26 16 -35t53 -9v-26h-239v26q37 0 53 9t16 35v189l-157 315q-18 37 -86 37v26h159l150 -308l131 246q11 24 0.5 30t-59.5 6v26h222z" />
    <glyph glyph-name="Zacute" unicode="&#x179;" horiz-adv-x="619" 
d="M397 770q-24 -35 -69 -58.5t-99 -26.5l-3 10q45 24 71 56.5t46 80.5zM572 197l25 -5l-33 -149l-13 -56q-15 13 -47 13h-464v9l343 497q34 51 63 78l-309 -8q-26 -1 -38.5 -27t-19.5 -83l-25 3l15 121l6 47h503v-11l-329 -461q-6 -9 -22.5 -32t-23.5 -32.5t-18.5 -23.5
t-21.5 -24l335 8q25 1 41.5 33t32.5 103z" />
    <glyph glyph-name="zacute" unicode="&#x17a;" horiz-adv-x="504" 
d="M326 600q-69 -77 -166 -96l-5 10q45 31 70.5 66.5t46.5 83.5zM234 117q-35 -48 -60 -68l197 9q26 1 39.5 29t24.5 89l26 -5l-23 -127l-10 -55q-25 11 -65 11h-331q28 21 58 62l206 291q30 40 50 58l-224 -12q-26 -1 -38.5 -25t-20.5 -74l-26 4l17 105l9 54q21 -11 60 -11
h338v-15z" />
    <glyph glyph-name="Zdotaccent" unicode="&#x17b;" horiz-adv-x="619" 
d="M380 781l-72 -72l-71 72l71 71zM572 197l25 -5l-33 -149l-13 -56q-15 13 -47 13h-464v9l343 497q34 51 63 78l-309 -8q-26 -1 -38.5 -27t-19.5 -83l-25 3l15 121l6 47h503v-11l-329 -461q-6 -9 -22.5 -32t-23.5 -32.5t-18.5 -23.5t-21.5 -24l335 8q25 1 41.5 33t32.5 103
z" />
    <glyph glyph-name="zdotaccent" unicode="&#x17c;" horiz-adv-x="504" 
d="M318 596l-72 -72l-71 72l71 71zM234 117q-35 -48 -60 -68l197 9q26 1 39.5 29t24.5 89l26 -5l-23 -127l-10 -55q-25 11 -65 11h-331q28 21 58 62l206 291q30 40 50 58l-224 -12q-26 -1 -38.5 -25t-20.5 -74l-26 4l17 105l9 54q21 -11 60 -11h338v-15z" />
    <glyph glyph-name="Zcaron" unicode="&#x17d;" horiz-adv-x="619" 
d="M331 673h-44l-99 108h84l37 -57l37 57h84zM572 197l25 -5l-33 -149l-13 -56q-15 13 -47 13h-464v9l343 497q34 51 63 78l-309 -8q-26 -1 -38.5 -27t-19.5 -83l-25 3l15 121l6 47h503v-11l-329 -461q-6 -9 -22.5 -32t-23.5 -32.5t-18.5 -23.5t-21.5 -24l335 8
q25 1 41.5 33t32.5 103z" />
    <glyph glyph-name="zcaron" unicode="&#x17e;" horiz-adv-x="504" 
d="M269 519h-44l-99 108h84l37 -57l37 57h84zM234 117q-35 -48 -60 -68l197 9q26 1 39.5 29t24.5 89l26 -5l-23 -127l-10 -55q-25 11 -65 11h-331q28 21 58 62l206 291q30 40 50 58l-224 -12q-26 -1 -38.5 -25t-20.5 -74l-26 4l17 105l9 54q21 -11 60 -11h338v-15z" />
    <glyph glyph-name="uni0218" unicode="&#x218;" horiz-adv-x="526" 
d="M370 350q72 -25 100 -67.5t28 -105.5q0 -85 -60 -134.5t-171 -49.5q-82 0 -143 29t-94 73v202h21q4 -114 69 -182.5t158 -68.5q62 0 95 28.5t33 77.5q0 38 -19.5 63.5t-66.5 42.5l-137 48q-74 26 -105.5 65.5t-31.5 100.5q0 74 58 124.5t166 50.5q125 0 200 -67l10 -172
h-21q-13 95 -62.5 140.5t-120.5 45.5q-72 0 -106 -28.5t-34 -70.5q0 -32 18.5 -53t61.5 -37zM192 -90l71 71l72 -71l-65 -187h-7v115z" />
    <glyph glyph-name="uni0219" unicode="&#x219;" horiz-adv-x="401" 
d="M265 262q110 -30 110 -135q0 -134 -175 -134q-119 0 -175 72v125h17q29 -149 155 -149q43 0 67.5 20t24.5 57q0 53 -64 70l-89 23q-101 26 -101 112q0 60 46 99t127 39q89 0 145 -48l10 -118l-17 -2q-44 120 -138 120q-37 0 -62 -19t-25 -49q0 -24 13.5 -37.5t53.5 -24.5
zM128 -90l71 71l72 -71l-65 -187h-7v115z" />
    <glyph glyph-name="uni021A" unicode="&#x21a;" horiz-adv-x="559" 
d="M544 595l9 -106l-26 -2q-4 49 -15 71.5t-37 22.5h-145v-511q0 -26 16 -35t53 -9v-26h-238v26q37 0 53 9t16 35v511h-145q-26 0 -37 -22t-17 -73l-25 3l10 106l6 55q24 -13 73 -13h371q48 0 73 13zM208 -90l71 71l72 -71l-65 -187h-7v115z" />
    <glyph glyph-name="uni021B" unicode="&#x21b;" horiz-adv-x="370" 
d="M345 396h-159v-266q0 -36 18 -56t50 -20q55 0 64 75h20q-3 -136 -122 -136q-61 0 -93.5 37t-32.5 106v260h-74v39q67 9 98.5 47t37.5 109h34v-156l81 17h78v-56zM133 -90l71 71l72 -71l-65 -187h-7v115z" />
    <glyph glyph-name="circumflex" unicode="&#x2c6;" horiz-adv-x="205" 
d="M17 539l99 108h44l99 -108h-84l-37 57l-37 -57h-84z" />
    <glyph glyph-name="caron" unicode="&#x2c7;" horiz-adv-x="245" 
d="M17 627h84l37 -57l37 57h84l-99 -108h-44z" />
    <glyph glyph-name="breve" unicode="&#x2d8;" horiz-adv-x="245" 
d="M24 637h77q-24 -81 22 -81q45 0 21 81h77q2 -55 -26 -81.5t-72 -26.5q-43 0 -72 28.5t-27 79.5z" />
    <glyph glyph-name="dotaccent" unicode="&#x2d9;" horiz-adv-x="205" 
d="M20 596l71 71l72 -71l-72 -72z" />
    <glyph glyph-name="ring" unicode="&#x2da;" horiz-adv-x="205" 
d="M75 532q-24 0 -41 17t-17 41t17 40.5t41 16.5t41 -16.5t17 -40.5t-17 -41t-41 -17zM75 571q7 0 12.5 5.5t5.5 13.5q0 17 -18 17t-18 -17q0 -8 5.5 -13.5t12.5 -5.5z" />
    <glyph glyph-name="ogonek" unicode="&#x2db;" horiz-adv-x="203" 
d="M183 -172q-37 -21 -74 -21q-42 0 -70.5 22.5t-28.5 58.5q0 37 30 70.5t76 56.5l31 -6q-82 -57 -82 -100q0 -38 38 -38q26 0 51 22z" />
    <glyph glyph-name="tilde" unicode="&#x2dc;" horiz-adv-x="205" 
d="M17 537q39 62 77 62q20 0 49 -10t45 -10t51 19l9 -12q-43 -51 -78 -51q-20 0 -48.5 10t-44.5 10q-26 0 -52 -26z" />
    <glyph glyph-name="hungarumlaut" unicode="&#x2dd;" horiz-adv-x="225" 
d="M99 646l-55 -134h-17v134h72zM197 646l-55 -134h-16v134h71z" />
    <glyph glyph-name="gravecomb" unicode="&#x300;" 
d="M-181 600l54 64q21 -48 46.5 -83.5t70.5 -66.5l-5 -10q-97 19 -166 96z" />
    <glyph glyph-name="acutecomb" unicode="&#x301;" 
d="M-3 600q-69 -77 -166 -96l-5 10q45 31 70.5 66.5t46.5 83.5z" />
    <glyph glyph-name="uni0302" unicode="&#x302;" 
d="M-259 539l99 108h44l99 -108h-84l-37 57l-37 -57h-84z" />
    <glyph glyph-name="tildecomb" unicode="&#x303;" 
d="M-248 537q39 62 77 62q20 0 49 -10t45 -10t51 19l9 -12q-43 -51 -78 -51q-20 0 -48.5 10t-44.5 10q-26 0 -52 -26z" />
    <glyph glyph-name="uni0304" unicode="&#x304;" 
d="M-289 570h297v-39h-297v39z" />
    <glyph glyph-name="uni0306" unicode="&#x306;" 
d="M-221 637h77q-24 -81 22 -81q45 0 21 81h77q2 -55 -26 -81.5t-72 -26.5q-43 0 -72 28.5t-27 79.5z" />
    <glyph glyph-name="uni0307" unicode="&#x307;" 
d="M-163 596l71 71l72 -71l-72 -72z" />
    <glyph glyph-name="uni0308" unicode="&#x308;" 
d="M-258 523l-72 73l72 71l71 -71zM-91 523l-72 73l72 71l71 -71z" />
    <glyph glyph-name="uni030A" unicode="&#x30a;" 
d="M-75 532q-24 0 -41 17t-17 41t17 40.5t41 16.5t41 -16.5t17 -40.5t-17 -41t-41 -17zM-75 571q7 0 12.5 5.5t5.5 13.5q0 17 -18 17t-18 -17q0 -8 5.5 -13.5t12.5 -5.5z" />
    <glyph glyph-name="uni030B" unicode="&#x30b;" 
d="M-126 646l-55 -134h-17v134h72zM-28 646l-55 -134h-16v134h71z" />
    <glyph glyph-name="uni030C" unicode="&#x30c;" 
d="M-228 627h84l37 -57l37 57h84l-99 -108h-44z" />
    <glyph glyph-name="uni0312" unicode="&#x312;" 
d="M-20 727l-71 -71l-72 71l65 187h7v-115z" />
    <glyph glyph-name="uni0326" unicode="&#x326;" 
d="M-163 -90l71 71l72 -71l-65 -187h-7v115z" />
    <glyph glyph-name="uni0327" unicode="&#x327;" 
d="M-70 -53q27 0 46 -16.5t19 -49.5q0 -37 -23 -59t-62 -22q-36 0 -57.5 19t-21.5 46q0 20 6 34l53 -9q-8 -14 -8 -28q0 -11 8.5 -18t20.5 -7q18 0 26 11.5t8 25.5q0 52 -56 52q-17 0 -34 -3l38 85h69l-55 -64q9 3 23 3z" />
    <glyph glyph-name="uni0328" unicode="&#x328;" 
d="M-22 -172q-37 -21 -74 -21q-42 0 -70.5 22.5t-28.5 58.5q0 37 30 70.5t76 56.5l31 -6q-82 -57 -82 -100q0 -38 38 -38q26 0 51 22z" />
    <glyph glyph-name="uni0335" unicode="&#x335;" 
d="M-317 570h297v-39h-297v39z" />
    <glyph glyph-name="Wgrave" unicode="&#x1e80;" horiz-adv-x="1058" 
d="M607 685q-54 3 -99 26.5t-69 58.5l54 62q20 -48 46 -80.5t71 -56.5zM1057 637v-26q-31 0 -49.5 -8.5t-25.5 -32.5l-174 -570h-132l-142 456q-9 -74 -35 -146l-111 -310h-137l-174 570q-7 24 -25.5 32.5t-49.5 8.5v26h210v-26q-28 0 -35 -7.5t0 -33.5l159 -522l174 486
l-11 36q-8 24 -30.5 32.5t-64.5 8.5v26h175l179 -578l155 511q7 25 -4 33t-50 8v26h198z" />
    <glyph glyph-name="wgrave" unicode="&#x1e81;" horiz-adv-x="766" 
d="M462 504q-97 19 -166 96l54 64q21 -48 46.5 -83.5t70.5 -66.5zM760 452v-26q-52 0 -64 -42l-100 -384h-127l-73 237l-91 -237h-127l-104 384q-10 42 -64 42v26h142l108 -405l109 279l-18 59q-12 41 -66 41v26h142l123 -402l86 334q7 25 -7.5 33.5t-58.5 8.5v26h190z" />
    <glyph glyph-name="Wacute" unicode="&#x1e82;" horiz-adv-x="1058" 
d="M618 770q-24 -35 -69 -58.5t-99 -26.5l-3 10q45 24 71 56.5t46 80.5zM1057 637v-26q-31 0 -49.5 -8.5t-25.5 -32.5l-174 -570h-132l-142 456q-9 -74 -35 -146l-111 -310h-137l-174 570q-7 24 -25.5 32.5t-49.5 8.5v26h210v-26q-28 0 -35 -7.5t0 -33.5l159 -522l174 486
l-11 36q-8 24 -30.5 32.5t-64.5 8.5v26h175l179 -578l155 511q7 25 -4 33t-50 8v26h198z" />
    <glyph glyph-name="wacute" unicode="&#x1e83;" horiz-adv-x="766" 
d="M464 600q-69 -77 -166 -96l-5 10q45 31 70.5 66.5t46.5 83.5zM760 452v-26q-52 0 -64 -42l-100 -384h-127l-73 237l-91 -237h-127l-104 384q-10 42 -64 42v26h142l108 -405l109 279l-18 59q-12 41 -66 41v26h142l123 -402l86 334q7 25 -7.5 33.5t-58.5 8.5v26h190z" />
    <glyph glyph-name="Wdieresis" unicode="&#x1e84;" horiz-adv-x="1058" 
d="M518 749l-72 -72l-71 72l71 71zM685 749l-72 -72l-71 72l71 71zM1057 637v-26q-31 0 -49.5 -8.5t-25.5 -32.5l-174 -570h-132l-142 456q-9 -74 -35 -146l-111 -310h-137l-174 570q-7 24 -25.5 32.5t-49.5 8.5v26h210v-26q-28 0 -35 -7.5t0 -33.5l159 -522l174 486l-11 36
q-8 24 -30.5 32.5t-64.5 8.5v26h175l179 -578l155 511q7 25 -4 33t-50 8v26h198z" />
    <glyph glyph-name="wdieresis" unicode="&#x1e85;" horiz-adv-x="766" 
d="M373 596l-71 -73l-72 73l72 71zM540 596l-71 -73l-72 73l72 71zM760 452v-26q-52 0 -64 -42l-100 -384h-127l-73 237l-91 -237h-127l-104 384q-10 42 -64 42v26h142l108 -405l109 279l-18 59q-12 41 -66 41v26h142l123 -402l86 334q7 25 -7.5 33.5t-58.5 8.5v26h190z" />
    <glyph glyph-name="Ygrave" unicode="&#x1ef2;" horiz-adv-x="611" 
d="M385 685q-54 3 -99 26.5t-69 58.5l54 62q20 -48 46 -80.5t71 -56.5zM609 637v-26q-69 0 -89 -35l-170 -311v-195q0 -26 16 -35t53 -9v-26h-239v26q37 0 53 9t16 35v189l-157 315q-18 37 -86 37v26h159l150 -308l131 246q11 24 0.5 30t-59.5 6v26h222z" />
    <glyph glyph-name="ygrave" unicode="&#x1ef3;" horiz-adv-x="525" 
d="M343 504q-97 19 -166 96l54 64q21 -48 46.5 -83.5t70.5 -66.5zM519 452v-26q-54 0 -68 -41l-152 -467q-23 -73 -52 -97.5t-80 -24.5q-70 0 -102 38t-25 97l86 -7q-4 -38 11 -57.5t38 -19.5t37 15t27 56l27 82h-60l-125 385q-14 41 -68 41v26h147l126 -389l105 322
q9 25 -8 33t-72 8v26h208z" />
    <glyph glyph-name="endash" unicode="&#x2013;" horiz-adv-x="391" 
d="M30 275h331v-56h-331v56z" />
    <glyph glyph-name="emdash" unicode="&#x2014;" horiz-adv-x="510" 
d="M30 275h450v-56h-450v56z" />
    <glyph glyph-name="quoteleft" unicode="&#x2018;" horiz-adv-x="184" 
d="M164 466l-71 -71l-72 71l65 187h7v-115z" />
    <glyph glyph-name="quoteright" unicode="&#x2019;" horiz-adv-x="184" 
d="M21 612l71 71l72 -71l-65 -187h-7v115z" />
    <glyph glyph-name="quotesinglbase" unicode="&#x201a;" horiz-adv-x="184" 
d="M21 56l71 71l72 -71l-65 -187h-7v115z" />
    <glyph glyph-name="quotedblleft" unicode="&#x201c;" horiz-adv-x="339" 
d="M164 496l-71 -71l-72 71l65 187h7v-115zM319 496l-71 -71l-72 71l65 187h7v-115z" />
    <glyph glyph-name="quotedblright" unicode="&#x201d;" horiz-adv-x="339" 
d="M21 612l71 71l72 -71l-65 -187h-7v115zM176 612l71 71l72 -71l-65 -187h-7v115z" />
    <glyph glyph-name="quotedblbase" unicode="&#x201e;" horiz-adv-x="184" 
d="M92 127l72 -71l-65 -187h-7v115l-71 72z" />
    <glyph glyph-name="dagger" unicode="&#x2020;" horiz-adv-x="325" 
d="M295 562v-36h-113v-359h-39v359h-113v36h113v135h39v-135h113z" />
    <glyph glyph-name="daggerdbl" unicode="&#x2021;" horiz-adv-x="325" 
d="M295 524h-113v-186h113v-36h-113v-137h-39v137h-113v36h113v186h-113v36h113v137h39v-137h113v-36z" />
    <glyph glyph-name="bullet" unicode="&#x2022;" horiz-adv-x="246" 
d="M123 157q-30 0 -51 21t-21 51t21 50.5t51 20.5t50.5 -20.5t20.5 -50.5t-20.5 -51t-50.5 -21z" />
    <glyph glyph-name="ellipsis" unicode="&#x2026;" horiz-adv-x="588" 
d="M92 -22l-71 72l71 71l72 -71zM298 -22l-72 72l72 71l71 -71zM497 -22l-72 72l72 71l71 -71z" />
    <glyph glyph-name="perthousand" unicode="&#x2030;" horiz-adv-x="996" 
d="M162 359q-61 0 -96.5 41.5t-35.5 104.5q0 62 35.5 102t96.5 40q62 0 97.5 -39.5t35.5 -102.5t-35.5 -104.5t-97.5 -41.5zM95 0l429 637h63l-429 -637h-63zM162 390q35 0 53.5 30.5t18.5 84.5q0 52 -18.5 81.5t-53.5 29.5t-53 -29.5t-18 -81.5q0 -54 18 -84.5t53 -30.5z
M520 -7q-61 0 -96.5 41.5t-35.5 104.5q0 62 35.5 102t96.5 40q62 0 97.5 -39.5t35.5 -102.5t-35.5 -104.5t-97.5 -41.5zM833 -7q-61 0 -96.5 41.5t-35.5 104.5q0 62 35.5 102t96.5 40q62 0 97.5 -39.5t35.5 -102.5t-35.5 -104.5t-97.5 -41.5zM520 24q35 0 53.5 30.5
t18.5 84.5q0 52 -18.5 81.5t-53.5 29.5t-53 -29.5t-18 -81.5q0 -54 18 -84.5t53 -30.5zM833 24q35 0 53.5 30.5t18.5 84.5q0 52 -18.5 81.5t-53.5 29.5t-53 -29.5t-18 -81.5q0 -54 18 -84.5t53 -30.5z" />
    <glyph glyph-name="guilsinglleft" unicode="&#x2039;" horiz-adv-x="326" 
d="M30 244l266 207v-75l-189 -132l189 -131v-75z" />
    <glyph glyph-name="guilsinglright" unicode="&#x203a;" horiz-adv-x="326" 
d="M296 244l-266 -206v75l189 131l-189 132v75z" />
    <glyph glyph-name="uni203D" unicode="&#x203d;" horiz-adv-x="743" 
d="M527 633q94 -34 128 -98.5t11 -127.5q-26 -72 -105 -98t-156 1l37 -35l-99 -93l-3 1l24 165l23 -7q55 -13 105 8.5t75 91.5q18 45 3 82.5t-61 54.5q-40 17 -79 2t-56 -62q-15 -43 -4 -82l-113 30q-3 41 12 82q23 62 94 88.5t164 -3.5zM282 181l-8 -3l-197 389l34 72
l71 -34zM239 56l72 71l71 -71l-71 -72z" />
    <glyph glyph-name="fraction" unicode="&#x2044;" horiz-adv-x="305" 
d="M-45 34l358 576l64 -14l-359 -575z" />
    <glyph glyph-name="Euro" unicode="&#x20ac;" horiz-adv-x="665" 
d="M421 48q78 0 128 42t71 102l15 -2q-32 -197 -239 -197q-122 0 -193 68.5t-85 196.5h-88v39h85v21q0 21 1 31h-56v39h59q16 125 87 192t190 67q207 0 239 -197l-15 -2q-21 60 -71 102t-128 42q-83 0 -135 -53.5t-66 -150.5h321v-39h-325q-1 -10 -1 -31v-21h296v-39h-293
q13 -101 65.5 -155.5t137.5 -54.5z" />
    <glyph glyph-name="arrowleft" unicode="&#x2190;" horiz-adv-x="474" 
d="M298 275h146v-56h-146l-229 18q121 -33 223 -126l-40 -49q-48 66 -99.5 105t-122.5 62v36q71 23 122.5 62t99.5 105l40 -49q-102 -93 -223 -126z" />
    <glyph glyph-name="arrowup" unicode="&#x2191;" horiz-adv-x="430" 
d="M400 210l-49 -40q-93 102 -126 223l18 -229v-146h-56v146l18 229q-33 -121 -126 -223l-49 40q66 48 105 99.5t62 122.5h36q23 -71 62 -122.5t105 -99.5z" />
    <glyph glyph-name="arrowright" unicode="&#x2192;" horiz-adv-x="474" 
d="M222 432q48 -66 99.5 -105t122.5 -62v-36q-71 -23 -122.5 -62t-99.5 -105l-40 49q102 93 223 126l-229 -18h-146v56h146l229 -18q-121 33 -223 126z" />
    <glyph glyph-name="arrowdown" unicode="&#x2193;" horiz-adv-x="430" 
d="M351 330l49 -40q-66 -48 -105 -99.5t-62 -122.5h-36q-23 71 -62 122.5t-105 99.5l49 40q93 -102 126 -223l-18 229v146h56v-146l-18 -229q33 121 126 223z" />
    <glyph glyph-name="arrowboth" unicode="&#x2194;" horiz-adv-x="663" 
d="M411 432q48 -66 99.5 -105t122.5 -62v-36q-71 -23 -122.5 -62t-99.5 -105l-40 49q102 93 223 126l-229 -18h-67l-229 18q121 -33 223 -126l-40 -49q-48 66 -99.5 105t-122.5 62v36q71 23 122.5 62t99.5 105l40 -49q-102 -93 -223 -126l229 18h67l229 -18
q-121 33 -223 126z" />
    <glyph glyph-name="arrowupdn" unicode="&#x2195;" horiz-adv-x="430" 
d="M225 15q32 118 126 203l49 -40q-67 -41 -105.5 -86.5t-61.5 -115.5h-36q-23 70 -61.5 115.5t-105.5 86.5l49 40q94 -85 126 -203l-18 229v7l18 229q-32 -118 -126 -203l-49 40q67 41 105.5 86.5t61.5 115.5h36q23 -70 61.5 -115.5t105.5 -86.5l-49 -40q-94 85 -126 203
l18 -229v-7z" />
    <glyph glyph-name="uni2196" unicode="&#x2196;" horiz-adv-x="385" 
d="M252 236l103 -104l-40 -39l-103 103l-148 173q61 -106 68 -245l-63 -6q13 79 4 143.5t-43 131.5l25 25q67 -34 131.5 -43t143.5 4l-6 -63q-139 7 -245 68z" />
    <glyph glyph-name="uni2197" unicode="&#x2197;" horiz-adv-x="385" 
d="M355 395q-34 -67 -43 -131.5t4 -143.5l-63 6q7 139 68 245l-148 -173l-103 -103l-40 39l103 104l173 148q-106 -61 -245 -68l-6 63q79 -13 143.5 -4t131.5 43z" />
    <glyph glyph-name="uni2198" unicode="&#x2198;" horiz-adv-x="385" 
d="M316 395q-13 -79 -4 -143.5t43 -131.5l-25 -25q-67 34 -131.5 43t-143.5 -4l6 63q139 -7 245 -68l-173 148l-103 104l40 39l103 -103l148 -173q-61 106 -68 245z" />
    <glyph glyph-name="uni2199" unicode="&#x2199;" horiz-adv-x="385" 
d="M79 129q106 61 245 68l6 -63q-79 13 -143.5 4t-131.5 -43l-25 25q34 67 43 131.5t-4 143.5l63 -6q-7 -139 -68 -245l148 173l103 103l40 -39l-103 -104z" />
    <glyph glyph-name="partialdiff" unicode="&#x2202;" horiz-adv-x="500" 
d="M156 641q54 -5 107 -28.5t100.5 -64t77 -108.5t29.5 -152q0 -150 -58 -221.5t-152 -71.5q-93 0 -161.5 63t-68.5 172q0 105 54 168t139 63q116 0 151 -145q-8 138 -65.5 218t-154.5 97zM250 43q61 0 90.5 43t29.5 113q0 88 -37 151t-97 63q-52 0 -78 -49.5t-26 -134.5
q0 -98 29.5 -142t88.5 -44z" />
    <glyph glyph-name="emptyset" unicode="&#x2205;" horiz-adv-x="326" 
d="M249 331q39 -37 39 -91q0 -52 -36.5 -89t-88.5 -37q-39 0 -68 20l-48 -61l-17 14l47 61q-40 37 -40 92q0 52 37 88.5t89 36.5q38 0 67 -20l48 62l18 -15zM75 240q0 -38 25 -63l108 140q-21 13 -45 13q-36 0 -62 -26.5t-26 -63.5zM163 149q36 0 61.5 26.5t25.5 64.5
q0 36 -24 62l-109 -140q21 -13 46 -13z" />
    <glyph glyph-name="product" unicode="&#x220f;" horiz-adv-x="486" 
d="M456 641h-70v-671q0 -26 10.5 -35t35.5 -9v-26h-144v26q25 0 35.5 9t10.5 35v671h-202v-671q0 -26 10.5 -35t35.5 -9v-26h-144v26q25 0 35.5 9t10.5 35v671h-70v56h446v-56z" />
    <glyph glyph-name="summation" unicode="&#x2211;" horiz-adv-x="520" 
d="M30 -100v56l240 334l-240 351v56h423l4 -46l7 -76l-37 -3q-3 36 -17.5 52.5t-51.5 16.5h-242l234 -340l-248 -345h276q37 0 52.5 17.5t22.5 53.5l37 -6l-14 -75l-8 -46h-438z" />
    <glyph glyph-name="minus" unicode="&#x2212;" horiz-adv-x="391" 
d="M30 275h331v-56h-331v56z" />
    <glyph glyph-name="radical" unicode="&#x221a;" horiz-adv-x="626" 
d="M621 697v-56h-105l-254 -741h-98l-134 377h67l122 -345l261 765h141z" />
    <glyph glyph-name="infinity" unicode="&#x221e;" horiz-adv-x="525" 
d="M30 234q0 59 31.5 92.5t84.5 33.5q43 0 69.5 -26.5t31.5 -76.5q7 41 39.5 72t87.5 31q53 0 87 -33.5t34 -92.5t-31.5 -92t-83.5 -33q-90 0 -101 103q-7 -40 -40 -71.5t-87 -31.5t-88 33.5t-34 91.5zM69 233q0 -46 22 -69.5t56 -23.5q45 0 68 27.5t23 71.5q0 48 -23.5 74
t-63.5 26q-39 0 -60.5 -28t-21.5 -78zM287 229q0 -48 23.5 -73.5t64.5 -25.5q39 0 60 28t21 77q0 94 -87 94q-82 0 -82 -100z" />
    <glyph glyph-name="integral" unicode="&#x222b;" horiz-adv-x="403" 
d="M163 48q-9 -38 -12 -49t-11 -35.5t-17.5 -36.5t-22.5 -21l-70 89l6 7q16 -6 36 -6q21 0 30.5 14.5t16.5 45.5l121 500q9 38 12 49t11 35.5t17.5 36.5t22.5 21l70 -89l-6 -7q-15 6 -30 6q-25 0 -35.5 -14.5t-17.5 -45.5z" />
    <glyph glyph-name="approxequal" unicode="&#x2248;" horiz-adv-x="291" 
d="M30 265q39 62 77 62q20 0 49 -10t45 -10t51 19l9 -12q-43 -51 -78 -51q-20 0 -48.5 10t-44.5 10q-26 0 -52 -26zM30 172q39 62 77 62q20 0 49 -10t45 -10t51 19l9 -12q-43 -51 -78 -51q-20 0 -48.5 10t-44.5 10q-26 0 -52 -26z" />
    <glyph glyph-name="notequal" unicode="&#x2260;" horiz-adv-x="320" 
d="M290 280h-96l-25 -67h121v-56h-141l-29 -78h-42l28 78h-76v56h97l24 67h-121v56h142l28 77h43l-28 -77h75v-56z" />
    <glyph glyph-name="lessequal" unicode="&#x2264;" horiz-adv-x="382" 
d="M352 425v-64l-254 -117l254 -116v-65h-313v36h249l-258 145z" />
    <glyph glyph-name="greaterequal" unicode="&#x2265;" horiz-adv-x="382" 
d="M352 244l-258 -145h249v-36h-313v65l254 116l-254 117v64z" />
    <glyph glyph-name="lozenge" unicode="&#x25ca;" horiz-adv-x="410" 
d="M246 637l134 -317l-134 -320h-82l-134 320l134 317h82zM205 33l121 287l-121 284l-121 -284z" />
    <glyph glyph-name="i.loclTRK" horiz-adv-x="248" 
d="M51 596l71 71l72 -71l-72 -72zM172 70q0 -26 10.5 -35t35.5 -9v-26h-188v26q25 0 35.5 9t10.5 35v312q0 26 -10.5 35t-35.5 9v26h142v-382z" />
    <glyph glyph-name="f_f" horiz-adv-x="694" 
d="M478 428l53 24h153v-63h-206v-319q0 -26 10.5 -35t35.5 -9v-26h-188v26q25 0 35.5 9t10.5 35v326h-194v-326q0 -26 10.5 -35t35.5 -9v-26h-188v26q25 0 35.5 9t10.5 35v319l-72 17v46h72v21q0 174 158 174q95 0 137 -73l-93 -64l-7 7q9 17 9 39q0 24 -7.5 35.5
t-31.5 11.5q-38 0 -53.5 -28t-15.5 -85v-55l80 17h114v1q0 95 61.5 144.5t147.5 49.5q118 0 167 -86l-86 -64l-7 7q20 32 1.5 60t-60.5 28q-59 0 -93.5 -39t-34.5 -116v-9z" />
    <glyph glyph-name="f_j" horiz-adv-x="505" 
d="M473 452v-475l-102 -241h-14l20 264v382v7h-189v-319q0 -26 10.5 -35t35.5 -9v-26h-188v26q25 0 35.5 9t10.5 35v319l-72 17v46h72v1q0 95 61.5 144.5t147.5 49.5q118 0 167 -86l-86 -64l-7 7q20 32 1.5 60t-60.5 28q-59 0 -93.5 -39t-34.5 -116v-9l53 24h232z" />
    <glyph glyph-name="four.ss01" horiz-adv-x="558" 
d="M511 337l25 -4l-13 -90l-9 -64h-101v-109q0 -26 13 -35t42 -9v-26h-221v26q36 0 51 9t15 35v109h-312l290 472l14 -3l-162 -418l170 11v187q20 23 31 38t28 49t31 78h10v-346l42 3q25 2 37 23t19 64z" />
    <glyph glyph-name="uni0308.case" 
d="M-330 749l71 71l72 -71l-72 -72zM-163 749l71 71l72 -71l-72 -72z" />
    <glyph glyph-name="gravecomb.case" 
d="M-185 770l54 62q20 -48 46 -80.5t71 -56.5l-3 -10q-54 3 -99 26.5t-69 58.5z" />
    <glyph glyph-name="acutecomb.case" 
d="M-6 770q-24 -35 -69 -58.5t-99 -26.5l-3 10q45 24 71 56.5t46 80.5z" />
    <glyph glyph-name="uni0302.case" 
d="M-259 684l99 108h44l99 -108h-84l-37 57l-37 -57h-84z" />
    <glyph glyph-name="uni030C.case" 
d="M-228 781h84l37 -57l37 57h84l-99 -108h-44z" />
    <glyph glyph-name="uni0306.case" 
d="M-221 793h77q-24 -81 22 -81q45 0 21 81h77q2 -55 -26 -81.5t-72 -26.5q-43 0 -72 28.5t-27 79.5z" />
    <glyph glyph-name="uni030A.case" 
d="M-75 681q-24 0 -41 17t-17 41t17 41t41 17t41 -17t17 -41t-17 -41t-41 -17zM-75 721q7 0 12.5 5.5t5.5 12.5t-5.5 12.5t-12.5 5.5t-12.5 -5.5t-5.5 -12.5t5.5 -12.5t12.5 -5.5z" />
    <glyph glyph-name="tildecomb.case" 
d="M-278 692q50 62 107 62q26 0 57 -10t52 -10t64 19l12 -12q-54 -51 -109 -51q-25 0 -55.5 10t-51.5 10q-33 0 -65 -26z" />
    <glyph glyph-name="uni0335.case" 
d="M-352 447h332v-39h-332v39z" />
    <glyph glyph-name="uni0336.case" 
d="M-604 516h584v-39h-584v39z" />
    <glyph glyph-name="uni0337.case" 
d="M-256 334l221 63l10 -33l-221 -63z" />
    </font>
</defs>
</svg>
