<?xml version="1.0" standalone="no"?>
<!DOCTYPE svg PUBLIC "-//W3C//DTD SVG 1.1//EN" "http://www.w3.org/Graphics/SVG/1.1/DTD/svg11.dtd" >
<svg xmlns="http://www.w3.org/2000/svg" xmlns:xlink="http://www.w3.org/1999/xlink" version="1.1">
<metadata>
Created by FontForge 20170731 at Mon Feb  4 15:28:05 2019
 By Aleksey,,,
Copyright (c) 2019 by Nicholas Losacco. All rights reserved.
</metadata>
<defs>
<font id="Cirka-Light" horiz-adv-x="0" >
  <font-face 
    font-family="Cirka Light"
    font-weight="300"
    font-stretch="normal"
    units-per-em="1000"
    panose-1="0 0 4 0 0 0 0 0 0 0"
    ascent="800"
    descent="-200"
    x-height="452"
    cap-height="637"
    bbox="-566 -278 1017 915"
    underline-thickness="50"
    underline-position="-200"
    unicode-range="U+0020-25CA"
  />
<missing-glyph horiz-adv-x="472" 
d="M387 750v-944h-299v944h299zM314 687h-155v-31h61v-35h-62v-31h156v31h-62v35h62v31zM252 565h-94v-98h156v32h-62v66zM220 533v-34h-31v34h31zM314 441h-156v-31h62v-35h-62v-31h94v66h62v31zM314 385h-31v-63h-125v-32h156v95zM314 270h-94v-53h32v21h31v-44h-94v76
h-31v-107h156v107zM314 106h-156v-106h156v106zM283 75v-44h-94v44h94zM314 -22h-156v-31h66l-66 -45v-31h156v31h-96l66 45h30v31z" />
    <glyph glyph-name="f_f_i" unicode="ffi" horiz-adv-x="745" 
d="M669 52q0 -45 41 -45v-7h-138v7q42 0 42 45v365h-209v-365q0 -45 41 -45v-7h-138v7q42 0 42 45v365h-201v-343q0 -36 17.5 -50t41.5 -14v-10h-174v10q24 0 42 14t18 50v342l-69 17v19h80l-11 58q0 67 35.5 102t94.5 35q40 0 66 -12.5t51 -47.5l-66 -43l-4 3q3 7 3 14
q0 58 -52 58q-38 0 -55.5 -23t-17.5 -76v-84l66 16h154l-19 58q0 56 44 96.5t125 40.5q55 0 92.5 -17t70.5 -59l-59 -57l-2 3q0 43 -29 73t-80 30q-52 0 -79.5 -31t-27.5 -86v-67l70 16h194v-400z" />
    <glyph glyph-name="f_i.liga" unicode="fi" horiz-adv-x="489" 
d="M413 52q0 -45 41 -45v-7h-138v7q42 0 42 45v365h-209v-365q0 -45 41 -45v-7h-138v7q42 0 42 45v364l-69 17v19h88l-19 58q0 56 44 96.5t125 40.5q55 0 92.5 -17t70.5 -59l-59 -57l-2 3q0 43 -29 73t-80 30q-52 0 -79.5 -31t-27.5 -86v-67l70 16h194v-400z" />
    <glyph glyph-name="f_l.liga" unicode="fl" horiz-adv-x="535" 
d="M462 52q0 -45 41 -45v-7h-139v7q42 0 42 45v434q0 69 -34.5 101.5t-94.5 32.5q-58 0 -93 -30t-35 -87v-67l66 16h88v-35h-154v-365q0 -45 41 -45v-7h-139v7q42 0 42 45v364l-68 17v19h90l-22 58q0 65 54 101t130 36q78 0 131.5 -38.5t53.5 -115.5v-441z" />
    <glyph glyph-name=".notdef" horiz-adv-x="472" 
d="M387 750v-944h-299v944h299zM314 687h-155v-31h61v-35h-62v-31h156v31h-62v35h62v31zM252 565h-94v-98h156v32h-62v66zM220 533v-34h-31v34h31zM314 441h-156v-31h62v-35h-62v-31h94v66h62v31zM314 385h-31v-63h-125v-32h156v95zM314 270h-94v-53h32v21h31v-44h-94v76
h-31v-107h156v107zM314 106h-156v-106h156v106zM283 75v-44h-94v44h94zM314 -22h-156v-31h66l-66 -45v-31h156v31h-96l66 45h30v31z" />
    <glyph glyph-name=".null" 
 />
    <glyph glyph-name="nonmarkingreturn" horiz-adv-x="333" 
 />
    <glyph glyph-name="space" unicode=" " horiz-adv-x="220" 
 />
    <glyph glyph-name="exclam" unicode="!" horiz-adv-x="218" 
d="M113 157h-8l-36 447l40 42l41 -42zM51 50l58 57l58 -57l-58 -59z" />
    <glyph glyph-name="quotedbl" unicode="&#x22;" horiz-adv-x="204" 
d="M85 646l-41 -187h-17v187h58zM177 646l-42 -187h-16v187h58z" />
    <glyph glyph-name="numbersign" unicode="#" horiz-adv-x="645" 
d="M617 422h-179l-50 -207h192v-30h-199l-44 -185h-32l44 185h-176l-44 -185h-32l44 185h-153v30h160l50 207h-173v30h180l44 185h32l-44 -185h176l44 185h32l-44 -185h172v-30zM356 215l50 207h-176l-50 -207h176z" />
    <glyph glyph-name="dollar" unicode="$" horiz-adv-x="505" 
d="M311 352q76 -28 115 -66.5t39 -108.5q0 -57 -19 -95.5t-53.5 -57t-68.5 -25t-78 -6.5q-23 0 -33 1l-14 -80l-29 5l13 79q-113 18 -163 97v192h10q2 -100 43.5 -168.5t115.5 -88.5l48 282l-88 32q-54 19 -83 52t-29 92q0 64 53.5 111.5t158.5 47.5q23 0 45 -3l13 78l29 -6
l-13 -77q67 -15 116 -59l7 -172h-10q-23 165 -119 199l-41 -242zM173 402l75 -27l41 240q-17 4 -43 4q-70 0 -108.5 -33.5t-38.5 -88.5q0 -68 74 -95zM246 23q74 0 115 38t41 97q0 97 -108 134l-29 10l-47 -277q18 -2 28 -2z" />
    <glyph glyph-name="percent" unicode="%" horiz-adv-x="657" 
d="M159 359q-61 0 -95 41.5t-34 104.5t34 102.5t95 39.5q62 0 96 -39.5t34 -102.5t-34 -104.5t-96 -41.5zM87 0l444 637h38l-444 -637h-38zM159 375q42 0 64 35.5t22 94.5q0 57 -22 91.5t-64 34.5q-41 0 -63 -34.5t-22 -91.5q0 -59 22 -94.5t63 -35.5zM497 -7
q-61 0 -95 41.5t-34 104.5t34 102.5t95 39.5q62 0 96 -39.5t34 -102.5t-34 -104.5t-96 -41.5zM497 9q42 0 64 35.5t22 94.5q0 57 -22 91.5t-64 34.5q-41 0 -63 -34.5t-22 -91.5q0 -59 22 -94.5t63 -35.5z" />
    <glyph glyph-name="ampersand" unicode="&#x26;" horiz-adv-x="569" 
d="M30 207q0 75 41 118.5t99 43.5q64 0 90 -31l1 1l-197 298h457l-6 -32l-16 -95l-10 1q14 81 -50 82l-287 7l290 -500q30 46 30 116q0 65 -11.5 101.5t-37.5 71.5l89 29q27 -57 27 -134q0 -145 -74 -221l43 -75l-12 -6l-45 68q-66 -57 -175 -57q-115 0 -180.5 62.5
t-65.5 151.5zM93 207q0 -81 46.5 -132t136.5 -51q101 0 154 59l-135 205q-35 50 -87 50q-46 0 -80.5 -37.5t-34.5 -93.5z" />
    <glyph glyph-name="quotesingle" unicode="'" horiz-adv-x="112" 
d="M85 646l-42 -187h-16v187h58z" />
    <glyph glyph-name="parenleft" unicode="(" horiz-adv-x="273" 
d="M20 305q0 146 59 246.5t169 147.5l5 -11q-43 -23 -73 -50.5t-56 -71t-39 -108.5t-13 -153q0 -87 14.5 -155t41.5 -113t56.5 -74t68.5 -50l-5 -12q-104 46 -166 153t-62 251z" />
    <glyph glyph-name="parenright" unicode=")" horiz-adv-x="273" 
d="M253 305q0 -144 -62 -251t-166 -153l-5 12q39 21 68.5 50t56.5 74t41.5 113t14.5 155q0 88 -13 153t-39 108.5t-56 71t-73 50.5l5 11q110 -47 169 -147.5t59 -246.5z" />
    <glyph glyph-name="asterisk" unicode="*" horiz-adv-x="278" 
d="M30 481l99 42l-99 40l19 33l85 -64l-14 105h38l-14 -105l85 64l19 -33l-99 -40l99 -42l-19 -33l-85 66l14 -107h-38l14 107l-85 -66z" />
    <glyph glyph-name="plus" unicode="+" horiz-adv-x="384" 
d="M354 256v-30h-145v-147h-35v147h-144v30h144v147h35v-147h145z" />
    <glyph glyph-name="comma" unicode="," horiz-adv-x="170" 
d="M27 50l58 57l58 -57l-51 -187h-7v128z" />
    <glyph glyph-name="hyphen" unicode="-" horiz-adv-x="320" 
d="M30 256h260v-30h-260v30z" />
    <glyph glyph-name="period" unicode="." horiz-adv-x="170" 
d="M27 50l58 57l58 -57l-58 -59z" />
    <glyph glyph-name="slash" unicode="/" horiz-adv-x="299" 
d="M18 0l232 637h31l-232 -637h-31z" />
    <glyph glyph-name="zero" unicode="0" horiz-adv-x="561" 
d="M280 647q115 0 178 -89.5t63 -232.5q0 -144 -63.5 -238t-177.5 -94t-177 94t-63 238q0 143 63 232.5t177 89.5zM280 21q86 0 132 87t46 217q0 128 -45.5 211t-132.5 83q-86 0 -131.5 -83t-45.5 -211q0 -84 18.5 -151t59.5 -110t99 -43z" />
    <glyph glyph-name="one" unicode="1" horiz-adv-x="255" 
d="M165 81q0 -70 71 -70v-11h-205v11q78 0 78 70v480l-83 -32l-6 13l142 102h3v-563z" />
    <glyph glyph-name="two" unicode="2" horiz-adv-x="529" 
d="M480 135l10 -1l-13 -103l-4 -31h-438q9 120 133 219l136 109q64 51 80 72q27 35 27 84q0 59 -34 96t-101 37q-68 0 -110 -36.5t-42 -102.5q0 -58 29 -119l-79 -10q-16 48 -16 95q0 90 59.5 146.5t158.5 56.5t148.5 -48t49.5 -115q0 -33 -8.5 -58t-31 -50t-39 -39
t-55.5 -44l-139 -107q-83 -62 -99 -148l296 6q39 1 58 28t24 63z" />
    <glyph glyph-name="three" unicode="3" horiz-adv-x="501" 
d="M308 345q77 -13 117.5 -57t40.5 -116q0 -77 -57 -128t-159 -51q-109 0 -159.5 57t-50.5 147q0 30 5 60l70 -10q-14 -42 -14 -84q0 -65 38 -102t111 -37q76 0 115 39.5t39 107.5q0 75 -42 117t-127 42h-12v35h12q150 0 150 123q0 57 -33.5 93t-97.5 36q-65 0 -104 -34.5
t-39 -92.5q0 -33 13 -72l-70 -10q-6 30 -6 54q0 78 56.5 131.5t149.5 53.5q92 0 142.5 -43t50.5 -109q0 -124 -139 -150z" />
    <glyph glyph-name="four" unicode="4" horiz-adv-x="494" 
d="M236 0v11q97 0 97 70v84h-318v6l357 466h88v-11q-71 0 -71 -70v-354h80v-9l-80 -25v-87q0 -39 21.5 -54.5t50.5 -15.5v-11h-225zM100 202h233v348z" />
    <glyph glyph-name="five" unicode="5" horiz-adv-x="484" 
d="M238 431q98 0 154.5 -59t56.5 -155q0 -110 -55.5 -167t-158.5 -57q-98 0 -151.5 52t-53.5 130q0 61 11 95l79 -11q-23 -41 -23 -96q0 -68 35 -103.5t103 -35.5q151 0 151 193q0 83 -40.5 133.5t-117.5 50.5q-49 0 -91.5 -21.5t-68.5 -49.5h-4l13 307h366l-8 -31l-24 -101
l-10 2q18 85 -50 86l-236 7l-14 -207q53 38 137 38z" />
    <glyph glyph-name="six" unicode="6" horiz-adv-x="508" 
d="M277 617q52 0 80 -27t28 -73q0 -18 -4 -37l75 -9q0 4 0.5 12.5t0.5 12.5q0 60 -51 105.5t-131 45.5q-115 0 -175 -95t-60 -261q0 -157 56.5 -226.5t163.5 -69.5q92 0 150 58.5t58 149.5q0 89 -49.5 143t-138.5 54q-118 0 -181 -102q4 319 178 319zM106 189q0 87 45 134
t109 47q72 0 108.5 -44.5t36.5 -123.5q0 -83 -39 -130t-106 -47q-68 0 -111 44.5t-43 119.5z" />
    <glyph glyph-name="seven" unicode="7" horiz-adv-x="467" 
d="M15 637h449v-16q-112 -130 -169.5 -275t-64.5 -346h-60q14 200 70.5 332.5t165.5 264.5l-302 -5q-69 -1 -53 -98l-11 -2z" />
    <glyph glyph-name="eight" unicode="8" horiz-adv-x="513" 
d="M40 172q0 72 38.5 115.5t101.5 57.5q-59 11 -89.5 48t-30.5 95q0 72 50.5 115.5t145.5 43.5t146 -43.5t51 -115.5q0 -58 -31 -95.5t-90 -47.5q141 -29 141 -173q0 -85 -58.5 -132t-158.5 -47t-158 47t-58 132zM103 172q0 -71 40 -109.5t113 -38.5t113.5 38.5t40.5 109.5
q0 141 -146 175q63 17 94.5 50t31.5 91t-36.5 93.5t-97.5 35.5t-97.5 -35.5t-36.5 -93.5q0 -59 31.5 -91.5t94.5 -49.5q-74 -17 -109.5 -59t-35.5 -116z" />
    <glyph glyph-name="nine" unicode="9" horiz-adv-x="508" 
d="M231 25q-52 0 -80 27t-28 73q0 18 4 37l-75 9q0 -4 -0.5 -12.5t-0.5 -12.5q0 -60 51 -105.5t131 -45.5q115 0 175 95t60 261q0 157 -56.5 226.5t-163.5 69.5q-92 0 -150 -58.5t-58 -149.5q0 -89 49.5 -143t138.5 -54q118 0 181 102q-4 -319 -178 -319zM402 453
q0 -87 -45 -134t-109 -47q-72 0 -108.5 44.5t-36.5 123.5q0 83 39 130t106 47q68 0 111 -44.5t43 -119.5z" />
    <glyph glyph-name="colon" unicode=":" horiz-adv-x="170" 
d="M27 312l58 57l58 -57l-58 -59zM27 50l58 57l58 -57l-58 -59z" />
    <glyph glyph-name="semicolon" unicode=";" horiz-adv-x="170" 
d="M27 312l58 57l58 -57l-58 -59zM27 50l58 57l58 -57l-51 -187h-7v128z" />
    <glyph glyph-name="less" unicode="&#x3c;" horiz-adv-x="382" 
d="M30 244l322 181v-39l-274 -142l274 -141v-40z" />
    <glyph glyph-name="equal" unicode="=" horiz-adv-x="279" 
d="M30 276v30h219v-30h-219zM30 176v30h219v-30h-219z" />
    <glyph glyph-name="greater" unicode="&#x3e;" horiz-adv-x="382" 
d="M352 244l-322 -181v40l274 141l-274 142v39z" />
    <glyph glyph-name="question" unicode="?" horiz-adv-x="489" 
d="M251 647q90 0 138 -48t48 -113q0 -82 -50 -129.5t-135 -54.5l31 -18l-39 -124h-3l-25 164l14 1q57 5 101 43t44 111q0 62 -30.5 100t-93.5 38q-58 0 -95 -34.5t-37 -92.5q0 -46 23 -82l-75 -10q-16 37 -16 84q0 63 57.5 114t142.5 51zM185 50l58 57l58 -57l-58 -59z" />
    <glyph glyph-name="at" unicode="@" horiz-adv-x="873" 
d="M480 -165q-209 23 -329.5 120.5t-120.5 276.5q0 186 110 301.5t297 115.5q183 0 294.5 -117t111.5 -290q0 -26 -3 -41l-308 -184v150h-5q-37 -132 -138 -132q-46 0 -75 34t-29 108q0 33 6 72l240 22l1 23q0 29 -3.5 51t-13.5 43.5t-31.5 33t-52.5 11.5q-48 0 -69.5 -22
t-21.5 -53q0 -35 16 -39v-5l-58 -5q-6 17 -6 36q0 46 34 80t109 34q40 0 69 -13t44 -31t23 -47.5t9.5 -50.5t1.5 -53v-187l207 116q3 20 3 49q0 172 -92 276t-263 104q-113 0 -195.5 -53.5t-121.5 -138t-39 -188.5q0 -90 31 -159t86.5 -112t122.5 -67.5t149 -33.5l359 203
l6 -11zM410 70q41 0 68.5 33.5t37.5 71.5t14 81l-188 -29q-5 -24 -5 -53q0 -104 73 -104z" />
    <glyph glyph-name="A" unicode="A" horiz-adv-x="618" 
d="M516 78q19 -67 94 -67v-11h-226v11q38 0 61 14.5t12 52.5l-37 123h-239l-37 -123q-11 -38 11 -52.5t60 -14.5v-11h-207v11q76 0 95 67l145 481q7 26 -8 42t-37.5 20.5t-51.5 4.5v11h198zM192 238h217l-108 362z" />
    <glyph glyph-name="B" unicode="B" horiz-adv-x="559" 
d="M349 351q38 -4 65.5 -12t56 -25.5t43.5 -51t15 -82.5q0 -79 -52 -129.5t-151 -50.5h-291v11q29 0 50.5 15.5t21.5 54.5v475q0 39 -21.5 54.5t-50.5 15.5v11h274q92 0 138.5 -38.5t46.5 -109.5q0 -67 -38 -97.5t-107 -40.5zM285 600h-119v-234h95q171 0 171 123
q0 57 -30 84t-117 27zM313 37q85 0 120 36.5t35 106.5q0 80 -47.5 116t-159.5 36h-95v-295h147z" />
    <glyph glyph-name="C" unicode="C" horiz-adv-x="570" 
d="M329 35q82 0 132.5 46t63.5 114l15 -3q-38 -199 -232 -199q-132 0 -205 86t-73 242q0 146 76 236t201 90q61 0 107 -21t71.5 -58t37.5 -80t12 -92v-20l-90 11q13 42 13 81q0 68 -40.5 109.5t-108.5 41.5q-99 0 -157.5 -75t-58.5 -223q0 -139 64.5 -212.5t171.5 -73.5z
" />
    <glyph glyph-name="D" unicode="D" horiz-adv-x="587" 
d="M254 637q140 0 221.5 -82t81.5 -237t-81.5 -236.5t-221.5 -81.5h-219v11q29 0 50.5 15.5t21.5 54.5v475q0 39 -21.5 54.5t-50.5 15.5v11h219zM234 37q119 0 190 72.5t71 208.5t-71 209t-190 73h-68v-563h68z" />
    <glyph glyph-name="E" unicode="E" horiz-adv-x="570" 
d="M529 125l11 -3l-27 -99l-6 -23h-472v11q29 0 50.5 15.5t21.5 54.5v475q0 39 -21.5 54.5t-50.5 15.5v11h478l2 -23l8 -96l-10 -1q-7 83 -71 83h-276v-239h216q39 0 54.5 16.5t15.5 37.5h11v-143h-11q0 21 -15.5 37.5t-54.5 16.5h-216v-289h270q39 0 61.5 26.5t31.5 61.5z
" />
    <glyph glyph-name="F" unicode="F" horiz-adv-x="538" 
d="M515 614l8 -96l-10 -1q-7 83 -71 83h-276v-246h213q39 0 54.5 16.5t15.5 37.5h11v-143h-11q0 21 -15.5 37.5t-54.5 16.5h-213v-238q0 -70 71 -70v-11h-202v11q29 0 50.5 15.5t21.5 54.5v475q0 39 -21.5 54.5t-50.5 15.5v11h478z" />
    <glyph glyph-name="G" unicode="G" horiz-adv-x="595" 
d="M308 -7q-132 0 -205 86t-73 242q0 144 80.5 235t206.5 91q119 0 176 -71t57 -175v-20l-90 11q13 42 13 81q0 67 -42 106.5t-112 39.5q-101 0 -163.5 -75.5t-62.5 -222.5q0 -139 64.5 -212.5t171.5 -73.5q113 0 156 45l11 88q3 24 -1.5 39t-20.5 23t-30 11t-44 7l-169 20
v11h316v-148q0 -21 8 -39q-57 -55 -115.5 -77t-131.5 -22z" />
    <glyph glyph-name="H" unicode="H" horiz-adv-x="648" 
d="M613 626q-71 0 -71 -70v-475q0 -70 71 -70v-11h-202v11q29 0 50.5 15.5t21.5 54.5v257h-317v-257q0 -70 71 -70v-11h-202v11q29 0 50.5 15.5t21.5 54.5v475q0 39 -21.5 54.5t-50.5 15.5v11h202v-11q-71 0 -71 -70v-181h317v181q0 39 -21.5 54.5t-50.5 15.5v11h202v-11z
" />
    <glyph glyph-name="I" unicode="I" horiz-adv-x="262" 
d="M161 81q0 -70 71 -70v-11h-202v11q29 0 50.5 15.5t21.5 54.5v475q0 39 -21.5 54.5t-50.5 15.5v11h202v-11q-71 0 -71 -70v-475z" />
    <glyph glyph-name="J" unicode="J" horiz-adv-x="515" 
d="M460 637v-414q0 -118 -51.5 -174t-164.5 -56q-107 0 -160.5 73t-53.5 178v19l83 -11q-12 -41 -12 -82q0 -67 41 -106.5t109 -39.5q81 0 115.5 51t34.5 166v359h-175q-70 0 -70 -70h-11q0 51 -14 107h329z" />
    <glyph glyph-name="K" unicode="K" horiz-adv-x="628" 
d="M503 67q39 -56 117 -56v-11h-247v11q43 0 63.5 12t-1.5 44l-176 254l-93 -114v-126q0 -70 71 -70v-11h-202v11q29 0 50.5 15.5t21.5 54.5v475q0 39 -21.5 54.5t-50.5 15.5v11h202v-11q-71 0 -71 -70v-285l248 303q42 52 -45 52v11h218v-11q-80 0 -122 -52l-198 -243
l58 -6z" />
    <glyph glyph-name="L" unicode="L" horiz-adv-x="479" 
d="M460 120l11 -3l-26 -94l-6 -23h-404v11q29 0 50.5 15.5t21.5 54.5v475q0 39 -21.5 54.5t-50.5 15.5v11h202v-11q-71 0 -71 -70v-519h202q39 0 61 25t31 58z" />
    <glyph glyph-name="M" unicode="M" horiz-adv-x="855" 
d="M756 81q11 -70 84 -70v-11h-212v11q33 0 55.5 15.5t16.5 54.5l-74 515l-175 -596h-59l-178 596l-74 -515q-6 -39 17.5 -54.5t59.5 -15.5v-11h-202v11q73 0 84 70l68 475q6 39 -12.5 54.5t-47.5 15.5v11h152l176 -588q2 48 16 96l147 492h150v-11q-29 0 -47.5 -15.5
t-12.5 -54.5z" />
    <glyph glyph-name="N" unicode="N" horiz-adv-x="671" 
d="M636 626q-29 0 -50.5 -15.5t-21.5 -54.5v-475q0 -39 21.5 -54.5t50.5 -15.5v-11h-154l-334 588v-507q0 -70 71 -70v-11h-184v11q29 0 50.5 15.5t21.5 54.5v475q0 39 -21.5 54.5t-50.5 15.5v11h150l338 -595v514q0 39 -25 54.5t-59 15.5v11h197v-11z" />
    <glyph glyph-name="O" unicode="O" horiz-adv-x="624" 
d="M312 647q137 0 209.5 -89t72.5 -233q0 -145 -72.5 -238.5t-209.5 -93.5t-209.5 93.5t-72.5 238.5q0 144 72.5 233t209.5 89zM312 21q104 0 161.5 87.5t57.5 216.5q0 127 -57.5 210.5t-161.5 83.5t-161.5 -83.5t-57.5 -210.5q0 -129 57.5 -216.5t161.5 -87.5z" />
    <glyph glyph-name="P" unicode="P" horiz-adv-x="481" 
d="M282 637q88 0 138.5 -42t50.5 -114q0 -67 -48 -116t-128 -49q-57 0 -90 27t-38 52h-1v-314q0 -70 71 -70v-11h-202v11q29 0 50.5 15.5t21.5 54.5v475q0 39 -21.5 54.5t-50.5 15.5v11h247zM282 347q66 0 96.5 38.5t30.5 89.5q0 125 -150 125h-93v-132q0 -50 27 -85.5
t89 -35.5z" />
    <glyph glyph-name="Q" unicode="Q" horiz-adv-x="624" 
d="M594 325q0 -108 -41 -189.5t-120 -117.5l144 -189l-8 -7l-86 83l-80 101q-44 -13 -91 -13q-137 0 -209.5 93.5t-72.5 238.5q0 144 72.5 233t209.5 89t209.5 -89t72.5 -233zM312 619q-77 0 -129 -47.5t-75 -127.5l302 -397q58 36 89.5 110.5t31.5 167.5q0 127 -57.5 210.5
t-161.5 83.5zM312 21q38 0 69 12l-283 359q-5 -37 -5 -67q0 -129 57.5 -216.5t161.5 -87.5z" />
    <glyph glyph-name="R" unicode="R" horiz-adv-x="561" 
d="M370 229l181 -218v-11h-172v11q19 0 33 2t25.5 7t11 16t-13.5 27l-269 328v-310q0 -70 71 -70v-11h-202v11q29 0 50.5 15.5t21.5 54.5v475q0 39 -21.5 54.5t-50.5 15.5v11h247q89 0 139 -39t50 -110q0 -67 -46.5 -109t-133.5 -42q-26 0 -50 9l-1 -2q74 -47 130 -115z
M166 478q0 -54 31.5 -82.5t79.5 -28.5q64 0 98 35t34 83q0 56 -34 85.5t-116 29.5h-93v-122z" />
    <glyph glyph-name="S" unicode="S" horiz-adv-x="525" 
d="M331 352q76 -28 115 -66.5t39 -108.5q0 -57 -19 -95.5t-53.5 -57t-68.5 -25t-78 -6.5q-85 0 -141.5 29t-84.5 73v192h10q2 -119 59 -191.5t157 -72.5q74 0 115 38t41 97q0 97 -108 134l-145 52q-54 19 -83 52t-29 92q0 64 53.5 111.5t158.5 47.5q115 0 190 -67l7 -172
h-10q-15 106 -59.5 158.5t-130.5 52.5q-70 0 -108.5 -33.5t-38.5 -88.5q0 -68 74 -95z" />
    <glyph glyph-name="T" unicode="T" horiz-adv-x="559" 
d="M546 615l12 -104l-11 -2q-4 36 -22.5 63.5t-57.5 27.5h-158v-519q0 -70 71 -70v-11h-202v11q29 0 50.5 15.5t21.5 54.5v519h-158q-39 0 -57.5 -27t-22.5 -62l-11 1l12 103l3 29q19 -7 73 -7h381q54 0 73 7z" />
    <glyph glyph-name="U" unicode="U" horiz-adv-x="605" 
d="M217 638v-11q-29 0 -50.5 -15.5t-21.5 -54.5v-313q0 -104 41 -162.5t125 -58.5t125 58.5t41 162.5v312q0 70 -71 70v11h184v-11q-29 0 -50.5 -15.5t-21.5 -54.5v-312q0 -114 -51.5 -183t-153.5 -69q-125 0 -176 67.5t-51 209.5v288q0 70 -71 70v11h202z" />
    <glyph glyph-name="V" unicode="V" horiz-adv-x="617" 
d="M614 637v-11q-74 0 -96 -66l-180 -560h-59l-179 559q-22 67 -97 67v11h132l190 -595q4 72 20 122l131 396q13 37 -13 51.5t-69 14.5v11h220z" />
    <glyph glyph-name="W" unicode="W" horiz-adv-x="1020" 
d="M1017 637v-11q-75 0 -93 -68l-152 -558h-84l-162 475q-6 -23 -20 -63l-136 -412h-86l-184 560q-22 66 -97 66v11h203v-11q-69 0 -47 -66l176 -536l170 513l-8 23q-23 66 -97 66v11h130l208 -608l144 529q18 68 -50 68v11h185z" />
    <glyph glyph-name="X" unicode="X" horiz-adv-x="677" 
d="M538 69q37 -58 114 -58v-11h-221v11q78 0 41 58l-141 231l-144 -231q-37 -58 40 -58v-11h-202v11q78 0 115 58l167 270l-139 229q-37 58 -115 58v11h137l160 -261l119 192q37 58 -41 58v11h203v-11q-77 0 -114 -58l-143 -231z" />
    <glyph glyph-name="Y" unicode="Y" horiz-adv-x="609" 
d="M606 637v-11q-77 0 -110 -60l-171 -308v-177q0 -70 71 -70v-11h-202v11q29 0 50.5 15.5t21.5 54.5v174l-155 309q-31 62 -108 62v11h137l164 -335l146 264q20 34 -2.5 47t-65.5 13v11h224z" />
    <glyph glyph-name="Z" unicode="Z" horiz-adv-x="623" 
d="M579 204l9 -2l-42 -170l-11 -44q-22 12 -54 12h-444v9l372 488q61 82 90 109l-355 -11q-39 -1 -61.5 -47.5t-31.5 -105.5l-11 2l27 173l3 20h509v-11l-348 -461q-52 -70 -112 -130l359 17q25 1 46.5 28t33.5 57.5t21 66.5z" />
    <glyph glyph-name="bracketleft" unicode="[" horiz-adv-x="226" 
d="M206 664l-145 -7v-714l145 -7v-23h-186v775h186v-24z" />
    <glyph glyph-name="backslash" unicode="\" horiz-adv-x="299" 
d="M281 0h-31l-232 637h31z" />
    <glyph glyph-name="bracketright" unicode="]" horiz-adv-x="226" 
d="M206 688v-775h-186v23l145 7v714l-145 7v24h186z" />
    <glyph glyph-name="asciicircum" unicode="^" horiz-adv-x="321" 
d="M30 395l124 278h22l115 -278h-40l-86 242l-95 -242h-40z" />
    <glyph glyph-name="underscore" unicode="_" horiz-adv-x="320" 
d="M30 0h260v-30h-260v30z" />
    <glyph glyph-name="grave" unicode="`" horiz-adv-x="264" 
d="M50 617l47 47q21 -48 46.5 -83.5t70.5 -66.5l-6 -10q-97 36 -158 113z" />
    <glyph glyph-name="a" unicode="a" horiz-adv-x="466" 
d="M382 74q0 -36 17.5 -50t41.5 -14v-10h-112v143h-5q-38 -150 -154 -150q-55 0 -87.5 37.5t-32.5 119.5q0 36 6 79l272 24q1 9 1 26q0 154 -117 154q-51 0 -77 -25t-26 -59q0 -36 18 -43v-4l-63 -7q-7 17 -7 40q0 51 38.5 88.5t121.5 37.5q44 0 76 -14t49 -34t26.5 -52
t11.5 -56.5t2 -58.5v-172zM193 31q35 0 61 18.5t41 50.5t22.5 65.5t10.5 71.5l-216 -32q-5 -26 -5 -58q0 -116 86 -116z" />
    <glyph glyph-name="b" unicode="b" horiz-adv-x="498" 
d="M290 461q162 0 162 -235q0 -233 -162 -233q-119 0 -145 135v-128h-115v10q24 0 42 14t18 50v489q0 36 -18 50t-42 14v10h115v-305q9 54 43.5 91.5t101.5 37.5zM277 21q114 0 114 205q0 207 -114 207q-54 0 -93 -52t-39 -155q0 -102 39 -153.5t93 -51.5z" />
    <glyph glyph-name="c" unicode="c" horiz-adv-x="434" 
d="M323 294q5 20 5 41q0 45 -24.5 71.5t-68.5 26.5q-63 0 -100.5 -52t-38.5 -135q-1 -105 40 -162t108 -57q61 0 96 37t48 88l11 -3q-5 -26 -15 -49.5t-28 -49.5t-50 -41.5t-73 -15.5q-95 0 -146.5 60.5t-51.5 174.5t55.5 173.5t147.5 59.5q71 0 114.5 -41.5t43.5 -104.5
q0 -14 -3 -29z" />
    <glyph glyph-name="d" unicode="d" horiz-adv-x="501" 
d="M411 74q0 -36 18 -50t42 -14v-10h-115v123q-12 -55 -46 -92.5t-98 -37.5q-162 0 -162 233q0 235 162 235q65 0 99.5 -35.5t44.5 -87.5v225q0 36 -18 50t-42 14v10h115v-563zM225 21q49 0 87 44t44 131v60q-6 88 -44 132.5t-87 44.5q-114 0 -114 -207q0 -205 114 -205z
" />
    <glyph glyph-name="e" unicode="e" horiz-adv-x="435" 
d="M390 138l10 -2q-1 -11 -5.5 -26t-17 -36.5t-30.5 -38.5t-49.5 -29.5t-69.5 -12.5q-96 0 -144.5 62t-48.5 174q0 111 52.5 171.5t143.5 60.5q85 0 124 -47.5t39 -124.5q0 -25 -5 -60h-293q4 -98 42.5 -150t106.5 -52q37 0 66 13.5t45 33.5t23.5 36t10.5 28zM228 433
q-55 0 -93.5 -44.5t-38.5 -141.5l231 12q5 27 5 48q0 52 -26.5 89t-77.5 37z" />
    <glyph glyph-name="f" unicode="f" horiz-adv-x="336" 
d="M305 544l-4 3q3 7 3 14q0 22 -20.5 40t-51.5 18q-83 0 -83 -99v-84l66 16h88v-35h-154v-343q0 -36 17.5 -50t41.5 -14v-10h-174v10q24 0 42 14t18 50v342l-69 17v19h80l-11 58q0 66 40 101.5t100 35.5q93 0 137 -60z" />
    <glyph glyph-name="g" unicode="g" horiz-adv-x="481" 
d="M453 452v-10l-112 -25q51 -42 51 -117q0 -62 -43.5 -105t-122.5 -43q-37 0 -68 11l-49 -35q-2 -24 18.5 -35.5t78.5 -13.5l96 -3q63 -2 99 -31t36 -84q0 -59 -53 -94.5t-137 -35.5q-108 0 -165 43t-52 109l114 53q-45 7 -67.5 34t-17.5 66l84 33q-82 39 -82 138
q0 67 43 110.5t122 43.5q35 0 59 -9h168zM226 180q51 0 78.5 35.5t27.5 91.5q0 55 -27.5 91t-78.5 36q-50 0 -77.5 -36t-27.5 -91q0 -56 27 -91.5t78 -35.5zM282 31l-107 2h-10l-80 -61q-6 -50 40 -83.5t114 -33.5q69 0 106 27.5t37 69.5q0 77 -100 79z" />
    <glyph glyph-name="h" unicode="h" horiz-adv-x="507" 
d="M418 74q0 -36 17.5 -50t41.5 -14v-10h-175v10q24 0 42 14t18 50v227q0 68 -20 100t-66 32q-58 0 -94.5 -62t-36.5 -191v-106q0 -36 17.5 -50t41.5 -14v-10h-174v10q24 0 42 14t18 50v489q0 36 -18 50t-42 14v10h115v-306h4q10 52 48 91t97 39q124 0 124 -152v-235z" />
    <glyph glyph-name="i" unicode="i" horiz-adv-x="244" 
d="M64 601l58 58l58 -58l-58 -59zM150 74q0 -36 17.5 -50t41.5 -14v-10h-174v10q24 0 42 14t18 50v304q0 36 -18 50t-42 14v10h115v-378z" />
    <glyph glyph-name="j" unicode="j" horiz-adv-x="205" 
d="M49 601l58 58l58 -58l-58 -59zM135 452v-502l-59 -210h-10l14 260v378q0 36 -18 50t-42 14v10h115z" />
    <glyph glyph-name="k" unicode="k" horiz-adv-x="506" 
d="M393 63q33 -53 98 -53v-10h-120l-154 240l-72 -85v-81q0 -36 17.5 -50t41.5 -14v-10h-174v10q24 0 42 14t18 50v489q0 36 -18 50t-42 14v10h115v-439l165 197q23 28 -0.5 37.5t-71.5 9.5v10h216v-10q-68 0 -112 -53l-117 -139l55 -8z" />
    <glyph glyph-name="l" unicode="l" horiz-adv-x="241" 
d="M150 74q0 -36 17.5 -50t41.5 -14v-10h-174v10q24 0 42 14t18 50v489q0 36 -18 50t-42 14v10h115v-563z" />
    <glyph glyph-name="m" unicode="m" horiz-adv-x="744" 
d="M655 74q0 -36 17.5 -50t41.5 -14v-10h-174v10q24 0 42 14t18 50v228q0 70 -16 101t-62 31q-53 0 -86.5 -62.5t-33.5 -192.5v-105q0 -36 17.5 -50t41.5 -14v-10h-174v10q24 0 42 14t18 50v228q0 70 -16 101t-62 31q-53 0 -86.5 -62.5t-33.5 -192.5v-105q0 -36 17.5 -50
t41.5 -14v-10h-174v10q24 0 42 14t18 50v304q0 36 -18 50t-42 14v10h115v-120h4q4 19 11.5 38.5t22 41.5t40.5 35.5t59 13.5q107 0 115 -129h5q4 19 11.5 38.5t22 41.5t40.5 35.5t59 13.5q116 0 116 -152v-235z" />
    <glyph glyph-name="n" unicode="n" horiz-adv-x="511" 
d="M422 74q0 -36 17.5 -50t41.5 -14v-10h-175v10q24 0 42 14t18 50v227q0 68 -20 100t-66 32q-58 0 -94.5 -62t-36.5 -191v-106q0 -36 17.5 -50t41.5 -14v-10h-174v10q24 0 42 14t18 50v304q0 36 -18 50t-42 14v10h115v-121h4q10 52 48 91t97 39q124 0 124 -152v-235z" />
    <glyph glyph-name="o" unicode="o" horiz-adv-x="460" 
d="M230 461q93 0 144 -66.5t51 -167.5q0 -102 -51 -168t-144 -66q-94 0 -144.5 66t-50.5 168q0 101 51 167.5t144 66.5zM230 21q68 0 101 57t33 149q0 91 -33 148.5t-101 57.5t-101 -57.5t-33 -148.5q0 -92 33 -149t101 -57z" />
    <glyph glyph-name="p" unicode="p" horiz-adv-x="485" 
d="M277 461q162 0 162 -235q0 -233 -162 -233q-119 0 -145 135v-322h-115v10q24 0 42 14t18 50v498q0 36 -18 50t-42 14v10h115v-120q9 54 43.5 91.5t101.5 37.5zM264 21q114 0 114 205q0 207 -114 207q-54 0 -93 -52t-39 -155q0 -102 39 -153.5t93 -51.5z" />
    <glyph glyph-name="q" unicode="q" horiz-adv-x="485" 
d="M468 442q-24 0 -42 -14t-18 -50v-498q0 -36 18 -50t42 -14v-10h-115v322q-26 -135 -145 -135q-162 0 -162 233q0 235 162 235q67 0 101.5 -37.5t43.5 -91.5v120h115v-10zM221 21q54 0 93 51.5t39 153.5q0 103 -39 155t-93 52q-114 0 -114 -207q0 -205 114 -205z" />
    <glyph glyph-name="r" unicode="r" horiz-adv-x="385" 
d="M287 458q51 0 70 -29l-26 -72l-4 1q2 23 -13.5 38.5t-45.5 15.5q-53 0 -86 -64.5t-33 -213.5v-60q0 -36 17.5 -50t41.5 -14v-10h-174v10q24 0 42 14t18 50v304q0 36 -18 50t-42 14v10h115v-162h3q6 39 20.5 74.5t45 64.5t69.5 29z" />
    <glyph glyph-name="s" unicode="s" horiz-adv-x="414" 
d="M272 249q49 -17 73 -45.5t24 -77.5q0 -133 -158 -133q-107 0 -161 72v145h10q9 -90 48 -139.5t103 -49.5q50 0 78 23.5t28 68.5q0 31 -17.5 51.5t-60.5 35.5l-85 29q-95 32 -95 118q0 46 36.5 80t111.5 34q94 0 150 -48l7 -123h-10q-19 75 -54 109t-90 34
q-44 0 -71.5 -22t-27.5 -56q0 -29 16 -46t49 -28z" />
    <glyph glyph-name="t" unicode="t" horiz-adv-x="325" 
d="M291 82h9q0 -4 -1 -10t-7 -21t-15.5 -27t-29 -21.5t-45.5 -9.5q-109 0 -109 124v300h-63v23q51 12 76.5 47.5t31.5 104.5h11v-155l61 15h88v-35h-149v-294q0 -92 72 -92q26 0 43.5 12.5t21.5 25.5z" />
    <glyph glyph-name="u" unicode="u" horiz-adv-x="494" 
d="M404 74q0 -36 18 -50t42 -14v-10h-115v122h-4q-10 -53 -47 -91.5t-97 -38.5q-122 0 -122 142v244q0 36 -17.5 50t-41.5 14v10h115v-300q0 -68 19.5 -100t64.5 -32q59 0 94.5 61.5t35.5 191.5v105q0 36 -17.5 50t-41.5 14v10h114v-378z" />
    <glyph glyph-name="v" unicode="v" horiz-adv-x="479" 
d="M479 452v-10q-62 0 -82 -60l-124 -382h-66l-123 382q-20 60 -83 60v10h115l135 -412l113 342q11 34 -10 47t-57 13v10h182z" />
    <glyph glyph-name="w" unicode="w" horiz-adv-x="738" 
d="M738 452v-10q-62 0 -79 -61l-107 -381h-59l-107 318l-106 -318h-60l-133 382q-20 60 -84 60v10h116l141 -408l110 323l-5 15q-20 60 -84 60v10h115l137 -404l93 333q17 61 -58 61v10h170z" />
    <glyph glyph-name="x" unicode="x" horiz-adv-x="473" 
d="M366 64q32 -54 97 -54v-10h-122l-114 192l-80 -129q-33 -53 38 -53v-10h-175v10q66 0 99 53l100 160l-98 165q-32 54 -98 54v10h123l111 -188l78 125q33 53 -39 53v10h157v-7q-46 0 -68 -37l-109 -175z" />
    <glyph glyph-name="y" unicode="y" horiz-adv-x="485" 
d="M485 452v-10q-63 0 -82 -60l-159 -488q-19 -57 -38 -77.5t-62 -20.5q-50 0 -77 30t-21 78l59 -8q-5 -41 9.5 -59t35.5 -18q24 0 35 15.5t26 59.5l34 106h-33l-123 382q-20 60 -83 60v10h118l134 -412l111 342q11 34 -10 47t-57 13v10h183z" />
    <glyph glyph-name="z" unicode="z" horiz-adv-x="459" 
d="M413 150l10 -3l-28 -123l-7 -30q-13 6 -45 6h-313q25 17 50 53l205 300q26 37 65 74l-214 -7q-36 -1 -58 -37.5t-33 -83.5l-9 2l30 137l5 20q12 -6 54 -6h293v-8l-229 -327q-31 -45 -73 -88l209 10q63 2 88 111z" />
    <glyph glyph-name="braceleft" unicode="{" horiz-adv-x="274" 
d="M20 295v20q30 4 54 22t24 55v37q0 205 151 270l5 -11q-22 -12 -38.5 -27t-27.5 -28.5t-18 -38t-11 -40.5t-5.5 -53t-2 -58t-0.5 -71q0 -16 -6 -28t-12 -18t-20 -10.5t-17.5 -5.5t-17.5 -3v-6q19 -2 31 -5t27 -18t15 -41q0 -146 19 -217t84 -107l-5 -12q-151 67 -151 279
v38q0 36 -24.5 55t-53.5 22z" />
    <glyph glyph-name="bar" unicode="|" horiz-adv-x="95" 
d="M65 697v-797h-35v797h35z" />
    <glyph glyph-name="braceright" unicode="}" horiz-adv-x="274" 
d="M254 295q-29 -3 -53.5 -22t-24.5 -55v-38q0 -212 -151 -279l-5 12q65 36 84 107t19 217q0 26 15 41t27 18t31 5v6q-47 8 -62 27q-11 15 -11 38q0 50 -0.5 71t-2 58t-5.5 53t-11 40.5t-18 38t-27.5 28.5t-38.5 27l5 11q151 -65 151 -270v-37q0 -37 24 -55t54 -22v-20z" />
    <glyph glyph-name="asciitilde" unicode="~" horiz-adv-x="291" 
d="M30 215q43 51 77 51q20 0 49 -10t45 -10q21 0 55 24l5 -6q-43 -51 -78 -51q-20 0 -48.5 10t-44.5 10q-19 0 -55 -23z" />
    <glyph glyph-name="uni00A0" unicode="&#xa0;" horiz-adv-x="222" 
 />
    <glyph glyph-name="exclamdown" unicode="&#xa1;" horiz-adv-x="218" 
d="M51 402l58 59l58 -59l-58 -57zM113 295l37 -447l-41 -42l-40 42l36 447h8z" />
    <glyph glyph-name="cent" unicode="&#xa2;" horiz-adv-x="304" 
d="M267 254l7 -2q-7 -40 -33 -72.5t-78 -32.5q-16 0 -31 3l-10 -52l-19 2l11 54q-84 28 -84 149q0 78 37.5 118t98.5 40h7l11 57l18 -2l-11 -57q37 -7 59 -33.5t22 -62.5q0 -7 -2 -19l-47 5q3 12 3 27q0 49 -39 63l-50 -261q15 -6 33 -6q75 0 97 82zM71 317q-1 -96 49 -130
l49 255h-5q-43 0 -68 -34.5t-25 -90.5z" />
    <glyph glyph-name="sterling" unicode="&#xa3;" horiz-adv-x="534" 
d="M493 120l11 -3l-26 -94l-6 -23h-442v37q57 32 86 85.5t29 117.5q0 27 -6 79h-109v29h105q-13 89 -13 127q0 70 47 121t137 51q125 0 191 -92l-50 -47q-31 111 -138 111q-62 0 -94.5 -36t-32.5 -105q0 -44 14 -130h229v-29h-225q5 -38 5 -67q0 -75 -31.5 -132t-94.5 -83
h322q39 0 61 25t31 58z" />
    <glyph glyph-name="yen" unicode="&#xa5;" horiz-adv-x="663" 
d="M623 637v-11q-77 0 -110 -60l-155 -280h146v-29h-162v-52h162v-29h-162v-95q0 -70 71 -70v-11h-202v11q29 0 50.5 15.5t21.5 54.5v95h-143v29h143v50l-1 2h-142v29h127l-139 278q-31 62 -108 62v11h137l164 -335l146 264q20 34 -2.5 47t-65.5 13v11h224z" />
    <glyph glyph-name="brokenbar" unicode="&#xa6;" horiz-adv-x="95" 
d="M30 417v280h35v-280h-35zM30 -100v281h35v-281h-35z" />
    <glyph glyph-name="section" unicode="&#xa7;" horiz-adv-x="545" 
d="M275 -107q-126 0 -175 79v156h8q2 -98 45.5 -155t121.5 -57q57 0 89.5 29.5t32.5 74.5q0 74 -84 104l-113 41q-42 14 -64 39.5t-22 71.5q0 45 29.5 81.5t93.5 42.5l-37 13q-42 15 -64 40t-22 71q0 51 41 87.5t123 36.5q89 0 147 -52l5 -133h-8q-11 82 -45.5 122.5
t-101.5 40.5q-54 0 -84 -26t-30 -68q0 -54 58 -74l106 -38q59 -21 89.5 -51.5t30.5 -85.5q0 -108 -96 -121q96 -41 96 -127q0 -45 -14.5 -74.5t-41.5 -43.5t-53.5 -19t-60.5 -5zM310 176q44 7 65.5 32t21.5 61q0 71 -84 103l-22 7q-63 4 -96.5 -23.5t-33.5 -72.5
q0 -53 58 -73z" />
    <glyph glyph-name="dieresis" unicode="&#xa8;" horiz-adv-x="365" 
d="M108 542l-58 59l58 58l58 -58zM258 542l-58 59l58 58l57 -58z" />
    <glyph glyph-name="copyright" unicode="&#xa9;" horiz-adv-x="854" 
d="M422 -156q-164 0 -278 115.5t-114 287.5t114 287t278 115q165 0 283.5 -115.5t118.5 -286.5t-118.5 -287t-283.5 -116zM422 -129q145 0 248 103.5t103 272.5t-103 272t-248 103q-144 0 -242.5 -102.5t-98.5 -272.5t98.5 -273t242.5 -103zM510 311q4 15 4 37q0 40 -22 64
t-61 24q-57 0 -90 -46.5t-34 -121.5q-1 -94 35.5 -143t96.5 -49q56 0 87 32t42 76l10 -2q-4 -23 -13 -44.5t-25.5 -44.5t-45 -37t-65.5 -14q-85 0 -131 52.5t-46 156.5q0 103 50 156.5t132 53.5q63 0 102 -37t39 -94q0 -8 -2 -26z" />
    <glyph glyph-name="guillemotleft" unicode="&#xab;" horiz-adv-x="481" 
d="M30 244l263 195v-37l-215 -158l215 -157v-38zM188 244l263 195v-37l-215 -158l215 -157v-38z" />
    <glyph glyph-name="logicalnot" unicode="&#xac;" horiz-adv-x="329" 
d="M264 141v85h-234v30h269v-115h-35z" />
    <glyph glyph-name="registered" unicode="&#xae;" horiz-adv-x="438" 
d="M217 649q81 0 136 -54t55 -137q0 -84 -55 -138t-136 -54q-80 0 -133.5 54t-53.5 138q0 83 53.5 137t133.5 54zM217 284q73 0 118 48.5t45 125.5q0 76 -45 124.5t-118 48.5q-72 0 -115.5 -48t-43.5 -125t43.5 -125.5t115.5 -48.5zM210 468q20 -12 40 -35l56 -68v-3h-53v3
q13 0 18.5 3t-1.5 13l-83 101v-95q0 -22 22 -22v-3h-63v3q23 0 23 22v147q0 21 -23 21v4h77q27 0 42.5 -12t15.5 -34q0 -21 -14 -34t-41 -13q-7 0 -16 3v-1zM187 510q0 -17 9.5 -26t24.5 -9q20 0 30.5 11t10.5 26q0 35 -46 35h-29v-37z" />
    <glyph glyph-name="macron" unicode="&#xaf;" horiz-adv-x="369" 
d="M50 570h269v-28h-269v28z" />
    <glyph glyph-name="degree" unicode="&#xb0;" horiz-adv-x="285" 
d="M143 422q-47 0 -80 33t-33 80t33 79.5t80 32.5t79.5 -32.5t32.5 -79.5t-32.5 -80t-79.5 -33zM143 459q32 0 52 21t20 55t-20 54.5t-52 20.5t-52.5 -20.5t-20.5 -54.5t20.5 -55t52.5 -21z" />
    <glyph glyph-name="plusminus" unicode="&#xb1;" horiz-adv-x="384" 
d="M354 232h-145v-139h145v-30h-324v30h144v139h-144v30h144v141h35v-141h145v-30z" />
    <glyph glyph-name="acute" unicode="&#xb4;" horiz-adv-x="264" 
d="M244 617q-61 -77 -158 -113l-6 10q45 31 70.5 66.5t46.5 83.5z" />
    <glyph glyph-name="paragraph" unicode="&#xb6;" horiz-adv-x="419" 
d="M60 518q0 73 47 116.5t117 43.5h35v-778h-35v456q-72 4 -118 46t-46 116zM324 678h35v-778h-35v778z" />
    <glyph glyph-name="periodcentered" unicode="&#xb7;" horiz-adv-x="218" 
d="M27 228l58 57l58 -57l-58 -59z" />
    <glyph glyph-name="cedilla" unicode="&#xb8;" horiz-adv-x="264" 
d="M139 -55q75 0 75 -71q0 -31 -23.5 -52.5t-61.5 -21.5q-36 0 -57.5 19t-21.5 46q0 22 5 34l44 -9q-8 -14 -8 -28q0 -15 10.5 -25t28.5 -10q44 0 44 47q0 25 -15 40.5t-42 15.5q-23 0 -45 -8l40 86h49l-37 -64q5 1 15 1z" />
    <glyph glyph-name="guillemotright" unicode="&#xbb;" horiz-adv-x="481" 
d="M293 244l-263 -195v38l215 157l-215 158v37zM451 244l-263 -195v38l215 157l-215 158v37z" />
    <glyph glyph-name="questiondown" unicode="&#xbf;" horiz-adv-x="489" 
d="M304 402l-58 -57l-58 57l58 59zM422 54q16 -37 16 -84q0 -63 -57.5 -114t-142.5 -51q-90 0 -138 48t-48 113q0 82 50 129.5t135 54.5l-31 18l39 124h3l25 -164l-14 -1q-57 -5 -101 -43t-44 -111q0 -62 30.5 -100t93.5 -38q58 0 95 34.5t37 92.5q0 46 -23 82z" />
    <glyph glyph-name="Agrave" unicode="&#xc0;" horiz-adv-x="618" 
d="M366 682q-93 21 -158 103l47 47q21 -49 46.5 -82.5t70.5 -57.5zM516 78q19 -67 94 -67v-11h-226v11q38 0 61 14.5t12 52.5l-37 123h-239l-37 -123q-11 -38 11 -52.5t60 -14.5v-11h-207v11q76 0 95 67l145 481q7 26 -8 42t-37.5 20.5t-51.5 4.5v11h198zM192 238h217
l-108 362z" />
    <glyph glyph-name="Aacute" unicode="&#xc1;" horiz-adv-x="618" 
d="M372 785q-65 -82 -158 -103l-6 10q45 24 70.5 57.5t46.5 82.5zM516 78q19 -67 94 -67v-11h-226v11q38 0 61 14.5t12 52.5l-37 123h-239l-37 -123q-11 -38 11 -52.5t60 -14.5v-11h-207v11q76 0 95 67l145 481q7 26 -8 42t-37.5 20.5t-51.5 4.5v11h198zM192 238h217
l-108 362z" />
    <glyph glyph-name="Acircumflex" unicode="&#xc2;" horiz-adv-x="618" 
d="M290 748l-47 -62h-59l94 108h22l95 -108h-60zM516 78q19 -67 94 -67v-11h-226v11q38 0 61 14.5t12 52.5l-37 123h-239l-37 -123q-11 -38 11 -52.5t60 -14.5v-11h-207v11q76 0 95 67l145 481q7 26 -8 42t-37.5 20.5t-51.5 4.5v11h198zM192 238h217l-108 362z" />
    <glyph glyph-name="Atilde" unicode="&#xc3;" horiz-adv-x="618" 
d="M225 720q-23 0 -63 -23l-6 5q49 51 99 51q24 0 52 -10t47 -10q26 0 64 24l6 -6q-49 -51 -100 -51q-24 0 -52 10t-47 10zM516 78q19 -67 94 -67v-11h-226v11q38 0 61 14.5t12 52.5l-37 123h-239l-37 -123q-11 -38 11 -52.5t60 -14.5v-11h-207v11q76 0 95 67l145 481
q7 26 -8 42t-37.5 20.5t-51.5 4.5v11h198zM192 238h217l-108 362z" />
    <glyph glyph-name="Adieresis" unicode="&#xc4;" horiz-adv-x="618" 
d="M273 739l-58 -58l-58 58l58 58zM422 739l-57 -58l-58 58l58 58zM516 78q19 -67 94 -67v-11h-226v11q38 0 61 14.5t12 52.5l-37 123h-239l-37 -123q-11 -38 11 -52.5t60 -14.5v-11h-207v11q76 0 95 67l145 481q7 26 -8 42t-37.5 20.5t-51.5 4.5v11h198zM192 238h217
l-108 362z" />
    <glyph glyph-name="Aring" unicode="&#xc5;" horiz-adv-x="618" 
d="M290 681q-24 0 -41 17t-17 41t17 41t41 17t41 -17t17 -41t-17 -41t-41 -17zM290 773q-14 0 -23.5 -10t-9.5 -24t9.5 -23.5t23.5 -9.5t24 9.5t10 23.5t-10 24t-24 10zM516 78q19 -67 94 -67v-11h-226v11q38 0 61 14.5t12 52.5l-37 123h-239l-37 -123q-11 -38 11 -52.5
t60 -14.5v-11h-207v11q76 0 95 67l145 481q7 26 -8 42t-37.5 20.5t-51.5 4.5v11h198zM192 238h217l-108 362z" />
    <glyph glyph-name="AE" unicode="&#xc6;" horiz-adv-x="967" 
d="M927 119l10 -3l-26 -93l-6 -23h-480v7q80 0 80 45v149h-225l-74 -130q-20 -34 2 -47t64 -13v-11h-222v11q78 0 112 60l282 495q20 34 -2.5 47t-65.5 13v11h544l2 -22l8 -96l-10 -1q-7 83 -71 83h-284v-240h216q39 0 54.5 16.5t15.5 37.5h11v-143h-11q0 21 -15.5 37.5
t-54.5 16.5h-216v-290h269q69 0 93 83zM301 238h204v359z" />
    <glyph glyph-name="Ccedilla" unicode="&#xc7;" horiz-adv-x="570" 
d="M308 -7h-3l-28 -49q5 1 15 1q75 0 75 -71q0 -31 -23.5 -52.5t-61.5 -21.5q-36 0 -57.5 19t-21.5 46q0 22 5 34l44 -9q-8 -14 -8 -28q0 -15 10.5 -25t28.5 -10q44 0 44 47q0 25 -15 40.5t-42 15.5q-23 0 -45 -8l35 74q-110 16 -170 100t-60 225q0 146 76 236t201 90
q61 0 107 -21t71.5 -58t37.5 -80t12 -92v-20l-90 11q13 42 13 81q0 68 -40.5 109.5t-108.5 41.5q-99 0 -157.5 -75t-58.5 -223q0 -139 64.5 -212.5t171.5 -73.5q82 0 132.5 46t63.5 114l15 -3q-38 -199 -232 -199z" />
    <glyph glyph-name="Egrave" unicode="&#xc8;" horiz-adv-x="570" 
d="M372 682q-93 21 -158 103l47 47q21 -49 46.5 -82.5t70.5 -57.5zM529 125l11 -3l-27 -99l-6 -23h-472v11q29 0 50.5 15.5t21.5 54.5v475q0 39 -21.5 54.5t-50.5 15.5v11h478l2 -23l8 -96l-10 -1q-7 83 -71 83h-276v-239h216q39 0 54.5 16.5t15.5 37.5h11v-143h-11
q0 21 -15.5 37.5t-54.5 16.5h-216v-289h270q39 0 61.5 26.5t31.5 61.5z" />
    <glyph glyph-name="Eacute" unicode="&#xc9;" horiz-adv-x="570" 
d="M378 785q-65 -82 -158 -103l-6 10q45 24 70.5 57.5t46.5 82.5zM529 125l11 -3l-27 -99l-6 -23h-472v11q29 0 50.5 15.5t21.5 54.5v475q0 39 -21.5 54.5t-50.5 15.5v11h478l2 -23l8 -96l-10 -1q-7 83 -71 83h-276v-239h216q39 0 54.5 16.5t15.5 37.5h11v-143h-11
q0 21 -15.5 37.5t-54.5 16.5h-216v-289h270q39 0 61.5 26.5t31.5 61.5z" />
    <glyph glyph-name="Ecircumflex" unicode="&#xca;" horiz-adv-x="570" 
d="M296 748l-47 -62h-59l94 108h22l95 -108h-60zM529 125l11 -3l-27 -99l-6 -23h-472v11q29 0 50.5 15.5t21.5 54.5v475q0 39 -21.5 54.5t-50.5 15.5v11h478l2 -23l8 -96l-10 -1q-7 83 -71 83h-276v-239h216q39 0 54.5 16.5t15.5 37.5h11v-143h-11q0 21 -15.5 37.5
t-54.5 16.5h-216v-289h270q39 0 61.5 26.5t31.5 61.5z" />
    <glyph glyph-name="Edieresis" unicode="&#xcb;" horiz-adv-x="570" 
d="M279 739l-58 -58l-58 58l58 58zM428 739l-57 -58l-58 58l58 58zM529 125l11 -3l-27 -99l-6 -23h-472v11q29 0 50.5 15.5t21.5 54.5v475q0 39 -21.5 54.5t-50.5 15.5v11h478l2 -23l8 -96l-10 -1q-7 83 -71 83h-276v-239h216q39 0 54.5 16.5t15.5 37.5h11v-143h-11
q0 21 -15.5 37.5t-54.5 16.5h-216v-289h270q39 0 61.5 26.5t31.5 61.5z" />
    <glyph glyph-name="Igrave" unicode="&#xcc;" horiz-adv-x="262" 
d="M49 785l47 47q21 -49 46.5 -82.5t70.5 -57.5l-6 -10q-93 21 -158 103zM161 81q0 -70 71 -70v-11h-202v11q29 0 50.5 15.5t21.5 54.5v475q0 39 -21.5 54.5t-50.5 15.5v11h202v-11q-71 0 -71 -70v-475z" />
    <glyph glyph-name="Iacute" unicode="&#xcd;" horiz-adv-x="262" 
d="M213 785q-65 -82 -158 -103l-6 10q45 24 70.5 57.5t46.5 82.5zM161 81q0 -70 71 -70v-11h-202v11q29 0 50.5 15.5t21.5 54.5v475q0 39 -21.5 54.5t-50.5 15.5v11h202v-11q-71 0 -71 -70v-475z" />
    <glyph glyph-name="Icircumflex" unicode="&#xce;" horiz-adv-x="262" 
d="M25 686l94 108h22l95 -108h-60l-45 62l-47 -62h-59zM161 81q0 -70 71 -70v-11h-202v11q29 0 50.5 15.5t21.5 54.5v475q0 39 -21.5 54.5t-50.5 15.5v11h202v-11q-71 0 -71 -70v-475z" />
    <glyph glyph-name="Idieresis" unicode="&#xcf;" horiz-adv-x="262" 
d="M-2 739l58 58l58 -58l-58 -58zM148 739l58 58l57 -58l-57 -58zM161 81q0 -70 71 -70v-11h-202v11q29 0 50.5 15.5t21.5 54.5v475q0 39 -21.5 54.5t-50.5 15.5v11h202v-11q-71 0 -71 -70v-475z" />
    <glyph glyph-name="Eth" unicode="&#xd0;" horiz-adv-x="587" 
d="M254 637q140 0 221.5 -82t81.5 -237t-81.5 -236.5t-221.5 -81.5h-219v11q29 0 50.5 15.5t21.5 54.5v223h-95v28h95v224q0 39 -21.5 54.5t-50.5 15.5v11h219zM234 37q119 0 190 72.5t71 208.5t-71 209t-190 73h-68v-268h176v-28h-176v-267h68z" />
    <glyph glyph-name="Ntilde" unicode="&#xd1;" horiz-adv-x="671" 
d="M271 720q-23 0 -63 -23l-6 5q49 51 99 51q24 0 52 -10t47 -10q26 0 64 24l6 -6q-49 -51 -100 -51q-24 0 -52 10t-47 10zM636 626q-29 0 -50.5 -15.5t-21.5 -54.5v-475q0 -39 21.5 -54.5t50.5 -15.5v-11h-154l-334 588v-507q0 -70 71 -70v-11h-184v11q29 0 50.5 15.5
t21.5 54.5v475q0 39 -21.5 54.5t-50.5 15.5v11h150l338 -595v514q0 39 -25 54.5t-59 15.5v11h197v-11z" />
    <glyph glyph-name="Ograve" unicode="&#xd2;" horiz-adv-x="624" 
d="M230 785l47 47q21 -49 46.5 -82.5t70.5 -57.5l-6 -10q-93 21 -158 103zM312 647q137 0 209.5 -89t72.5 -233q0 -145 -72.5 -238.5t-209.5 -93.5t-209.5 93.5t-72.5 238.5q0 144 72.5 233t209.5 89zM312 21q104 0 161.5 87.5t57.5 216.5q0 127 -57.5 210.5t-161.5 83.5
t-161.5 -83.5t-57.5 -210.5q0 -129 57.5 -216.5t161.5 -87.5z" />
    <glyph glyph-name="Oacute" unicode="&#xd3;" horiz-adv-x="624" 
d="M394 785q-65 -82 -158 -103l-6 10q45 24 70.5 57.5t46.5 82.5zM312 647q137 0 209.5 -89t72.5 -233q0 -145 -72.5 -238.5t-209.5 -93.5t-209.5 93.5t-72.5 238.5q0 144 72.5 233t209.5 89zM312 21q104 0 161.5 87.5t57.5 216.5q0 127 -57.5 210.5t-161.5 83.5
t-161.5 -83.5t-57.5 -210.5q0 -129 57.5 -216.5t161.5 -87.5z" />
    <glyph glyph-name="Ocircumflex" unicode="&#xd4;" horiz-adv-x="624" 
d="M206 686l94 108h22l95 -108h-60l-45 62l-47 -62h-59zM312 647q137 0 209.5 -89t72.5 -233q0 -145 -72.5 -238.5t-209.5 -93.5t-209.5 93.5t-72.5 238.5q0 144 72.5 233t209.5 89zM312 21q104 0 161.5 87.5t57.5 216.5q0 127 -57.5 210.5t-161.5 83.5t-161.5 -83.5
t-57.5 -210.5q0 -129 57.5 -216.5t161.5 -87.5z" />
    <glyph glyph-name="Otilde" unicode="&#xd5;" horiz-adv-x="624" 
d="M178 702q49 51 99 51q24 0 52 -10t47 -10q26 0 64 24l6 -6q-49 -51 -100 -51q-24 0 -52 10t-47 10q-23 0 -63 -23zM312 647q137 0 209.5 -89t72.5 -233q0 -145 -72.5 -238.5t-209.5 -93.5t-209.5 93.5t-72.5 238.5q0 144 72.5 233t209.5 89zM312 21q104 0 161.5 87.5
t57.5 216.5q0 127 -57.5 210.5t-161.5 83.5t-161.5 -83.5t-57.5 -210.5q0 -129 57.5 -216.5t161.5 -87.5z" />
    <glyph glyph-name="Odieresis" unicode="&#xd6;" horiz-adv-x="624" 
d="M179 739l58 58l58 -58l-58 -58zM329 739l58 58l57 -58l-57 -58zM312 647q137 0 209.5 -89t72.5 -233q0 -145 -72.5 -238.5t-209.5 -93.5t-209.5 93.5t-72.5 238.5q0 144 72.5 233t209.5 89zM312 21q104 0 161.5 87.5t57.5 216.5q0 127 -57.5 210.5t-161.5 83.5
t-161.5 -83.5t-57.5 -210.5q0 -129 57.5 -216.5t161.5 -87.5z" />
    <glyph glyph-name="multiply" unicode="&#xd7;" horiz-adv-x="298" 
d="M245 340l23 -23q-64 -64 -102 -96q38 -32 102 -96l-23 -23q-64 64 -96 102q-32 -38 -96 -102l-23 23q64 64 102 96q-38 32 -102 96l23 23q64 -64 96 -102q32 38 96 102z" />
    <glyph glyph-name="Oslash" unicode="&#xd8;" horiz-adv-x="664" 
d="M456 613q68 -38 103 -113.5t35 -174.5q0 -145 -72.5 -238.5t-209.5 -93.5q-42 0 -78 9l-21 -56l-28 10l20 56q-86 33 -130.5 116.5t-44.5 196.5q0 144 72.5 233t209.5 89q64 0 117 -21l25 67l27 -10zM93 325q0 -95 32.5 -170.5t92.5 -109.5l199 545q-46 29 -105 29
q-104 0 -161.5 -83.5t-57.5 -210.5zM312 21q104 0 161.5 87.5t57.5 216.5q0 169 -90 247l-197 -539q32 -12 68 -12z" />
    <glyph glyph-name="Ugrave" unicode="&#xd9;" horiz-adv-x="605" 
d="M221 785l47 47q21 -49 46.5 -82.5t70.5 -57.5l-6 -10q-93 21 -158 103zM217 638v-11q-29 0 -50.5 -15.5t-21.5 -54.5v-313q0 -104 41 -162.5t125 -58.5t125 58.5t41 162.5v312q0 70 -71 70v11h184v-11q-29 0 -50.5 -15.5t-21.5 -54.5v-312q0 -114 -51.5 -183t-153.5 -69
q-125 0 -176 67.5t-51 209.5v288q0 70 -71 70v11h202z" />
    <glyph glyph-name="Uacute" unicode="&#xda;" horiz-adv-x="605" 
d="M385 785q-65 -82 -158 -103l-6 10q45 24 70.5 57.5t46.5 82.5zM217 638v-11q-29 0 -50.5 -15.5t-21.5 -54.5v-313q0 -104 41 -162.5t125 -58.5t125 58.5t41 162.5v312q0 70 -71 70v11h184v-11q-29 0 -50.5 -15.5t-21.5 -54.5v-312q0 -114 -51.5 -183t-153.5 -69
q-125 0 -176 67.5t-51 209.5v288q0 70 -71 70v11h202z" />
    <glyph glyph-name="Ucircumflex" unicode="&#xdb;" horiz-adv-x="605" 
d="M197 686l94 108h22l95 -108h-60l-45 62l-47 -62h-59zM217 638v-11q-29 0 -50.5 -15.5t-21.5 -54.5v-313q0 -104 41 -162.5t125 -58.5t125 58.5t41 162.5v312q0 70 -71 70v11h184v-11q-29 0 -50.5 -15.5t-21.5 -54.5v-312q0 -114 -51.5 -183t-153.5 -69q-125 0 -176 67.5
t-51 209.5v288q0 70 -71 70v11h202z" />
    <glyph glyph-name="Udieresis" unicode="&#xdc;" horiz-adv-x="605" 
d="M170 739l58 58l58 -58l-58 -58zM320 739l58 58l57 -58l-57 -58zM217 638v-11q-29 0 -50.5 -15.5t-21.5 -54.5v-313q0 -104 41 -162.5t125 -58.5t125 58.5t41 162.5v312q0 70 -71 70v11h184v-11q-29 0 -50.5 -15.5t-21.5 -54.5v-312q0 -114 -51.5 -183t-153.5 -69
q-125 0 -176 67.5t-51 209.5v288q0 70 -71 70v11h202z" />
    <glyph glyph-name="Yacute" unicode="&#xdd;" horiz-adv-x="609" 
d="M386 785q-65 -82 -158 -103l-6 10q45 24 70.5 57.5t46.5 82.5zM606 637v-11q-77 0 -110 -60l-171 -308v-177q0 -70 71 -70v-11h-202v11q29 0 50.5 15.5t21.5 54.5v174l-155 309q-31 62 -108 62v11h137l164 -335l146 264q20 34 -2.5 47t-65.5 13v11h224z" />
    <glyph glyph-name="Thorn" unicode="&#xde;" horiz-adv-x="481" 
d="M282 482q88 0 138.5 -42t50.5 -114q0 -67 -48 -116t-128 -49q-57 0 -90 27t-38 52h-1v-159q0 -70 71 -70v-11h-202v11q29 0 50.5 15.5t21.5 54.5v475q0 39 -21.5 54.5t-50.5 15.5v11h202v-11q-71 0 -71 -70v-74h116zM282 192q66 0 96.5 38.5t30.5 89.5q0 126 -150 126
h-93v-133q0 -50 27 -85.5t89 -35.5z" />
    <glyph glyph-name="germandbls" unicode="&#xdf;" horiz-adv-x="547" 
d="M351 345q74 -13 120 -57t46 -116q0 -77 -54 -125t-156 -48v9q72 17 110 59.5t38 108.5q0 73 -46 113.5t-133 40.5h-12v7l70 10l93 131q7 63 -25 101t-97 38q-64 0 -104 -40t-40 -128v-449h-131v11q29 0 50.5 15.5t21.5 54.5v335l-69 17v19h69q3 92 59 143.5t144 51.5
q94 0 141.5 -52.5t39.5 -139.5z" />
    <glyph glyph-name="agrave" unicode="&#xe0;" horiz-adv-x="466" 
d="M297 504q-97 36 -158 113l47 47q21 -48 46.5 -83.5t70.5 -66.5zM382 74q0 -36 17.5 -50t41.5 -14v-10h-112v143h-5q-38 -150 -154 -150q-55 0 -87.5 37.5t-32.5 119.5q0 36 6 79l272 24q1 9 1 26q0 154 -117 154q-51 0 -77 -25t-26 -59q0 -36 18 -43v-4l-63 -7
q-7 17 -7 40q0 51 38.5 88.5t121.5 37.5q44 0 76 -14t49 -34t26.5 -52t11.5 -56.5t2 -58.5v-172zM193 31q35 0 61 18.5t41 50.5t22.5 65.5t10.5 71.5l-216 -32q-5 -26 -5 -58q0 -116 86 -116z" />
    <glyph glyph-name="aacute" unicode="&#xe1;" horiz-adv-x="466" 
d="M303 617q-61 -77 -158 -113l-6 10q45 31 70.5 66.5t46.5 83.5zM382 74q0 -36 17.5 -50t41.5 -14v-10h-112v143h-5q-38 -150 -154 -150q-55 0 -87.5 37.5t-32.5 119.5q0 36 6 79l272 24q1 9 1 26q0 154 -117 154q-51 0 -77 -25t-26 -59q0 -36 18 -43v-4l-63 -7
q-7 17 -7 40q0 51 38.5 88.5t121.5 37.5q44 0 76 -14t49 -34t26.5 -52t11.5 -56.5t2 -58.5v-172zM193 31q35 0 61 18.5t41 50.5t22.5 65.5t10.5 71.5l-216 -32q-5 -26 -5 -58q0 -116 86 -116z" />
    <glyph glyph-name="acircumflex" unicode="&#xe2;" horiz-adv-x="466" 
d="M221 601l-47 -62h-59l94 108h22l95 -108h-60zM382 74q0 -36 17.5 -50t41.5 -14v-10h-112v143h-5q-38 -150 -154 -150q-55 0 -87.5 37.5t-32.5 119.5q0 36 6 79l272 24q1 9 1 26q0 154 -117 154q-51 0 -77 -25t-26 -59q0 -36 18 -43v-4l-63 -7q-7 17 -7 40q0 51 38.5 88.5
t121.5 37.5q44 0 76 -14t49 -34t26.5 -52t11.5 -56.5t2 -58.5v-172zM193 31q35 0 61 18.5t41 50.5t22.5 65.5t10.5 71.5l-216 -32q-5 -26 -5 -58q0 -116 86 -116z" />
    <glyph glyph-name="atilde" unicode="&#xe3;" horiz-adv-x="466" 
d="M165 555q-19 0 -55 -23l-5 5q43 51 77 51q20 0 49 -10t45 -10q21 0 55 24l5 -6q-43 -51 -78 -51q-20 0 -48.5 10t-44.5 10zM382 74q0 -36 17.5 -50t41.5 -14v-10h-112v143h-5q-38 -150 -154 -150q-55 0 -87.5 37.5t-32.5 119.5q0 36 6 79l272 24q1 9 1 26q0 154 -117 154
q-51 0 -77 -25t-26 -59q0 -36 18 -43v-4l-63 -7q-7 17 -7 40q0 51 38.5 88.5t121.5 37.5q44 0 76 -14t49 -34t26.5 -52t11.5 -56.5t2 -58.5v-172zM193 31q35 0 61 18.5t41 50.5t22.5 65.5t10.5 71.5l-216 -32q-5 -26 -5 -58q0 -116 86 -116z" />
    <glyph glyph-name="adieresis" unicode="&#xe4;" horiz-adv-x="466" 
d="M204 601l-58 -59l-58 59l58 58zM353 601l-57 -59l-58 59l58 58zM382 74q0 -36 17.5 -50t41.5 -14v-10h-112v143h-5q-38 -150 -154 -150q-55 0 -87.5 37.5t-32.5 119.5q0 36 6 79l272 24q1 9 1 26q0 154 -117 154q-51 0 -77 -25t-26 -59q0 -36 18 -43v-4l-63 -7
q-7 17 -7 40q0 51 38.5 88.5t121.5 37.5q44 0 76 -14t49 -34t26.5 -52t11.5 -56.5t2 -58.5v-172zM193 31q35 0 61 18.5t41 50.5t22.5 65.5t10.5 71.5l-216 -32q-5 -26 -5 -58q0 -116 86 -116z" />
    <glyph glyph-name="aring" unicode="&#xe5;" horiz-adv-x="466" 
d="M221 532q-24 0 -41 17t-17 41t17 40.5t41 16.5t41 -16.5t17 -40.5t-17 -41t-41 -17zM221 623q-14 0 -23.5 -9.5t-9.5 -23.5t9.5 -24t23.5 -10t24 10t10 24t-10 23.5t-24 9.5zM382 74q0 -36 17.5 -50t41.5 -14v-10h-112v143h-5q-38 -150 -154 -150q-55 0 -87.5 37.5
t-32.5 119.5q0 36 6 79l272 24q1 9 1 26q0 154 -117 154q-51 0 -77 -25t-26 -59q0 -36 18 -43v-4l-63 -7q-7 17 -7 40q0 51 38.5 88.5t121.5 37.5q44 0 76 -14t49 -34t26.5 -52t11.5 -56.5t2 -58.5v-172zM193 31q35 0 61 18.5t41 50.5t22.5 65.5t10.5 71.5l-216 -32
q-5 -26 -5 -58q0 -116 86 -116z" />
    <glyph glyph-name="ae" unicode="&#xe6;" horiz-adv-x="721" 
d="M165 -7q-51 0 -83 38t-32 119q0 36 6 79l265 24l1 26q0 32 -4 56.5t-15 48t-34.5 36.5t-58.5 13q-52 0 -76.5 -25t-24.5 -59q0 -36 18 -43v-4l-63 -7q-7 17 -7 40q0 51 37.5 88.5t120.5 37.5q61 0 94.5 -25t49.5 -76q47 101 158 101q161 0 161 -172q0 -25 -5 -60h-290
q3 -202 148 -202q37 0 66 12t45 30t24 32.5t10 26.5l10 -2q-2 -14 -10 -33t-25.5 -43.5t-53.5 -40.5t-83 -16q-154 0 -185 152q-18 -73 -56 -112.5t-108 -39.5zM383 243l225 16q5 25 5 48q0 53 -24 89.5t-75 36.5q-53 0 -91.5 -47.5t-39.5 -142.5zM188 31q34 0 60 20.5
t40 54t21.5 65.5t10.5 66l-208 -32q-5 -26 -5 -58q0 -116 81 -116z" />
    <glyph glyph-name="ccedilla" unicode="&#xe7;" horiz-adv-x="434" 
d="M399 149q-5 -24 -14 -47t-26 -48t-45.5 -41.5t-65.5 -18.5l-29 -50q5 1 15 1q75 0 75 -71q0 -31 -23.5 -52.5t-61.5 -21.5q-36 0 -57.5 19t-21.5 46q0 22 5 34l44 -9q-8 -14 -8 -28q0 -15 10.5 -25t28.5 -10q44 0 44 47q0 25 -15 40.5t-42 15.5q-23 0 -45 -8l34 73
q-80 10 -123 69.5t-43 163.5q0 114 55.5 173.5t147.5 59.5q71 0 114.5 -41.5t43.5 -104.5q0 -14 -3 -29l-70 8q5 20 5 41q0 45 -24.5 71.5t-68.5 26.5q-63 0 -100.5 -52t-38.5 -135q-1 -105 40 -162t108 -57q61 0 96 37t48 88z" />
    <glyph glyph-name="egrave" unicode="&#xe8;" horiz-adv-x="435" 
d="M294 504q-97 36 -158 113l47 47q21 -48 46.5 -83.5t70.5 -66.5zM390 138l10 -2q-1 -11 -5.5 -26t-17 -36.5t-30.5 -38.5t-49.5 -29.5t-69.5 -12.5q-96 0 -144.5 62t-48.5 174q0 111 52.5 171.5t143.5 60.5q85 0 124 -47.5t39 -124.5q0 -25 -5 -60h-293q4 -98 42.5 -150
t106.5 -52q37 0 66 13.5t45 33.5t23.5 36t10.5 28zM228 433q-55 0 -93.5 -44.5t-38.5 -141.5l231 12q5 27 5 48q0 52 -26.5 89t-77.5 37z" />
    <glyph glyph-name="eacute" unicode="&#xe9;" horiz-adv-x="435" 
d="M300 617q-61 -77 -158 -113l-6 10q45 31 70.5 66.5t46.5 83.5zM390 138l10 -2q-1 -11 -5.5 -26t-17 -36.5t-30.5 -38.5t-49.5 -29.5t-69.5 -12.5q-96 0 -144.5 62t-48.5 174q0 111 52.5 171.5t143.5 60.5q85 0 124 -47.5t39 -124.5q0 -25 -5 -60h-293q4 -98 42.5 -150
t106.5 -52q37 0 66 13.5t45 33.5t23.5 36t10.5 28zM228 433q-55 0 -93.5 -44.5t-38.5 -141.5l231 12q5 27 5 48q0 52 -26.5 89t-77.5 37z" />
    <glyph glyph-name="ecircumflex" unicode="&#xea;" horiz-adv-x="435" 
d="M218 601l-47 -62h-59l94 108h22l95 -108h-60zM390 138l10 -2q-1 -11 -5.5 -26t-17 -36.5t-30.5 -38.5t-49.5 -29.5t-69.5 -12.5q-96 0 -144.5 62t-48.5 174q0 111 52.5 171.5t143.5 60.5q85 0 124 -47.5t39 -124.5q0 -25 -5 -60h-293q4 -98 42.5 -150t106.5 -52
q37 0 66 13.5t45 33.5t23.5 36t10.5 28zM228 433q-55 0 -93.5 -44.5t-38.5 -141.5l231 12q5 27 5 48q0 52 -26.5 89t-77.5 37z" />
    <glyph glyph-name="edieresis" unicode="&#xeb;" horiz-adv-x="435" 
d="M201 601l-58 -59l-58 59l58 58zM350 601l-57 -59l-58 59l58 58zM390 138l10 -2q-1 -11 -5.5 -26t-17 -36.5t-30.5 -38.5t-49.5 -29.5t-69.5 -12.5q-96 0 -144.5 62t-48.5 174q0 111 52.5 171.5t143.5 60.5q85 0 124 -47.5t39 -124.5q0 -25 -5 -60h-293q4 -98 42.5 -150
t106.5 -52q37 0 66 13.5t45 33.5t23.5 36t10.5 28zM228 433q-55 0 -93.5 -44.5t-38.5 -141.5l231 12q5 27 5 48q0 52 -26.5 89t-77.5 37z" />
    <glyph glyph-name="igrave" unicode="&#xec;" horiz-adv-x="244" 
d="M40 617l47 47q21 -48 46.5 -83.5t70.5 -66.5l-6 -10q-97 36 -158 113zM150 74q0 -36 17.5 -50t41.5 -14v-10h-174v10q24 0 42 14t18 50v304q0 36 -18 50t-42 14v10h115v-378z" />
    <glyph glyph-name="iacute" unicode="&#xed;" horiz-adv-x="244" 
d="M204 617q-61 -77 -158 -113l-6 10q45 31 70.5 66.5t46.5 83.5zM150 74q0 -36 17.5 -50t41.5 -14v-10h-174v10q24 0 42 14t18 50v304q0 36 -18 50t-42 14v10h115v-378z" />
    <glyph glyph-name="icircumflex" unicode="&#xee;" horiz-adv-x="244" 
d="M16 539l94 108h22l95 -108h-60l-45 62l-47 -62h-59zM150 74q0 -36 17.5 -50t41.5 -14v-10h-174v10q24 0 42 14t18 50v304q0 36 -18 50t-42 14v10h115v-378z" />
    <glyph glyph-name="idieresis" unicode="&#xef;" horiz-adv-x="244" 
d="M47 542l-58 59l58 58l58 -58zM197 542l-58 59l58 58l57 -58zM150 74q0 -36 17.5 -50t41.5 -14v-10h-174v10q24 0 42 14t18 50v304q0 36 -18 50t-42 14v10h115v-378z" />
    <glyph glyph-name="eth" unicode="&#xf0;" horiz-adv-x="468" 
d="M317 564q111 -101 111 -286q0 -153 -40 -218t-140 -65q-92 0 -145 65t-53 174q0 116 44.5 171.5t117.5 55.5q57 0 98 -39.5t58 -100.5q-7 152 -82 235l-129 -35l-7 28l112 30q-50 40 -119 52l2 10q79 -8 145 -55l120 32l7 -27zM248 23q63 0 92 48.5t29 127.5
q0 88 -42 161t-102 73q-54 0 -84 -52t-30 -148q0 -102 35 -156t102 -54z" />
    <glyph glyph-name="ntilde" unicode="&#xf1;" horiz-adv-x="511" 
d="M202 555q-19 0 -55 -23l-5 5q43 51 77 51q20 0 49 -10t45 -10q21 0 55 24l5 -6q-43 -51 -78 -51q-20 0 -48.5 10t-44.5 10zM422 74q0 -36 17.5 -50t41.5 -14v-10h-175v10q24 0 42 14t18 50v227q0 68 -20 100t-66 32q-58 0 -94.5 -62t-36.5 -191v-106q0 -36 17.5 -50
t41.5 -14v-10h-174v10q24 0 42 14t18 50v304q0 36 -18 50t-42 14v10h115v-121h4q10 52 48 91t97 39q124 0 124 -152v-235z" />
    <glyph glyph-name="ograve" unicode="&#xf2;" horiz-adv-x="460" 
d="M148 617l47 47q21 -48 46.5 -83.5t70.5 -66.5l-6 -10q-97 36 -158 113zM230 461q93 0 144 -66.5t51 -167.5q0 -102 -51 -168t-144 -66q-94 0 -144.5 66t-50.5 168q0 101 51 167.5t144 66.5zM230 21q68 0 101 57t33 149q0 91 -33 148.5t-101 57.5t-101 -57.5t-33 -148.5
q0 -92 33 -149t101 -57z" />
    <glyph glyph-name="oacute" unicode="&#xf3;" horiz-adv-x="460" 
d="M312 617q-61 -77 -158 -113l-6 10q45 31 70.5 66.5t46.5 83.5zM230 461q93 0 144 -66.5t51 -167.5q0 -102 -51 -168t-144 -66q-94 0 -144.5 66t-50.5 168q0 101 51 167.5t144 66.5zM230 21q68 0 101 57t33 149q0 91 -33 148.5t-101 57.5t-101 -57.5t-33 -148.5
q0 -92 33 -149t101 -57z" />
    <glyph glyph-name="ocircumflex" unicode="&#xf4;" horiz-adv-x="460" 
d="M124 539l94 108h22l95 -108h-60l-45 62l-47 -62h-59zM230 461q93 0 144 -66.5t51 -167.5q0 -102 -51 -168t-144 -66q-94 0 -144.5 66t-50.5 168q0 101 51 167.5t144 66.5zM230 21q68 0 101 57t33 149q0 91 -33 148.5t-101 57.5t-101 -57.5t-33 -148.5q0 -92 33 -149
t101 -57z" />
    <glyph glyph-name="otilde" unicode="&#xf5;" horiz-adv-x="460" 
d="M114 537q43 51 77 51q20 0 49 -10t45 -10q21 0 55 24l5 -6q-43 -51 -78 -51q-20 0 -48.5 10t-44.5 10q-19 0 -55 -23zM230 461q93 0 144 -66.5t51 -167.5q0 -102 -51 -168t-144 -66q-94 0 -144.5 66t-50.5 168q0 101 51 167.5t144 66.5zM230 21q68 0 101 57t33 149
q0 91 -33 148.5t-101 57.5t-101 -57.5t-33 -148.5q0 -92 33 -149t101 -57z" />
    <glyph glyph-name="odieresis" unicode="&#xf6;" horiz-adv-x="460" 
d="M155 542l-58 59l58 58l58 -58zM305 542l-58 59l58 58l57 -58zM230 461q93 0 144 -66.5t51 -167.5q0 -102 -51 -168t-144 -66q-94 0 -144.5 66t-50.5 168q0 101 51 167.5t144 66.5zM230 21q68 0 101 57t33 149q0 91 -33 148.5t-101 57.5t-101 -57.5t-33 -148.5
q0 -92 33 -149t101 -57z" />
    <glyph glyph-name="divide" unicode="&#xf7;" horiz-adv-x="309" 
d="M154 298q-14 0 -23.5 10t-9.5 24t9.5 23.5t23.5 9.5t24 -9.5t10 -23.5t-10 -24t-24 -10zM30 256h249v-30h-249v30zM154 117q-14 0 -23.5 10t-9.5 24t9.5 23.5t23.5 9.5t24 -9.5t10 -23.5t-10 -24t-24 -10z" />
    <glyph glyph-name="oslash" unicode="&#xf8;" horiz-adv-x="460" 
d="M322 439q50 -28 76.5 -84.5t26.5 -127.5q0 -102 -51 -168t-144 -66q-33 0 -66 10l-21 -58l-27 11l22 59q-51 28 -77 84t-26 128q0 101 51 167.5t144 66.5q35 0 66 -11l22 61l27 -10zM96 227q0 -124 55 -176l134 369q-26 13 -55 13q-68 0 -101 -57.5t-33 -148.5zM230 21
q68 0 101 57t33 149q0 122 -55 176l-134 -369q23 -13 55 -13z" />
    <glyph glyph-name="ugrave" unicode="&#xf9;" horiz-adv-x="494" 
d="M317 504q-97 36 -158 113l47 47q21 -48 46.5 -83.5t70.5 -66.5zM404 74q0 -36 18 -50t42 -14v-10h-115v122h-4q-10 -53 -47 -91.5t-97 -38.5q-122 0 -122 142v244q0 36 -17.5 50t-41.5 14v10h115v-300q0 -68 19.5 -100t64.5 -32q59 0 94.5 61.5t35.5 191.5v105
q0 36 -17.5 50t-41.5 14v10h114v-378z" />
    <glyph glyph-name="uacute" unicode="&#xfa;" horiz-adv-x="494" 
d="M323 617q-61 -77 -158 -113l-6 10q45 31 70.5 66.5t46.5 83.5zM404 74q0 -36 18 -50t42 -14v-10h-115v122h-4q-10 -53 -47 -91.5t-97 -38.5q-122 0 -122 142v244q0 36 -17.5 50t-41.5 14v10h115v-300q0 -68 19.5 -100t64.5 -32q59 0 94.5 61.5t35.5 191.5v105
q0 36 -17.5 50t-41.5 14v10h114v-378z" />
    <glyph glyph-name="ucircumflex" unicode="&#xfb;" horiz-adv-x="494" 
d="M241 601l-47 -62h-59l94 108h22l95 -108h-60zM404 74q0 -36 18 -50t42 -14v-10h-115v122h-4q-10 -53 -47 -91.5t-97 -38.5q-122 0 -122 142v244q0 36 -17.5 50t-41.5 14v10h115v-300q0 -68 19.5 -100t64.5 -32q59 0 94.5 61.5t35.5 191.5v105q0 36 -17.5 50t-41.5 14v10
h114v-378z" />
    <glyph glyph-name="udieresis" unicode="&#xfc;" horiz-adv-x="494" 
d="M224 601l-58 -59l-58 59l58 58zM373 601l-57 -59l-58 59l58 58zM404 74q0 -36 18 -50t42 -14v-10h-115v122h-4q-10 -53 -47 -91.5t-97 -38.5q-122 0 -122 142v244q0 36 -17.5 50t-41.5 14v10h115v-300q0 -68 19.5 -100t64.5 -32q59 0 94.5 61.5t35.5 191.5v105
q0 36 -17.5 50t-41.5 14v10h114v-378z" />
    <glyph glyph-name="yacute" unicode="&#xfd;" horiz-adv-x="485" 
d="M327 617q-61 -77 -158 -113l-6 10q45 31 70.5 66.5t46.5 83.5zM485 452v-10q-63 0 -82 -60l-159 -488q-19 -57 -38 -77.5t-62 -20.5q-50 0 -77 30t-21 78l59 -8q-5 -41 9.5 -59t35.5 -18q24 0 35 15.5t26 59.5l34 106h-33l-123 382q-20 60 -83 60v10h118l134 -412
l111 342q11 34 -10 47t-57 13v10h183z" />
    <glyph glyph-name="thorn" unicode="&#xfe;" horiz-adv-x="483" 
d="M275 461q162 0 162 -235q0 -233 -162 -233q-119 0 -145 135v-322h-115v10q24 0 42 14t18 50v683q0 36 -18 50t-42 14v10h115v-305q9 54 43.5 91.5t101.5 37.5zM262 21q114 0 114 205q0 207 -114 207q-54 0 -93 -52t-39 -155q0 -102 39 -153.5t93 -51.5z" />
    <glyph glyph-name="ydieresis" unicode="&#xff;" horiz-adv-x="485" 
d="M228 601l-58 -59l-58 59l58 58zM377 601l-57 -59l-58 59l58 58zM485 452v-10q-63 0 -82 -60l-159 -488q-19 -57 -38 -77.5t-62 -20.5q-50 0 -77 30t-21 78l59 -8q-5 -41 9.5 -59t35.5 -18q24 0 35 15.5t26 59.5l34 106h-33l-123 382q-20 60 -83 60v10h118l134 -412
l111 342q11 34 -10 47t-57 13v10h183z" />
    <glyph glyph-name="Amacron" unicode="&#x100;" horiz-adv-x="618" 
d="M424 755v-28h-269v28h269zM516 78q19 -67 94 -67v-11h-226v11q38 0 61 14.5t12 52.5l-37 123h-239l-37 -123q-11 -38 11 -52.5t60 -14.5v-11h-207v11q76 0 95 67l145 481q7 26 -8 42t-37.5 20.5t-51.5 4.5v11h198zM192 238h217l-108 362z" />
    <glyph glyph-name="amacron" unicode="&#x101;" horiz-adv-x="466" 
d="M355 570v-28h-269v28h269zM382 74q0 -36 17.5 -50t41.5 -14v-10h-112v143h-5q-38 -150 -154 -150q-55 0 -87.5 37.5t-32.5 119.5q0 36 6 79l272 24q1 9 1 26q0 154 -117 154q-51 0 -77 -25t-26 -59q0 -36 18 -43v-4l-63 -7q-7 17 -7 40q0 51 38.5 88.5t121.5 37.5
q44 0 76 -14t49 -34t26.5 -52t11.5 -56.5t2 -58.5v-172zM193 31q35 0 61 18.5t41 50.5t22.5 65.5t10.5 71.5l-216 -32q-5 -26 -5 -58q0 -116 86 -116z" />
    <glyph glyph-name="Abreve" unicode="&#x102;" horiz-adv-x="618" 
d="M290 685q-43 0 -72 28.5t-27 79.5h59q-10 -39 1 -63.5t39 -24.5q27 0 38 24.5t1 63.5h59q2 -55 -26 -81.5t-72 -26.5zM516 78q19 -67 94 -67v-11h-226v11q38 0 61 14.5t12 52.5l-37 123h-239l-37 -123q-11 -38 11 -52.5t60 -14.5v-11h-207v11q76 0 95 67l145 481
q7 26 -8 42t-37.5 20.5t-51.5 4.5v11h198zM192 238h217l-108 362z" />
    <glyph glyph-name="abreve" unicode="&#x103;" horiz-adv-x="466" 
d="M221 529q-43 0 -72 28.5t-27 79.5h59q-10 -39 1 -63.5t39 -24.5q27 0 38 24.5t1 63.5h59q2 -55 -26 -81.5t-72 -26.5zM382 74q0 -36 17.5 -50t41.5 -14v-10h-112v143h-5q-38 -150 -154 -150q-55 0 -87.5 37.5t-32.5 119.5q0 36 6 79l272 24q1 9 1 26q0 154 -117 154
q-51 0 -77 -25t-26 -59q0 -36 18 -43v-4l-63 -7q-7 17 -7 40q0 51 38.5 88.5t121.5 37.5q44 0 76 -14t49 -34t26.5 -52t11.5 -56.5t2 -58.5v-172zM193 31q35 0 61 18.5t41 50.5t22.5 65.5t10.5 71.5l-216 -32q-5 -26 -5 -58q0 -116 86 -116z" />
    <glyph glyph-name="Aogonek" unicode="&#x104;" horiz-adv-x="618" 
d="M511 0q-65 -48 -65 -98q0 -18 11.5 -29.5t31.5 -11.5q26 0 51 22l29 -55q-37 -21 -74 -21q-41 0 -65 22t-24 59q0 61 82 112h-104v11q38 0 61 14.5t12 52.5l-37 123h-239l-37 -123q-11 -38 11 -52.5t60 -14.5v-11h-207v11q76 0 95 67l145 481q7 26 -8 42t-37.5 20.5
t-51.5 4.5v11h198l167 -559q19 -67 94 -67v-11h-99zM192 238h217l-108 362z" />
    <glyph glyph-name="aogonek" unicode="&#x105;" horiz-adv-x="466" 
d="M346 0q-65 -48 -65 -98q0 -18 11.5 -29.5t31.5 -11.5q26 0 51 22l29 -55q-37 -21 -74 -21q-41 0 -65 22t-24 59q0 64 88 115v140h-5q-38 -150 -154 -150q-55 0 -87.5 37.5t-32.5 119.5q0 36 6 79l272 24q1 9 1 26q0 154 -117 154q-51 0 -77 -25t-26 -59q0 -36 18 -43v-4
l-63 -7q-7 17 -7 40q0 51 38.5 88.5t121.5 37.5q44 0 76 -14t49 -34t26.5 -52t11.5 -56.5t2 -58.5v-172q0 -36 17.5 -50t41.5 -14v-10h-95zM193 31q35 0 61 18.5t41 50.5t22.5 65.5t10.5 71.5l-216 -32q-5 -26 -5 -58q0 -116 86 -116z" />
    <glyph glyph-name="Cacute" unicode="&#x106;" horiz-adv-x="570" 
d="M377 785q-65 -82 -158 -103l-6 10q45 24 70.5 57.5t46.5 82.5zM329 35q82 0 132.5 46t63.5 114l15 -3q-38 -199 -232 -199q-132 0 -205 86t-73 242q0 146 76 236t201 90q61 0 107 -21t71.5 -58t37.5 -80t12 -92v-20l-90 11q13 42 13 81q0 68 -40.5 109.5t-108.5 41.5
q-99 0 -157.5 -75t-58.5 -223q0 -139 64.5 -212.5t171.5 -73.5z" />
    <glyph glyph-name="cacute" unicode="&#x107;" horiz-adv-x="434" 
d="M299 617q-61 -77 -158 -113l-6 10q45 31 70.5 66.5t46.5 83.5zM323 294q5 20 5 41q0 45 -24.5 71.5t-68.5 26.5q-63 0 -100.5 -52t-38.5 -135q-1 -105 40 -162t108 -57q61 0 96 37t48 88l11 -3q-5 -26 -15 -49.5t-28 -49.5t-50 -41.5t-73 -15.5q-95 0 -146.5 60.5
t-51.5 174.5t55.5 173.5t147.5 59.5q71 0 114.5 -41.5t43.5 -104.5q0 -14 -3 -29z" />
    <glyph glyph-name="Cdotaccent" unicode="&#x10a;" horiz-adv-x="570" 
d="M237 786l58 58l58 -58l-58 -59zM329 35q82 0 132.5 46t63.5 114l15 -3q-38 -199 -232 -199q-132 0 -205 86t-73 242q0 146 76 236t201 90q61 0 107 -21t71.5 -58t37.5 -80t12 -92v-20l-90 11q13 42 13 81q0 68 -40.5 109.5t-108.5 41.5q-99 0 -157.5 -75t-58.5 -223
q0 -139 64.5 -212.5t171.5 -73.5z" />
    <glyph glyph-name="cdotaccent" unicode="&#x10b;" horiz-adv-x="434" 
d="M159 601l58 58l58 -58l-58 -59zM323 294q5 20 5 41q0 45 -24.5 71.5t-68.5 26.5q-63 0 -100.5 -52t-38.5 -135q-1 -105 40 -162t108 -57q61 0 96 37t48 88l11 -3q-5 -26 -15 -49.5t-28 -49.5t-50 -41.5t-73 -15.5q-95 0 -146.5 60.5t-51.5 174.5t55.5 173.5t147.5 59.5
q71 0 114.5 -41.5t43.5 -104.5q0 -14 -3 -29z" />
    <glyph glyph-name="Ccaron" unicode="&#x10c;" horiz-adv-x="570" 
d="M189 794h59l47 -62l45 62h60l-95 -108h-22zM329 35q82 0 132.5 46t63.5 114l15 -3q-38 -199 -232 -199q-132 0 -205 86t-73 242q0 146 76 236t201 90q61 0 107 -21t71.5 -58t37.5 -80t12 -92v-20l-90 11q13 42 13 81q0 68 -40.5 109.5t-108.5 41.5q-99 0 -157.5 -75
t-58.5 -223q0 -139 64.5 -212.5t171.5 -73.5z" />
    <glyph glyph-name="ccaron" unicode="&#x10d;" horiz-adv-x="434" 
d="M111 638h59l47 -62l45 62h60l-95 -108h-22zM323 294q5 20 5 41q0 45 -24.5 71.5t-68.5 26.5q-63 0 -100.5 -52t-38.5 -135q-1 -105 40 -162t108 -57q61 0 96 37t48 88l11 -3q-5 -26 -15 -49.5t-28 -49.5t-50 -41.5t-73 -15.5q-95 0 -146.5 60.5t-51.5 174.5t55.5 173.5
t147.5 59.5q71 0 114.5 -41.5t43.5 -104.5q0 -14 -3 -29z" />
    <glyph glyph-name="Dcaron" unicode="&#x10e;" horiz-adv-x="587" 
d="M304 686h-22l-94 108h59l47 -62l45 62h60zM254 637q140 0 221.5 -82t81.5 -237t-81.5 -236.5t-221.5 -81.5h-219v11q29 0 50.5 15.5t21.5 54.5v475q0 39 -21.5 54.5t-50.5 15.5v11h219zM234 37q119 0 190 72.5t71 208.5t-71 209t-190 73h-68v-563h68z" />
    <glyph glyph-name="dcaron" unicode="&#x10f;" horiz-adv-x="582" 
d="M509 663l58 -57l-51 -187h-7v128l-58 59zM411 74q0 -36 18 -50t42 -14v-10h-115v123q-12 -55 -46 -92.5t-98 -37.5q-162 0 -162 233q0 235 162 235q65 0 99.5 -35.5t44.5 -87.5v225q0 36 -18 50t-42 14v10h115v-563zM225 21q49 0 87 44t44 131v60q-6 88 -44 132.5
t-87 44.5q-114 0 -114 -207q0 -205 114 -205z" />
    <glyph glyph-name="Dcroat" unicode="&#x110;" horiz-adv-x="587" 
d="M254 637q140 0 221.5 -82t81.5 -237t-81.5 -236.5t-221.5 -81.5h-219v11q29 0 50.5 15.5t21.5 54.5v223h-95v28h95v224q0 39 -21.5 54.5t-50.5 15.5v11h219zM234 37q119 0 190 72.5t71 208.5t-71 209t-190 73h-68v-268h176v-28h-176v-267h68z" />
    <glyph glyph-name="dcroat" unicode="&#x111;" horiz-adv-x="501" 
d="M411 74q0 -36 18 -50t42 -14v-10h-115v123q-12 -55 -46 -92.5t-98 -37.5q-162 0 -162 233q0 235 162 235q65 0 99.5 -35.5t44.5 -87.5v204h-163v28h163q-4 57 -60 57v10h115v-67h51v-28h-51v-468zM225 21q49 0 87 44t44 131v60q-6 88 -44 132.5t-87 44.5
q-114 0 -114 -207q0 -205 114 -205z" />
    <glyph glyph-name="Emacron" unicode="&#x112;" horiz-adv-x="570" 
d="M430 755v-28h-269v28h269zM529 125l11 -3l-27 -99l-6 -23h-472v11q29 0 50.5 15.5t21.5 54.5v475q0 39 -21.5 54.5t-50.5 15.5v11h478l2 -23l8 -96l-10 -1q-7 83 -71 83h-276v-239h216q39 0 54.5 16.5t15.5 37.5h11v-143h-11q0 21 -15.5 37.5t-54.5 16.5h-216v-289h270
q39 0 61.5 26.5t31.5 61.5z" />
    <glyph glyph-name="emacron" unicode="&#x113;" horiz-adv-x="435" 
d="M352 570v-28h-269v28h269zM390 138l10 -2q-1 -11 -5.5 -26t-17 -36.5t-30.5 -38.5t-49.5 -29.5t-69.5 -12.5q-96 0 -144.5 62t-48.5 174q0 111 52.5 171.5t143.5 60.5q85 0 124 -47.5t39 -124.5q0 -25 -5 -60h-293q4 -98 42.5 -150t106.5 -52q37 0 66 13.5t45 33.5
t23.5 36t10.5 28zM228 433q-55 0 -93.5 -44.5t-38.5 -141.5l231 12q5 27 5 48q0 52 -26.5 89t-77.5 37z" />
    <glyph glyph-name="Edotaccent" unicode="&#x116;" horiz-adv-x="570" 
d="M354 786l-58 -59l-58 59l58 58zM529 125l11 -3l-27 -99l-6 -23h-472v11q29 0 50.5 15.5t21.5 54.5v475q0 39 -21.5 54.5t-50.5 15.5v11h478l2 -23l8 -96l-10 -1q-7 83 -71 83h-276v-239h216q39 0 54.5 16.5t15.5 37.5h11v-143h-11q0 21 -15.5 37.5t-54.5 16.5h-216v-289
h270q39 0 61.5 26.5t31.5 61.5z" />
    <glyph glyph-name="edotaccent" unicode="&#x117;" horiz-adv-x="435" 
d="M276 601l-58 -59l-58 59l58 58zM390 138l10 -2q-1 -11 -5.5 -26t-17 -36.5t-30.5 -38.5t-49.5 -29.5t-69.5 -12.5q-96 0 -144.5 62t-48.5 174q0 111 52.5 171.5t143.5 60.5q85 0 124 -47.5t39 -124.5q0 -25 -5 -60h-293q4 -98 42.5 -150t106.5 -52q37 0 66 13.5t45 33.5
t23.5 36t10.5 28zM228 433q-55 0 -93.5 -44.5t-38.5 -141.5l231 12q5 27 5 48q0 52 -26.5 89t-77.5 37z" />
    <glyph glyph-name="Eogonek" unicode="&#x118;" horiz-adv-x="570" 
d="M453 0q-65 -48 -65 -98q0 -18 11.5 -29.5t31.5 -11.5q26 0 51 22l29 -55q-37 -21 -74 -21q-41 0 -65 22t-24 59q0 61 82 112h-395v11q29 0 50.5 15.5t21.5 54.5v475q0 39 -21.5 54.5t-50.5 15.5v11h478l2 -23l8 -96l-10 -1q-7 83 -71 83h-276v-239h216q39 0 54.5 16.5
t15.5 37.5h11v-143h-11q0 21 -15.5 37.5t-54.5 16.5h-216v-289h270q39 0 61.5 26.5t31.5 61.5l11 -3l-27 -99l-6 -23h-54z" />
    <glyph glyph-name="eogonek" unicode="&#x119;" horiz-adv-x="435" 
d="M298 5q-37 -26 -54.5 -50t-17.5 -53q0 -18 11.5 -29.5t31.5 -11.5q26 0 51 22l29 -55q-37 -21 -74 -21q-41 0 -65 22t-24 59q0 59 75 107q-20 -2 -33 -2q-96 0 -144.5 62t-48.5 174q0 111 52.5 171.5t143.5 60.5q85 0 124 -47.5t39 -124.5q0 -25 -5 -60h-293
q4 -98 42.5 -150t106.5 -52q37 0 66 13.5t45 33.5t23.5 36t10.5 28l10 -2q-1 -16 -9 -37.5t-33 -50.5t-60 -43zM228 433q-55 0 -93.5 -44.5t-38.5 -141.5l231 12q5 27 5 48q0 52 -26.5 89t-77.5 37z" />
    <glyph glyph-name="Ecaron" unicode="&#x11a;" horiz-adv-x="570" 
d="M306 686h-22l-94 108h59l47 -62l45 62h60zM529 125l11 -3l-27 -99l-6 -23h-472v11q29 0 50.5 15.5t21.5 54.5v475q0 39 -21.5 54.5t-50.5 15.5v11h478l2 -23l8 -96l-10 -1q-7 83 -71 83h-276v-239h216q39 0 54.5 16.5t15.5 37.5h11v-143h-11q0 21 -15.5 37.5t-54.5 16.5
h-216v-289h270q39 0 61.5 26.5t31.5 61.5z" />
    <glyph glyph-name="ecaron" unicode="&#x11b;" horiz-adv-x="435" 
d="M228 530h-22l-94 108h59l47 -62l45 62h60zM390 138l10 -2q-1 -11 -5.5 -26t-17 -36.5t-30.5 -38.5t-49.5 -29.5t-69.5 -12.5q-96 0 -144.5 62t-48.5 174q0 111 52.5 171.5t143.5 60.5q85 0 124 -47.5t39 -124.5q0 -25 -5 -60h-293q4 -98 42.5 -150t106.5 -52
q37 0 66 13.5t45 33.5t23.5 36t10.5 28zM228 433q-55 0 -93.5 -44.5t-38.5 -141.5l231 12q5 27 5 48q0 52 -26.5 89t-77.5 37z" />
    <glyph glyph-name="Gbreve" unicode="&#x11e;" horiz-adv-x="595" 
d="M188 793h59q-10 -39 1 -63.5t39 -24.5q27 0 38 24.5t1 63.5h59q2 -55 -26 -81.5t-72 -26.5q-43 0 -72 28.5t-27 79.5zM308 -7q-132 0 -205 86t-73 242q0 144 80.5 235t206.5 91q119 0 176 -71t57 -175v-20l-90 11q13 42 13 81q0 67 -42 106.5t-112 39.5
q-101 0 -163.5 -75.5t-62.5 -222.5q0 -139 64.5 -212.5t171.5 -73.5q113 0 156 45l11 88q3 24 -1.5 39t-20.5 23t-30 11t-44 7l-169 20v11h316v-148q0 -21 8 -39q-57 -55 -115.5 -77t-131.5 -22z" />
    <glyph glyph-name="gbreve" unicode="&#x11f;" horiz-adv-x="481" 
d="M230 529q-43 0 -72 28.5t-27 79.5h59q-10 -39 1 -63.5t39 -24.5q27 0 38 24.5t1 63.5h59q2 -55 -26 -81.5t-72 -26.5zM453 452v-10l-112 -25q51 -42 51 -117q0 -62 -43.5 -105t-122.5 -43q-37 0 -68 11l-49 -35q-2 -24 18.5 -35.5t78.5 -13.5l96 -3q63 -2 99 -31t36 -84
q0 -59 -53 -94.5t-137 -35.5q-108 0 -165 43t-52 109l114 53q-45 7 -67.5 34t-17.5 66l84 33q-82 39 -82 138q0 67 43 110.5t122 43.5q35 0 59 -9h168zM226 180q51 0 78.5 35.5t27.5 91.5q0 55 -27.5 91t-78.5 36q-50 0 -77.5 -36t-27.5 -91q0 -56 27 -91.5t78 -35.5z
M282 31l-107 2h-10l-80 -61q-6 -50 40 -83.5t114 -33.5q69 0 106 27.5t37 69.5q0 77 -100 79z" />
    <glyph glyph-name="Gdotaccent" unicode="&#x120;" horiz-adv-x="595" 
d="M229 786l58 58l58 -58l-58 -59zM308 -7q-132 0 -205 86t-73 242q0 144 80.5 235t206.5 91q119 0 176 -71t57 -175v-20l-90 11q13 42 13 81q0 67 -42 106.5t-112 39.5q-101 0 -163.5 -75.5t-62.5 -222.5q0 -139 64.5 -212.5t171.5 -73.5q113 0 156 45l11 88q3 24 -1.5 39
t-20.5 23t-30 11t-44 7l-169 20v11h316v-148q0 -21 8 -39q-57 -55 -115.5 -77t-131.5 -22z" />
    <glyph glyph-name="gdotaccent" unicode="&#x121;" horiz-adv-x="481" 
d="M288 601l-58 -59l-58 59l58 58zM453 452v-10l-112 -25q51 -42 51 -117q0 -62 -43.5 -105t-122.5 -43q-37 0 -68 11l-49 -35q-2 -24 18.5 -35.5t78.5 -13.5l96 -3q63 -2 99 -31t36 -84q0 -59 -53 -94.5t-137 -35.5q-108 0 -165 43t-52 109l114 53q-45 7 -67.5 34t-17.5 66
l84 33q-82 39 -82 138q0 67 43 110.5t122 43.5q35 0 59 -9h168zM226 180q51 0 78.5 35.5t27.5 91.5q0 55 -27.5 91t-78.5 36q-50 0 -77.5 -36t-27.5 -91q0 -56 27 -91.5t78 -35.5zM282 31l-107 2h-10l-80 -61q-6 -50 40 -83.5t114 -33.5q69 0 106 27.5t37 69.5q0 77 -100 79
z" />
    <glyph glyph-name="uni0122" unicode="&#x122;" horiz-adv-x="595" 
d="M308 -7q-132 0 -205 86t-73 242q0 144 80.5 235t206.5 91q119 0 176 -71t57 -175v-20l-90 11q13 42 13 81q0 67 -42 106.5t-112 39.5q-101 0 -163.5 -75.5t-62.5 -222.5q0 -139 64.5 -212.5t171.5 -73.5q113 0 156 45l11 88q3 24 -1.5 39t-20.5 23t-30 11t-44 7l-169 20
v11h316v-148q0 -21 8 -39q-57 -55 -115.5 -77t-131.5 -22zM245 -91l58 57l58 -57l-51 -187h-7v128z" />
    <glyph glyph-name="uni0123" unicode="&#x123;" horiz-adv-x="481" 
d="M288 543l-58 -57l-58 57l51 187h7v-128zM453 452v-10l-112 -25q51 -42 51 -117q0 -62 -43.5 -105t-122.5 -43q-37 0 -68 11l-49 -35q-2 -24 18.5 -35.5t78.5 -13.5l96 -3q63 -2 99 -31t36 -84q0 -59 -53 -94.5t-137 -35.5q-108 0 -165 43t-52 109l114 53q-45 7 -67.5 34
t-17.5 66l84 33q-82 39 -82 138q0 67 43 110.5t122 43.5q35 0 59 -9h168zM226 180q51 0 78.5 35.5t27.5 91.5q0 55 -27.5 91t-78.5 36q-50 0 -77.5 -36t-27.5 -91q0 -56 27 -91.5t78 -35.5zM282 31l-107 2h-10l-80 -61q-6 -50 40 -83.5t114 -33.5q69 0 106 27.5t37 69.5
q0 77 -100 79z" />
    <glyph glyph-name="Hbar" unicode="&#x126;" horiz-adv-x="648" 
d="M613 626q-71 0 -71 -70v-64h40v-28h-40v-383q0 -70 71 -70v-11h-202v11q29 0 50.5 15.5t21.5 54.5v257h-317v-257q0 -70 71 -70v-11h-202v11q29 0 50.5 15.5t21.5 54.5v383h-41v28h41v64q0 39 -21.5 54.5t-50.5 15.5v11h202v-11q-71 0 -71 -70v-64h317v64
q0 39 -21.5 54.5t-50.5 15.5v11h202v-11zM483 375v89h-317v-89h317z" />
    <glyph glyph-name="hbar" unicode="&#x127;" horiz-adv-x="507" 
d="M418 74q0 -36 17.5 -50t41.5 -14v-10h-175v10q24 0 42 14t18 50v227q0 68 -20 100t-66 32q-58 0 -94.5 -62t-36.5 -191v-106q0 -36 17.5 -50t41.5 -14v-10h-174v10q24 0 42 14t18 50v468h-56v28h56q-4 57 -60 57v10h115v-67h158v-28h-158v-211h4q10 52 48 91t97 39
q124 0 124 -152v-235z" />
    <glyph glyph-name="Imacron" unicode="&#x12a;" horiz-adv-x="262" 
d="M-4 755h269v-28h-269v28zM161 81q0 -70 71 -70v-11h-202v11q29 0 50.5 15.5t21.5 54.5v475q0 39 -21.5 54.5t-50.5 15.5v11h202v-11q-71 0 -71 -70v-475z" />
    <glyph glyph-name="imacron" unicode="&#x12b;" horiz-adv-x="244" 
d="M-13 570h269v-28h-269v28zM150 74q0 -36 17.5 -50t41.5 -14v-10h-174v10q24 0 42 14t18 50v304q0 36 -18 50t-42 14v10h115v-378z" />
    <glyph glyph-name="Iogonek" unicode="&#x12e;" horiz-adv-x="262" 
d="M232 626q-71 0 -71 -70v-475q0 -70 71 -70v-11h-78q-65 -48 -65 -98q0 -18 11.5 -29.5t31.5 -11.5q26 0 51 22l29 -55q-37 -21 -74 -21q-41 0 -65 22t-24 59q0 61 82 112h-101v11q29 0 50.5 15.5t21.5 54.5v475q0 39 -21.5 54.5t-50.5 15.5v11h202v-11z" />
    <glyph glyph-name="iogonek" unicode="&#x12f;" horiz-adv-x="244" 
d="M180 601l-58 -59l-58 59l58 58zM143 0q-65 -48 -65 -98q0 -18 11.5 -29.5t31.5 -11.5q26 0 51 22l29 -55q-37 -21 -74 -21q-41 0 -65 22t-24 59q0 61 82 112h-85v10q24 0 42 14t18 50v304q0 36 -18 50t-42 14v10h115v-378q0 -36 17.5 -50t41.5 -14v-10h-66z" />
    <glyph glyph-name="Idotaccent" unicode="&#x130;" horiz-adv-x="262" 
d="M73 786l58 58l58 -58l-58 -59zM161 81q0 -70 71 -70v-11h-202v11q29 0 50.5 15.5t21.5 54.5v475q0 39 -21.5 54.5t-50.5 15.5v11h202v-11q-71 0 -71 -70v-475z" />
    <glyph glyph-name="dotlessi" unicode="&#x131;" horiz-adv-x="244" 
d="M150 74q0 -36 17.5 -50t41.5 -14v-10h-174v10q24 0 42 14t18 50v304q0 36 -18 50t-42 14v10h115v-378z" />
    <glyph glyph-name="uni0136" unicode="&#x136;" horiz-adv-x="628" 
d="M503 67q39 -56 117 -56v-11h-247v11q43 0 63.5 12t-1.5 44l-176 254l-93 -114v-126q0 -70 71 -70v-11h-202v11q29 0 50.5 15.5t21.5 54.5v475q0 39 -21.5 54.5t-50.5 15.5v11h202v-11q-71 0 -71 -70v-285l248 303q42 52 -45 52v11h218v-11q-80 0 -122 -52l-198 -243
l58 -6zM260 -91l58 57l58 -57l-51 -187h-7v128z" />
    <glyph glyph-name="uni0137" unicode="&#x137;" horiz-adv-x="506" 
d="M393 63q33 -53 98 -53v-10h-120l-154 240l-72 -85v-81q0 -36 17.5 -50t41.5 -14v-10h-174v10q24 0 42 14t18 50v489q0 36 -18 50t-42 14v10h115v-439l165 197q23 28 -0.5 37.5t-71.5 9.5v10h216v-10q-68 0 -112 -53l-117 -139l55 -8zM203 -91l58 57l58 -57l-51 -187h-7
v128z" />
    <glyph glyph-name="Lacute" unicode="&#x139;" horiz-adv-x="479" 
d="M219 785q-65 -82 -158 -103l-6 10q45 24 70.5 57.5t46.5 82.5zM460 120l11 -3l-26 -94l-6 -23h-404v11q29 0 50.5 15.5t21.5 54.5v475q0 39 -21.5 54.5t-50.5 15.5v11h202v-11q-71 0 -71 -70v-519h202q39 0 61 25t31 58z" />
    <glyph glyph-name="lacute" unicode="&#x13a;" horiz-adv-x="241" 
d="M204 785q-65 -82 -158 -103l-6 10q45 24 70.5 57.5t46.5 82.5zM150 74q0 -36 17.5 -50t41.5 -14v-10h-174v10q24 0 42 14t18 50v489q0 36 -18 50t-42 14v10h115v-563z" />
    <glyph glyph-name="uni013B" unicode="&#x13b;" horiz-adv-x="479" 
d="M460 120l11 -3l-26 -94l-6 -23h-404v11q29 0 50.5 15.5t21.5 54.5v475q0 39 -21.5 54.5t-50.5 15.5v11h202v-11q-71 0 -71 -70v-519h202q39 0 61 25t31 58zM196 -91l58 57l58 -57l-51 -187h-7v128z" />
    <glyph glyph-name="uni013C" unicode="&#x13c;" horiz-adv-x="241" 
d="M150 74q0 -36 17.5 -50t41.5 -14v-10h-174v10q24 0 42 14t18 50v489q0 36 -18 50t-42 14v10h115v-563zM64 -91l58 57l58 -57l-51 -187h-7v128z" />
    <glyph glyph-name="Lcaron" unicode="&#x13d;" horiz-adv-x="479" 
d="M401 419v128l-58 59l58 57l58 -57l-51 -187h-7zM460 120l11 -3l-26 -94l-6 -23h-404v11q29 0 50.5 15.5t21.5 54.5v475q0 39 -21.5 54.5t-50.5 15.5v11h202v-11q-71 0 -71 -70v-519h202q39 0 61 25t31 58z" />
    <glyph glyph-name="lcaron" unicode="&#x13e;" horiz-adv-x="322" 
d="M191 606l58 57l58 -57l-51 -187h-7v128zM150 74q0 -36 17.5 -50t41.5 -14v-10h-174v10q24 0 42 14t18 50v489q0 36 -18 50t-42 14v10h115v-563z" />
    <glyph glyph-name="Lslash" unicode="&#x141;" horiz-adv-x="479" 
d="M460 120l11 -3l-26 -94l-6 -23h-404v11q29 0 50.5 15.5t21.5 54.5v214l-77 -22l-8 27l85 24v232q0 39 -21.5 54.5t-50.5 15.5v11h202v-11q-71 0 -71 -70v-215l77 22l9 -26l-86 -25v-275h202q39 0 61 25t31 58z" />
    <glyph glyph-name="lslash" unicode="&#x142;" horiz-adv-x="295" 
d="M177 74q0 -36 17.5 -50t41.5 -14v-10h-174v10q24 0 42 14t18 50v196l-64 -54l-23 27l87 73v247q0 36 -18 50t-42 14v10h115v-275l63 53l23 -27l-86 -72v-242z" />
    <glyph glyph-name="Nacute" unicode="&#x143;" horiz-adv-x="671" 
d="M418 785q-65 -82 -158 -103l-6 10q45 24 70.5 57.5t46.5 82.5zM636 626q-29 0 -50.5 -15.5t-21.5 -54.5v-475q0 -39 21.5 -54.5t50.5 -15.5v-11h-154l-334 588v-507q0 -70 71 -70v-11h-184v11q29 0 50.5 15.5t21.5 54.5v475q0 39 -21.5 54.5t-50.5 15.5v11h150l338 -595
v514q0 39 -25 54.5t-59 15.5v11h197v-11z" />
    <glyph glyph-name="nacute" unicode="&#x144;" horiz-adv-x="511" 
d="M340 617q-61 -77 -158 -113l-6 10q45 31 70.5 66.5t46.5 83.5zM422 74q0 -36 17.5 -50t41.5 -14v-10h-175v10q24 0 42 14t18 50v227q0 68 -20 100t-66 32q-58 0 -94.5 -62t-36.5 -191v-106q0 -36 17.5 -50t41.5 -14v-10h-174v10q24 0 42 14t18 50v304q0 36 -18 50t-42 14
v10h115v-121h4q10 52 48 91t97 39q124 0 124 -152v-235z" />
    <glyph glyph-name="uni0145" unicode="&#x145;" horiz-adv-x="671" 
d="M636 626q-29 0 -50.5 -15.5t-21.5 -54.5v-475q0 -39 21.5 -54.5t50.5 -15.5v-11h-154l-334 588v-507q0 -70 71 -70v-11h-184v11q29 0 50.5 15.5t21.5 54.5v475q0 39 -21.5 54.5t-50.5 15.5v11h150l338 -595v514q0 39 -25 54.5t-59 15.5v11h197v-11zM278 -91l58 57l58 -57
l-51 -187h-7v128z" />
    <glyph glyph-name="uni0146" unicode="&#x146;" horiz-adv-x="511" 
d="M422 74q0 -36 17.5 -50t41.5 -14v-10h-175v10q24 0 42 14t18 50v227q0 68 -20 100t-66 32q-58 0 -94.5 -62t-36.5 -191v-106q0 -36 17.5 -50t41.5 -14v-10h-174v10q24 0 42 14t18 50v304q0 36 -18 50t-42 14v10h115v-121h4q10 52 48 91t97 39q124 0 124 -152v-235z
M200 -91l58 57l58 -57l-51 -187h-7v128z" />
    <glyph glyph-name="Ncaron" unicode="&#x147;" horiz-adv-x="671" 
d="M346 686h-22l-94 108h59l47 -62l45 62h60zM636 626q-29 0 -50.5 -15.5t-21.5 -54.5v-475q0 -39 21.5 -54.5t50.5 -15.5v-11h-154l-334 588v-507q0 -70 71 -70v-11h-184v11q29 0 50.5 15.5t21.5 54.5v475q0 39 -21.5 54.5t-50.5 15.5v11h150l338 -595v514q0 39 -25 54.5
t-59 15.5v11h197v-11z" />
    <glyph glyph-name="ncaron" unicode="&#x148;" horiz-adv-x="511" 
d="M268 530h-22l-94 108h59l47 -62l45 62h60zM422 74q0 -36 17.5 -50t41.5 -14v-10h-175v10q24 0 42 14t18 50v227q0 68 -20 100t-66 32q-58 0 -94.5 -62t-36.5 -191v-106q0 -36 17.5 -50t41.5 -14v-10h-174v10q24 0 42 14t18 50v304q0 36 -18 50t-42 14v10h115v-121h4
q10 52 48 91t97 39q124 0 124 -152v-235z" />
    <glyph glyph-name="Eng" unicode="&#x14a;" horiz-adv-x="676" 
d="M468 -193q-30 0 -53.5 14.5t-29.5 36.5l57 17q3 -17 13.5 -32t27.5 -15q25 0 25 29v57q0 40 -26 86l-334 588v-507q0 -70 71 -70v-11h-184v11q29 0 50.5 15.5t21.5 54.5v475q0 39 -21.5 54.5t-50.5 15.5v11h150l288 -505q33 -60 48 -119h2v543q0 39 -25 54.5t-59 15.5v11
h197v-11q-29 0 -50.5 -15.5t-21.5 -54.5v-665q0 -84 -96 -84z" />
    <glyph glyph-name="eng" unicode="&#x14b;" horiz-adv-x="482" 
d="M298 461q124 0 124 -152v-418q0 -84 -96 -84q-30 0 -53.5 14.5t-29.5 36.5l57 17q3 -17 13.5 -32t27.5 -15q25 0 25 29v414q0 85 -18.5 123.5t-64.5 38.5q-51 0 -92.5 -61t-41.5 -192v-106q0 -36 17.5 -50t41.5 -14v-10h-174v10q24 0 42 14t18 50v304q0 36 -18 50t-42 14
v10h115v-121h4q14 55 51.5 92.5t93.5 37.5z" />
    <glyph glyph-name="Omacron" unicode="&#x14c;" horiz-adv-x="624" 
d="M177 755h269v-28h-269v28zM312 647q137 0 209.5 -89t72.5 -233q0 -145 -72.5 -238.5t-209.5 -93.5t-209.5 93.5t-72.5 238.5q0 144 72.5 233t209.5 89zM312 21q104 0 161.5 87.5t57.5 216.5q0 127 -57.5 210.5t-161.5 83.5t-161.5 -83.5t-57.5 -210.5q0 -129 57.5 -216.5
t161.5 -87.5z" />
    <glyph glyph-name="omacron" unicode="&#x14d;" horiz-adv-x="460" 
d="M95 570h269v-28h-269v28zM230 461q93 0 144 -66.5t51 -167.5q0 -102 -51 -168t-144 -66q-94 0 -144.5 66t-50.5 168q0 101 51 167.5t144 66.5zM230 21q68 0 101 57t33 149q0 91 -33 148.5t-101 57.5t-101 -57.5t-33 -148.5q0 -92 33 -149t101 -57z" />
    <glyph glyph-name="Ohungarumlaut" unicode="&#x150;" horiz-adv-x="624" 
d="M307 831l-41 -134h-17v134h58zM399 831l-42 -134h-16v134h58zM312 647q137 0 209.5 -89t72.5 -233q0 -145 -72.5 -238.5t-209.5 -93.5t-209.5 93.5t-72.5 238.5q0 144 72.5 233t209.5 89zM312 21q104 0 161.5 87.5t57.5 216.5q0 127 -57.5 210.5t-161.5 83.5
t-161.5 -83.5t-57.5 -210.5q0 -129 57.5 -216.5t161.5 -87.5z" />
    <glyph glyph-name="ohungarumlaut" unicode="&#x151;" horiz-adv-x="460" 
d="M225 646l-41 -134h-17v134h58zM317 646l-42 -134h-16v134h58zM230 461q93 0 144 -66.5t51 -167.5q0 -102 -51 -168t-144 -66q-94 0 -144.5 66t-50.5 168q0 101 51 167.5t144 66.5zM230 21q68 0 101 57t33 149q0 91 -33 148.5t-101 57.5t-101 -57.5t-33 -148.5
q0 -92 33 -149t101 -57z" />
    <glyph glyph-name="OE" unicode="&#x152;" horiz-adv-x="990" 
d="M949 124l11 -3l-28 -99l-6 -22h-395v106q-72 -113 -219 -113q-137 0 -209.5 93.5t-72.5 238.5q0 144 72.5 233t209.5 89q148 0 219 -108v98h411l2 -22l8 -96l-10 -1q-7 83 -71 83h-281v-240h216q39 0 54.5 16.5t15.5 37.5h11v-143h-11q0 21 -15.5 37.5t-54.5 16.5h-216
v-290h265q39 0 61.5 26.5t32.5 61.5zM312 21q104 0 161.5 87.5t57.5 216.5q0 127 -57.5 210.5t-161.5 83.5t-161.5 -83.5t-57.5 -210.5q0 -129 57.5 -216.5t161.5 -87.5z" />
    <glyph glyph-name="oe" unicode="&#x153;" horiz-adv-x="760" 
d="M35 227q0 101 51 167.5t145 66.5q116 0 162 -112q45 112 163 112q161 0 161 -172q0 -25 -5 -60h-285q1 -103 38.5 -152.5t114.5 -49.5q63 0 99 40t36 71l10 -1q0 -15 -8 -37t-25 -47t-51 -42.5t-78 -17.5q-68 0 -108.5 26t-62.5 83q-48 -109 -161 -109q-94 0 -145 66
t-51 168zM97 227q0 -92 33 -149t101 -57t101 57t33 149q0 91 -33 148.5t-101 57.5t-101 -57.5t-33 -148.5zM427 243l220 16q5 25 5 48q0 53 -24 89.5t-75 36.5q-120 0 -126 -190z" />
    <glyph glyph-name="Racute" unicode="&#x154;" horiz-adv-x="561" 
d="M345 785q-65 -82 -158 -103l-6 10q45 24 70.5 57.5t46.5 82.5zM370 229l181 -218v-11h-172v11q19 0 33 2t25.5 7t11 16t-13.5 27l-269 328v-310q0 -70 71 -70v-11h-202v11q29 0 50.5 15.5t21.5 54.5v475q0 39 -21.5 54.5t-50.5 15.5v11h247q89 0 139 -39t50 -110
q0 -67 -46.5 -109t-133.5 -42q-26 0 -50 9l-1 -2q74 -47 130 -115zM166 478q0 -54 31.5 -82.5t79.5 -28.5q64 0 98 35t34 83q0 56 -34 85.5t-116 29.5h-93v-122z" />
    <glyph glyph-name="racute" unicode="&#x155;" horiz-adv-x="385" 
d="M276 617q-61 -77 -158 -113l-6 10q45 31 70.5 66.5t46.5 83.5zM287 458q51 0 70 -29l-26 -72l-4 1q2 23 -13.5 38.5t-45.5 15.5q-53 0 -86 -64.5t-33 -213.5v-60q0 -36 17.5 -50t41.5 -14v-10h-174v10q24 0 42 14t18 50v304q0 36 -18 50t-42 14v10h115v-162h3
q6 39 20.5 74.5t45 64.5t69.5 29z" />
    <glyph glyph-name="uni0156" unicode="&#x156;" horiz-adv-x="561" 
d="M370 229l181 -218v-11h-172v11q19 0 33 2t25.5 7t11 16t-13.5 27l-269 328v-310q0 -70 71 -70v-11h-202v11q29 0 50.5 15.5t21.5 54.5v475q0 39 -21.5 54.5t-50.5 15.5v11h247q89 0 139 -39t50 -110q0 -67 -46.5 -109t-133.5 -42q-26 0 -50 9l-1 -2q74 -47 130 -115z
M166 478q0 -54 31.5 -82.5t79.5 -28.5q64 0 98 35t34 83q0 56 -34 85.5t-116 29.5h-93v-122zM247 -91l58 57l58 -57l-51 -187h-7v128z" />
    <glyph glyph-name="uni0157" unicode="&#x157;" horiz-adv-x="385" 
d="M287 458q51 0 70 -29l-26 -72l-4 1q2 23 -13.5 38.5t-45.5 15.5q-53 0 -86 -64.5t-33 -213.5v-60q0 -36 17.5 -50t41.5 -14v-10h-174v10q24 0 42 14t18 50v304q0 36 -18 50t-42 14v10h115v-162h3q6 39 20.5 74.5t45 64.5t69.5 29zM66 -91l58 57l58 -57l-51 -187h-7v128z
" />
    <glyph glyph-name="Rcaron" unicode="&#x158;" horiz-adv-x="561" 
d="M273 686h-22l-94 108h59l47 -62l45 62h60zM370 229l181 -218v-11h-172v11q19 0 33 2t25.5 7t11 16t-13.5 27l-269 328v-310q0 -70 71 -70v-11h-202v11q29 0 50.5 15.5t21.5 54.5v475q0 39 -21.5 54.5t-50.5 15.5v11h247q89 0 139 -39t50 -110q0 -67 -46.5 -109
t-133.5 -42q-26 0 -50 9l-1 -2q74 -47 130 -115zM166 478q0 -54 31.5 -82.5t79.5 -28.5q64 0 98 35t34 83q0 56 -34 85.5t-116 29.5h-93v-122z" />
    <glyph glyph-name="rcaron" unicode="&#x159;" horiz-adv-x="385" 
d="M204 530h-22l-94 108h59l47 -62l45 62h60zM287 458q51 0 70 -29l-26 -72l-4 1q2 23 -13.5 38.5t-45.5 15.5q-53 0 -86 -64.5t-33 -213.5v-60q0 -36 17.5 -50t41.5 -14v-10h-174v10q24 0 42 14t18 50v304q0 36 -18 50t-42 14v10h115v-162h3q6 39 20.5 74.5t45 64.5
t69.5 29z" />
    <glyph glyph-name="Sacute" unicode="&#x15a;" horiz-adv-x="525" 
d="M345 785q-65 -82 -158 -103l-6 10q45 24 70.5 57.5t46.5 82.5zM331 352q76 -28 115 -66.5t39 -108.5q0 -57 -19 -95.5t-53.5 -57t-68.5 -25t-78 -6.5q-85 0 -141.5 29t-84.5 73v192h10q2 -119 59 -191.5t157 -72.5q74 0 115 38t41 97q0 97 -108 134l-145 52
q-54 19 -83 52t-29 92q0 64 53.5 111.5t158.5 47.5q115 0 190 -67l7 -172h-10q-15 106 -59.5 158.5t-130.5 52.5q-70 0 -108.5 -33.5t-38.5 -88.5q0 -68 74 -95z" />
    <glyph glyph-name="sacute" unicode="&#x15b;" horiz-adv-x="414" 
d="M292 617q-61 -77 -158 -113l-6 10q45 31 70.5 66.5t46.5 83.5zM272 249q49 -17 73 -45.5t24 -77.5q0 -133 -158 -133q-107 0 -161 72v145h10q9 -90 48 -139.5t103 -49.5q50 0 78 23.5t28 68.5q0 31 -17.5 51.5t-60.5 35.5l-85 29q-95 32 -95 118q0 46 36.5 80t111.5 34
q94 0 150 -48l7 -123h-10q-19 75 -54 109t-90 34q-44 0 -71.5 -22t-27.5 -56q0 -29 16 -46t49 -28z" />
    <glyph glyph-name="Scedilla" unicode="&#x15e;" horiz-adv-x="525" 
d="M485 177q0 -178 -201 -184l-29 -49q5 1 15 1q75 0 75 -71q0 -31 -23.5 -52.5t-61.5 -21.5q-36 0 -57.5 19t-21.5 46q0 22 5 34l44 -9q-8 -14 -8 -28q0 -15 10.5 -25t28.5 -10q44 0 44 47q0 25 -15 40.5t-42 15.5q-23 0 -45 -8l33 72q-140 10 -196 101v192h10
q2 -119 59 -191.5t157 -72.5q74 0 115 38t41 97q0 97 -108 134l-145 52q-54 19 -83 52t-29 92q0 64 53.5 111.5t158.5 47.5q115 0 190 -67l7 -172h-10q-15 106 -59.5 158.5t-130.5 52.5q-70 0 -108.5 -33.5t-38.5 -88.5q0 -68 74 -95l138 -50q76 -28 115 -66.5t39 -108.5z
" />
    <glyph glyph-name="scedilla" unicode="&#x15f;" horiz-adv-x="414" 
d="M369 126q0 -126 -138 -132l-29 -50q5 1 15 1q75 0 75 -71q0 -31 -23.5 -52.5t-61.5 -21.5q-36 0 -57.5 19t-21.5 46q0 22 5 34l44 -9q-8 -14 -8 -28q0 -15 10.5 -25t28.5 -10q44 0 44 47q0 25 -15 40.5t-42 15.5q-23 0 -45 -8l34 72q-88 10 -134 71v145h10
q9 -90 48 -139.5t103 -49.5q50 0 78 23.5t28 68.5q0 31 -17.5 51.5t-60.5 35.5l-85 29q-95 32 -95 118q0 46 36.5 80t111.5 34q94 0 150 -48l7 -123h-10q-19 75 -54 109t-90 34q-44 0 -71.5 -22t-27.5 -56q0 -29 16 -46t49 -28l96 -32q49 -17 73 -45.5t24 -77.5z" />
    <glyph glyph-name="Scaron" unicode="&#x160;" horiz-adv-x="525" 
d="M157 794h59l47 -62l45 62h60l-95 -108h-22zM331 352q76 -28 115 -66.5t39 -108.5q0 -57 -19 -95.5t-53.5 -57t-68.5 -25t-78 -6.5q-85 0 -141.5 29t-84.5 73v192h10q2 -119 59 -191.5t157 -72.5q74 0 115 38t41 97q0 97 -108 134l-145 52q-54 19 -83 52t-29 92
q0 64 53.5 111.5t158.5 47.5q115 0 190 -67l7 -172h-10q-15 106 -59.5 158.5t-130.5 52.5q-70 0 -108.5 -33.5t-38.5 -88.5q0 -68 74 -95z" />
    <glyph glyph-name="scaron" unicode="&#x161;" horiz-adv-x="414" 
d="M104 638h59l47 -62l45 62h60l-95 -108h-22zM272 249q49 -17 73 -45.5t24 -77.5q0 -133 -158 -133q-107 0 -161 72v145h10q9 -90 48 -139.5t103 -49.5q50 0 78 23.5t28 68.5q0 31 -17.5 51.5t-60.5 35.5l-85 29q-95 32 -95 118q0 46 36.5 80t111.5 34q94 0 150 -48l7 -123
h-10q-19 75 -54 109t-90 34q-44 0 -71.5 -22t-27.5 -56q0 -29 16 -46t49 -28z" />
    <glyph glyph-name="uni0162" unicode="&#x162;" horiz-adv-x="559" 
d="M546 615l12 -104l-11 -2q-4 36 -22.5 63.5t-57.5 27.5h-158v-519q0 -70 71 -70v-11h-76l-32 -56q5 1 15 1q75 0 75 -71q0 -31 -23.5 -52.5t-61.5 -21.5q-36 0 -57.5 19t-21.5 46q0 22 5 34l44 -9q-8 -14 -8 -28q0 -15 10.5 -25t28.5 -10q44 0 44 47q0 25 -15 40.5
t-42 15.5q-23 0 -45 -8l36 78h-78v11q29 0 50.5 15.5t21.5 54.5v519h-158q-39 0 -57.5 -27t-22.5 -62l-11 1l12 103l3 29q19 -7 73 -7h381q54 0 73 7z" />
    <glyph glyph-name="uni0163" unicode="&#x163;" horiz-adv-x="325" 
d="M197 -55q75 0 75 -71q0 -31 -23.5 -52.5t-61.5 -21.5q-36 0 -57.5 19t-21.5 46q0 22 5 34l44 -9q-8 -14 -8 -28q0 -15 10.5 -25t28.5 -10q44 0 44 47q0 25 -15 40.5t-42 15.5q-23 0 -45 -8l35 75q-72 20 -72 120v300h-63v23q51 12 76.5 47.5t31.5 104.5h11v-155l61 15h88
v-35h-149v-294q0 -92 72 -92q26 0 43.5 12.5t21.5 25.5l5 13h9q0 -3 -1 -9t-6.5 -20.5t-14 -26t-26 -21.5t-41.5 -12l-29 -49q5 1 15 1z" />
    <glyph glyph-name="Tcaron" unicode="&#x164;" horiz-adv-x="559" 
d="M290 686h-22l-94 108h59l47 -62l45 62h60zM546 615l12 -104l-11 -2q-4 36 -22.5 63.5t-57.5 27.5h-158v-519q0 -70 71 -70v-11h-202v11q29 0 50.5 15.5t21.5 54.5v519h-158q-39 0 -57.5 -27t-22.5 -62l-11 1l12 103l3 29q19 -7 73 -7h381q54 0 73 7z" />
    <glyph glyph-name="tcaron" unicode="&#x165;" horiz-adv-x="325" 
d="M242 489v78l-58 39l58 57l58 -57l-51 -117h-7zM221 31q26 0 43.5 12.5t21.5 25.5l5 13h9q0 -4 -1 -10t-7 -21t-15.5 -27t-29 -21.5t-45.5 -9.5q-109 0 -109 124v300h-63v23q51 12 76.5 47.5t31.5 104.5h11v-155l61 15h88v-35h-149v-294q0 -92 72 -92z" />
    <glyph glyph-name="Tbar" unicode="&#x166;" horiz-adv-x="559" 
d="M546 615l12 -104l-11 -2q-4 36 -22.5 63.5t-57.5 27.5h-158v-267h136v-28h-136v-224q0 -70 71 -70v-11h-202v11q29 0 50.5 15.5t21.5 54.5v224h-135v28h135v267h-158q-39 0 -57.5 -27t-22.5 -62l-11 1l12 103l3 29q19 -7 73 -7h381q54 0 73 7z" />
    <glyph glyph-name="tbar" unicode="&#x167;" horiz-adv-x="325" 
d="M291 82h9q0 -4 -1 -10t-7 -21t-15.5 -27t-29 -21.5t-45.5 -9.5q-109 0 -109 124v155h-63v28h63v117h-63v23q51 12 76.5 47.5t31.5 104.5h11v-155l61 15h88v-35h-149v-117h150v-28h-150v-149q0 -92 72 -92q26 0 43.5 12.5t21.5 25.5z" />
    <glyph glyph-name="Umacron" unicode="&#x16a;" horiz-adv-x="605" 
d="M168 755h269v-28h-269v28zM217 638v-11q-29 0 -50.5 -15.5t-21.5 -54.5v-313q0 -104 41 -162.5t125 -58.5t125 58.5t41 162.5v312q0 70 -71 70v11h184v-11q-29 0 -50.5 -15.5t-21.5 -54.5v-312q0 -114 -51.5 -183t-153.5 -69q-125 0 -176 67.5t-51 209.5v288q0 70 -71 70
v11h202z" />
    <glyph glyph-name="umacron" unicode="&#x16b;" horiz-adv-x="494" 
d="M375 570v-28h-269v28h269zM404 74q0 -36 18 -50t42 -14v-10h-115v122h-4q-10 -53 -47 -91.5t-97 -38.5q-122 0 -122 142v244q0 36 -17.5 50t-41.5 14v10h115v-300q0 -68 19.5 -100t64.5 -32q59 0 94.5 61.5t35.5 191.5v105q0 36 -17.5 50t-41.5 14v10h114v-378z" />
    <glyph glyph-name="Uring" unicode="&#x16e;" horiz-adv-x="605" 
d="M303 681q-24 0 -41 17t-17 41t17 41t41 17t41 -17t17 -41t-17 -41t-41 -17zM303 706q14 0 24 9.5t10 23.5t-10 24t-24 10t-23.5 -10t-9.5 -24t9.5 -23.5t23.5 -9.5zM217 638v-11q-29 0 -50.5 -15.5t-21.5 -54.5v-313q0 -104 41 -162.5t125 -58.5t125 58.5t41 162.5v312
q0 70 -71 70v11h184v-11q-29 0 -50.5 -15.5t-21.5 -54.5v-312q0 -114 -51.5 -183t-153.5 -69q-125 0 -176 67.5t-51 209.5v288q0 70 -71 70v11h202z" />
    <glyph glyph-name="uring" unicode="&#x16f;" horiz-adv-x="494" 
d="M241 532q-24 0 -41 17t-17 41t17 40.5t41 16.5t41 -16.5t17 -40.5t-17 -41t-41 -17zM241 623q-14 0 -23.5 -9.5t-9.5 -23.5t9.5 -24t23.5 -10t24 10t10 24t-10 23.5t-24 9.5zM404 74q0 -36 18 -50t42 -14v-10h-115v122h-4q-10 -53 -47 -91.5t-97 -38.5q-122 0 -122 142
v244q0 36 -17.5 50t-41.5 14v10h115v-300q0 -68 19.5 -100t64.5 -32q59 0 94.5 61.5t35.5 191.5v105q0 36 -17.5 50t-41.5 14v10h114v-378z" />
    <glyph glyph-name="Uhungarumlaut" unicode="&#x170;" horiz-adv-x="605" 
d="M298 831l-41 -134h-17v134h58zM390 831l-42 -134h-16v134h58zM217 638v-11q-29 0 -50.5 -15.5t-21.5 -54.5v-313q0 -104 41 -162.5t125 -58.5t125 58.5t41 162.5v312q0 70 -71 70v11h184v-11q-29 0 -50.5 -15.5t-21.5 -54.5v-312q0 -114 -51.5 -183t-153.5 -69
q-125 0 -176 67.5t-51 209.5v288q0 70 -71 70v11h202z" />
    <glyph glyph-name="uhungarumlaut" unicode="&#x171;" horiz-adv-x="494" 
d="M236 646l-41 -134h-17v134h58zM328 646l-42 -134h-16v134h58zM404 74q0 -36 18 -50t42 -14v-10h-115v122h-4q-10 -53 -47 -91.5t-97 -38.5q-122 0 -122 142v244q0 36 -17.5 50t-41.5 14v10h115v-300q0 -68 19.5 -100t64.5 -32q59 0 94.5 61.5t35.5 191.5v105
q0 36 -17.5 50t-41.5 14v10h114v-378z" />
    <glyph glyph-name="Uogonek" unicode="&#x172;" horiz-adv-x="605" 
d="M590 637v-11q-29 0 -50.5 -15.5t-21.5 -54.5v-312q0 -103 -43 -170.5t-128 -79.5q-57 -46 -57 -92q0 -18 11.5 -29.5t31.5 -11.5q26 0 51 22l29 -55q-37 -21 -74 -21q-41 0 -65 22t-24 59q0 57 70 104h-7q-125 0 -176 67.5t-51 209.5v288q0 70 -71 70v11h202v-11
q-29 0 -50.5 -15.5t-21.5 -54.5v-313q0 -104 41 -162.5t125 -58.5t125 58.5t41 162.5v312q0 70 -71 70v11h184z" />
    <glyph glyph-name="uogonek" unicode="&#x173;" horiz-adv-x="494" 
d="M369 0q-65 -48 -65 -98q0 -18 11.5 -29.5t31.5 -11.5q26 0 51 22l29 -55q-37 -21 -74 -21q-41 0 -65 22t-24 59q0 63 85 114v120h-4q-10 -53 -47 -91.5t-97 -38.5q-122 0 -122 142v244q0 36 -17.5 50t-41.5 14v10h115v-300q0 -68 19.5 -100t64.5 -32q59 0 94.5 61.5
t35.5 191.5v105q0 36 -17.5 50t-41.5 14v10h114v-378q0 -36 18 -50t42 -14v-10h-95z" />
    <glyph glyph-name="Wcircumflex" unicode="&#x174;" horiz-adv-x="1020" 
d="M510 748l-47 -62h-59l94 108h22l95 -108h-60zM1017 637v-11q-75 0 -93 -68l-152 -558h-84l-162 475q-6 -23 -20 -63l-136 -412h-86l-184 560q-22 66 -97 66v11h203v-11q-69 0 -47 -66l176 -536l170 513l-8 23q-23 66 -97 66v11h130l208 -608l144 529q18 68 -50 68v11h185
z" />
    <glyph glyph-name="wcircumflex" unicode="&#x175;" horiz-adv-x="738" 
d="M371 601l-47 -62h-59l94 108h22l95 -108h-60zM738 452v-10q-62 0 -79 -61l-107 -381h-59l-107 318l-106 -318h-60l-133 382q-20 60 -84 60v10h116l141 -408l110 323l-5 15q-20 60 -84 60v10h115l137 -404l93 333q17 61 -58 61v10h170z" />
    <glyph glyph-name="Ycircumflex" unicode="&#x176;" horiz-adv-x="609" 
d="M304 748l-47 -62h-59l94 108h22l95 -108h-60zM606 637v-11q-77 0 -110 -60l-171 -308v-177q0 -70 71 -70v-11h-202v11q29 0 50.5 15.5t21.5 54.5v174l-155 309q-31 62 -108 62v11h137l164 -335l146 264q20 34 -2.5 47t-65.5 13v11h224z" />
    <glyph glyph-name="ycircumflex" unicode="&#x177;" horiz-adv-x="485" 
d="M245 601l-47 -62h-59l94 108h22l95 -108h-60zM485 452v-10q-63 0 -82 -60l-159 -488q-19 -57 -38 -77.5t-62 -20.5q-50 0 -77 30t-21 78l59 -8q-5 -41 9.5 -59t35.5 -18q24 0 35 15.5t26 59.5l34 106h-33l-123 382q-20 60 -83 60v10h118l134 -412l111 342q11 34 -10 47
t-57 13v10h183z" />
    <glyph glyph-name="Ydieresis" unicode="&#x178;" horiz-adv-x="609" 
d="M287 739l-58 -58l-58 58l58 58zM436 739l-57 -58l-58 58l58 58zM606 637v-11q-77 0 -110 -60l-171 -308v-177q0 -70 71 -70v-11h-202v11q29 0 50.5 15.5t21.5 54.5v174l-155 309q-31 62 -108 62v11h137l164 -335l146 264q20 34 -2.5 47t-65.5 13v11h224z" />
    <glyph glyph-name="Zacute" unicode="&#x179;" horiz-adv-x="623" 
d="M393 785q-65 -82 -158 -103l-6 10q45 24 70.5 57.5t46.5 82.5zM579 204l9 -2l-42 -170l-11 -44q-22 12 -54 12h-444v9l372 488q61 82 90 109l-355 -11q-39 -1 -61.5 -47.5t-31.5 -105.5l-11 2l27 173l3 20h509v-11l-348 -461q-52 -70 -112 -130l359 17q25 1 46.5 28
t33.5 57.5t21 66.5z" />
    <glyph glyph-name="zacute" unicode="&#x17a;" horiz-adv-x="459" 
d="M323 617q-61 -77 -158 -113l-6 10q45 31 70.5 66.5t46.5 83.5zM413 150l10 -3l-28 -123l-7 -30q-13 6 -45 6h-313q25 17 50 53l205 300q26 37 65 74l-214 -7q-36 -1 -58 -37.5t-33 -83.5l-9 2l30 137l5 20q12 -6 54 -6h293v-8l-229 -327q-31 -45 -73 -88l209 10
q63 2 88 111z" />
    <glyph glyph-name="Zdotaccent" unicode="&#x17b;" horiz-adv-x="623" 
d="M369 786l-58 -59l-58 59l58 58zM579 204l9 -2l-42 -170l-11 -44q-22 12 -54 12h-444v9l372 488q61 82 90 109l-355 -11q-39 -1 -61.5 -47.5t-31.5 -105.5l-11 2l27 173l3 20h509v-11l-348 -461q-52 -70 -112 -130l359 17q25 1 46.5 28t33.5 57.5t21 66.5z" />
    <glyph glyph-name="zdotaccent" unicode="&#x17c;" horiz-adv-x="459" 
d="M299 601l-58 -59l-58 59l58 58zM413 150l10 -3l-28 -123l-7 -30q-13 6 -45 6h-313q25 17 50 53l205 300q26 37 65 74l-214 -7q-36 -1 -58 -37.5t-33 -83.5l-9 2l30 137l5 20q12 -6 54 -6h293v-8l-229 -327q-31 -45 -73 -88l209 10q63 2 88 111z" />
    <glyph glyph-name="Zcaron" unicode="&#x17d;" horiz-adv-x="623" 
d="M321 686h-22l-94 108h59l47 -62l45 62h60zM579 204l9 -2l-42 -170l-11 -44q-22 12 -54 12h-444v9l372 488q61 82 90 109l-355 -11q-39 -1 -61.5 -47.5t-31.5 -105.5l-11 2l27 173l3 20h509v-11l-348 -461q-52 -70 -112 -130l359 17q25 1 46.5 28t33.5 57.5t21 66.5z" />
    <glyph glyph-name="zcaron" unicode="&#x17e;" horiz-adv-x="459" 
d="M251 530h-22l-94 108h59l47 -62l45 62h60zM413 150l10 -3l-28 -123l-7 -30q-13 6 -45 6h-313q25 17 50 53l205 300q26 37 65 74l-214 -7q-36 -1 -58 -37.5t-33 -83.5l-9 2l30 137l5 20q12 -6 54 -6h293v-8l-229 -327q-31 -45 -73 -88l209 10q63 2 88 111z" />
    <glyph glyph-name="uni0218" unicode="&#x218;" horiz-adv-x="525" 
d="M331 352q76 -28 115 -66.5t39 -108.5q0 -57 -19 -95.5t-53.5 -57t-68.5 -25t-78 -6.5q-85 0 -141.5 29t-84.5 73v192h10q2 -119 59 -191.5t157 -72.5q74 0 115 38t41 97q0 97 -108 134l-145 52q-54 19 -83 52t-29 92q0 64 53.5 111.5t158.5 47.5q115 0 190 -67l7 -172
h-10q-15 106 -59.5 158.5t-130.5 52.5q-70 0 -108.5 -33.5t-38.5 -88.5q0 -68 74 -95zM205 -91l58 57l58 -57l-51 -187h-7v128z" />
    <glyph glyph-name="uni0219" unicode="&#x219;" horiz-adv-x="414" 
d="M272 249q49 -17 73 -45.5t24 -77.5q0 -133 -158 -133q-107 0 -161 72v145h10q9 -90 48 -139.5t103 -49.5q50 0 78 23.5t28 68.5q0 31 -17.5 51.5t-60.5 35.5l-85 29q-95 32 -95 118q0 46 36.5 80t111.5 34q94 0 150 -48l7 -123h-10q-19 75 -54 109t-90 34
q-44 0 -71.5 -22t-27.5 -56q0 -29 16 -46t49 -28zM152 -91l58 57l58 -57l-51 -187h-7v128z" />
    <glyph glyph-name="uni021A" unicode="&#x21a;" horiz-adv-x="559" 
d="M546 615l12 -104l-11 -2q-4 36 -22.5 63.5t-57.5 27.5h-158v-519q0 -70 71 -70v-11h-202v11q29 0 50.5 15.5t21.5 54.5v519h-158q-39 0 -57.5 -27t-22.5 -62l-11 1l12 103l3 29q19 -7 73 -7h381q54 0 73 7zM222 -91l58 57l58 -57l-51 -187h-7v128z" />
    <glyph glyph-name="uni021B" unicode="&#x21b;" horiz-adv-x="325" 
d="M291 82h9q0 -4 -1 -10t-7 -21t-15.5 -27t-29 -21.5t-45.5 -9.5q-109 0 -109 124v300h-63v23q51 12 76.5 47.5t31.5 104.5h11v-155l61 15h88v-35h-149v-294q0 -92 72 -92q26 0 43.5 12.5t21.5 25.5zM132 -91l58 57l58 -57l-51 -187h-7v128z" />
    <glyph glyph-name="circumflex" unicode="&#x2c6;" horiz-adv-x="311" 
d="M17 539l94 108h22l95 -108h-60l-45 62l-47 -62h-59z" />
    <glyph glyph-name="caron" unicode="&#x2c7;" horiz-adv-x="311" 
d="M-13 638h59l47 -62l45 62h60l-95 -108h-22z" />
    <glyph glyph-name="breve" unicode="&#x2d8;" horiz-adv-x="297" 
d="M50 637h59q-10 -39 1 -63.5t39 -24.5q27 0 38 24.5t1 63.5h59q2 -55 -26 -81.5t-72 -26.5q-43 0 -72 28.5t-27 79.5z" />
    <glyph glyph-name="dotaccent" unicode="&#x2d9;" horiz-adv-x="216" 
d="M50 601l58 58l58 -58l-58 -59z" />
    <glyph glyph-name="ring" unicode="&#x2da;" horiz-adv-x="216" 
d="M108 532q-24 0 -41 17t-17 41t17 40.5t41 16.5t41 -16.5t17 -40.5t-17 -41t-41 -17zM108 556q14 0 24 10t10 24t-10 23.5t-24 9.5t-23.5 -9.5t-9.5 -23.5t9.5 -24t23.5 -10z" />
    <glyph glyph-name="ogonek" unicode="&#x2db;" horiz-adv-x="203" 
d="M183 -172q-37 -21 -74 -21q-41 0 -65 22t-24 59q0 72 106 125l11 -4q-40 -28 -58.5 -52.5t-18.5 -54.5q0 -18 11.5 -29.5t31.5 -11.5q26 0 51 22z" />
    <glyph glyph-name="tilde" unicode="&#x2dc;" horiz-adv-x="331" 
d="M50 537q43 51 77 51q20 0 49 -10t45 -10q21 0 55 24l5 -6q-43 -51 -78 -51q-20 0 -48.5 10t-44.5 10q-19 0 -55 -23z" />
    <glyph glyph-name="hungarumlaut" unicode="&#x2dd;" horiz-adv-x="250" 
d="M120 646l-41 -134h-17v134h58zM212 646l-42 -134h-16v134h58z" />
    <glyph glyph-name="gravecomb" unicode="&#x300;" 
d="M-214 617l47 47q21 -48 46.5 -83.5t70.5 -66.5l-6 -10q-97 36 -158 113z" />
    <glyph glyph-name="acutecomb" unicode="&#x301;" 
d="M-50 617q-61 -77 -158 -113l-6 10q45 31 70.5 66.5t46.5 83.5z" />
    <glyph glyph-name="uni0302" unicode="&#x302;" 
d="M-228 539l94 108h22l95 -108h-60l-45 62l-47 -62h-59z" />
    <glyph glyph-name="tildecomb" unicode="&#x303;" 
d="M-281 537q43 51 77 51q20 0 49 -10t45 -10q21 0 55 24l5 -6q-43 -51 -78 -51q-20 0 -48.5 10t-44.5 10q-19 0 -55 -23z" />
    <glyph glyph-name="uni0304" unicode="&#x304;" 
d="M-319 570h269v-28h-269v28z" />
    <glyph glyph-name="uni0306" unicode="&#x306;" 
d="M-247 637h59q-10 -39 1 -63.5t39 -24.5q27 0 38 24.5t1 63.5h59q2 -55 -26 -81.5t-72 -26.5q-43 0 -72 28.5t-27 79.5z" />
    <glyph glyph-name="uni0307" unicode="&#x307;" 
d="M-166 601l58 58l58 -58l-58 -59z" />
    <glyph glyph-name="uni0308" unicode="&#x308;" 
d="M-257 542l-58 59l58 58l58 -58zM-107 542l-58 59l58 58l57 -58z" />
    <glyph glyph-name="uni030A" unicode="&#x30a;" 
d="M-108 532q-24 0 -41 17t-17 41t17 40.5t41 16.5t41 -16.5t17 -40.5t-17 -41t-41 -17zM-108 556q14 0 24 10t10 24t-10 23.5t-24 9.5t-23.5 -9.5t-9.5 -23.5t9.5 -24t23.5 -10z" />
    <glyph glyph-name="uni030B" unicode="&#x30b;" 
d="M-130 646l-41 -134h-17v134h58zM-38 646l-42 -134h-16v134h58z" />
    <glyph glyph-name="uni030C" unicode="&#x30c;" 
d="M-231 638h59l47 -62l45 62h60l-95 -108h-22z" />
    <glyph glyph-name="uni0312" unicode="&#x312;" 
d="M-50 728l-58 -57l-58 57l51 187h7v-128z" />
    <glyph glyph-name="uni0326" unicode="&#x326;" 
d="M-166 -91l58 57l58 -57l-51 -187h-7v128z" />
    <glyph glyph-name="uni0327" unicode="&#x327;" 
d="M-125 -55q75 0 75 -71q0 -31 -23.5 -52.5t-61.5 -21.5q-36 0 -57.5 19t-21.5 46q0 22 5 34l44 -9q-8 -14 -8 -28q0 -15 10.5 -25t28.5 -10q44 0 44 47q0 25 -15 40.5t-42 15.5q-23 0 -45 -8l40 86h49l-37 -64q5 1 15 1z" />
    <glyph glyph-name="uni0328" unicode="&#x328;" 
d="M-20 -172q-37 -21 -74 -21q-41 0 -65 22t-24 59q0 72 106 125l11 -4q-40 -28 -58.5 -52.5t-18.5 -54.5q0 -18 11.5 -29.5t31.5 -11.5q26 0 51 22z" />
    <glyph glyph-name="uni0335" unicode="&#x335;" 
d="M-319 570h269v-28h-269v28z" />
    <glyph glyph-name="Wgrave" unicode="&#x1e80;" horiz-adv-x="1020" 
d="M586 682q-93 21 -158 103l47 47q21 -49 46.5 -82.5t70.5 -57.5zM1017 637v-11q-75 0 -93 -68l-152 -558h-84l-162 475q-6 -23 -20 -63l-136 -412h-86l-184 560q-22 66 -97 66v11h203v-11q-69 0 -47 -66l176 -536l170 513l-8 23q-23 66 -97 66v11h130l208 -608l144 529
q18 68 -50 68v11h185z" />
    <glyph glyph-name="wgrave" unicode="&#x1e81;" horiz-adv-x="738" 
d="M447 504q-97 36 -158 113l47 47q21 -48 46.5 -83.5t70.5 -66.5zM738 452v-10q-62 0 -79 -61l-107 -381h-59l-107 318l-106 -318h-60l-133 382q-20 60 -84 60v10h116l141 -408l110 323l-5 15q-20 60 -84 60v10h115l137 -404l93 333q17 61 -58 61v10h170z" />
    <glyph glyph-name="Wacute" unicode="&#x1e82;" horiz-adv-x="1020" 
d="M592 785q-65 -82 -158 -103l-6 10q45 24 70.5 57.5t46.5 82.5zM1017 637v-11q-75 0 -93 -68l-152 -558h-84l-162 475q-6 -23 -20 -63l-136 -412h-86l-184 560q-22 66 -97 66v11h203v-11q-69 0 -47 -66l176 -536l170 513l-8 23q-23 66 -97 66v11h130l208 -608l144 529
q18 68 -50 68v11h185z" />
    <glyph glyph-name="wacute" unicode="&#x1e83;" horiz-adv-x="738" 
d="M453 617q-61 -77 -158 -113l-6 10q45 31 70.5 66.5t46.5 83.5zM738 452v-10q-62 0 -79 -61l-107 -381h-59l-107 318l-106 -318h-60l-133 382q-20 60 -84 60v10h116l141 -408l110 323l-5 15q-20 60 -84 60v10h115l137 -404l93 333q17 61 -58 61v10h170z" />
    <glyph glyph-name="Wdieresis" unicode="&#x1e84;" horiz-adv-x="1020" 
d="M493 739l-58 -58l-58 58l58 58zM642 739l-57 -58l-58 58l58 58zM1017 637v-11q-75 0 -93 -68l-152 -558h-84l-162 475q-6 -23 -20 -63l-136 -412h-86l-184 560q-22 66 -97 66v11h203v-11q-69 0 -47 -66l176 -536l170 513l-8 23q-23 66 -97 66v11h130l208 -608l144 529
q18 68 -50 68v11h185z" />
    <glyph glyph-name="wdieresis" unicode="&#x1e85;" horiz-adv-x="738" 
d="M354 601l-58 -59l-58 59l58 58zM503 601l-57 -59l-58 59l58 58zM738 452v-10q-62 0 -79 -61l-107 -381h-59l-107 318l-106 -318h-60l-133 382q-20 60 -84 60v10h116l141 -408l110 323l-5 15q-20 60 -84 60v10h115l137 -404l93 333q17 61 -58 61v10h170z" />
    <glyph glyph-name="Ygrave" unicode="&#x1ef2;" horiz-adv-x="609" 
d="M380 682q-93 21 -158 103l47 47q21 -49 46.5 -82.5t70.5 -57.5zM606 637v-11q-77 0 -110 -60l-171 -308v-177q0 -70 71 -70v-11h-202v11q29 0 50.5 15.5t21.5 54.5v174l-155 309q-31 62 -108 62v11h137l164 -335l146 264q20 34 -2.5 47t-65.5 13v11h224z" />
    <glyph glyph-name="ygrave" unicode="&#x1ef3;" horiz-adv-x="485" 
d="M321 504q-97 36 -158 113l47 47q21 -48 46.5 -83.5t70.5 -66.5zM485 452v-10q-63 0 -82 -60l-159 -488q-19 -57 -38 -77.5t-62 -20.5q-50 0 -77 30t-21 78l59 -8q-5 -41 9.5 -59t35.5 -18q24 0 35 15.5t26 59.5l34 106h-33l-123 382q-20 60 -83 60v10h118l134 -412
l111 342q11 34 -10 47t-57 13v10h183z" />
    <glyph glyph-name="endash" unicode="&#x2013;" horiz-adv-x="390" 
d="M30 256h330v-30h-330v30z" />
    <glyph glyph-name="emdash" unicode="&#x2014;" horiz-adv-x="509" 
d="M30 256h449v-30h-449v30z" />
    <glyph glyph-name="quoteleft" unicode="&#x2018;" horiz-adv-x="170" 
d="M143 472l-58 -57l-58 57l51 187h7v-128z" />
    <glyph glyph-name="quoteright" unicode="&#x2019;" horiz-adv-x="170" 
d="M27 606l58 57l58 -57l-51 -187h-7v128z" />
    <glyph glyph-name="quotesinglbase" unicode="&#x201a;" horiz-adv-x="170" 
d="M27 50l58 57l58 -57l-51 -187h-7v128z" />
    <glyph glyph-name="quotedblleft" unicode="&#x201c;" horiz-adv-x="307" 
d="M143 472l-58 -57l-58 57l51 187h7v-128zM280 472l-58 -57l-58 57l51 187h7v-128z" />
    <glyph glyph-name="quotedblright" unicode="&#x201d;" horiz-adv-x="307" 
d="M27 602l58 57l58 -57l-51 -187h-7v128zM164 602l58 57l58 -57l-51 -187h-7v128z" />
    <glyph glyph-name="quotedblbase" unicode="&#x201e;" horiz-adv-x="170" 
d="M85 107l58 -57l-51 -187h-7v128l-58 59z" />
    <glyph glyph-name="dagger" unicode="&#x2020;" horiz-adv-x="307" 
d="M277 562v-29h-106v-347h-35v347h-106v29h106v133h35v-133h106z" />
    <glyph glyph-name="daggerdbl" unicode="&#x2021;" horiz-adv-x="307" 
d="M277 533h-106v-185h106v-29h-106v-133h-35v133h-106v29h106v185h-106v29h106v133h35v-133h106v-29z" />
    <glyph glyph-name="bullet" unicode="&#x2022;" horiz-adv-x="218" 
d="M109 170q-24 0 -41 17t-17 41t17 41t41 17t41 -17t17 -41t-17 -41t-41 -17z" />
    <glyph glyph-name="ellipsis" unicode="&#x2026;" horiz-adv-x="517" 
d="M85 -9l-58 59l58 57l58 -57zM262 -9l-58 59l58 57l58 -57zM433 -9l-59 59l59 57l57 -57z" />
    <glyph glyph-name="perthousand" unicode="&#x2030;" horiz-adv-x="976" 
d="M159 359q-61 0 -95 41.5t-34 104.5t34 102.5t95 39.5q62 0 96 -39.5t34 -102.5t-34 -104.5t-96 -41.5zM87 0l444 637h38l-444 -637h-38zM159 375q42 0 64 35.5t22 94.5q0 57 -22 91.5t-64 34.5q-41 0 -63 -34.5t-22 -91.5q0 -59 22 -94.5t63 -35.5zM497 -7
q-61 0 -95 41.5t-34 104.5t34 102.5t95 39.5q62 0 96 -39.5t34 -102.5t-34 -104.5t-96 -41.5zM816 -7q-61 0 -95 41.5t-34 104.5t34 102.5t95 39.5q62 0 96 -39.5t34 -102.5t-34 -104.5t-96 -41.5zM497 9q42 0 64 35.5t22 94.5q0 57 -22 91.5t-64 34.5q-41 0 -63 -34.5
t-22 -91.5q0 -59 22 -94.5t63 -35.5zM816 9q42 0 64 35.5t22 94.5q0 57 -22 91.5t-64 34.5q-41 0 -63 -34.5t-22 -91.5q0 -59 22 -94.5t63 -35.5z" />
    <glyph glyph-name="guilsinglleft" unicode="&#x2039;" horiz-adv-x="323" 
d="M30 244l263 195v-37l-215 -158l215 -157v-38z" />
    <glyph glyph-name="guilsinglright" unicode="&#x203a;" horiz-adv-x="323" 
d="M293 244l-263 -195v38l215 157l-215 158v37z" />
    <glyph glyph-name="uni203D" unicode="&#x203d;" horiz-adv-x="743" 
d="M528 633q84 -31 112.5 -92.5t6.5 -122.5q-28 -77 -92 -105t-145 -4l23 -28l-79 -103l-2 1l32 162l14 -3q23 -8 50.5 -6.5t53 9.5t49 32t36.5 60q23 54 6 102.5t-76 69.5q-54 20 -101 0t-66 -74q-15 -40 -7 -85l-74 16q-2 42 14 84q22 60 93.5 88t151.5 -1zM269 176l-7 -3
l-187 408l23 53l53 -25zM258 50l58 57l58 -57l-58 -59z" />
    <glyph glyph-name="fraction" unicode="&#x2044;" horiz-adv-x="304" 
d="M-43 34l359 575l30 -6l-359 -575z" />
    <glyph glyph-name="Euro" unicode="&#x20ac;" horiz-adv-x="673" 
d="M628 195l15 -3q-38 -199 -232 -199q-121 0 -194 71.5t-86 203.5h-101v29h99v23q0 20 1 29h-70v29h72q13 129 84 199t190 70q194 0 232 -199l-15 -3q-13 68 -68.5 119t-137.5 51q-95 0 -153 -59.5t-69 -177.5h320v-29h-322q-1 -9 -1 -29v-23h293v-29h-291q11 -121 71 -182
t157 -61q82 0 137.5 51t68.5 119z" />
    <glyph glyph-name="arrowleft" unicode="&#x2190;" horiz-adv-x="474" 
d="M444 225h-193l-185 10q109 -35 216 -151l-30 -29q-47 65 -98 105.5t-124 71.5v16q73 31 124 71.5t98 105.5l30 -29q-107 -116 -216 -151l185 10h193v-30z" />
    <glyph glyph-name="arrowup" unicode="&#x2191;" horiz-adv-x="430" 
d="M223 432q31 -73 71.5 -124t105.5 -98l-29 -30q-116 107 -151 216l10 -185v-193h-30v193l10 185q-35 -109 -151 -216l-29 30q65 47 105.5 98t71.5 124h16z" />
    <glyph glyph-name="arrowright" unicode="&#x2192;" horiz-adv-x="474" 
d="M222 425q47 -65 98 -105.5t124 -71.5v-16q-73 -31 -124 -71.5t-98 -105.5l-30 29q107 116 216 151l-185 -10h-193v30h193l185 -10q-109 35 -216 151z" />
    <glyph glyph-name="arrowdown" unicode="&#x2193;" horiz-adv-x="430" 
d="M371 320l29 -30q-65 -47 -105.5 -98t-71.5 -124h-16q-31 73 -71.5 124t-105.5 98l29 30q116 -107 151 -216l-10 185v193h30v-193l-10 -185q35 109 151 216z" />
    <glyph glyph-name="arrowboth" unicode="&#x2194;" horiz-adv-x="695" 
d="M443 425q47 -65 98 -105.5t124 -71.5v-16q-73 -31 -124 -71.5t-98 -105.5l-30 29q44 48 103.5 89t114.5 62l-187 -10h-193l-185 10q109 -35 216 -151l-30 -29q-47 65 -98 105.5t-124 71.5v16q73 31 124 71.5t98 105.5l30 -29q-107 -116 -216 -151l185 10h193l187 -10
q-55 21 -114.5 62t-103.5 89z" />
    <glyph glyph-name="arrowupdn" unicode="&#x2195;" horiz-adv-x="430" 
d="M220 -6q20 62 57.5 110t93.5 96l29 -30q-66 -45 -106.5 -93t-70.5 -119h-16q-30 71 -70.5 119t-106.5 93l29 30q56 -48 93.5 -96t57.5 -110l-10 185v103l10 185q-35 -108 -151 -206l-29 30q66 44 106 92t71 120h16q31 -72 71 -120t106 -92l-29 -30q-116 98 -151 206
l10 -185v-103z" />
    <glyph glyph-name="uni2196" unicode="&#x2196;" horiz-adv-x="369" 
d="M202 262l137 -137l-21 -21l-137 137l-124 138q53 -101 46 -260l-41 1q12 80 5 144.5t-37 137.5l11 11q73 -30 137.5 -37t144.5 5l1 -41q-159 -7 -260 46z" />
    <glyph glyph-name="uni2197" unicode="&#x2197;" horiz-adv-x="369" 
d="M339 402q-30 -73 -37 -137.5t5 -144.5l-41 -1q-7 159 46 260l-124 -138l-137 -137l-21 21l137 137l138 124q-101 -53 -260 -46l1 41q80 -12 144.5 -5t137.5 37z" />
    <glyph glyph-name="uni2198" unicode="&#x2198;" horiz-adv-x="369" 
d="M307 395q-12 -80 -5 -144.5t37 -137.5l-11 -11q-73 30 -137.5 37t-144.5 -5l-1 41q159 7 260 -46l-138 124l-137 137l21 21l137 -137l124 -138q-53 101 -46 260z" />
    <glyph glyph-name="uni2199" unicode="&#x2199;" horiz-adv-x="369" 
d="M64 129q101 53 260 46l-1 -41q-80 12 -144.5 5t-137.5 -37l-11 11q30 73 37 137.5t-5 144.5l41 1q7 -159 -46 -260l124 138l137 137l21 -21l-137 -137z" />
    <glyph glyph-name="partialdiff" unicode="&#x2202;" horiz-adv-x="438" 
d="M125 641q114 -11 198.5 -105t84.5 -258q0 -153 -40 -218t-140 -65q-92 0 -145 65t-53 174q0 116 44.5 171.5t117.5 55.5q57 0 98 -39.5t58 -100.5q-7 138 -66 215.5t-159 94.5zM228 23q121 0 121 176q0 88 -42 161t-102 73q-54 0 -84 -52t-30 -148q0 -102 35 -156
t102 -54z" />
    <glyph glyph-name="emptyset" unicode="&#x2205;" horiz-adv-x="322" 
d="M244 333q42 -37 42 -93q0 -52 -36.5 -89t-88.5 -37q-38 0 -70 21l-47 -60l-14 9l47 61q-42 37 -42 95q0 52 37 88.5t89 36.5q38 0 70 -21l46 60l15 -9zM60 240q0 -46 31 -77l126 163q-25 17 -56 17q-43 0 -72 -29.5t-29 -73.5zM161 136q42 0 71 29.5t29 74.5q0 46 -31 75
l-126 -162q25 -17 57 -17z" />
    <glyph glyph-name="product" unicode="&#x220f;" horiz-adv-x="446" 
d="M416 667h-70v-693q0 -36 18 -50t42 -14v-10h-155v10q24 0 42 14t18 50v693h-206v-693q0 -36 18 -50t42 -14v-10h-155v10q24 0 42 14t18 50v693h-70v30h416v-30z" />
    <glyph glyph-name="summation" unicode="&#x2211;" horiz-adv-x="527" 
d="M30 -100v30l240 360l-240 377v30h423l3 -20l12 -69l-10 -2q-10 61 -74 61h-313l234 -371l-238 -366h337q36 0 56 18.5t27 41.5l10 -3l-29 -87h-438z" />
    <glyph glyph-name="minus" unicode="&#x2212;" horiz-adv-x="390" 
d="M30 256h330v-30h-330v30z" />
    <glyph glyph-name="radical" unicode="&#x221a;" horiz-adv-x="576" 
d="M566 697v-30h-98l-263 -767h-41l-134 377h37l122 -345l261 765h116z" />
    <glyph glyph-name="infinity" unicode="&#x221e;" horiz-adv-x="529" 
d="M30 243q0 59 32.5 92.5t86.5 33.5q49 0 73.5 -30t28.5 -79q6 46 40.5 77.5t85.5 31.5q50 0 86 -34t36 -92t-32.5 -91.5t-85.5 -33.5q-49 0 -74 30t-28 78q-7 -45 -41.5 -76.5t-84.5 -31.5q-51 0 -87 34t-36 91zM65 248q0 -49 25.5 -76t62.5 -27q39 0 64 24t25 79
q0 51 -24 77.5t-64 26.5t-64.5 -26.5t-24.5 -77.5zM287 238q0 -50 24.5 -76.5t64.5 -26.5t64 26.5t24 76.5t-25 77t-62 27q-90 0 -90 -104z" />
    <glyph glyph-name="integral" unicode="&#x222b;" horiz-adv-x="332" 
d="M135 43q0 -2 -2.5 -16.5t-3.5 -17.5t-3.5 -16t-4.5 -17t-5.5 -14.5t-7.5 -16t-9.5 -13.5t-12 -14t-14.5 -12l-42 67l4 3q4 -3 13 -3q21 0 37 20t22 53l91 515q0 1 3 18t3.5 20t4 17.5t6 19t7 16t9.5 17.5t12.5 14.5t16.5 14.5l43 -66l-4 -4q-5 3 -14 3q-21 0 -36.5 -20
t-21.5 -53z" />
    <glyph glyph-name="approxequal" unicode="&#x2248;" horiz-adv-x="291" 
d="M30 265q43 51 77 51q20 0 49 -10t45 -10q21 0 55 24l5 -6q-43 -51 -78 -51q-20 0 -48.5 10t-44.5 10q-19 0 -55 -23zM30 172q43 51 77 51q20 0 49 -10t45 -10q21 0 55 24l5 -6q-43 -51 -78 -51q-20 0 -48.5 10t-44.5 10q-19 0 -55 -23z" />
    <glyph glyph-name="notequal" unicode="&#x2260;" horiz-adv-x="279" 
d="M249 276h-90l-28 -70h118v-30h-130l-32 -80h-27l32 80h-62v30h73l28 70h-101v30h113l29 74h28l-29 -74h78v-30z" />
    <glyph glyph-name="lessequal" unicode="&#x2264;" horiz-adv-x="382" 
d="M352 425v-39l-274 -142l274 -141v-40h-319v29h267l-270 152z" />
    <glyph glyph-name="greaterequal" unicode="&#x2265;" horiz-adv-x="382" 
d="M352 244l-270 -152h267v-29h-319v40l274 141l-274 142v39z" />
    <glyph glyph-name="lozenge" unicode="&#x25ca;" horiz-adv-x="382" 
d="M218 637l134 -317l-134 -320h-54l-134 320l134 317h54zM191 31l123 289l-123 287l-123 -287z" />
    <glyph glyph-name="i.loclTRK" horiz-adv-x="244" 
d="M64 601l58 58l58 -58l-58 -59zM150 74q0 -36 17.5 -50t41.5 -14v-10h-174v10q24 0 42 14t18 50v304q0 36 -18 50t-42 14v10h115v-378z" />
    <glyph glyph-name="f_f" horiz-adv-x="647" 
d="M405 436l70 16h152v-35h-222v-365q0 -45 41 -45v-7h-138v7q42 0 42 45v365h-201v-343q0 -36 17.5 -50t41.5 -14v-10h-174v10q24 0 42 14t18 50v342l-69 17v19h80l-11 58q0 67 35.5 102t94.5 35q40 0 66 -12.5t51 -47.5l-66 -43l-4 3q3 7 3 14q0 58 -52 58
q-38 0 -55.5 -23t-17.5 -76v-84l66 16h154l-19 58q0 56 44 96.5t125 40.5q55 0 92.5 -17t70.5 -59l-59 -57l-2 3q0 43 -29 73t-80 30q-52 0 -79.5 -31t-27.5 -86v-67z" />
    <glyph glyph-name="f_j" horiz-adv-x="466" 
d="M413 452v-502l-59 -210h-10l14 260v378q0 23 -9 39h-200v-365q0 -45 41 -45v-7h-138v7q42 0 42 45v364l-69 17v19h88l-19 58q0 56 44 96.5t125 40.5q55 0 92.5 -17t70.5 -59l-59 -57l-2 3q0 43 -29 73t-80 30q-52 0 -79.5 -31t-27.5 -86v-67l70 16h194z" />
    <glyph glyph-name="four.ss01" horiz-adv-x="530" 
d="M494 318l11 -1l-14 -96l-6 -42h-108v-98q0 -39 21.5 -54.5t50.5 -15.5v-11h-214v11q83 0 83 70v98h-303l268 475l15 -6l-189 -439l209 15v252q37 75 54 143h4l1 -391l35 2q39 2 58 28.5t24 59.5z" />
    <glyph glyph-name="uni0308.case" 
d="M-315 739l58 58l58 -58l-58 -58zM-165 739l58 58l57 -58l-57 -58z" />
    <glyph glyph-name="gravecomb.case" 
d="M-214 785l47 47q21 -49 46.5 -82.5t70.5 -57.5l-6 -10q-93 21 -158 103z" />
    <glyph glyph-name="acutecomb.case" 
d="M-50 785q-65 -82 -158 -103l-6 10q45 24 70.5 57.5t46.5 82.5z" />
    <glyph glyph-name="uni0302.case" 
d="M-231 686l94 108h22l95 -108h-60l-45 62l-47 -62h-59z" />
    <glyph glyph-name="uni030C.case" 
d="M-231 794h59l47 -62l45 62h60l-95 -108h-22z" />
    <glyph glyph-name="uni0306.case" 
d="M-247 793h59q-10 -39 1 -63.5t39 -24.5q27 0 38 24.5t1 63.5h59q2 -55 -26 -81.5t-72 -26.5q-43 0 -72 28.5t-27 79.5z" />
    <glyph glyph-name="uni030A.case" 
d="M-108 681q-24 0 -41 17t-17 41t17 41t41 17t41 -17t17 -41t-17 -41t-41 -17zM-108 706q14 0 24 9.5t10 23.5t-10 24t-24 10t-23.5 -10t-9.5 -24t9.5 -23.5t23.5 -9.5z" />
    <glyph glyph-name="tildecomb.case" 
d="M-318 702q49 51 99 51q24 0 52 -10t47 -10q26 0 64 24l6 -6q-49 -51 -100 -51q-24 0 -52 10t-47 10q-23 0 -63 -23z" />
    <glyph glyph-name="uni0335.case" 
d="M-380 444h330v-28h-330v28z" />
    <glyph glyph-name="uni0336.case" 
d="M-566 511h516v-28h-516v28z" />
    <glyph glyph-name="uni0337.case" 
d="M-250 328l221 63l9 -26l-222 -64z" />
    </font>
</defs>
</svg>
